<?xml version="1.0" ?>
<svg xmlns="http://www.w3.org/2000/svg" version="1.1" width="256" height="256">
  <defs/>
  <g>
    <path d="M 124.99099731445312 169.74200439453125 C 25.456499099731445 149.2480010986328 61.10279846191406 176.1739959716797 56.832801818847656 173.9739990234375" stroke-width="3.0" fill="none" stroke="rgb(0, 255, 0)" stroke-opacity="1" stroke-linecap="round" stroke-linejoin="round"/>
    <path d="M 188.29200744628906 150.60699462890625 C 210.71400451660156 166.9239959716797 214.92599487304688 166.3509979248047 177.843994140625 125.80999755859375" stroke-width="3.0" fill="none" stroke="rgb(0, 0, 255)" stroke-opacity="1" stroke-linecap="round" stroke-linejoin="round"/>
    <path d="M 192.50599670410156 134.47999572753906 C 197.20799255371094 142.38299560546875 177.1719970703125 164.52099609375 167.4510040283203 125.31600189208984" stroke-width="3.0" fill="none" stroke="rgb(0, 0, 255)" stroke-opacity="1" stroke-linecap="round" stroke-linejoin="round"/>
    <path d="M 74.57029724121094 166.94000244140625 C 175.16900634765625 182.85400390625 117.6240005493164 148.36900329589844 30.91230010986328 152.28799438476562" stroke-width="3.0" fill="none" stroke="rgb(0, 255, 0)" stroke-opacity="1" stroke-linecap="round" stroke-linejoin="round"/>
    <path d="M 179.91099548339844 210.6649932861328 C 194.95199584960938 160.1020050048828 208.01699829101562 209.3070068359375 237.8209991455078 208.1199951171875" stroke-width="3.0" fill="none" stroke="rgb(0, 0, 255)" stroke-opacity="1" stroke-linecap="round" stroke-linejoin="round"/>
    <path d="M 104.99700164794922 153.89700317382812 C 65.7573013305664 123.8219985961914 26.316600799560547 152.6320037841797 84.73069763183594 154.24099731445312" stroke-width="3.0" fill="none" stroke="rgb(0, 255, 0)" stroke-opacity="1" stroke-linecap="round" stroke-linejoin="round"/>
    <path d="M 200.33999633789062 189.93699645996094 C 147.96800231933594 206.8820037841797 125.63500213623047 215.2209930419922 199.76600646972656 183.91000366210938" stroke-width="3.0" fill="none" stroke="rgb(0, 0, 255)" stroke-opacity="1" stroke-linecap="round" stroke-linejoin="round"/>
    <path d="M 237.68899536132812 194.2449951171875 C 183.98300170898438 183.62399291992188 162.8090057373047 154.2790069580078 238.3090057373047 184.07000732421875" stroke-width="3.0" fill="none" stroke="rgb(0, 0, 255)" stroke-opacity="1" stroke-linecap="round" stroke-linejoin="round"/>
    <path d="M 49.786598205566406 123.81800079345703 C 31.85919952392578 134.8780059814453 47.279598236083984 135.01800537109375 28.78660011291504 148.81700134277344" stroke-width="3.0" fill="none" stroke="rgb(0, 255, 0)" stroke-opacity="1" stroke-linecap="round" stroke-linejoin="round"/>
    <path d="M 38.26219940185547 176.19700622558594 C 124.08499908447266 166.84800720214844 76.8240966796875 165.4600067138672 120.40399932861328 165.21800231933594" stroke-width="3.0" fill="none" stroke="rgb(0, 255, 0)" stroke-opacity="1" stroke-linecap="round" stroke-linejoin="round"/>
    <path d="M 161.80599975585938 188.36099243164062 C 209.42100524902344 168.468994140625 171.03799438476562 152.5070037841797 117.01899719238281 133.54100036621094" stroke-width="3.0" fill="none" stroke="rgb(255, 255, 0)" stroke-opacity="1" stroke-linecap="round" stroke-linejoin="round"/>
    <path d="M 203.88600158691406 126.18800354003906 C 160.03199768066406 157.447998046875 205.3260040283203 138.1739959716797 201.58999633789062 172.21200561523438" stroke-width="3.0" fill="none" stroke="rgb(0, 0, 255)" stroke-opacity="1" stroke-linecap="round" stroke-linejoin="round"/>
    <path d="M 73.7468032836914 64.43769836425781 C 117.4749984741211 46.3129997253418 26.21430015563965 82.73809814453125 71.78489685058594 55.0640983581543" stroke-width="3.0" fill="none" stroke="rgb(0, 255, 0)" stroke-opacity="1" stroke-linecap="round" stroke-linejoin="round"/>
    <path d="M 221.00999450683594 26.0 C 160.2550048828125 77.45330047607422 126.74400329589844 103.93199920654297 190.31399536132812 69.48320007324219" stroke-width="3.0" fill="none" stroke="rgb(0, 0, 255)" stroke-opacity="1" stroke-linecap="round" stroke-linejoin="round"/>
    <path d="M 166.2429962158203 69.37629699707031 C 212.77200317382812 28.75040054321289 234.76699829101562 20.88759994506836 227.96499633789062 31.365800857543945" stroke-width="3.0" fill="none" stroke="rgb(0, 0, 255)" stroke-opacity="1" stroke-linecap="round" stroke-linejoin="round"/>
    <path d="M 236.9199981689453 196.4510040283203 C 153.1649932861328 221.71200561523438 159.55299377441406 210.3730010986328 236.7570037841797 194.21600341796875" stroke-width="3.0" fill="none" stroke="rgb(0, 0, 255)" stroke-opacity="1" stroke-linecap="round" stroke-linejoin="round"/>
    <path d="M 38.30289840698242 179.44400024414062 C 151.1750030517578 177.80799865722656 93.58460235595703 158.60000610351562 23.78660011291504 162.83599853515625" stroke-width="3.0" fill="none" stroke="rgb(0, 255, 0)" stroke-opacity="1" stroke-linecap="round" stroke-linejoin="round"/>
    <path d="M 26.0 193.0 C 62.755401611328125 183.072998046875 66.13690185546875 172.4770050048828 110.0 158.0" stroke-width="3.0" fill="none" stroke="rgb(0, 255, 0)" stroke-opacity="1" stroke-linecap="round" stroke-linejoin="round"/>
    <path d="M 188.88600158691406 153.68299865722656 C 115.11799621582031 109.43199920654297 145.072998046875 140.48199462890625 163.1959991455078 106.81800079345703" stroke-width="3.0" fill="none" stroke="rgb(0, 0, 255)" stroke-opacity="1" stroke-linecap="round" stroke-linejoin="round"/>
    <path d="M 32.16080093383789 132.38900756835938 C 132.88800048828125 159.1750030517578 83.50370025634766 155.69200134277344 31.369400024414062 160.17599487304688" stroke-width="3.0" fill="none" stroke="rgb(0, 255, 0)" stroke-opacity="1" stroke-linecap="round" stroke-linejoin="round"/>
    <path d="M 106.4729995727539 68.44979858398438 C 58.82529830932617 53.425498962402344 20.622499465942383 84.63140106201172 79.38150024414062 90.74749755859375" stroke-width="3.0" fill="none" stroke="rgb(0, 255, 0)" stroke-opacity="1" stroke-linecap="round" stroke-linejoin="round"/>
    <path d="M 39.38240051269531 178.9010009765625 C 30.363000869750977 178.71099853515625 -18.116899490356445 190.96099853515625 89.14920043945312 161.2030029296875" stroke-width="3.0" fill="none" stroke="rgb(0, 255, 0)" stroke-opacity="1" stroke-linecap="round" stroke-linejoin="round"/>
    <path d="M 187.01199340820312 106.10299682617188 C 143.50599670410156 146.57899475097656 128.7209930419922 126.99099731445312 182.41600036621094 153.92300415039062" stroke-width="3.0" fill="none" stroke="rgb(0, 0, 255)" stroke-opacity="1" stroke-linecap="round" stroke-linejoin="round"/>
    <path d="M 119.56999969482422 128.177001953125 C 161.47900390625 122.58799743652344 176.66400146484375 127.58200073242188 193.2100067138672 166.45899963378906" stroke-width="3.0" fill="none" stroke="rgb(0, 0, 255)" stroke-opacity="1" stroke-linecap="round" stroke-linejoin="round"/>
    <path d="M 217.76499938964844 82.85199737548828 C 165.97900390625 94.1270980834961 174.3249969482422 87.99569702148438 230.08200073242188 65.06300354003906" stroke-width="3.0" fill="none" stroke="rgb(0, 0, 255)" stroke-opacity="1" stroke-linecap="round" stroke-linejoin="round"/>
    <path d="M 223.51300048828125 151.28399658203125 C 218.53799438476562 138.9199981689453 226.75 141.79600524902344 219.2259979248047 127.17500305175781" stroke-width="3.0" fill="none" stroke="rgb(0, 0, 255)" stroke-opacity="1" stroke-linecap="round" stroke-linejoin="round"/>
    <path d="M 212.9980010986328 46.25429916381836 C 163.55499267578125 68.72699737548828 141.88999938964844 65.94390106201172 221.0449981689453 48.20389938354492" stroke-width="3.0" fill="none" stroke="rgb(0, 0, 255)" stroke-opacity="1" stroke-linecap="round" stroke-linejoin="round"/>
    <path d="M 161.01699829101562 151.95899963378906 C 196.19400024414062 168.2169952392578 275.7229919433594 181.25999450683594 197.31199645996094 179.4510040283203" stroke-width="3.0" fill="none" stroke="rgb(0, 0, 255)" stroke-opacity="1" stroke-linecap="round" stroke-linejoin="round"/>
    <path d="M 212.18899536132812 164.28199768066406 C 157.9770050048828 144.87600708007812 187.76100158691406 116.66200256347656 191.1999969482422 178.48399353027344" stroke-width="3.0" fill="none" stroke="rgb(0, 0, 255)" stroke-opacity="1" stroke-linecap="round" stroke-linejoin="round"/>
    <path d="M 182.7899932861328 165.81900024414062 C 171.78700256347656 183.31700134277344 149.28500366210938 197.8939971923828 106.79000091552734 206.81900024414062" stroke-width="3.0" fill="none" stroke="rgb(255, 255, 0)" stroke-opacity="1" stroke-linecap="round" stroke-linejoin="round"/>
    <path d="M 228.10899353027344 127.1729965209961 C 245.04200744628906 98.49510192871094 222.51199340820312 74.18299865722656 164.8000030517578 116.1969985961914" stroke-width="3.0" fill="none" stroke="rgb(0, 0, 255)" stroke-opacity="1" stroke-linecap="round" stroke-linejoin="round"/>
    <path d="M 18.288799285888672 161.84800720214844 C 57.9635009765625 139.9550018310547 79.7029037475586 109.80000305175781 28.031700134277344 125.51699829101562" stroke-width="3.0" fill="none" stroke="rgb(0, 255, 0)" stroke-opacity="1" stroke-linecap="round" stroke-linejoin="round"/>
    <path d="M 186.39500427246094 162.38800048828125 C 214.57200622558594 212.74600219726562 177.9949951171875 218.25799560546875 197.28599548339844 181.53799438476562" stroke-width="3.0" fill="none" stroke="rgb(0, 0, 255)" stroke-opacity="1" stroke-linecap="round" stroke-linejoin="round"/>
    <path d="M 97.02420043945312 64.38240051269531 C 88.35030364990234 51.24810028076172 57.20819854736328 50.69390106201172 124.79199981689453 71.03700256347656" stroke-width="3.0" fill="none" stroke="rgb(0, 255, 0)" stroke-opacity="1" stroke-linecap="round" stroke-linejoin="round"/>
    <path d="M 156.58399963378906 206.19400024414062 C 198.1790008544922 173.5679931640625 190.10899353027344 159.10499572753906 202.78500366210938 207.9499969482422" stroke-width="3.0" fill="none" stroke="rgb(0, 0, 255)" stroke-opacity="1" stroke-linecap="round" stroke-linejoin="round"/>
    <path d="M 98.7865982055664 106.81800079345703 C 153.33399963378906 86.06269836425781 116.7969970703125 91.85700225830078 152.78700256347656 71.81749725341797" stroke-width="3.0" fill="none" stroke="rgb(0, 0, 255)" stroke-opacity="1" stroke-linecap="round" stroke-linejoin="round"/>
    <path d="M 60.772499084472656 72.22920227050781 C 5.422520160675049 113.18000030517578 91.31759643554688 73.56620025634766 50.07040023803711 115.9489974975586" stroke-width="3.0" fill="none" stroke="rgb(0, 255, 0)" stroke-opacity="1" stroke-linecap="round" stroke-linejoin="round"/>
    <path d="M 219.03500366210938 78.02999877929688 C 177.18299865722656 86.84410095214844 181.76400756835938 88.18620300292969 219.64500427246094 87.1686019897461" stroke-width="3.0" fill="none" stroke="rgb(0, 0, 255)" stroke-opacity="1" stroke-linecap="round" stroke-linejoin="round"/>
    <path d="M 201.44200134277344 86.47550201416016 C 147.23500061035156 107.11100006103516 183.572998046875 101.5780029296875 149.50900268554688 113.19400024414062" stroke-width="3.0" fill="none" stroke="rgb(0, 0, 255)" stroke-opacity="1" stroke-linecap="round" stroke-linejoin="round"/>
    <path d="M 189.5919952392578 191.52499389648438 C 179.11199951171875 198.89500427246094 222.38099670410156 167.69700622558594 167.34100341796875 149.7259979248047" stroke-width="3.0" fill="none" stroke="rgb(0, 0, 255)" stroke-opacity="1" stroke-linecap="round" stroke-linejoin="round"/>
    <path d="M 139.54299926757812 117.22100067138672 C 107.86100006103516 120.69599914550781 199.37100219726562 117.65899658203125 109.03099822998047 119.93000030517578" stroke-width="3.0" fill="none" stroke="rgb(0, 0, 255)" stroke-opacity="1" stroke-linecap="round" stroke-linejoin="round"/>
    <path d="M 42.21149826049805 93.51950073242188 C 56.23460006713867 64.6957015991211 67.47209930419922 80.01490020751953 105.01799774169922 68.66560363769531" stroke-width="3.0" fill="none" stroke="rgb(0, 255, 0)" stroke-opacity="1" stroke-linecap="round" stroke-linejoin="round"/>
    <path d="M 73.02960205078125 85.20220184326172 C 60.698699951171875 77.12889862060547 40.73440170288086 97.13240051269531 36.55820083618164 115.6989974975586" stroke-width="3.0" fill="none" stroke="rgb(0, 255, 0)" stroke-opacity="1" stroke-linecap="round" stroke-linejoin="round"/>
    <path d="M 44.54610061645508 89.7218017578125 C 143.78900146484375 95.7614974975586 66.58699798583984 80.14289855957031 55.26539993286133 73.85919952392578" stroke-width="3.0" fill="none" stroke="rgb(0, 255, 0)" stroke-opacity="1" stroke-linecap="round" stroke-linejoin="round"/>
    <path d="M 113.09400177001953 120.8239974975586 C 89.6636962890625 110.96900177001953 149.53599548339844 141.71099853515625 101.78700256347656 121.26300048828125" stroke-width="3.0" fill="none" stroke="rgb(0, 0, 255)" stroke-opacity="1" stroke-linecap="round" stroke-linejoin="round"/>
    <path d="M 110.75199890136719 163.59800720214844 C 44.142601013183594 117.44999694824219 57.09560012817383 118.10299682617188 4.957900047302246 140.6510009765625" stroke-width="3.0" fill="none" stroke="rgb(0, 255, 0)" stroke-opacity="1" stroke-linecap="round" stroke-linejoin="round"/>
    <path d="M 75.243896484375 85.87100219726562 C 17.177099227905273 142.9340057373047 9.906060218811035 109.10299682617188 56.31100082397461 158.2030029296875" stroke-width="3.0" fill="none" stroke="rgb(0, 255, 0)" stroke-opacity="1" stroke-linecap="round" stroke-linejoin="round"/>
    <path d="M 77.01339721679688 87.40809631347656 C 15.392000198364258 99.16940307617188 69.97740173339844 54.03089904785156 50.39979934692383 91.58529663085938" stroke-width="3.0" fill="none" stroke="rgb(0, 255, 0)" stroke-opacity="1" stroke-linecap="round" stroke-linejoin="round"/>
    <path d="M 89.08499908447266 67.9885025024414 C 60.87820053100586 57.75920104980469 31.231199264526367 121.53500366210938 65.25969696044922 104.30799865722656" stroke-width="3.0" fill="none" stroke="rgb(0, 255, 0)" stroke-opacity="1" stroke-linecap="round" stroke-linejoin="round"/>
    <path d="M 199.89100646972656 175.83599853515625 C 214.0959930419922 153.97300720214844 228.9530029296875 177.0070037841797 200.45199584960938 165.9739990234375" stroke-width="3.0" fill="none" stroke="rgb(0, 0, 255)" stroke-opacity="1" stroke-linecap="round" stroke-linejoin="round"/>
    <path d="M 67.46990203857422 63.817501068115234 C 61.24380111694336 79.29100036621094 149.3990020751953 84.6343002319336 59.786598205566406 78.25509643554688" stroke-width="3.0" fill="none" stroke="rgb(0, 255, 0)" stroke-opacity="1" stroke-linecap="round" stroke-linejoin="round"/>
    <path d="M 176.39700317382812 94.92749786376953 C 212.08900451660156 81.04560089111328 220.83999633789062 71.64089965820312 170.54100036621094 79.7489013671875" stroke-width="3.0" fill="none" stroke="rgb(0, 0, 255)" stroke-opacity="1" stroke-linecap="round" stroke-linejoin="round"/>
    <path d="M 130.1909942626953 208.0970001220703 C 253.76600646972656 185.0570068359375 275.0679931640625 177.17799377441406 160.97300720214844 213.4949951171875" stroke-width="3.0" fill="none" stroke="rgb(0, 0, 255)" stroke-opacity="1" stroke-linecap="round" stroke-linejoin="round"/>
    <path d="M 233.90699768066406 41.602500915527344 C 166.4199981689453 62.180599212646484 191.36900329589844 65.31819915771484 197.18699645996094 51.18949890136719" stroke-width="3.0" fill="none" stroke="rgb(0, 0, 255)" stroke-opacity="1" stroke-linecap="round" stroke-linejoin="round"/>
    <path d="M 182.8280029296875 69.9229965209961 C 144.51199340820312 84.981201171875 153.23800659179688 70.6343994140625 209.8459930419922 35.39179992675781" stroke-width="3.0" fill="none" stroke="rgb(0, 0, 255)" stroke-opacity="1" stroke-linecap="round" stroke-linejoin="round"/>
    <path d="M 151.9080047607422 125.63400268554688 C 105.98799896240234 120.43900299072266 123.96800231933594 132.8780059814453 202.83099365234375 156.37899780273438" stroke-width="3.0" fill="none" stroke="rgb(0, 0, 255)" stroke-opacity="1" stroke-linecap="round" stroke-linejoin="round"/>
    <path d="M 190.76100158691406 144.86199951171875 C 188.56700134277344 194.68899536132812 154.78900146484375 223.42999267578125 233.1320037841797 205.7689971923828" stroke-width="3.0" fill="none" stroke="rgb(0, 0, 255)" stroke-opacity="1" stroke-linecap="round" stroke-linejoin="round"/>
    <path d="M 144.66400146484375 199.04400634765625 C 208.6699981689453 195.44700622558594 193.39599609375 208.7899932861328 162.3459930419922 213.83700561523438" stroke-width="3.0" fill="none" stroke="rgb(0, 0, 255)" stroke-opacity="1" stroke-linecap="round" stroke-linejoin="round"/>
    <path d="M 236.01800537109375 47.575599670410156 C 179.60400390625 75.9478988647461 222.71099853515625 74.47090148925781 176.9499969482422 76.279296875" stroke-width="3.0" fill="none" stroke="rgb(0, 0, 255)" stroke-opacity="1" stroke-linecap="round" stroke-linejoin="round"/>
    <path d="M 107.36900329589844 71.8208999633789 C 141.28799438476562 61.584800720214844 102.09600067138672 87.30239868164062 187.73300170898438 62.65330123901367" stroke-width="3.0" fill="none" stroke="rgb(255, 255, 0)" stroke-opacity="1" stroke-linecap="round" stroke-linejoin="round"/>
    <path d="M 182.89300537109375 58.84389877319336 C 139.84300231933594 81.95580291748047 177.64999389648438 75.8905029296875 154.6649932861328 81.62159729003906" stroke-width="3.0" fill="none" stroke="rgb(0, 0, 255)" stroke-opacity="1" stroke-linecap="round" stroke-linejoin="round"/>
    <path d="M 44.15010070800781 92.18789672851562 C 35.654701232910156 115.34300231933594 46.25870132446289 95.96659851074219 38.429298400878906 117.447998046875" stroke-width="3.0" fill="none" stroke="rgb(0, 255, 0)" stroke-opacity="1" stroke-linecap="round" stroke-linejoin="round"/>
    <path d="M 179.73800659179688 131.17300415039062 C 144.19700622558594 147.23599243164062 187.73199462890625 131.1300048828125 176.08700561523438 134.9969940185547" stroke-width="3.0" fill="none" stroke="rgb(0, 0, 255)" stroke-opacity="1" stroke-linecap="round" stroke-linejoin="round"/>
    <path d="M 95.92220306396484 72.42259979248047 C 125.97799682617188 75.32869720458984 146.00100708007812 90.10759735107422 62.42559814453125 66.89730072021484" stroke-width="3.0" fill="none" stroke="rgb(0, 255, 0)" stroke-opacity="1" stroke-linecap="round" stroke-linejoin="round"/>
    <path d="M 97.69499969482422 150.6790008544922 C -22.4158992767334 138.18499755859375 -27.925399780273438 163.3459930419922 101.94999694824219 153.70199584960938" stroke-width="3.0" fill="none" stroke="rgb(0, 255, 0)" stroke-opacity="1" stroke-linecap="round" stroke-linejoin="round"/>
    <path d="M 188.9029998779297 209.875 C 204.45199584960938 201.41700744628906 169.56300354003906 118.52200317382812 198.3459930419922 141.81900024414062" stroke-width="3.0" fill="none" stroke="rgb(0, 0, 255)" stroke-opacity="1" stroke-linecap="round" stroke-linejoin="round"/>
    <path d="M 6.809869766235352 141.17300415039062 C 94.05180358886719 112.97699737548828 45.46540069580078 152.20599365234375 51.628299713134766 91.87069702148438" stroke-width="3.0" fill="none" stroke="rgb(0, 255, 0)" stroke-opacity="1" stroke-linecap="round" stroke-linejoin="round"/>
    <path d="M 188.63900756835938 149.94500732421875 C 78.24330139160156 108.4229965209961 90.80390167236328 117.75599670410156 200.20599365234375 158.78900146484375" stroke-width="3.0" fill="none" stroke="rgb(0, 0, 255)" stroke-opacity="1" stroke-linecap="round" stroke-linejoin="round"/>
    <path d="M 60.117401123046875 66.27690124511719 C 149.8350067138672 74.19210052490234 92.58899688720703 68.40750122070312 135.38800048828125 80.15630340576172" stroke-width="3.0" fill="none" stroke="rgb(0, 255, 0)" stroke-opacity="1" stroke-linecap="round" stroke-linejoin="round"/>
    <path d="M 170.13800048828125 130.31900024414062 C 248.9770050048828 181.92999267578125 235.7449951171875 194.41600036621094 197.96499633789062 173.7050018310547" stroke-width="3.0" fill="none" stroke="rgb(0, 0, 255)" stroke-opacity="1" stroke-linecap="round" stroke-linejoin="round"/>
    <path d="M 179.6739959716797 202.54200744628906 C 209.51499938964844 195.0570068359375 179.5919952392578 210.08700561523438 226.718994140625 200.02699279785156" stroke-width="3.0" fill="none" stroke="rgb(0, 0, 255)" stroke-opacity="1" stroke-linecap="round" stroke-linejoin="round"/>
    <path d="M 222.3730010986328 184.0500030517578 C 133.0760040283203 207.01800537109375 193.7790069580078 168.7830047607422 214.2689971923828 187.73300170898438" stroke-width="3.0" fill="none" stroke="rgb(0, 0, 255)" stroke-opacity="1" stroke-linecap="round" stroke-linejoin="round"/>
    <path d="M 195.4409942626953 51.72919845581055 C 148.00999450683594 57.2406005859375 194.66400146484375 73.30770111083984 112.86900329589844 78.00920104980469" stroke-width="3.0" fill="none" stroke="rgb(255, 255, 0)" stroke-opacity="1" stroke-linecap="round" stroke-linejoin="round"/>
    <path d="M 192.5260009765625 185.70899963378906 C 190.78799438476562 137.68499755859375 185.6529998779297 182.83599853515625 200.1300048828125 210.10899353027344" stroke-width="3.0" fill="none" stroke="rgb(0, 0, 255)" stroke-opacity="1" stroke-linecap="round" stroke-linejoin="round"/>
    <path d="M 137.281005859375 134.95700073242188 C 84.49299621582031 113.4020004272461 80.75189971923828 112.0 133.66099548339844 94.81749725341797" stroke-width="3.0" fill="none" stroke="rgb(255, 255, 0)" stroke-opacity="1" stroke-linecap="round" stroke-linejoin="round"/>
    <path d="M 62.079200744628906 75.68550109863281 C 34.506099700927734 119.63899993896484 28.47570037841797 145.38499450683594 64.73590087890625 84.22540283203125" stroke-width="3.0" fill="none" stroke="rgb(0, 255, 0)" stroke-opacity="1" stroke-linecap="round" stroke-linejoin="round"/>
    <path d="M 76.783203125 177.55599975585938 C 181.093994140625 166.08799743652344 106.1989974975586 164.5469970703125 72.33489990234375 141.5959930419922" stroke-width="3.0" fill="none" stroke="rgb(0, 255, 0)" stroke-opacity="1" stroke-linecap="round" stroke-linejoin="round"/>
    <path d="M 179.83099365234375 49.89229965209961 C 202.05999755859375 19.01650047302246 218.07000732421875 47.10240173339844 225.40699768066406 46.275901794433594" stroke-width="3.0" fill="none" stroke="rgb(0, 0, 255)" stroke-opacity="1" stroke-linecap="round" stroke-linejoin="round"/>
    <path d="M 160.66700744628906 202.61700439453125 C 170.625 167.11399841308594 195.031005859375 175.81900024414062 233.4029998779297 176.8470001220703" stroke-width="3.0" fill="none" stroke="rgb(0, 0, 255)" stroke-opacity="1" stroke-linecap="round" stroke-linejoin="round"/>
    <path d="M 236.0679931640625 30.104400634765625 C 192.01300048828125 38.28340148925781 203.98800659179688 21.193599700927734 180.6750030517578 65.6415023803711" stroke-width="3.0" fill="none" stroke="rgb(0, 0, 255)" stroke-opacity="1" stroke-linecap="round" stroke-linejoin="round"/>
    <path d="M 46.40909957885742 144.2010040283203 C 149.9709930419922 150.7480010986328 90.95099639892578 167.61900329589844 24.27790069580078 170.6320037841797" stroke-width="3.0" fill="none" stroke="rgb(0, 255, 0)" stroke-opacity="1" stroke-linecap="round" stroke-linejoin="round"/>
    <path d="M 160.8350067138672 137.80599975585938 C 215.74000549316406 131.03799438476562 181.14199829101562 116.08100128173828 225.46299743652344 103.26399993896484" stroke-width="3.0" fill="none" stroke="rgb(0, 0, 255)" stroke-opacity="1" stroke-linecap="round" stroke-linejoin="round"/>
    <path d="M 68.55069732666016 135.67599487304688 C -24.20709991455078 149.05499267578125 41.437801361083984 102.67400360107422 93.1072006225586 151.2989959716797" stroke-width="3.0" fill="none" stroke="rgb(0, 255, 0)" stroke-opacity="1" stroke-linecap="round" stroke-linejoin="round"/>
    <path d="M 43.79180145263672 111.34700012207031 C 67.4083023071289 28.386199951171875 61.79790115356445 75.48139953613281 47.86119842529297 100.71499633789062" stroke-width="3.0" fill="none" stroke="rgb(0, 255, 0)" stroke-opacity="1" stroke-linecap="round" stroke-linejoin="round"/>
    <path d="M 36.196998596191406 144.61599731445312 C 136.89700317382812 157.22900390625 64.097900390625 135.4510040283203 9.38169002532959 149.20700073242188" stroke-width="3.0" fill="none" stroke="rgb(0, 255, 0)" stroke-opacity="1" stroke-linecap="round" stroke-linejoin="round"/>
    <path d="M 74.88490295410156 143.26199340820312 C 22.64259910583496 164.94700622558594 176.0189971923828 167.1300048828125 105.16000366210938 169.48599243164062" stroke-width="3.0" fill="none" stroke="rgb(0, 255, 0)" stroke-opacity="1" stroke-linecap="round" stroke-linejoin="round"/>
    <path d="M 195.9949951171875 88.21029663085938 C 202.6750030517578 76.57620239257812 225.32899475097656 78.64749908447266 226.52099609375 62.58250045776367" stroke-width="3.0" fill="none" stroke="rgb(0, 0, 255)" stroke-opacity="1" stroke-linecap="round" stroke-linejoin="round"/>
    <path d="M 120.74700164794922 130.9080047607422 C 234.09100341796875 168.44900512695312 232.61099243164062 187.36099243164062 181.2449951171875 131.50799560546875" stroke-width="3.0" fill="none" stroke="rgb(0, 0, 255)" stroke-opacity="1" stroke-linecap="round" stroke-linejoin="round"/>
    <path d="M 103.36100006103516 167.27999877929688 C 60.52510070800781 188.13099670410156 118.00299835205078 165.35699462890625 8.010649681091309 169.39700317382812" stroke-width="3.0" fill="none" stroke="rgb(0, 255, 0)" stroke-opacity="1" stroke-linecap="round" stroke-linejoin="round"/>
    <path d="M 192.23599243164062 176.4199981689453 C 220.83099365234375 185.3260040283203 227.84100341796875 147.74099731445312 169.6529998779297 209.48399353027344" stroke-width="3.0" fill="none" stroke="rgb(0, 0, 255)" stroke-opacity="1" stroke-linecap="round" stroke-linejoin="round"/>
    <path d="M 186.49200439453125 88.28160095214844 C 241.5260009765625 20.962099075317383 235.78399658203125 71.45249938964844 198.0399932861328 80.00070190429688" stroke-width="3.0" fill="none" stroke="rgb(0, 0, 255)" stroke-opacity="1" stroke-linecap="round" stroke-linejoin="round"/>
    <path d="M 196.31300354003906 173.7169952392578 C 230.18099975585938 180.45700073242188 162.6320037841797 196.7830047607422 224.36900329589844 180.92599487304688" stroke-width="3.0" fill="none" stroke="rgb(0, 0, 255)" stroke-opacity="1" stroke-linecap="round" stroke-linejoin="round"/>
    <path d="M 132.28500366210938 114.84300231933594 C 206.27999877929688 149.64199829101562 205.14100646972656 125.2760009765625 101.51799774169922 125.43399810791016" stroke-width="3.0" fill="none" stroke="rgb(0, 0, 255)" stroke-opacity="1" stroke-linecap="round" stroke-linejoin="round"/>
    <path d="M 119.4000015258789 162.3280029296875 C 81.86009979248047 135.18899536132812 81.497802734375 156.51600646972656 127.0 165.0" stroke-width="3.0" fill="none" stroke="rgb(0, 255, 0)" stroke-opacity="1" stroke-linecap="round" stroke-linejoin="round"/>
    <path d="M 91.18800354003906 146.0 C 150.19200134277344 176.05799865722656 140.97000122070312 176.79100036621094 70.0 168.39500427246094" stroke-width="3.0" fill="none" stroke="rgb(0, 255, 0)" stroke-opacity="1" stroke-linecap="round" stroke-linejoin="round"/>
    <path d="M 56.783599853515625 126.91000366210938 C -25.436500549316406 178.6929931640625 -15.541999816894531 158.6439971923828 68.1989974975586 135.9010009765625" stroke-width="3.0" fill="none" stroke="rgb(0, 255, 0)" stroke-opacity="1" stroke-linecap="round" stroke-linejoin="round"/>
    <path d="M 130.09800720214844 170.17100524902344 C 31.1018009185791 187.99099731445312 46.5526008605957 182.6929931640625 70.25810241699219 177.83099365234375" stroke-width="3.0" fill="none" stroke="rgb(0, 255, 0)" stroke-opacity="1" stroke-linecap="round" stroke-linejoin="round"/>
    <path d="M 75.68379974365234 126.28900146484375 C 75.68379974365234 131.0749969482422 73.66549682617188 128.906005859375 73.66549682617188 124.56300354003906" stroke-width="2.0" fill="none" stroke="rgb(255, 0, 0)" stroke-opacity="1" stroke-linecap="round" stroke-linejoin="round"/>
    <path d="M 73.66419982910156 124.56099700927734 C 73.66419982910156 119.7750015258789 75.68250274658203 121.94400024414062 75.68250274658203 126.28700256347656" stroke-width="2.0" fill="none" stroke="rgb(255, 0, 0)" stroke-opacity="1" stroke-linecap="round" stroke-linejoin="round"/>
    <path d="M 68.00959777832031 120.197998046875 C 68.00959777832031 115.34700012207031 70.72789764404297 117.5459976196289 70.72789764404297 121.9469985961914" stroke-width="2.0" fill="none" stroke="rgb(255, 0, 0)" stroke-opacity="1" stroke-linecap="round" stroke-linejoin="round"/>
    <path d="M 70.72940063476562 121.9489974975586 C 70.72940063476562 126.80000305175781 68.01110076904297 124.60099792480469 68.01110076904297 120.19999694824219" stroke-width="2.0" fill="none" stroke="rgb(255, 0, 0)" stroke-opacity="1" stroke-linecap="round" stroke-linejoin="round"/>
    <path d="M 72.85639953613281 110.30000305175781 C 75.79540252685547 108.6500015258789 80.26909637451172 109.53900146484375 83.76219940185547 108.6500015258789" stroke-width="2.0" fill="none" stroke="rgb(255, 0, 0)" stroke-opacity="1" stroke-linecap="round" stroke-linejoin="round"/>
    <path d="M 71.2406997680664 124.0479965209961 C 91.09480285644531 131.86599731445312 90.55500030517578 109.77300262451172 90.98809814453125 127.28199768066406" stroke-width="2.0" fill="none" stroke="rgb(255, 0, 0)" stroke-opacity="1" stroke-linecap="round" stroke-linejoin="round"/>
    <path d="M 74.06809997558594 126.28099822998047 C 81.45490264892578 120.83399963378906 108.70899963378906 130.7480010986328 76.97969818115234 126.47200012207031" stroke-width="2.0" fill="none" stroke="rgb(255, 0, 0)" stroke-opacity="1" stroke-linecap="round" stroke-linejoin="round"/>
    <path d="M 90.62850189208984 123.5 C 70.02909851074219 123.5 82.34829711914062 123.5 70.02909851074219 123.5" stroke-width="2.0" fill="none" stroke="rgb(255, 0, 0)" stroke-opacity="1" stroke-linecap="round" stroke-linejoin="round"/>
    <path d="M 69.22109985351562 123.5 C 77.03469848632812 123.38700103759766 73.97139739990234 117.0459976196289 69.9751968383789 116.9000015258789" stroke-width="2.0" fill="none" stroke="rgb(255, 0, 0)" stroke-opacity="1" stroke-linecap="round" stroke-linejoin="round"/>
    <path d="M 87.19010162353516 113.85600280761719 C 94.8750991821289 123.0530014038086 81.15190124511719 110.3290023803711 85.097900390625 111.01499938964844" stroke-width="2.0" fill="none" stroke="rgb(255, 0, 0)" stroke-opacity="1" stroke-linecap="round" stroke-linejoin="round"/>
    <path d="M 68.79070281982422 111.26200103759766 C 64.90049743652344 127.3010025024414 76.54850006103516 124.3759994506836 73.97830200195312 117.40699768066406" stroke-width="2.0" fill="none" stroke="rgb(255, 0, 0)" stroke-opacity="1" stroke-linecap="round" stroke-linejoin="round"/>
    <path d="M 73.66410064697266 116.625 C 93.25389862060547 113.875 87.19529724121094 116.625 83.96379852294922 107.55000305175781" stroke-width="2.0" fill="none" stroke="rgb(255, 0, 0)" stroke-opacity="1" stroke-linecap="round" stroke-linejoin="round"/>
    <path d="M 82.40119934082031 123.41400146484375 C 80.39810180664062 111.5770034790039 67.0145034790039 117.83799743652344 80.71379852294922 124.41899871826172" stroke-width="2.0" fill="none" stroke="rgb(255, 0, 0)" stroke-opacity="1" stroke-linecap="round" stroke-linejoin="round"/>
    <path d="M 86.18550109863281 122.94999694824219 C 85.74009704589844 120.01399993896484 84.9489974975586 117.46099853515625 83.76219940185547 115.80000305175781" stroke-width="2.0" fill="none" stroke="rgb(255, 0, 0)" stroke-opacity="1" stroke-linecap="round" stroke-linejoin="round"/>
    <path d="M 88.0155029296875 124.39299774169922 C 63.03990173339844 127.76699829101562 78.01010131835938 125.12000274658203 90.6760025024414 124.83499908447266" stroke-width="2.0" fill="none" stroke="rgb(255, 0, 0)" stroke-opacity="1" stroke-linecap="round" stroke-linejoin="round"/>
    <path d="M 73.26509857177734 117.55400085449219 C 79.97540283203125 140.427001953125 73.90290069580078 121.15499877929688 74.0779037475586 115.35700225830078" stroke-width="2.0" fill="none" stroke="rgb(255, 0, 0)" stroke-opacity="1" stroke-linecap="round" stroke-linejoin="round"/>
    <path d="M 89.8240966796875 120.28399658203125 C 91.95899963378906 115.42400360107422 75.0770034790039 104.94999694824219 86.21260070800781 113.43900299072266" stroke-width="2.0" fill="none" stroke="rgb(255, 0, 0)" stroke-opacity="1" stroke-linecap="round" stroke-linejoin="round"/>
    <path d="M 87.31449890136719 114.0979995727539 C 84.52549743652344 109.01100158691406 94.3905029296875 116.23400115966797 72.18550109863281 116.94599914550781" stroke-width="2.0" fill="none" stroke="rgb(255, 0, 0)" stroke-opacity="1" stroke-linecap="round" stroke-linejoin="round"/>
    <path d="M 68.53790283203125 114.1500015258789 C 71.9030990600586 118.1729965209961 68.60459899902344 116.22599792480469 68.0094985961914 121.8499984741211" stroke-width="2.0" fill="none" stroke="rgb(255, 0, 0)" stroke-opacity="1" stroke-linecap="round" stroke-linejoin="round"/>
    <path d="M 83.65399932861328 108.6780014038086 C 94.99230194091797 121.8489990234375 87.66680145263672 127.37999725341797 77.66120147705078 126.12100219726562" stroke-width="2.0" fill="none" stroke="rgb(255, 0, 0)" stroke-opacity="1" stroke-linecap="round" stroke-linejoin="round"/>
    <path d="M 74.47229766845703 117.45099639892578 C 71.8458023071289 109.7490005493164 68.21119689941406 103.7040023803711 67.0 122.13200378417969" stroke-width="2.0" fill="none" stroke="rgb(255, 0, 0)" stroke-opacity="1" stroke-linecap="round" stroke-linejoin="round"/>
    <path d="M 70.01419830322266 116.9000015258789 C 70.6759033203125 107.89199829101562 63.2140998840332 108.20800018310547 83.76210021972656 107.0" stroke-width="2.0" fill="none" stroke="rgb(255, 0, 0)" stroke-opacity="1" stroke-linecap="round" stroke-linejoin="round"/>
    <path d="M 88.13870239257812 126.63700103759766 C 63.40299987792969 118.08999633789062 62.82210159301758 119.83000183105469 74.82319641113281 126.31300354003906" stroke-width="2.0" fill="none" stroke="rgb(255, 0, 0)" stroke-opacity="1" stroke-linecap="round" stroke-linejoin="round"/>
  </g>
</svg>
