<?xml version="1.0" ?>
<svg xmlns="http://www.w3.org/2000/svg" version="1.1" width="256" height="256">
  <defs/>
  <g>
    <path d="M 168.8419952392578 159.5030059814453 C 167.33200073242188 155.33200073242188 184.7429962158203 158.7169952392578 194.7899932861328 157.33900451660156" stroke-width="2.0" fill="none" stroke="rgb(0, 0, 0)" stroke-opacity="1" stroke-linecap="round" stroke-linejoin="round"/>
    <path d="M 78.46730041503906 135.35899353027344 C 73.36409759521484 118.66400146484375 82.52989959716797 135.58200073242188 79.27629852294922 110.177001953125" stroke-width="2.0" fill="none" stroke="rgb(0, 0, 0)" stroke-opacity="1" stroke-linecap="round" stroke-linejoin="round"/>
    <path d="M 189.55499267578125 138.63499450683594 C 191.9510040283203 127.41699981689453 188.0229949951172 127.375 190.0189971923828 126.427001953125" stroke-width="2.0" fill="none" stroke="rgb(0, 0, 0)" stroke-opacity="1" stroke-linecap="round" stroke-linejoin="round"/>
    <path d="M 85.04830169677734 108.30000305175781 C 87.57389831542969 122.93199920654297 85.1134033203125 124.10700225830078 84.22319793701172 122.01100158691406" stroke-width="2.0" fill="none" stroke="rgb(0, 0, 0)" stroke-opacity="1" stroke-linecap="round" stroke-linejoin="round"/>
    <path d="M 151.7689971923828 163.76100158691406 C 148.9969940185547 161.99600219726562 146.06500244140625 153.343994140625 144.75399780273438 185.1490020751953" stroke-width="2.0" fill="none" stroke="rgb(0, 0, 0)" stroke-opacity="1" stroke-linecap="round" stroke-linejoin="round"/>
    <path d="M 115.14900207519531 197.22799682617188 C 139.63099670410156 204.11099243164062 171.66900634765625 174.32200622558594 144.49899291992188 192.23300170898438" stroke-width="2.0" fill="none" stroke="rgb(0, 0, 0)" stroke-opacity="1" stroke-linecap="round" stroke-linejoin="round"/>
    <path d="M 101.94599914550781 113.0 C 101.79000091552734 137.09100341796875 112.64199829101562 102.5989990234375 96.38410186767578 133.60800170898438" stroke-width="2.0" fill="none" stroke="rgb(0, 0, 0)" stroke-opacity="1" stroke-linecap="round" stroke-linejoin="round"/>
    <path d="M 105.88200378417969 116.0 C 100.38400268554688 121.5 95.38200378417969 125.5 95.38200378417969 131.0" stroke-width="2.0" fill="none" stroke="rgb(0, 0, 0)" stroke-opacity="1" stroke-linecap="round" stroke-linejoin="round"/>
    <path d="M 189.49899291992188 157.427001953125 C 199.82200622558594 157.56300354003906 194.61500549316406 147.5290069580078 195.9510040283203 166.23300170898438" stroke-width="2.0" fill="none" stroke="rgb(0, 0, 0)" stroke-opacity="1" stroke-linecap="round" stroke-linejoin="round"/>
    <path d="M 163.0469970703125 108.99800109863281 C 154.11900329589844 134.88400268554688 153.99400329589844 116.93499755859375 162.97500610351562 105.04499816894531" stroke-width="2.0" fill="none" stroke="rgb(0, 0, 0)" stroke-opacity="1" stroke-linecap="round" stroke-linejoin="round"/>
    <path d="M 150.64300537109375 162.82400512695312 C 157.63999938964844 181.0229949951172 155.84500122070312 196.9720001220703 155.08999633789062 188.7310028076172" stroke-width="2.0" fill="none" stroke="rgb(0, 0, 0)" stroke-opacity="1" stroke-linecap="round" stroke-linejoin="round"/>
    <path d="M 83.9197006225586 88.8595962524414 C 80.89659881591797 85.68489837646484 93.88980102539062 89.35990142822266 88.28620147705078 97.93000030517578" stroke-width="2.0" fill="none" stroke="rgb(0, 0, 0)" stroke-opacity="1" stroke-linecap="round" stroke-linejoin="round"/>
    <path d="M 82.15869903564453 87.26490020751953 C 84.0165023803711 84.5907974243164 88.16510009765625 88.22380065917969 87.39109802246094 94.46199798583984" stroke-width="2.0" fill="none" stroke="rgb(0, 0, 0)" stroke-opacity="1" stroke-linecap="round" stroke-linejoin="round"/>
    <path d="M 162.84800720214844 82.79640197753906 C 159.81399536132812 93.65630340576172 187.9199981689453 82.06449890136719 154.6529998779297 86.30180358886719" stroke-width="2.0" fill="none" stroke="rgb(0, 0, 0)" stroke-opacity="1" stroke-linecap="round" stroke-linejoin="round"/>
    <path d="M 96.95950317382812 140.6300048828125 C 87.57440185546875 138.7209930419922 99.40370178222656 141.65199279785156 111.09100341796875 142.04299926757812" stroke-width="2.0" fill="none" stroke="rgb(0, 0, 0)" stroke-opacity="1" stroke-linecap="round" stroke-linejoin="round"/>
    <path d="M 174.19000244140625 144.88800048828125 C 166.61099243164062 137.48300170898438 195.0709991455078 158.83599853515625 162.1269989013672 157.5780029296875" stroke-width="2.0" fill="none" stroke="rgb(0, 0, 0)" stroke-opacity="1" stroke-linecap="round" stroke-linejoin="round"/>
    <path d="M 126.08799743652344 166.19900512695312 C 136.71600341796875 165.1020050048828 123.35800170898438 166.6490020751953 104.16000366210938 166.36199951171875" stroke-width="2.0" fill="none" stroke="rgb(0, 0, 0)" stroke-opacity="1" stroke-linecap="round" stroke-linejoin="round"/>
    <path d="M 142.718994140625 189.00799560546875 C 168.13999938964844 190.95899963378906 159.5970001220703 199.97900390625 132.0760040283203 194.80499267578125" stroke-width="2.0" fill="none" stroke="rgb(0, 0, 0)" stroke-opacity="1" stroke-linecap="round" stroke-linejoin="round"/>
    <path d="M 132.52000427246094 141.1649932861328 C 138.96200561523438 141.35000610351562 130.52000427246094 142.08999633789062 135.3679962158203 140.76499938964844" stroke-width="2.0" fill="none" stroke="rgb(0, 0, 0)" stroke-opacity="1" stroke-linecap="round" stroke-linejoin="round"/>
    <path d="M 118.0510025024414 141.8560028076172 C 105.96800231933594 142.48399353027344 106.78399658203125 141.93499755859375 135.89199829101562 141.843994140625" stroke-width="2.0" fill="none" stroke="rgb(0, 0, 0)" stroke-opacity="1" stroke-linecap="round" stroke-linejoin="round"/>
    <path d="M 157.23399353027344 91.14299774169922 C 162.23899841308594 92.33589935302734 152.2169952392578 86.10399627685547 154.44500732421875 90.08159637451172" stroke-width="2.0" fill="none" stroke="rgb(0, 0, 0)" stroke-opacity="1" stroke-linecap="round" stroke-linejoin="round"/>
    <path d="M 132.38400268554688 113.0 C 149.43099975585938 130.2100067138672 147.43299865722656 130.2469940185547 164.38400268554688 127.92900085449219" stroke-width="2.0" fill="none" stroke="rgb(0, 0, 0)" stroke-opacity="1" stroke-linecap="round" stroke-linejoin="round"/>
    <path d="M 132.38099670410156 106.0 C 163.38099670410156 136.5 151.38400268554688 114.5 163.38099670410156 114.5" stroke-width="2.0" fill="none" stroke="rgb(0, 0, 0)" stroke-opacity="1" stroke-linecap="round" stroke-linejoin="round"/>
    <path d="M 87.38929748535156 97.28009796142578 C 87.42400360107422 84.618896484375 77.70210266113281 82.70989990234375 68.34429931640625 92.70059967041016" stroke-width="2.0" fill="none" stroke="rgb(0, 0, 0)" stroke-opacity="1" stroke-linecap="round" stroke-linejoin="round"/>
    <path d="M 86.56340026855469 188.3470001220703 C 92.9000015258789 187.03599548339844 82.30750274658203 182.23699951171875 87.40740203857422 163.7239990234375" stroke-width="2.0" fill="none" stroke="rgb(0, 0, 0)" stroke-opacity="1" stroke-linecap="round" stroke-linejoin="round"/>
    <path d="M 164.4459991455078 125.40499877929688 C 171.33399963378906 110.55799865722656 179.35899353027344 102.14199829101562 167.79100036621094 124.78600311279297" stroke-width="2.0" fill="none" stroke="rgb(0, 0, 0)" stroke-opacity="1" stroke-linecap="round" stroke-linejoin="round"/>
    <path d="M 86.4551010131836 120.93299865722656 C 76.627197265625 121.60700225830078 77.7666015625 125.55799865722656 72.33149719238281 115.67400360107422" stroke-width="2.0" fill="none" stroke="rgb(0, 0, 0)" stroke-opacity="1" stroke-linecap="round" stroke-linejoin="round"/>
    <path d="M 86.70890045166016 103.65699768066406 C 86.41619873046875 88.89849853515625 89.03880310058594 107.85399627685547 86.22339630126953 102.73699951171875" stroke-width="2.0" fill="none" stroke="rgb(0, 0, 0)" stroke-opacity="1" stroke-linecap="round" stroke-linejoin="round"/>
    <path d="M 175.8489990234375 141.552001953125 C 161.79600524902344 134.8820037841797 175.07400512695312 138.8300018310547 174.95199584960938 157.17799377441406" stroke-width="2.0" fill="none" stroke="rgb(0, 0, 0)" stroke-opacity="1" stroke-linecap="round" stroke-linejoin="round"/>
    <path d="M 62.9473991394043 115.39399719238281 C 72.09130096435547 106.91100311279297 70.58660125732422 111.83200073242188 77.07219696044922 131.40699768066406" stroke-width="2.0" fill="none" stroke="rgb(0, 0, 0)" stroke-opacity="1" stroke-linecap="round" stroke-linejoin="round"/>
    <path d="M 155.4600067138672 89.45369720458984 C 150.88400268554688 80.33999633789062 154.1719970703125 96.58039855957031 156.86199951171875 93.01930236816406" stroke-width="2.0" fill="none" stroke="rgb(0, 0, 0)" stroke-opacity="1" stroke-linecap="round" stroke-linejoin="round"/>
    <path d="M 62.592201232910156 174.9080047607422 C 62.8026008605957 214.4709930419922 63.548099517822266 155.51600646972656 75.00789642333984 139.24600219726562" stroke-width="2.0" fill="none" stroke="rgb(0, 0, 0)" stroke-opacity="1" stroke-linecap="round" stroke-linejoin="round"/>
    <path d="M 197.61900329589844 157.94900512695312 C 201.32000732421875 127.93399810791016 206.68699645996094 122.47000122070312 207.55099487304688 124.24400329589844" stroke-width="2.0" fill="none" stroke="rgb(0, 0, 0)" stroke-opacity="1" stroke-linecap="round" stroke-linejoin="round"/>
    <path d="M 147.92300415039062 194.18499755859375 C 141.91600036621094 185.26100158691406 145.76300048828125 171.0540008544922 141.78500366210938 190.0399932861328" stroke-width="2.0" fill="none" stroke="rgb(0, 0, 0)" stroke-opacity="1" stroke-linecap="round" stroke-linejoin="round"/>
    <path d="M 187.38900756835938 130.4250030517578 C 183.3260040283203 117.75299835205078 183.63999938964844 111.125 183.77099609375 114.27899932861328" stroke-width="2.0" fill="none" stroke="rgb(0, 0, 0)" stroke-opacity="1" stroke-linecap="round" stroke-linejoin="round"/>
    <path d="M 151.9199981689453 134.93699645996094 C 123.69599914550781 137.29299926757812 109.98100280761719 133.45700073242188 142.63600158691406 131.4149932861328" stroke-width="2.0" fill="none" stroke="rgb(0, 0, 0)" stroke-opacity="1" stroke-linecap="round" stroke-linejoin="round"/>
    <path d="M 83.80500030517578 90.33450317382812 C 79.38870239257812 88.11119842529297 90.32450103759766 88.57820129394531 86.51820373535156 105.52999877929688" stroke-width="2.0" fill="none" stroke="rgb(0, 0, 0)" stroke-opacity="1" stroke-linecap="round" stroke-linejoin="round"/>
    <path d="M 131.6959991455078 133.2429962158203 C 117.28600311279297 138.33399963378906 123.37100219726562 134.7989959716797 107.60099792480469 132.04600524902344" stroke-width="2.0" fill="none" stroke="rgb(0, 0, 0)" stroke-opacity="1" stroke-linecap="round" stroke-linejoin="round"/>
    <path d="M 62.1526985168457 157.5850067138672 C 71.67639923095703 130.22999572753906 85.21829986572266 135.53900146484375 88.368896484375 133.21299743652344" stroke-width="2.0" fill="none" stroke="rgb(0, 0, 0)" stroke-opacity="1" stroke-linecap="round" stroke-linejoin="round"/>
    <path d="M 66.03489685058594 113.50700378417969 C 73.97679901123047 103.54199981689453 67.43599700927734 97.12580108642578 62.37139892578125 112.70500183105469" stroke-width="2.0" fill="none" stroke="rgb(0, 0, 0)" stroke-opacity="1" stroke-linecap="round" stroke-linejoin="round"/>
    <path d="M 167.63999938964844 94.02690124511719 C 162.57699584960938 87.93489837646484 179.13999938964844 89.18229675292969 157.9969940185547 86.47769927978516" stroke-width="2.0" fill="none" stroke="rgb(0, 0, 0)" stroke-opacity="1" stroke-linecap="round" stroke-linejoin="round"/>
    <path d="M 63.54570007324219 111.2979965209961 C 63.913700103759766 120.9260025024414 68.04429626464844 113.39099884033203 67.06500244140625 112.71199798583984" stroke-width="2.0" fill="none" stroke="rgb(0, 0, 0)" stroke-opacity="1" stroke-linecap="round" stroke-linejoin="round"/>
    <path d="M 78.52510070800781 115.3550033569336 C 89.94490051269531 125.83100128173828 87.05229949951172 110.69200134277344 79.61370086669922 111.83599853515625" stroke-width="2.0" fill="none" stroke="rgb(0, 0, 0)" stroke-opacity="1" stroke-linecap="round" stroke-linejoin="round"/>
    <path d="M 173.0260009765625 139.177001953125 C 168.8249969482422 160.8280029296875 195.88900756835938 155.36500549316406 187.031005859375 132.00599670410156" stroke-width="2.0" fill="none" stroke="rgb(0, 0, 0)" stroke-opacity="1" stroke-linecap="round" stroke-linejoin="round"/>
    <path d="M 98.14009857177734 190.8990020751953 C 100.7750015258789 198.50599670410156 92.13390350341797 196.8280029296875 101.83100128173828 199.18099975585938" stroke-width="2.0" fill="none" stroke="rgb(0, 0, 0)" stroke-opacity="1" stroke-linecap="round" stroke-linejoin="round"/>
    <path d="M 70.81780242919922 89.9292984008789 C 62.93170166015625 99.78150177001953 65.54419708251953 105.63899993896484 67.6572036743164 95.34420013427734" stroke-width="2.0" fill="none" stroke="rgb(0, 0, 0)" stroke-opacity="1" stroke-linecap="round" stroke-linejoin="round"/>
    <path d="M 67.82279968261719 96.08740234375 C 61.26190185546875 117.38800048828125 58.38750076293945 117.302001953125 64.6260986328125 112.54199981689453" stroke-width="2.0" fill="none" stroke="rgb(0, 0, 0)" stroke-opacity="1" stroke-linecap="round" stroke-linejoin="round"/>
    <path d="M 175.28399658203125 113.25299835205078 C 169.58999633789062 132.11000061035156 152.2969970703125 96.71050262451172 157.63999938964844 84.31490325927734" stroke-width="2.0" fill="none" stroke="rgb(0, 0, 0)" stroke-opacity="1" stroke-linecap="round" stroke-linejoin="round"/>
    <path d="M 118.7030029296875 135.71299743652344 C 127.56700134277344 133.6199951171875 114.83300018310547 134.01600646972656 123.90699768066406 130.6529998779297" stroke-width="2.0" fill="none" stroke="rgb(0, 0, 0)" stroke-opacity="1" stroke-linecap="round" stroke-linejoin="round"/>
    <path d="M 71.470703125 103.78500366210938 C 64.74150085449219 111.24199676513672 64.5562973022461 115.37200164794922 71.9280014038086 105.81700134277344" stroke-width="2.0" fill="none" stroke="rgb(0, 0, 0)" stroke-opacity="1" stroke-linecap="round" stroke-linejoin="round"/>
    <path d="M 210.25799560546875 124.44300079345703 C 199.25100708007812 115.08300018310547 220.6219940185547 113.91999816894531 209.88699340820312 124.79499816894531" stroke-width="2.0" fill="none" stroke="rgb(0, 0, 0)" stroke-opacity="1" stroke-linecap="round" stroke-linejoin="round"/>
    <path d="M 65.2238998413086 115.9010009765625 C 69.37249755859375 90.34510040283203 79.34950256347656 116.21900177001953 77.52100372314453 108.84200286865234" stroke-width="2.0" fill="none" stroke="rgb(0, 0, 0)" stroke-opacity="1" stroke-linecap="round" stroke-linejoin="round"/>
    <path d="M 68.2061996459961 93.50669860839844 C 64.23690032958984 96.28520202636719 64.06890106201172 103.0790023803711 82.91570281982422 89.15789794921875" stroke-width="2.0" fill="none" stroke="rgb(0, 0, 0)" stroke-opacity="1" stroke-linecap="round" stroke-linejoin="round"/>
    <path d="M 71.37480163574219 90.19339752197266 C 63.847198486328125 102.55999755859375 68.59339904785156 78.41850280761719 83.77349853515625 86.02230072021484" stroke-width="2.0" fill="none" stroke="rgb(0, 0, 0)" stroke-opacity="1" stroke-linecap="round" stroke-linejoin="round"/>
    <path d="M 185.8719940185547 121.61900329589844 C 190.99899291992188 136.66099548339844 191.69700622558594 145.7570037841797 190.91299438476562 135.1479949951172" stroke-width="2.0" fill="none" stroke="rgb(0, 0, 0)" stroke-opacity="1" stroke-linecap="round" stroke-linejoin="round"/>
    <path d="M 162.10299682617188 94.48880004882812 C 140.0260009765625 92.45359802246094 177.125 78.82029724121094 174.55599975585938 97.63899993896484" stroke-width="2.0" fill="none" stroke="rgb(0, 0, 0)" stroke-opacity="1" stroke-linecap="round" stroke-linejoin="round"/>
    <path d="M 70.77310180664062 100.24500274658203 C 68.94439697265625 88.03820037841797 70.55549621582031 103.62200164794922 79.89620208740234 111.79199981689453" stroke-width="2.0" fill="none" stroke="rgb(0, 0, 0)" stroke-opacity="1" stroke-linecap="round" stroke-linejoin="round"/>
    <path d="M 190.28700256347656 127.56700134277344 C 182.37399291992188 111.77200317382812 180.70899963378906 111.51599884033203 185.32000732421875 115.41799926757812" stroke-width="2.0" fill="none" stroke="rgb(0, 0, 0)" stroke-opacity="1" stroke-linecap="round" stroke-linejoin="round"/>
    <path d="M 136.60400390625 163.20199584960938 C 151.6179962158203 161.84800720214844 141.1230010986328 165.84300231933594 114.4219970703125 167.00599670410156" stroke-width="2.0" fill="none" stroke="rgb(0, 0, 0)" stroke-opacity="1" stroke-linecap="round" stroke-linejoin="round"/>
    <path d="M 68.19400024414062 91.08219909667969 C 80.03379821777344 82.77999877929688 83.51249694824219 86.10569763183594 68.23709869384766 92.05899810791016" stroke-width="2.0" fill="none" stroke="rgb(0, 0, 0)" stroke-opacity="1" stroke-linecap="round" stroke-linejoin="round"/>
    <path d="M 94.75879669189453 141.84500122070312 C 92.19879913330078 174.69500732421875 90.34190368652344 161.63499450683594 111.2770004272461 165.99200439453125" stroke-width="2.0" fill="none" stroke="rgb(0, 0, 0)" stroke-opacity="1" stroke-linecap="round" stroke-linejoin="round"/>
    <path d="M 103.1719970703125 112.5 C 102.80699920654297 126.78399658203125 102.54199981689453 121.1050033569336 105.5270004272461 123.0" stroke-width="2.0" fill="none" stroke="rgb(0, 0, 0)" stroke-opacity="1" stroke-linecap="round" stroke-linejoin="round"/>
    <path d="M 103.55999755859375 112.5 C 103.98600006103516 126.78399658203125 104.29399871826172 121.1050033569336 100.81300354003906 123.0" stroke-width="2.0" fill="none" stroke="rgb(0, 0, 0)" stroke-opacity="1" stroke-linecap="round" stroke-linejoin="round"/>
    <path d="M 69.62470245361328 96.75140380859375 C 88.18710327148438 83.55619812011719 87.34210205078125 83.08709716796875 76.58940124511719 94.35540008544922" stroke-width="2.0" fill="none" stroke="rgb(0, 0, 0)" stroke-opacity="1" stroke-linecap="round" stroke-linejoin="round"/>
    <path d="M 96.58489990234375 185.66299438476562 C 100.13099670410156 197.22999572753906 97.85260009765625 196.67300415039062 97.97200012207031 186.05099487304688" stroke-width="2.0" fill="none" stroke="rgb(0, 0, 0)" stroke-opacity="1" stroke-linecap="round" stroke-linejoin="round"/>
    <path d="M 86.92790222167969 133.57200622558594 C 65.4177017211914 132.9199981689453 88.18569946289062 118.7750015258789 85.83270263671875 118.41999816894531" stroke-width="2.0" fill="none" stroke="rgb(0, 0, 0)" stroke-opacity="1" stroke-linecap="round" stroke-linejoin="round"/>
    <path d="M 104.13300323486328 198.0850067138672 C 97.14230346679688 187.9250030517578 101.91200256347656 196.60699462890625 101.51899719238281 165.08900451660156" stroke-width="2.0" fill="none" stroke="rgb(0, 0, 0)" stroke-opacity="1" stroke-linecap="round" stroke-linejoin="round"/>
    <path d="M 100.38600158691406 136.7740020751953 C 122.12699890136719 129.73399353027344 127.01799774169922 136.23800659179688 117.48500061035156 135.2519989013672" stroke-width="2.0" fill="none" stroke="rgb(0, 0, 0)" stroke-opacity="1" stroke-linecap="round" stroke-linejoin="round"/>
    <path d="M 124.04499816894531 135.8679962158203 C 120.03399658203125 132.23199462890625 115.83499908447266 137.5570068359375 125.3290023803711 133.75399780273438" stroke-width="2.0" fill="none" stroke="rgb(0, 0, 0)" stroke-opacity="1" stroke-linecap="round" stroke-linejoin="round"/>
    <path d="M 85.02899932861328 86.80419921875 C 66.6417007446289 90.89810180664062 62.00550079345703 101.58599853515625 72.79730224609375 87.37640380859375" stroke-width="2.0" fill="none" stroke="rgb(0, 0, 0)" stroke-opacity="1" stroke-linecap="round" stroke-linejoin="round"/>
    <path d="M 88.1875 95.2782974243164 C 78.62590026855469 122.81900024414062 83.75640106201172 113.0479965209961 85.53980255126953 101.97699737548828" stroke-width="2.0" fill="none" stroke="rgb(0, 0, 0)" stroke-opacity="1" stroke-linecap="round" stroke-linejoin="round"/>
    <path d="M 70.68479919433594 98.12480163574219 C 67.9977035522461 95.30599975585938 69.50509643554688 99.50289916992188 68.26329803466797 110.6780014038086" stroke-width="2.0" fill="none" stroke="rgb(0, 0, 0)" stroke-opacity="1" stroke-linecap="round" stroke-linejoin="round"/>
    <path d="M 173.82200622558594 107.64099884033203 C 183.3260040283203 108.97599792480469 179.53799438476562 110.5770034790039 189.9219970703125 127.89399719238281" stroke-width="2.0" fill="none" stroke="rgb(0, 0, 0)" stroke-opacity="1" stroke-linecap="round" stroke-linejoin="round"/>
    <path d="M 155.77000427246094 90.12909698486328 C 150.447998046875 104.52899932861328 165.33099365234375 110.5 171.05999755859375 100.78600311279297" stroke-width="2.0" fill="none" stroke="rgb(0, 0, 0)" stroke-opacity="1" stroke-linecap="round" stroke-linejoin="round"/>
    <path d="M 83.96810150146484 114.83499908447266 C 82.85430145263672 106.48699951171875 85.13729858398438 104.75800323486328 83.893798828125 112.64800262451172" stroke-width="2.0" fill="none" stroke="rgb(0, 0, 0)" stroke-opacity="1" stroke-linecap="round" stroke-linejoin="round"/>
    <path d="M 95.52310180664062 126.13500213623047 C 85.45230102539062 117.49700164794922 89.35540008544922 118.4520034790039 82.14019775390625 109.86699676513672" stroke-width="2.0" fill="none" stroke="rgb(0, 0, 0)" stroke-opacity="1" stroke-linecap="round" stroke-linejoin="round"/>
    <path d="M 162.76100158691406 87.339599609375 C 162.5959930419922 80.01000213623047 174.9530029296875 100.2249984741211 170.177001953125 85.9448013305664" stroke-width="2.0" fill="none" stroke="rgb(0, 0, 0)" stroke-opacity="1" stroke-linecap="round" stroke-linejoin="round"/>
    <path d="M 174.81900024414062 155.95199584960938 C 170.68600463867188 131.01100158691406 159.6479949951172 140.40699768066406 123.71800231933594 142.38999938964844" stroke-width="2.0" fill="none" stroke="rgb(0, 0, 0)" stroke-opacity="1" stroke-linecap="round" stroke-linejoin="round"/>
    <path d="M 61.199100494384766 173.41000366210938 C 62.04669952392578 124.81500244140625 19.601499557495117 111.5479965209961 65.03040313720703 120.61000061035156" stroke-width="2.0" fill="none" stroke="rgb(0, 0, 0)" stroke-opacity="1" stroke-linecap="round" stroke-linejoin="round"/>
    <path d="M 84.69429779052734 105.26699829101562 C 91.4645004272461 98.29440307617188 80.068603515625 108.49199676513672 78.53479766845703 104.5530014038086" stroke-width="2.0" fill="none" stroke="rgb(0, 0, 0)" stroke-opacity="1" stroke-linecap="round" stroke-linejoin="round"/>
    <path d="M 183.6790008544922 111.04100036621094 C 199.3300018310547 141.60400390625 187.0780029296875 122.1780014038086 196.5970001220703 115.83200073242188" stroke-width="2.0" fill="none" stroke="rgb(0, 0, 0)" stroke-opacity="1" stroke-linecap="round" stroke-linejoin="round"/>
    <path d="M 77.73249816894531 97.90750122070312 C 59.356300354003906 100.21099853515625 70.98519897460938 78.502197265625 80.44550323486328 87.95870208740234" stroke-width="2.0" fill="none" stroke="rgb(0, 0, 0)" stroke-opacity="1" stroke-linecap="round" stroke-linejoin="round"/>
    <path d="M 164.26699829101562 126.72799682617188 C 161.58299255371094 129.35299682617188 161.9929962158203 119.00399780273438 173.2050018310547 109.63899993896484" stroke-width="2.0" fill="none" stroke="rgb(0, 0, 0)" stroke-opacity="1" stroke-linecap="round" stroke-linejoin="round"/>
    <path d="M 188.9969940185547 158.86199951171875 C 194.3699951171875 186.93499755859375 197.0229949951172 186.44400024414062 195.71099853515625 187.94500732421875" stroke-width="2.0" fill="none" stroke="rgb(0, 0, 0)" stroke-opacity="1" stroke-linecap="round" stroke-linejoin="round"/>
    <path d="M 86.18589782714844 101.14800262451172 C 81.24539947509766 112.35700225830078 77.49720001220703 112.41999816894531 69.88629913330078 99.65339660644531" stroke-width="2.0" fill="none" stroke="rgb(0, 0, 0)" stroke-opacity="1" stroke-linecap="round" stroke-linejoin="round"/>
    <path d="M 172.83299255371094 134.85499572753906 C 174.0240020751953 137.48500061035156 148.52099609375 132.7010040283203 136.7259979248047 132.97999572753906" stroke-width="2.0" fill="none" stroke="rgb(0, 0, 0)" stroke-opacity="1" stroke-linecap="round" stroke-linejoin="round"/>
    <path d="M 68.42440032958984 97.02850341796875 C 67.56749725341797 98.00409698486328 72.7208023071289 96.78949737548828 84.4717025756836 88.27110290527344" stroke-width="2.0" fill="none" stroke="rgb(0, 0, 0)" stroke-opacity="1" stroke-linecap="round" stroke-linejoin="round"/>
    <path d="M 57.52510070800781 187.656005859375 C 78.22650146484375 150.6230010986328 53.836299896240234 160.18299865722656 70.35659790039062 133.93699645996094" stroke-width="2.0" fill="none" stroke="rgb(0, 0, 0)" stroke-opacity="1" stroke-linecap="round" stroke-linejoin="round"/>
    <path d="M 79.72769927978516 121.7040023803711 C 64.1635971069336 105.43299865722656 62.40719985961914 112.20600128173828 64.99469757080078 113.80599975585938" stroke-width="2.0" fill="none" stroke="rgb(0, 0, 0)" stroke-opacity="1" stroke-linecap="round" stroke-linejoin="round"/>
    <path d="M 83.7686996459961 97.96099853515625 C 90.35800170898438 98.98570251464844 87.59860229492188 102.24600219726562 84.99310302734375 108.7699966430664" stroke-width="2.0" fill="none" stroke="rgb(0, 0, 0)" stroke-opacity="1" stroke-linecap="round" stroke-linejoin="round"/>
    <path d="M 64.8395004272461 114.74400329589844 C 80.47109985351562 140.28900146484375 57.4452018737793 139.3560028076172 64.26629638671875 160.24000549316406" stroke-width="2.0" fill="none" stroke="rgb(0, 0, 0)" stroke-opacity="1" stroke-linecap="round" stroke-linejoin="round"/>
    <path d="M 126.2770004272461 141.50799560546875 C 132.72000122070312 139.6269989013672 138.42999267578125 137.73500061035156 135.35000610351562 141.00399780273438" stroke-width="2.0" fill="none" stroke="rgb(0, 0, 0)" stroke-opacity="1" stroke-linecap="round" stroke-linejoin="round"/>
    <path d="M 156.4010009765625 86.62449645996094 C 147.38400268554688 81.1404037475586 180.7530059814453 78.52279663085938 171.89700317382812 92.18280029296875" stroke-width="2.0" fill="none" stroke="rgb(0, 0, 0)" stroke-opacity="1" stroke-linecap="round" stroke-linejoin="round"/>
    <path d="M 203.76800537109375 121.17400360107422 C 192.98699951171875 139.6840057373047 194.3769989013672 155.22500610351562 197.48800659179688 156.36599731445312" stroke-width="2.0" fill="none" stroke="rgb(0, 0, 0)" stroke-opacity="1" stroke-linecap="round" stroke-linejoin="round"/>
    <path d="M 67.6312026977539 100.64199829101562 C 71.00559997558594 105.11100006103516 59.12820053100586 115.55899810791016 62.197200775146484 114.61299896240234" stroke-width="2.0" fill="none" stroke="rgb(0, 0, 0)" stroke-opacity="1" stroke-linecap="round" stroke-linejoin="round"/>
    <path d="M 177.28199768066406 152.83099365234375 C 171.52200317382812 126.30899810791016 177.5279998779297 142.42599487304688 164.68899536132812 138.63699340820312" stroke-width="2.0" fill="none" stroke="rgb(0, 0, 0)" stroke-opacity="1" stroke-linecap="round" stroke-linejoin="round"/>
    <path d="M 196.16799926757812 186.31199645996094 C 195.05499267578125 188.71800231933594 197.0279998779297 184.19400024414062 196.5240020751953 187.11300659179688" stroke-width="2.0" fill="none" stroke="rgb(0, 0, 0)" stroke-opacity="1" stroke-linecap="round" stroke-linejoin="round"/>
    <path d="M 167.57200622558594 127.44999694824219 C 167.97500610351562 107.20800018310547 179.74600219726562 129.6999969482422 174.98800659179688 149.06399536132812" stroke-width="2.0" fill="none" stroke="rgb(0, 0, 0)" stroke-opacity="1" stroke-linecap="round" stroke-linejoin="round"/>
    <path d="M 191.55299377441406 128.9759979248047 C 190.3939971923828 142.89999389648438 190.46099853515625 126.32499694824219 188.093994140625 123.51399993896484" stroke-width="2.0" fill="none" stroke="rgb(0, 0, 0)" stroke-opacity="1" stroke-linecap="round" stroke-linejoin="round"/>
    <path d="M 196.3939971923828 116.03900146484375 C 220.0399932861328 107.87200164794922 208.67100524902344 119.54499816894531 202.2010040283203 135.33399963378906" stroke-width="2.0" fill="none" stroke="rgb(0, 0, 0)" stroke-opacity="1" stroke-linecap="round" stroke-linejoin="round"/>
    <path d="M 170.86000061035156 97.85569763183594 C 176.5240020751953 123.06600189208984 180.27699279785156 109.81099700927734 172.32899475097656 107.08100128173828" stroke-width="2.0" fill="none" stroke="rgb(0, 0, 0)" stroke-opacity="1" stroke-linecap="round" stroke-linejoin="round"/>
    <path d="M 152.78599548339844 194.72000122070312 C 131.8040008544922 192.60499572753906 143.0070037841797 197.97000122070312 144.2570037841797 162.9720001220703" stroke-width="2.0" fill="none" stroke="rgb(0, 0, 0)" stroke-opacity="1" stroke-linecap="round" stroke-linejoin="round"/>
    <path d="M 85.25430297851562 119.94499969482422 C 81.45040130615234 126.52100372314453 67.8290023803711 120.95600128173828 83.23609924316406 121.56199645996094" stroke-width="2.0" fill="none" stroke="rgb(0, 0, 0)" stroke-opacity="1" stroke-linecap="round" stroke-linejoin="round"/>
    <path d="M 152.13099670410156 163.3470001220703 C 164.25599670410156 156.94000244140625 163.21499633789062 160.56300354003906 140.30599975585938 162.18099975585938" stroke-width="2.0" fill="none" stroke="rgb(0, 0, 0)" stroke-opacity="1" stroke-linecap="round" stroke-linejoin="round"/>
    <path d="M 125.71600341796875 132.7449951171875 C 98.43190002441406 137.68899536132812 139.74099731445312 144.4340057373047 109.60600280761719 140.55599975585938" stroke-width="2.0" fill="none" stroke="rgb(0, 0, 0)" stroke-opacity="1" stroke-linecap="round" stroke-linejoin="round"/>
    <path d="M 184.35299682617188 116.41200256347656 C 183.6540069580078 103.88999938964844 173.96800231933594 103.82499694824219 171.54600524902344 100.35099792480469" stroke-width="2.0" fill="none" stroke="rgb(0, 0, 0)" stroke-opacity="1" stroke-linecap="round" stroke-linejoin="round"/>
    <path d="M 101.20700073242188 166.03199768066406 C 86.92500305175781 160.86500549316406 82.4623031616211 163.86900329589844 122.6500015258789 167.14500427246094" stroke-width="2.0" fill="none" stroke="rgb(0, 0, 0)" stroke-opacity="1" stroke-linecap="round" stroke-linejoin="round"/>
    <path d="M 164.79200744628906 116.39399719238281 C 158.04299926757812 142.8040008544922 161.43499755859375 112.1760025024414 176.11900329589844 104.9000015258789" stroke-width="2.0" fill="none" stroke="rgb(0, 0, 0)" stroke-opacity="1" stroke-linecap="round" stroke-linejoin="round"/>
    <path d="M 125.51699829101562 166.1699981689453 C 156.04299926757812 161.82200622558594 141.0570068359375 162.31399536132812 138.302001953125 161.718994140625" stroke-width="2.0" fill="none" stroke="rgb(0, 0, 0)" stroke-opacity="1" stroke-linecap="round" stroke-linejoin="round"/>
    <path d="M 156.31900024414062 161.7239990234375 C 170.63699340820312 155.1060028076172 170.85899353027344 152.63900756835938 167.16000366210938 183.83399963378906" stroke-width="2.0" fill="none" stroke="rgb(0, 0, 0)" stroke-opacity="1" stroke-linecap="round" stroke-linejoin="round"/>
    <path d="M 172.8679962158203 142.4459991455078 C 163.52200317382812 141.3280029296875 172.23800659179688 137.19000244140625 173.13900756835938 136.5959930419922" stroke-width="2.0" fill="none" stroke="rgb(0, 0, 0)" stroke-opacity="1" stroke-linecap="round" stroke-linejoin="round"/>
    <path d="M 104.75700378417969 135.58099365234375 C 136.11900329589844 137.45599365234375 136.1540069580078 133.3070068359375 97.78559875488281 136.53799438476562" stroke-width="2.0" fill="none" stroke="rgb(0, 0, 0)" stroke-opacity="1" stroke-linecap="round" stroke-linejoin="round"/>
    <path d="M 95.35679626464844 132.22000122070312 C 78.16899871826172 120.45800018310547 89.07630157470703 118.822998046875 77.45539855957031 125.13600158691406" stroke-width="2.0" fill="none" stroke="rgb(0, 0, 0)" stroke-opacity="1" stroke-linecap="round" stroke-linejoin="round"/>
    <path d="M 93.5625991821289 164.14100646972656 C 101.72599792480469 192.9409942626953 94.52970123291016 175.05099487304688 93.79129791259766 194.7550048828125" stroke-width="2.0" fill="none" stroke="rgb(0, 0, 0)" stroke-opacity="1" stroke-linecap="round" stroke-linejoin="round"/>
    <path d="M 99.12960052490234 132.85800170898438 C 135.08299255371094 129.57000732421875 113.47699737548828 137.41700744628906 75.34600067138672 136.8780059814453" stroke-width="2.0" fill="none" stroke="rgb(0, 0, 0)" stroke-opacity="1" stroke-linecap="round" stroke-linejoin="round"/>
    <path d="M 88.02410125732422 117.822998046875 C 77.39199829101562 107.16500091552734 62.18519973754883 94.8145980834961 67.8478012084961 119.34400177001953" stroke-width="2.0" fill="none" stroke="rgb(0, 0, 0)" stroke-opacity="1" stroke-linecap="round" stroke-linejoin="round"/>
    <path d="M 148.8209991455078 131.66200256347656 C 111.82599639892578 132.37399291992188 124.63200378417969 134.43499755859375 152.2689971923828 135.19200134277344" stroke-width="2.0" fill="none" stroke="rgb(0, 0, 0)" stroke-opacity="1" stroke-linecap="round" stroke-linejoin="round"/>
    <path d="M 170.0189971923828 86.31410217285156 C 141.6529998779297 90.53569793701172 152.73899841308594 84.64530181884766 166.57899475097656 82.66809844970703" stroke-width="2.0" fill="none" stroke="rgb(0, 0, 0)" stroke-opacity="1" stroke-linecap="round" stroke-linejoin="round"/>
    <path d="M 86.05280303955078 114.18399810791016 C 77.14520263671875 110.95600128173828 84.64649963378906 107.01899719238281 87.34729766845703 118.73899841308594" stroke-width="2.0" fill="none" stroke="rgb(0, 0, 0)" stroke-opacity="1" stroke-linecap="round" stroke-linejoin="round"/>
    <path d="M 120.36299896240234 135.1909942626953 C 106.20500183105469 134.6490020751953 104.9229965209961 136.95799255371094 105.45500183105469 135.48599243164062" stroke-width="2.0" fill="none" stroke="rgb(0, 0, 0)" stroke-opacity="1" stroke-linecap="round" stroke-linejoin="round"/>
    <path d="M 63.05619812011719 114.5739974975586 C 64.89250183105469 100.97000122070312 64.78520202636719 105.20999908447266 67.75589752197266 94.98709869384766" stroke-width="2.0" fill="none" stroke="rgb(0, 0, 0)" stroke-opacity="1" stroke-linecap="round" stroke-linejoin="round"/>
    <path d="M 100.81099700927734 88.0 C 100.81099700927734 107.46900177001953 98.33329772949219 113.8010025024414 105.31199645996094 112.5" stroke-width="2.0" fill="none" stroke="rgb(0, 0, 0)" stroke-opacity="1" stroke-linecap="round" stroke-linejoin="round"/>
    <path d="M 106.35600280761719 88.0 C 106.35600280761719 106.53199768066406 106.79199981689453 113.60099792480469 104.24099731445312 112.36299896240234" stroke-width="2.0" fill="none" stroke="rgb(0, 0, 0)" stroke-opacity="1" stroke-linecap="round" stroke-linejoin="round"/>
    <path d="M 134.3509979248047 81.0 C 134.3509979248047 99.53240203857422 134.85899353027344 106.60099792480469 131.88400268554688 105.36299896240234" stroke-width="2.0" fill="none" stroke="rgb(0, 0, 0)" stroke-opacity="1" stroke-linecap="round" stroke-linejoin="round"/>
    <path d="M 127.88300323486328 81.0 C 127.88300323486328 100.46900177001953 124.99199676513672 106.8010025024414 133.13299560546875 105.5" stroke-width="2.0" fill="none" stroke="rgb(0, 0, 0)" stroke-opacity="1" stroke-linecap="round" stroke-linejoin="round"/>
    <path d="M 131.08900451660156 105.5 C 131.58599853515625 119.78399658203125 131.9459991455078 114.1050033569336 127.88400268554688 116.0" stroke-width="2.0" fill="none" stroke="rgb(0, 0, 0)" stroke-opacity="1" stroke-linecap="round" stroke-linejoin="round"/>
    <path d="M 130.63699340820312 105.5 C 130.21099853515625 119.78399658203125 129.90199279785156 114.1050033569336 133.38400268554688 116.0" stroke-width="2.0" fill="none" stroke="rgb(0, 0, 0)" stroke-opacity="1" stroke-linecap="round" stroke-linejoin="round"/>
  </g>
</svg>
