<?xml version="1.0" ?>
<svg xmlns="http://www.w3.org/2000/svg" version="1.1" width="256" height="256">
  <defs/>
  <g>
    <path d="M 191.1699981689453 87.02639770507812 C 160.53500366210938 85.12349700927734 146.51600646972656 77.06829833984375 161.6219940185547 75.42669677734375" stroke-width="2.0" fill="none" stroke="rgb(0, 0, 255)" stroke-opacity="1" stroke-linecap="round" stroke-linejoin="round"/>
    <path d="M 174.14199829101562 95.8644027709961 C 161.17300415039062 54.30509948730469 155.43600463867188 57.382999420166016 175.09500122070312 105.39399719238281" stroke-width="2.0" fill="none" stroke="rgb(0, 0, 255)" stroke-opacity="1" stroke-linecap="round" stroke-linejoin="round"/>
    <path d="M 171.11199951171875 71.30039978027344 C 211.09500122070312 126.48699951171875 161.88900756835938 98.80039978027344 168.01199340820312 89.87840270996094" stroke-width="2.0" fill="none" stroke="rgb(0, 0, 255)" stroke-opacity="1" stroke-linecap="round" stroke-linejoin="round"/>
    <path d="M 178.77699279785156 100.41000366210938 C 163.48699951171875 81.82710266113281 140.20899963378906 61.09389877319336 156.66799926757812 77.21710205078125" stroke-width="2.0" fill="none" stroke="rgb(0, 0, 255)" stroke-opacity="1" stroke-linecap="round" stroke-linejoin="round"/>
    <path d="M 217.25900268554688 155.44700622558594 C 228.72500610351562 166.24400329589844 228.95799255371094 178.93800354003906 226.28399658203125 170.33299255371094" stroke-width="2.0" fill="none" stroke="rgb(0, 255, 0)" stroke-opacity="1" stroke-linecap="round" stroke-linejoin="round"/>
    <path d="M 227.40899658203125 167.1959991455078 C 224.66900634765625 161.78599548339844 205.79299926757812 139.17999267578125 227.64199829101562 170.5019989013672" stroke-width="2.0" fill="none" stroke="rgb(0, 255, 0)" stroke-opacity="1" stroke-linecap="round" stroke-linejoin="round"/>
    <path d="M 9.0 98.97039794921875 C 33.90570068359375 85.53739929199219 12.066399574279785 113.16400146484375 57.84669876098633 45.42359924316406" stroke-width="2.0" fill="none" stroke="rgb(0, 255, 0)" stroke-opacity="1" stroke-linecap="round" stroke-linejoin="round"/>
    <path d="M 164.18800354003906 119.11499786376953 C 178.69000244140625 119.11499786376953 194.19400024414062 138.61500549316406 211.51800537109375 149.68499755859375" stroke-width="2.0" fill="none" stroke="rgb(0, 255, 0)" stroke-opacity="1" stroke-linecap="round" stroke-linejoin="round"/>
    <path d="M 247.08799743652344 102.27999877929688 C 212.1230010986328 85.09809875488281 171.94700622558594 115.54299926757812 173.3820037841797 104.38600158691406" stroke-width="2.0" fill="none" stroke="rgb(0, 255, 0)" stroke-opacity="1" stroke-linecap="round" stroke-linejoin="round"/>
    <path d="M 163.50999450683594 78.447998046875 C 169.68299865722656 23.59910011291504 140.3179931640625 93.74340057373047 145.98899841308594 77.26509857177734" stroke-width="2.0" fill="none" stroke="rgb(0, 0, 255)" stroke-opacity="1" stroke-linecap="round" stroke-linejoin="round"/>
    <path d="M 166.16799926757812 81.8510971069336 C 179.53700256347656 64.15950012207031 181.74400329589844 75.44979858398438 184.3990020751953 97.06950378417969" stroke-width="2.0" fill="none" stroke="rgb(0, 0, 255)" stroke-opacity="1" stroke-linecap="round" stroke-linejoin="round"/>
    <path d="M 156.77499389648438 67.73320007324219 C 141.2989959716797 79.30960083007812 177.2949981689453 73.714599609375 192.64999389648438 100.80999755859375" stroke-width="2.0" fill="none" stroke="rgb(0, 0, 255)" stroke-opacity="1" stroke-linecap="round" stroke-linejoin="round"/>
    <path d="M 187.3249969482422 101.96399688720703 C 161.6020050048828 105.77300262451172 195.45199584960938 60.7047004699707 146.64599609375 75.80069732666016" stroke-width="2.0" fill="none" stroke="rgb(0, 0, 255)" stroke-opacity="1" stroke-linecap="round" stroke-linejoin="round"/>
    <path d="M 228.218994140625 169.4739990234375 C 226.08399963378906 164.5189971923828 214.10400390625 151.07899475097656 222.81300354003906 161.38400268554688" stroke-width="2.0" fill="none" stroke="rgb(0, 255, 0)" stroke-opacity="1" stroke-linecap="round" stroke-linejoin="round"/>
    <path d="M 222.74600219726562 214.9340057373047 C 247.08999633789062 165.38299560546875 201.8070068359375 145.12600708007812 219.35499572753906 156.24099731445312" stroke-width="2.0" fill="none" stroke="rgb(0, 255, 0)" stroke-opacity="1" stroke-linecap="round" stroke-linejoin="round"/>
    <path d="M 118.18599700927734 180.125 C 142.69000244140625 141.6219940185547 136.19000244140625 127.12200164794922 118.18599700927734 107.8949966430664" stroke-width="2.0" fill="none" stroke="rgb(0, 255, 0)" stroke-opacity="1" stroke-linecap="round" stroke-linejoin="round"/>
    <path d="M 196.8979949951172 138.39100646972656 C 232.9080047607422 162.70700073242188 225.5240020751953 182.218994140625 226.8780059814453 168.1999969482422" stroke-width="2.0" fill="none" stroke="rgb(0, 255, 0)" stroke-opacity="1" stroke-linecap="round" stroke-linejoin="round"/>
    <path d="M 157.33399963378906 83.21769714355469 C 145.39199829101562 46.237998962402344 153.93800354003906 83.93990325927734 186.91799926757812 85.17220306396484" stroke-width="2.0" fill="none" stroke="rgb(0, 0, 255)" stroke-opacity="1" stroke-linecap="round" stroke-linejoin="round"/>
    <path d="M 198.8939971923828 99.81739807128906 C 166.38999938964844 72.35559844970703 190.16299438476562 120.95700073242188 152.9709930419922 70.98899841308594" stroke-width="2.0" fill="none" stroke="rgb(0, 0, 255)" stroke-opacity="1" stroke-linecap="round" stroke-linejoin="round"/>
    <path d="M 166.78799438476562 111.06500244140625 C 221.13600158691406 92.63089752197266 188.1820068359375 98.71859741210938 154.69000244140625 120.12200164794922" stroke-width="2.0" fill="none" stroke="rgb(0, 255, 0)" stroke-opacity="1" stroke-linecap="round" stroke-linejoin="round"/>
    <path d="M 15.829999923706055 99.40350341796875 C 76.34339904785156 96.05349731445312 34.49020004272461 79.00330352783203 106.24800109863281 107.61499786376953" stroke-width="2.0" fill="none" stroke="rgb(0, 255, 0)" stroke-opacity="1" stroke-linecap="round" stroke-linejoin="round"/>
    <path d="M 228.6580047607422 169.6230010986328 C 233.23199462890625 189.21400451660156 231.38499450683594 163.88900756835938 206.3520050048828 144.21800231933594" stroke-width="2.0" fill="none" stroke="rgb(0, 255, 0)" stroke-opacity="1" stroke-linecap="round" stroke-linejoin="round"/>
    <path d="M 120.74600219726562 178.1219940185547 C 70.91590118408203 221.53700256347656 69.70819854736328 220.85899353027344 63.69020080566406 224.57400512695312" stroke-width="2.0" fill="none" stroke="rgb(0, 255, 0)" stroke-opacity="1" stroke-linecap="round" stroke-linejoin="round"/>
    <path d="M 194.80999755859375 99.50550079345703 C 192.04299926757812 92.3134994506836 192.46200561523438 94.25250244140625 177.51499938964844 67.73419952392578" stroke-width="2.0" fill="none" stroke="rgb(0, 0, 255)" stroke-opacity="1" stroke-linecap="round" stroke-linejoin="round"/>
    <path d="M 67.73789978027344 73.4188003540039 C 54.135501861572266 39.10490036010742 58.17539978027344 47.32809829711914 64.90489959716797 68.4000015258789" stroke-width="2.0" fill="none" stroke="rgb(0, 255, 0)" stroke-opacity="1" stroke-linecap="round" stroke-linejoin="round"/>
    <path d="M 124.62799835205078 55.40140151977539 C 96.097900390625 28.031700134277344 116.53399658203125 7.29610013961792 80.07569885253906 87.5354995727539" stroke-width="2.0" fill="none" stroke="rgb(0, 255, 0)" stroke-opacity="1" stroke-linecap="round" stroke-linejoin="round"/>
    <path d="M 118.99800109863281 49.715999603271484 C 146.7740020751953 78.65850067138672 116.9000015258789 46.03200149536133 125.41999816894531 56.94860076904297" stroke-width="2.0" fill="none" stroke="rgb(0, 255, 0)" stroke-opacity="1" stroke-linecap="round" stroke-linejoin="round"/>
    <path d="M 66.88099670410156 73.58409881591797 C 54.95069885253906 38.16740036010742 55.95899963378906 40.94219970703125 62.407901763916016 54.36259841918945" stroke-width="2.0" fill="none" stroke="rgb(0, 255, 0)" stroke-opacity="1" stroke-linecap="round" stroke-linejoin="round"/>
    <path d="M 163.4929962158203 72.36689758300781 C 193.24200439453125 117.76399993896484 191.6540069580078 108.8239974975586 166.02099609375 63.28300094604492" stroke-width="2.0" fill="none" stroke="rgb(0, 0, 255)" stroke-opacity="1" stroke-linecap="round" stroke-linejoin="round"/>
    <path d="M 141.64300537109375 81.99210357666016 C 116.53800201416016 38.89569854736328 120.61799621582031 50.15079879760742 127.427001953125 57.91429901123047" stroke-width="2.0" fill="none" stroke="rgb(0, 255, 0)" stroke-opacity="1" stroke-linecap="round" stroke-linejoin="round"/>
    <path d="M 81.69020080566406 93.12239837646484 C 126.08399963378906 127.31400299072266 122.14600372314453 94.29170227050781 171.69000244140625 125.12200164794922" stroke-width="2.0" fill="none" stroke="rgb(0, 255, 0)" stroke-opacity="1" stroke-linecap="round" stroke-linejoin="round"/>
    <path d="M 169.44900512695312 89.09239959716797 C 182.2310028076172 54.33620071411133 162.8459930419922 66.93299865722656 173.21200561523438 105.4729995727539" stroke-width="2.0" fill="none" stroke="rgb(0, 0, 255)" stroke-opacity="1" stroke-linecap="round" stroke-linejoin="round"/>
    <path d="M 54.69020080566406 48.122398376464844 C 63.03969955444336 60.72999954223633 51.1526985168457 54.100101470947266 70.29100036621094 80.49710083007812" stroke-width="2.0" fill="none" stroke="rgb(0, 255, 0)" stroke-opacity="1" stroke-linecap="round" stroke-linejoin="round"/>
    <path d="M 157.08799743652344 71.23100280761719 C 152.19200134277344 55.94710159301758 159.90499877929688 64.05480194091797 165.74200439453125 90.19349670410156" stroke-width="2.0" fill="none" stroke="rgb(0, 0, 255)" stroke-opacity="1" stroke-linecap="round" stroke-linejoin="round"/>
    <path d="M 124.69000244140625 73.12239837646484 C 98.45240020751953 18.339500427246094 112.2030029296875 16.40959930419922 85.69020080566406 71.68679809570312" stroke-width="2.0" fill="none" stroke="rgb(0, 255, 0)" stroke-opacity="1" stroke-linecap="round" stroke-linejoin="round"/>
    <path d="M 58.69020080566406 47.122398376464844 C 87.17939758300781 107.83000183105469 95.631103515625 126.04000091552734 71.82270050048828 76.8291015625" stroke-width="2.0" fill="none" stroke="rgb(0, 255, 0)" stroke-opacity="1" stroke-linecap="round" stroke-linejoin="round"/>
    <path d="M 118.4020004272461 198.4080047607422 C 181.81399536132812 202.24099731445312 159.56700134277344 185.91799926757812 133.4530029296875 204.49200439453125" stroke-width="2.0" fill="none" stroke="rgb(255, 0, 0)" stroke-opacity="1" stroke-linecap="round" stroke-linejoin="round"/>
    <path d="M 130.92300415039062 185.9929962158203 C 120.20500183105469 178.34100341796875 115.65299987792969 203.77999877929688 124.91300201416016 186.3939971923828" stroke-width="2.0" fill="none" stroke="rgb(255, 0, 0)" stroke-opacity="1" stroke-linecap="round" stroke-linejoin="round"/>
    <path d="M 136.00100708007812 214.90199279785156 C 114.15899658203125 202.43499755859375 129.34300231933594 213.40699768066406 161.7830047607422 210.6790008544922" stroke-width="2.0" fill="none" stroke="rgb(255, 0, 0)" stroke-opacity="1" stroke-linecap="round" stroke-linejoin="round"/>
    <path d="M 109.62699890136719 213.6959991455078 C 139.69200134277344 211.30999755859375 131.3780059814453 209.18499755859375 110.6969985961914 205.83700561523438" stroke-width="2.0" fill="none" stroke="rgb(255, 0, 0)" stroke-opacity="1" stroke-linecap="round" stroke-linejoin="round"/>
    <path d="M 141.45199584960938 201.26499938964844 C 118.2239990234375 210.31700134277344 141.3209991455078 206.9250030517578 141.64100646972656 197.5570068359375" stroke-width="2.0" fill="none" stroke="rgb(255, 0, 0)" stroke-opacity="1" stroke-linecap="round" stroke-linejoin="round"/>
    <path d="M 127.26899719238281 210.9250030517578 C 114.45500183105469 210.36500549316406 89.70610046386719 206.54600524902344 136.51600646972656 209.51800537109375" stroke-width="2.0" fill="none" stroke="rgb(255, 0, 0)" stroke-opacity="1" stroke-linecap="round" stroke-linejoin="round"/>
    <path d="M 137.53399658203125 190.53700256347656 C 138.14100646972656 207.48399353027344 156.26100158691406 197.58200073242188 149.19000244140625 188.88400268554688" stroke-width="2.0" fill="none" stroke="rgb(255, 0, 0)" stroke-opacity="1" stroke-linecap="round" stroke-linejoin="round"/>
    <path d="M 150.63600158691406 196.88299560546875 C 146.947998046875 177.15899658203125 147.8990020751953 187.20199584960938 131.87899780273438 185.16099548339844" stroke-width="2.0" fill="none" stroke="rgb(255, 0, 0)" stroke-opacity="1" stroke-linecap="round" stroke-linejoin="round"/>
    <path d="M 134.08099365234375 185.57699584960938 C 125.00299835205078 184.43800354003906 125.3489990234375 185.7550048828125 117.89299774169922 195.36399841308594" stroke-width="2.0" fill="none" stroke="rgb(255, 0, 0)" stroke-opacity="1" stroke-linecap="round" stroke-linejoin="round"/>
    <path d="M 146.93299865722656 205.61700439453125 C 149.72999572753906 205.61700439453125 149.8820037841797 218.5050048828125 146.93299865722656 218.5050048828125" stroke-width="2.0" fill="none" stroke="rgb(255, 0, 0)" stroke-opacity="1" stroke-linecap="round" stroke-linejoin="round"/>
    <path d="M 120.9010009765625 211.72300720214844 C 120.9010009765625 220.20199584960938 116.2040023803711 222.57699584960938 116.2040023803711 211.72300720214844" stroke-width="2.0" fill="none" stroke="rgb(255, 0, 0)" stroke-opacity="1" stroke-linecap="round" stroke-linejoin="round"/>
    <path d="M 137.18699645996094 210.36599731445312 C 137.18699645996094 218.84500122070312 132.48899841308594 221.2209930419922 132.48899841308594 210.36599731445312" stroke-width="2.0" fill="none" stroke="rgb(255, 0, 0)" stroke-opacity="1" stroke-linecap="round" stroke-linejoin="round"/>
    <path d="M 164.74200439453125 201.20799255371094 C 167.5399932861328 201.20799255371094 142.81900024414062 201.20799255371094 142.81900024414062 210.36599731445312" stroke-width="2.0" fill="none" stroke="rgb(255, 0, 0)" stroke-opacity="1" stroke-linecap="round" stroke-linejoin="round"/>
    <path d="M 146.85899353027344 205.61900329589844 C 144.06199645996094 205.61900329589844 143.90899658203125 218.5070037841797 146.85899353027344 218.5070037841797" stroke-width="2.0" fill="none" stroke="rgb(255, 0, 0)" stroke-opacity="1" stroke-linecap="round" stroke-linejoin="round"/>
    <path d="M 160.63900756835938 202.2270050048828 C 157.8419952392578 202.2270050048828 157.68899536132812 215.11399841308594 160.63900756835938 215.11399841308594" stroke-width="2.0" fill="none" stroke="rgb(255, 0, 0)" stroke-opacity="1" stroke-linecap="round" stroke-linejoin="round"/>
    <path d="M 160.71299743652344 202.22500610351562 C 163.51100158691406 202.22500610351562 163.66200256347656 215.11300659179688 160.71299743652344 215.11300659179688" stroke-width="2.0" fill="none" stroke="rgb(255, 0, 0)" stroke-opacity="1" stroke-linecap="round" stroke-linejoin="round"/>
    <path d="M 158.45799255371094 194.95399475097656 C 160.4669952392578 188.45399475097656 162.75399780273438 217.8979949951172 158.8300018310547 198.93099975585938" stroke-width="2.0" fill="none" stroke="rgb(255, 0, 0)" stroke-opacity="1" stroke-linecap="round" stroke-linejoin="round"/>
    <path d="M 141.31300354003906 199.97999572753906 C 150.25 193.6490020751953 151.11399841308594 188.25599670410156 140.96800231933594 202.50900268554688" stroke-width="2.0" fill="none" stroke="rgb(255, 0, 0)" stroke-opacity="1" stroke-linecap="round" stroke-linejoin="round"/>
    <path d="M 148.50999450683594 197.74000549316406 C 141.14300537109375 177.7989959716797 148.88600158691406 182.34100341796875 129.2010040283203 195.53799438476562" stroke-width="2.0" fill="none" stroke="rgb(255, 0, 0)" stroke-opacity="1" stroke-linecap="round" stroke-linejoin="round"/>
    <path d="M 131.3070068359375 205.12399291992188 C 88.814697265625 202.7050018310547 120.1520004272461 219.57699584960938 127.0510025024414 208.70799255371094" stroke-width="2.0" fill="none" stroke="rgb(255, 0, 0)" stroke-opacity="1" stroke-linecap="round" stroke-linejoin="round"/>
    <path d="M 110.2030029296875 211.72300720214844 C 102.62699890136719 214.5 132.96800231933594 215.70899963378906 141.5709991455078 212.6009979248047" stroke-width="2.0" fill="none" stroke="rgb(255, 0, 0)" stroke-opacity="1" stroke-linecap="round" stroke-linejoin="round"/>
    <path d="M 156.9949951171875 196.35499572753906 C 155.697998046875 178.54100036621094 130.91900634765625 183.26300048828125 132.44900512695312 184.8679962158203" stroke-width="2.0" fill="none" stroke="rgb(255, 0, 0)" stroke-opacity="1" stroke-linecap="round" stroke-linejoin="round"/>
    <path d="M 110.99700164794922 210.99000549316406 C 107.66799926757812 224.09500122070312 110.02400207519531 194.67100524902344 112.4260025024414 199.13999938964844" stroke-width="2.0" fill="none" stroke="rgb(255, 0, 0)" stroke-opacity="1" stroke-linecap="round" stroke-linejoin="round"/>
    <path d="M 149.58299255371094 192.61199951171875 C 164.4429931640625 199.37899780273438 135.60800170898438 195.90499877929688 163.43299865722656 197.13099670410156" stroke-width="2.0" fill="none" stroke="rgb(255, 0, 0)" stroke-opacity="1" stroke-linecap="round" stroke-linejoin="round"/>
    <path d="M 148.74899291992188 185.3520050048828 C 154.33599853515625 185.46200561523438 154.875 180.44000244140625 127.53800201416016 184.75" stroke-width="2.0" fill="none" stroke="rgb(255, 0, 0)" stroke-opacity="1" stroke-linecap="round" stroke-linejoin="round"/>
    <path d="M 150.60800170898438 198.0749969482422 C 101.78299713134766 187.6699981689453 116.51699829101562 198.36900329589844 111.71399688720703 210.70399475097656" stroke-width="2.0" fill="none" stroke="rgb(255, 0, 0)" stroke-opacity="1" stroke-linecap="round" stroke-linejoin="round"/>
    <path d="M 132.72900390625 194.6719970703125 C 150.656005859375 195.4720001220703 151.0030059814453 203.91600036621094 129.531005859375 187.2429962158203" stroke-width="2.0" fill="none" stroke="rgb(255, 0, 0)" stroke-opacity="1" stroke-linecap="round" stroke-linejoin="round"/>
    <path d="M 161.59500122070312 198.83299255371094 C 164.50399780273438 198.79600524902344 171.93899536132812 210.48500061035156 151.89599609375 209.52099609375" stroke-width="2.0" fill="none" stroke="rgb(255, 0, 0)" stroke-opacity="1" stroke-linecap="round" stroke-linejoin="round"/>
    <path d="M 142.9709930419922 203.3800048828125 C 120.30999755859375 209.22900390625 104.4489974975586 221.29200744628906 111.89299774169922 204.0590057373047" stroke-width="2.0" fill="none" stroke="rgb(255, 0, 0)" stroke-opacity="1" stroke-linecap="round" stroke-linejoin="round"/>
    <path d="M 147.0260009765625 194.6649932861328 C 144.03799438476562 198.33799743652344 141.5800018310547 203.47799682617188 139.82699584960938 183.656005859375" stroke-width="2.0" fill="none" stroke="rgb(255, 0, 0)" stroke-opacity="1" stroke-linecap="round" stroke-linejoin="round"/>
    <path d="M 131.06900024414062 188.12600708007812 C 124.6240005493164 192.88800048828125 127.26899719238281 191.85899353027344 124.73899841308594 185.26800537109375" stroke-width="2.0" fill="none" stroke="rgb(255, 0, 0)" stroke-opacity="1" stroke-linecap="round" stroke-linejoin="round"/>
    <path d="M 151.7570037841797 187.4320068359375 C 110.36799621582031 185.17999267578125 112.11699676513672 200.63800048828125 135.62600708007812 189.16099548339844" stroke-width="2.0" fill="none" stroke="rgb(255, 0, 0)" stroke-opacity="1" stroke-linecap="round" stroke-linejoin="round"/>
    <path d="M 134.31100463867188 210.1230010986328 C 125.5999984741211 187.63400268554688 148.45599365234375 210.9340057373047 138.06199645996094 188.85499572753906" stroke-width="2.0" fill="none" stroke="rgb(255, 0, 0)" stroke-opacity="1" stroke-linecap="round" stroke-linejoin="round"/>
    <path d="M 135.6300048828125 208.93699645996094 C 137.40499877929688 209.45700073242188 158.74099731445312 207.02499389648438 120.94999694824219 209.4409942626953" stroke-width="2.0" fill="none" stroke="rgb(255, 0, 0)" stroke-opacity="1" stroke-linecap="round" stroke-linejoin="round"/>
    <path d="M 142.22799682617188 201.56500244140625 C 154.20700073242188 199.29100036621094 143.06900024414062 193.4080047607422 157.4029998779297 194.07200622558594" stroke-width="2.0" fill="none" stroke="rgb(255, 0, 0)" stroke-opacity="1" stroke-linecap="round" stroke-linejoin="round"/>
    <path d="M 165.98199462890625 198.83299255371094 C 165.68299865722656 209.281005859375 169.34300231933594 209.572998046875 141.76499938964844 212.79299926757812" stroke-width="2.0" fill="none" stroke="rgb(255, 0, 0)" stroke-opacity="1" stroke-linecap="round" stroke-linejoin="round"/>
    <path d="M 125.29399871826172 208.802001953125 C 131.48800659179688 203.11300659179688 137.29100036621094 214.75999450683594 133.83900451660156 200.94900512695312" stroke-width="2.0" fill="none" stroke="rgb(255, 0, 0)" stroke-opacity="1" stroke-linecap="round" stroke-linejoin="round"/>
    <path d="M 142.3350067138672 211.0330047607422 C 149.32200622558594 188.3560028076172 168.91900634765625 202.802001953125 113.15899658203125 200.10499572753906" stroke-width="2.0" fill="none" stroke="rgb(255, 0, 0)" stroke-opacity="1" stroke-linecap="round" stroke-linejoin="round"/>
    <path d="M 130.99899291992188 190.22500610351562 C 128.06199645996094 181.22900390625 141.29400634765625 198.2519989013672 136.26199340820312 188.60499572753906" stroke-width="2.0" fill="none" stroke="rgb(255, 0, 0)" stroke-opacity="1" stroke-linecap="round" stroke-linejoin="round"/>
  </g>
</svg>
