<svg height="256" version="1.1" width="256" xmlns="http://www.w3.org/2000/svg">
  <defs/>
  <g>
    <path d="M86.1847 127.816C84.2406 125.747 99.066 131.688 78.6784 138.767" fill="none" stroke="rgb(0, 0, 0)" stroke-linecap="round" stroke-linejoin="round" stroke-opacity="1.0" stroke-width="3"/>
    <path d="M88.174 123.26C87.0129 128.699 86.2137 130.293 90.479 126.909" fill="none" stroke="rgb(0, 0, 0)" stroke-linecap="round" stroke-linejoin="round" stroke-opacity="1.0" stroke-width="3"/>
    <path d="M112.526 128.307C121.202 129.96 126.009 118.834 137.057 121.382" fill="none" stroke="rgb(0, 0, 0)" stroke-linecap="round" stroke-linejoin="round" stroke-opacity="1.0" stroke-width="3"/>
    <path d="M113.952 128.934C87.2522 133.703 90.607 134.359 114.316 128.425" fill="none" stroke="rgb(0, 0, 0)" stroke-linecap="round" stroke-linejoin="round" stroke-opacity="1.0" stroke-width="3"/>
    <path d="M135.857 108.133C128.078 103.809 114.168 94.524 132.961 115.729" fill="none" stroke="rgb(0, 0, 0)" stroke-linecap="round" stroke-linejoin="round" stroke-opacity="1.0" stroke-width="3"/>
    <path d="M134.243 110.456C126.464 106.133 112.554 96.847 131.347 118.053" fill="none" stroke="rgb(0, 0, 0)" stroke-linecap="round" stroke-linejoin="round" stroke-opacity="1.0" stroke-width="3"/>
    <path d="M122.138 117.427C114.36 113.104 100.449 103.818 119.243 125.024" fill="none" stroke="rgb(0, 0, 0)" stroke-linecap="round" stroke-linejoin="round" stroke-opacity="1.0" stroke-width="3"/>
    <path d="M129.213 116.664C116.958 112.911 95.041 104.85 124.651 123.26" fill="none" stroke="rgb(0, 0, 0)" stroke-linecap="round" stroke-linejoin="round" stroke-opacity="1.0" stroke-width="3"/>
    <path d="M142.528 98.862C138.09 98.862 130.827 98.862 128.406 96.538" fill="none" stroke="rgb(0, 0, 0)" stroke-linecap="round" stroke-linejoin="round" stroke-opacity="1.0" stroke-width="3"/>
    <path d="M135.266 119.387C130.827 119.387 123.564 119.387 121.144 117.064" fill="none" stroke="rgb(0, 0, 0)" stroke-linecap="round" stroke-linejoin="round" stroke-opacity="1.0" stroke-width="3"/>
    <path d="M130.827 120.162C126.262 120.162 118.792 120.162 116.302 124.035" fill="none" stroke="rgb(0, 0, 0)" stroke-linecap="round" stroke-linejoin="round" stroke-opacity="1.0" stroke-width="3"/>
    <path d="M190.543 108.544C185.978 108.544 178.508 108.544 176.017 112.416" fill="none" stroke="rgb(0, 0, 0)" stroke-linecap="round" stroke-linejoin="round" stroke-opacity="1.0" stroke-width="3"/>
    <path d="M177.632 114.74C173.067 114.74 165.596 114.74 163.106 118.613" fill="none" stroke="rgb(0, 0, 0)" stroke-linecap="round" stroke-linejoin="round" stroke-opacity="1.0" stroke-width="3"/>
    <path d="M140.914 101.573C136.476 101.573 129.213 101.573 126.792 99.249" fill="none" stroke="rgb(0, 0, 0)" stroke-linecap="round" stroke-linejoin="round" stroke-opacity="1.0" stroke-width="3"/>
    <path d="M114.012 128.535C116.054 128.848 110.572 120.58 106.468 110.712" fill="none" stroke="rgb(0, 0, 0)" stroke-linecap="round" stroke-linejoin="round" stroke-opacity="1.0" stroke-width="3"/>
    <path d="M127.599 111.125C112.752 121.891 101.504 104.961 121.211 107.201" fill="none" stroke="rgb(0, 0, 0)" stroke-linecap="round" stroke-linejoin="round" stroke-opacity="1.0" stroke-width="3"/>
    <path d="M178.439 70.2036C162.703 73.6891 151.405 81.8218 143.335 86.4691" fill="none" stroke="rgb(0, 0, 0)" stroke-linecap="round" stroke-linejoin="round" stroke-opacity="1.0" stroke-width="3"/>
    <path d="M201.034 96.151C188.929 102.735 171.176 112.416 156.65 115.127" fill="none" stroke="rgb(0, 0, 0)" stroke-linecap="round" stroke-linejoin="round" stroke-opacity="1.0" stroke-width="3"/>
    <path d="M141.943 75.7373C175.314 60.7186 182.891 59.4032 181.819 60.135" fill="none" stroke="rgb(0, 0, 0)" stroke-linecap="round" stroke-linejoin="round" stroke-opacity="1.0" stroke-width="3"/>
    <path d="M211.051 82.2293C223.604 102.553 216.004 83.7115 205.875 61.2963" fill="none" stroke="rgb(0, 0, 0)" stroke-linecap="round" stroke-linejoin="round" stroke-opacity="1.0" stroke-width="3"/>
    <path d="M173.593 119.772C161.895 125.194 155.846 129.073 149.787 125.194" fill="none" stroke="rgb(0, 0, 0)" stroke-linecap="round" stroke-linejoin="round" stroke-opacity="1.0" stroke-width="3"/>
    <path d="M161.632 125.238C182.591 115.534 185.321 113.494 211.754 102.338" fill="none" stroke="rgb(0, 0, 0)" stroke-linecap="round" stroke-linejoin="round" stroke-opacity="1.0" stroke-width="3"/>
    <path d="M106.441 110.04C116.596 100.83 118.697 107.814 127.691 96.3" fill="none" stroke="rgb(0, 0, 0)" stroke-linecap="round" stroke-linejoin="round" stroke-opacity="1.0" stroke-width="3"/>
    <path d="M143.112 102.478C148.632 112.005 145.295 108.617 144.625 102.515" fill="none" stroke="rgb(0, 0, 0)" stroke-linecap="round" stroke-linejoin="round" stroke-opacity="1.0" stroke-width="3"/>
    <path d="M82.6453 128.682C76.2593 132.567 71.8638 133.706 95.32 131.288" fill="none" stroke="rgb(0, 0, 0)" stroke-linecap="round" stroke-linejoin="round" stroke-opacity="1.0" stroke-width="3"/>
    <path d="M156.081 116.503C145.136 111.625 139.069 101.571 143.351 85.1901" fill="none" stroke="rgb(0, 0, 0)" stroke-linecap="round" stroke-linejoin="round" stroke-opacity="1.0" stroke-width="3"/>
    <path d="M93.193 116.605C94.231 115.58 106.9 111.678 107.567 109.225" fill="none" stroke="rgb(0, 0, 0)" stroke-linecap="round" stroke-linejoin="round" stroke-opacity="1.0" stroke-width="3"/>
    <path d="M130.068 89.5293C126.895 111.367 123.257 80.1363 143.757 75.2382" fill="none" stroke="rgb(0, 0, 0)" stroke-linecap="round" stroke-linejoin="round" stroke-opacity="1.0" stroke-width="3"/>
    <path d="M200.443 96.325C189.53 66.4078 194.599 58.7591 178.439 70.2827" fill="none" stroke="rgb(0, 0, 0)" stroke-linecap="round" stroke-linejoin="round" stroke-opacity="1.0" stroke-width="3"/>
    <path d="M188.52 106.995C181.871 121.949 169.23 105.415 166.731 114.613" fill="none" stroke="rgb(0, 0, 0)" stroke-linecap="round" stroke-linejoin="round" stroke-opacity="1.0" stroke-width="3"/>
    <path d="M188.52 106.995C181.871 121.949 169.23 105.415 166.731 114.613" fill="none" stroke="rgb(0, 0, 0)" stroke-linecap="round" stroke-linejoin="round" stroke-opacity="1.0" stroke-width="3"/>
    <path d="M136.873 105.445C130.225 120.4 117.584 103.866 115.085 113.064" fill="none" stroke="rgb(0, 0, 0)" stroke-linecap="round" stroke-linejoin="round" stroke-opacity="1.0" stroke-width="3"/>
    <path d="M155.036 118.578C146.413 112.032 134.418 121.071 130.827 116.902" fill="none" stroke="rgb(0, 0, 0)" stroke-linecap="round" stroke-linejoin="round" stroke-opacity="1.0" stroke-width="3"/>
    <path d="M156.464 123.913C162.323 103.17 167.709 128.46 170.369 115.515" fill="none" stroke="rgb(0, 0, 0)" stroke-linecap="round" stroke-linejoin="round" stroke-opacity="1.0" stroke-width="3"/>
    <path d="M146.967 116.254C138.344 109.708 126.348 118.748 122.758 114.578" fill="none" stroke="rgb(0, 0, 0)" stroke-linecap="round" stroke-linejoin="round" stroke-opacity="1.0" stroke-width="3"/>
    <path d="M143.739 107.734C135.116 101.188 123.12 110.228 119.53 106.058" fill="none" stroke="rgb(0, 0, 0)" stroke-linecap="round" stroke-linejoin="round" stroke-opacity="1.0" stroke-width="3"/>
    <path d="M210.717 101.734C204.805 99.463 196.203 103.056 193.771 101.573" fill="none" stroke="rgb(0, 0, 0)" stroke-linecap="round" stroke-linejoin="round" stroke-opacity="1.0" stroke-width="3"/>
    <path d="M217.173 98.837C211.261 96.565 202.659 100.158 200.227 98.675" fill="none" stroke="rgb(0, 0, 0)" stroke-linecap="round" stroke-linejoin="round" stroke-opacity="1.0" stroke-width="3"/>
    <path d="M203.455 105.033C197.542 102.761 188.94 106.354 186.508 104.871" fill="none" stroke="rgb(0, 0, 0)" stroke-linecap="round" stroke-linejoin="round" stroke-opacity="1.0" stroke-width="3"/>
    <path d="M203.455 105.033C197.542 102.761 188.94 106.354 186.508 104.871" fill="none" stroke="rgb(0, 0, 0)" stroke-linecap="round" stroke-linejoin="round" stroke-opacity="1.0" stroke-width="3"/>
    <path d="M217.98 98.636C212.159 92.917 204.282 100.547 201.841 96.925" fill="none" stroke="rgb(0, 0, 0)" stroke-linecap="round" stroke-linejoin="round" stroke-opacity="1.0" stroke-width="3"/>
    <path d="M147.774 115.302C144.662 103.503 141.934 117.854 140.511 110.493" fill="none" stroke="rgb(0, 0, 0)" stroke-linecap="round" stroke-linejoin="round" stroke-opacity="1.0" stroke-width="3"/>
    <path d="M146.967 119.175C143.855 107.376 141.127 121.727 139.704 114.366" fill="none" stroke="rgb(0, 0, 0)" stroke-linecap="round" stroke-linejoin="round" stroke-opacity="1.0" stroke-width="3"/>
    <path d="M158.669 124.598C155.558 112.799 149.791 128.682 140.913 118.997" fill="none" stroke="rgb(0, 0, 0)" stroke-linecap="round" stroke-linejoin="round" stroke-opacity="1.0" stroke-width="3"/>
    <path d="M164.72 123.033C163.212 110.339 162.225 126.987 159.071 116.289" fill="none" stroke="rgb(0, 0, 0)" stroke-linecap="round" stroke-linejoin="round" stroke-opacity="1.0" stroke-width="3"/>
    <path d="M166.334 121.784C164.826 109.091 163.839 125.738 160.685 115.041" fill="none" stroke="rgb(0, 0, 0)" stroke-linecap="round" stroke-linejoin="round" stroke-opacity="1.0" stroke-width="3"/>
    <path d="M169.39 123.255C175.443 110.866 207.722 103.508 212.163 97.7" fill="none" stroke="rgb(0, 0, 0)" stroke-linecap="round" stroke-linejoin="round" stroke-opacity="1.0" stroke-width="3"/>
    <path d="M150.194 123.334C148.686 110.64 147.7 127.287 144.546 116.59" fill="none" stroke="rgb(0, 0, 0)" stroke-linecap="round" stroke-linejoin="round" stroke-opacity="1.0" stroke-width="3"/>
    <path d="M129.213 96.74C133.982 117.158 137.768 92.42 139.981 105.15" fill="none" stroke="rgb(0, 0, 0)" stroke-linecap="round" stroke-linejoin="round" stroke-opacity="1.0" stroke-width="3"/>
    <path d="M142.494 105.445C140.912 126.23 134.982 102.054 134.619 114.932" fill="none" stroke="rgb(0, 0, 0)" stroke-linecap="round" stroke-linejoin="round" stroke-opacity="1.0" stroke-width="3"/>
    <path d="M142.494 105.445C140.912 126.23 134.982 102.054 134.619 114.932" fill="none" stroke="rgb(0, 0, 0)" stroke-linecap="round" stroke-linejoin="round" stroke-opacity="1.0" stroke-width="3"/>
    <path d="M78.3742 130.165C98.851 126.545 95.141 130.605 90.83 131.271" fill="none" stroke="rgb(0, 0, 0)" stroke-linecap="round" stroke-linejoin="round" stroke-opacity="1.0" stroke-width="3"/>
    <path d="M200.227 52.3916C205.069 55.8771 205.069 71.7527 211.525 81.0498" fill="none" stroke="rgb(0, 0, 0)" stroke-linecap="round" stroke-linejoin="round" stroke-opacity="1.0" stroke-width="3"/>
    <path d="M157.457 127.133C147.774 127.133 138.897 121.324 134.055 121.324" fill="none" stroke="rgb(0, 0, 0)" stroke-linecap="round" stroke-linejoin="round" stroke-opacity="1.0" stroke-width="3"/>
    <path d="M88.229 120.038C96.371 126.615 93.756 133.676 89.425 121.44" fill="none" stroke="rgb(0, 0, 0)" stroke-linecap="round" stroke-linejoin="round" stroke-opacity="1.0" stroke-width="3"/>
    <path d="M201.437 52C195.385 53.9413 178.035 58.9744 168.352 64.3927" fill="none" stroke="rgb(0, 0, 0)" stroke-linecap="round" stroke-linejoin="round" stroke-opacity="1.0" stroke-width="3"/>
    <path d="M88.864 133.716C80.391 116.289 83.2152 124.809 93.803 116.289" fill="none" stroke="rgb(0, 0, 0)" stroke-linecap="round" stroke-linejoin="round" stroke-opacity="1.0" stroke-width="3"/>
    <path d="M83.5929 136.589C98.978 132.965 97.877 139.368 90.246 118.823" fill="none" stroke="rgb(0, 0, 0)" stroke-linecap="round" stroke-linejoin="round" stroke-opacity="1.0" stroke-width="3"/>
    <path d="M215.963 94.989C224.491 105.782 216.61 84.4643 203.455 53.5509" fill="none" stroke="rgb(0, 0, 0)" stroke-linecap="round" stroke-linejoin="round" stroke-opacity="1.0" stroke-width="3"/>
    <path d="M208.297 103.509C224.839 95.764 221.612 105.833 212.331 81.4345" fill="none" stroke="rgb(0, 0, 0)" stroke-linecap="round" stroke-linejoin="round" stroke-opacity="1.0" stroke-width="3"/>
    <path d="M174.944 117.435C162.015 123.808 161.368 127.265 153.197 124.825" fill="none" stroke="rgb(0, 0, 0)" stroke-linecap="round" stroke-linejoin="round" stroke-opacity="1.0" stroke-width="3"/>
    <path d="M62.8656 157.437C57.8058 160.858 56.1364 160.006 81.602 134.878" fill="none" stroke="rgb(0, 0, 0)" stroke-linecap="round" stroke-linejoin="round" stroke-opacity="1.0" stroke-width="3"/>
    <path d="M80.4205 131.88C65.8992 144.621 68.8729 157.081 67.0874 153.886" fill="none" stroke="rgb(0, 0, 0)" stroke-linecap="round" stroke-linejoin="round" stroke-opacity="1.0" stroke-width="3"/>
    <path d="M80.2298 139.913C92.566 135.963 80.0571 124.349 75.5306 143.036" fill="none" stroke="rgb(0, 0, 0)" stroke-linecap="round" stroke-linejoin="round" stroke-opacity="1.0" stroke-width="3"/>
    <path d="M101.776 158.502C86.1714 157.283 70.306 155.016 59.0067 155.016" fill="none" stroke="rgb(0, 0, 0)" stroke-linecap="round" stroke-linejoin="round" stroke-opacity="1.0" stroke-width="3"/>
    <path d="M67.6794 187.358C101.855 182.354 100.259 185.974 64.0508 190.322" fill="none" stroke="rgb(0, 0, 0)" stroke-linecap="round" stroke-linejoin="round" stroke-opacity="1.0" stroke-width="3"/>
    <path d="M88.068 195.348C81.8472 194.085 118.141 201.174 81.1661 203" fill="none" stroke="rgb(0, 0, 0)" stroke-linecap="round" stroke-linejoin="round" stroke-opacity="1.0" stroke-width="3"/>
    <path d="M90.725 185.294C92.03 193.732 72.4078 198.27 88.514 196.14" fill="none" stroke="rgb(0, 0, 0)" stroke-linecap="round" stroke-linejoin="round" stroke-opacity="1.0" stroke-width="3"/>
    <path d="M67.8038 192.739C98.252 196.74 102.606 194.289 92.731 188.998" fill="none" stroke="rgb(0, 0, 0)" stroke-linecap="round" stroke-linejoin="round" stroke-opacity="1.0" stroke-width="3"/>
    <path d="M95.146 184.325C65.8029 187.279 45.4987 179.187 74.8112 200.469" fill="none" stroke="rgb(0, 0, 0)" stroke-linecap="round" stroke-linejoin="round" stroke-opacity="1.0" stroke-width="3"/>
    <path d="M66.9027 170.507C82.466 180.806 49.9252 173.86 73.6401 188.881" fill="none" stroke="rgb(0, 0, 0)" stroke-linecap="round" stroke-linejoin="round" stroke-opacity="1.0" stroke-width="3"/>
    <path d="M62.3357 196.913C71.4381 196.885 75.2466 202.711 69.4163 187.063" fill="none" stroke="rgb(0, 0, 0)" stroke-linecap="round" stroke-linejoin="round" stroke-opacity="1.0" stroke-width="3"/>
    <path d="M89.611 199.428C79.4073 196.501 80.1643 198.015 62.7227 194.279" fill="none" stroke="rgb(0, 0, 0)" stroke-linecap="round" stroke-linejoin="round" stroke-opacity="1.0" stroke-width="3"/>
    <path d="M65.3328 192.211C67.9693 178.88 56.1188 168.082 62.8799 195.901" fill="none" stroke="rgb(0, 0, 0)" stroke-linecap="round" stroke-linejoin="round" stroke-opacity="1.0" stroke-width="3"/>
    <path d="M69.4973 186.887C85.515 189.224 79.1196 153.793 75.623 182.669" fill="none" stroke="rgb(0, 0, 0)" stroke-linecap="round" stroke-linejoin="round" stroke-opacity="1.0" stroke-width="3"/>
    <path d="M87.5163 193.564C94.84 194.245 86.4564 202.177 87.1458 191.882" fill="none" stroke="rgb(0, 0, 0)" stroke-linecap="round" stroke-linejoin="round" stroke-opacity="1.0" stroke-width="3"/>
    <path d="M60.223 186.306C66.2709 157.721 67.0764 167.019 79.1788 174.765" fill="none" stroke="rgb(0, 0, 0)" stroke-linecap="round" stroke-linejoin="round" stroke-opacity="1.0" stroke-width="3"/>
    <path d="M72.3127 187.328C95.63 180.653 99.08 194.459 78.8527 193.495" fill="none" stroke="rgb(0, 0, 0)" stroke-linecap="round" stroke-linejoin="round" stroke-opacity="1.0" stroke-width="3"/>
    <path d="M70.6617 168.236C67.5127 190.862 59.6147 182.251 58 151.699" fill="none" stroke="rgb(0, 0, 0)" stroke-linecap="round" stroke-linejoin="round" stroke-opacity="1.0" stroke-width="3"/>
    <path d="M93.536 181.568C62.1687 170.136 90.753 162.584 74.3392 184.751" fill="none" stroke="rgb(0, 0, 0)" stroke-linecap="round" stroke-linejoin="round" stroke-opacity="1.0" stroke-width="3"/>
    <path d="M61.4277 165.151C68.2229 152.898 72.278 150.893 62.3973 153.975" fill="none" stroke="rgb(0, 0, 0)" stroke-linecap="round" stroke-linejoin="round" stroke-opacity="1.0" stroke-width="3"/>
    <path d="M60.9576 192.202C61.1981 204.271 102.486 203.502 64.8499 200.974" fill="none" stroke="rgb(0, 0, 0)" stroke-linecap="round" stroke-linejoin="round" stroke-opacity="1.0" stroke-width="3"/>
    <path d="M58.6451 169.657C57.0778 212.281 62.6388 201.428 59.1763 179.525" fill="none" stroke="rgb(0, 0, 0)" stroke-linecap="round" stroke-linejoin="round" stroke-opacity="1.0" stroke-width="3"/>
    <path d="M87.8635 188.331C87.5368 182.309 62.5924 186.23 66.6764 176.693" fill="none" stroke="rgb(0, 0, 0)" stroke-linecap="round" stroke-linejoin="round" stroke-opacity="1.0" stroke-width="3"/>
    <path d="M73.2392 192.493C67.496 200.382 82.0864 197.047 80.8806 195.218" fill="none" stroke="rgb(0, 0, 0)" stroke-linecap="round" stroke-linejoin="round" stroke-opacity="1.0" stroke-width="3"/>
    <path d="M60.352 162.413C59.5101 193.349 58.7272 175.926 67.1701 161.688" fill="none" stroke="rgb(0, 0, 0)" stroke-linecap="round" stroke-linejoin="round" stroke-opacity="1.0" stroke-width="3"/>
    <path d="M66.2436 170.974C60.6771 156.332 62.5566 148.144 63.305 161.313" fill="none" stroke="rgb(0, 0, 0)" stroke-linecap="round" stroke-linejoin="round" stroke-opacity="1.0" stroke-width="3"/>
    <path d="M63.4845 169.719C62.6892 155.79 67.476 161.509 58.7628 166.157" fill="none" stroke="rgb(0, 0, 0)" stroke-linecap="round" stroke-linejoin="round" stroke-opacity="1.0" stroke-width="3"/>
    <path d="M97.338 201.876C97.338 192.195 101.569 179.514 101.147 154.242" fill="none" stroke="rgb(0, 0, 0)" stroke-linecap="round" stroke-linejoin="round" stroke-opacity="1.0" stroke-width="3"/>
    <path d="M77.0056 183.48C92.216 194.093 93.432 190.358 95.545 199.874" fill="none" stroke="rgb(0, 0, 0)" stroke-linecap="round" stroke-linejoin="round" stroke-opacity="1.0" stroke-width="3"/>
    <path d="M59.5477 181.281C56.0675 196.25 90.561 187.899 95.031 175.886" fill="none" stroke="rgb(0, 0, 0)" stroke-linecap="round" stroke-linejoin="round" stroke-opacity="1.0" stroke-width="3"/>
    <path d="M68.8963 175.941C65.988 184.57 94.812 179.756 98.549 172.831" fill="none" stroke="rgb(0, 0, 0)" stroke-linecap="round" stroke-linejoin="round" stroke-opacity="1.0" stroke-width="3"/>
    <path d="M73.7043 173.156C78.7801 184.836 97.744 185.998 97.744 175.929" fill="none" stroke="rgb(0, 0, 0)" stroke-linecap="round" stroke-linejoin="round" stroke-opacity="1.0" stroke-width="3"/>
    <path d="M68.6906 172.831C73.7664 184.511 92.73 185.673 92.73 175.604" fill="none" stroke="rgb(0, 0, 0)" stroke-linecap="round" stroke-linejoin="round" stroke-opacity="1.0" stroke-width="3"/>
    <path d="M85.6604 202.023C104.655 185.74 97.897 176.327 77.2388 199.842" fill="none" stroke="rgb(0, 0, 0)" stroke-linecap="round" stroke-linejoin="round" stroke-opacity="1.0" stroke-width="3"/>
    <path d="M99.129 176.948C98.684 183.302 99.507 215.656 89.466 187.913" fill="none" stroke="rgb(0, 0, 0)" stroke-linecap="round" stroke-linejoin="round" stroke-opacity="1.0" stroke-width="3"/>
  </g>
</svg>
