<?xml version="1.0" ?>
<svg xmlns="http://www.w3.org/2000/svg" version="1.1" width="256" height="256">
  <defs/>
  <g>
    <path d="M 43.762901306152344 146.74099731445312 C 45.74980163574219 149.70399475097656 43.54880142211914 141.125 50.742401123046875 140.77699279785156" stroke-width="2.0" fill="none" stroke="rgb(0, 0, 0)" stroke-opacity="1" stroke-linecap="round" stroke-linejoin="round"/>
    <path d="M 54.25450134277344 148.35299682617188 C 48.4276008605957 149.5279998779297 46.41450119018555 146.44500732421875 42.59510040283203 151.2030029296875" stroke-width="2.0" fill="none" stroke="rgb(0, 0, 0)" stroke-opacity="1" stroke-linecap="round" stroke-linejoin="round"/>
    <path d="M 47.835899353027344 141.6439971923828 C 46.37670135498047 144.2169952392578 42.03450012207031 144.7220001220703 42.46540069580078 154.5800018310547" stroke-width="2.0" fill="none" stroke="rgb(0, 0, 0)" stroke-opacity="1" stroke-linecap="round" stroke-linejoin="round"/>
    <path d="M 52.888301849365234 133.28399658203125 C 47.759300231933594 140.60299682617188 45.71770095825195 145.27499389648438 46.884700775146484 144.9239959716797" stroke-width="2.0" fill="none" stroke="rgb(0, 0, 0)" stroke-opacity="1" stroke-linecap="round" stroke-linejoin="round"/>
    <path d="M 53.02479934692383 155.13699340820312 C 59.645999908447266 155.0959930419922 71.3384017944336 145.08599853515625 73.87999725341797 162.06100463867188" stroke-width="2.0" fill="none" stroke="rgb(0, 0, 0)" stroke-opacity="1" stroke-linecap="round" stroke-linejoin="round"/>
    <path d="M 90.0 129.21800231933594 C 68.00830078125 153.0760040283203 70.8947982788086 137.89300537109375 90.0 132.1999969482422" stroke-width="2.0" fill="none" stroke="rgb(0, 0, 0)" stroke-opacity="1" stroke-linecap="round" stroke-linejoin="round"/>
    <path d="M 88.90029907226562 128.13299560546875 C 66.90869903564453 151.99099731445312 69.79509735107422 136.8090057373047 88.90029907226562 131.11599731445312" stroke-width="2.0" fill="none" stroke="rgb(0, 0, 0)" stroke-opacity="1" stroke-linecap="round" stroke-linejoin="round"/>
    <path d="M 82.43370056152344 120.0 C 57.563899993896484 137.9080047607422 60.82809829711914 126.51200103759766 82.43370056152344 122.23799896240234" stroke-width="2.0" fill="none" stroke="rgb(0, 0, 0)" stroke-opacity="1" stroke-linecap="round" stroke-linejoin="round"/>
    <path d="M 83.67739868164062 120.81400299072266 C 58.80759811401367 138.7220001220703 62.071800231933594 127.32599639892578 83.67739868164062 123.052001953125" stroke-width="2.0" fill="none" stroke="rgb(0, 0, 0)" stroke-opacity="1" stroke-linecap="round" stroke-linejoin="round"/>
    <path d="M 74.61090087890625 176.19200134277344 C 71.06749725341797 178.5189971923828 74.04049682617188 167.03399658203125 71.86640167236328 176.2689971923828" stroke-width="2.0" fill="none" stroke="rgb(0, 0, 0)" stroke-opacity="1" stroke-linecap="round" stroke-linejoin="round"/>
    <path d="M 72.64420318603516 174.4510040283203 C 75.44039916992188 177.656005859375 87.26699829101562 179.59100341796875 74.966796875 173.72799682617188" stroke-width="2.0" fill="none" stroke="rgb(0, 0, 0)" stroke-opacity="1" stroke-linecap="round" stroke-linejoin="round"/>
    <path d="M 52.37229919433594 140.8800048828125 C 50.6244010925293 139.375 58.125301361083984 146.48699951171875 63.5452995300293 132.3489990234375" stroke-width="2.0" fill="none" stroke="rgb(0, 0, 0)" stroke-opacity="1" stroke-linecap="round" stroke-linejoin="round"/>
    <path d="M 42.83319854736328 165.20700073242188 C 27.637500762939453 170.28500366210938 41.747798919677734 166.93699645996094 21.0 180.34100341796875" stroke-width="2.0" fill="none" stroke="rgb(0, 0, 0)" stroke-opacity="1" stroke-linecap="round" stroke-linejoin="round"/>
    <path d="M 43.676300048828125 148.0469970703125 C 44.66469955444336 154.38299560546875 45.29119873046875 146.031005859375 46.257301330566406 144.41099548339844" stroke-width="2.0" fill="none" stroke="rgb(0, 0, 0)" stroke-opacity="1" stroke-linecap="round" stroke-linejoin="round"/>
    <path d="M 75.36170196533203 174.41000366210938 C 82.0302963256836 178.52099609375 82.51360321044922 175.91099548339844 72.7291030883789 175.60299682617188" stroke-width="2.0" fill="none" stroke="rgb(0, 0, 0)" stroke-opacity="1" stroke-linecap="round" stroke-linejoin="round"/>
    <path d="M 60.76350021362305 124.22000122070312 C 56.20130157470703 119.05500030517578 52.83789825439453 126.79100036621094 47.09859848022461 127.26000213623047" stroke-width="2.0" fill="none" stroke="rgb(0, 0, 0)" stroke-opacity="1" stroke-linecap="round" stroke-linejoin="round"/>
    <path d="M 60.18410110473633 124.14900207519531 C 76.28500366210938 115.49500274658203 55.42890167236328 126.32099914550781 53.45119857788086 126.60800170898438" stroke-width="2.0" fill="none" stroke="rgb(0, 0, 0)" stroke-opacity="1" stroke-linecap="round" stroke-linejoin="round"/>
    <path d="M 68.12339782714844 130.2429962158203 C 70.63130187988281 120.70099639892578 63.80569839477539 122.05799865722656 56.98550033569336 123.80500030517578" stroke-width="2.0" fill="none" stroke="rgb(0, 0, 0)" stroke-opacity="1" stroke-linecap="round" stroke-linejoin="round"/>
    <path d="M 75.88880157470703 174.60000610351562 C 64.34660339355469 162.03799438476562 79.79319763183594 158.93800354003906 61.72159957885742 156.947998046875" stroke-width="2.0" fill="none" stroke="rgb(0, 0, 0)" stroke-opacity="1" stroke-linecap="round" stroke-linejoin="round"/>
    <path d="M 41.75590133666992 161.6750030517578 C 31.49839973449707 169.30799865722656 45.41510009765625 162.7310028076172 52.79970169067383 155.1529998779297" stroke-width="2.0" fill="none" stroke="rgb(0, 0, 0)" stroke-opacity="1" stroke-linecap="round" stroke-linejoin="round"/>
    <path d="M 40.108699798583984 165.84100341796875 C 25.171199798583984 182.3719940185547 28.745100021362305 172.90699768066406 27.439899444580078 178.74400329589844" stroke-width="2.0" fill="none" stroke="rgb(0, 0, 0)" stroke-opacity="1" stroke-linecap="round" stroke-linejoin="round"/>
    <path d="M 72.09480285644531 178.06500244140625 C 81.41670227050781 177.48699951171875 77.20590209960938 179.78399658203125 83.67739868164062 178.21200561523438" stroke-width="2.0" fill="none" stroke="rgb(0, 0, 0)" stroke-opacity="1" stroke-linecap="round" stroke-linejoin="round"/>
    <path d="M 40.77830123901367 160.99000549316406 C 13.975099563598633 186.5760040283203 35.930599212646484 170.73399353027344 22.065200805664062 180.3419952392578" stroke-width="2.0" fill="none" stroke="rgb(0, 0, 0)" stroke-opacity="1" stroke-linecap="round" stroke-linejoin="round"/>
    <path d="M 45.6083984375 145.02099609375 C 53.817901611328125 140.36000061035156 56.18109893798828 146.76600646972656 62.17100143432617 140.25799560546875" stroke-width="2.0" fill="none" stroke="rgb(0, 0, 0)" stroke-opacity="1" stroke-linecap="round" stroke-linejoin="round"/>
    <path d="M 41.6255989074707 154.4929962158203 C 66.46240234375 149.76400756835938 58.8036994934082 147.60800170898438 37.39059829711914 169.90499877929688" stroke-width="2.0" fill="none" stroke="rgb(0, 0, 0)" stroke-opacity="1" stroke-linecap="round" stroke-linejoin="round"/>
    <path d="M 47.960899353027344 127.84500122070312 C 52.55659866333008 129.39100646972656 56.34360122680664 122.5719985961914 59.24549865722656 123.19499969482422" stroke-width="2.0" fill="none" stroke="rgb(0, 0, 0)" stroke-opacity="1" stroke-linecap="round" stroke-linejoin="round"/>
    <path d="M 59.21179962158203 157.0229949951172 C 65.18399810791016 156.13999938964844 61.18470001220703 159.8939971923828 53.36240005493164 154.6179962158203" stroke-width="2.0" fill="none" stroke="rgb(0, 0, 0)" stroke-opacity="1" stroke-linecap="round" stroke-linejoin="round"/>
    <path d="M 60.9375 121.56999969482422 C 69.0436019897461 119.09600067138672 69.54530334472656 125.2760009765625 60.0088996887207 125.26599884033203" stroke-width="2.0" fill="none" stroke="rgb(0, 0, 0)" stroke-opacity="1" stroke-linecap="round" stroke-linejoin="round"/>
    <path d="M 21.14889907836914 179.7220001220703 C 24.72610092163086 184.18299865722656 27.704599380493164 175.656005859375 30.76449966430664 174.11700439453125" stroke-width="2.0" fill="none" stroke="rgb(0, 0, 0)" stroke-opacity="1" stroke-linecap="round" stroke-linejoin="round"/>
    <path d="M 44.09519958496094 148.0970001220703 C 40.575599670410156 146.20599365234375 48.294898986816406 147.9239959716797 57.4182014465332 145.16400146484375" stroke-width="2.0" fill="none" stroke="rgb(0, 0, 0)" stroke-opacity="1" stroke-linecap="round" stroke-linejoin="round"/>
    <path d="M 59.460601806640625 141.33999633789062 C 69.99870300292969 136.70799255371094 60.081600189208984 131.1719970703125 75.7842025756836 142.2740020751953" stroke-width="2.0" fill="none" stroke="rgb(0, 0, 0)" stroke-opacity="1" stroke-linecap="round" stroke-linejoin="round"/>
    <path d="M 40.036800384521484 160.468994140625 C 37.549400329589844 171.39599609375 39.772701263427734 148.74000549316406 50.11090087890625 149.86199951171875" stroke-width="2.0" fill="none" stroke="rgb(0, 0, 0)" stroke-opacity="1" stroke-linecap="round" stroke-linejoin="round"/>
    <path d="M 42.689300537109375 151.01300048828125 C 45.49300003051758 146.85800170898438 42.382999420166016 143.05099487304688 52.554500579833984 140.9669952392578" stroke-width="2.0" fill="none" stroke="rgb(0, 0, 0)" stroke-opacity="1" stroke-linecap="round" stroke-linejoin="round"/>
    <path d="M 68.11139678955078 123.7030029296875 C 52.252601623535156 124.58599853515625 55.74480056762695 127.58999633789062 49.67620086669922 129.677001953125" stroke-width="2.0" fill="none" stroke="rgb(0, 0, 0)" stroke-opacity="1" stroke-linecap="round" stroke-linejoin="round"/>
    <path d="M 50.950199127197266 153.3730010986328 C 65.9406967163086 145.18800354003906 61.03950119018555 144.2530059814453 42.50559997558594 152.03500366210938" stroke-width="2.0" fill="none" stroke="rgb(0, 0, 0)" stroke-opacity="1" stroke-linecap="round" stroke-linejoin="round"/>
    <path d="M 58.54610061645508 146.26100158691406 C 52.42470169067383 151.58299255371094 45.296199798583984 148.95899963378906 54.74610137939453 148.2270050048828" stroke-width="2.0" fill="none" stroke="rgb(0, 0, 0)" stroke-opacity="1" stroke-linecap="round" stroke-linejoin="round"/>
    <path d="M 72.43419647216797 176.66200256347656 C 80.47129821777344 176.55299377441406 76.53579711914062 180.61700439453125 71.89289855957031 157.28500366210938" stroke-width="2.0" fill="none" stroke="rgb(0, 0, 0)" stroke-opacity="1" stroke-linecap="round" stroke-linejoin="round"/>
    <path d="M 54.457401275634766 155.08900451660156 C 42.77870178222656 161.13600158691406 36.42110061645508 163.0 45.082698822021484 148.1750030517578" stroke-width="2.0" fill="none" stroke="rgb(0, 0, 0)" stroke-opacity="1" stroke-linecap="round" stroke-linejoin="round"/>
    <path d="M 64.48190307617188 128.8260040283203 C 72.90270233154297 138.32699584960938 81.20240020751953 140.93299865722656 65.435302734375 135.86700439453125" stroke-width="2.0" fill="none" stroke="rgb(0, 0, 0)" stroke-opacity="1" stroke-linecap="round" stroke-linejoin="round"/>
    <path d="M 60.794700622558594 148.24000549316406 C 56.46440124511719 151.5570068359375 52.8568000793457 153.84500122070312 40.141300201416016 167.656005859375" stroke-width="2.0" fill="none" stroke="rgb(0, 0, 0)" stroke-opacity="1" stroke-linecap="round" stroke-linejoin="round"/>
    <path d="M 65.10379791259766 120.00299835205078 C 54.47480010986328 119.85399627685547 61.243900299072266 125.94200134277344 64.59020233154297 120.802001953125" stroke-width="2.0" fill="none" stroke="rgb(0, 0, 0)" stroke-opacity="1" stroke-linecap="round" stroke-linejoin="round"/>
    <path d="M 56.729400634765625 156.2310028076172 C 67.39540100097656 154.86599731445312 64.74030303955078 153.3730010986328 71.9801025390625 155.63400268554688" stroke-width="2.0" fill="none" stroke="rgb(0, 0, 0)" stroke-opacity="1" stroke-linecap="round" stroke-linejoin="round"/>
    <path d="M 68.00399780273438 152.7530059814453 C 58.667999267578125 145.8459930419922 58.04399871826172 156.08799743652344 41.194801330566406 156.34100341796875" stroke-width="2.0" fill="none" stroke="rgb(0, 0, 0)" stroke-opacity="1" stroke-linecap="round" stroke-linejoin="round"/>
    <path d="M 59.17300033569336 122.81800079345703 C 68.65840148925781 132.66000366210938 56.7067985534668 127.14900207519531 52.64139938354492 137.7429962158203" stroke-width="2.0" fill="none" stroke="rgb(0, 0, 0)" stroke-opacity="1" stroke-linecap="round" stroke-linejoin="round"/>
    <path d="M 65.33489990234375 128.64199829101562 C 72.8134994506836 141.5189971923828 72.29949951171875 127.29900360107422 54.79330062866211 131.43499755859375" stroke-width="2.0" fill="none" stroke="rgb(0, 0, 0)" stroke-opacity="1" stroke-linecap="round" stroke-linejoin="round"/>
    <path d="M 74.96749877929688 140.17799377441406 C 71.22380065917969 127.43800354003906 60.314998626708984 137.40899658203125 67.4030990600586 136.93499755859375" stroke-width="2.0" fill="none" stroke="rgb(0, 0, 0)" stroke-opacity="1" stroke-linecap="round" stroke-linejoin="round"/>
    <path d="M 57.14899826049805 129.75999450683594 C 40.375 139.55499267578125 43.807701110839844 145.13600158691406 57.83660125732422 130.5030059814453" stroke-width="2.0" fill="none" stroke="rgb(0, 0, 0)" stroke-opacity="1" stroke-linecap="round" stroke-linejoin="round"/>
    <path d="M 58.22629928588867 143.88699340820312 C 54.931400299072266 146.75900268554688 50.15290069580078 144.8000030517578 45.26919937133789 146.22900390625" stroke-width="2.0" fill="none" stroke="rgb(0, 0, 0)" stroke-opacity="1" stroke-linecap="round" stroke-linejoin="round"/>
    <path d="M 77.9636001586914 142.343994140625 C 71.9457015991211 131.6219940185547 63.562599182128906 136.5540008544922 64.19950103759766 137.1540069580078" stroke-width="2.0" fill="none" stroke="rgb(0, 0, 0)" stroke-opacity="1" stroke-linecap="round" stroke-linejoin="round"/>
    <path d="M 26.404499053955078 177.05099487304688 C 24.58530044555664 188.21400451660156 31.876399993896484 170.23199462890625 26.266799926757812 180.11199951171875" stroke-width="2.0" fill="none" stroke="rgb(0, 0, 0)" stroke-opacity="1" stroke-linecap="round" stroke-linejoin="round"/>
    <path d="M 68.45279693603516 125.27999877929688 C 57.45949935913086 127.93599700927734 61.42020034790039 138.1529998779297 48.0177001953125 138.5330047607422" stroke-width="2.0" fill="none" stroke="rgb(0, 0, 0)" stroke-opacity="1" stroke-linecap="round" stroke-linejoin="round"/>
    <path d="M 59.40420150756836 122.56600189208984 C 61.770198822021484 133.24600219726562 54.869300842285156 125.5469970703125 70.1489028930664 126.66300201416016" stroke-width="2.0" fill="none" stroke="rgb(0, 0, 0)" stroke-opacity="1" stroke-linecap="round" stroke-linejoin="round"/>
    <path d="M 62.07500076293945 148.36700439453125 C 56.18339920043945 145.29200744628906 60.372398376464844 150.76400756835938 58.00230026245117 144.07899475097656" stroke-width="2.0" fill="none" stroke="rgb(0, 0, 0)" stroke-opacity="1" stroke-linecap="round" stroke-linejoin="round"/>
    <path d="M 63.5447998046875 127.26599884033203 C 44.690799713134766 133.35899353027344 46.06489944458008 146.67799377441406 62.74620056152344 133.53199768066406" stroke-width="2.0" fill="none" stroke="rgb(0, 0, 0)" stroke-opacity="1" stroke-linecap="round" stroke-linejoin="round"/>
    <path d="M 44.912200927734375 146.7010040283203 C 44.699100494384766 149.03900146484375 45.17509841918945 137.4969940185547 51.58039855957031 140.61099243164062" stroke-width="2.0" fill="none" stroke="rgb(0, 0, 0)" stroke-opacity="1" stroke-linecap="round" stroke-linejoin="round"/>
    <path d="M 60.528099060058594 133.56100463867188 C 72.74710083007812 125.06700134277344 67.18720245361328 128.65699768066406 57.94300079345703 144.83900451660156" stroke-width="2.0" fill="none" stroke="rgb(0, 0, 0)" stroke-opacity="1" stroke-linecap="round" stroke-linejoin="round"/>
    <path d="M 58.18349838256836 122.36199951171875 C 54.811798095703125 121.2699966430664 51.71889877319336 128.85800170898438 46.29010009765625 127.4540023803711" stroke-width="2.0" fill="none" stroke="rgb(0, 0, 0)" stroke-opacity="1" stroke-linecap="round" stroke-linejoin="round"/>
    <path d="M 58.28300094604492 122.54299926757812 C 59.684898376464844 123.33000183105469 59.666099548339844 123.0999984741211 58.25279998779297 122.37799835205078" stroke-width="2.0" fill="none" stroke="rgb(0, 0, 0)" stroke-opacity="1" stroke-linecap="round" stroke-linejoin="round"/>
    <path d="M 46.291500091552734 143.5260009765625 C 43.63949966430664 153.64500427246094 45.77220153808594 146.5189971923828 45.85530090332031 145.57899475097656" stroke-width="2.0" fill="none" stroke="rgb(0, 0, 0)" stroke-opacity="1" stroke-linecap="round" stroke-linejoin="round"/>
    <path d="M 60.94139862060547 124.0770034790039 C 76.47329711914062 130.0240020751953 61.358699798583984 122.44999694824219 63.641998291015625 137.66099548339844" stroke-width="2.0" fill="none" stroke="rgb(0, 0, 0)" stroke-opacity="1" stroke-linecap="round" stroke-linejoin="round"/>
    <path d="M 179.80799865722656 138.51600646972656 C 206.8509979248047 148.11300659179688 211.71299743652344 138.21600341796875 187.5500030517578 139.24600219726562" stroke-width="2.0" fill="none" stroke="rgb(0, 0, 0)" stroke-opacity="1" stroke-linecap="round" stroke-linejoin="round"/>
    <path d="M 203.54200744628906 152.46499633789062 C 217.28599548339844 168.19200134277344 222.7969970703125 165.41099548339844 211.1929931640625 148.90899658203125" stroke-width="2.0" fill="none" stroke="rgb(0, 0, 0)" stroke-opacity="1" stroke-linecap="round" stroke-linejoin="round"/>
    <path d="M 207.60000610351562 148.49400329589844 C 187.99200439453125 142.125 196.6199951171875 138.97500610351562 203.55499267578125 149.14599609375" stroke-width="2.0" fill="none" stroke="rgb(0, 0, 0)" stroke-opacity="1" stroke-linecap="round" stroke-linejoin="round"/>
    <path d="M 194.92300415039062 133.14100646972656 C 215.8560028076172 121.74500274658203 204.9219970703125 133.13299560546875 194.14100646972656 138.8040008544922" stroke-width="2.0" fill="none" stroke="rgb(0, 0, 0)" stroke-opacity="1" stroke-linecap="round" stroke-linejoin="round"/>
    <path d="M 142.6439971923828 132.79200744628906 C 149.26100158691406 133.4239959716797 149.61199951171875 135.2169952392578 150.04800415039062 128.50599670410156" stroke-width="2.0" fill="none" stroke="rgb(0, 0, 0)" stroke-opacity="1" stroke-linecap="round" stroke-linejoin="round"/>
    <path d="M 214.35299682617188 158.86900329589844 C 212.60499572753906 144.45700073242188 209.2449951171875 148.031005859375 210.6540069580078 148.26600646972656" stroke-width="2.0" fill="none" stroke="rgb(0, 0, 0)" stroke-opacity="1" stroke-linecap="round" stroke-linejoin="round"/>
    <path d="M 167.32000732421875 130.19000244140625 C 171.6479949951172 139.1009979248047 157.55299377441406 137.11500549316406 167.56900024414062 133.03900146484375" stroke-width="2.0" fill="none" stroke="rgb(0, 0, 0)" stroke-opacity="1" stroke-linecap="round" stroke-linejoin="round"/>
    <path d="M 216.63299560546875 166.0749969482422 C 219.96600341796875 159.2259979248047 213.6580047607422 163.8179931640625 232.3070068359375 167.66299438476562" stroke-width="2.0" fill="none" stroke="rgb(0, 0, 0)" stroke-opacity="1" stroke-linecap="round" stroke-linejoin="round"/>
    <path d="M 221.00799560546875 166.0970001220703 C 230.25100708007812 172.99899291992188 230.99899291992188 163.7989959716797 240.00100708007812 171.97999572753906" stroke-width="2.0" fill="none" stroke="rgb(0, 0, 0)" stroke-opacity="1" stroke-linecap="round" stroke-linejoin="round"/>
    <path d="M 143.88099670410156 132.09800720214844 C 152.31100463867188 135.4029998779297 159.11500549316406 130.60800170898438 142.39100646972656 130.39500427246094" stroke-width="2.0" fill="none" stroke="rgb(0, 0, 0)" stroke-opacity="1" stroke-linecap="round" stroke-linejoin="round"/>
    <path d="M 215.49099731445312 147.20700073242188 C 233.88600158691406 168.19200134277344 222.86300659179688 149.88600158691406 244.8350067138672 167.95199584960938" stroke-width="2.0" fill="none" stroke="rgb(0, 0, 0)" stroke-opacity="1" stroke-linecap="round" stroke-linejoin="round"/>
    <path d="M 193.87100219726562 135.64199829101562 C 198.52200317382812 128.81100463867188 192.1649932861328 131.11500549316406 210.86599731445312 121.79399871826172" stroke-width="2.0" fill="none" stroke="rgb(0, 0, 0)" stroke-opacity="1" stroke-linecap="round" stroke-linejoin="round"/>
    <path d="M 191.10299682617188 132.9709930419922 C 184.47500610351562 144.7689971923828 213.98899841308594 128.4080047607422 193.22500610351562 137.4720001220703" stroke-width="2.0" fill="none" stroke="rgb(0, 0, 0)" stroke-opacity="1" stroke-linecap="round" stroke-linejoin="round"/>
    <path d="M 221.14300537109375 162.33599853515625 C 232.08799743652344 172.5919952392578 234.56700134277344 162.48800659179688 241.43699645996094 174.28199768066406" stroke-width="2.0" fill="none" stroke="rgb(0, 0, 0)" stroke-opacity="1" stroke-linecap="round" stroke-linejoin="round"/>
    <path d="M 218.27200317382812 121.76300048828125 C 230.9080047607422 122.35700225830078 216.48699951171875 117.63300323486328 221.65199279785156 126.2699966430664" stroke-width="2.0" fill="none" stroke="rgb(0, 0, 0)" stroke-opacity="1" stroke-linecap="round" stroke-linejoin="round"/>
    <path d="M 137.0 128.6540069580078 C 145.3990020751953 127.84600067138672 152.54600524902344 131.06500244140625 147.48899841308594 131.48300170898438" stroke-width="2.0" fill="none" stroke="rgb(0, 0, 0)" stroke-opacity="1" stroke-linecap="round" stroke-linejoin="round"/>
    <path d="M 208.21499633789062 123.87000274658203 C 214.62399291992188 120.71700286865234 219.19200134277344 120.36199951171875 223.0989990234375 124.1969985961914" stroke-width="2.0" fill="none" stroke="rgb(0, 0, 0)" stroke-opacity="1" stroke-linecap="round" stroke-linejoin="round"/>
    <path d="M 224.9239959716797 160.83799743652344 C 223.34500122070312 153.99600219726562 218.67100524902344 166.4770050048828 225.6479949951172 169.0800018310547" stroke-width="2.0" fill="none" stroke="rgb(0, 0, 0)" stroke-opacity="1" stroke-linecap="round" stroke-linejoin="round"/>
    <path d="M 208.45599365234375 158.61399841308594 C 206.9949951171875 154.8560028076172 205.5749969482422 157.38400268554688 215.0850067138672 164.8509979248047" stroke-width="2.0" fill="none" stroke="rgb(0, 0, 0)" stroke-opacity="1" stroke-linecap="round" stroke-linejoin="round"/>
    <path d="M 225.39100646972656 161.58399963378906 C 237.90199279785156 161.19200134277344 226.33700561523438 165.5 243.76199340820312 163.65199279785156" stroke-width="2.0" fill="none" stroke="rgb(0, 0, 0)" stroke-opacity="1" stroke-linecap="round" stroke-linejoin="round"/>
    <path d="M 243.88699340820312 176.0 C 238.4340057373047 160.6179962158203 250.26199340820312 168.4239959716797 235.10699462890625 163.08399963378906" stroke-width="2.0" fill="none" stroke="rgb(0, 0, 0)" stroke-opacity="1" stroke-linecap="round" stroke-linejoin="round"/>
    <path d="M 222.76400756835938 162.1750030517578 C 217.01199340820312 163.18699645996094 229.06500244140625 157.2689971923828 220.9929962158203 162.59100341796875" stroke-width="2.0" fill="none" stroke="rgb(0, 0, 0)" stroke-opacity="1" stroke-linecap="round" stroke-linejoin="round"/>
    <path d="M 189.03900146484375 137.1580047607422 C 166.7530059814453 135.91600036621094 161.6790008544922 130.01400756835938 176.61700439453125 136.94900512695312" stroke-width="2.0" fill="none" stroke="rgb(0, 0, 0)" stroke-opacity="1" stroke-linecap="round" stroke-linejoin="round"/>
    <path d="M 222.95899963378906 158.35000610351562 C 212.17799377441406 157.7220001220703 210.55299377441406 151.64199829101562 220.15499877929688 158.82200622558594" stroke-width="2.0" fill="none" stroke="rgb(0, 0, 0)" stroke-opacity="1" stroke-linecap="round" stroke-linejoin="round"/>
    <path d="M 148.91600036621094 134.0050048828125 C 138.3280029296875 126.12300109863281 140.93099975585938 131.37899780273438 151.76100158691406 132.31399536132812" stroke-width="2.0" fill="none" stroke="rgb(0, 0, 0)" stroke-opacity="1" stroke-linecap="round" stroke-linejoin="round"/>
    <path d="M 194.6699981689453 143.74899291992188 C 203.5679931640625 150.08599853515625 206.3939971923828 144.48199462890625 209.375 154.08999633789062" stroke-width="2.0" fill="none" stroke="rgb(0, 0, 0)" stroke-opacity="1" stroke-linecap="round" stroke-linejoin="round"/>
    <path d="M 194.0030059814453 130.29400634765625 C 204.73800659179688 121.97899627685547 185.6540069580078 117.447998046875 191.8699951171875 132.48899841308594" stroke-width="2.0" fill="none" stroke="rgb(0, 0, 0)" stroke-opacity="1" stroke-linecap="round" stroke-linejoin="round"/>
    <path d="M 231.19200134277344 167.86500549316406 C 241.7100067138672 162.52000427246094 253.60299682617188 177.2729949951172 237.3679962158203 165.5019989013672" stroke-width="2.0" fill="none" stroke="rgb(0, 0, 0)" stroke-opacity="1" stroke-linecap="round" stroke-linejoin="round"/>
    <path d="M 160.2100067138672 136.83900451660156 C 162.9980010986328 134.64599609375 173.43299865722656 131.86000061035156 161.0449981689453 138.34500122070312" stroke-width="2.0" fill="none" stroke="rgb(0, 0, 0)" stroke-opacity="1" stroke-linecap="round" stroke-linejoin="round"/>
    <path d="M 147.6490020751953 132.63400268554688 C 155.98399353027344 132.875 140.70899963378906 133.8280029296875 138.7689971923828 130.17599487304688" stroke-width="2.0" fill="none" stroke="rgb(0, 0, 0)" stroke-opacity="1" stroke-linecap="round" stroke-linejoin="round"/>
    <path d="M 140.68499755859375 132.06900024414062 C 154.48699951171875 136.7010040283203 158.86900329589844 131.6230010986328 147.74099731445312 129.33099365234375" stroke-width="2.0" fill="none" stroke="rgb(0, 0, 0)" stroke-opacity="1" stroke-linecap="round" stroke-linejoin="round"/>
    <path d="M 218.69500732421875 161.92599487304688 C 204.50900268554688 161.17599487304688 206.1490020751953 152.0540008544922 199.61399841308594 150.7779998779297" stroke-width="2.0" fill="none" stroke="rgb(0, 0, 0)" stroke-opacity="1" stroke-linecap="round" stroke-linejoin="round"/>
    <path d="M 163.13699340820312 134.67999267578125 C 169.14500427246094 135.88699340820312 166.65499877929688 142.25900268554688 191.1699981689453 135.50799560546875" stroke-width="2.0" fill="none" stroke="rgb(0, 0, 0)" stroke-opacity="1" stroke-linecap="round" stroke-linejoin="round"/>
    <path d="M 197.39700317382812 139.4199981689453 C 206.302001953125 132.89500427246094 203.68099975585938 129.15899658203125 194.72900390625 137.1479949951172" stroke-width="2.0" fill="none" stroke="rgb(0, 0, 0)" stroke-opacity="1" stroke-linecap="round" stroke-linejoin="round"/>
    <path d="M 219.28799438476562 121.43800354003906 C 222.9759979248047 127.11399841308594 213.71499633789062 116.13400268554688 207.46099853515625 124.0979995727539" stroke-width="2.0" fill="none" stroke="rgb(0, 0, 0)" stroke-opacity="1" stroke-linecap="round" stroke-linejoin="round"/>
    <path d="M 203.38900756835938 134.3679962158203 C 211.76300048828125 152.3000030517578 210.73800659179688 143.86199951171875 213.2469940185547 156.30299377441406" stroke-width="2.0" fill="none" stroke="rgb(0, 0, 0)" stroke-opacity="1" stroke-linecap="round" stroke-linejoin="round"/>
    <path d="M 184.322998046875 139.6060028076172 C 196.0279998779297 142.58399963378906 191.35400390625 144.3769989013672 200.16700744628906 146.93499755859375" stroke-width="2.0" fill="none" stroke="rgb(0, 0, 0)" stroke-opacity="1" stroke-linecap="round" stroke-linejoin="round"/>
    <path d="M 207.9759979248047 144.5540008544922 C 200.74000549316406 137.61700439453125 200.10400390625 134.55799865722656 205.95899963378906 141.60499572753906" stroke-width="2.0" fill="none" stroke="rgb(0, 0, 0)" stroke-opacity="1" stroke-linecap="round" stroke-linejoin="round"/>
    <path d="M 238.1280059814453 170.42599487304688 C 218.7169952392578 164.6909942626953 210.51400756835938 164.0030059814453 230.19400024414062 168.91000366210938" stroke-width="2.0" fill="none" stroke="rgb(0, 0, 0)" stroke-opacity="1" stroke-linecap="round" stroke-linejoin="round"/>
    <path d="M 217.5570068359375 159.41400146484375 C 208.9040069580078 160.3159942626953 210.60299682617188 151.3179931640625 202.43499755859375 148.31500244140625" stroke-width="2.0" fill="none" stroke="rgb(0, 0, 0)" stroke-opacity="1" stroke-linecap="round" stroke-linejoin="round"/>
    <path d="M 141.94200134277344 130.7729949951172 C 150.4980010986328 129.218994140625 142.20899963378906 127.37799835205078 139.6060028076172 126.03500366210938" stroke-width="2.0" fill="none" stroke="rgb(0, 0, 0)" stroke-opacity="1" stroke-linecap="round" stroke-linejoin="round"/>
    <path d="M 139.23599243164062 125.36900329589844 C 156.76199340820312 126.06400299072266 158.6580047607422 136.04200744628906 148.0399932861328 132.57400512695312" stroke-width="2.0" fill="none" stroke="rgb(0, 0, 0)" stroke-opacity="1" stroke-linecap="round" stroke-linejoin="round"/>
    <path d="M 211.4290008544922 145.9199981689453 C 218.84800720214844 148.6699981689453 214.15899658203125 154.03799438476562 222.6820068359375 155.6479949951172" stroke-width="2.0" fill="none" stroke="rgb(0, 0, 0)" stroke-opacity="1" stroke-linecap="round" stroke-linejoin="round"/>
    <path d="M 205.6699981689453 128.96299743652344 C 214.34800720214844 116.65499877929688 225.55999755859375 127.20999908447266 216.42300415039062 122.58999633789062" stroke-width="2.0" fill="none" stroke="rgb(0, 0, 0)" stroke-opacity="1" stroke-linecap="round" stroke-linejoin="round"/>
    <path d="M 209.9929962158203 156.23899841308594 C 212.30499267578125 144.21800231933594 197.88099670410156 147.70899963378906 201.19500732421875 146.6320037841797" stroke-width="2.0" fill="none" stroke="rgb(0, 0, 0)" stroke-opacity="1" stroke-linecap="round" stroke-linejoin="round"/>
    <path d="M 204.6269989013672 148.3090057373047 C 210.88499450683594 155.01800537109375 209.04400634765625 147.59100341796875 200.58399963378906 149.0959930419922" stroke-width="2.0" fill="none" stroke="rgb(0, 0, 0)" stroke-opacity="1" stroke-linecap="round" stroke-linejoin="round"/>
    <path d="M 150.01100158691406 127.9219970703125 C 137.60499572753906 122.9020004272461 135.23300170898438 128.2550048828125 139.7899932861328 126.927001953125" stroke-width="2.0" fill="none" stroke="rgb(0, 0, 0)" stroke-opacity="1" stroke-linecap="round" stroke-linejoin="round"/>
    <path d="M 150.72900390625 132.5659942626953 C 148.61199951171875 131.57200622558594 157.0019989013672 131.59500122070312 148.48399353027344 132.95700073242188" stroke-width="2.0" fill="none" stroke="rgb(0, 0, 0)" stroke-opacity="1" stroke-linecap="round" stroke-linejoin="round"/>
    <path d="M 140.63800048828125 128.15699768066406 C 140.35499572753906 133.33999633789062 149.37100219726562 132.2790069580078 142.8459930419922 126.4280014038086" stroke-width="2.0" fill="none" stroke="rgb(0, 0, 0)" stroke-opacity="1" stroke-linecap="round" stroke-linejoin="round"/>
    <path d="M 204.72999572753906 144.0970001220703 C 193.01800537109375 132.54299926757812 195.0030059814453 139.6699981689453 208.9320068359375 146.94200134277344" stroke-width="2.0" fill="none" stroke="rgb(0, 0, 0)" stroke-opacity="1" stroke-linecap="round" stroke-linejoin="round"/>
    <path d="M 175.37399291992188 139.0489959716797 C 161.42300415039062 131.46299743652344 167.32400512695312 132.1580047607422 165.58599853515625 136.8800048828125" stroke-width="2.0" fill="none" stroke="rgb(0, 0, 0)" stroke-opacity="1" stroke-linecap="round" stroke-linejoin="round"/>
    <path d="M 244.3070068359375 164.468994140625 C 245.49200439453125 174.50799560546875 247.71099853515625 170.7779998779297 246.7760009765625 175.5449981689453" stroke-width="2.0" fill="none" stroke="rgb(0, 0, 0)" stroke-opacity="1" stroke-linecap="round" stroke-linejoin="round"/>
    <path d="M 143.38299560546875 129.52499389648438 C 149.02099609375 127.43099975585938 136.1219940185547 125.63899993896484 141.427001953125 130.4759979248047" stroke-width="2.0" fill="none" stroke="rgb(0, 0, 0)" stroke-opacity="1" stroke-linecap="round" stroke-linejoin="round"/>
    <path d="M 149.2259979248047 127.08899688720703 C 138.01699829101562 126.0790023803711 138.5279998779297 132.13499450683594 150.58299255371094 133.05599975585938" stroke-width="2.0" fill="none" stroke="rgb(0, 0, 0)" stroke-opacity="1" stroke-linecap="round" stroke-linejoin="round"/>
    <path d="M 139.44500732421875 127.59600067138672 C 164.7729949951172 129.0050048828125 153.69400024414062 139.01400756835938 139.3000030517578 130.18099975585938" stroke-width="2.0" fill="none" stroke="rgb(0, 0, 0)" stroke-opacity="1" stroke-linecap="round" stroke-linejoin="round"/>
    <path d="M 208.8470001220703 150.64500427246094 C 189.5229949951172 145.3990020751953 200.51300048828125 141.88099670410156 208.08599853515625 149.34300231933594" stroke-width="2.0" fill="none" stroke="rgb(0, 0, 0)" stroke-opacity="1" stroke-linecap="round" stroke-linejoin="round"/>
    <path d="M 142.85499572753906 126.99800109863281 C 134.34100341796875 129.88400268554688 156.24899291992188 130.28900146484375 148.30099487304688 129.26199340820312" stroke-width="2.0" fill="none" stroke="rgb(0, 0, 0)" stroke-opacity="1" stroke-linecap="round" stroke-linejoin="round"/>
    <path d="M 160.23199462890625 134.6020050048828 C 161.9810028076172 132.51800537109375 174.8560028076172 138.20399475097656 162.7989959716797 137.2729949951172" stroke-width="2.0" fill="none" stroke="rgb(0, 0, 0)" stroke-opacity="1" stroke-linecap="round" stroke-linejoin="round"/>
    <path d="M 140.10499572753906 127.72799682617188 C 151.10800170898438 126.2699966430664 150.1929931640625 131.24899291992188 148.20399475097656 132.89199829101562" stroke-width="2.0" fill="none" stroke="rgb(0, 0, 0)" stroke-opacity="1" stroke-linecap="round" stroke-linejoin="round"/>
    <path d="M 151.91000366210938 129.30499267578125 C 137.88600158691406 136.5240020751953 133.927001953125 125.78900146484375 142.12899780273438 131.947998046875" stroke-width="2.0" fill="none" stroke="rgb(0, 0, 0)" stroke-opacity="1" stroke-linecap="round" stroke-linejoin="round"/>
    <path d="M 202.2740020751953 127.71900177001953 C 211.3459930419922 125.53099822998047 198.33900451660156 126.63099670410156 214.09100341796875 124.30500030517578" stroke-width="2.0" fill="none" stroke="rgb(0, 0, 0)" stroke-opacity="1" stroke-linecap="round" stroke-linejoin="round"/>
    <path d="M 197.91900634765625 150.0330047607422 C 193.92100524902344 145.37600708007812 195.3719940185547 139.9770050048828 186.85000610351562 140.35400390625" stroke-width="2.0" fill="none" stroke="rgb(0, 0, 0)" stroke-opacity="1" stroke-linecap="round" stroke-linejoin="round"/>
    <path d="M 138.7729949951172 131.21299743652344 C 137.02000427246094 126.0 141.64999389648438 124.51300048828125 149.96099853515625 128.7899932861328" stroke-width="2.0" fill="none" stroke="rgb(0, 0, 0)" stroke-opacity="1" stroke-linecap="round" stroke-linejoin="round"/>
  </g>
</svg>
