<?xml version="1.0" ?>
<svg xmlns="http://www.w3.org/2000/svg" version="1.1" width="256" height="256">
  <defs/>
  <g>
    <path d="M 87.79319763183594 139.6999969482422 C 54.407501220703125 133.9550018310547 93.86940002441406 143.73599243164062 77.8416976928711 159.781005859375" stroke-width="1.0" fill="none" stroke="rgb(0, 0, 0)" stroke-opacity="1" stroke-linecap="round" stroke-linejoin="round"/>
    <path d="M 95.19110107421875 170.76400756835938 C 68.5510025024414 144.6219940185547 58.536800384521484 153.43600463867188 100.66100311279297 167.1750030517578" stroke-width="1.0" fill="none" stroke="rgb(0, 0, 0)" stroke-opacity="1" stroke-linecap="round" stroke-linejoin="round"/>
    <path d="M 98.72530364990234 170.77699279785156 C 70.59040069580078 152.45700073242188 61.91450119018555 161.74099731445312 86.66580200195312 160.3000030517578" stroke-width="1.0" fill="none" stroke="rgb(0, 0, 0)" stroke-opacity="1" stroke-linecap="round" stroke-linejoin="round"/>
    <path d="M 43.75849914550781 146.93499755859375 C 54.530399322509766 134.31100463867188 67.7239990234375 141.16900634765625 40.513301849365234 140.62100219726562" stroke-width="1.0" fill="none" stroke="rgb(0, 0, 0)" stroke-opacity="1" stroke-linecap="round" stroke-linejoin="round"/>
    <path d="M 69.63289642333984 142.88900756835938 C 73.71510314941406 129.61300659179688 89.16449737548828 128.71200561523438 64.96980285644531 127.28199768066406" stroke-width="1.0" fill="none" stroke="rgb(0, 0, 0)" stroke-opacity="1" stroke-linecap="round" stroke-linejoin="round"/>
    <path d="M 73.82389831542969 159.9320068359375 C 71.99310302734375 147.06100463867188 79.52069854736328 154.36000061035156 81.9365005493164 131.80599975585938" stroke-width="1.0" fill="none" stroke="rgb(0, 0, 0)" stroke-opacity="1" stroke-linecap="round" stroke-linejoin="round"/>
    <path d="M 41.6879997253418 142.52099609375 C 106.54399871826172 142.6320037841797 78.310302734375 153.01499938964844 62.32780075073242 127.36799621582031" stroke-width="1.0" fill="none" stroke="rgb(0, 0, 0)" stroke-opacity="1" stroke-linecap="round" stroke-linejoin="round"/>
    <path d="M 89.23470306396484 175.66400146484375 C 97.35140228271484 174.8300018310547 97.08390045166016 174.16400146484375 43.7333984375 173.50999450683594" stroke-width="1.0" fill="none" stroke="rgb(0, 0, 0)" stroke-opacity="1" stroke-linecap="round" stroke-linejoin="round"/>
    <path d="M 83.54080200195312 131.7480010986328 C 83.37370300292969 146.83799743652344 66.24430084228516 135.32200622558594 81.35269927978516 154.25999450683594" stroke-width="1.0" fill="none" stroke="rgb(0, 0, 0)" stroke-opacity="1" stroke-linecap="round" stroke-linejoin="round"/>
    <path d="M 73.04969787597656 150.41299438476562 C 78.01750183105469 157.11000061035156 91.41179656982422 160.91799926757812 93.44650268554688 171.1820068359375" stroke-width="1.0" fill="none" stroke="rgb(0, 0, 0)" stroke-opacity="1" stroke-linecap="round" stroke-linejoin="round"/>
    <path d="M 42.930301666259766 141.16700744628906 C 33.98059844970703 125.02400207519531 48.54029846191406 149.31500244140625 39.347599029541016 136.28900146484375" stroke-width="1.0" fill="none" stroke="rgb(0, 0, 0)" stroke-opacity="1" stroke-linecap="round" stroke-linejoin="round"/>
    <path d="M 38.637699127197266 135.16799926757812 C 64.981201171875 148.3560028076172 58.30229949951172 119.86199951171875 59.721099853515625 174.5749969482422" stroke-width="1.0" fill="none" stroke="rgb(0, 0, 0)" stroke-opacity="1" stroke-linecap="round" stroke-linejoin="round"/>
    <path d="M 49.217899322509766 138.7899932861328 C 41.99919891357422 148.91799926757812 45.44449996948242 184.03599548339844 45.909698486328125 174.22300720214844" stroke-width="1.0" fill="none" stroke="rgb(0, 0, 0)" stroke-opacity="1" stroke-linecap="round" stroke-linejoin="round"/>
    <path d="M 41.821800231933594 104.91200256347656 C 82.03970336914062 106.63600158691406 75.19869995117188 104.94300079345703 64.01679992675781 105.60900115966797" stroke-width="1.0" fill="none" stroke="rgb(0, 0, 0)" stroke-opacity="1" stroke-linecap="round" stroke-linejoin="round"/>
    <path d="M 38.56800079345703 104.08799743652344 C 89.43289947509766 106.927001953125 72.08740234375 102.33599853515625 67.40789794921875 111.1709976196289" stroke-width="1.0" fill="none" stroke="rgb(0, 0, 0)" stroke-opacity="1" stroke-linecap="round" stroke-linejoin="round"/>
    <path d="M 41.122100830078125 105.91500091552734 C 44.706298828125 105.51300048828125 41.84669876098633 102.91200256347656 41.524600982666016 108.03299713134766" stroke-width="1.0" fill="none" stroke="rgb(0, 0, 0)" stroke-opacity="1" stroke-linecap="round" stroke-linejoin="round"/>
    <path d="M 100.63099670410156 168.6060028076172 C 74.01280212402344 164.04600524902344 107.9000015258789 166.00799560546875 95.9136962890625 171.677001953125" stroke-width="1.0" fill="none" stroke="rgb(0, 0, 0)" stroke-opacity="1" stroke-linecap="round" stroke-linejoin="round"/>
    <path d="M 73.28839874267578 150.43499755859375 C 114.94000244140625 178.31500244140625 104.38600158691406 174.875 71.37529754638672 152.82200622558594" stroke-width="1.0" fill="none" stroke="rgb(0, 0, 0)" stroke-opacity="1" stroke-linecap="round" stroke-linejoin="round"/>
    <path d="M 98.68419647216797 171.88800048828125 C 109.88999938964844 159.95399475097656 90.51409912109375 171.5260009765625 73.0438003540039 157.5330047607422" stroke-width="1.0" fill="none" stroke="rgb(0, 0, 0)" stroke-opacity="1" stroke-linecap="round" stroke-linejoin="round"/>
    <path d="M 67.06929779052734 183.66099548339844 C 130.13099670410156 183.1999969482422 88.72239685058594 185.4459991455078 44.500999450683594 184.4510040283203" stroke-width="1.0" fill="none" stroke="rgb(0, 0, 0)" stroke-opacity="1" stroke-linecap="round" stroke-linejoin="round"/>
    <path d="M 100.2760009765625 167.93299865722656 C 84.48359680175781 164.3350067138672 84.36859893798828 163.406005859375 101.68000030517578 165.47000122070312" stroke-width="1.0" fill="none" stroke="rgb(0, 0, 0)" stroke-opacity="1" stroke-linecap="round" stroke-linejoin="round"/>
    <path d="M 73.88069915771484 129.05099487304688 C 78.48770141601562 138.94200134277344 64.14009857177734 137.56500244140625 42.760101318359375 138.64500427246094" stroke-width="1.0" fill="none" stroke="rgb(0, 0, 0)" stroke-opacity="1" stroke-linecap="round" stroke-linejoin="round"/>
    <path d="M 97.10230255126953 167.1820068359375 C 72.84660339355469 146.1280059814453 60.46080017089844 152.97900390625 88.51119995117188 164.10000610351562" stroke-width="1.0" fill="none" stroke="rgb(0, 0, 0)" stroke-opacity="1" stroke-linecap="round" stroke-linejoin="round"/>
    <path d="M 41.83720016479492 147.45700073242188 C 40.5984992980957 87.59200286865234 38.994300842285156 106.24800109863281 39.66630172729492 108.51100158691406" stroke-width="1.0" fill="none" stroke="rgb(0, 0, 0)" stroke-opacity="1" stroke-linecap="round" stroke-linejoin="round"/>
    <path d="M 68.13189697265625 135.57200622558594 C 92.24259948730469 151.41099548339844 94.29090118408203 146.07699584960938 73.41840362548828 149.61000061035156" stroke-width="1.0" fill="none" stroke="rgb(0, 0, 0)" stroke-opacity="1" stroke-linecap="round" stroke-linejoin="round"/>
    <path d="M 43.67279815673828 142.41299438476562 C 43.237098693847656 180.91000366210938 46.68980026245117 155.53199768066406 40.82680130004883 105.08300018310547" stroke-width="1.0" fill="none" stroke="rgb(0, 0, 0)" stroke-opacity="1" stroke-linecap="round" stroke-linejoin="round"/>
    <path d="M 57.824100494384766 138.43499755859375 C 58.63710021972656 228.75799560546875 60.16780090332031 160.16400146484375 58.227699279785156 159.0570068359375" stroke-width="1.0" fill="none" stroke="rgb(0, 0, 0)" stroke-opacity="1" stroke-linecap="round" stroke-linejoin="round"/>
    <path d="M 82.40859985351562 155.88499450683594 C 70.40119934082031 120.3759994506836 60.61819839477539 131.5919952392578 82.82460021972656 137.7429962158203" stroke-width="1.0" fill="none" stroke="rgb(0, 0, 0)" stroke-opacity="1" stroke-linecap="round" stroke-linejoin="round"/>
    <path d="M 47.3203010559082 141.64100646972656 C 100.71800231933594 148.36399841308594 66.11199951171875 140.02000427246094 84.42639923095703 136.22000122070312" stroke-width="1.0" fill="none" stroke="rgb(0, 0, 0)" stroke-opacity="1" stroke-linecap="round" stroke-linejoin="round"/>
    <path d="M 65.90499877929688 142.97500610351562 C 71.01210021972656 125.42900085449219 74.27320098876953 134.3780059814453 53.862300872802734 123.72899627685547" stroke-width="1.0" fill="none" stroke="rgb(0, 0, 0)" stroke-opacity="1" stroke-linecap="round" stroke-linejoin="round"/>
    <path d="M 60.47529983520508 168.27099609375 C 53.635101318359375 135.23699951171875 67.48079681396484 144.28599548339844 44.0343017578125 139.88900756835938" stroke-width="1.0" fill="none" stroke="rgb(0, 0, 0)" stroke-opacity="1" stroke-linecap="round" stroke-linejoin="round"/>
    <path d="M 86.21399688720703 148.4720001220703 C 61.502498626708984 136.90199279785156 82.31179809570312 143.58999633789062 81.9041976928711 159.50799560546875" stroke-width="1.0" fill="none" stroke="rgb(0, 0, 0)" stroke-opacity="1" stroke-linecap="round" stroke-linejoin="round"/>
    <path d="M 64.16699981689453 142.6219940185547 C 50.95790100097656 137.05099487304688 18.245800018310547 138.40199279785156 67.74829864501953 142.47799682617188" stroke-width="1.0" fill="none" stroke="rgb(0, 0, 0)" stroke-opacity="1" stroke-linecap="round" stroke-linejoin="round"/>
    <path d="M 69.64409637451172 105.59200286865234 C 77.83280181884766 105.63300323486328 75.3989028930664 109.90399932861328 72.36100006103516 106.2229995727539" stroke-width="1.0" fill="none" stroke="rgb(0, 0, 0)" stroke-opacity="1" stroke-linecap="round" stroke-linejoin="round"/>
    <path d="M 75.76860046386719 137.9499969482422 C 94.84339904785156 162.09300231933594 76.66840362548828 133.26800537109375 87.91480255126953 147.8260040283203" stroke-width="1.0" fill="none" stroke="rgb(0, 0, 0)" stroke-opacity="1" stroke-linecap="round" stroke-linejoin="round"/>
    <path d="M 44.1432991027832 156.677001953125 C 38.91109848022461 114.7509994506836 41.507598876953125 121.73699951171875 43.55540084838867 186.0" stroke-width="1.0" fill="none" stroke="rgb(0, 0, 0)" stroke-opacity="1" stroke-linecap="round" stroke-linejoin="round"/>
    <path d="M 79.2052993774414 157.593994140625 C 74.00399780273438 137.70799255371094 53.60820007324219 139.6580047607422 93.4188003540039 144.19900512695312" stroke-width="1.0" fill="none" stroke="rgb(0, 0, 0)" stroke-opacity="1" stroke-linecap="round" stroke-linejoin="round"/>
    <path d="M 42.63600158691406 184.02699279785156 C 39.074100494384766 119.50399780273438 45.891700744628906 112.05500030517578 44.86800003051758 183.38299560546875" stroke-width="1.0" fill="none" stroke="rgb(0, 0, 0)" stroke-opacity="1" stroke-linecap="round" stroke-linejoin="round"/>
    <path d="M 61.372501373291016 127.75800323486328 C 88.16999816894531 139.48300170898438 92.39450073242188 134.76499938964844 55.918399810791016 124.50199890136719" stroke-width="1.0" fill="none" stroke="rgb(0, 0, 0)" stroke-opacity="1" stroke-linecap="round" stroke-linejoin="round"/>
    <path d="M 60.75590133666992 123.75 C 69.5988998413086 136.56199645996094 83.9729995727539 160.3000030517578 69.39730072021484 129.81399536132812" stroke-width="1.0" fill="none" stroke="rgb(0, 0, 0)" stroke-opacity="1" stroke-linecap="round" stroke-linejoin="round"/>
    <path d="M 42.859798431396484 133.21400451660156 C 47.787899017333984 167.406005859375 51.434600830078125 147.72300720214844 44.54880142211914 147.33700561523438" stroke-width="1.0" fill="none" stroke="rgb(0, 0, 0)" stroke-opacity="1" stroke-linecap="round" stroke-linejoin="round"/>
    <path d="M 41.082401275634766 108.35900115966797 C 84.33090209960938 108.38700103759766 87.71510314941406 104.75800323486328 41.76729965209961 105.85399627685547" stroke-width="1.0" fill="none" stroke="rgb(0, 0, 0)" stroke-opacity="1" stroke-linecap="round" stroke-linejoin="round"/>
    <path d="M 81.67449951171875 143.7310028076172 C 55.02429962158203 154.33200073242188 92.12870025634766 178.34300231933594 71.87779998779297 131.78500366210938" stroke-width="1.0" fill="none" stroke="rgb(0, 0, 0)" stroke-opacity="1" stroke-linecap="round" stroke-linejoin="round"/>
    <path d="M 79.181396484375 160.48599243164062 C 88.1769027709961 144.93600463867188 94.78410339355469 150.91900634765625 64.88729858398438 135.99000549316406" stroke-width="1.0" fill="none" stroke="rgb(0, 0, 0)" stroke-opacity="1" stroke-linecap="round" stroke-linejoin="round"/>
    <path d="M 75.893798828125 142.67999267578125 C 62.76649856567383 112.96399688720703 27.939899444580078 125.02400207519531 80.03389739990234 134.99099731445312" stroke-width="1.0" fill="none" stroke="rgb(0, 0, 0)" stroke-opacity="1" stroke-linecap="round" stroke-linejoin="round"/>
    <path d="M 42.91279983520508 138.36000061035156 C 37.89139938354492 118.052001953125 45.371299743652344 147.8260040283203 41.40850067138672 131.37399291992188" stroke-width="1.0" fill="none" stroke="rgb(0, 0, 0)" stroke-opacity="1" stroke-linecap="round" stroke-linejoin="round"/>
    <path d="M 77.97329711914062 138.13499450683594 C 83.53880310058594 130.25 90.66419982910156 129.77699279785156 66.61370086669922 129.21200561523438" stroke-width="1.0" fill="none" stroke="rgb(0, 0, 0)" stroke-opacity="1" stroke-linecap="round" stroke-linejoin="round"/>
    <path d="M 62.74810028076172 123.177001953125 C 71.40950012207031 157.427001953125 74.8926010131836 137.63299560546875 56.363800048828125 123.70999908447266" stroke-width="1.0" fill="none" stroke="rgb(0, 0, 0)" stroke-opacity="1" stroke-linecap="round" stroke-linejoin="round"/>
    <path d="M 64.35929870605469 126.70800018310547 C 90.11509704589844 156.7729949951172 86.26719665527344 149.93099975585938 73.26640319824219 159.56399536132812" stroke-width="1.0" fill="none" stroke="rgb(0, 0, 0)" stroke-opacity="1" stroke-linecap="round" stroke-linejoin="round"/>
    <path d="M 84.87419891357422 151.82000732421875 C 73.26170349121094 126.9209976196289 64.17549896240234 121.02300262451172 69.83480072021484 137.41900634765625" stroke-width="1.0" fill="none" stroke="rgb(0, 0, 0)" stroke-opacity="1" stroke-linecap="round" stroke-linejoin="round"/>
    <path d="M 67.86799621582031 182.45199584960938 C 87.81420135498047 182.4459991455078 104.89199829101562 184.48599243164062 94.79900360107422 184.36900329589844" stroke-width="1.0" fill="none" stroke="rgb(0, 0, 0)" stroke-opacity="1" stroke-linecap="round" stroke-linejoin="round"/>
    <path d="M 38.492000579833984 104.5009994506836 C 40.47959899902344 156.78799438476562 44.56269836425781 177.85499572753906 39.290199279785156 108.14900207519531" stroke-width="1.0" fill="none" stroke="rgb(0, 0, 0)" stroke-opacity="1" stroke-linecap="round" stroke-linejoin="round"/>
    <path d="M 55.743900299072266 127.63200378417969 C 74.2593994140625 127.5199966430664 44.08039855957031 135.26199340820312 63.63719940185547 123.89700317382812" stroke-width="1.0" fill="none" stroke="rgb(0, 0, 0)" stroke-opacity="1" stroke-linecap="round" stroke-linejoin="round"/>
    <path d="M 70.18389892578125 129.1959991455078 C 55.62590026855469 133.1699981689453 44.740501403808594 117.4469985961914 62.77690124511719 124.3030014038086" stroke-width="1.0" fill="none" stroke="rgb(0, 0, 0)" stroke-opacity="1" stroke-linecap="round" stroke-linejoin="round"/>
    <path d="M 81.65950012207031 144.3990020751953 C 74.80950164794922 156.85000610351562 65.69239807128906 150.8179931640625 85.57540130615234 149.3800048828125" stroke-width="1.0" fill="none" stroke="rgb(0, 0, 0)" stroke-opacity="1" stroke-linecap="round" stroke-linejoin="round"/>
    <path d="M 73.8196029663086 145.42799377441406 C 97.52880096435547 128.64999389648438 74.69280242919922 126.0510025024414 72.30220031738281 143.38800048828125" stroke-width="1.0" fill="none" stroke="rgb(0, 0, 0)" stroke-opacity="1" stroke-linecap="round" stroke-linejoin="round"/>
    <path d="M 38.0 135.4600067138672 C 49.829498291015625 168.30799865722656 47.6245002746582 144.4409942626953 45.27470016479492 134.32000732421875" stroke-width="1.0" fill="none" stroke="rgb(0, 0, 0)" stroke-opacity="1" stroke-linecap="round" stroke-linejoin="round"/>
    <path d="M 44.08110046386719 138.68099975585938 C 102.66100311279297 139.8979949951172 91.56620025634766 129.8350067138672 54.44649887084961 125.63600158691406" stroke-width="1.0" fill="none" stroke="rgb(0, 0, 0)" stroke-opacity="1" stroke-linecap="round" stroke-linejoin="round"/>
    <path d="M 53.00619888305664 127.51399993896484 C 58.6416015625 109.20999908447266 77.41709899902344 143.23699951171875 66.0238037109375 131.22999572753906" stroke-width="1.0" fill="none" stroke="rgb(0, 0, 0)" stroke-opacity="1" stroke-linecap="round" stroke-linejoin="round"/>
    <path d="M 40.47560119628906 105.45999908447266 C 39.125099182128906 104.23300170898438 39.557098388671875 108.66200256347656 45.18899917602539 108.66100311279297" stroke-width="1.0" fill="none" stroke="rgb(0, 0, 0)" stroke-opacity="1" stroke-linecap="round" stroke-linejoin="round"/>
    <path d="M 97.54460144042969 171.8800048828125 C 84.72769927978516 149.5959930419922 56.94380187988281 157.43600463867188 84.08699798583984 153.031005859375" stroke-width="1.0" fill="none" stroke="rgb(0, 0, 0)" stroke-opacity="1" stroke-linecap="round" stroke-linejoin="round"/>
    <path d="M 43.8838996887207 158.08599853515625 C 37.29600143432617 68.88580322265625 42.211299896240234 109.84200286865234 46.36040115356445 153.17300415039062" stroke-width="1.0" fill="none" stroke="rgb(0, 0, 0)" stroke-opacity="1" stroke-linecap="round" stroke-linejoin="round"/>
    <path d="M 171.24400329589844 168.64999389648438 C 202.6929931640625 178.88699340820312 188.031005859375 176.38600158691406 185.2830047607422 161.32000732421875" stroke-width="1.0" fill="none" stroke="rgb(0, 0, 0)" stroke-opacity="1" stroke-linecap="round" stroke-linejoin="round"/>
    <path d="M 214.25900268554688 173.97999572753906 C 202.50900268554688 165.23199462890625 210.44500732421875 166.2480010986328 213.76400756835938 174.6580047607422" stroke-width="1.0" fill="none" stroke="rgb(0, 0, 0)" stroke-opacity="1" stroke-linecap="round" stroke-linejoin="round"/>
    <path d="M 155.59100341796875 170.39700317382812 C 161.35800170898438 178.89500427246094 146.6750030517578 172.947998046875 194.21400451660156 172.88099670410156" stroke-width="1.0" fill="none" stroke="rgb(0, 0, 0)" stroke-opacity="1" stroke-linecap="round" stroke-linejoin="round"/>
    <path d="M 180.71600341796875 173.57699584960938 C 142.26100158691406 168.59300231933594 163.63600158691406 169.9290008544922 141.2209930419922 175.2010040283203" stroke-width="1.0" fill="none" stroke="rgb(0, 0, 0)" stroke-opacity="1" stroke-linecap="round" stroke-linejoin="round"/>
    <path d="M 196.2949981689453 163.7969970703125 C 199.61399841308594 175.02099609375 208.12100219726562 183.36000061035156 180.7989959716797 166.86700439453125" stroke-width="1.0" fill="none" stroke="rgb(0, 0, 0)" stroke-opacity="1" stroke-linecap="round" stroke-linejoin="round"/>
    <path d="M 140.3719940185547 182.43099975585938 C 153.38800048828125 164.50799560546875 175.51800537109375 173.13499450683594 141.4409942626953 177.88999938964844" stroke-width="1.0" fill="none" stroke="rgb(0, 0, 0)" stroke-opacity="1" stroke-linecap="round" stroke-linejoin="round"/>
    <path d="M 174.66000366210938 168.30299377441406 C 193.33999633789062 170.95399475097656 187.08099365234375 175.41299438476562 173.67100524902344 166.5800018310547" stroke-width="1.0" fill="none" stroke="rgb(0, 0, 0)" stroke-opacity="1" stroke-linecap="round" stroke-linejoin="round"/>
    <path d="M 175.572998046875 171.63900756835938 C 145.92300415039062 172.36099243164062 144.84300231933594 179.2429962158203 168.5 174.51600646972656" stroke-width="1.0" fill="none" stroke="rgb(0, 0, 0)" stroke-opacity="1" stroke-linecap="round" stroke-linejoin="round"/>
    <path d="M 186.281005859375 167.00399780273438 C 205.197998046875 188.3800048828125 195.697998046875 183.718994140625 203.74200439453125 181.77999877929688" stroke-width="1.0" fill="none" stroke="rgb(0, 0, 0)" stroke-opacity="1" stroke-linecap="round" stroke-linejoin="round"/>
    <path d="M 199.02099609375 165.8489990234375 C 194.76800537109375 168.0279998779297 167.41799926757812 166.9969940185547 172.88699340820312 175.18299865722656" stroke-width="1.0" fill="none" stroke="rgb(0, 0, 0)" stroke-opacity="1" stroke-linecap="round" stroke-linejoin="round"/>
    <path d="M 194.73199462890625 164.23199462890625 C 198.93699645996094 178.79100036621094 184.57899475097656 177.66400146484375 189.7790069580078 163.88600158691406" stroke-width="1.0" fill="none" stroke="rgb(0, 0, 0)" stroke-opacity="1" stroke-linecap="round" stroke-linejoin="round"/>
    <path d="M 182.62600708007812 165.53399658203125 C 137.00399780273438 177.04200744628906 162.8979949951172 175.54400634765625 181.8769989013672 161.59100341796875" stroke-width="1.0" fill="none" stroke="rgb(0, 0, 0)" stroke-opacity="1" stroke-linecap="round" stroke-linejoin="round"/>
    <path d="M 178.73300170898438 174.75599670410156 C 194.43499755859375 161.84100341796875 172.3939971923828 159.17799377441406 174.09800720214844 172.83900451660156" stroke-width="1.0" fill="none" stroke="rgb(0, 0, 0)" stroke-opacity="1" stroke-linecap="round" stroke-linejoin="round"/>
    <path d="M 173.46800231933594 171.55999755859375 C 151.33900451660156 183.31300354003906 146.36199951171875 170.3070068359375 140.8459930419922 185.0" stroke-width="1.0" fill="none" stroke="rgb(0, 0, 0)" stroke-opacity="1" stroke-linecap="round" stroke-linejoin="round"/>
    <path d="M 213.2689971923828 169.0189971923828 C 203.1750030517578 157.94000244140625 205.5 162.2969970703125 181.44000244140625 167.58599853515625" stroke-width="1.0" fill="none" stroke="rgb(0, 0, 0)" stroke-opacity="1" stroke-linecap="round" stroke-linejoin="round"/>
    <path d="M 185.13099670410156 161.6020050048828 C 161.66700744628906 176.3000030517578 185.12100219726562 178.0449981689453 173.6840057373047 168.00100708007812" stroke-width="1.0" fill="none" stroke="rgb(0, 0, 0)" stroke-opacity="1" stroke-linecap="round" stroke-linejoin="round"/>
    <path d="M 211.7790069580078 166.1909942626953 C 220.072998046875 152.78199768066406 223.00999450683594 162.66099548339844 215.73199462890625 158.0" stroke-width="1.0" fill="none" stroke="rgb(0, 0, 0)" stroke-opacity="1" stroke-linecap="round" stroke-linejoin="round"/>
    <path d="M 159.9250030517578 171.1320037841797 C 151.8780059814453 173.96400451660156 161.0970001220703 181.29200744628906 141.01600646972656 173.42999267578125" stroke-width="1.0" fill="none" stroke="rgb(0, 0, 0)" stroke-opacity="1" stroke-linecap="round" stroke-linejoin="round"/>
    <path d="M 191.24099731445312 170.1529998779297 C 198.85400390625 181.72900390625 198.48500061035156 185.3520050048828 209.26699829101562 163.54800415039062" stroke-width="1.0" fill="none" stroke="rgb(0, 0, 0)" stroke-opacity="1" stroke-linecap="round" stroke-linejoin="round"/>
    <path d="M 139.0 184.51699829101562 C 140.4759979248047 174.04800415039062 139.78199768066406 175.0760040283203 158.08299255371094 176.18099975585938" stroke-width="1.0" fill="none" stroke="rgb(0, 0, 0)" stroke-opacity="1" stroke-linecap="round" stroke-linejoin="round"/>
    <path d="M 199.0469970703125 182.41799926757812 C 231.93499755859375 187.1649932861328 181.39599609375 181.7689971923828 209.35899353027344 183.67100524902344" stroke-width="1.0" fill="none" stroke="rgb(0, 0, 0)" stroke-opacity="1" stroke-linecap="round" stroke-linejoin="round"/>
    <path d="M 144.6840057373047 175.78700256347656 C 167.58999633789062 165.80999755859375 155.60400390625 173.72900390625 142.1699981689453 176.93499755859375" stroke-width="1.0" fill="none" stroke="rgb(0, 0, 0)" stroke-opacity="1" stroke-linecap="round" stroke-linejoin="round"/>
    <path d="M 217.15499877929688 174.1269989013672 C 218.41200256347656 169.03199768066406 224.82400512695312 174.79100036621094 217.6739959716797 159.6719970703125" stroke-width="1.0" fill="none" stroke="rgb(0, 0, 0)" stroke-opacity="1" stroke-linecap="round" stroke-linejoin="round"/>
    <path d="M 210.39199829101562 174.5970001220703 C 213.1060028076172 171.4250030517578 226.95399475097656 175.01100158691406 211.51300048828125 165.5970001220703" stroke-width="1.0" fill="none" stroke="rgb(0, 0, 0)" stroke-opacity="1" stroke-linecap="round" stroke-linejoin="round"/>
    <path d="M 211.94900512695312 171.9499969482422 C 214.66299438476562 168.7779998779297 228.51100158691406 172.36399841308594 213.07000732421875 162.9499969482422" stroke-width="1.0" fill="none" stroke="rgb(0, 0, 0)" stroke-opacity="1" stroke-linecap="round" stroke-linejoin="round"/>
    <path d="M 212.98699951171875 168.2449951171875 C 214.85299682617188 166.7519989013672 224.3730010986328 168.43899536132812 213.75799560546875 164.00900268554688" stroke-width="1.0" fill="none" stroke="rgb(0, 0, 0)" stroke-opacity="1" stroke-linecap="round" stroke-linejoin="round"/>
    <path d="M 191.9239959716797 170.66700744628906 C 169.35800170898438 175.62899780273438 176.58900451660156 161.9530029296875 180.8209991455078 171.11099243164062" stroke-width="1.0" fill="none" stroke="rgb(0, 0, 0)" stroke-opacity="1" stroke-linecap="round" stroke-linejoin="round"/>
    <path d="M 198.79200744628906 163.8560028076172 C 178.34100341796875 165.6009979248047 181.43699645996094 166.14700317382812 198.82200622558594 163.58999633789062" stroke-width="1.0" fill="none" stroke="rgb(0, 0, 0)" stroke-opacity="1" stroke-linecap="round" stroke-linejoin="round"/>
    <path d="M 185.62100219726562 167.27099609375 C 155.38800048828125 178.5 160.7169952392578 171.36500549316406 177.6320037841797 167.73800659179688" stroke-width="1.0" fill="none" stroke="rgb(0, 0, 0)" stroke-opacity="1" stroke-linecap="round" stroke-linejoin="round"/>
    <path d="M 182.468994140625 169.9969940185547 C 201.03599548339844 182.43499755859375 192.61500549316406 169.33399963378906 185.69000244140625 163.9239959716797" stroke-width="1.0" fill="none" stroke="rgb(0, 0, 0)" stroke-opacity="1" stroke-linecap="round" stroke-linejoin="round"/>
    <path d="M 199.69400024414062 175.80599975585938 C 190.4010009765625 160.3509979248047 181.64100646972656 161.2259979248047 189.0709991455078 164.3679962158203" stroke-width="1.0" fill="none" stroke="rgb(0, 0, 0)" stroke-opacity="1" stroke-linecap="round" stroke-linejoin="round"/>
    <path d="M 159.6529998779297 174.50599670410156 C 167.98800659179688 164.76100158691406 176.0590057373047 173.47300720214844 162.59300231933594 177.1490020751953" stroke-width="1.0" fill="none" stroke="rgb(0, 0, 0)" stroke-opacity="1" stroke-linecap="round" stroke-linejoin="round"/>
    <path d="M 192.3780059814453 174.45199584960938 C 184.97799682617188 167.54200744628906 169.1999969482422 165.63699340820312 176.05099487304688 175.15899658203125" stroke-width="1.0" fill="none" stroke="rgb(0, 0, 0)" stroke-opacity="1" stroke-linecap="round" stroke-linejoin="round"/>
    <path d="M 164.1580047607422 175.8769989013672 C 166.08099365234375 168.9029998779297 151.50999450683594 176.23500061035156 178.00100708007812 164.95399475097656" stroke-width="1.0" fill="none" stroke="rgb(0, 0, 0)" stroke-opacity="1" stroke-linecap="round" stroke-linejoin="round"/>
    <path d="M 170.85000610351562 175.35499572753906 C 160.43899536132812 172.94500732421875 180.61900329589844 172.25799560546875 185.35699462890625 162.218994140625" stroke-width="1.0" fill="none" stroke="rgb(0, 0, 0)" stroke-opacity="1" stroke-linecap="round" stroke-linejoin="round"/>
    <path d="M 174.00100708007812 175.92799377441406 C 181.36000061035156 169.77099609375 184.8300018310547 174.93800354003906 180.14300537109375 167.197998046875" stroke-width="1.0" fill="none" stroke="rgb(0, 0, 0)" stroke-opacity="1" stroke-linecap="round" stroke-linejoin="round"/>
    <path d="M 214.8090057373047 163.97799682617188 C 215.76400756835938 160.3280029296875 212.406005859375 161.86199951171875 218.2899932861328 158.39500427246094" stroke-width="1.0" fill="none" stroke="rgb(0, 0, 0)" stroke-opacity="1" stroke-linecap="round" stroke-linejoin="round"/>
    <path d="M 158.14100646972656 175.83399963378906 C 168.73899841308594 172.16900634765625 166.25100708007812 172.83399963378906 144.7239990234375 176.4739990234375" stroke-width="1.0" fill="none" stroke="rgb(0, 0, 0)" stroke-opacity="1" stroke-linecap="round" stroke-linejoin="round"/>
    <path d="M 169.5449981689453 174.9029998779297 C 144.6479949951172 174.1219940185547 141.781005859375 174.04299926757812 186.31900024414062 168.26300048828125" stroke-width="1.0" fill="none" stroke="rgb(0, 0, 0)" stroke-opacity="1" stroke-linecap="round" stroke-linejoin="round"/>
    <path d="M 175.68800354003906 175.52099609375 C 164.39100646972656 171.86000061035156 153.12600708007812 167.8560028076172 162.5800018310547 175.28700256347656" stroke-width="1.0" fill="none" stroke="rgb(0, 0, 0)" stroke-opacity="1" stroke-linecap="round" stroke-linejoin="round"/>
    <path d="M 146.37600708007812 182.41700744628906 C 140.84300231933594 171.09800720214844 140.02999877929688 163.0050048828125 141.73300170898438 184.45599365234375" stroke-width="1.0" fill="none" stroke="rgb(0, 0, 0)" stroke-opacity="1" stroke-linecap="round" stroke-linejoin="round"/>
    <path d="M 177.25100708007812 175.3070068359375 C 176.54800415039062 173.6840057373047 172.4219970703125 163.24600219726562 165.07699584960938 176.05499267578125" stroke-width="1.0" fill="none" stroke="rgb(0, 0, 0)" stroke-opacity="1" stroke-linecap="round" stroke-linejoin="round"/>
    <path d="M 175.03199768066406 167.76400756835938 C 175.95199584960938 162.4429931640625 181.1699981689453 171.218994140625 190.14599609375 164.69700622558594" stroke-width="1.0" fill="none" stroke="rgb(0, 0, 0)" stroke-opacity="1" stroke-linecap="round" stroke-linejoin="round"/>
    <path d="M 190.60699462890625 171.6580047607422 C 198.4669952392578 158.86300659179688 189.85800170898438 168.55599975585938 202.4499969482422 184.36900329589844" stroke-width="1.0" fill="none" stroke="rgb(0, 0, 0)" stroke-opacity="1" stroke-linecap="round" stroke-linejoin="round"/>
    <path d="M 179.75100708007812 171.2480010986328 C 139.2169952392578 175.9239959716797 160.88099670410156 178.76199340820312 179.00900268554688 171.45700073242188" stroke-width="1.0" fill="none" stroke="rgb(0, 0, 0)" stroke-opacity="1" stroke-linecap="round" stroke-linejoin="round"/>
    <path d="M 180.6580047607422 164.43299865722656 C 194.5540008544922 163.57899475097656 184.93800354003906 162.36099243164062 192.26199340820312 169.96099853515625" stroke-width="1.0" fill="none" stroke="rgb(0, 0, 0)" stroke-opacity="1" stroke-linecap="round" stroke-linejoin="round"/>
    <path d="M 187.3459930419922 173.83399963378906 C 188.50599670410156 162.91200256347656 187.3260040283203 156.4929962158203 186.25799560546875 173.24099731445312" stroke-width="1.0" fill="none" stroke="rgb(0, 0, 0)" stroke-opacity="1" stroke-linecap="round" stroke-linejoin="round"/>
    <path d="M 176.7790069580078 173.61399841308594 C 163.66799926757812 178.62899780273438 126.822998046875 177.27099609375 172.0749969482422 170.822998046875" stroke-width="1.0" fill="none" stroke="rgb(0, 0, 0)" stroke-opacity="1" stroke-linecap="round" stroke-linejoin="round"/>
    <path d="M 215.33299255371094 174.24400329589844 C 206.1820068359375 162.71299743652344 208.1060028076172 159.1020050048828 216.4029998779297 173.26699829101562" stroke-width="1.0" fill="none" stroke="rgb(0, 0, 0)" stroke-opacity="1" stroke-linecap="round" stroke-linejoin="round"/>
    <path d="M 183.30099487304688 165.18800354003906 C 190.67799377441406 164.63499450683594 186.20599365234375 170.07200622558594 181.2760009765625 162.76199340820312" stroke-width="1.0" fill="none" stroke="rgb(0, 0, 0)" stroke-opacity="1" stroke-linecap="round" stroke-linejoin="round"/>
    <path d="M 170.67100524902344 174.83700561523438 C 164.968994140625 165.2050018310547 195.3979949951172 160.3209991455078 198.30999755859375 177.35499572753906" stroke-width="1.0" fill="none" stroke="rgb(0, 0, 0)" stroke-opacity="1" stroke-linecap="round" stroke-linejoin="round"/>
    <path d="M 219.81399536132812 159.99899291992188 C 211.78900146484375 161.0330047607422 221.73300170898438 166.6179962158203 216.28399658203125 159.9250030517578" stroke-width="1.0" fill="none" stroke="rgb(0, 0, 0)" stroke-opacity="1" stroke-linecap="round" stroke-linejoin="round"/>
    <path d="M 174.58700561523438 167.6649932861328 C 164.27499389648438 173.85800170898438 165.1009979248047 170.5959930419922 157.1199951171875 175.8699951171875" stroke-width="1.0" fill="none" stroke="rgb(0, 0, 0)" stroke-opacity="1" stroke-linecap="round" stroke-linejoin="round"/>
    <path d="M 195.83700561523438 172.8520050048828 C 170.656005859375 171.06199645996094 163.44000244140625 179.9720001220703 187.0240020751953 171.28399658203125" stroke-width="1.0" fill="none" stroke="rgb(0, 0, 0)" stroke-opacity="1" stroke-linecap="round" stroke-linejoin="round"/>
    <path d="M 209.29400634765625 183.41700744628906 C 194.02200317382812 186.32899475097656 215.0469970703125 182.11300659179688 200.97799682617188 181.2169952392578" stroke-width="1.0" fill="none" stroke="rgb(0, 0, 0)" stroke-opacity="1" stroke-linecap="round" stroke-linejoin="round"/>
    <path d="M 194.93299865722656 165.36700439453125 C 185.3419952392578 162.39999389648438 181.41799926757812 155.44200134277344 177.77200317382812 167.83399963378906" stroke-width="1.0" fill="none" stroke="rgb(0, 0, 0)" stroke-opacity="1" stroke-linecap="round" stroke-linejoin="round"/>
    <path d="M 179.42599487304688 163.9550018310547 C 200.43099975585938 164.54600524902344 201.37100219726562 169.2779998779297 183.02099609375 160.8769989013672" stroke-width="1.0" fill="none" stroke="rgb(0, 0, 0)" stroke-opacity="1" stroke-linecap="round" stroke-linejoin="round"/>
    <path d="M 195.4739990234375 164.13900756835938 C 191.00599670410156 173.2740020751953 193.9530029296875 181.26199340820312 200.64100646972656 168.33999633789062" stroke-width="1.0" fill="none" stroke="rgb(0, 0, 0)" stroke-opacity="1" stroke-linecap="round" stroke-linejoin="round"/>
    <path d="M 198.70700073242188 173.51499938964844 C 188.94500732421875 165.2949981689453 177.9709930419922 154.79400634765625 180.50599670410156 174.23800659179688" stroke-width="1.0" fill="none" stroke="rgb(0, 0, 0)" stroke-opacity="1" stroke-linecap="round" stroke-linejoin="round"/>
    <path d="M 195.3800048828125 174.95700073242188 C 195.36099243164062 172.30599975585938 195.51300048828125 156.88699340820312 209.48399353027344 163.9080047607422" stroke-width="1.0" fill="none" stroke="rgb(0, 0, 0)" stroke-opacity="1" stroke-linecap="round" stroke-linejoin="round"/>
    <path d="M 203.1820068359375 170.99099731445312 C 199.927001953125 152.1649932861328 198.95599365234375 169.0050048828125 174.28599548339844 170.24899291992188" stroke-width="1.0" fill="none" stroke="rgb(0, 0, 0)" stroke-opacity="1" stroke-linecap="round" stroke-linejoin="round"/>
    <path d="M 202.60400390625 162.39500427246094 C 201.8719940185547 173.60299682617188 204.7530059814453 182.6649932861328 197.73800659179688 163.50999450683594" stroke-width="1.0" fill="none" stroke="rgb(0, 0, 0)" stroke-opacity="1" stroke-linecap="round" stroke-linejoin="round"/>
    <path d="M 141.41900634765625 175.031005859375 C 179.04400634765625 173.5 172.0570068359375 179.2689971923828 187.2740020751953 171.31199645996094" stroke-width="1.0" fill="none" stroke="rgb(0, 0, 0)" stroke-opacity="1" stroke-linecap="round" stroke-linejoin="round"/>
    <path d="M 197.06700134277344 163.1540069580078 C 184.94200134277344 166.16600036621094 178.84300231933594 162.36599731445312 178.65199279785156 174.73500061035156" stroke-width="1.0" fill="none" stroke="rgb(0, 0, 0)" stroke-opacity="1" stroke-linecap="round" stroke-linejoin="round"/>
  </g>
</svg>
