<?xml version="1.0" ?>
<svg xmlns="http://www.w3.org/2000/svg" version="1.1" width="256" height="256">
  <defs/>
  <g>
    <path d="M 121.5780029296875 156.01800537109375 C 127.5199966430664 173.03199768066406 144.75399780273438 178.28199768066406 129.18699645996094 143.30499267578125" stroke-width="3.0" fill="none" stroke="rgb(0, 0, 0)" stroke-opacity="1" stroke-linecap="round" stroke-linejoin="round"/>
    <path d="M 111.95600128173828 180.843994140625 C 137.7209930419922 188.99600219726562 131.83299255371094 160.5240020751953 119.32099914550781 146.9219970703125" stroke-width="3.0" fill="none" stroke="rgb(0, 0, 0)" stroke-opacity="1" stroke-linecap="round" stroke-linejoin="round"/>
    <path d="M 113.95099639892578 149.36900329589844 C 107.93900299072266 157.71400451660156 117.27400207519531 181.49899291992188 119.88600158691406 182.58299255371094" stroke-width="3.0" fill="none" stroke="rgb(0, 0, 0)" stroke-opacity="1" stroke-linecap="round" stroke-linejoin="round"/>
    <path d="M 107.4540023803711 178.27200317382812 C 114.21199798583984 169.3090057373047 117.11900329589844 165.1580047607422 112.77799987792969 176.1750030517578" stroke-width="3.0" fill="none" stroke="rgb(0, 0, 0)" stroke-opacity="1" stroke-linecap="round" stroke-linejoin="round"/>
    <path d="M 106.86100006103516 172.24099731445312 C 101.84700012207031 151.843994140625 101.61000061035156 90.69239807128906 95.78230285644531 182.03700256347656" stroke-width="3.0" fill="none" stroke="rgb(0, 0, 0)" stroke-opacity="1" stroke-linecap="round" stroke-linejoin="round"/>
    <path d="M 152.1020050048828 154.0760040283203 C 126.82099914550781 162.2480010986328 146.2689971923828 116.15899658203125 143.66200256347656 180.71800231933594" stroke-width="3.0" fill="none" stroke="rgb(0, 0, 0)" stroke-opacity="1" stroke-linecap="round" stroke-linejoin="round"/>
    <path d="M 200.16299438476562 143.44200134277344 C 170.6199951171875 142.03799438476562 152.8090057373047 138.36099243164062 217.95700073242188 140.04400634765625" stroke-width="3.0" fill="none" stroke="rgb(0, 0, 0)" stroke-opacity="1" stroke-linecap="round" stroke-linejoin="round"/>
    <path d="M 129.96400451660156 172.30499267578125 C 128.03900146484375 124.40499877929688 133.76300048828125 118.38200378417969 139.23899841308594 130.4499969482422" stroke-width="3.0" fill="none" stroke="rgb(0, 0, 0)" stroke-opacity="1" stroke-linecap="round" stroke-linejoin="round"/>
    <path d="M 128.50799560546875 184.12899780273438 C 148.2949981689453 143.43899536132812 133.63999938964844 152.86099243164062 109.9000015258789 173.58700561523438" stroke-width="3.0" fill="none" stroke="rgb(0, 0, 0)" stroke-opacity="1" stroke-linecap="round" stroke-linejoin="round"/>
    <path d="M 135.4969940185547 88.0154037475586 C 165.57000732421875 114.27899932861328 141.56399536132812 106.19999694824219 131.4530029296875 137.8509979248047" stroke-width="3.0" fill="none" stroke="rgb(0, 0, 0)" stroke-opacity="1" stroke-linecap="round" stroke-linejoin="round"/>
    <path d="M 37.41360092163086 101.73200225830078 C 17.331199645996094 86.62129974365234 49.71440124511719 94.23040008544922 51.35960006713867 116.13099670410156" stroke-width="3.0" fill="none" stroke="rgb(0, 0, 0)" stroke-opacity="1" stroke-linecap="round" stroke-linejoin="round"/>
    <path d="M 203.49000549316406 157.0449981689453 C 187.86500549316406 128.88999938964844 198.08299255371094 155.5919952392578 228.04400634765625 136.11099243164062" stroke-width="3.0" fill="none" stroke="rgb(0, 0, 0)" stroke-opacity="1" stroke-linecap="round" stroke-linejoin="round"/>
    <path d="M 112.51899719238281 145.64300537109375 C 135.24200439453125 146.10499572753906 132.54100036621094 162.3939971923828 112.61499786376953 174.9739990234375" stroke-width="3.0" fill="none" stroke="rgb(0, 0, 0)" stroke-opacity="1" stroke-linecap="round" stroke-linejoin="round"/>
    <path d="M 132.95599365234375 133.68099975585938 C 125.21900177001953 105.4990005493164 123.91300201416016 133.75799560546875 135.91799926757812 114.677001953125" stroke-width="3.0" fill="none" stroke="rgb(0, 0, 0)" stroke-opacity="1" stroke-linecap="round" stroke-linejoin="round"/>
    <path d="M 42.775901794433594 129.4290008544922 C 30.972900390625 147.8979949951172 34.54759979248047 144.87899780273438 32.85060119628906 105.21399688720703" stroke-width="3.0" fill="none" stroke="rgb(0, 0, 0)" stroke-opacity="1" stroke-linecap="round" stroke-linejoin="round"/>
    <path d="M 129.93099975585938 172.15499877929688 C 118.7509994506836 149.9340057373047 120.4280014038086 160.43699645996094 121.74400329589844 151.7550048828125" stroke-width="3.0" fill="none" stroke="rgb(0, 0, 0)" stroke-opacity="1" stroke-linecap="round" stroke-linejoin="round"/>
    <path d="M 122.33399963378906 145.8249969482422 C 149.85899353027344 123.4280014038086 158.38400268554688 160.4250030517578 139.80499267578125 134.93299865722656" stroke-width="3.0" fill="none" stroke="rgb(0, 0, 0)" stroke-opacity="1" stroke-linecap="round" stroke-linejoin="round"/>
    <path d="M 130.6179962158203 155.89999389648438 C 135.30799865722656 145.31399536132812 133.87600708007812 153.92300415039062 129.36700439453125 156.33200073242188" stroke-width="3.0" fill="none" stroke="rgb(0, 0, 0)" stroke-opacity="1" stroke-linecap="round" stroke-linejoin="round"/>
    <path d="M 235.0 191.0 C 217.18800354003906 122.00900268554688 245.5189971923828 158.31199645996094 215.93699645996094 131.98399353027344" stroke-width="3.0" fill="none" stroke="rgb(0, 0, 0)" stroke-opacity="1" stroke-linecap="round" stroke-linejoin="round"/>
    <path d="M 115.88899993896484 165.59500122070312 C 95.07759857177734 159.69700622558594 99.064697265625 183.23599243164062 124.0250015258789 177.95599365234375" stroke-width="3.0" fill="none" stroke="rgb(0, 0, 0)" stroke-opacity="1" stroke-linecap="round" stroke-linejoin="round"/>
    <path d="M 124.677001953125 172.73199462890625 C 128.03399658203125 154.3350067138672 122.1969985961914 147.5679931640625 109.31999969482422 167.9010009765625" stroke-width="3.0" fill="none" stroke="rgb(0, 0, 0)" stroke-opacity="1" stroke-linecap="round" stroke-linejoin="round"/>
    <path d="M 66.89749908447266 99.6676025390625 C 57.61360168457031 99.89929962158203 65.96080017089844 115.14299774169922 44.81629943847656 120.62699890136719" stroke-width="3.0" fill="none" stroke="rgb(0, 0, 0)" stroke-opacity="1" stroke-linecap="round" stroke-linejoin="round"/>
    <path d="M 113.8219985961914 171.92300415039062 C 114.5250015258789 182.02999877929688 139.17999267578125 172.97300720214844 134.02699279785156 141.21200561523438" stroke-width="3.0" fill="none" stroke="rgb(0, 0, 0)" stroke-opacity="1" stroke-linecap="round" stroke-linejoin="round"/>
    <path d="M 29.341400146484375 187.5330047607422 C 22.401899337768555 171.65899658203125 23.99020004272461 212.4250030517578 34.0364990234375 152.3090057373047" stroke-width="3.0" fill="none" stroke="rgb(0, 0, 0)" stroke-opacity="1" stroke-linecap="round" stroke-linejoin="round"/>
    <path d="M 94.17780303955078 184.43099975585938 C 118.6500015258789 186.76499938964844 110.14399719238281 173.3459930419922 108.73899841308594 154.25900268554688" stroke-width="3.0" fill="none" stroke="rgb(0, 0, 0)" stroke-opacity="1" stroke-linecap="round" stroke-linejoin="round"/>
    <path d="M 222.7100067138672 100.7969970703125 C 227.04200744628906 105.11900329589844 216.18099975585938 98.9541015625 224.88999938964844 128.96800231933594" stroke-width="3.0" fill="none" stroke="rgb(0, 0, 0)" stroke-opacity="1" stroke-linecap="round" stroke-linejoin="round"/>
    <path d="M 120.58599853515625 144.36700439453125 C 120.29399871826172 140.12100219726562 112.73200225830078 159.37100219726562 129.00100708007812 152.36700439453125" stroke-width="3.0" fill="none" stroke="rgb(0, 0, 0)" stroke-opacity="1" stroke-linecap="round" stroke-linejoin="round"/>
    <path d="M 216.0540008544922 140.76400756835938 C 217.0919952392578 90.21199798583984 228.42799377441406 101.93000030517578 216.5469970703125 135.71099853515625" stroke-width="3.0" fill="none" stroke="rgb(0, 0, 0)" stroke-opacity="1" stroke-linecap="round" stroke-linejoin="round"/>
    <path d="M 219.00799560546875 139.66099548339844 C 213.1699981689453 92.41320037841797 204.52999877929688 94.03009796142578 229.28599548339844 139.74000549316406" stroke-width="3.0" fill="none" stroke="rgb(0, 0, 0)" stroke-opacity="1" stroke-linecap="round" stroke-linejoin="round"/>
    <path d="M 101.18299865722656 164.61500549316406 C 103.48400115966797 140.01300048828125 124.05699920654297 139.47799682617188 139.1719970703125 158.63499450683594" stroke-width="3.0" fill="none" stroke="rgb(0, 0, 0)" stroke-opacity="1" stroke-linecap="round" stroke-linejoin="round"/>
    <path d="M 130.7259979248047 181.57200622558594 C 124.27200317382812 157.28599548339844 121.06700134277344 140.40199279785156 153.1269989013672 147.5070037841797" stroke-width="3.0" fill="none" stroke="rgb(0, 0, 0)" stroke-opacity="1" stroke-linecap="round" stroke-linejoin="round"/>
    <path d="M 136.69200134277344 155.9550018310547 C 133.82899475097656 184.72500610351562 109.95600128173828 184.32699584960938 158.28599548339844 183.36500549316406" stroke-width="3.0" fill="none" stroke="rgb(0, 0, 0)" stroke-opacity="1" stroke-linecap="round" stroke-linejoin="round"/>
    <path d="M 116.06099700927734 157.31199645996094 C 114.71499633789062 138.73399353027344 123.74199676513672 138.04600524902344 124.46600341796875 117.2760009765625" stroke-width="3.0" fill="none" stroke="rgb(0, 0, 0)" stroke-opacity="1" stroke-linecap="round" stroke-linejoin="round"/>
    <path d="M 46.38119888305664 135.94200134277344 C 23.012399673461914 161.58999633789062 24.56369972229004 193.48199462890625 33.64289855957031 145.2169952392578" stroke-width="3.0" fill="none" stroke="rgb(0, 0, 0)" stroke-opacity="1" stroke-linecap="round" stroke-linejoin="round"/>
    <path d="M 127.12999725341797 124.81300354003906 C 115.54000091552734 152.16400146484375 112.47200012207031 127.5999984741211 134.2949981689453 100.92900085449219" stroke-width="3.0" fill="none" stroke="rgb(0, 0, 0)" stroke-opacity="1" stroke-linecap="round" stroke-linejoin="round"/>
    <path d="M 215.25599670410156 118.40399932861328 C 226.8209991455078 95.84210205078125 227.06900024414062 93.89140319824219 223.81500244140625 129.70599365234375" stroke-width="3.0" fill="none" stroke="rgb(0, 0, 0)" stroke-opacity="1" stroke-linecap="round" stroke-linejoin="round"/>
    <path d="M 28.29199981689453 151.1909942626953 C 27.405899047851562 123.4260025024414 14.250699996948242 154.47000122070312 36.55509948730469 152.52699279785156" stroke-width="3.0" fill="none" stroke="rgb(0, 0, 0)" stroke-opacity="1" stroke-linecap="round" stroke-linejoin="round"/>
    <path d="M 125.53800201416016 152.06399536132812 C 105.51499938964844 137.82000732421875 103.51699829101562 147.5489959716797 113.16999816894531 151.30499267578125" stroke-width="3.0" fill="none" stroke="rgb(0, 0, 0)" stroke-opacity="1" stroke-linecap="round" stroke-linejoin="round"/>
    <path d="M 39.5536994934082 111.43599700927734 C 48.2952995300293 136.58099365234375 57.32529830932617 122.4739990234375 31.567399978637695 148.2779998779297" stroke-width="3.0" fill="none" stroke="rgb(0, 0, 0)" stroke-opacity="1" stroke-linecap="round" stroke-linejoin="round"/>
    <path d="M 138.1929931640625 123.83100128173828 C 140.18699645996094 118.2249984741211 114.47000122070312 95.89109802246094 135.58799743652344 100.59200286865234" stroke-width="3.0" fill="none" stroke="rgb(0, 0, 0)" stroke-opacity="1" stroke-linecap="round" stroke-linejoin="round"/>
    <path d="M 143.38800048828125 117.41500091552734 C 125.02999877929688 119.68599700927734 127.28399658203125 137.90699768066406 138.0290069580078 131.44400024414062" stroke-width="3.0" fill="none" stroke="rgb(0, 0, 0)" stroke-opacity="1" stroke-linecap="round" stroke-linejoin="round"/>
    <path d="M 35.20859909057617 126.21700286865234 C 20.2544002532959 156.0590057373047 47.23749923706055 130.6020050048828 33.78950119018555 166.05299377441406" stroke-width="3.0" fill="none" stroke="rgb(0, 0, 0)" stroke-opacity="1" stroke-linecap="round" stroke-linejoin="round"/>
    <path d="M 98.93379974365234 154.2259979248047 C 104.38899993896484 159.77200317382812 93.98470306396484 162.13499450683594 106.48600006103516 146.218994140625" stroke-width="3.0" fill="none" stroke="rgb(0, 0, 0)" stroke-opacity="1" stroke-linecap="round" stroke-linejoin="round"/>
    <path d="M 233.33599853515625 142.28199768066406 C 213.13900756835938 141.0330047607422 222.41200256347656 141.08700561523438 205.29400634765625 160.47900390625" stroke-width="3.0" fill="none" stroke="rgb(0, 0, 0)" stroke-opacity="1" stroke-linecap="round" stroke-linejoin="round"/>
    <path d="M 108.9990005493164 174.11700439453125 C 105.68699645996094 131.34500122070312 128.93499755859375 144.53199768066406 109.2490005493164 174.55799865722656" stroke-width="3.0" fill="none" stroke="rgb(0, 0, 0)" stroke-opacity="1" stroke-linecap="round" stroke-linejoin="round"/>
    <path d="M 131.3419952392578 157.08700561523438 C 134.96600341796875 176.55599975585938 130.65499877929688 182.07200622558594 137.47300720214844 164.14700317382812" stroke-width="3.0" fill="none" stroke="rgb(0, 0, 0)" stroke-opacity="1" stroke-linecap="round" stroke-linejoin="round"/>
    <path d="M 25.60930061340332 104.8759994506836 C 17.221599578857422 140.27200317382812 20.242000579833984 106.28600311279297 34.99340057373047 152.98699951171875" stroke-width="3.0" fill="none" stroke="rgb(0, 0, 0)" stroke-opacity="1" stroke-linecap="round" stroke-linejoin="round"/>
    <path d="M 118.25900268554688 171.11399841308594 C 136.22500610351562 180.4149932861328 123.89800262451172 139.2779998779297 111.44100189208984 141.4550018310547" stroke-width="3.0" fill="none" stroke="rgb(0, 0, 0)" stroke-opacity="1" stroke-linecap="round" stroke-linejoin="round"/>
    <path d="M 54.18899917602539 163.03500366210938 C 27.893800735473633 80.25440216064453 63.86349868774414 97.42489624023438 34.93769836425781 128.38600158691406" stroke-width="3.0" fill="none" stroke="rgb(0, 0, 0)" stroke-opacity="1" stroke-linecap="round" stroke-linejoin="round"/>
    <path d="M 114.85700225830078 163.43600463867188 C 104.81099700927734 138.3040008544922 113.31700134277344 137.6280059814453 125.84600067138672 143.47799682617188" stroke-width="3.0" fill="none" stroke="rgb(0, 0, 0)" stroke-opacity="1" stroke-linecap="round" stroke-linejoin="round"/>
    <path d="M 146.0290069580078 107.28800201416016 C 136.31199645996094 144.82899475097656 135.3990020751953 131.79299926757812 133.14999389648438 113.07599639892578" stroke-width="3.0" fill="none" stroke="rgb(0, 0, 0)" stroke-opacity="1" stroke-linecap="round" stroke-linejoin="round"/>
    <path d="M 129.42100524902344 180.03199768066406 C 109.88700103759766 187.46800231933594 101.75499725341797 172.1540069580078 102.64399719238281 156.59100341796875" stroke-width="3.0" fill="none" stroke="rgb(0, 0, 0)" stroke-opacity="1" stroke-linecap="round" stroke-linejoin="round"/>
    <path d="M 97.78230285644531 161.94900512695312 C 122.70500183105469 140.0489959716797 135.322998046875 169.7429962158203 130.1739959716797 160.93299865722656" stroke-width="3.0" fill="none" stroke="rgb(0, 0, 0)" stroke-opacity="1" stroke-linecap="round" stroke-linejoin="round"/>
    <path d="M 42.124298095703125 110.93099975585938 C 50.19169998168945 127.9530029296875 42.69419860839844 128.03399658203125 62.513301849365234 106.00599670410156" stroke-width="3.0" fill="none" stroke="rgb(0, 0, 0)" stroke-opacity="1" stroke-linecap="round" stroke-linejoin="round"/>
    <path d="M 113.54100036621094 180.32699584960938 C 120.84700012207031 162.63699340820312 133.21800231933594 176.18600463867188 116.25800323486328 182.68899536132812" stroke-width="3.0" fill="none" stroke="rgb(0, 0, 0)" stroke-opacity="1" stroke-linecap="round" stroke-linejoin="round"/>
    <path d="M 147.31100463867188 147.75999450683594 C 137.1219940185547 139.72999572753906 142.14300537109375 133.92300415039062 87.98709869384766 124.59300231933594" stroke-width="3.0" fill="none" stroke="rgb(0, 0, 0)" stroke-opacity="1" stroke-linecap="round" stroke-linejoin="round"/>
    <path d="M 100.61799621582031 168.83799743652344 C 112.45800018310547 144.36599731445312 127.73999786376953 146.60299682617188 131.73699951171875 161.4320068359375" stroke-width="3.0" fill="none" stroke="rgb(0, 0, 0)" stroke-opacity="1" stroke-linecap="round" stroke-linejoin="round"/>
    <path d="M 134.05599975585938 105.63800048828125 C 124.38099670410156 145.69400024414062 158.49099731445312 110.1719970703125 142.9739990234375 97.7426986694336" stroke-width="3.0" fill="none" stroke="rgb(0, 0, 0)" stroke-opacity="1" stroke-linecap="round" stroke-linejoin="round"/>
    <path d="M 99.08920288085938 164.76699829101562 C 111.66500091552734 184.83900451660156 118.35099792480469 159.77000427246094 119.43599700927734 147.26199340820312" stroke-width="3.0" fill="none" stroke="rgb(0, 0, 0)" stroke-opacity="1" stroke-linecap="round" stroke-linejoin="round"/>
    <path d="M 126.73500061035156 147.94000244140625 C 118.72699737548828 168.9530029296875 94.77839660644531 143.27699279785156 115.34600067138672 144.093994140625" stroke-width="3.0" fill="none" stroke="rgb(0, 0, 0)" stroke-opacity="1" stroke-linecap="round" stroke-linejoin="round"/>
    <path d="M 213.15499877929688 116.66000366210938 C 222.64999389648438 109.71099853515625 213.69400024414062 129.3769989013672 230.43499755859375 95.10009765625" stroke-width="3.0" fill="none" stroke="rgb(0, 0, 0)" stroke-opacity="1" stroke-linecap="round" stroke-linejoin="round"/>
    <path d="M 152.50399780273438 132.18899536132812 C 166.55299377441406 141.68499755859375 141.16600036621094 136.25900268554688 159.41799926757812 136.1840057373047" stroke-width="3.0" fill="none" stroke="rgb(0, 0, 0)" stroke-opacity="1" stroke-linecap="round" stroke-linejoin="round"/>
    <path d="M 43.75790023803711 140.6790008544922 C 50.657901763916016 179.75100708007812 54.06890106201172 155.5050048828125 56.93470001220703 179.0290069580078" stroke-width="3.0" fill="none" stroke="rgb(0, 0, 0)" stroke-opacity="1" stroke-linecap="round" stroke-linejoin="round"/>
    <path d="M 146.90899658203125 132.57000732421875 C 117.78399658203125 158.88299560546875 108.54199981689453 140.6479949951172 123.70700073242188 153.92599487304688" stroke-width="3.0" fill="none" stroke="rgb(0, 0, 0)" stroke-opacity="1" stroke-linecap="round" stroke-linejoin="round"/>
    <path d="M 51.73789978027344 158.6179962158203 C 62.85940170288086 191.48899841308594 47.847801208496094 174.0290069580078 61.75429916381836 179.94900512695312" stroke-width="3.0" fill="none" stroke="rgb(0, 0, 0)" stroke-opacity="1" stroke-linecap="round" stroke-linejoin="round"/>
    <path d="M 38.75510025024414 100.7699966430664 C 38.77370071411133 82.78690338134766 43.41590118408203 94.98609924316406 25.287700653076172 106.66200256347656" stroke-width="3.0" fill="none" stroke="rgb(0, 0, 0)" stroke-opacity="1" stroke-linecap="round" stroke-linejoin="round"/>
    <path d="M 34.54880142211914 89.86840057373047 C 42.794498443603516 82.9834976196289 35.964698791503906 95.76249694824219 52.43069839477539 117.74199676513672" stroke-width="3.0" fill="none" stroke="rgb(0, 0, 0)" stroke-opacity="1" stroke-linecap="round" stroke-linejoin="round"/>
    <path d="M 219.78500366210938 99.94869995117188 C 226.70599365234375 99.0166015625 229.26600646972656 127.44999694824219 229.7899932861328 143.7740020751953" stroke-width="3.0" fill="none" stroke="rgb(0, 0, 0)" stroke-opacity="1" stroke-linecap="round" stroke-linejoin="round"/>
    <path d="M 161.89599609375 135.0970001220703 C 116.13899993896484 141.47799682617188 117.68599700927734 141.01400756835938 135.14500427246094 166.38900756835938" stroke-width="3.0" fill="none" stroke="rgb(0, 0, 0)" stroke-opacity="1" stroke-linecap="round" stroke-linejoin="round"/>
    <path d="M 101.03600311279297 161.2949981689453 C 127.04399871826172 154.28799438476562 131.1739959716797 154.23599243164062 116.01300048828125 152.68299865722656" stroke-width="3.0" fill="none" stroke="rgb(0, 0, 0)" stroke-opacity="1" stroke-linecap="round" stroke-linejoin="round"/>
    <path d="M 104.93399810791016 158.37399291992188 C 135.67599487304688 152.27999877929688 109.677001953125 140.81399536132812 118.01899719238281 177.14300537109375" stroke-width="3.0" fill="none" stroke="rgb(0, 0, 0)" stroke-opacity="1" stroke-linecap="round" stroke-linejoin="round"/>
    <path d="M 153.66000366210938 182.7729949951172 C 152.9510040283203 134.7790069580078 159.5570068359375 151.25 150.98699951171875 131.54299926757812" stroke-width="3.0" fill="none" stroke="rgb(0, 0, 0)" stroke-opacity="1" stroke-linecap="round" stroke-linejoin="round"/>
    <path d="M 126.16899871826172 174.82899475097656 C 94.40679931640625 176.48399353027344 108.9800033569336 178.2209930419922 109.83100128173828 163.69200134277344" stroke-width="3.0" fill="none" stroke="rgb(0, 0, 0)" stroke-opacity="1" stroke-linecap="round" stroke-linejoin="round"/>
    <path d="M 123.50399780273438 155.9949951171875 C 125.8489990234375 167.63400268554688 134.0659942626953 133.67300415039062 112.20999908447266 147.36599731445312" stroke-width="3.0" fill="none" stroke="rgb(0, 0, 0)" stroke-opacity="1" stroke-linecap="round" stroke-linejoin="round"/>
    <path d="M 199.54600524902344 133.177001953125 C 205.906005859375 112.69499969482422 193.88299560546875 133.78700256347656 213.90499877929688 104.5739974975586" stroke-width="3.0" fill="none" stroke="rgb(0, 0, 0)" stroke-opacity="1" stroke-linecap="round" stroke-linejoin="round"/>
    <path d="M 130.23800659179688 175.42100524902344 C 130.8939971923828 148.58900451660156 125.48799896240234 154.29400634765625 128.4409942626953 163.08999633789062" stroke-width="3.0" fill="none" stroke="rgb(0, 0, 0)" stroke-opacity="1" stroke-linecap="round" stroke-linejoin="round"/>
    <path d="M 111.18399810791016 173.5279998779297 C 140.01699829101562 161.0919952392578 146.697998046875 154.71400451660156 109.7239990234375 142.77200317382812" stroke-width="3.0" fill="none" stroke="rgb(0, 0, 0)" stroke-opacity="1" stroke-linecap="round" stroke-linejoin="round"/>
    <path d="M 226.24200439453125 187.8280029296875 C 207.35000610351562 156.906005859375 217.718994140625 156.63699340820312 222.5659942626953 139.73599243164062" stroke-width="3.0" fill="none" stroke="rgb(0, 0, 0)" stroke-opacity="1" stroke-linecap="round" stroke-linejoin="round"/>
    <path d="M 117.32599639892578 180.35400390625 C 98.36689758300781 175.2030029296875 104.81300354003906 179.9250030517578 130.2790069580078 165.3820037841797" stroke-width="3.0" fill="none" stroke="rgb(0, 0, 0)" stroke-opacity="1" stroke-linecap="round" stroke-linejoin="round"/>
    <path d="M 218.30799865722656 171.2239990234375 C 202.89300537109375 154.74200439453125 216.5760040283203 150.09100341796875 184.71200561523438 185.8300018310547" stroke-width="3.0" fill="none" stroke="rgb(0, 0, 0)" stroke-opacity="1" stroke-linecap="round" stroke-linejoin="round"/>
    <path d="M 217.46600341796875 141.45399475097656 C 213.33999633789062 116.12699890136719 209.29200744628906 104.40799713134766 209.052001953125 114.66100311279297" stroke-width="3.0" fill="none" stroke="rgb(0, 0, 0)" stroke-opacity="1" stroke-linecap="round" stroke-linejoin="round"/>
    <path d="M 119.14900207519531 141.20199584960938 C 153.41200256347656 141.92599487304688 161.177001953125 140.24000549316406 153.1699981689453 139.51600646972656" stroke-width="3.0" fill="none" stroke="rgb(0, 0, 0)" stroke-opacity="1" stroke-linecap="round" stroke-linejoin="round"/>
    <path d="M 123.03199768066406 158.04100036621094 C 109.32099914550781 141.7480010986328 103.6989974975586 150.91000366210938 108.28299713134766 170.51199340820312" stroke-width="3.0" fill="none" stroke="rgb(0, 0, 0)" stroke-opacity="1" stroke-linecap="round" stroke-linejoin="round"/>
    <path d="M 130.63299560546875 182.53199768066406 C 103.22599792480469 188.0659942626953 99.05069732666016 168.11300659179688 119.56099700927734 170.88999938964844" stroke-width="3.0" fill="none" stroke="rgb(0, 0, 0)" stroke-opacity="1" stroke-linecap="round" stroke-linejoin="round"/>
    <path d="M 130.71600341796875 95.13059997558594 C 154.29200744628906 99.0916976928711 116.49700164794922 91.05010223388672 135.35899353027344 112.88600158691406" stroke-width="3.0" fill="none" stroke="rgb(0, 0, 0)" stroke-opacity="1" stroke-linecap="round" stroke-linejoin="round"/>
    <path d="M 130.28900146484375 156.0469970703125 C 133.4949951171875 147.1060028076172 114.33799743652344 150.64599609375 122.64900207519531 159.15899658203125" stroke-width="3.0" fill="none" stroke="rgb(0, 0, 0)" stroke-opacity="1" stroke-linecap="round" stroke-linejoin="round"/>
    <path d="M 214.4010009765625 98.9751968383789 C 212.54600524902344 83.83519744873047 232.14199829101562 99.85700225830078 217.03500366210938 94.9208984375" stroke-width="3.0" fill="none" stroke="rgb(0, 0, 0)" stroke-opacity="1" stroke-linecap="round" stroke-linejoin="round"/>
  </g>
</svg>
