<svg height="256" version="1.1" width="256" xmlns="http://www.w3.org/2000/svg">
  <defs/>
  <g>
    <path d="M41.8273 167.456C41.4428 188.918 39.8958 177.478 57.1505 163.902" fill="none" stroke="rgb(0, 0, 0)" stroke-linecap="round" stroke-linejoin="round" stroke-opacity="1.0" stroke-width="3"/>
    <path d="M57.3286 186.209C58.4539 195.566 67.6088 176.839 57.6081 190.057" fill="none" stroke="rgb(0, 0, 0)" stroke-linecap="round" stroke-linejoin="round" stroke-opacity="1.0" stroke-width="3"/>
    <path d="M35.2733 179.222C52.6316 174.239 44.2543 173.554 58.3583 164.67" fill="none" stroke="rgb(0, 0, 0)" stroke-linecap="round" stroke-linejoin="round" stroke-opacity="1.0" stroke-width="3"/>
    <path d="M41.4293 176.37C41.0377 176.191 51.2115 168.295 41.6467 175.098" fill="none" stroke="rgb(0, 0, 0)" stroke-linecap="round" stroke-linejoin="round" stroke-opacity="1.0" stroke-width="3"/>
    <path d="M45.0551 171.252C39.452 169.883 51.3235 164.469 64.6805 147.969" fill="none" stroke="rgb(0, 0, 0)" stroke-linecap="round" stroke-linejoin="round" stroke-opacity="1.0" stroke-width="3"/>
    <path d="M52.2116 169.171C50.8971 188.358 60.0933 185.529 32.5322 178.798" fill="none" stroke="rgb(0, 0, 0)" stroke-linecap="round" stroke-linejoin="round" stroke-opacity="1.0" stroke-width="3"/>
    <path d="M50.9084 166.815C74.8785 145.748 70.8553 155.258 50.8135 170.151" fill="none" stroke="rgb(0, 0, 0)" stroke-linecap="round" stroke-linejoin="round" stroke-opacity="1.0" stroke-width="3"/>
    <path d="M29.9918 159.268C33.3676 197.622 38.6517 183.813 22.4849 180.6" fill="none" stroke="rgb(0, 0, 0)" stroke-linecap="round" stroke-linejoin="round" stroke-opacity="1.0" stroke-width="3"/>
    <path d="M19.764 193.354C19.7902 201.794 27.2493 200.386 33.7594 185.174" fill="none" stroke="rgb(0, 0, 0)" stroke-linecap="round" stroke-linejoin="round" stroke-opacity="1.0" stroke-width="3"/>
    <path d="M63.6556 151.412C62.4268 168.952 69.0812 166.274 57.2377 162.73" fill="none" stroke="rgb(0, 0, 0)" stroke-linecap="round" stroke-linejoin="round" stroke-opacity="1.0" stroke-width="3"/>
    <path d="M68.4364 194.303C51.2081 180.219 52.3403 163.838 62.611 204.175" fill="none" stroke="rgb(0, 0, 0)" stroke-linecap="round" stroke-linejoin="round" stroke-opacity="1.0" stroke-width="3"/>
    <path d="M37.2612 200.9C28.3974 180.11 38.6593 175.843 28.3974 209.964" fill="none" stroke="rgb(0, 0, 0)" stroke-linecap="round" stroke-linejoin="round" stroke-opacity="1.0" stroke-width="3"/>
    <path d="M57.9085 183.076C62.8998 158.578 57.8054 148.029 41.3233 170.312" fill="none" stroke="rgb(0, 0, 0)" stroke-linecap="round" stroke-linejoin="round" stroke-opacity="1.0" stroke-width="3"/>
    <path d="M50.1092 171.058C40.5488 176.498 52.0729 166.906 40.0214 170.616" fill="none" stroke="rgb(0, 0, 0)" stroke-linecap="round" stroke-linejoin="round" stroke-opacity="1.0" stroke-width="3"/>
    <path d="M63.9814 208.587C46.683 204.195 68.0092 216.982 71.3285 189.151" fill="none" stroke="rgb(0, 0, 0)" stroke-linecap="round" stroke-linejoin="round" stroke-opacity="1.0" stroke-width="3"/>
    <path d="M106.358 125.513C111.974 121.893 116.595 126.423 94.4266 134.48" fill="none" stroke="rgb(0, 0, 0)" stroke-linecap="round" stroke-linejoin="round" stroke-opacity="1.0" stroke-width="3"/>
    <path d="M85.5455 122.872C108.926 122.073 89.5421 118.266 108.153 118.54" fill="none" stroke="rgb(0, 0, 0)" stroke-linecap="round" stroke-linejoin="round" stroke-opacity="1.0" stroke-width="3"/>
    <path d="M39.1426 183.421C65.6928 187.501 39.5442 182.557 57.2172 208.165" fill="none" stroke="rgb(0, 0, 0)" stroke-linecap="round" stroke-linejoin="round" stroke-opacity="1.0" stroke-width="3"/>
    <path d="M42.1028 179.181C61.0651 184.898 54.6854 190.099 20.8221 180.047" fill="none" stroke="rgb(0, 0, 0)" stroke-linecap="round" stroke-linejoin="round" stroke-opacity="1.0" stroke-width="3"/>
    <path d="M29.5125 211C42.1147 207.091 42.7273 174.599 42.6119 169.591" fill="none" stroke="rgb(0, 0, 0)" stroke-linecap="round" stroke-linejoin="round" stroke-opacity="1.0" stroke-width="3"/>
    <path d="M38.0568 189.075C38.3712 174.973 71.8956 192.998 41.8727 188.44" fill="none" stroke="rgb(0, 0, 0)" stroke-linecap="round" stroke-linejoin="round" stroke-opacity="1.0" stroke-width="3"/>
    <path d="M52.5066 165.634C41.3558 181.081 35.4017 181.642 23.1106 171.562" fill="none" stroke="rgb(0, 0, 0)" stroke-linecap="round" stroke-linejoin="round" stroke-opacity="1.0" stroke-width="3"/>
    <path d="M50.9198 167.343C57.0124 170.031 53.4516 194.694 51.2844 187.846" fill="none" stroke="rgb(0, 0, 0)" stroke-linecap="round" stroke-linejoin="round" stroke-opacity="1.0" stroke-width="3"/>
    <path d="M19.0879 180.811C17.5187 218.694 37.7092 212.709 20.2596 202.52" fill="none" stroke="rgb(0, 0, 0)" stroke-linecap="round" stroke-linejoin="round" stroke-opacity="1.0" stroke-width="3"/>
    <path d="M50.5847 172.219C64.7421 160.912 61.2782 170.786 61.2745 155.758" fill="none" stroke="rgb(0, 0, 0)" stroke-linecap="round" stroke-linejoin="round" stroke-opacity="1.0" stroke-width="3"/>
    <path d="M59.6635 162.767C40.6374 172.274 56.8828 167.205 44.2691 174.639" fill="none" stroke="rgb(0, 0, 0)" stroke-linecap="round" stroke-linejoin="round" stroke-opacity="1.0" stroke-width="3"/>
    <path d="M85.4515 129.003C92.5815 130.703 101.278 125.735 86.5503 141.012" fill="none" stroke="rgb(0, 0, 0)" stroke-linecap="round" stroke-linejoin="round" stroke-opacity="1.0" stroke-width="3"/>
    <path d="M60.9675 182.759C57.0578 180.555 70.1504 183.447 50.799 179.268" fill="none" stroke="rgb(0, 0, 0)" stroke-linecap="round" stroke-linejoin="round" stroke-opacity="1.0" stroke-width="3"/>
    <path d="M36.3206 165.04C30.0587 191.643 34.9517 169.32 63.1429 153.392" fill="none" stroke="rgb(0, 0, 0)" stroke-linecap="round" stroke-linejoin="round" stroke-opacity="1.0" stroke-width="3"/>
    <path d="M94.0117 117C106.332 124.569 102.4 114.938 104.632 125.873" fill="none" stroke="rgb(0, 0, 0)" stroke-linecap="round" stroke-linejoin="round" stroke-opacity="1.0" stroke-width="3"/>
    <path d="M70.0688 171.502C54.0882 190.615 61.5703 190.694 48.121 182.644" fill="none" stroke="rgb(0, 0, 0)" stroke-linecap="round" stroke-linejoin="round" stroke-opacity="1.0" stroke-width="3"/>
    <path d="M40.3769 177.491C59.93 186.091 48.5431 174.222 40.0752 171.269" fill="none" stroke="rgb(0, 0, 0)" stroke-linecap="round" stroke-linejoin="round" stroke-opacity="1.0" stroke-width="3"/>
    <path d="M50.5923 183.694C53.4879 205.575 56.7395 190.178 60.8769 157.381" fill="none" stroke="rgb(0, 0, 0)" stroke-linecap="round" stroke-linejoin="round" stroke-opacity="1.0" stroke-width="3"/>
    <path d="M60.8629 188.393C66.2316 176.625 49.4066 172.99 56.8482 187.312" fill="none" stroke="rgb(0, 0, 0)" stroke-linecap="round" stroke-linejoin="round" stroke-opacity="1.0" stroke-width="3"/>
    <path d="M64.6058 157.407C76.3568 158.014 67.814 127.473 63 153.555" fill="none" stroke="rgb(0, 0, 0)" stroke-linecap="round" stroke-linejoin="round" stroke-opacity="1.0" stroke-width="3"/>
    <path d="M53.6664 179.691C34.3484 183.465 46.6858 178.63 34.3672 156.826" fill="none" stroke="rgb(0, 0, 0)" stroke-linecap="round" stroke-linejoin="round" stroke-opacity="1.0" stroke-width="3"/>
    <path d="M51.1917 172.807C39.5707 181.43 39.4349 171.915 53.1896 181.666" fill="none" stroke="rgb(0, 0, 0)" stroke-linecap="round" stroke-linejoin="round" stroke-opacity="1.0" stroke-width="3"/>
    <path d="M57.8987 183.253C67.1203 170.345 63.1125 152.311 69.953 171.434" fill="none" stroke="rgb(0, 0, 0)" stroke-linecap="round" stroke-linejoin="round" stroke-opacity="1.0" stroke-width="3"/>
    <path d="M99.5859 132.317C107.451 128.541 107.501 123.466 98.7303 129.799" fill="none" stroke="rgb(0, 0, 0)" stroke-linecap="round" stroke-linejoin="round" stroke-opacity="1.0" stroke-width="3"/>
    <path d="M88.9888 121.528C93.0807 117.263 91.5828 124.121 80.6182 126.483" fill="none" stroke="rgb(0, 0, 0)" stroke-linecap="round" stroke-linejoin="round" stroke-opacity="1.0" stroke-width="3"/>
    <path d="M40.4461 167.855C68.7112 146.615 63.2142 142.498 66.554 153.674" fill="none" stroke="rgb(0, 0, 0)" stroke-linecap="round" stroke-linejoin="round" stroke-opacity="1.0" stroke-width="3"/>
    <path d="M44.7562 175.209C54.1446 182.561 56.7267 186.153 40.211 177.872" fill="none" stroke="rgb(0, 0, 0)" stroke-linecap="round" stroke-linejoin="round" stroke-opacity="1.0" stroke-width="3"/>
    <path d="M99.4818 127.473C91.7662 134.527 83.9495 134.003 89.7596 127.912" fill="none" stroke="rgb(0, 0, 0)" stroke-linecap="round" stroke-linejoin="round" stroke-opacity="1.0" stroke-width="3"/>
    <path d="M92.6642 130.876C100.827 126.905 106.754 116.738 96.7221 131.544" fill="none" stroke="rgb(0, 0, 0)" stroke-linecap="round" stroke-linejoin="round" stroke-opacity="1.0" stroke-width="3"/>
    <path d="M38.1637 198.628C40.9653 178.553 43.3157 176.213 21.8863 174.349" fill="none" stroke="rgb(0, 0, 0)" stroke-linecap="round" stroke-linejoin="round" stroke-opacity="1.0" stroke-width="3"/>
    <path d="M92.4815 135.811C105.401 129.455 95.9251 129.774 82.0619 136.295" fill="none" stroke="rgb(0, 0, 0)" stroke-linecap="round" stroke-linejoin="round" stroke-opacity="1.0" stroke-width="3"/>
    <path d="M97.7902 124.889C93.1724 133.666 76.3934 133.847 90.9069 130.662" fill="none" stroke="rgb(0, 0, 0)" stroke-linecap="round" stroke-linejoin="round" stroke-opacity="1.0" stroke-width="3"/>
    <path d="M77 132.911C81.5073 129.053 78.2638 134.409 80.9604 128.831" fill="none" stroke="rgb(0, 0, 0)" stroke-linecap="round" stroke-linejoin="round" stroke-opacity="1.0" stroke-width="3"/>
    <path d="M103.236 122.693C102.791 133.276 98.4137 126.673 102.079 125.579" fill="none" stroke="rgb(0, 0, 0)" stroke-linecap="round" stroke-linejoin="round" stroke-opacity="1.0" stroke-width="3"/>
    <path d="M44.3873 181.512C50.0393 167.725 47.2496 163.807 44.0429 175.834" fill="none" stroke="rgb(0, 0, 0)" stroke-linecap="round" stroke-linejoin="round" stroke-opacity="1.0" stroke-width="3"/>
    <path d="M103.029 136.57C110.752 123.597 113.718 129.753 100.634 139.307" fill="none" stroke="rgb(0, 0, 0)" stroke-linecap="round" stroke-linejoin="round" stroke-opacity="1.0" stroke-width="3"/>
    <path d="M70.0067 152.993C56.5989 161.041 46.3611 171.682 67.5426 155.322" fill="none" stroke="rgb(0, 0, 0)" stroke-linecap="round" stroke-linejoin="round" stroke-opacity="1.0" stroke-width="3"/>
    <path d="M56.1074 203.384C56.6175 187.035 63.1171 170.125 52.1464 180.977" fill="none" stroke="rgb(0, 0, 0)" stroke-linecap="round" stroke-linejoin="round" stroke-opacity="1.0" stroke-width="3"/>
    <path d="M94.7894 119.06C87.6542 124.636 80.3794 127.287 94.7707 120.072" fill="none" stroke="rgb(0, 0, 0)" stroke-linecap="round" stroke-linejoin="round" stroke-opacity="1.0" stroke-width="3"/>
    <path d="M71.3527 185.784C70.0576 194.401 74.2203 179.549 69.2538 169.101" fill="none" stroke="rgb(0, 0, 0)" stroke-linecap="round" stroke-linejoin="round" stroke-opacity="1.0" stroke-width="3"/>
    <path d="M93.0818 121.213C92.2707 116.901 86.2361 123.339 80.3193 128.145" fill="none" stroke="rgb(0, 0, 0)" stroke-linecap="round" stroke-linejoin="round" stroke-opacity="1.0" stroke-width="3"/>
    <path d="M42.3306 176.598C42.4773 152.201 22.5204 145.274 19.4187 180.189" fill="none" stroke="rgb(0, 0, 0)" stroke-linecap="round" stroke-linejoin="round" stroke-opacity="1.0" stroke-width="3"/>
    <path d="M42.5301 171.657C47.7271 176.597 37.7774 175.569 52.4299 175.261" fill="none" stroke="rgb(0, 0, 0)" stroke-linecap="round" stroke-linejoin="round" stroke-opacity="1.0" stroke-width="3"/>
    <path d="M38.7083 184.511C57.7797 178.706 46.9149 176.164 55.2439 163.593" fill="none" stroke="rgb(0, 0, 0)" stroke-linecap="round" stroke-linejoin="round" stroke-opacity="1.0" stroke-width="3"/>
    <path d="M94.7502 120.923C90.7356 119.223 92.4525 120.017 90.57 122.523" fill="none" stroke="rgb(0, 0, 0)" stroke-linecap="round" stroke-linejoin="round" stroke-opacity="1.0" stroke-width="3"/>
    <path d="M92.6105 145C101.081 141.563 94.0416 138.474 98.4377 134.517" fill="none" stroke="rgb(0, 0, 0)" stroke-linecap="round" stroke-linejoin="round" stroke-opacity="1.0" stroke-width="3"/>
    <path d="M97.0992 134.445C84.7263 142.795 98.299 139.79 86.6249 139.65" fill="none" stroke="rgb(0, 0, 0)" stroke-linecap="round" stroke-linejoin="round" stroke-opacity="1.0" stroke-width="3"/>
    <path d="M127.877 106.675C121.736 100.713 137.225 105.098 124.838 109.689" fill="none" stroke="rgb(0, 0, 0)" stroke-linecap="round" stroke-linejoin="round" stroke-opacity="1.0" stroke-width="3"/>
    <path d="M127.091 102.429C116.136 106.581 135.436 117.645 120 105.514" fill="none" stroke="rgb(0, 0, 0)" stroke-linecap="round" stroke-linejoin="round" stroke-opacity="1.0" stroke-width="3"/>
    <path d="M124.179 111.436C112.294 99.6017 132.424 103.118 128.151 102.099" fill="none" stroke="rgb(0, 0, 0)" stroke-linecap="round" stroke-linejoin="round" stroke-opacity="1.0" stroke-width="3"/>
    <path d="M125.768 108.24C125.2 115.091 128.545 107.426 121.52 105.295" fill="none" stroke="rgb(0, 0, 0)" stroke-linecap="round" stroke-linejoin="round" stroke-opacity="1.0" stroke-width="3"/>
    <path d="M122.695 107.498C129.279 102.877 128.457 114.527 121.563 109.05" fill="none" stroke="rgb(0, 0, 0)" stroke-linecap="round" stroke-linejoin="round" stroke-opacity="1.0" stroke-width="3"/>
    <path d="M125.822 112.467C122.786 114.471 112.91 100.425 128.861 102.147" fill="none" stroke="rgb(0, 0, 0)" stroke-linecap="round" stroke-linejoin="round" stroke-opacity="1.0" stroke-width="3"/>
    <path d="M122.026 103.153C132.172 100.429 131.372 105.814 124.24 112.175" fill="none" stroke="rgb(0, 0, 0)" stroke-linecap="round" stroke-linejoin="round" stroke-opacity="1.0" stroke-width="3"/>
    <path d="M123.185 102.254C129.174 102.074 134.101 111.896 122.33 110.194" fill="none" stroke="rgb(0, 0, 0)" stroke-linecap="round" stroke-linejoin="round" stroke-opacity="1.0" stroke-width="3"/>
  </g>
</svg>
