<?xml version="1.0" ?>
<svg xmlns="http://www.w3.org/2000/svg" version="1.1" width="256" height="256">
  <defs/>
  <g>
    <path d="M 184.83200073242188 149.08399963378906 C 187.77000427246094 159.69500732421875 185.2259979248047 170.54400634765625 186.2310028076172 143.78700256347656" stroke-width="2.0" fill="none" stroke="rgb(0, 0, 0)" stroke-opacity="1" stroke-linecap="round" stroke-linejoin="round"/>
    <path d="M 203.052001953125 177.38900756835938 C 206.23199462890625 163.88299560546875 186.22300720214844 158.54600524902344 203.093994140625 168.44900512695312" stroke-width="2.0" fill="none" stroke="rgb(0, 0, 0)" stroke-opacity="1" stroke-linecap="round" stroke-linejoin="round"/>
    <path d="M 185.23800659179688 156.09100341796875 C 181.177001953125 164.0030059814453 183.96299743652344 160.4669952392578 186.58099365234375 158.10299682617188" stroke-width="2.0" fill="none" stroke="rgb(0, 0, 0)" stroke-opacity="1" stroke-linecap="round" stroke-linejoin="round"/>
    <path d="M 190.11300659179688 143.3249969482422 C 184.02000427246094 150.9759979248047 185.6479949951172 149.04800415039062 182.8179931640625 157.13999938964844" stroke-width="2.0" fill="none" stroke="rgb(0, 0, 0)" stroke-opacity="1" stroke-linecap="round" stroke-linejoin="round"/>
    <path d="M 198.43299865722656 125.67400360107422 C 199.31300354003906 125.25299835205078 195.72000122070312 114.37300109863281 200.69500732421875 134.12600708007812" stroke-width="2.0" fill="none" stroke="rgb(0, 0, 0)" stroke-opacity="1" stroke-linecap="round" stroke-linejoin="round"/>
    <path d="M 183.63800048828125 161.76100158691406 C 187.4409942626953 176.968994140625 182.63299560546875 155.5050048828125 185.28500366210938 159.01699829101562" stroke-width="2.0" fill="none" stroke="rgb(0, 0, 0)" stroke-opacity="1" stroke-linecap="round" stroke-linejoin="round"/>
    <path d="M 185.14199829101562 153.6510009765625 C 183.5679931640625 139.53500366210938 194.96499633789062 134.11900329589844 182.593994140625 152.32200622558594" stroke-width="2.0" fill="none" stroke="rgb(0, 0, 0)" stroke-opacity="1" stroke-linecap="round" stroke-linejoin="round"/>
    <path d="M 243.05999755859375 185.33700561523438 C 229.6219940185547 195.48399353027344 223.5970001220703 194.406005859375 241.927001953125 180.35699462890625" stroke-width="2.0" fill="none" stroke="rgb(0, 0, 0)" stroke-opacity="1" stroke-linecap="round" stroke-linejoin="round"/>
    <path d="M 221.26199340820312 190.54400634765625 C 239.62399291992188 197.91400146484375 236.66700744628906 181.86300659179688 245.17999267578125 181.6479949951172" stroke-width="2.0" fill="none" stroke="rgb(0, 0, 0)" stroke-opacity="1" stroke-linecap="round" stroke-linejoin="round"/>
    <path d="M 193.3679962158203 135.82699584960938 C 192.22900390625 138.13299560546875 180.51300048828125 142.2530059814453 191.33099365234375 138.87100219726562" stroke-width="2.0" fill="none" stroke="rgb(0, 0, 0)" stroke-opacity="1" stroke-linecap="round" stroke-linejoin="round"/>
    <path d="M 216.21600341796875 172.7760009765625 C 216.70899963378906 174.94500732421875 219.7100067138672 184.03799438476562 216.56199645996094 175.86099243164062" stroke-width="2.0" fill="none" stroke="rgb(0, 0, 0)" stroke-opacity="1" stroke-linecap="round" stroke-linejoin="round"/>
    <path d="M 186.06300354003906 161.12399291992188 C 181.11300659179688 160.61500549316406 185.71200561523438 159.81300354003906 171.5449981689453 133.24600219726562" stroke-width="2.0" fill="none" stroke="rgb(0, 0, 0)" stroke-opacity="1" stroke-linecap="round" stroke-linejoin="round"/>
    <path d="M 180.4770050048828 149.78799438476562 C 187.0709991455078 173.656005859375 185.4040069580078 164.11000061035156 185.5540008544922 163.46099853515625" stroke-width="2.0" fill="none" stroke="rgb(0, 0, 0)" stroke-opacity="1" stroke-linecap="round" stroke-linejoin="round"/>
    <path d="M 208.6840057373047 179.52999877929688 C 201.68099975585938 193.31500244140625 212.98199462890625 183.156005859375 201.03900146484375 203.52699279785156" stroke-width="2.0" fill="none" stroke="rgb(0, 0, 0)" stroke-opacity="1" stroke-linecap="round" stroke-linejoin="round"/>
    <path d="M 194.8979949951172 109.20700073242188 C 188.70799255371094 102.5469970703125 189.9510040283203 123.46600341796875 198.05599975585938 104.68199920654297" stroke-width="2.0" fill="none" stroke="rgb(0, 0, 0)" stroke-opacity="1" stroke-linecap="round" stroke-linejoin="round"/>
    <path d="M 161.5749969482422 125.1500015258789 C 149.42599487304688 122.56199645996094 154.99099731445312 122.75 168.93800354003906 127.7040023803711" stroke-width="2.0" fill="none" stroke="rgb(0, 0, 0)" stroke-opacity="1" stroke-linecap="round" stroke-linejoin="round"/>
    <path d="M 191.08700561523438 109.21600341796875 C 208.19400024414062 115.66799926757812 190.1840057373047 113.7249984741211 193.38400268554688 118.28099822998047" stroke-width="2.0" fill="none" stroke="rgb(0, 0, 0)" stroke-opacity="1" stroke-linecap="round" stroke-linejoin="round"/>
    <path d="M 246.1699981689453 182.5659942626953 C 222.4040069580078 190.33200073242188 225.0500030517578 189.4600067138672 245.62600708007812 179.91000366210938" stroke-width="2.0" fill="none" stroke="rgb(0, 0, 0)" stroke-opacity="1" stroke-linecap="round" stroke-linejoin="round"/>
    <path d="M 208.03799438476562 172.62899780273438 C 202.25599670410156 180.5570068359375 206.9409942626953 175.87600708007812 204.3179931640625 182.6739959716797" stroke-width="2.0" fill="none" stroke="rgb(0, 0, 0)" stroke-opacity="1" stroke-linecap="round" stroke-linejoin="round"/>
    <path d="M 245.2740020751953 179.69000244140625 C 241.99099731445312 179.22500610351562 239.8249969482422 175.83200073242188 236.0709991455078 186.30299377441406" stroke-width="2.0" fill="none" stroke="rgb(0, 0, 0)" stroke-opacity="1" stroke-linecap="round" stroke-linejoin="round"/>
    <path d="M 246.0449981689453 182.64199829101562 C 237.5540008544922 192.94400024414062 238.70399475097656 190.28900146484375 222.96600341796875 193.6959991455078" stroke-width="2.0" fill="none" stroke="rgb(0, 0, 0)" stroke-opacity="1" stroke-linecap="round" stroke-linejoin="round"/>
    <path d="M 221.96600341796875 189.48500061035156 C 213.00399780273438 172.36599731445312 221.63800048828125 181.93699645996094 213.3090057373047 167.24200439453125" stroke-width="2.0" fill="none" stroke="rgb(0, 0, 0)" stroke-opacity="1" stroke-linecap="round" stroke-linejoin="round"/>
    <path d="M 210.86900329589844 155.03199768066406 C 206.3939971923828 134.56399536132812 197.47300720214844 137.7209930419922 198.4219970703125 124.04900360107422" stroke-width="2.0" fill="none" stroke="rgb(0, 0, 0)" stroke-opacity="1" stroke-linecap="round" stroke-linejoin="round"/>
    <path d="M 198.8280029296875 195.4709930419922 C 185.7519989013672 179.56700134277344 189.09300231933594 179.73399353027344 184.197998046875 161.08099365234375" stroke-width="2.0" fill="none" stroke="rgb(0, 0, 0)" stroke-opacity="1" stroke-linecap="round" stroke-linejoin="round"/>
    <path d="M 163.37399291992188 126.05899810791016 C 150.5469970703125 127.41500091552734 146.7429962158203 115.38899993896484 162.10800170898438 125.51899719238281" stroke-width="2.0" fill="none" stroke="rgb(0, 0, 0)" stroke-opacity="1" stroke-linecap="round" stroke-linejoin="round"/>
    <path d="M 201.1510009765625 172.2429962158203 C 201.86099243164062 153.93099975585938 194.71800231933594 176.54400634765625 204.52699279785156 165.23699951171875" stroke-width="2.0" fill="none" stroke="rgb(0, 0, 0)" stroke-opacity="1" stroke-linecap="round" stroke-linejoin="round"/>
    <path d="M 200.85299682617188 101.0 C 193.67100524902344 110.4000015258789 194.38400268554688 101.05999755859375 189.60800170898438 106.26300048828125" stroke-width="2.0" fill="none" stroke="rgb(0, 0, 0)" stroke-opacity="1" stroke-linecap="round" stroke-linejoin="round"/>
    <path d="M 217.21099853515625 176.33900451660156 C 219.51300048828125 195.593994140625 235.4219970703125 188.76800537109375 240.5449981689453 182.05499267578125" stroke-width="2.0" fill="none" stroke="rgb(0, 0, 0)" stroke-opacity="1" stroke-linecap="round" stroke-linejoin="round"/>
    <path d="M 188.17799377441406 148.8260040283203 C 184.75599670410156 148.56700134277344 177.4040069580078 148.61900329589844 197.48199462890625 135.1199951171875" stroke-width="2.0" fill="none" stroke="rgb(0, 0, 0)" stroke-opacity="1" stroke-linecap="round" stroke-linejoin="round"/>
    <path d="M 182.8249969482422 127.74500274658203 C 188.8280029296875 136.97799682617188 183.38600158691406 134.23699951171875 186.96099853515625 149.93899536132812" stroke-width="2.0" fill="none" stroke="rgb(0, 0, 0)" stroke-opacity="1" stroke-linecap="round" stroke-linejoin="round"/>
    <path d="M 197.38800048828125 117.76699829101562 C 195.66299438476562 108.0 201.91900634765625 113.93000030517578 200.42999267578125 102.36900329589844" stroke-width="2.0" fill="none" stroke="rgb(0, 0, 0)" stroke-opacity="1" stroke-linecap="round" stroke-linejoin="round"/>
    <path d="M 204.70899963378906 168.14500427246094 C 206.6479949951172 165.85800170898438 197.43699645996094 182.16400146484375 206.9550018310547 169.13099670410156" stroke-width="2.0" fill="none" stroke="rgb(0, 0, 0)" stroke-opacity="1" stroke-linecap="round" stroke-linejoin="round"/>
    <path d="M 183.27499389648438 148.93899536132812 C 190.28199768066406 125.96099853515625 195.25399780273438 144.37100219726562 186.84800720214844 142.51400756835938" stroke-width="2.0" fill="none" stroke="rgb(0, 0, 0)" stroke-opacity="1" stroke-linecap="round" stroke-linejoin="round"/>
    <path d="M 185.5709991455078 149.44000244140625 C 185.447998046875 147.1280059814453 181.8090057373047 129.05499267578125 184.9340057373047 151.70399475097656" stroke-width="2.0" fill="none" stroke="rgb(0, 0, 0)" stroke-opacity="1" stroke-linecap="round" stroke-linejoin="round"/>
    <path d="M 185.52000427246094 118.89299774169922 C 177.95700073242188 100.03399658203125 191.18600463867188 107.91200256347656 193.68299865722656 116.2770004272461" stroke-width="2.0" fill="none" stroke="rgb(0, 0, 0)" stroke-opacity="1" stroke-linecap="round" stroke-linejoin="round"/>
    <path d="M 212.29100036621094 161.17999267578125 C 219.3509979248047 175.02200317382812 217.11399841308594 184.8040008544922 216.78700256347656 174.54299926757812" stroke-width="2.0" fill="none" stroke="rgb(0, 0, 0)" stroke-opacity="1" stroke-linecap="round" stroke-linejoin="round"/>
    <path d="M 180.95899963378906 152.6580047607422 C 189.468994140625 171.95199584960938 177.4029998779297 154.5679931640625 186.5800018310547 153.61700439453125" stroke-width="2.0" fill="none" stroke="rgb(0, 0, 0)" stroke-opacity="1" stroke-linecap="round" stroke-linejoin="round"/>
    <path d="M 204.1719970703125 167.71299743652344 C 198.01300048828125 178.8000030517578 208.26499938964844 160.71400451660156 203.79400634765625 170.01400756835938" stroke-width="2.0" fill="none" stroke="rgb(0, 0, 0)" stroke-opacity="1" stroke-linecap="round" stroke-linejoin="round"/>
    <path d="M 211.74400329589844 177.33599853515625 C 217.6269989013672 179.77999877929688 217.52499389648438 199.11000061035156 231.06100463867188 192.11500549316406" stroke-width="2.0" fill="none" stroke="rgb(0, 0, 0)" stroke-opacity="1" stroke-linecap="round" stroke-linejoin="round"/>
    <path d="M 185.56300354003906 164.9810028076172 C 189.7989959716797 158.0679931640625 180.9530029296875 163.27699279785156 189.73300170898438 173.38099670410156" stroke-width="2.0" fill="none" stroke="rgb(0, 0, 0)" stroke-opacity="1" stroke-linecap="round" stroke-linejoin="round"/>
    <path d="M 169.58700561523438 134.98899841308594 C 170.0050048828125 133.60899353027344 160.62399291992188 129.7550048828125 178.66700744628906 147.15499877929688" stroke-width="2.0" fill="none" stroke="rgb(0, 0, 0)" stroke-opacity="1" stroke-linecap="round" stroke-linejoin="round"/>
    <path d="M 183.81500244140625 140.24600219726562 C 185.427001953125 138.47300720214844 201.71299743652344 136.61700439453125 186.58399963378906 142.8159942626953" stroke-width="2.0" fill="none" stroke="rgb(0, 0, 0)" stroke-opacity="1" stroke-linecap="round" stroke-linejoin="round"/>
    <path d="M 198.1479949951172 168.05599975585938 C 207.30299377441406 165.5330047607422 199.91900634765625 178.0659942626953 202.21299743652344 165.68899536132812" stroke-width="2.0" fill="none" stroke="rgb(0, 0, 0)" stroke-opacity="1" stroke-linecap="round" stroke-linejoin="round"/>
    <path d="M 189.875 110.59300231933594 C 204.89100646972656 103.78099822998047 174.51499938964844 107.08300018310547 185.60000610351562 109.12000274658203" stroke-width="2.0" fill="none" stroke="rgb(0, 0, 0)" stroke-opacity="1" stroke-linecap="round" stroke-linejoin="round"/>
    <path d="M 184.28399658203125 159.5 C 192.64700317382812 161.00399780273438 180.02000427246094 151.76699829101562 186.0229949951172 170.43699645996094" stroke-width="2.0" fill="none" stroke="rgb(0, 0, 0)" stroke-opacity="1" stroke-linecap="round" stroke-linejoin="round"/>
    <path d="M 214.87399291992188 177.8350067138672 C 212.9080047607422 157.99400329589844 219.37100219726562 179.01100158691406 216.73599243164062 177.16900634765625" stroke-width="2.0" fill="none" stroke="rgb(0, 0, 0)" stroke-opacity="1" stroke-linecap="round" stroke-linejoin="round"/>
    <path d="M 179.21499633789062 140.6230010986328 C 179.0469970703125 125.71600341796875 166.96800231933594 128.32699584960938 161.79299926757812 124.55599975585938" stroke-width="2.0" fill="none" stroke="rgb(0, 0, 0)" stroke-opacity="1" stroke-linecap="round" stroke-linejoin="round"/>
    <path d="M 193.32699584960938 114.0009994506836 C 197.41299438476562 101.50800323486328 198.3000030517578 110.76399993896484 185.0290069580078 106.14800262451172" stroke-width="2.0" fill="none" stroke="rgb(0, 0, 0)" stroke-opacity="1" stroke-linecap="round" stroke-linejoin="round"/>
    <path d="M 183.41600036621094 122.58200073242188 C 187.8509979248047 114.25 189.843994140625 110.39700317382812 179.38900756835938 126.68000030517578" stroke-width="2.0" fill="none" stroke="rgb(0, 0, 0)" stroke-opacity="1" stroke-linecap="round" stroke-linejoin="round"/>
    <path d="M 165.57200622558594 131.55599975585938 C 163.7740020751953 129.23800659179688 180.2429962158203 151.61900329589844 174.72999572753906 132.7899932861328" stroke-width="2.0" fill="none" stroke="rgb(0, 0, 0)" stroke-opacity="1" stroke-linecap="round" stroke-linejoin="round"/>
    <path d="M 205.36700439453125 140.23599243164062 C 210.58900451660156 147.6580047607422 209.34500122070312 150.3679962158203 216.98500061035156 176.16600036621094" stroke-width="2.0" fill="none" stroke="rgb(0, 0, 0)" stroke-opacity="1" stroke-linecap="round" stroke-linejoin="round"/>
    <path d="M 197.6790008544922 122.25399780273438 C 197.70899963378906 134.56199645996094 196.5019989013672 137.06900024414062 200.96200561523438 107.36799621582031" stroke-width="2.0" fill="none" stroke="rgb(0, 0, 0)" stroke-opacity="1" stroke-linecap="round" stroke-linejoin="round"/>
    <path d="M 203.62600708007812 203.48300170898438 C 206.73199462890625 208.8990020751953 187.21400451660156 208.5850067138672 198.22300720214844 198.10400390625" stroke-width="2.0" fill="none" stroke="rgb(0, 0, 0)" stroke-opacity="1" stroke-linecap="round" stroke-linejoin="round"/>
    <path d="M 192.52200317382812 117.23200225830078 C 198.97900390625 123.73999786376953 188.18499755859375 107.0770034790039 195.59500122070312 118.15799713134766" stroke-width="2.0" fill="none" stroke="rgb(0, 0, 0)" stroke-opacity="1" stroke-linecap="round" stroke-linejoin="round"/>
    <path d="M 180.1179962158203 126.82599639892578 C 179.156005859375 130.18099975585938 179.78900146484375 135.4459991455078 159.1510009765625 120.37999725341797" stroke-width="2.0" fill="none" stroke="rgb(0, 0, 0)" stroke-opacity="1" stroke-linecap="round" stroke-linejoin="round"/>
    <path d="M 195.98699951171875 117.24800109863281 C 192.01499938964844 104.38899993896484 198.5989990234375 124.35800170898438 186.91799926757812 117.53399658203125" stroke-width="2.0" fill="none" stroke="rgb(0, 0, 0)" stroke-opacity="1" stroke-linecap="round" stroke-linejoin="round"/>
    <path d="M 217.48800659179688 178.281005859375 C 214.2169952392578 174.63600158691406 216.4810028076172 169.32000732421875 215.91099548339844 171.7469940185547" stroke-width="2.0" fill="none" stroke="rgb(0, 0, 0)" stroke-opacity="1" stroke-linecap="round" stroke-linejoin="round"/>
    <path d="M 171.46400451660156 129.625 C 187.93800354003906 126.23300170898438 176.61199951171875 142.08599853515625 188.44500732421875 144.3780059814453" stroke-width="2.0" fill="none" stroke="rgb(0, 0, 0)" stroke-opacity="1" stroke-linecap="round" stroke-linejoin="round"/>
    <path d="M 186.6300048828125 136.8040008544922 C 186.16400146484375 143.5019989013672 177.09300231933594 138.50799560546875 189.99400329589844 143.33700561523438" stroke-width="2.0" fill="none" stroke="rgb(0, 0, 0)" stroke-opacity="1" stroke-linecap="round" stroke-linejoin="round"/>
    <path d="M 152.27200317382812 128.53599548339844 C 172.94400024414062 133.4770050048828 151.93800354003906 120.9990005493164 176.80999755859375 146.1529998779297" stroke-width="2.0" fill="none" stroke="rgb(0, 0, 0)" stroke-opacity="1" stroke-linecap="round" stroke-linejoin="round"/>
    <path d="M 186.93800354003906 112.23300170898438 C 182.3769989013672 127.44000244140625 186.4429931640625 112.95099639892578 195.72300720214844 119.12200164794922" stroke-width="2.0" fill="none" stroke="rgb(0, 0, 0)" stroke-opacity="1" stroke-linecap="round" stroke-linejoin="round"/>
    <path d="M 173.20899963378906 135.76199340820312 C 161.93299865722656 119.0790023803711 150.84300231933594 134.01100158691406 154.30999755859375 126.46499633789062" stroke-width="2.0" fill="none" stroke="rgb(0, 0, 0)" stroke-opacity="1" stroke-linecap="round" stroke-linejoin="round"/>
    <path d="M 199.01300048828125 165.81900024414062 C 198.6739959716797 170.25 201.21200561523438 172.94500732421875 196.4669952392578 162.80799865722656" stroke-width="2.0" fill="none" stroke="rgb(0, 0, 0)" stroke-opacity="1" stroke-linecap="round" stroke-linejoin="round"/>
    <path d="M 160.23899841308594 127.31900024414062 C 174.3719940185547 125.06199645996094 147.7270050048828 115.24600219726562 152.91299438476562 124.10700225830078" stroke-width="2.0" fill="none" stroke="rgb(0, 0, 0)" stroke-opacity="1" stroke-linecap="round" stroke-linejoin="round"/>
    <path d="M 42.0 135.1790008544922 C 161.48399353027344 135.1790008544922 161.48399353027344 122.4020004272461 161.48399353027344 145.96299743652344" stroke-width="2.0" fill="none" stroke="rgb(0, 0, 0)" stroke-opacity="1" stroke-linecap="round" stroke-linejoin="round"/>
    <path d="M 160.63299560546875 148.56500244140625 C 41.14970016479492 148.56500244140625 44.967899322509766 157.947998046875 44.967899322509766 134.38800048828125" stroke-width="2.0" fill="none" stroke="rgb(0, 0, 0)" stroke-opacity="1" stroke-linecap="round" stroke-linejoin="round"/>
    <path d="M 75.77559661865234 209.21099853515625 C 75.77559661865234 149.17300415039062 70.9209976196289 151.09100341796875 83.1104965209961 151.09100341796875" stroke-width="2.0" fill="none" stroke="rgb(0, 0, 0)" stroke-opacity="1" stroke-linecap="round" stroke-linejoin="round"/>
    <path d="M 82.70089721679688 149.60000610351562 C 82.70089721679688 209.63800048828125 89.31120300292969 209.63800048828125 77.12169647216797 209.63800048828125" stroke-width="2.0" fill="none" stroke="rgb(0, 0, 0)" stroke-opacity="1" stroke-linecap="round" stroke-linejoin="round"/>
    <path d="M 120.61199951171875 148.8000030517578 C 120.61199951171875 211.20799255371094 112.1780014038086 211.20799255371094 127.7300033569336 211.20799255371094" stroke-width="2.0" fill="none" stroke="rgb(0, 0, 0)" stroke-opacity="1" stroke-linecap="round" stroke-linejoin="round"/>
    <path d="M 129.447998046875 210.76400756835938 C 129.447998046875 148.3560028076172 135.64199829101562 150.35000610351562 120.08999633789062 150.35000610351562" stroke-width="2.0" fill="none" stroke="rgb(0, 0, 0)" stroke-opacity="1" stroke-linecap="round" stroke-linejoin="round"/>
    <path d="M 47.0 106.1259994506836 C 60.95940017700195 122.63700103759766 32.938899993896484 78.32119750976562 62.51839828491211 118.7509994506836" stroke-width="2.0" fill="none" stroke="rgb(0, 0, 0)" stroke-opacity="1" stroke-linecap="round" stroke-linejoin="round"/>
    <path d="M 69.67669677734375 102.81900024414062 C 87.60230255126953 126.03099822998047 60.68949890136719 117.30599975585938 52.68769836425781 112.92500305175781" stroke-width="2.0" fill="none" stroke="rgb(0, 0, 0)" stroke-opacity="1" stroke-linecap="round" stroke-linejoin="round"/>
    <path d="M 78.97339630126953 136.0 C 87.48819732666016 115.31800079345703 93.10340118408203 117.76000213623047 50.04399871826172 120.11000061035156" stroke-width="2.0" fill="none" stroke="rgb(0, 0, 0)" stroke-opacity="1" stroke-linecap="round" stroke-linejoin="round"/>
    <path d="M 53.262001037597656 107.00800323486328 C 56.985599517822266 135.26400756835938 58.903499603271484 96.48179626464844 52.96500015258789 101.44499969482422" stroke-width="2.0" fill="none" stroke="rgb(0, 0, 0)" stroke-opacity="1" stroke-linecap="round" stroke-linejoin="round"/>
    <path d="M 84.28939819335938 133.6540069580078 C 91.47760009765625 124.91000366210938 41.554901123046875 148.8350067138672 50.31489944458008 117.50599670410156" stroke-width="2.0" fill="none" stroke="rgb(0, 0, 0)" stroke-opacity="1" stroke-linecap="round" stroke-linejoin="round"/>
    <path d="M 70.02339935302734 103.0719985961914 C 57.41669845581055 106.49299621582031 86.50060272216797 112.54000091552734 48.4838981628418 122.96499633789062" stroke-width="2.0" fill="none" stroke="rgb(0, 0, 0)" stroke-opacity="1" stroke-linecap="round" stroke-linejoin="round"/>
  </g>
</svg>
