<svg height="256" version="1.1" width="256" xmlns="http://www.w3.org/2000/svg">
  <defs/>
  <g>
    <path d="M131.653 128.949C127.607 132.754 126.768 137.345 131.969 126.688" fill="none" stroke="rgb(0, 0, 0)" stroke-linecap="round" stroke-linejoin="round" stroke-opacity="1.0" stroke-width="2"/>
    <path d="M114.683 137.789C115.719 132.071 128.775 132.497 116.596 134.265" fill="none" stroke="rgb(0, 0, 0)" stroke-linecap="round" stroke-linejoin="round" stroke-opacity="1.0" stroke-width="2"/>
    <path d="M129.893 131.655C130.594 135.282 129.704 133.538 128.659 132.278" fill="none" stroke="rgb(0, 0, 0)" stroke-linecap="round" stroke-linejoin="round" stroke-opacity="1.0" stroke-width="2"/>
    <path d="M129.761 126.015C131.726 129.796 131.175 128.831 131.105 132.374" fill="none" stroke="rgb(0, 0, 0)" stroke-linecap="round" stroke-linejoin="round" stroke-opacity="1.0" stroke-width="2"/>
    <path d="M128.637 118.017C128.205 117.74 132.701 113.912 125.461 121.058" fill="none" stroke="rgb(0, 0, 0)" stroke-linecap="round" stroke-linejoin="round" stroke-opacity="1.0" stroke-width="2"/>
    <path d="M129.616 134.089C124.059 139.595 131.569 131.753 129.232 132.801" fill="none" stroke="rgb(0, 0, 0)" stroke-linecap="round" stroke-linejoin="round" stroke-opacity="1.0" stroke-width="2"/>
    <path d="M130.479 130.707C134.474 125.349 128.87 121.779 132.283 130.505" fill="none" stroke="rgb(0, 0, 0)" stroke-linecap="round" stroke-linejoin="round" stroke-opacity="1.0" stroke-width="2"/>
    <path d="M101.002 140.667C88.4846 141.25 93.7219 135.305 88.7052 134.145" fill="none" stroke="rgb(0, 0, 0)" stroke-linecap="round" stroke-linejoin="round" stroke-opacity="1.0" stroke-width="2"/>
    <path d="M129.45 122.653C129.628 123.704 135.703 126.805 130.001 124.108" fill="none" stroke="rgb(0, 0, 0)" stroke-linecap="round" stroke-linejoin="round" stroke-opacity="1.0" stroke-width="2"/>
    <path d="M107.854 134.311C107.091 135.102 103.335 138.302 106.979 135.481" fill="none" stroke="rgb(0, 0, 0)" stroke-linecap="round" stroke-linejoin="round" stroke-opacity="1.0" stroke-width="2"/>
    <path d="M128.312 133.532C131.366 133.956 128.805 133.061 142.988 124.393" fill="none" stroke="rgb(0, 0, 0)" stroke-linecap="round" stroke-linejoin="round" stroke-opacity="1.0" stroke-width="2"/>
    <path d="M134.09 129.776C124.997 138.337 128.058 134.79 128.108 134.516" fill="none" stroke="rgb(0, 0, 0)" stroke-linecap="round" stroke-linejoin="round" stroke-opacity="1.0" stroke-width="2"/>
    <path d="M110.87 137.92C112.047 144.23 107.528 138.805 110.216 148.33" fill="none" stroke="rgb(0, 0, 0)" stroke-linecap="round" stroke-linejoin="round" stroke-opacity="1.0" stroke-width="2"/>
    <path d="M134.309 111.982C139.434 110.142 134.161 118.219 133.412 109.802" fill="none" stroke="rgb(0, 0, 0)" stroke-linecap="round" stroke-linejoin="round" stroke-opacity="1.0" stroke-width="2"/>
    <path d="M150.672 122.465C158.459 122.981 155.108 122.352 145.74 122.541" fill="none" stroke="rgb(0, 0, 0)" stroke-linecap="round" stroke-linejoin="round" stroke-opacity="1.0" stroke-width="2"/>
    <path d="M136.573 112.467C125.001 112.847 136.133 114.356 133.243 115.745" fill="none" stroke="rgb(0, 0, 0)" stroke-linecap="round" stroke-linejoin="round" stroke-opacity="1.0" stroke-width="2"/>
    <path d="M112.749 135.285C114.471 139.136 112.698 136.702 112.785 139.709" fill="none" stroke="rgb(0, 0, 0)" stroke-linecap="round" stroke-linejoin="round" stroke-opacity="1.0" stroke-width="2"/>
    <path d="M100.813 140.161C109.853 134.555 102.644 137.232 110.782 132.5" fill="none" stroke="rgb(0, 0, 0)" stroke-linecap="round" stroke-linejoin="round" stroke-opacity="1.0" stroke-width="2"/>
    <path d="M114.879 128.002C121.976 120.511 126.598 122.88 128.996 117.379" fill="none" stroke="rgb(0, 0, 0)" stroke-linecap="round" stroke-linejoin="round" stroke-opacity="1.0" stroke-width="2"/>
    <path d="M113.277 145.439C124.501 140.831 122.477 140.474 129.43 133.75" fill="none" stroke="rgb(0, 0, 0)" stroke-linecap="round" stroke-linejoin="round" stroke-opacity="1.0" stroke-width="2"/>
    <path d="M149.405 122.595C156.74 124.749 161.608 120.496 150.275 122.543" fill="none" stroke="rgb(0, 0, 0)" stroke-linecap="round" stroke-linejoin="round" stroke-opacity="1.0" stroke-width="2"/>
    <path d="M116.929 136.003C120.475 128.706 119.823 138.508 116.44 132.82" fill="none" stroke="rgb(0, 0, 0)" stroke-linecap="round" stroke-linejoin="round" stroke-opacity="1.0" stroke-width="2"/>
    <path d="M132.546 108C134.779 112.606 136.38 108.841 138.093 111.492" fill="none" stroke="rgb(0, 0, 0)" stroke-linecap="round" stroke-linejoin="round" stroke-opacity="1.0" stroke-width="2"/>
    <path d="M106.49 135.588C100.948 142.876 92.9659 138.18 91.3739 134.891" fill="none" stroke="rgb(0, 0, 0)" stroke-linecap="round" stroke-linejoin="round" stroke-opacity="1.0" stroke-width="2"/>
    <path d="M129.719 128.425C131.811 128.755 136.172 129.704 127.156 121.855" fill="none" stroke="rgb(0, 0, 0)" stroke-linecap="round" stroke-linejoin="round" stroke-opacity="1.0" stroke-width="2"/>
    <path d="M137.471 120.803C131.9 123.679 135.731 123.287 130.202 129.016" fill="none" stroke="rgb(0, 0, 0)" stroke-linecap="round" stroke-linejoin="round" stroke-opacity="1.0" stroke-width="2"/>
    <path d="M130.973 115.037C134.115 111.41 129.109 112.955 132.5 108.593" fill="none" stroke="rgb(0, 0, 0)" stroke-linecap="round" stroke-linejoin="round" stroke-opacity="1.0" stroke-width="2"/>
    <path d="M115.701 133.941C115.044 132.796 116.988 140.377 114.152 134.046" fill="none" stroke="rgb(0, 0, 0)" stroke-linecap="round" stroke-linejoin="round" stroke-opacity="1.0" stroke-width="2"/>
    <path d="M132.61 129.088C133.423 119.159 126.476 125.777 131.878 126.108" fill="none" stroke="rgb(0, 0, 0)" stroke-linecap="round" stroke-linejoin="round" stroke-opacity="1.0" stroke-width="2"/>
    <path d="M131.136 128.995C131.711 128.101 137.792 121.447 131.025 129.967" fill="none" stroke="rgb(0, 0, 0)" stroke-linecap="round" stroke-linejoin="round" stroke-opacity="1.0" stroke-width="2"/>
    <path d="M137.787 116.979C146.372 110.511 136.797 111.941 133.499 114.918" fill="none" stroke="rgb(0, 0, 0)" stroke-linecap="round" stroke-linejoin="round" stroke-opacity="1.0" stroke-width="2"/>
    <path d="M112.701 130.242C105.503 134.798 104.714 138.932 107.131 134.934" fill="none" stroke="rgb(0, 0, 0)" stroke-linecap="round" stroke-linejoin="round" stroke-opacity="1.0" stroke-width="2"/>
    <path d="M133.182 130.844C123.94 137.364 134.883 132.045 129.631 130.512" fill="none" stroke="rgb(0, 0, 0)" stroke-linecap="round" stroke-linejoin="round" stroke-opacity="1.0" stroke-width="2"/>
    <path d="M116.114 133.839C117.375 138.981 115.197 130.567 115.841 134.792" fill="none" stroke="rgb(0, 0, 0)" stroke-linecap="round" stroke-linejoin="round" stroke-opacity="1.0" stroke-width="2"/>
    <path d="M109.526 136.67C105.497 136.89 101.369 144.51 94.8342 140.048" fill="none" stroke="rgb(0, 0, 0)" stroke-linecap="round" stroke-linejoin="round" stroke-opacity="1.0" stroke-width="2"/>
    <path d="M127.774 135.113C126.752 131.857 130.884 135.025 123.473 137.893" fill="none" stroke="rgb(0, 0, 0)" stroke-linecap="round" stroke-linejoin="round" stroke-opacity="1.0" stroke-width="2"/>
    <path d="M143.775 125.326C143.825 124.73 150.24 124.398 135.738 128.968" fill="none" stroke="rgb(0, 0, 0)" stroke-linecap="round" stroke-linejoin="round" stroke-opacity="1.0" stroke-width="2"/>
    <path d="M134.174 125.598C133.599 124.697 124.315 121.91 131.97 126.26" fill="none" stroke="rgb(0, 0, 0)" stroke-linecap="round" stroke-linejoin="round" stroke-opacity="1.0" stroke-width="2"/>
    <path d="M119.622 134.735C114.725 132.585 116.4 138.451 117.717 133.29" fill="none" stroke="rgb(0, 0, 0)" stroke-linecap="round" stroke-linejoin="round" stroke-opacity="1.0" stroke-width="2"/>
    <path d="M136.995 113.162C129.542 108.585 146.891 113.72 139.857 113.122" fill="none" stroke="rgb(0, 0, 0)" stroke-linecap="round" stroke-linejoin="round" stroke-opacity="1.0" stroke-width="2"/>
    <path d="M129.722 133.117C124.422 132.653 133.934 130.612 126.317 137.202" fill="none" stroke="rgb(0, 0, 0)" stroke-linecap="round" stroke-linejoin="round" stroke-opacity="1.0" stroke-width="2"/>
    <path d="M107.556 136.471C113.025 128.91 104.627 136.366 106.593 135.974" fill="none" stroke="rgb(0, 0, 0)" stroke-linecap="round" stroke-linejoin="round" stroke-opacity="1.0" stroke-width="2"/>
    <path d="M136.827 126.328C140.158 120.481 146.776 123.034 150.671 122.204" fill="none" stroke="rgb(0, 0, 0)" stroke-linecap="round" stroke-linejoin="round" stroke-opacity="1.0" stroke-width="2"/>
    <path d="M134.204 114.067C134.481 108.634 131.948 112.165 140.84 112.024" fill="none" stroke="rgb(0, 0, 0)" stroke-linecap="round" stroke-linejoin="round" stroke-opacity="1.0" stroke-width="2"/>
    <path d="M138.239 118.696C137.407 114.857 137.057 113.089 139.746 120.817" fill="none" stroke="rgb(0, 0, 0)" stroke-linecap="round" stroke-linejoin="round" stroke-opacity="1.0" stroke-width="2"/>
    <path d="M146.907 124.482C148.478 123.796 133.833 130.526 141.193 123.811" fill="none" stroke="rgb(0, 0, 0)" stroke-linecap="round" stroke-linejoin="round" stroke-opacity="1.0" stroke-width="2"/>
    <path d="M121.359 122.873C116.644 125.135 116.796 126.358 106.662 135.548" fill="none" stroke="rgb(0, 0, 0)" stroke-linecap="round" stroke-linejoin="round" stroke-opacity="1.0" stroke-width="2"/>
    <path d="M129.828 116.766C127.142 121.607 127.317 122.747 131.101 110.493" fill="none" stroke="rgb(0, 0, 0)" stroke-linecap="round" stroke-linejoin="round" stroke-opacity="1.0" stroke-width="2"/>
    <path d="M108.687 147.986C105.666 149.727 117.342 152.067 113.066 146.551" fill="none" stroke="rgb(0, 0, 0)" stroke-linecap="round" stroke-linejoin="round" stroke-opacity="1.0" stroke-width="2"/>
    <path d="M133.983 115.44C128.732 117.187 138.763 111.992 131.955 115.417" fill="none" stroke="rgb(0, 0, 0)" stroke-linecap="round" stroke-linejoin="round" stroke-opacity="1.0" stroke-width="2"/>
    <path d="M139.28 120.783C139.126 122.225 137.607 124.218 153.147 120.893" fill="none" stroke="rgb(0, 0, 0)" stroke-linecap="round" stroke-linejoin="round" stroke-opacity="1.0" stroke-width="2"/>
    <path d="M131.918 115.01C137.068 110.45 128.824 117.478 137.25 116.267" fill="none" stroke="rgb(0, 0, 0)" stroke-linecap="round" stroke-linejoin="round" stroke-opacity="1.0" stroke-width="2"/>
    <path d="M105.904 136.317C108.64 135.295 108.445 132.917 108.259 133.944" fill="none" stroke="rgb(0, 0, 0)" stroke-linecap="round" stroke-linejoin="round" stroke-opacity="1.0" stroke-width="2"/>
    <path d="M143.821 122.978C134.759 119.562 138.059 127.232 130.524 126.64" fill="none" stroke="rgb(0, 0, 0)" stroke-linecap="round" stroke-linejoin="round" stroke-opacity="1.0" stroke-width="2"/>
    <path d="M133.246 123.888C132.071 126.583 138.548 125.764 129.828 126.035" fill="none" stroke="rgb(0, 0, 0)" stroke-linecap="round" stroke-linejoin="round" stroke-opacity="1.0" stroke-width="2"/>
    <path d="M155.471 124.972C142.106 124.307 157.303 122.048 137.06 128.808" fill="none" stroke="rgb(0, 0, 0)" stroke-linecap="round" stroke-linejoin="round" stroke-opacity="1.0" stroke-width="2"/>
    <path d="M138.388 114.179C137.804 120.739 138.526 114.524 131.669 115.78" fill="none" stroke="rgb(0, 0, 0)" stroke-linecap="round" stroke-linejoin="round" stroke-opacity="1.0" stroke-width="2"/>
    <path d="M141.453 125.173C151.775 120.03 155.134 127.308 154.708 123.899" fill="none" stroke="rgb(0, 0, 0)" stroke-linecap="round" stroke-linejoin="round" stroke-opacity="1.0" stroke-width="2"/>
    <path d="M119.593 133.745C118.834 135.532 116.74 136.272 121.759 132.881" fill="none" stroke="rgb(0, 0, 0)" stroke-linecap="round" stroke-linejoin="round" stroke-opacity="1.0" stroke-width="2"/>
    <path d="M150.997 123.487C143.08 120.814 161.054 120.315 156.05 123.148" fill="none" stroke="rgb(0, 0, 0)" stroke-linecap="round" stroke-linejoin="round" stroke-opacity="1.0" stroke-width="2"/>
    <path d="M20.3969 205.102C27.7949 198.912 17.6275 198.762 23.3278 185.507" fill="none" stroke="rgb(0, 0, 0)" stroke-linecap="round" stroke-linejoin="round" stroke-opacity="1.0" stroke-width="2"/>
    <path d="M55.6292 183.54C55.0319 182.647 61.6232 186.295 68.9012 177.518" fill="none" stroke="rgb(0, 0, 0)" stroke-linecap="round" stroke-linejoin="round" stroke-opacity="1.0" stroke-width="2"/>
    <path d="M38.5171 192.631C44.7612 189.515 51.9103 189.448 56.8231 184.014" fill="none" stroke="rgb(0, 0, 0)" stroke-linecap="round" stroke-linejoin="round" stroke-opacity="1.0" stroke-width="2"/>
    <path d="M50.7184 165.915C44.6025 172.041 44.1958 172.318 50.1525 167.157" fill="none" stroke="rgb(0, 0, 0)" stroke-linecap="round" stroke-linejoin="round" stroke-opacity="1.0" stroke-width="2"/>
    <path d="M50.0815 187.676C47.5843 188.766 47.8822 188.692 54.6624 184.804" fill="none" stroke="rgb(0, 0, 0)" stroke-linecap="round" stroke-linejoin="round" stroke-opacity="1.0" stroke-width="2"/>
    <path d="M67.2444 153.399C67.6109 154.509 69.2589 153.445 65.1079 152.727" fill="none" stroke="rgb(0, 0, 0)" stroke-linecap="round" stroke-linejoin="round" stroke-opacity="1.0" stroke-width="2"/>
    <path d="M66.2219 169.878C64.1359 165.93 72.9103 154.515 72.2576 160.844" fill="none" stroke="rgb(0, 0, 0)" stroke-linecap="round" stroke-linejoin="round" stroke-opacity="1.0" stroke-width="2"/>
    <path d="M66.533 171.171C58.9452 172.217 53.6755 166.947 58.2896 169.984" fill="none" stroke="rgb(0, 0, 0)" stroke-linecap="round" stroke-linejoin="round" stroke-opacity="1.0" stroke-width="2"/>
    <path d="M21.0499 166.748C15.3202 169.887 22.0646 166.023 22.251 166.451" fill="none" stroke="rgb(0, 0, 0)" stroke-linecap="round" stroke-linejoin="round" stroke-opacity="1.0" stroke-width="2"/>
    <path d="M73.937 156.135C66.8809 166.116 62.9614 156.575 66.4293 157.334" fill="none" stroke="rgb(0, 0, 0)" stroke-linecap="round" stroke-linejoin="round" stroke-opacity="1.0" stroke-width="2"/>
    <path d="M21.1511 186.083C10.3901 185.71 10.5408 177.451 14.5401 172.118" fill="none" stroke="rgb(0, 0, 0)" stroke-linecap="round" stroke-linejoin="round" stroke-opacity="1.0" stroke-width="2"/>
    <path d="M53.9291 186.003C59.1111 180.798 56.4884 184.923 46.71 189.382" fill="none" stroke="rgb(0, 0, 0)" stroke-linecap="round" stroke-linejoin="round" stroke-opacity="1.0" stroke-width="2"/>
    <path d="M28.2367 168.617C26.1009 165.457 21.3747 166.687 20.7924 166.907" fill="none" stroke="rgb(0, 0, 0)" stroke-linecap="round" stroke-linejoin="round" stroke-opacity="1.0" stroke-width="2"/>
    <path d="M22.9264 186.12C24.1291 186.091 18.7405 186.114 17.5359 185.727" fill="none" stroke="rgb(0, 0, 0)" stroke-linecap="round" stroke-linejoin="round" stroke-opacity="1.0" stroke-width="2"/>
    <path d="M50.5196 167.011C38.329 180.739 25.8337 178.44 23.1045 185.961" fill="none" stroke="rgb(0, 0, 0)" stroke-linecap="round" stroke-linejoin="round" stroke-opacity="1.0" stroke-width="2"/>
    <path d="M26.0215 177.206C23.0571 183.572 37.2777 170.434 26.6089 166.261" fill="none" stroke="rgb(0, 0, 0)" stroke-linecap="round" stroke-linejoin="round" stroke-opacity="1.0" stroke-width="2"/>
    <path d="M76.8439 172.869C83.6683 170.035 78.4911 178.024 70.2025 176.6" fill="none" stroke="rgb(0, 0, 0)" stroke-linecap="round" stroke-linejoin="round" stroke-opacity="1.0" stroke-width="2"/>
    <path d="M67.7923 153.974C68.2714 157.924 75.853 151.221 74.4308 155.462" fill="none" stroke="rgb(0, 0, 0)" stroke-linecap="round" stroke-linejoin="round" stroke-opacity="1.0" stroke-width="2"/>
    <path d="M56.4598 169.171C74.2175 172.124 68.0876 166.944 64.1423 169.518" fill="none" stroke="rgb(0, 0, 0)" stroke-linecap="round" stroke-linejoin="round" stroke-opacity="1.0" stroke-width="2"/>
    <path d="M42.8327 190.927C52.9616 185.407 52.8184 184.673 52.8746 185.298" fill="none" stroke="rgb(0, 0, 0)" stroke-linecap="round" stroke-linejoin="round" stroke-opacity="1.0" stroke-width="2"/>
    <path d="M49.2832 187.695C46.988 188.348 47.8244 189.585 55.0982 184.439" fill="none" stroke="rgb(0, 0, 0)" stroke-linecap="round" stroke-linejoin="round" stroke-opacity="1.0" stroke-width="2"/>
    <path d="M22.1251 205.885C33.2396 207.827 39.2934 191.831 38.5844 193.129" fill="none" stroke="rgb(0, 0, 0)" stroke-linecap="round" stroke-linejoin="round" stroke-opacity="1.0" stroke-width="2"/>
    <path d="M64.5086 148C63.6173 155.797 68.0959 151.85 64.0528 151.536" fill="none" stroke="rgb(0, 0, 0)" stroke-linecap="round" stroke-linejoin="round" stroke-opacity="1.0" stroke-width="2"/>
    <path d="M25.0191 211.172C18.9179 217.849 20.9341 204.023 20.9501 204.857" fill="none" stroke="rgb(0, 0, 0)" stroke-linecap="round" stroke-linejoin="round" stroke-opacity="1.0" stroke-width="2"/>
    <path d="M51.448 161.173C50.9453 161.173 52.8239 162.283 51.7928 161.451" fill="none" stroke="rgb(0, 0, 0)" stroke-linecap="round" stroke-linejoin="round" stroke-opacity="1.0" stroke-width="2"/>
    <path d="M53.1798 186.996C58.6481 183.721 58.7098 181.835 52.9747 186.193" fill="none" stroke="rgb(0, 0, 0)" stroke-linecap="round" stroke-linejoin="round" stroke-opacity="1.0" stroke-width="2"/>
    <path d="M50.021 187.857C53.5192 187.139 54.862 184.974 50.7465 186.795" fill="none" stroke="rgb(0, 0, 0)" stroke-linecap="round" stroke-linejoin="round" stroke-opacity="1.0" stroke-width="2"/>
    <path d="M25.5573 182.03C14.7474 183.317 24.3712 168.471 26.5329 177.038" fill="none" stroke="rgb(0, 0, 0)" stroke-linecap="round" stroke-linejoin="round" stroke-opacity="1.0" stroke-width="2"/>
    <path d="M12.168 179.794C11.8479 179.462 12.3151 180.262 12.1964 178.6" fill="none" stroke="rgb(0, 0, 0)" stroke-linecap="round" stroke-linejoin="round" stroke-opacity="1.0" stroke-width="2"/>
    <path d="M65.6938 152.051C69.7196 153.561 66.5377 156.547 61.9981 149.214" fill="none" stroke="rgb(0, 0, 0)" stroke-linecap="round" stroke-linejoin="round" stroke-opacity="1.0" stroke-width="2"/>
    <path d="M67.6321 172.773C68.0447 164.507 70.1301 171.753 66.3833 166.103" fill="none" stroke="rgb(0, 0, 0)" stroke-linecap="round" stroke-linejoin="round" stroke-opacity="1.0" stroke-width="2"/>
    <path d="M63.4735 155.207C64.9365 155.109 61.1125 151.929 63.6517 155.127" fill="none" stroke="rgb(0, 0, 0)" stroke-linecap="round" stroke-linejoin="round" stroke-opacity="1.0" stroke-width="2"/>
    <path d="M28.1065 167.986C28.3828 167.087 25.3617 166.036 25.3833 166.487" fill="none" stroke="rgb(0, 0, 0)" stroke-linecap="round" stroke-linejoin="round" stroke-opacity="1.0" stroke-width="2"/>
    <path d="M12.3983 180.69C13.3306 183.76 12.1037 179.871 12.3293 179.678" fill="none" stroke="rgb(0, 0, 0)" stroke-linecap="round" stroke-linejoin="round" stroke-opacity="1.0" stroke-width="2"/>
    <path d="M12.116 179.825C12.0221 177.059 12.4362 178.245 12 178.238" fill="none" stroke="rgb(0, 0, 0)" stroke-linecap="round" stroke-linejoin="round" stroke-opacity="1.0" stroke-width="2"/>
    <path d="M76.4976 172.739C69.5931 170.03 71.2077 174.47 63.7214 172.187" fill="none" stroke="rgb(0, 0, 0)" stroke-linecap="round" stroke-linejoin="round" stroke-opacity="1.0" stroke-width="2"/>
    <path d="M51.0779 165.259C51.8153 153.273 57.8162 156.995 59.4392 149.489" fill="none" stroke="rgb(0, 0, 0)" stroke-linecap="round" stroke-linejoin="round" stroke-opacity="1.0" stroke-width="2"/>
    <path d="M70.1962 159.681C65.5328 158.263 69.3848 159.31 70.8446 159.816" fill="none" stroke="rgb(0, 0, 0)" stroke-linecap="round" stroke-linejoin="round" stroke-opacity="1.0" stroke-width="2"/>
    <path d="M58.4034 154.979C61.2674 145.843 62.2358 148.671 61.0181 154.174" fill="none" stroke="rgb(0, 0, 0)" stroke-linecap="round" stroke-linejoin="round" stroke-opacity="1.0" stroke-width="2"/>
    <path d="M19.5026 167.118C29.2014 161.816 33.2299 173.317 26.4551 178.897" fill="none" stroke="rgb(0, 0, 0)" stroke-linecap="round" stroke-linejoin="round" stroke-opacity="1.0" stroke-width="2"/>
    <path d="M20.9087 166.914C14.6848 169.041 12.9555 175.513 13.168 174.448" fill="none" stroke="rgb(0, 0, 0)" stroke-linecap="round" stroke-linejoin="round" stroke-opacity="1.0" stroke-width="2"/>
    <path d="M51.7743 186.393C50.5847 186.429 53.7682 185.695 51.0478 186.8" fill="none" stroke="rgb(0, 0, 0)" stroke-linecap="round" stroke-linejoin="round" stroke-opacity="1.0" stroke-width="2"/>
    <path d="M87 134.794C89.8171 139.921 89.709 138.731 98.3302 142.06" fill="none" stroke="rgb(0, 0, 0)" stroke-linecap="round" stroke-linejoin="round" stroke-opacity="1.0" stroke-width="2"/>
  </g>
</svg>
