<?xml version="1.0" ?>
<svg xmlns="http://www.w3.org/2000/svg" version="1.1" width="256" height="256">
  <defs/>
  <g>
    <path d="M 197.27000427246094 156.55099487304688 C 195.96299743652344 150.01400756835938 201.55799865722656 162.322998046875 196.17999267578125 150.4499969482422" stroke-width="2.0" fill="none" stroke="rgb(0, 0, 0)" stroke-opacity="1" stroke-linecap="round" stroke-linejoin="round"/>
    <path d="M 211.7100067138672 173.00599670410156 C 212.86399841308594 179.9980010986328 208.10000610351562 167.40499877929688 207.3820037841797 170.4239959716797" stroke-width="2.0" fill="none" stroke="rgb(0, 0, 0)" stroke-opacity="1" stroke-linecap="round" stroke-linejoin="round"/>
    <path d="M 209.9739990234375 174.27000427246094 C 204.09800720214844 168.31399536132812 208.24600219726562 164.52000427246094 214.42799377441406 175.7899932861328" stroke-width="2.0" fill="none" stroke="rgb(0, 0, 0)" stroke-opacity="1" stroke-linecap="round" stroke-linejoin="round"/>
    <path d="M 199.5590057373047 157.406005859375 C 211.00900268554688 170.08599853515625 203.0240020751953 166.86300659179688 212.63299560546875 176.74899291992188" stroke-width="2.0" fill="none" stroke="rgb(0, 0, 0)" stroke-opacity="1" stroke-linecap="round" stroke-linejoin="round"/>
    <path d="M 187.3800048828125 146.92999267578125 C 179.43699645996094 159.11700439453125 182.2760009765625 150.4510040283203 184.1649932861328 143.4290008544922" stroke-width="2.0" fill="none" stroke="rgb(0, 0, 0)" stroke-opacity="1" stroke-linecap="round" stroke-linejoin="round"/>
    <path d="M 208.85400390625 172.60800170898438 C 211.5850067138672 170.18899536132812 206.21400451660156 174.63600158691406 213.30299377441406 178.7100067138672" stroke-width="2.0" fill="none" stroke="rgb(0, 0, 0)" stroke-opacity="1" stroke-linecap="round" stroke-linejoin="round"/>
    <path d="M 188.8990020751953 143.57699584960938 C 198.09500122070312 154.625 174.43499755859375 144.0850067138672 182.52499389648438 155.25399780273438" stroke-width="2.0" fill="none" stroke="rgb(0, 0, 0)" stroke-opacity="1" stroke-linecap="round" stroke-linejoin="round"/>
    <path d="M 246.91299438476562 193.22500610351562 C 226.1909942626953 202.9199981689453 226.06100463867188 198.75100708007812 212.86599731445312 200.72000122070312" stroke-width="2.0" fill="none" stroke="rgb(0, 0, 0)" stroke-opacity="1" stroke-linecap="round" stroke-linejoin="round"/>
    <path d="M 217.61399841308594 196.90199279785156 C 209.5679931640625 206.0679931640625 205.625 196.46499633789062 203.2209930419922 202.99099731445312" stroke-width="2.0" fill="none" stroke="rgb(0, 0, 0)" stroke-opacity="1" stroke-linecap="round" stroke-linejoin="round"/>
    <path d="M 180.41400146484375 150.2989959716797 C 184.34100341796875 132.8249969482422 185.77200317382812 141.98899841308594 181.67300415039062 147.19400024414062" stroke-width="2.0" fill="none" stroke="rgb(0, 0, 0)" stroke-opacity="1" stroke-linecap="round" stroke-linejoin="round"/>
    <path d="M 200.80299377441406 167.1699981689453 C 197.15499877929688 169.01400756835938 198.3679962158203 169.04600524902344 202.13999938964844 165.531005859375" stroke-width="2.0" fill="none" stroke="rgb(0, 0, 0)" stroke-opacity="1" stroke-linecap="round" stroke-linejoin="round"/>
    <path d="M 192.0540008544922 151.94200134277344 C 199.61199951171875 148.19400024414062 198.9550018310547 165.9720001220703 196.625 155.06199645996094" stroke-width="2.0" fill="none" stroke="rgb(0, 0, 0)" stroke-opacity="1" stroke-linecap="round" stroke-linejoin="round"/>
    <path d="M 181.60000610351562 151.14599609375 C 179.40699768066406 169.54200744628906 178.80799865722656 164.6490020751953 186.61000061035156 182.53700256347656" stroke-width="2.0" fill="none" stroke="rgb(0, 0, 0)" stroke-opacity="1" stroke-linecap="round" stroke-linejoin="round"/>
    <path d="M 189.95700073242188 176.64599609375 C 188.8000030517578 194.16799926757812 198.17100524902344 205.33900451660156 187.0279998779297 202.58299255371094" stroke-width="2.0" fill="none" stroke="rgb(0, 0, 0)" stroke-opacity="1" stroke-linecap="round" stroke-linejoin="round"/>
    <path d="M 178.13900756835938 135.8040008544922 C 184.3520050048828 118.98500061035156 174.91600036621094 136.34100341796875 174.58900451660156 135.43800354003906" stroke-width="2.0" fill="none" stroke="rgb(0, 0, 0)" stroke-opacity="1" stroke-linecap="round" stroke-linejoin="round"/>
    <path d="M 178.33700561523438 132.13600158691406 C 172.76100158691406 140.10499572753906 183.1929931640625 139.6999969482422 172.57699584960938 133.38699340820312" stroke-width="2.0" fill="none" stroke="rgb(0, 0, 0)" stroke-opacity="1" stroke-linecap="round" stroke-linejoin="round"/>
    <path d="M 178.1999969482422 138.12600708007812 C 177.0229949951172 122.9020004272461 174.7010040283203 144.3260040283203 170.0 133.302001953125" stroke-width="2.0" fill="none" stroke="rgb(0, 0, 0)" stroke-opacity="1" stroke-linecap="round" stroke-linejoin="round"/>
    <path d="M 227.84800720214844 198.66400146484375 C 235.29400634765625 196.51300048828125 231.66099548339844 200.76100158691406 222.24099731445312 198.7740020751953" stroke-width="2.0" fill="none" stroke="rgb(0, 0, 0)" stroke-opacity="1" stroke-linecap="round" stroke-linejoin="round"/>
    <path d="M 215.13999938964844 178.19900512695312 C 205.71299743652344 166.89100646972656 208.8159942626953 171.51100158691406 215.91700744628906 180.01499938964844" stroke-width="2.0" fill="none" stroke="rgb(0, 0, 0)" stroke-opacity="1" stroke-linecap="round" stroke-linejoin="round"/>
    <path d="M 228.11399841308594 196.10699462890625 C 243.98300170898438 190.1490020751953 254.25999450683594 187.26800537109375 228.08399963378906 198.3459930419922" stroke-width="2.0" fill="none" stroke="rgb(0, 0, 0)" stroke-opacity="1" stroke-linecap="round" stroke-linejoin="round"/>
    <path d="M 206.18899536132812 185.69400024414062 C 194.04800415039062 202.68099975585938 205.35000610351562 195.73300170898438 202.07699584960938 201.99200439453125" stroke-width="2.0" fill="none" stroke="rgb(0, 0, 0)" stroke-opacity="1" stroke-linecap="round" stroke-linejoin="round"/>
    <path d="M 243.4530029296875 188.91200256347656 C 237.1179962158203 188.29600524902344 238.8979949951172 194.46499633789062 224.6739959716797 196.97999572753906" stroke-width="2.0" fill="none" stroke="rgb(0, 0, 0)" stroke-opacity="1" stroke-linecap="round" stroke-linejoin="round"/>
    <path d="M 181.3300018310547 163.63299560546875 C 176.427001953125 146.4040069580078 183.85800170898438 157.58700561523438 187.49000549316406 145.03399658203125" stroke-width="2.0" fill="none" stroke="rgb(0, 0, 0)" stroke-opacity="1" stroke-linecap="round" stroke-linejoin="round"/>
    <path d="M 211.8040008544922 174.07000732421875 C 217.59800720214844 184.94700622558594 213.44500732421875 179.02699279785156 208.4810028076172 172.38900756835938" stroke-width="2.0" fill="none" stroke="rgb(0, 0, 0)" stroke-opacity="1" stroke-linecap="round" stroke-linejoin="round"/>
    <path d="M 173.86599731445312 132.27699279785156 C 184.00599670410156 127.59700012207031 178.01800537109375 143.5970001220703 175.51400756835938 133.60699462890625" stroke-width="2.0" fill="none" stroke="rgb(0, 0, 0)" stroke-opacity="1" stroke-linecap="round" stroke-linejoin="round"/>
    <path d="M 201.593994140625 160.7989959716797 C 207.93600463867188 167.4199981689453 212.3419952392578 173.79299926757812 212.30799865722656 176.55599975585938" stroke-width="2.0" fill="none" stroke="rgb(0, 0, 0)" stroke-opacity="1" stroke-linecap="round" stroke-linejoin="round"/>
    <path d="M 179.62899780273438 134.18800354003906 C 172.78900146484375 141.60699462890625 166.43699645996094 130.9429931640625 175.4510040283203 132.2899932861328" stroke-width="2.0" fill="none" stroke="rgb(0, 0, 0)" stroke-opacity="1" stroke-linecap="round" stroke-linejoin="round"/>
    <path d="M 219.69000244140625 189.57699584960938 C 218.4969940185547 198.51300048828125 226.18600463867188 199.63499450683594 245.17799377441406 195.5449981689453" stroke-width="2.0" fill="none" stroke="rgb(0, 0, 0)" stroke-opacity="1" stroke-linecap="round" stroke-linejoin="round"/>
    <path d="M 203.9770050048828 162.97500610351562 C 194.08799743652344 150.35800170898438 195.42300415039062 146.36099243164062 188.12100219726562 152.18699645996094" stroke-width="2.0" fill="none" stroke="rgb(0, 0, 0)" stroke-opacity="1" stroke-linecap="round" stroke-linejoin="round"/>
    <path d="M 183.6020050048828 154.06700134277344 C 184.9929962158203 147.56700134277344 193.6020050048828 150.5070037841797 180.2550048828125 152.46800231933594" stroke-width="2.0" fill="none" stroke="rgb(0, 0, 0)" stroke-opacity="1" stroke-linecap="round" stroke-linejoin="round"/>
    <path d="M 189.9010009765625 137.01300048828125 C 194.322998046875 141.08599853515625 184.9199981689453 148.9029998779297 193.03700256347656 146.66000366210938" stroke-width="2.0" fill="none" stroke="rgb(0, 0, 0)" stroke-opacity="1" stroke-linecap="round" stroke-linejoin="round"/>
    <path d="M 220.6320037841797 199.92799377441406 C 220.5709991455078 187.61900329589844 217.55599975585938 183.86000061035156 212.3470001220703 176.98399353027344" stroke-width="2.0" fill="none" stroke="rgb(0, 0, 0)" stroke-opacity="1" stroke-linecap="round" stroke-linejoin="round"/>
    <path d="M 180.04299926757812 142.42300415039062 C 181.281005859375 154.33999633789062 187.0760040283203 147.7050018310547 184.8350067138672 147.45799255371094" stroke-width="2.0" fill="none" stroke="rgb(0, 0, 0)" stroke-opacity="1" stroke-linecap="round" stroke-linejoin="round"/>
    <path d="M 210.56100463867188 176.61199951171875 C 207.16099548339844 165.3679962158203 204.63299560546875 163.64199829101562 204.7729949951172 164.00799560546875" stroke-width="2.0" fill="none" stroke="rgb(0, 0, 0)" stroke-opacity="1" stroke-linecap="round" stroke-linejoin="round"/>
    <path d="M 189.4530029296875 136.18499755859375 C 188.48899841308594 126.08499908447266 178.6320037841797 126.52400207519531 180.02000427246094 131.11300659179688" stroke-width="2.0" fill="none" stroke="rgb(0, 0, 0)" stroke-opacity="1" stroke-linecap="round" stroke-linejoin="round"/>
    <path d="M 193.56700134277344 179.39300537109375 C 190.7740020751953 182.40699768066406 196.62899780273438 174.15699768066406 193.16600036621094 178.74600219726562" stroke-width="2.0" fill="none" stroke="rgb(0, 0, 0)" stroke-opacity="1" stroke-linecap="round" stroke-linejoin="round"/>
    <path d="M 203.32200622558594 166.36000061035156 C 216.25799560546875 178.16099548339844 215.99000549316406 174.0189971923828 199.33299255371094 159.92300415039062" stroke-width="2.0" fill="none" stroke="rgb(0, 0, 0)" stroke-opacity="1" stroke-linecap="round" stroke-linejoin="round"/>
    <path d="M 209.49000549316406 170.41299438476562 C 210.23300170898438 169.60299682617188 210.06199645996094 169.6820068359375 205.88299560546875 166.3179931640625" stroke-width="2.0" fill="none" stroke="rgb(0, 0, 0)" stroke-opacity="1" stroke-linecap="round" stroke-linejoin="round"/>
    <path d="M 248.0 196.27099609375 C 247.11599731445312 197.14500427246094 248.79100036621094 185.7469940185547 237.05299377441406 193.03799438476562" stroke-width="2.0" fill="none" stroke="rgb(0, 0, 0)" stroke-opacity="1" stroke-linecap="round" stroke-linejoin="round"/>
    <path d="M 210.30099487304688 173.10000610351562 C 209.96099853515625 176.16099548339844 216.46800231933594 179.2519989013672 209.10299682617188 173.53500366210938" stroke-width="2.0" fill="none" stroke="rgb(0, 0, 0)" stroke-opacity="1" stroke-linecap="round" stroke-linejoin="round"/>
    <path d="M 181.00599670410156 139.94500732421875 C 175.9409942626953 147.92999267578125 163.82000732421875 141.29600524902344 179.69500732421875 138.76800537109375" stroke-width="2.0" fill="none" stroke="rgb(0, 0, 0)" stroke-opacity="1" stroke-linecap="round" stroke-linejoin="round"/>
    <path d="M 192.16700744628906 151.9010009765625 C 181.9080047607422 144.03700256347656 198.43600463867188 141.89999389648438 190.92799377441406 151.9040069580078" stroke-width="2.0" fill="none" stroke="rgb(0, 0, 0)" stroke-opacity="1" stroke-linecap="round" stroke-linejoin="round"/>
    <path d="M 208.447998046875 168.85000610351562 C 218.31100463867188 179.3800048828125 211.03900146484375 175.3179931640625 210.1840057373047 171.44900512695312" stroke-width="2.0" fill="none" stroke="rgb(0, 0, 0)" stroke-opacity="1" stroke-linecap="round" stroke-linejoin="round"/>
    <path d="M 178.63299560546875 134.9929962158203 C 177.5030059814453 129.46800231933594 165.26699829101562 131.66600036621094 178.2550048828125 139.2449951171875" stroke-width="2.0" fill="none" stroke="rgb(0, 0, 0)" stroke-opacity="1" stroke-linecap="round" stroke-linejoin="round"/>
    <path d="M 200.8040008544922 159.8470001220703 C 209.8939971923828 168.8520050048828 213.24600219726562 169.5919952392578 217.8280029296875 185.83200073242188" stroke-width="2.0" fill="none" stroke="rgb(0, 0, 0)" stroke-opacity="1" stroke-linecap="round" stroke-linejoin="round"/>
    <path d="M 193.1699981689453 178.6219940185547 C 193.52999877929688 178.072998046875 196.06399536132812 173.76699829101562 193.88800048828125 180.89100646972656" stroke-width="2.0" fill="none" stroke="rgb(0, 0, 0)" stroke-opacity="1" stroke-linecap="round" stroke-linejoin="round"/>
    <path d="M 184.1909942626953 151.5290069580078 C 180.08399963378906 126.93000030517578 187.8260040283203 124.6989974975586 184.10699462890625 131.927001953125" stroke-width="2.0" fill="none" stroke="rgb(0, 0, 0)" stroke-opacity="1" stroke-linecap="round" stroke-linejoin="round"/>
    <path d="M 171.3699951171875 133.031005859375 C 180.38600158691406 134.4600067138672 181.5070037841797 141.3070068359375 175.94000244140625 135.94400024414062" stroke-width="2.0" fill="none" stroke="rgb(0, 0, 0)" stroke-opacity="1" stroke-linecap="round" stroke-linejoin="round"/>
    <path d="M 179.70599365234375 141.4239959716797 C 186.4040069580078 149.57899475097656 186.9929962158203 143.7989959716797 182.13600158691406 148.71200561523438" stroke-width="2.0" fill="none" stroke="rgb(0, 0, 0)" stroke-opacity="1" stroke-linecap="round" stroke-linejoin="round"/>
    <path d="M 186.80099487304688 132.63600158691406 C 179.83799743652344 154.677001953125 178.02999877929688 145.4320068359375 184.75399780273438 134.35499572753906" stroke-width="2.0" fill="none" stroke="rgb(0, 0, 0)" stroke-opacity="1" stroke-linecap="round" stroke-linejoin="round"/>
    <path d="M 199.30999755859375 157.24899291992188 C 197.61000061035156 156.29100036621094 197.05299377441406 154.40499877929688 199.75100708007812 160.65699768066406" stroke-width="2.0" fill="none" stroke="rgb(0, 0, 0)" stroke-opacity="1" stroke-linecap="round" stroke-linejoin="round"/>
    <path d="M 191.44900512695312 141.61900329589844 C 194.7729949951172 160.4739990234375 196.37399291992188 145.2830047607422 188.9010009765625 147.68899536132812" stroke-width="2.0" fill="none" stroke="rgb(0, 0, 0)" stroke-opacity="1" stroke-linecap="round" stroke-linejoin="round"/>
    <path d="M 186.11599731445312 182.13800048828125 C 189.73199462890625 206.2760009765625 184.16000366210938 193.06100463867188 184.24000549316406 199.64300537109375" stroke-width="2.0" fill="none" stroke="rgb(0, 0, 0)" stroke-opacity="1" stroke-linecap="round" stroke-linejoin="round"/>
    <path d="M 174.28700256347656 136.58999633789062 C 182.44900512695312 129.2030029296875 184.23300170898438 129.66799926757812 182.27699279785156 148.5" stroke-width="2.0" fill="none" stroke="rgb(0, 0, 0)" stroke-opacity="1" stroke-linecap="round" stroke-linejoin="round"/>
    <path d="M 177.71600341796875 144.0800018310547 C 180.2209930419922 143.61099243164062 167.7100067138672 139.927001953125 174.5709991455078 141.71499633789062" stroke-width="2.0" fill="none" stroke="rgb(0, 0, 0)" stroke-opacity="1" stroke-linecap="round" stroke-linejoin="round"/>
    <path d="M 181.3179931640625 130.73399353027344 C 173.08200073242188 126.91200256347656 176.97799682617188 145.88099670410156 178.02499389648438 137.6649932861328" stroke-width="2.0" fill="none" stroke="rgb(0, 0, 0)" stroke-opacity="1" stroke-linecap="round" stroke-linejoin="round"/>
    <path d="M 209.58200073242188 171.36700439453125 C 206.35499572753906 170.71299743652344 212.38900756835938 176.4409942626953 215.22900390625 178.3509979248047" stroke-width="2.0" fill="none" stroke="rgb(0, 0, 0)" stroke-opacity="1" stroke-linecap="round" stroke-linejoin="round"/>
    <path d="M 179.51300048828125 141.17799377441406 C 172.87100219726562 142.78700256347656 170.25399780273438 144.78500366210938 177.35299682617188 143.53599548339844" stroke-width="2.0" fill="none" stroke="rgb(0, 0, 0)" stroke-opacity="1" stroke-linecap="round" stroke-linejoin="round"/>
    <path d="M 190.65199279785156 147.01499938964844 C 196.875 151.26300048828125 196.02999877929688 148.6230010986328 190.86599731445312 145.30299377441406" stroke-width="2.0" fill="none" stroke="rgb(0, 0, 0)" stroke-opacity="1" stroke-linecap="round" stroke-linejoin="round"/>
    <path d="M 182.9219970703125 141.68499755859375 C 182.552001953125 136.1649932861328 181.43499755859375 145.46099853515625 173.01100158691406 143.8249969482422" stroke-width="2.0" fill="none" stroke="rgb(0, 0, 0)" stroke-opacity="1" stroke-linecap="round" stroke-linejoin="round"/>
    <path d="M 185.4199981689453 153.58200073242188 C 193.86099243164062 148.22300720214844 186.08399963378906 143.45700073242188 183.47500610351562 151.9739990234375" stroke-width="2.0" fill="none" stroke="rgb(0, 0, 0)" stroke-opacity="1" stroke-linecap="round" stroke-linejoin="round"/>
    <path d="M 177.9040069580078 133.58700561523438 C 175.48599243164062 142.26400756835938 182.78199768066406 125.59400177001953 173.5330047607422 134.55799865722656" stroke-width="2.0" fill="none" stroke="rgb(0, 0, 0)" stroke-opacity="1" stroke-linecap="round" stroke-linejoin="round"/>
    <path d="M 210.6320037841797 173.4739990234375 C 203.16600036621094 162.61900329589844 204.6230010986328 165.531005859375 198.18699645996094 156.53500366210938" stroke-width="2.0" fill="none" stroke="rgb(0, 0, 0)" stroke-opacity="1" stroke-linecap="round" stroke-linejoin="round"/>
    <path d="M 172.99099731445312 137.99400329589844 C 185.10400390625 137.2969970703125 177.51499938964844 130.14199829101562 181.96600341796875 131.0050048828125" stroke-width="2.0" fill="none" stroke="rgb(0, 0, 0)" stroke-opacity="1" stroke-linecap="round" stroke-linejoin="round"/>
    <path d="M 35.35749816894531 107.43800354003906 C 35.055999755859375 117.98400115966797 31.493600845336914 108.94400024414062 35.32609939575195 112.41300201416016" stroke-width="2.0" fill="none" stroke="rgb(0, 0, 0)" stroke-opacity="1" stroke-linecap="round" stroke-linejoin="round"/>
    <path d="M 31.007699966430664 129.36300659179688 C 22.432199478149414 142.18600463867188 12.599800109863281 137.91700744628906 17.152299880981445 146.49200439453125" stroke-width="2.0" fill="none" stroke="rgb(0, 0, 0)" stroke-opacity="1" stroke-linecap="round" stroke-linejoin="round"/>
    <path d="M 36.1796989440918 114.96299743652344 C 50.15359878540039 101.58999633789062 37.75310134887695 112.95600128173828 46.59410095214844 134.25" stroke-width="2.0" fill="none" stroke="rgb(0, 0, 0)" stroke-opacity="1" stroke-linecap="round" stroke-linejoin="round"/>
    <path d="M 39.073001861572266 113.21399688720703 C 26.281099319458008 109.60900115966797 32.4474983215332 118.3270034790039 40.256500244140625 139.6510009765625" stroke-width="2.0" fill="none" stroke="rgb(0, 0, 0)" stroke-opacity="1" stroke-linecap="round" stroke-linejoin="round"/>
    <path d="M 34.77870178222656 98.53389739990234 C 34.00619888305664 97.35209655761719 42.095699310302734 97.9478988647461 27.775299072265625 100.98699951171875" stroke-width="2.0" fill="none" stroke="rgb(0, 0, 0)" stroke-opacity="1" stroke-linecap="round" stroke-linejoin="round"/>
    <path d="M 42.15399932861328 109.5770034790039 C 42.06850051879883 136.55499267578125 49.52799987792969 140.9459991455078 39.36109924316406 113.18499755859375" stroke-width="2.0" fill="none" stroke="rgb(0, 0, 0)" stroke-opacity="1" stroke-linecap="round" stroke-linejoin="round"/>
    <path d="M 36.770599365234375 107.7040023803711 C 62.411399841308594 113.18399810791016 58.26689910888672 93.52960205078125 50.20899963378906 104.697998046875" stroke-width="2.0" fill="none" stroke="rgb(0, 0, 0)" stroke-opacity="1" stroke-linecap="round" stroke-linejoin="round"/>
    <path d="M 83.96479797363281 169.78900146484375 C 94.98979949951172 153.63900756835938 58.82500076293945 154.8719940185547 91.3927993774414 161.28799438476562" stroke-width="2.0" fill="none" stroke="rgb(0, 0, 0)" stroke-opacity="1" stroke-linecap="round" stroke-linejoin="round"/>
    <path d="M 47.3291015625 148.99099731445312 C 39.265098571777344 169.5030059814453 44.48360061645508 198.47999572753906 49.98849868774414 194.58599853515625" stroke-width="2.0" fill="none" stroke="rgb(0, 0, 0)" stroke-opacity="1" stroke-linecap="round" stroke-linejoin="round"/>
    <path d="M 29.866300582885742 102.03299713134766 C 40.9286994934082 109.4020004272461 36.01919937133789 115.67400360107422 35.149200439453125 111.83300018310547" stroke-width="2.0" fill="none" stroke="rgb(0, 0, 0)" stroke-opacity="1" stroke-linecap="round" stroke-linejoin="round"/>
    <path d="M 50.499900817871094 140.54200744628906 C 43.20240020751953 151.26300048828125 47.51340103149414 152.65499877929688 51.09239959716797 139.71299743652344" stroke-width="2.0" fill="none" stroke="rgb(0, 0, 0)" stroke-opacity="1" stroke-linecap="round" stroke-linejoin="round"/>
    <path d="M 36.160099029541016 114.69100189208984 C 25.141199111938477 114.49199676513672 31.408199310302734 120.3550033569336 36.70610046386719 131.23399353027344" stroke-width="2.0" fill="none" stroke="rgb(0, 0, 0)" stroke-opacity="1" stroke-linecap="round" stroke-linejoin="round"/>
    <path d="M 40.95840072631836 113.31400299072266 C 44.544898986816406 112.54900360107422 32.7504997253418 113.23899841308594 39.18539810180664 113.2300033569336" stroke-width="2.0" fill="none" stroke="rgb(0, 0, 0)" stroke-opacity="1" stroke-linecap="round" stroke-linejoin="round"/>
    <path d="M 48.277000427246094 134.72500610351562 C 27.51110076904297 167.0679931640625 48.07149887084961 167.25999450683594 44.39649963378906 189.98500061035156" stroke-width="2.0" fill="none" stroke="rgb(0, 0, 0)" stroke-opacity="1" stroke-linecap="round" stroke-linejoin="round"/>
    <path d="M 31.472400665283203 115.05899810791016 C 47.45930099487305 92.78679656982422 25.217500686645508 88.6675033569336 32.61989974975586 106.11399841308594" stroke-width="2.0" fill="none" stroke="rgb(0, 0, 0)" stroke-opacity="1" stroke-linecap="round" stroke-linejoin="round"/>
    <path d="M 35.12070083618164 100.6510009765625 C 35.58869934082031 106.65599822998047 39.72570037841797 101.81600189208984 28.781700134277344 120.302001953125" stroke-width="2.0" fill="none" stroke="rgb(0, 0, 0)" stroke-opacity="1" stroke-linecap="round" stroke-linejoin="round"/>
    <path d="M 48.34149932861328 89.0 C 37.19499969482422 97.23139953613281 43.117000579833984 83.30120086669922 38.86149978637695 94.70819854736328" stroke-width="2.0" fill="none" stroke="rgb(0, 0, 0)" stroke-opacity="1" stroke-linecap="round" stroke-linejoin="round"/>
    <path d="M 43.6254997253418 174.34300231933594 C 44.372501373291016 159.0050048828125 48.182498931884766 150.00100708007812 43.17559814453125 176.13299560546875" stroke-width="2.0" fill="none" stroke="rgb(0, 0, 0)" stroke-opacity="1" stroke-linecap="round" stroke-linejoin="round"/>
    <path d="M 18.142099380493164 145.218994140625 C 23.29599952697754 139.63400268554688 9.494620323181152 147.7469940185547 21.67300033569336 137.31900024414062" stroke-width="2.0" fill="none" stroke="rgb(0, 0, 0)" stroke-opacity="1" stroke-linecap="round" stroke-linejoin="round"/>
    <path d="M 84.4988021850586 161.4709930419922 C 64.46640014648438 151.36199951171875 60.734500885009766 163.0 55.47850036621094 144.5290069580078" stroke-width="2.0" fill="none" stroke="rgb(0, 0, 0)" stroke-opacity="1" stroke-linecap="round" stroke-linejoin="round"/>
    <path d="M 36.59510040283203 194.41000366210938 C 34.429100036621094 193.572998046875 52.731998443603516 192.9980010986328 41.864601135253906 169.00799560546875" stroke-width="2.0" fill="none" stroke="rgb(0, 0, 0)" stroke-opacity="1" stroke-linecap="round" stroke-linejoin="round"/>
    <path d="M 52.95389938354492 137.5970001220703 C 52.602901458740234 149.0260009765625 42.839500427246094 146.52499389648438 39.654998779296875 162.3520050048828" stroke-width="2.0" fill="none" stroke="rgb(0, 0, 0)" stroke-opacity="1" stroke-linecap="round" stroke-linejoin="round"/>
    <path d="M 32.86909866333008 113.38200378417969 C 24.05069923400879 126.8010025024414 47.5 103.2760009765625 28.588199615478516 99.33809661865234" stroke-width="2.0" fill="none" stroke="rgb(0, 0, 0)" stroke-opacity="1" stroke-linecap="round" stroke-linejoin="round"/>
    <path d="M 44.73849868774414 175.0279998779297 C 48.21699905395508 160.46600341796875 42.3025016784668 146.4409942626953 43.768001556396484 167.77999877929688" stroke-width="2.0" fill="none" stroke="rgb(0, 0, 0)" stroke-opacity="1" stroke-linecap="round" stroke-linejoin="round"/>
    <path d="M 61.47079849243164 103.93299865722656 C 46.187400817871094 105.87999725341797 49.73939895629883 110.4489974975586 34.0255012512207 114.0510025024414" stroke-width="2.0" fill="none" stroke="rgb(0, 0, 0)" stroke-opacity="1" stroke-linecap="round" stroke-linejoin="round"/>
    <path d="M 34.99909973144531 114.20700073242188 C 36.47359848022461 135.30599975585938 30.2096004486084 124.13800048828125 30.58609962463379 114.177001953125" stroke-width="2.0" fill="none" stroke="rgb(0, 0, 0)" stroke-opacity="1" stroke-linecap="round" stroke-linejoin="round"/>
    <path d="M 34.13209915161133 113.94000244140625 C 30.989599227905273 119.66699981689453 40.27750015258789 104.67900085449219 35.05459976196289 96.72830200195312" stroke-width="2.0" fill="none" stroke="rgb(0, 0, 0)" stroke-opacity="1" stroke-linecap="round" stroke-linejoin="round"/>
    <path d="M 47.63520050048828 195.0 C 46.30619812011719 170.57200622558594 55.651100158691406 182.28599548339844 44.389198303222656 161.39199829101562" stroke-width="2.0" fill="none" stroke="rgb(0, 0, 0)" stroke-opacity="1" stroke-linecap="round" stroke-linejoin="round"/>
    <path d="M 31.80699920654297 129.8560028076172 C 30.428600311279297 124.45500183105469 27.320600509643555 111.75499725341797 43.19649887084961 112.4729995727539" stroke-width="2.0" fill="none" stroke="rgb(0, 0, 0)" stroke-opacity="1" stroke-linecap="round" stroke-linejoin="round"/>
    <path d="M 51.09239959716797 105.40699768066406 C 44.16239929199219 114.5719985961914 33.58000183105469 104.9469985961914 33.25899887084961 110.48600006103516" stroke-width="2.0" fill="none" stroke="rgb(0, 0, 0)" stroke-opacity="1" stroke-linecap="round" stroke-linejoin="round"/>
    <path d="M 87.54830169677734 106.78199768066406 C 106.45999908447266 105.00700378417969 106.58000183105469 107.35600280761719 99.03070068359375 106.35600280761719" stroke-width="2.0" fill="none" stroke="rgb(0, 0, 0)" stroke-opacity="1" stroke-linecap="round" stroke-linejoin="round"/>
    <path d="M 64.52639770507812 155.5679931640625 C 52.28499984741211 138.38499450683594 59.32440185546875 142.17799377441406 45.746498107910156 132.38699340820312" stroke-width="2.0" fill="none" stroke="rgb(0, 0, 0)" stroke-opacity="1" stroke-linecap="round" stroke-linejoin="round"/>
    <path d="M 42.86050033569336 112.22599792480469 C 30.82900047302246 113.31400299072266 39.0984992980957 114.62999725341797 37.37049865722656 96.87319946289062" stroke-width="2.0" fill="none" stroke="rgb(0, 0, 0)" stroke-opacity="1" stroke-linecap="round" stroke-linejoin="round"/>
    <path d="M 25.105300903320312 118.08200073242188 C 41.17620086669922 101.32499694824219 36.838199615478516 104.61900329589844 33.80970001220703 123.90799713134766" stroke-width="2.0" fill="none" stroke="rgb(0, 0, 0)" stroke-opacity="1" stroke-linecap="round" stroke-linejoin="round"/>
    <path d="M 44.84960174560547 89.12570190429688 C 33.667198181152344 92.71810150146484 42.94160079956055 94.91410064697266 56.96649932861328 90.93370056152344" stroke-width="2.0" fill="none" stroke="rgb(0, 0, 0)" stroke-opacity="1" stroke-linecap="round" stroke-linejoin="round"/>
    <path d="M 43.83110046386719 108.29199981689453 C 41.684600830078125 137.73800659179688 54.39099884033203 131.76100158691406 39.97159957885742 144.88600158691406" stroke-width="2.0" fill="none" stroke="rgb(0, 0, 0)" stroke-opacity="1" stroke-linecap="round" stroke-linejoin="round"/>
    <path d="M 47.04100036621094 106.947998046875 C 51.99549865722656 104.1259994506836 41.51359939575195 111.53800201416016 37.07659912109375 114.36199951171875" stroke-width="2.0" fill="none" stroke="rgb(0, 0, 0)" stroke-opacity="1" stroke-linecap="round" stroke-linejoin="round"/>
    <path d="M 32.61399841308594 117.00499725341797 C 35.864498138427734 110.37999725341797 32.31850051879883 109.12300109863281 29.68160057067871 122.22599792480469" stroke-width="2.0" fill="none" stroke="rgb(0, 0, 0)" stroke-opacity="1" stroke-linecap="round" stroke-linejoin="round"/>
    <path d="M 91.99870300292969 162.2570037841797 C 71.33329772949219 177.77999877929688 105.53900146484375 162.85000610351562 75.9623031616211 157.25999450683594" stroke-width="2.0" fill="none" stroke="rgb(0, 0, 0)" stroke-opacity="1" stroke-linecap="round" stroke-linejoin="round"/>
    <path d="M 44.887001037597656 118.7229995727539 C 44.147499084472656 143.17799377441406 57.05039978027344 123.822998046875 38.64099884033203 153.34100341796875" stroke-width="2.0" fill="none" stroke="rgb(0, 0, 0)" stroke-opacity="1" stroke-linecap="round" stroke-linejoin="round"/>
    <path d="M 37.44409942626953 113.21900177001953 C 41.92610168457031 114.69200134277344 45.73749923706055 101.49299621582031 60.153900146484375 101.40299987792969" stroke-width="2.0" fill="none" stroke="rgb(0, 0, 0)" stroke-opacity="1" stroke-linecap="round" stroke-linejoin="round"/>
    <path d="M 43.82350158691406 115.48300170898438 C 44.053001403808594 112.7229995727539 40.280601501464844 105.9489974975586 50.25849914550781 106.91999816894531" stroke-width="2.0" fill="none" stroke="rgb(0, 0, 0)" stroke-opacity="1" stroke-linecap="round" stroke-linejoin="round"/>
    <path d="M 25.352800369262695 118.54399871826172 C 40.7411994934082 140.15499877929688 18.739299774169922 133.7220001220703 20.404300689697266 145.11300659179688" stroke-width="2.0" fill="none" stroke="rgb(0, 0, 0)" stroke-opacity="1" stroke-linecap="round" stroke-linejoin="round"/>
    <path d="M 38.82849884033203 103.62100219726562 C 47.16239929199219 84.8593978881836 14.554200172424316 97.0718002319336 34.64950180053711 96.90489959716797" stroke-width="2.0" fill="none" stroke="rgb(0, 0, 0)" stroke-opacity="1" stroke-linecap="round" stroke-linejoin="round"/>
    <path d="M 21.868200302124023 137.72799682617188 C 45.178001403808594 112.30500030517578 25.450199127197266 94.12329864501953 45.5890007019043 132.28700256347656" stroke-width="2.0" fill="none" stroke="rgb(0, 0, 0)" stroke-opacity="1" stroke-linecap="round" stroke-linejoin="round"/>
    <path d="M 47.881099700927734 136.8300018310547 C 41.79570007324219 114.81199645996094 29.515199661254883 101.48799896240234 44.09510040283203 140.23899841308594" stroke-width="2.0" fill="none" stroke="rgb(0, 0, 0)" stroke-opacity="1" stroke-linecap="round" stroke-linejoin="round"/>
    <path d="M 103.26499938964844 106.09200286865234 C 96.7072982788086 105.927001953125 81.15840148925781 105.49800109863281 103.83499908447266 106.13099670410156" stroke-width="2.0" fill="none" stroke="rgb(0, 0, 0)" stroke-opacity="1" stroke-linecap="round" stroke-linejoin="round"/>
    <path d="M 53.25859832763672 104.3030014038086 C 49.513099670410156 109.23100280761719 66.69400024414062 98.40959930419922 52.78459930419922 106.01699829101562" stroke-width="2.0" fill="none" stroke="rgb(0, 0, 0)" stroke-opacity="1" stroke-linecap="round" stroke-linejoin="round"/>
    <path d="M 103.9520034790039 106.69599914550781 C 93.94270324707031 106.10299682617188 89.93769836425781 104.8740005493164 84.08470153808594 106.58599853515625" stroke-width="2.0" fill="none" stroke="rgb(0, 0, 0)" stroke-opacity="1" stroke-linecap="round" stroke-linejoin="round"/>
    <path d="M 87.62770080566406 106.875 C 103.28900146484375 106.43399810791016 98.80860137939453 105.56300354003906 90.48819732666016 105.97699737548828" stroke-width="2.0" fill="none" stroke="rgb(0, 0, 0)" stroke-opacity="1" stroke-linecap="round" stroke-linejoin="round"/>
    <path d="M 36.89500045776367 114.5469970703125 C 34.63159942626953 116.88899993896484 36.32059860229492 102.31600189208984 35.04560089111328 111.27899932861328" stroke-width="2.0" fill="none" stroke="rgb(0, 0, 0)" stroke-opacity="1" stroke-linecap="round" stroke-linejoin="round"/>
    <path d="M 33.41809844970703 122.7760009765625 C 31.445600509643555 108.7770004272461 43.45750045776367 116.19100189208984 51.604000091552734 105.00800323486328" stroke-width="2.0" fill="none" stroke="rgb(0, 0, 0)" stroke-opacity="1" stroke-linecap="round" stroke-linejoin="round"/>
    <path d="M 32.986000061035156 193.43899536132812 C 41.44900131225586 198.9149932861328 61.34489822387695 187.10800170898438 39.99850082397461 194.48899841308594" stroke-width="2.0" fill="none" stroke="rgb(0, 0, 0)" stroke-opacity="1" stroke-linecap="round" stroke-linejoin="round"/>
    <path d="M 35.21659851074219 98.05139923095703 C 32.56010055541992 123.53199768066406 50.1505012512207 108.84600067138672 42.22600173950195 111.61100006103516" stroke-width="2.0" fill="none" stroke="rgb(0, 0, 0)" stroke-opacity="1" stroke-linecap="round" stroke-linejoin="round"/>
    <path d="M 98.87760162353516 106.41799926757812 C 111.18399810791016 105.95099639892578 102.90699768066406 106.74700164794922 81.80619812011719 106.21900177001953" stroke-width="2.0" fill="none" stroke="rgb(0, 0, 0)" stroke-opacity="1" stroke-linecap="round" stroke-linejoin="round"/>
    <path d="M 48.74789810180664 107.69400024414062 C 56.17580032348633 101.66200256347656 54.746299743652344 102.0199966430664 32.864498138427734 114.41699981689453" stroke-width="2.0" fill="none" stroke="rgb(0, 0, 0)" stroke-opacity="1" stroke-linecap="round" stroke-linejoin="round"/>
    <path d="M 27.634000778198242 110.99099731445312 C 27.425500869750977 126.14099884033203 30.11949920654297 127.51200103759766 34.613399505615234 111.08300018310547" stroke-width="2.0" fill="none" stroke="rgb(0, 0, 0)" stroke-opacity="1" stroke-linecap="round" stroke-linejoin="round"/>
    <path d="M 40.50849914550781 112.10399627685547 C 15.913100242614746 118.6969985961914 25.1471004486084 117.5199966430664 34.66299819946289 109.88899993896484" stroke-width="2.0" fill="none" stroke="rgb(0, 0, 0)" stroke-opacity="1" stroke-linecap="round" stroke-linejoin="round"/>
    <path d="M 29.236099243164062 117.67400360107422 C 42.33700180053711 91.16960144042969 38.78049850463867 100.21900177001953 35.96799850463867 103.5739974975586" stroke-width="2.0" fill="none" stroke="rgb(0, 0, 0)" stroke-opacity="1" stroke-linecap="round" stroke-linejoin="round"/>
    <path d="M 81.11039733886719 104.4020004272461 C 103.04900360107422 100.2229995727539 121.45099639892578 106.48600006103516 98.26419830322266 106.83399963378906" stroke-width="2.0" fill="none" stroke="rgb(0, 0, 0)" stroke-opacity="1" stroke-linecap="round" stroke-linejoin="round"/>
    <path d="M 53.307899475097656 104.28800201416016 C 52.04650115966797 96.28350067138672 54.7224006652832 101.8239974975586 42.1870002746582 112.11900329589844" stroke-width="2.0" fill="none" stroke="rgb(0, 0, 0)" stroke-opacity="1" stroke-linecap="round" stroke-linejoin="round"/>
    <path d="M 36.63859939575195 104.197998046875 C 20.95159912109375 126.61900329589844 45.7239990234375 108.68900299072266 45.76300048828125 109.03600311279297" stroke-width="2.0" fill="none" stroke="rgb(0, 0, 0)" stroke-opacity="1" stroke-linecap="round" stroke-linejoin="round"/>
    <path d="M 38.11000061035156 157.625 C 43.94499969482422 124.23799896240234 27.148099899291992 114.18399810791016 33.1870002746582 113.11900329589844" stroke-width="2.0" fill="none" stroke="rgb(0, 0, 0)" stroke-opacity="1" stroke-linecap="round" stroke-linejoin="round"/>
    <path d="M 39.0984992980957 113.89099884033203 C 49.71839904785156 112.43900299072266 46.940399169921875 105.28099822998047 55.90290069580078 104.66400146484375" stroke-width="2.0" fill="none" stroke="rgb(0, 0, 0)" stroke-opacity="1" stroke-linecap="round" stroke-linejoin="round"/>
  </g>
</svg>
