<?xml version="1.0" ?>
<svg xmlns="http://www.w3.org/2000/svg" version="1.1" width="256" height="256">
  <defs/>
  <g>
    <path d="M 149.50399780273438 108.9000015258789 C 166.25100708007812 122.66000366210938 216.24400329589844 122.072998046875 214.5290069580078 104.7239990234375" stroke-width="3.0" fill="none" stroke="rgb(0, 0, 0)" stroke-opacity="1" stroke-linecap="round" stroke-linejoin="round"/>
    <path d="M 90.2052001953125 145.20899963378906 C 99.59760284423828 103.48300170898438 73.13970184326172 135.33700561523438 81.51969909667969 148.11900329589844" stroke-width="3.0" fill="none" stroke="rgb(0, 0, 0)" stroke-opacity="1" stroke-linecap="round" stroke-linejoin="round"/>
    <path d="M 112.86900329589844 106.8479995727539 C 119.322998046875 111.65299987792969 155.48399353027344 107.51399993896484 122.63899993896484 112.5469970703125" stroke-width="3.0" fill="none" stroke="rgb(0, 0, 0)" stroke-opacity="1" stroke-linecap="round" stroke-linejoin="round"/>
    <path d="M 130.17999267578125 118.02799987792969 C 177.05499267578125 118.95700073242188 169.9709930419922 118.34300231933594 167.9499969482422 117.62999725341797" stroke-width="3.0" fill="none" stroke="rgb(0, 0, 0)" stroke-opacity="1" stroke-linecap="round" stroke-linejoin="round"/>
    <path d="M 203.82200622558594 112.75399780273438 C 203.1009979248047 125.50499725341797 236.2519989013672 92.72979736328125 206.75100708007812 104.43199920654297" stroke-width="3.0" fill="none" stroke="rgb(0, 0, 0)" stroke-opacity="1" stroke-linecap="round" stroke-linejoin="round"/>
    <path d="M 217.43099975585938 108.90299987792969 C 223.70599365234375 107.59200286865234 190.66799926757812 108.8499984741211 217.7259979248047 106.83499908447266" stroke-width="3.0" fill="none" stroke="rgb(0, 0, 0)" stroke-opacity="1" stroke-linecap="round" stroke-linejoin="round"/>
    <path d="M 96.65889739990234 86.87349700927734 C 109.79900360107422 110.88500213623047 97.60679626464844 117.72100067138672 102.63099670410156 91.68930053710938" stroke-width="3.0" fill="none" stroke="rgb(0, 0, 0)" stroke-opacity="1" stroke-linecap="round" stroke-linejoin="round"/>
    <path d="M 91.21600341796875 162.7779998779297 C 90.00060272216797 193.41200256347656 81.0593032836914 167.77999877929688 73.98560333251953 195.14599609375" stroke-width="3.0" fill="none" stroke="rgb(0, 0, 0)" stroke-opacity="1" stroke-linecap="round" stroke-linejoin="round"/>
    <path d="M 166.98500061035156 204.16900634765625 C 165.11599731445312 186.59800720214844 164.43099975585938 185.67300415039062 162.72999572753906 142.718994140625" stroke-width="3.0" fill="none" stroke="rgb(0, 0, 0)" stroke-opacity="1" stroke-linecap="round" stroke-linejoin="round"/>
    <path d="M 146.32699584960938 103.3949966430664 C 209.91400146484375 111.87000274658203 156.5780029296875 77.95369720458984 124.21299743652344 112.58999633789062" stroke-width="3.0" fill="none" stroke="rgb(0, 0, 0)" stroke-opacity="1" stroke-linecap="round" stroke-linejoin="round"/>
    <path d="M 109.22599792480469 117.1240005493164 C 114.45700073242188 152.96099853515625 95.24440002441406 146.12899780273438 88.58789825439453 170.2740020751953" stroke-width="3.0" fill="none" stroke="rgb(0, 0, 0)" stroke-opacity="1" stroke-linecap="round" stroke-linejoin="round"/>
    <path d="M 176.06399536132812 115.60299682617188 C 175.6009979248047 105.36699676513672 167.593994140625 106.61199951171875 119.34600067138672 114.9010009765625" stroke-width="3.0" fill="none" stroke="rgb(0, 0, 0)" stroke-opacity="1" stroke-linecap="round" stroke-linejoin="round"/>
    <path d="M 186.25999450683594 94.02449798583984 C 200.59500122070312 107.00399780273438 176.70799255371094 130.69200134277344 153.56100463867188 112.36100006103516" stroke-width="3.0" fill="none" stroke="rgb(0, 0, 0)" stroke-opacity="1" stroke-linecap="round" stroke-linejoin="round"/>
    <path d="M 209.72799682617188 184.65699768066406 C 210.44500732421875 193.14700317382812 212.5489959716797 195.36300659179688 212.6790008544922 202.96400451660156" stroke-width="3.0" fill="none" stroke="rgb(0, 0, 0)" stroke-opacity="1" stroke-linecap="round" stroke-linejoin="round"/>
    <path d="M 99.627197265625 113.87699890136719 C 72.28510284423828 75.83719635009766 110.56800079345703 86.45079803466797 104.99800109863281 107.34500122070312" stroke-width="3.0" fill="none" stroke="rgb(0, 0, 0)" stroke-opacity="1" stroke-linecap="round" stroke-linejoin="round"/>
    <path d="M 91.33390045166016 96.3042984008789 C 111.81999969482422 81.3488998413086 101.11100006103516 73.18679809570312 126.875 94.09750366210938" stroke-width="3.0" fill="none" stroke="rgb(0, 0, 0)" stroke-opacity="1" stroke-linecap="round" stroke-linejoin="round"/>
    <path d="M 207.28599548339844 160.3489990234375 C 206.2830047607422 144.64300537109375 205.77699279785156 135.85299682617188 205.29400634765625 137.82899475097656" stroke-width="3.0" fill="none" stroke="rgb(0, 0, 0)" stroke-opacity="1" stroke-linecap="round" stroke-linejoin="round"/>
    <path d="M 88.07769775390625 147.04299926757812 C 93.81199645996094 102.4800033569336 79.72000122070312 142.6790008544922 89.97640228271484 126.27100372314453" stroke-width="3.0" fill="none" stroke="rgb(0, 0, 0)" stroke-opacity="1" stroke-linecap="round" stroke-linejoin="round"/>
    <path d="M 70.06500244140625 192.1540069580078 C 88.760498046875 159.5070037841797 54.0359992980957 177.1719970703125 78.24459838867188 141.83399963378906" stroke-width="3.0" fill="none" stroke="rgb(0, 0, 0)" stroke-opacity="1" stroke-linecap="round" stroke-linejoin="round"/>
    <path d="M 87.03469848632812 205.81100463867188 C 107.64399719238281 201.98500061035156 74.42990112304688 236.99600219726562 71.4031982421875 191.0709991455078" stroke-width="3.0" fill="none" stroke="rgb(0, 0, 0)" stroke-opacity="1" stroke-linecap="round" stroke-linejoin="round"/>
    <path d="M 48.13420104980469 143.20899963378906 C 44.88460159301758 162.1649932861328 102.23699951171875 177.322998046875 48.25790023803711 143.6280059814453" stroke-width="3.0" fill="none" stroke="rgb(0, 0, 0)" stroke-opacity="1" stroke-linecap="round" stroke-linejoin="round"/>
    <path d="M 194.3249969482422 116.77799987792969 C 229.76800537109375 111.63200378417969 186.62399291992188 94.68199920654297 202.38499450683594 102.11199951171875" stroke-width="3.0" fill="none" stroke="rgb(0, 0, 0)" stroke-opacity="1" stroke-linecap="round" stroke-linejoin="round"/>
    <path d="M 85.35350036621094 105.9260025024414 C 93.92379760742188 164.22300720214844 78.2125015258789 136.89700317382812 90.814697265625 97.73829650878906" stroke-width="3.0" fill="none" stroke="rgb(0, 0, 0)" stroke-opacity="1" stroke-linecap="round" stroke-linejoin="round"/>
    <path d="M 129.38600158691406 108.94300079345703 C 165.39100646972656 96.68000030517578 162.61199951171875 60.07979965209961 150.3679962158203 102.66300201416016" stroke-width="3.0" fill="none" stroke="rgb(0, 0, 0)" stroke-opacity="1" stroke-linecap="round" stroke-linejoin="round"/>
    <path d="M 151.06500244140625 117.48100280761719 C 182.64700317382812 111.90399932861328 180.59800720214844 98.5468978881836 153.7949981689453 97.08070373535156" stroke-width="3.0" fill="none" stroke="rgb(0, 0, 0)" stroke-opacity="1" stroke-linecap="round" stroke-linejoin="round"/>
    <path d="M 111.49099731445312 79.0 C 138.76199340820312 100.81700134277344 107.10700225830078 95.88619995117188 125.30699920654297 89.7782974243164" stroke-width="3.0" fill="none" stroke="rgb(0, 0, 0)" stroke-opacity="1" stroke-linecap="round" stroke-linejoin="round"/>
    <path d="M 206.322998046875 152.98699951171875 C 208.11000061035156 185.32200622558594 210.7030029296875 187.27999877929688 211.0449981689453 193.55799865722656" stroke-width="3.0" fill="none" stroke="rgb(0, 0, 0)" stroke-opacity="1" stroke-linecap="round" stroke-linejoin="round"/>
    <path d="M 172.25799560546875 111.93199920654297 C 142.86700439453125 105.1520004272461 132.0 108.427001953125 164.7429962158203 116.06400299072266" stroke-width="3.0" fill="none" stroke="rgb(0, 0, 0)" stroke-opacity="1" stroke-linecap="round" stroke-linejoin="round"/>
    <path d="M 155.61000061035156 112.41200256347656 C 132.64100646972656 93.0625 169.17999267578125 115.0999984741211 136.32699584960938 107.0459976196289" stroke-width="3.0" fill="none" stroke="rgb(0, 0, 0)" stroke-opacity="1" stroke-linecap="round" stroke-linejoin="round"/>
    <path d="M 89.13520050048828 86.67559814453125 C 105.24299621582031 118.92500305175781 121.27899932861328 128.25399780273438 116.99600219726562 114.2979965209961" stroke-width="3.0" fill="none" stroke="rgb(0, 0, 0)" stroke-opacity="1" stroke-linecap="round" stroke-linejoin="round"/>
    <path d="M 174.76100158691406 117.71399688720703 C 176.1060028076172 114.90699768066406 182.6320037841797 120.06600189208984 187.7220001220703 120.2490005493164" stroke-width="3.0" fill="none" stroke="rgb(0, 0, 0)" stroke-opacity="1" stroke-linecap="round" stroke-linejoin="round"/>
    <path d="M 169.63400268554688 117.68900299072266 C 140.06900024414062 99.02660369873047 146.9669952392578 127.73500061035156 158.79200744628906 85.05780029296875" stroke-width="3.0" fill="none" stroke="rgb(0, 0, 0)" stroke-opacity="1" stroke-linecap="round" stroke-linejoin="round"/>
    <path d="M 213.64300537109375 106.66500091552734 C 190.3350067138672 112.5270004272461 152.8419952392578 119.53500366210938 218.34300231933594 121.09300231933594" stroke-width="3.0" fill="none" stroke="rgb(0, 0, 0)" stroke-opacity="1" stroke-linecap="round" stroke-linejoin="round"/>
    <path d="M 198.28199768066406 104.83000183105469 C 202.40199279785156 113.29900360107422 196.52099609375 98.89350128173828 192.24000549316406 95.20459747314453" stroke-width="3.0" fill="none" stroke="rgb(0, 0, 0)" stroke-opacity="1" stroke-linecap="round" stroke-linejoin="round"/>
    <path d="M 129.18800354003906 112.18199920654297 C 179.29400634765625 114.11100006103516 189.75900268554688 121.55699920654297 144.96800231933594 118.13999938964844" stroke-width="3.0" fill="none" stroke="rgb(0, 0, 0)" stroke-opacity="1" stroke-linecap="round" stroke-linejoin="round"/>
    <path d="M 188.00999450683594 119.4729995727539 C 222.39199829101562 115.03099822998047 211.93499755859375 97.22350311279297 203.04100036621094 116.08300018310547" stroke-width="3.0" fill="none" stroke="rgb(0, 0, 0)" stroke-opacity="1" stroke-linecap="round" stroke-linejoin="round"/>
    <path d="M 100.02400207519531 117.39099884033203 C 101.71099853515625 94.74510192871094 136.47000122070312 112.20500183105469 133.13099670410156 92.70059967041016" stroke-width="3.0" fill="none" stroke="rgb(0, 0, 0)" stroke-opacity="1" stroke-linecap="round" stroke-linejoin="round"/>
    <path d="M 104.63600158691406 145.7760009765625 C 84.47560119628906 214.41600036621094 77.71019744873047 181.73300170898438 91.89299774169922 214.50100708007812" stroke-width="3.0" fill="none" stroke="rgb(0, 0, 0)" stroke-opacity="1" stroke-linecap="round" stroke-linejoin="round"/>
    <path d="M 195.32899475097656 118.14399719238281 C 235.0449981689453 127.85700225830078 205.0030059814453 106.95800018310547 193.01300048828125 93.2428970336914" stroke-width="3.0" fill="none" stroke="rgb(0, 0, 0)" stroke-opacity="1" stroke-linecap="round" stroke-linejoin="round"/>
    <path d="M 122.19000244140625 112.68299865722656 C 176.14300537109375 95.25980377197266 161.3509979248047 100.69300079345703 138.98300170898438 107.3239974975586" stroke-width="3.0" fill="none" stroke="rgb(0, 0, 0)" stroke-opacity="1" stroke-linecap="round" stroke-linejoin="round"/>
    <path d="M 86.94509887695312 112.38899993896484 C 104.28600311279297 138.27699279785156 102.48200225830078 126.30599975585938 115.76000213623047 113.2040023803711" stroke-width="3.0" fill="none" stroke="rgb(0, 0, 0)" stroke-opacity="1" stroke-linecap="round" stroke-linejoin="round"/>
    <path d="M 149.04400634765625 104.26599884033203 C 110.28700256347656 121.6500015258789 95.22100067138672 115.58200073242188 128.49200439453125 115.41100311279297" stroke-width="3.0" fill="none" stroke="rgb(0, 0, 0)" stroke-opacity="1" stroke-linecap="round" stroke-linejoin="round"/>
    <path d="M 159.35899353027344 85.37969970703125 C 149.656005859375 108.29199981689453 111.1449966430664 113.66300201416016 158.33900451660156 110.1760025024414" stroke-width="3.0" fill="none" stroke="rgb(0, 0, 0)" stroke-opacity="1" stroke-linecap="round" stroke-linejoin="round"/>
    <path d="M 92.39739990234375 99.11470031738281 C 82.32749938964844 74.64739990234375 127.51399993896484 88.25779724121094 100.58699798583984 105.30799865722656" stroke-width="3.0" fill="none" stroke="rgb(0, 0, 0)" stroke-opacity="1" stroke-linecap="round" stroke-linejoin="round"/>
    <path d="M 101.85399627685547 95.26850128173828 C 86.57579803466797 127.8290023803711 97.1884994506836 72.86329650878906 92.9021987915039 98.74600219726562" stroke-width="3.0" fill="none" stroke="rgb(0, 0, 0)" stroke-opacity="1" stroke-linecap="round" stroke-linejoin="round"/>
    <path d="M 174.89700317382812 111.0 C 176.1540069580078 124.25 190.0590057373047 119.2239990234375 158.13999938964844 101.28500366210938" stroke-width="3.0" fill="none" stroke="rgb(0, 0, 0)" stroke-opacity="1" stroke-linecap="round" stroke-linejoin="round"/>
    <path d="M 178.92799377441406 116.9219970703125 C 208.68099975585938 103.06600189208984 219.0489959716797 116.03800201416016 146.60499572753906 117.5790023803711" stroke-width="3.0" fill="none" stroke="rgb(0, 0, 0)" stroke-opacity="1" stroke-linecap="round" stroke-linejoin="round"/>
    <path d="M 110.65599822998047 104.63800048828125 C 73.16549682617188 104.33399963378906 91.53489685058594 73.93620300292969 98.7699966430664 115.36199951171875" stroke-width="3.0" fill="none" stroke="rgb(0, 0, 0)" stroke-opacity="1" stroke-linecap="round" stroke-linejoin="round"/>
    <path d="M 110.54399871826172 102.87000274658203 C 79.10299682617188 90.5198974609375 101.00199890136719 125.5979995727539 88.95159912109375 88.1697006225586" stroke-width="3.0" fill="none" stroke="rgb(0, 0, 0)" stroke-opacity="1" stroke-linecap="round" stroke-linejoin="round"/>
    <path d="M 193.81700134277344 93.10440063476562 C 174.55099487304688 83.78610229492188 166.54100036621094 125.40699768066406 193.468994140625 118.10600280761719" stroke-width="3.0" fill="none" stroke="rgb(0, 0, 0)" stroke-opacity="1" stroke-linecap="round" stroke-linejoin="round"/>
    <path d="M 127.28900146484375 101.8740005493164 C 149.5760040283203 82.00019836425781 93.90029907226562 93.58170318603516 105.90699768066406 87.24600219726562" stroke-width="3.0" fill="none" stroke="rgb(0, 0, 0)" stroke-opacity="1" stroke-linecap="round" stroke-linejoin="round"/>
    <path d="M 173.71200561523438 116.2699966430664 C 179.0749969482422 117.53900146484375 111.04900360107422 119.06900024414062 114.83200073242188 119.94599914550781" stroke-width="3.0" fill="none" stroke="rgb(0, 0, 0)" stroke-opacity="1" stroke-linecap="round" stroke-linejoin="round"/>
    <path d="M 100.34200286865234 110.79000091552734 C 93.89409637451172 87.42559814453125 84.81050109863281 75.44509887695312 110.92900085449219 87.7520980834961" stroke-width="3.0" fill="none" stroke="rgb(0, 0, 0)" stroke-opacity="1" stroke-linecap="round" stroke-linejoin="round"/>
    <path d="M 132.1840057373047 96.19750213623047 C 93.24739837646484 99.96410369873047 142.53399658203125 94.1771011352539 120.61799621582031 109.22699737548828" stroke-width="3.0" fill="none" stroke="rgb(0, 0, 0)" stroke-opacity="1" stroke-linecap="round" stroke-linejoin="round"/>
    <path d="M 125.75900268554688 90.28700256347656 C 112.05000305175781 115.09500122070312 160.69000244140625 93.41200256347656 102.50700378417969 86.68450164794922" stroke-width="3.0" fill="none" stroke="rgb(0, 0, 0)" stroke-opacity="1" stroke-linecap="round" stroke-linejoin="round"/>
    <path d="M 121.62699890136719 89.31159973144531 C 99.80120086669922 81.089599609375 129.21200561523438 88.30699920654297 92.15869903564453 100.23400115966797" stroke-width="3.0" fill="none" stroke="rgb(0, 0, 0)" stroke-opacity="1" stroke-linecap="round" stroke-linejoin="round"/>
    <path d="M 92.27510070800781 97.42320251464844 C 83.23880004882812 81.94200134277344 83.61759948730469 92.82550048828125 108.36699676513672 79.97650146484375" stroke-width="3.0" fill="none" stroke="rgb(0, 0, 0)" stroke-opacity="1" stroke-linecap="round" stroke-linejoin="round"/>
    <path d="M 191.14100646972656 118.3550033569336 C 176.21499633789062 115.92900085449219 149.7740020751953 105.97799682617188 167.8820037841797 106.99400329589844" stroke-width="3.0" fill="none" stroke="rgb(0, 0, 0)" stroke-opacity="1" stroke-linecap="round" stroke-linejoin="round"/>
    <path d="M 107.13800048828125 87.89140319824219 C 103.94200134277344 112.15699768066406 95.88179779052734 109.51699829101562 103.84400177001953 95.29570007324219" stroke-width="3.0" fill="none" stroke="rgb(0, 0, 0)" stroke-opacity="1" stroke-linecap="round" stroke-linejoin="round"/>
  </g>
</svg>
