<?xml version="1.0" ?>
<svg xmlns="http://www.w3.org/2000/svg" version="1.1" width="256" height="256">
  <defs/>
  <g>
    <path d="M 96.6729965209961 119.4260025024414 C 84.12460327148438 127.54299926757812 98.70960235595703 134.84800720214844 92.9708023071289 88.98719787597656" stroke-width="2.0" fill="none" stroke="rgb(0, 0, 0)" stroke-opacity="1" stroke-linecap="round" stroke-linejoin="round"/>
    <path d="M 140.13400268554688 173.27000427246094 C 165.78900146484375 175.322998046875 155.9219970703125 166.97000122070312 158.66600036621094 139.94000244140625" stroke-width="2.0" fill="none" stroke="rgb(0, 0, 0)" stroke-opacity="1" stroke-linecap="round" stroke-linejoin="round"/>
    <path d="M 159.3800048828125 108.15399932861328 C 159.91200256347656 156.4980010986328 158.58799743652344 143.37100219726562 157.7169952392578 131.4040069580078" stroke-width="2.0" fill="none" stroke="rgb(0, 0, 0)" stroke-opacity="1" stroke-linecap="round" stroke-linejoin="round"/>
    <path d="M 88.70600128173828 101.46900177001953 C 106.71900177001953 56.301300048828125 90.73049926757812 132.14599609375 93.3573989868164 147.49899291992188" stroke-width="2.0" fill="none" stroke="rgb(0, 0, 0)" stroke-opacity="1" stroke-linecap="round" stroke-linejoin="round"/>
    <path d="M 115.24500274658203 115.84500122070312 C 146.56199645996094 82.03730010986328 139.25900268554688 118.83699798583984 96.106201171875 109.73999786376953" stroke-width="2.0" fill="none" stroke="rgb(0, 0, 0)" stroke-opacity="1" stroke-linecap="round" stroke-linejoin="round"/>
    <path d="M 158.94700622558594 156.4969940185547 C 159.0489959716797 106.56600189208984 160.11000061035156 131.53199768066406 158.61000061035156 168.11199951171875" stroke-width="2.0" fill="none" stroke="rgb(0, 0, 0)" stroke-opacity="1" stroke-linecap="round" stroke-linejoin="round"/>
    <path d="M 82.29879760742188 101.73600006103516 C 62.402198791503906 119.33999633789062 84.83409881591797 87.29190063476562 116.84400177001953 112.3280029296875" stroke-width="2.0" fill="none" stroke="rgb(0, 0, 0)" stroke-opacity="1" stroke-linecap="round" stroke-linejoin="round"/>
    <path d="M 193.3090057373047 212.6479949951172 C 193.35800170898438 131.09800720214844 194.05299377441406 150.2010040283203 194.4010009765625 215.8040008544922" stroke-width="2.0" fill="none" stroke="rgb(0, 0, 0)" stroke-opacity="1" stroke-linecap="round" stroke-linejoin="round"/>
    <path d="M 193.21800231933594 212.88299560546875 C 184.18299865722656 211.10499572753906 217.56199645996094 214.15499877929688 160.38499450683594 215.8979949951172" stroke-width="2.0" fill="none" stroke="rgb(0, 0, 0)" stroke-opacity="1" stroke-linecap="round" stroke-linejoin="round"/>
    <path d="M 191.8300018310547 158.68099975585938 C 191.97000122070312 132.40199279785156 190.99099731445312 115.90499877929688 190.9239959716797 153.34100341796875" stroke-width="2.0" fill="none" stroke="rgb(0, 0, 0)" stroke-opacity="1" stroke-linecap="round" stroke-linejoin="round"/>
    <path d="M 90.73030090332031 167.2969970703125 C 94.3667984008789 190.5760040283203 105.36699676513672 185.06500244140625 94.85569763183594 181.92999267578125" stroke-width="2.0" fill="none" stroke="rgb(0, 0, 0)" stroke-opacity="1" stroke-linecap="round" stroke-linejoin="round"/>
    <path d="M 98.33740234375 87.806396484375 C 98.75759887695312 129.43899536132812 92.543701171875 130.9929962158203 96.13790130615234 89.42579650878906" stroke-width="2.0" fill="none" stroke="rgb(0, 0, 0)" stroke-opacity="1" stroke-linecap="round" stroke-linejoin="round"/>
    <path d="M 94.28600311279297 124.18399810791016 C 90.60900115966797 95.4540023803711 126.93000030517578 100.80000305175781 98.81159973144531 115.62300109863281" stroke-width="2.0" fill="none" stroke="rgb(0, 0, 0)" stroke-opacity="1" stroke-linecap="round" stroke-linejoin="round"/>
    <path d="M 93.1353988647461 211.11199951171875 C 114.75 213.77999877929688 85.4115982055664 224.093994140625 100.28600311279297 181.1510009765625" stroke-width="2.0" fill="none" stroke="rgb(0, 0, 0)" stroke-opacity="1" stroke-linecap="round" stroke-linejoin="round"/>
    <path d="M 141.93699645996094 48.23910140991211 C 154.0959930419922 49.59560012817383 145.14700317382812 40.960899353027344 159.46299743652344 93.6144027709961" stroke-width="2.0" fill="none" stroke="rgb(0, 0, 0)" stroke-opacity="1" stroke-linecap="round" stroke-linejoin="round"/>
    <path d="M 152.38900756835938 50.214698791503906 C 154.11700439453125 30.780099868774414 134.70199584960938 92.2594985961914 140.98500061035156 103.20600128173828" stroke-width="2.0" fill="none" stroke="rgb(0, 0, 0)" stroke-opacity="1" stroke-linecap="round" stroke-linejoin="round"/>
    <path d="M 194.74899291992188 58.50339889526367 C 192.9010009765625 53.19029998779297 194.89300537109375 28.189199447631836 194.36099243164062 61.023399353027344" stroke-width="2.0" fill="none" stroke="rgb(0, 0, 0)" stroke-opacity="1" stroke-linecap="round" stroke-linejoin="round"/>
    <path d="M 69.43920135498047 181.3300018310547 C 40.275299072265625 221.08399963378906 72.29550170898438 219.19200134277344 55.0 211.72300720214844" stroke-width="2.0" fill="none" stroke="rgb(0, 0, 0)" stroke-opacity="1" stroke-linecap="round" stroke-linejoin="round"/>
    <path d="M 190.31100463867188 214.6439971923828 C 191.97300720214844 104.75 190.77999877929688 108.6780014038086 192.41700744628906 196.94200134277344" stroke-width="2.0" fill="none" stroke="rgb(0, 0, 0)" stroke-opacity="1" stroke-linecap="round" stroke-linejoin="round"/>
    <path d="M 94.1448974609375 209.9250030517578 C 105.38899993896484 165.8699951171875 111.06700134277344 189.98599243164062 97.72579956054688 156.13299560546875" stroke-width="2.0" fill="none" stroke="rgb(0, 0, 0)" stroke-opacity="1" stroke-linecap="round" stroke-linejoin="round"/>
    <path d="M 95.30120086669922 203.25900268554688 C 101.75900268554688 161.33299255371094 72.11199951171875 177.5050048828125 100.19400024414062 179.5399932861328" stroke-width="2.0" fill="none" stroke="rgb(0, 0, 0)" stroke-opacity="1" stroke-linecap="round" stroke-linejoin="round"/>
    <path d="M 149.70599365234375 78.44200134277344 C 128.4029998779297 110.7490005493164 148.0260009765625 99.8156967163086 130.22000122070312 103.84300231933594" stroke-width="2.0" fill="none" stroke="rgb(0, 0, 0)" stroke-opacity="1" stroke-linecap="round" stroke-linejoin="round"/>
    <path d="M 79.10369873046875 175.85699462890625 C 87.65360260009766 162.65199279785156 88.32879638671875 176.38699340820312 69.518798828125 178.78700256347656" stroke-width="2.0" fill="none" stroke="rgb(0, 0, 0)" stroke-opacity="1" stroke-linecap="round" stroke-linejoin="round"/>
    <path d="M 138.44700622558594 95.14990234375 C 129.86900329589844 79.08039855957031 154.08200073242188 78.5823974609375 161.24099731445312 90.74479675292969" stroke-width="2.0" fill="none" stroke="rgb(0, 0, 0)" stroke-opacity="1" stroke-linecap="round" stroke-linejoin="round"/>
    <path d="M 138.13999938964844 139.7480010986328 C 140.43699645996094 116.4229965209961 141.63999938964844 129.11300659179688 139.76699829101562 170.02099609375" stroke-width="2.0" fill="none" stroke="rgb(0, 0, 0)" stroke-opacity="1" stroke-linecap="round" stroke-linejoin="round"/>
    <path d="M 147.96200561523438 83.5259017944336 C 136.34500122070312 91.10330200195312 142.36300659179688 80.37319946289062 146.0330047607422 59.99169921875" stroke-width="2.0" fill="none" stroke="rgb(0, 0, 0)" stroke-opacity="1" stroke-linecap="round" stroke-linejoin="round"/>
    <path d="M 204.8939971923828 214.58099365234375 C 188.55599975585938 214.44700622558594 191.96499633789062 220.33799743652344 193.28799438476562 178.85699462890625" stroke-width="2.0" fill="none" stroke="rgb(0, 0, 0)" stroke-opacity="1" stroke-linecap="round" stroke-linejoin="round"/>
    <path d="M 138.48399353027344 170.88999938964844 C 139.6790008544922 92.5636978149414 144.7449951171875 114.88600158691406 124.19999694824219 112.46600341796875" stroke-width="2.0" fill="none" stroke="rgb(0, 0, 0)" stroke-opacity="1" stroke-linecap="round" stroke-linejoin="round"/>
    <path d="M 141.47500610351562 108.94599914550781 C 121.45600128173828 103.7490005493164 118.75199890136719 124.31800079345703 105.47899627685547 111.03600311279297" stroke-width="2.0" fill="none" stroke="rgb(0, 0, 0)" stroke-opacity="1" stroke-linecap="round" stroke-linejoin="round"/>
    <path d="M 91.71170043945312 108.00399780273438 C 85.8292007446289 86.83920288085938 96.51409912109375 80.42579650878906 91.99909973144531 107.89399719238281" stroke-width="2.0" fill="none" stroke="rgb(0, 0, 0)" stroke-opacity="1" stroke-linecap="round" stroke-linejoin="round"/>
    <path d="M 98.8208999633789 180.31100463867188 C 74.21949768066406 179.51400756835938 92.40049743652344 167.6479949951172 79.97579956054688 176.6060028076172" stroke-width="2.0" fill="none" stroke="rgb(0, 0, 0)" stroke-opacity="1" stroke-linecap="round" stroke-linejoin="round"/>
    <path d="M 97.4563980102539 88.06069946289062 C 94.38829803466797 106.15699768066406 97.98429870605469 116.16000366210938 99.76679992675781 89.5363998413086" stroke-width="2.0" fill="none" stroke="rgb(0, 0, 0)" stroke-opacity="1" stroke-linecap="round" stroke-linejoin="round"/>
    <path d="M 101.4729995727539 105.5469970703125 C 86.9458999633789 134.80499267578125 113.0510025024414 84.1144027709961 92.04910278320312 132.7209930419922" stroke-width="2.0" fill="none" stroke="rgb(0, 0, 0)" stroke-opacity="1" stroke-linecap="round" stroke-linejoin="round"/>
    <path d="M 75.2886962890625 129.28399658203125 C 69.63719940185547 185.6009979248047 61.070701599121094 182.9969940185547 71.80229949951172 160.0679931640625" stroke-width="2.0" fill="none" stroke="rgb(0, 0, 0)" stroke-opacity="1" stroke-linecap="round" stroke-linejoin="round"/>
    <path d="M 76.89340209960938 142.60699462890625 C 83.35479736328125 131.36900329589844 68.0457992553711 141.38699340820312 69.72489929199219 168.7949981689453" stroke-width="2.0" fill="none" stroke="rgb(0, 0, 0)" stroke-opacity="1" stroke-linecap="round" stroke-linejoin="round"/>
    <path d="M 73.6946029663086 155.48399353027344 C 81.16590118408203 147.0709991455078 70.80809783935547 120.5250015258789 76.14530181884766 105.1760025024414" stroke-width="2.0" fill="none" stroke="rgb(0, 0, 0)" stroke-opacity="1" stroke-linecap="round" stroke-linejoin="round"/>
    <path d="M 77.04730224609375 137.36500549316406 C 72.83699798583984 148.8070068359375 75.18170166015625 149.56700134277344 77.36990356445312 148.03599548339844" stroke-width="2.0" fill="none" stroke="rgb(0, 0, 0)" stroke-opacity="1" stroke-linecap="round" stroke-linejoin="round"/>
    <path d="M 109.02100372314453 116.17900085449219 C 151.46200561523438 99.24449920654297 124.73999786376953 92.98320007324219 139.47799682617188 108.59700012207031" stroke-width="2.0" fill="none" stroke="rgb(0, 0, 0)" stroke-opacity="1" stroke-linecap="round" stroke-linejoin="round"/>
    <path d="M 96.58080291748047 104.71900177001953 C 70.93190002441406 106.71099853515625 82.51439666748047 94.90070343017578 116.45600128173828 112.58300018310547" stroke-width="2.0" fill="none" stroke="rgb(0, 0, 0)" stroke-opacity="1" stroke-linecap="round" stroke-linejoin="round"/>
    <path d="M 192.8820037841797 114.69200134277344 C 195.45899963378906 193.11599731445312 189.88600158691406 211.11300659179688 193.63699340820312 155.22000122070312" stroke-width="2.0" fill="none" stroke="rgb(0, 0, 0)" stroke-opacity="1" stroke-linecap="round" stroke-linejoin="round"/>
    <path d="M 194.22900390625 50.865299224853516 C 192.76699829101562 44.51129913330078 191.2010040283203 19.566200256347656 191.27099609375 130.9409942626953" stroke-width="2.0" fill="none" stroke="rgb(0, 0, 0)" stroke-opacity="1" stroke-linecap="round" stroke-linejoin="round"/>
    <path d="M 141.32899475097656 101.02300262451172 C 136.72500610351562 168.9969940185547 133.39999389648438 169.02000427246094 141.8730010986328 172.96099853515625" stroke-width="2.0" fill="none" stroke="rgb(0, 0, 0)" stroke-opacity="1" stroke-linecap="round" stroke-linejoin="round"/>
    <path d="M 95.70680236816406 149.01800537109375 C 87.33789825439453 142.28799438476562 90.57240295410156 122.00299835205078 102.25399780273438 172.91200256347656" stroke-width="2.0" fill="none" stroke="rgb(0, 0, 0)" stroke-opacity="1" stroke-linecap="round" stroke-linejoin="round"/>
    <path d="M 159.5489959716797 88.97709655761719 C 144.58900451660156 88.15769958496094 148.94200134277344 40.255699157714844 150.25399780273438 52.506900787353516" stroke-width="2.0" fill="none" stroke="rgb(0, 0, 0)" stroke-opacity="1" stroke-linecap="round" stroke-linejoin="round"/>
    <path d="M 139.9810028076172 84.52860260009766 C 153.48899841308594 98.15499877929688 150.20399475097656 59.75979995727539 145.28500366210938 56.997798919677734" stroke-width="2.0" fill="none" stroke="rgb(0, 0, 0)" stroke-opacity="1" stroke-linecap="round" stroke-linejoin="round"/>
    <path d="M 95.18070220947266 103.9469985961914 C 79.79540252685547 89.40740203857422 107.43599700927734 117.73699951171875 114.34600067138672 110.53700256347656" stroke-width="2.0" fill="none" stroke="rgb(0, 0, 0)" stroke-opacity="1" stroke-linecap="round" stroke-linejoin="round"/>
    <path d="M 137.93699645996094 103.8489990234375 C 102.92500305175781 125.072998046875 84.37519836425781 105.7699966430664 103.21299743652344 109.16100311279297" stroke-width="2.0" fill="none" stroke="rgb(0, 0, 0)" stroke-opacity="1" stroke-linecap="round" stroke-linejoin="round"/>
    <path d="M 161.78199768066406 84.9697036743164 C 156.031005859375 156.7689971923828 156.43800354003906 179.48800659179688 157.64999389648438 86.53359985351562" stroke-width="2.0" fill="none" stroke="rgb(0, 0, 0)" stroke-opacity="1" stroke-linecap="round" stroke-linejoin="round"/>
    <path d="M 89.89520263671875 98.44979858398438 C 96.12349700927734 122.00499725341797 111.68800354003906 81.09700012207031 92.26909637451172 87.94029998779297" stroke-width="2.0" fill="none" stroke="rgb(0, 0, 0)" stroke-opacity="1" stroke-linecap="round" stroke-linejoin="round"/>
    <path d="M 162.25799560546875 214.552001953125 C 223.92599487304688 218.58399963378906 217.72900390625 211.80499267578125 160.36500549316406 214.56100463867188" stroke-width="2.0" fill="none" stroke="rgb(0, 0, 0)" stroke-opacity="1" stroke-linecap="round" stroke-linejoin="round"/>
    <path d="M 149.9969940185547 67.07350158691406 C 149.43600463867188 103.04299926757812 157.25799560546875 75.79979705810547 141.83599853515625 88.5458984375" stroke-width="2.0" fill="none" stroke="rgb(0, 0, 0)" stroke-opacity="1" stroke-linecap="round" stroke-linejoin="round"/>
    <path d="M 141.51300048828125 79.67630004882812 C 142.375 77.3468017578125 142.39300537109375 205.0970001220703 136.10299682617188 90.69319915771484" stroke-width="2.0" fill="none" stroke="rgb(0, 0, 0)" stroke-opacity="1" stroke-linecap="round" stroke-linejoin="round"/>
    <path d="M 138.28700256347656 134.98899841308594 C 142.73199462890625 86.12680053710938 131.20399475097656 86.81009674072266 156.67100524902344 88.04039764404297" stroke-width="2.0" fill="none" stroke="rgb(0, 0, 0)" stroke-opacity="1" stroke-linecap="round" stroke-linejoin="round"/>
    <path d="M 76.55220031738281 142.11000061035156 C 72.0250015258789 114.11499786376953 87.14929962158203 137.4810028076172 58.78269958496094 197.7220001220703" stroke-width="2.0" fill="none" stroke="rgb(0, 0, 0)" stroke-opacity="1" stroke-linecap="round" stroke-linejoin="round"/>
    <path d="M 95.74500274658203 113.52799987792969 C 115.79499816894531 109.88899993896484 112.72599792480469 109.91000366210938 90.71690368652344 105.14099884033203" stroke-width="2.0" fill="none" stroke="rgb(0, 0, 0)" stroke-opacity="1" stroke-linecap="round" stroke-linejoin="round"/>
    <path d="M 96.58550262451172 118.38300323486328 C 117.52999877929688 108.8489990234375 108.16699981689453 128.968994140625 87.01010131835938 104.18099975585938" stroke-width="2.0" fill="none" stroke="rgb(0, 0, 0)" stroke-opacity="1" stroke-linecap="round" stroke-linejoin="round"/>
    <path d="M 156.1320037841797 123.78600311279297 C 170.06199645996094 17.516799926757812 164.5989990234375 47.182899475097656 156.53599548339844 139.66700744628906" stroke-width="2.0" fill="none" stroke="rgb(0, 0, 0)" stroke-opacity="1" stroke-linecap="round" stroke-linejoin="round"/>
    <path d="M 91.42769622802734 108.98699951171875 C 103.27400207519531 77.22109985351562 81.93810272216797 84.8855972290039 93.83480072021484 110.875" stroke-width="2.0" fill="none" stroke="rgb(0, 0, 0)" stroke-opacity="1" stroke-linecap="round" stroke-linejoin="round"/>
    <path d="M 193.54600524902344 120.28500366210938 C 193.24200439453125 26.211700439453125 202.27000427246094 47.73160171508789 162.80099487304688 49.91059875488281" stroke-width="2.0" fill="none" stroke="rgb(0, 0, 0)" stroke-opacity="1" stroke-linecap="round" stroke-linejoin="round"/>
    <path d="M 138.0229949951172 105.01300048828125 C 134.37399291992188 172.19200134277344 143.11300659179688 167.10800170898438 137.4340057373047 86.1167984008789" stroke-width="2.0" fill="none" stroke="rgb(0, 0, 0)" stroke-opacity="1" stroke-linecap="round" stroke-linejoin="round"/>
    <path d="M 139.58999633789062 84.79440307617188 C 169.23800659179688 78.61820220947266 163.0240020751953 85.88500213623047 137.2259979248047 87.82640075683594" stroke-width="2.0" fill="none" stroke="rgb(0, 0, 0)" stroke-opacity="1" stroke-linecap="round" stroke-linejoin="round"/>
  </g>
</svg>
