<svg height="256" version="1.1" width="256" xmlns="http://www.w3.org/2000/svg">
  <defs/>
  <g>
    <path d="M108.651 131.196C92.8613 115.598 111.143 173.014 74.9223 123.996" fill="none" stroke="rgb(0, 0, 0)" stroke-linecap="round" stroke-linejoin="round" stroke-opacity="1.0" stroke-width="2"/>
    <path d="M207.676 200.427C216.713 152.684 211.499 157.622 216.709 202.517" fill="none" stroke="rgb(0, 0, 0)" stroke-linecap="round" stroke-linejoin="round" stroke-opacity="1.0" stroke-width="2"/>
    <path d="M184.3 115.676C210.337 148.702 197.84 154.498 189.881 125.254" fill="none" stroke="rgb(0, 0, 0)" stroke-linecap="round" stroke-linejoin="round" stroke-opacity="1.0" stroke-width="2"/>
    <path d="M92.6914 150.261C85.2103 133.757 107.575 110.579 132.345 131.645" fill="none" stroke="rgb(0, 0, 0)" stroke-linecap="round" stroke-linejoin="round" stroke-opacity="1.0" stroke-width="2"/>
    <path d="M121.701 123.601C84.2252 147.72 148.049 137.599 103.452 129.902" fill="none" stroke="rgb(0, 0, 0)" stroke-linecap="round" stroke-linejoin="round" stroke-opacity="1.0" stroke-width="2"/>
    <path d="M192 150.2C231.765 121.991 211.137 194.05 212.392 144.239" fill="none" stroke="rgb(0, 0, 0)" stroke-linecap="round" stroke-linejoin="round" stroke-opacity="1.0" stroke-width="2"/>
    <path d="M63.1595 117.29C93.2685 184.88 90.6498 95.799 115.047 143.185" fill="none" stroke="rgb(0, 0, 0)" stroke-linecap="round" stroke-linejoin="round" stroke-opacity="1.0" stroke-width="2"/>
    <path d="M88.1685 116.869C135.115 147.902 143.639 116.245 92.9289 138.885" fill="none" stroke="rgb(0, 0, 0)" stroke-linecap="round" stroke-linejoin="round" stroke-opacity="1.0" stroke-width="2"/>
    <path d="M190.28 140.438C170.518 168.639 230.402 172.568 191.294 128.777" fill="none" stroke="rgb(0, 0, 0)" stroke-linecap="round" stroke-linejoin="round" stroke-opacity="1.0" stroke-width="2"/>
    <path d="M54.157 128.926C79.6846 111.388 44.0597 152.102 71.2578 116.021" fill="none" stroke="rgb(0, 0, 0)" stroke-linecap="round" stroke-linejoin="round" stroke-opacity="1.0" stroke-width="2"/>
    <path d="M77.6252 77.7202C137.614 93.8076 126.194 61.3275 91.5104 98.252" fill="none" stroke="rgb(0, 0, 0)" stroke-linecap="round" stroke-linejoin="round" stroke-opacity="1.0" stroke-width="2"/>
    <path d="M185.476 200.61C185.476 188.412 185.476 168.207 194.787 148.909" fill="none" stroke="rgb(0, 0, 0)" stroke-linecap="round" stroke-linejoin="round" stroke-opacity="1.0" stroke-width="2"/>
    <path d="M64.8905 141.253C64.4044 121.436 100.35 138.484 49.0854 112.354" fill="none" stroke="rgb(0, 0, 0)" stroke-linecap="round" stroke-linejoin="round" stroke-opacity="1.0" stroke-width="2"/>
    <path d="M132.334 92.7549C60.5193 71.0772 66.0153 65.5021 125.323 97.39" fill="none" stroke="rgb(0, 0, 0)" stroke-linecap="round" stroke-linejoin="round" stroke-opacity="1.0" stroke-width="2"/>
    <path d="M214.479 152.526C179.444 112.692 187.185 153.922 198.765 138.979" fill="none" stroke="rgb(0, 0, 0)" stroke-linecap="round" stroke-linejoin="round" stroke-opacity="1.0" stroke-width="2"/>
    <path d="M85.2554 97.409C129.225 88.3923 123.134 98.85 127.563 91.5463" fill="none" stroke="rgb(0, 0, 0)" stroke-linecap="round" stroke-linejoin="round" stroke-opacity="1.0" stroke-width="2"/>
    <path d="M122.099 135.435C110.888 100.368 95.3906 145.007 117.114 120.077" fill="none" stroke="rgb(0, 0, 0)" stroke-linecap="round" stroke-linejoin="round" stroke-opacity="1.0" stroke-width="2"/>
    <path d="M165.955 96.751C177.254 74.6336 180.33 128.77 211.824 147.02" fill="none" stroke="rgb(0, 0, 0)" stroke-linecap="round" stroke-linejoin="round" stroke-opacity="1.0" stroke-width="2"/>
    <path d="M125.034 92.235C128.096 85.202 148.531 82.1212 100.065 101.316" fill="none" stroke="rgb(0, 0, 0)" stroke-linecap="round" stroke-linejoin="round" stroke-opacity="1.0" stroke-width="2"/>
    <path d="M47.4133 121.922C69.3109 128.918 93.8647 127.694 82.9418 136.78" fill="none" stroke="rgb(0, 0, 0)" stroke-linecap="round" stroke-linejoin="round" stroke-opacity="1.0" stroke-width="2"/>
    <path d="M109.593 144.41C113.329 126.021 69.1716 106.725 86.3085 149.812" fill="none" stroke="rgb(0, 0, 0)" stroke-linecap="round" stroke-linejoin="round" stroke-opacity="1.0" stroke-width="2"/>
    <path d="M194 134.22C203.306 174.964 220.101 159.984 191.858 145.224" fill="none" stroke="rgb(0, 0, 0)" stroke-linecap="round" stroke-linejoin="round" stroke-opacity="1.0" stroke-width="2"/>
    <path d="M213.918 174.912C220.479 145.452 210.87 126.065 199.932 184.889" fill="none" stroke="rgb(0, 0, 0)" stroke-linecap="round" stroke-linejoin="round" stroke-opacity="1.0" stroke-width="2"/>
    <path d="M215.404 179.623C202.84 121.82 214.917 162.941 180.944 122.899" fill="none" stroke="rgb(0, 0, 0)" stroke-linecap="round" stroke-linejoin="round" stroke-opacity="1.0" stroke-width="2"/>
    <path d="M192.927 176.901C179.902 121.313 195.485 108.45 191.657 171.907" fill="none" stroke="rgb(0, 0, 0)" stroke-linecap="round" stroke-linejoin="round" stroke-opacity="1.0" stroke-width="2"/>
    <path d="M88.4196 122.713C127.755 158.678 124.358 138.501 91.6295 118.851" fill="none" stroke="rgb(0, 0, 0)" stroke-linecap="round" stroke-linejoin="round" stroke-opacity="1.0" stroke-width="2"/>
    <path d="M89.3325 116.485C74.8869 136.05 70.363 112.141 54.4124 124.625" fill="none" stroke="rgb(0, 0, 0)" stroke-linecap="round" stroke-linejoin="round" stroke-opacity="1.0" stroke-width="2"/>
    <path d="M197.736 145.177C212.559 140.832 218.541 231.585 210.578 150.068" fill="none" stroke="rgb(0, 0, 0)" stroke-linecap="round" stroke-linejoin="round" stroke-opacity="1.0" stroke-width="2"/>
    <path d="M205.395 164.638C202.125 122.768 178.844 175.44 194.211 138.579" fill="none" stroke="rgb(0, 0, 0)" stroke-linecap="round" stroke-linejoin="round" stroke-opacity="1.0" stroke-width="2"/>
    <path d="M215.591 178.778C210.08 139.184 221.109 129.313 200.462 182.38" fill="none" stroke="rgb(0, 0, 0)" stroke-linecap="round" stroke-linejoin="round" stroke-opacity="1.0" stroke-width="2"/>
    <path d="M178.119 97.92C155.747 94.818 178.113 95.308 175.352 84.1989" fill="none" stroke="rgb(0, 0, 0)" stroke-linecap="round" stroke-linejoin="round" stroke-opacity="1.0" stroke-width="2"/>
    <path d="M98.638 120.922C125.921 152.765 104.285 121.244 89.2594 122.46" fill="none" stroke="rgb(0, 0, 0)" stroke-linecap="round" stroke-linejoin="round" stroke-opacity="1.0" stroke-width="2"/>
    <path d="M73.4015 99.522C67.4419 94.539 48.5483 100.044 44.3345 109.795" fill="none" stroke="rgb(0, 0, 0)" stroke-linecap="round" stroke-linejoin="round" stroke-opacity="1.0" stroke-width="2"/>
    <path d="M205.457 164.933C192.887 116.971 159.795 112.213 204.25 161.042" fill="none" stroke="rgb(0, 0, 0)" stroke-linecap="round" stroke-linejoin="round" stroke-opacity="1.0" stroke-width="2"/>
    <path d="M111.289 120.684C98.163 163.151 134.485 114.316 81.1658 130.153" fill="none" stroke="rgb(0, 0, 0)" stroke-linecap="round" stroke-linejoin="round" stroke-opacity="1.0" stroke-width="2"/>
    <path d="M121.174 80.0684C103.954 101.088 87.1115 78.1701 116.072 102.193" fill="none" stroke="rgb(0, 0, 0)" stroke-linecap="round" stroke-linejoin="round" stroke-opacity="1.0" stroke-width="2"/>
    <path d="M59.0089 102.202C76.4234 53.0339 128.817 108.963 71.3285 81.0737" fill="none" stroke="rgb(0, 0, 0)" stroke-linecap="round" stroke-linejoin="round" stroke-opacity="1.0" stroke-width="2"/>
    <path d="M179.259 97.993C155.142 105.518 187.627 101.307 167.612 94.382" fill="none" stroke="rgb(0, 0, 0)" stroke-linecap="round" stroke-linejoin="round" stroke-opacity="1.0" stroke-width="2"/>
    <path d="M48.5995 124.638C61.0503 114.258 70.5291 110.165 54.0098 117.342" fill="none" stroke="rgb(0, 0, 0)" stroke-linecap="round" stroke-linejoin="round" stroke-opacity="1.0" stroke-width="2"/>
    <path d="M105.143 129.15C15.5454 94.536 32.6739 119.993 135.618 129.112" fill="none" stroke="rgb(0, 0, 0)" stroke-linecap="round" stroke-linejoin="round" stroke-opacity="1.0" stroke-width="2"/>
    <path d="M66.588 81.9389C125.591 118.18 117.954 90.2642 61.2113 89.4628" fill="none" stroke="rgb(0, 0, 0)" stroke-linecap="round" stroke-linejoin="round" stroke-opacity="1.0" stroke-width="2"/>
    <path d="M83.9012 83.2156C124.985 120.011 139.687 76.3698 81.3553 76.3211" fill="none" stroke="rgb(0, 0, 0)" stroke-linecap="round" stroke-linejoin="round" stroke-opacity="1.0" stroke-width="2"/>
    <path d="M86.9754 209.915C92.8727 130.233 101.005 160.6 89.3463 121.067" fill="none" stroke="rgb(0, 0, 0)" stroke-linecap="round" stroke-linejoin="round" stroke-opacity="1.0" stroke-width="2"/>
    <path d="M74.4024 89.182C52.5986 73.5182 72.0679 100.413 108.943 77.8505" fill="none" stroke="rgb(0, 0, 0)" stroke-linecap="round" stroke-linejoin="round" stroke-opacity="1.0" stroke-width="2"/>
    <path d="M82.6268 100.263C11.5877 93.8299 74.8569 116.183 47.8207 98.327" fill="none" stroke="rgb(0, 0, 0)" stroke-linecap="round" stroke-linejoin="round" stroke-opacity="1.0" stroke-width="2"/>
    <path d="M116.951 90.2389C93.3841 68.3521 78.6264 69.6567 116.057 92.393" fill="none" stroke="rgb(0, 0, 0)" stroke-linecap="round" stroke-linejoin="round" stroke-opacity="1.0" stroke-width="2"/>
    <path d="M95.9474 94.427C97.4 52.2277 74.7052 81.8227 102.185 85.6208" fill="none" stroke="rgb(0, 0, 0)" stroke-linecap="round" stroke-linejoin="round" stroke-opacity="1.0" stroke-width="2"/>
    <path d="M114.928 147.488C106.519 108.632 121.834 174.093 74.2269 114.975" fill="none" stroke="rgb(0, 0, 0)" stroke-linecap="round" stroke-linejoin="round" stroke-opacity="1.0" stroke-width="2"/>
    <path d="M84.619 119.497C92.7598 139.888 96.372 99.203 75.9662 204.708" fill="none" stroke="rgb(0, 0, 0)" stroke-linecap="round" stroke-linejoin="round" stroke-opacity="1.0" stroke-width="2"/>
    <path d="M64.9969 91.0138C100.68 109.94 21.7822 76.05 73.0271 102.593" fill="none" stroke="rgb(0, 0, 0)" stroke-linecap="round" stroke-linejoin="round" stroke-opacity="1.0" stroke-width="2"/>
    <path d="M44.2747 103.43C54.2842 113.452 27.3892 89.1928 69.9548 136.854" fill="none" stroke="rgb(0, 0, 0)" stroke-linecap="round" stroke-linejoin="round" stroke-opacity="1.0" stroke-width="2"/>
    <path d="M126.899 88.5601C93.7485 58.497 108.778 112.097 132.504 87.7409" fill="none" stroke="rgb(0, 0, 0)" stroke-linecap="round" stroke-linejoin="round" stroke-opacity="1.0" stroke-width="2"/>
    <path d="M172.005 91.9771C185.274 77.5176 170.88 101.696 204.351 166.678" fill="none" stroke="rgb(0, 0, 0)" stroke-linecap="round" stroke-linejoin="round" stroke-opacity="1.0" stroke-width="2"/>
    <path d="M179.572 95.074C183.503 116.285 181.832 151.802 186.677 127.051" fill="none" stroke="rgb(0, 0, 0)" stroke-linecap="round" stroke-linejoin="round" stroke-opacity="1.0" stroke-width="2"/>
    <path d="M211 176.378C191.923 117.125 184.433 90.7601 194.445 200" fill="none" stroke="rgb(0, 0, 0)" stroke-linecap="round" stroke-linejoin="round" stroke-opacity="1.0" stroke-width="2"/>
    <path d="M164.36 101.233C177.068 90.18 171.812 89.4593 181.38 129.821" fill="none" stroke="rgb(0, 0, 0)" stroke-linecap="round" stroke-linejoin="round" stroke-opacity="1.0" stroke-width="2"/>
    <path d="M213.879 156.126C179.219 127.389 182.591 109.858 193.851 164.167" fill="none" stroke="rgb(0, 0, 0)" stroke-linecap="round" stroke-linejoin="round" stroke-opacity="1.0" stroke-width="2"/>
    <path d="M65.4787 94.269C149.811 75.5125 99.403 106.638 116.76 75.8087" fill="none" stroke="rgb(0, 0, 0)" stroke-linecap="round" stroke-linejoin="round" stroke-opacity="1.0" stroke-width="2"/>
    <path d="M206.509 141.876C208.614 168.765 201.741 174.026 187.857 125.628" fill="none" stroke="rgb(0, 0, 0)" stroke-linecap="round" stroke-linejoin="round" stroke-opacity="1.0" stroke-width="2"/>
    <path d="M211.302 186.538C209.762 110.831 203.966 171.257 189.256 151.863" fill="none" stroke="rgb(0, 0, 0)" stroke-linecap="round" stroke-linejoin="round" stroke-opacity="1.0" stroke-width="2"/>
    <path d="M197.525 202.517C207.101 133.36 193.685 176.333 189.611 133.135" fill="none" stroke="rgb(0, 0, 0)" stroke-linecap="round" stroke-linejoin="round" stroke-opacity="1.0" stroke-width="2"/>
    <path d="M53.7917 96.954C66.5277 101.347 25.314 102.356 66.9421 98.355" fill="none" stroke="rgb(0, 0, 0)" stroke-linecap="round" stroke-linejoin="round" stroke-opacity="1.0" stroke-width="2"/>
    <path d="M127.967 88.0186C83.8712 84.6249 87.3848 110.358 123.401 81.6759" fill="none" stroke="rgb(0, 0, 0)" stroke-linecap="round" stroke-linejoin="round" stroke-opacity="1.0" stroke-width="2"/>
    <path d="M132.483 105.555C88.3877 102.161 91.901 127.893 127.917 99.212" fill="none" stroke="rgb(0, 0, 0)" stroke-linecap="round" stroke-linejoin="round" stroke-opacity="1.0" stroke-width="2"/>
    <path d="M58.308 114.49C71.044 118.883 29.8302 119.892 71.4584 115.89" fill="none" stroke="rgb(0, 0, 0)" stroke-linecap="round" stroke-linejoin="round" stroke-opacity="1.0" stroke-width="2"/>
    <path d="M69.9951 111.805C154.328 93.0484 103.919 124.174 121.276 93.3446" fill="none" stroke="rgb(0, 0, 0)" stroke-linecap="round" stroke-linejoin="round" stroke-opacity="1.0" stroke-width="2"/>
    <path d="M131.415 106.096C98.265 76.033 113.295 129.633 137.021 105.277" fill="none" stroke="rgb(0, 0, 0)" stroke-linecap="round" stroke-linejoin="round" stroke-opacity="1.0" stroke-width="2"/>
    <path d="M69.5132 108.55C105.196 127.476 26.2985 93.5859 77.5434 120.129" fill="none" stroke="rgb(0, 0, 0)" stroke-linecap="round" stroke-linejoin="round" stroke-opacity="1.0" stroke-width="2"/>
    <path d="M100.464 111.963C101.916 69.7637 79.2214 99.359 106.701 103.157" fill="none" stroke="rgb(0, 0, 0)" stroke-linecap="round" stroke-linejoin="round" stroke-opacity="1.0" stroke-width="2"/>
    <path d="M121.467 107.775C97.901 85.888 83.1428 87.1927 120.574 109.929" fill="none" stroke="rgb(0, 0, 0)" stroke-linecap="round" stroke-linejoin="round" stroke-opacity="1.0" stroke-width="2"/>
    <path d="M87.1432 117.799C16.104 111.366 79.3733 133.718 52.3372 115.863" fill="none" stroke="rgb(0, 0, 0)" stroke-linecap="round" stroke-linejoin="round" stroke-opacity="1.0" stroke-width="2"/>
    <path d="M78.9187 106.718C57.1151 91.0541 76.5842 117.949 113.459 95.386" fill="none" stroke="rgb(0, 0, 0)" stroke-linecap="round" stroke-linejoin="round" stroke-opacity="1.0" stroke-width="2"/>
    <path d="M88.4176 100.752C129.501 137.547 144.203 93.9057 85.8716 93.857" fill="none" stroke="rgb(0, 0, 0)" stroke-linecap="round" stroke-linejoin="round" stroke-opacity="1.0" stroke-width="2"/>
    <path d="M71.1044 99.475C130.107 135.716 122.471 107.8 65.7278 106.999" fill="none" stroke="rgb(0, 0, 0)" stroke-linecap="round" stroke-linejoin="round" stroke-opacity="1.0" stroke-width="2"/>
    <path d="M63.5251 119.738C80.9398 70.5699 133.333 126.499 75.8447 98.61" fill="none" stroke="rgb(0, 0, 0)" stroke-linecap="round" stroke-linejoin="round" stroke-opacity="1.0" stroke-width="2"/>
    <path d="M125.69 97.604C108.471 118.624 91.6278 95.706 120.588 119.729" fill="none" stroke="rgb(0, 0, 0)" stroke-linecap="round" stroke-linejoin="round" stroke-opacity="1.0" stroke-width="2"/>
    <path d="M77.9179 117.058C71.9584 112.075 53.0648 117.58 48.851 127.331" fill="none" stroke="rgb(0, 0, 0)" stroke-linecap="round" stroke-linejoin="round" stroke-opacity="1.0" stroke-width="2"/>
    <path d="M129.551 109.771C132.613 102.738 153.047 99.657 104.582 118.852" fill="none" stroke="rgb(0, 0, 0)" stroke-linecap="round" stroke-linejoin="round" stroke-opacity="1.0" stroke-width="2"/>
    <path d="M89.7717 114.945C133.742 105.928 127.65 116.386 132.08 109.082" fill="none" stroke="rgb(0, 0, 0)" stroke-linecap="round" stroke-linejoin="round" stroke-opacity="1.0" stroke-width="2"/>
    <path d="M136.851 110.291C65.0359 88.6131 70.5318 83.038 129.84 114.926" fill="none" stroke="rgb(0, 0, 0)" stroke-linecap="round" stroke-linejoin="round" stroke-opacity="1.0" stroke-width="2"/>
    <path d="M82.1416 95.256C142.13 111.344 130.711 78.8633 96.027 115.788" fill="none" stroke="rgb(0, 0, 0)" stroke-linecap="round" stroke-linejoin="round" stroke-opacity="1.0" stroke-width="2"/>
    <path d="M215.592 190.148C223.561 142.754 182.295 176.117 194.582 133.631" fill="none" stroke="rgb(0, 0, 0)" stroke-linecap="round" stroke-linejoin="round" stroke-opacity="1.0" stroke-width="2"/>
  </g>
</svg>
