<?xml version="1.0" ?>
<svg xmlns="http://www.w3.org/2000/svg" version="1.1" width="256" height="256">
  <defs/>
  <g>
    <path d="M 121.52100372314453 160.46800231933594 C 115.5199966430664 160.8419952392578 110.47100067138672 163.9810028076172 114.06900024414062 162.88499450683594" stroke-width="2.0" fill="none" stroke="rgb(0, 0, 0)" stroke-opacity="1" stroke-linecap="round" stroke-linejoin="round"/>
    <path d="M 113.33999633789062 162.36599731445312 C 127.39099884033203 166.98300170898438 119.64099884033203 155.1179962158203 116.24500274658203 162.4080047607422" stroke-width="2.0" fill="none" stroke="rgb(0, 0, 0)" stroke-opacity="1" stroke-linecap="round" stroke-linejoin="round"/>
    <path d="M 121.71600341796875 162.80099487304688 C 120.78600311279297 213.91299438476562 124.49299621582031 201.11000061035156 116.76499938964844 203.83200073242188" stroke-width="2.0" fill="none" stroke="rgb(0, 0, 0)" stroke-opacity="1" stroke-linecap="round" stroke-linejoin="round"/>
    <path d="M 114.93399810791016 204.5030059814453 C 118.3219985961914 202.44000244140625 114.48899841308594 202.3280029296875 106.8010025024414 201.75900268554688" stroke-width="2.0" fill="none" stroke="rgb(0, 0, 0)" stroke-opacity="1" stroke-linecap="round" stroke-linejoin="round"/>
    <path d="M 116.36900329589844 170.39300537109375 C 116.74099731445312 171.53500366210938 116.91400146484375 171.32000732421875 116.53399658203125 162.09800720214844" stroke-width="2.0" fill="none" stroke="rgb(0, 0, 0)" stroke-opacity="1" stroke-linecap="round" stroke-linejoin="round"/>
    <path d="M 119.76599884033203 162.37899780273438 C 108.36699676513672 164.46600341796875 105.48300170898438 159.73599243164062 121.04499816894531 162.677001953125" stroke-width="2.0" fill="none" stroke="rgb(0, 0, 0)" stroke-opacity="1" stroke-linecap="round" stroke-linejoin="round"/>
    <path d="M 119.50900268554688 202.29800415039062 C 123.12899780273438 198.29800415039062 123.55000305175781 195.3090057373047 112.79900360107422 202.17799377441406" stroke-width="2.0" fill="none" stroke="rgb(0, 0, 0)" stroke-opacity="1" stroke-linecap="round" stroke-linejoin="round"/>
    <path d="M 121.9800033569336 164.3300018310547 C 124.46900177001953 153.3000030517578 119.10600280761719 164.25999450683594 117.7760009765625 160.98300170898438" stroke-width="2.0" fill="none" stroke="rgb(0, 0, 0)" stroke-opacity="1" stroke-linecap="round" stroke-linejoin="round"/>
    <path d="M 115.81099700927734 204.62100219726562 C 116.74299621582031 188.58900451660156 116.75800323486328 148.0800018310547 117.2699966430664 161.79200744628906" stroke-width="2.0" fill="none" stroke="rgb(0, 0, 0)" stroke-opacity="1" stroke-linecap="round" stroke-linejoin="round"/>
    <path d="M 90.28240203857422 202.46299743652344 C 122.30799865722656 200.70700073242188 133.6020050048828 208.1699981689453 77.73410034179688 206.72000122070312" stroke-width="2.0" fill="none" stroke="rgb(0, 0, 0)" stroke-opacity="1" stroke-linecap="round" stroke-linejoin="round"/>
    <path d="M 120.0979995727539 161.75900268554688 C 113.7300033569336 163.02999877929688 106.61900329589844 162.28500366210938 121.54900360107422 162.49899291992188" stroke-width="2.0" fill="none" stroke="rgb(0, 0, 0)" stroke-opacity="1" stroke-linecap="round" stroke-linejoin="round"/>
    <path d="M 112.20899963378906 205.63800048828125 C 123.44999694824219 197.01100158691406 120.46700286865234 215.281005859375 121.23500061035156 175.83399963378906" stroke-width="2.0" fill="none" stroke="rgb(0, 0, 0)" stroke-opacity="1" stroke-linecap="round" stroke-linejoin="round"/>
    <path d="M 121.21900177001953 164.22300720214844 C 102.81999969482422 165.04100036621094 113.86799621582031 159.1959991455078 116.41999816894531 162.8209991455078" stroke-width="2.0" fill="none" stroke="rgb(0, 0, 0)" stroke-opacity="1" stroke-linecap="round" stroke-linejoin="round"/>
    <path d="M 116.03900146484375 204.10800170898438 C 113.8479995727539 200.9219970703125 121.6989974975586 201.6790008544922 95.5647964477539 201.6649932861328" stroke-width="2.0" fill="none" stroke="rgb(0, 0, 0)" stroke-opacity="1" stroke-linecap="round" stroke-linejoin="round"/>
    <path d="M 113.25700378417969 162.71499633789062 C 122.24600219726562 166.427001953125 126.84100341796875 156.66799926757812 116.30500030517578 163.0290069580078" stroke-width="2.0" fill="none" stroke="rgb(0, 0, 0)" stroke-opacity="1" stroke-linecap="round" stroke-linejoin="round"/>
    <path d="M 114.16300201416016 161.98800659179688 C 113.81800079345703 166.33399963378906 105.11900329589844 161.15899658203125 117.427001953125 162.1219940185547" stroke-width="2.0" fill="none" stroke="rgb(0, 0, 0)" stroke-opacity="1" stroke-linecap="round" stroke-linejoin="round"/>
    <path d="M 101.5459976196289 206.86900329589844 C 116.9540023803711 208.0959930419922 132.052001953125 200.26800537109375 88.84020233154297 201.78599548339844" stroke-width="2.0" fill="none" stroke="rgb(0, 0, 0)" stroke-opacity="1" stroke-linecap="round" stroke-linejoin="round"/>
    <path d="M 122.62200164794922 159.2519989013672 C 110.11299896240234 156.2830047607422 116.66000366210938 162.76699829101562 121.46299743652344 159.88099670410156" stroke-width="2.0" fill="none" stroke="rgb(0, 0, 0)" stroke-opacity="1" stroke-linecap="round" stroke-linejoin="round"/>
    <path d="M 117.65399932861328 159.4199981689453 C 115.9229965209961 163.55099487304688 110.625 165.96499633789062 114.21499633789062 161.70399475097656" stroke-width="2.0" fill="none" stroke="rgb(0, 0, 0)" stroke-opacity="1" stroke-linecap="round" stroke-linejoin="round"/>
    <path d="M 135.26400756835938 151.64199829101562 C 129.26300048828125 152.01600646972656 124.21399688720703 155.1540069580078 127.81300354003906 154.05799865722656" stroke-width="2.0" fill="none" stroke="rgb(0, 0, 0)" stroke-opacity="1" stroke-linecap="round" stroke-linejoin="round"/>
    <path d="M 127.08399963378906 153.53900146484375 C 141.13499450683594 158.15699768066406 133.38499450683594 146.29200744628906 129.98899841308594 153.58099365234375" stroke-width="2.0" fill="none" stroke="rgb(0, 0, 0)" stroke-opacity="1" stroke-linecap="round" stroke-linejoin="round"/>
    <path d="M 135.4600067138672 153.97500610351562 C 134.52999877929688 205.08700561523438 138.23699951171875 192.2830047607422 130.50900268554688 195.0050048828125" stroke-width="2.0" fill="none" stroke="rgb(0, 0, 0)" stroke-opacity="1" stroke-linecap="round" stroke-linejoin="round"/>
    <path d="M 128.6790008544922 195.67599487304688 C 132.0659942626953 193.61300659179688 128.23300170898438 193.5019989013672 120.54499816894531 192.93299865722656" stroke-width="2.0" fill="none" stroke="rgb(0, 0, 0)" stroke-opacity="1" stroke-linecap="round" stroke-linejoin="round"/>
    <path d="M 130.11300659179688 161.56700134277344 C 130.48500061035156 162.70899963378906 130.6580047607422 162.4929962158203 130.2779998779297 153.27099609375" stroke-width="2.0" fill="none" stroke="rgb(0, 0, 0)" stroke-opacity="1" stroke-linecap="round" stroke-linejoin="round"/>
    <path d="M 133.50999450683594 153.55299377441406 C 122.11100006103516 155.63900756835938 119.22699737548828 150.90899658203125 134.78900146484375 153.85000610351562" stroke-width="2.0" fill="none" stroke="rgb(0, 0, 0)" stroke-opacity="1" stroke-linecap="round" stroke-linejoin="round"/>
    <path d="M 133.2530059814453 193.4720001220703 C 136.8730010986328 189.4709930419922 137.29299926757812 186.48300170898438 126.54299926757812 193.3509979248047" stroke-width="2.0" fill="none" stroke="rgb(0, 0, 0)" stroke-opacity="1" stroke-linecap="round" stroke-linejoin="round"/>
    <path d="M 135.7239990234375 155.50399780273438 C 138.21299743652344 144.47300720214844 132.85000610351562 155.43299865722656 131.52000427246094 152.15699768066406" stroke-width="2.0" fill="none" stroke="rgb(0, 0, 0)" stroke-opacity="1" stroke-linecap="round" stroke-linejoin="round"/>
    <path d="M 129.55499267578125 195.79400634765625 C 130.48699951171875 179.76199340820312 130.5019989013672 139.25399780273438 131.01400756835938 152.96499633789062" stroke-width="2.0" fill="none" stroke="rgb(0, 0, 0)" stroke-opacity="1" stroke-linecap="round" stroke-linejoin="round"/>
    <path d="M 104.0260009765625 193.63600158691406 C 136.052001953125 191.8800048828125 147.3459930419922 199.34300231933594 91.47779846191406 197.89300537109375" stroke-width="2.0" fill="none" stroke="rgb(0, 0, 0)" stroke-opacity="1" stroke-linecap="round" stroke-linejoin="round"/>
    <path d="M 133.8419952392578 152.9320068359375 C 127.4739990234375 154.20399475097656 120.36299896240234 153.45799255371094 135.29299926757812 153.6719970703125" stroke-width="2.0" fill="none" stroke="rgb(0, 0, 0)" stroke-opacity="1" stroke-linecap="round" stroke-linejoin="round"/>
    <path d="M 125.9530029296875 196.81199645996094 C 137.19400024414062 188.18499755859375 134.21099853515625 206.4550018310547 134.97900390625 167.00799560546875" stroke-width="2.0" fill="none" stroke="rgb(0, 0, 0)" stroke-opacity="1" stroke-linecap="round" stroke-linejoin="round"/>
    <path d="M 134.96299743652344 155.39700317382812 C 116.56300354003906 156.21499633789062 127.61199951171875 150.36900329589844 130.16299438476562 153.99400329589844" stroke-width="2.0" fill="none" stroke="rgb(0, 0, 0)" stroke-opacity="1" stroke-linecap="round" stroke-linejoin="round"/>
    <path d="M 129.7830047607422 195.28199768066406 C 127.59200286865234 192.09500122070312 135.4429931640625 192.8520050048828 109.30899810791016 192.83900451660156" stroke-width="2.0" fill="none" stroke="rgb(0, 0, 0)" stroke-opacity="1" stroke-linecap="round" stroke-linejoin="round"/>
    <path d="M 127.0009994506836 153.88900756835938 C 135.99000549316406 157.6009979248047 140.5850067138672 147.84100341796875 130.0489959716797 154.20199584960938" stroke-width="2.0" fill="none" stroke="rgb(0, 0, 0)" stroke-opacity="1" stroke-linecap="round" stroke-linejoin="round"/>
    <path d="M 127.90699768066406 153.16099548339844 C 127.56199645996094 157.5070037841797 118.86299896240234 152.33299255371094 131.17100524902344 153.29600524902344" stroke-width="2.0" fill="none" stroke="rgb(0, 0, 0)" stroke-opacity="1" stroke-linecap="round" stroke-linejoin="round"/>
    <path d="M 115.29000091552734 198.04200744628906 C 130.697998046875 199.27000427246094 145.79600524902344 191.44200134277344 102.58399963378906 192.95899963378906" stroke-width="2.0" fill="none" stroke="rgb(0, 0, 0)" stroke-opacity="1" stroke-linecap="round" stroke-linejoin="round"/>
    <path d="M 136.36500549316406 150.42599487304688 C 123.85700225830078 147.45599365234375 130.4029998779297 153.9409942626953 135.20700073242188 151.0540008544922" stroke-width="2.0" fill="none" stroke="rgb(0, 0, 0)" stroke-opacity="1" stroke-linecap="round" stroke-linejoin="round"/>
    <path d="M 131.3979949951172 150.593994140625 C 129.66700744628906 154.72500610351562 124.36900329589844 157.13900756835938 127.95800018310547 152.8780059814453" stroke-width="2.0" fill="none" stroke="rgb(0, 0, 0)" stroke-opacity="1" stroke-linecap="round" stroke-linejoin="round"/>
    <path d="M 149.00799560546875 144.58099365234375 C 143.0070037841797 144.95399475097656 137.95799255371094 148.09300231933594 141.5570068359375 146.9969940185547" stroke-width="2.0" fill="none" stroke="rgb(0, 0, 0)" stroke-opacity="1" stroke-linecap="round" stroke-linejoin="round"/>
    <path d="M 140.8280029296875 146.47799682617188 C 154.8780059814453 151.0959930419922 147.12899780273438 139.22999572753906 143.73199462890625 146.52000427246094" stroke-width="2.0" fill="none" stroke="rgb(0, 0, 0)" stroke-opacity="1" stroke-linecap="round" stroke-linejoin="round"/>
    <path d="M 149.20399475097656 146.91299438476562 C 148.2740020751953 198.02499389648438 151.9810028076172 185.2220001220703 144.2530059814453 187.94400024414062" stroke-width="2.0" fill="none" stroke="rgb(0, 0, 0)" stroke-opacity="1" stroke-linecap="round" stroke-linejoin="round"/>
    <path d="M 142.4219970703125 188.61500549316406 C 145.80999755859375 186.552001953125 141.9759979248047 186.44000244140625 134.28900146484375 185.87100219726562" stroke-width="2.0" fill="none" stroke="rgb(0, 0, 0)" stroke-opacity="1" stroke-linecap="round" stroke-linejoin="round"/>
    <path d="M 143.85699462890625 154.5050048828125 C 144.22900390625 155.6479949951172 144.40199279785156 155.4320068359375 144.02200317382812 146.2100067138672" stroke-width="2.0" fill="none" stroke="rgb(0, 0, 0)" stroke-opacity="1" stroke-linecap="round" stroke-linejoin="round"/>
    <path d="M 147.25399780273438 146.49099731445312 C 135.85499572753906 148.5780029296875 132.9709930419922 143.84800720214844 148.5330047607422 146.78900146484375" stroke-width="2.0" fill="none" stroke="rgb(0, 0, 0)" stroke-opacity="1" stroke-linecap="round" stroke-linejoin="round"/>
    <path d="M 146.9969940185547 186.41099548339844 C 150.61700439453125 182.41000366210938 151.03700256347656 179.4219970703125 140.28700256347656 186.2899932861328" stroke-width="2.0" fill="none" stroke="rgb(0, 0, 0)" stroke-opacity="1" stroke-linecap="round" stroke-linejoin="round"/>
    <path d="M 149.46800231933594 148.4429931640625 C 151.95599365234375 137.41200256347656 146.593994140625 148.3719940185547 145.26400756835938 145.0959930419922" stroke-width="2.0" fill="none" stroke="rgb(0, 0, 0)" stroke-opacity="1" stroke-linecap="round" stroke-linejoin="round"/>
    <path d="M 143.2989959716797 188.73300170898438 C 144.22999572753906 172.7010040283203 144.24600219726562 132.1929931640625 144.7570037841797 145.9040069580078" stroke-width="2.0" fill="none" stroke="rgb(0, 0, 0)" stroke-opacity="1" stroke-linecap="round" stroke-linejoin="round"/>
    <path d="M 117.7699966430664 186.5749969482422 C 149.79600524902344 184.81900024414062 161.08999633789062 192.28199768066406 105.22200012207031 190.83200073242188" stroke-width="2.0" fill="none" stroke="rgb(0, 0, 0)" stroke-opacity="1" stroke-linecap="round" stroke-linejoin="round"/>
    <path d="M 147.58599853515625 145.87100219726562 C 141.21800231933594 147.14199829101562 134.10699462890625 146.39700317382812 149.03700256347656 146.61099243164062" stroke-width="2.0" fill="none" stroke="rgb(0, 0, 0)" stroke-opacity="1" stroke-linecap="round" stroke-linejoin="round"/>
    <path d="M 139.69700622558594 189.75 C 150.93800354003906 181.12399291992188 147.9550018310547 199.3939971923828 148.72300720214844 159.94700622558594" stroke-width="2.0" fill="none" stroke="rgb(0, 0, 0)" stroke-opacity="1" stroke-linecap="round" stroke-linejoin="round"/>
    <path d="M 148.70700073242188 148.3350067138672 C 130.3070068359375 149.1540069580078 141.3560028076172 143.30799865722656 143.90699768066406 146.93299865722656" stroke-width="2.0" fill="none" stroke="rgb(0, 0, 0)" stroke-opacity="1" stroke-linecap="round" stroke-linejoin="round"/>
    <path d="M 143.52699279785156 188.22000122070312 C 141.33599853515625 185.03399658203125 149.18699645996094 185.79100036621094 123.052001953125 185.7779998779297" stroke-width="2.0" fill="none" stroke="rgb(0, 0, 0)" stroke-opacity="1" stroke-linecap="round" stroke-linejoin="round"/>
    <path d="M 140.7449951171875 146.82699584960938 C 149.73399353027344 150.53900146484375 154.32899475097656 140.77999877929688 143.79299926757812 147.14100646972656" stroke-width="2.0" fill="none" stroke="rgb(0, 0, 0)" stroke-opacity="1" stroke-linecap="round" stroke-linejoin="round"/>
    <path d="M 141.6510009765625 146.10000610351562 C 141.30599975585938 150.4459991455078 132.60699462890625 145.27099609375 144.91400146484375 146.23500061035156" stroke-width="2.0" fill="none" stroke="rgb(0, 0, 0)" stroke-opacity="1" stroke-linecap="round" stroke-linejoin="round"/>
    <path d="M 129.03399658203125 190.9810028076172 C 144.44200134277344 192.20899963378906 159.5399932861328 184.38099670410156 116.3280029296875 185.8979949951172" stroke-width="2.0" fill="none" stroke="rgb(0, 0, 0)" stroke-opacity="1" stroke-linecap="round" stroke-linejoin="round"/>
    <path d="M 150.10899353027344 143.36500549316406 C 137.60000610351562 140.39500427246094 144.14700317382812 146.87899780273438 148.9510040283203 143.9929962158203" stroke-width="2.0" fill="none" stroke="rgb(0, 0, 0)" stroke-opacity="1" stroke-linecap="round" stroke-linejoin="round"/>
    <path d="M 145.14100646972656 143.5330047607422 C 143.41099548339844 147.66299438476562 138.11300659179688 150.0780029296875 141.70199584960938 145.81700134277344" stroke-width="2.0" fill="none" stroke="rgb(0, 0, 0)" stroke-opacity="1" stroke-linecap="round" stroke-linejoin="round"/>
    <path d="M 200.4969940185547 152.9429931640625 C 188.7899932861328 154.9709930419922 199.62899780273438 170.68099975585938 207.51300048828125 137.77999877929688" stroke-width="2.0" fill="none" stroke="rgb(0, 0, 0)" stroke-opacity="1" stroke-linecap="round" stroke-linejoin="round"/>
    <path d="M 188.87100219726562 179.61500549316406 C 199.5540008544922 154.1230010986328 195.8070068359375 154.95599365234375 215.04299926757812 176.93299865722656" stroke-width="2.0" fill="none" stroke="rgb(0, 0, 0)" stroke-opacity="1" stroke-linecap="round" stroke-linejoin="round"/>
    <path d="M 64.01239776611328 109.6989974975586 C 57.839500427246094 175.593994140625 67.92469787597656 127.14199829101562 42.0 181.0469970703125" stroke-width="2.0" fill="none" stroke="rgb(0, 0, 0)" stroke-opacity="1" stroke-linecap="round" stroke-linejoin="round"/>
    <path d="M 207.49400329589844 147.11399841308594 C 190.8699951171875 97.86409759521484 207.46299743652344 109.50900268554688 199.86900329589844 146.0399932861328" stroke-width="2.0" fill="none" stroke="rgb(0, 0, 0)" stroke-opacity="1" stroke-linecap="round" stroke-linejoin="round"/>
    <path d="M 198.10699462890625 155.49400329589844 C 222.593994140625 180.15199279785156 209.16200256347656 177.0709991455078 194.2790069580078 158.0050048828125" stroke-width="2.0" fill="none" stroke="rgb(0, 0, 0)" stroke-opacity="1" stroke-linecap="round" stroke-linejoin="round"/>
    <path d="M 202.88400268554688 111.82099914550781 C 185.46099853515625 141.7570037841797 189.45899963378906 132.0399932861328 188.79800415039062 133.36599731445312" stroke-width="2.0" fill="none" stroke="rgb(0, 0, 0)" stroke-opacity="1" stroke-linecap="round" stroke-linejoin="round"/>
    <path d="M 192.39300537109375 173.4340057373047 C 214.2550048828125 127.7300033569336 175.21800231933594 129.9739990234375 201.85699462890625 146.36099243164062" stroke-width="2.0" fill="none" stroke="rgb(0, 0, 0)" stroke-opacity="1" stroke-linecap="round" stroke-linejoin="round"/>
    <path d="M 111.01399993896484 157.69400024414062 C 123.49500274658203 111.02400207519531 94.25299835205078 133.7209930419922 122.91799926757812 146.58900451660156" stroke-width="2.0" fill="none" stroke="rgb(0, 0, 0)" stroke-opacity="1" stroke-linecap="round" stroke-linejoin="round"/>
    <path d="M 196.4029998779297 156.2209930419922 C 188.4810028076172 170.9429931640625 190.78199768066406 149.552001953125 217.49899291992188 134.2779998779297" stroke-width="2.0" fill="none" stroke="rgb(0, 0, 0)" stroke-opacity="1" stroke-linecap="round" stroke-linejoin="round"/>
    <path d="M 125.41000366210938 114.63700103759766 C 137.04299926757812 103.10299682617188 121.9229965209961 104.11399841308594 126.08000183105469 108.0" stroke-width="2.0" fill="none" stroke="rgb(0, 0, 0)" stroke-opacity="1" stroke-linecap="round" stroke-linejoin="round"/>
    <path d="M 161.8419952392578 187.2220001220703 C 163.56399536132812 175.91400146484375 181.13999938964844 172.9320068359375 160.4040069580078 188.83299255371094" stroke-width="2.0" fill="none" stroke="rgb(0, 0, 0)" stroke-opacity="1" stroke-linecap="round" stroke-linejoin="round"/>
    <path d="M 83.54209899902344 177.61900329589844 C 90.67520141601562 165.06500244140625 81.20249938964844 203.3489990234375 79.1333999633789 154.7570037841797" stroke-width="2.0" fill="none" stroke="rgb(0, 0, 0)" stroke-opacity="1" stroke-linecap="round" stroke-linejoin="round"/>
    <path d="M 164.3990020751953 178.9530029296875 C 196.51800537109375 178.34500122070312 192.98899841308594 184.4770050048828 165.0030059814453 180.6020050048828" stroke-width="2.0" fill="none" stroke="rgb(0, 0, 0)" stroke-opacity="1" stroke-linecap="round" stroke-linejoin="round"/>
    <path d="M 188.60899353027344 181.26499938964844 C 215.25999450683594 133.13800048828125 193.1739959716797 143.4340057373047 207.4510040283203 134.71299743652344" stroke-width="2.0" fill="none" stroke="rgb(0, 0, 0)" stroke-opacity="1" stroke-linecap="round" stroke-linejoin="round"/>
    <path d="M 104.0989990234375 119.4990005493164 C 127.98200225830078 111.81900024414062 104.25700378417969 152.875 125.18499755859375 115.09200286865234" stroke-width="2.0" fill="none" stroke="rgb(0, 0, 0)" stroke-opacity="1" stroke-linecap="round" stroke-linejoin="round"/>
    <path d="M 99.13520050048828 153.42599487304688 C 135.45899963378906 146.13099670410156 106.29100036621094 142.29800415039062 116.82599639892578 110.95899963378906" stroke-width="2.0" fill="none" stroke="rgb(0, 0, 0)" stroke-opacity="1" stroke-linecap="round" stroke-linejoin="round"/>
    <path d="M 128.60299682617188 118.58599853515625 C 89.07279968261719 122.51799774169922 139.7480010986328 148.13699340820312 102.01200103759766 150.51600646972656" stroke-width="2.0" fill="none" stroke="rgb(0, 0, 0)" stroke-opacity="1" stroke-linecap="round" stroke-linejoin="round"/>
    <path d="M 77.9030990600586 152.97900390625 C 26.680099487304688 138.89999389648438 80.13400268554688 126.08200073242188 65.8479995727539 128.86099243164062" stroke-width="2.0" fill="none" stroke="rgb(0, 0, 0)" stroke-opacity="1" stroke-linecap="round" stroke-linejoin="round"/>
    <path d="M 190.8820037841797 179.1580047607422 C 216.8350067138672 135.6490020751953 188.0850067138672 150.58599853515625 194.8159942626953 124.15599822998047" stroke-width="2.0" fill="none" stroke="rgb(0, 0, 0)" stroke-opacity="1" stroke-linecap="round" stroke-linejoin="round"/>
    <path d="M 149.31100463867188 134.7469940185547 C 108.99500274658203 104.36499786376953 108.72000122070312 136.8560028076172 114.23100280761719 117.29000091552734" stroke-width="2.0" fill="none" stroke="rgb(0, 0, 0)" stroke-opacity="1" stroke-linecap="round" stroke-linejoin="round"/>
    <path d="M 149.14100646972656 133.5540008544922 C 148.05799865722656 136.718994140625 110.72000122070312 103.66699981689453 125.13999938964844 113.12200164794922" stroke-width="2.0" fill="none" stroke="rgb(0, 0, 0)" stroke-opacity="1" stroke-linecap="round" stroke-linejoin="round"/>
    <path d="M 192.6280059814453 156.531005859375 C 227.156005859375 181.19200134277344 207.72799682617188 167.78399658203125 228.0 198.32699584960938" stroke-width="2.0" fill="none" stroke="rgb(0, 0, 0)" stroke-opacity="1" stroke-linecap="round" stroke-linejoin="round"/>
    <path d="M 216.50100708007812 134.7969970703125 C 194.71800231933594 150.72500610351562 218.11399841308594 178.93699645996094 194.84100341796875 159.26400756835938" stroke-width="2.0" fill="none" stroke="rgb(0, 0, 0)" stroke-opacity="1" stroke-linecap="round" stroke-linejoin="round"/>
    <path d="M 100.78600311279297 130.2790069580078 C 110.7249984741211 107.04499816894531 95.39700317382812 125.17900085449219 125.38099670410156 108.07099914550781" stroke-width="2.0" fill="none" stroke="rgb(0, 0, 0)" stroke-opacity="1" stroke-linecap="round" stroke-linejoin="round"/>
    <path d="M 116.68499755859375 118.48300170898438 C 132.1750030517578 133.73500061035156 128.68499755859375 85.9677963256836 113.55699920654297 139.54600524902344" stroke-width="2.0" fill="none" stroke="rgb(0, 0, 0)" stroke-opacity="1" stroke-linecap="round" stroke-linejoin="round"/>
    <path d="M 200.25399780273438 145.20899963378906 C 238.843994140625 128.0 213.4510040283203 141.34300231933594 218.9250030517578 129.447998046875" stroke-width="2.0" fill="none" stroke="rgb(0, 0, 0)" stroke-opacity="1" stroke-linecap="round" stroke-linejoin="round"/>
    <path d="M 200.61300659179688 121.36100006103516 C 201.04299926757812 102.9229965209961 216.33900451660156 112.97599792480469 189.24899291992188 131.4969940185547" stroke-width="2.0" fill="none" stroke="rgb(0, 0, 0)" stroke-opacity="1" stroke-linecap="round" stroke-linejoin="round"/>
    <path d="M 191.4040069580078 172.96400451660156 C 208.63999938964844 103.3479995727539 187.52000427246094 130.43699645996094 205.79200744628906 113.97100067138672" stroke-width="2.0" fill="none" stroke="rgb(0, 0, 0)" stroke-opacity="1" stroke-linecap="round" stroke-linejoin="round"/>
    <path d="M 74.56320190429688 126.34100341796875 C 45.12739944458008 112.3219985961914 78.52210235595703 122.7300033569336 64.9843978881836 129.0540008544922" stroke-width="2.0" fill="none" stroke="rgb(0, 0, 0)" stroke-opacity="1" stroke-linecap="round" stroke-linejoin="round"/>
    <path d="M 198.54800415039062 126.9010009765625 C 217.56300354003906 114.66200256347656 190.02200317382812 93.80049896240234 199.92999267578125 142.01800537109375" stroke-width="2.0" fill="none" stroke="rgb(0, 0, 0)" stroke-opacity="1" stroke-linecap="round" stroke-linejoin="round"/>
    <path d="M 52.19430160522461 123.87999725341797 C 83.20449829101562 105.05799865722656 60.09170150756836 111.3290023803711 57.047000885009766 154.50999450683594" stroke-width="2.0" fill="none" stroke="rgb(0, 0, 0)" stroke-opacity="1" stroke-linecap="round" stroke-linejoin="round"/>
    <path d="M 199.46499633789062 121.47100067138672 C 220.14100646972656 161.5760040283203 201.5030059814453 151.3179931640625 201.09300231933594 134.3699951171875" stroke-width="2.0" fill="none" stroke="rgb(0, 0, 0)" stroke-opacity="1" stroke-linecap="round" stroke-linejoin="round"/>
    <path d="M 74.78209686279297 131.53199768066406 C 53.439998626708984 102.08999633789062 81.79029846191406 105.4000015258789 62.58639907836914 136.60400390625" stroke-width="2.0" fill="none" stroke="rgb(0, 0, 0)" stroke-opacity="1" stroke-linecap="round" stroke-linejoin="round"/>
    <path d="M 54.387001037597656 160.16700744628906 C 53.197200775146484 115.98799896240234 78.64029693603516 103.36599731445312 46.444698333740234 174.9459991455078" stroke-width="2.0" fill="none" stroke="rgb(0, 0, 0)" stroke-opacity="1" stroke-linecap="round" stroke-linejoin="round"/>
    <path d="M 186.8730010986328 178.49899291992188 C 197.98199462890625 152.9969940185547 175.3719940185547 162.69400024414062 218.63999938964844 136.74400329589844" stroke-width="2.0" fill="none" stroke="rgb(0, 0, 0)" stroke-opacity="1" stroke-linecap="round" stroke-linejoin="round"/>
    <path d="M 122.44000244140625 122.81600189208984 C 116.87699890136719 90.47550201416016 143.4949951171875 104.15599822998047 112.66300201416016 118.70999908447266" stroke-width="2.0" fill="none" stroke="rgb(0, 0, 0)" stroke-opacity="1" stroke-linecap="round" stroke-linejoin="round"/>
  </g>
</svg>
