<?xml version="1.0" ?>
<svg xmlns="http://www.w3.org/2000/svg" version="1.1" width="256" height="256">
  <defs/>
  <g>
    <path d="M 95.93820190429688 148.3470001220703 C 57.101200103759766 141.83799743652344 91.99130249023438 275.6600036621094 84.67680358886719 97.42140197753906" stroke-width="3.0" fill="none" stroke="rgb(0, 0, 0)" stroke-opacity="1" stroke-linecap="round" stroke-linejoin="round"/>
    <path d="M 99.29509735107422 160.4709930419922 C 51.460899353027344 178.593994140625 51.75400161743164 210.42799377441406 50.32099914550781 162.4600067138672" stroke-width="3.0" fill="none" stroke="rgb(0, 0, 0)" stroke-opacity="1" stroke-linecap="round" stroke-linejoin="round"/>
    <path d="M 112.56500244140625 164.07200622558594 C 14.073800086975098 155.91700744628906 70.06330108642578 160.843994140625 59.27690124511719 155.1739959716797" stroke-width="3.0" fill="none" stroke="rgb(0, 0, 0)" stroke-opacity="1" stroke-linecap="round" stroke-linejoin="round"/>
    <path d="M 56.0 185.01300048828125 C 134.0 185.01300048828125 138.95199584960938 165.71499633789062 134.0 211.7530059814453" stroke-width="3.0" fill="none" stroke="rgb(0, 0, 0)" stroke-opacity="1" stroke-linecap="round" stroke-linejoin="round"/>
    <path d="M 127.35900115966797 176.01300048828125 C 49.358699798583984 176.01300048828125 44.40679931640625 156.71499633789062 49.35860061645508 202.7530059814453" stroke-width="3.0" fill="none" stroke="rgb(0, 0, 0)" stroke-opacity="1" stroke-linecap="round" stroke-linejoin="round"/>
    <path d="M 134.14700317382812 184.0540008544922 C 22.667800903320312 193.68299865722656 -15.025799751281738 198.01400756835938 89.80940246582031 168.0489959716797" stroke-width="3.0" fill="none" stroke="rgb(0, 0, 0)" stroke-opacity="1" stroke-linecap="round" stroke-linejoin="round"/>
    <path d="M 110.79000091552734 186.4739990234375 C 113.66799926757812 230.86399841308594 117.69400024414062 200.13299560546875 83.57060241699219 218.97999572753906" stroke-width="3.0" fill="none" stroke="rgb(0, 0, 0)" stroke-opacity="1" stroke-linecap="round" stroke-linejoin="round"/>
    <path d="M 143.10299682617188 181.44400024414062 C 66.87830352783203 183.86700439453125 81.75379943847656 172.0229949951172 73.93080139160156 218.2899932861328" stroke-width="3.0" fill="none" stroke="rgb(0, 0, 0)" stroke-opacity="1" stroke-linecap="round" stroke-linejoin="round"/>
    <path d="M 70.24449920654297 192.52499389648438 C 177.94200134277344 171.34100341796875 119.65499877929688 188.80799865722656 34.44729995727539 181.01199340820312" stroke-width="3.0" fill="none" stroke="rgb(0, 0, 0)" stroke-opacity="1" stroke-linecap="round" stroke-linejoin="round"/>
    <path d="M 71.79720306396484 207.51300048828125 C 179.4949951171875 186.32899475097656 121.20700073242188 203.79600524902344 36.0 196.0" stroke-width="3.0" fill="none" stroke="rgb(0, 0, 0)" stroke-opacity="1" stroke-linecap="round" stroke-linejoin="round"/>
    <path d="M 82.52189636230469 90.49579620361328 C 86.28410339355469 138.23300170898438 82.17790222167969 58.23419952392578 82.38970184326172 68.01329803466797" stroke-width="3.0" fill="none" stroke="rgb(0, 0, 0)" stroke-opacity="1" stroke-linecap="round" stroke-linejoin="round"/>
    <path d="M 92.31189727783203 122.12899780273438 C 71.34760284423828 155.46099853515625 74.60679626464844 110.88600158691406 75.43399810791016 161.96499633789062" stroke-width="3.0" fill="none" stroke="rgb(0, 0, 0)" stroke-opacity="1" stroke-linecap="round" stroke-linejoin="round"/>
    <path d="M 99.8550033569336 130.5749969482422 C 95.34480285644531 86.74610137939453 113.5469970703125 100.67500305175781 112.73400115966797 160.5590057373047" stroke-width="3.0" fill="none" stroke="rgb(0, 0, 0)" stroke-opacity="1" stroke-linecap="round" stroke-linejoin="round"/>
    <path d="M 94.75399780273438 102.41600036621094 C 67.95189666748047 98.20680236816406 68.31300354003906 127.4209976196289 118.0 122.4229965209961" stroke-width="3.0" fill="none" stroke="rgb(0, 0, 0)" stroke-opacity="1" stroke-linecap="round" stroke-linejoin="round"/>
    <path d="M 103.37999725341797 93.60990142822266 C 47.40739822387695 99.68340301513672 90.918701171875 97.04109954833984 97.78150177001953 129.8000030517578" stroke-width="3.0" fill="none" stroke="rgb(0, 0, 0)" stroke-opacity="1" stroke-linecap="round" stroke-linejoin="round"/>
    <path d="M 108.51000213623047 104.7020034790039 C 26.539199829101562 104.26000213623047 137.47300720214844 65.96690368652344 85.28929901123047 116.34400177001953" stroke-width="3.0" fill="none" stroke="rgb(0, 0, 0)" stroke-opacity="1" stroke-linecap="round" stroke-linejoin="round"/>
    <path d="M 79.79650115966797 122.53700256347656 C 116.33599853515625 144.9969940185547 109.85800170898438 109.08000183105469 112.39700317382812 171.51800537109375" stroke-width="3.0" fill="none" stroke="rgb(0, 0, 0)" stroke-opacity="1" stroke-linecap="round" stroke-linejoin="round"/>
    <path d="M 92.67569732666016 84.78369903564453 C 89.53520202636719 38.03350067138672 88.87339782714844 8.333100318908691 91.19619750976562 79.59880065917969" stroke-width="3.0" fill="none" stroke="rgb(0, 0, 0)" stroke-opacity="1" stroke-linecap="round" stroke-linejoin="round"/>
    <path d="M 228.0 214.7270050048828 C 130.10400390625 217.2740020751953 143.83900451660156 209.21099853515625 113.0 219.0" stroke-width="3.0" fill="none" stroke="rgb(0, 0, 0)" stroke-opacity="1" stroke-linecap="round" stroke-linejoin="round"/>
    <path d="M 118.0 125.06600189208984 C 85.41000366210938 124.27400207519531 78.44539642333984 130.8300018310547 93.77549743652344 131.0" stroke-width="3.0" fill="none" stroke="rgb(0, 0, 0)" stroke-opacity="1" stroke-linecap="round" stroke-linejoin="round"/>
    <path d="M 48.03559875488281 160.22799682617188 C 137.13499450683594 159.9929962158203 114.91799926757812 202.33999633789062 118.24500274658203 125.58899688720703" stroke-width="3.0" fill="none" stroke="rgb(0, 0, 0)" stroke-opacity="1" stroke-linecap="round" stroke-linejoin="round"/>
    <path d="M 53.0 167.63900756835938 C 142.0989990234375 167.4040069580078 119.88200378417969 209.75100708007812 123.20899963378906 133.0" stroke-width="3.0" fill="none" stroke="rgb(0, 0, 0)" stroke-opacity="1" stroke-linecap="round" stroke-linejoin="round"/>
    <path d="M 97.02459716796875 161.11300659179688 C 93.7217025756836 65.10320281982422 106.9739990234375 105.6259994506836 77.50990295410156 98.65850067138672" stroke-width="3.0" fill="none" stroke="rgb(0, 0, 0)" stroke-opacity="1" stroke-linecap="round" stroke-linejoin="round"/>
    <path d="M 86.6676025390625 82.73650360107422 C 101.59400177001953 78.06819915771484 72.4540023803711 205.2760009765625 79.51020050048828 90.52899932861328" stroke-width="3.0" fill="none" stroke="rgb(0, 0, 0)" stroke-opacity="1" stroke-linecap="round" stroke-linejoin="round"/>
    <path d="M 85.76010131835938 198.9669952392578 C 94.04509735107422 216.6179962158203 152.87600708007812 210.37600708007812 34.14360046386719 209.3249969482422" stroke-width="3.0" fill="none" stroke="rgb(0, 0, 0)" stroke-opacity="1" stroke-linecap="round" stroke-linejoin="round"/>
    <path d="M 148.85299682617188 209.21600341796875 C 144.75999450683594 192.52699279785156 137.6540069580078 193.30799865722656 135.5500030517578 212.42599487304688" stroke-width="3.0" fill="none" stroke="rgb(0, 0, 0)" stroke-opacity="1" stroke-linecap="round" stroke-linejoin="round"/>
    <path d="M 139.302001953125 209.79100036621094 C 135.20899963378906 193.1009979248047 128.10400390625 193.8820037841797 126.0 213.0" stroke-width="3.0" fill="none" stroke="rgb(0, 0, 0)" stroke-opacity="1" stroke-linecap="round" stroke-linejoin="round"/>
    <path d="M 183.302001953125 204.302001953125 C 169.65899658203125 180.75 170.6820068359375 219.02499389648438 156.01499938964844 197.9219970703125" stroke-width="3.0" fill="none" stroke="rgb(0, 0, 0)" stroke-opacity="1" stroke-linecap="round" stroke-linejoin="round"/>
    <path d="M 201.7209930419922 211.78199768066406 C 188.07699584960938 188.22999572753906 189.1009979248047 226.50399780273438 174.4340057373047 205.40199279785156" stroke-width="3.0" fill="none" stroke="rgb(0, 0, 0)" stroke-opacity="1" stroke-linecap="round" stroke-linejoin="round"/>
    <path d="M 214.0 207.8560028076172 C 200.35699462890625 184.3040008544922 201.3800048828125 222.5780029296875 186.71299743652344 201.4759979248047" stroke-width="3.0" fill="none" stroke="rgb(0, 0, 0)" stroke-opacity="1" stroke-linecap="round" stroke-linejoin="round"/>
    <path d="M 212.63600158691406 206.00599670410156 C 205.91900634765625 191.87899780273438 194.25799560546875 192.5399932861328 190.80599975585938 208.72300720214844" stroke-width="3.0" fill="none" stroke="rgb(0, 0, 0)" stroke-opacity="1" stroke-linecap="round" stroke-linejoin="round"/>
    <path d="M 167.61199951171875 204.04299926757812 C 160.89599609375 189.91600036621094 149.23500061035156 190.57699584960938 145.7830047607422 206.75999450683594" stroke-width="3.0" fill="none" stroke="rgb(0, 0, 0)" stroke-opacity="1" stroke-linecap="round" stroke-linejoin="round"/>
    <path d="M 192.51199340820312 212.0970001220703 C 192.51199340820312 177.74400329589844 176.82200622558594 200.81300354003906 174.4340057373047 212.0970001220703" stroke-width="3.0" fill="none" stroke="rgb(0, 0, 0)" stroke-opacity="1" stroke-linecap="round" stroke-linejoin="round"/>
    <path d="M 140.3260040283203 212.0970001220703 C 140.3260040283203 177.74400329589844 156.01499938964844 200.81300354003906 158.4029998779297 212.0970001220703" stroke-width="3.0" fill="none" stroke="rgb(0, 0, 0)" stroke-opacity="1" stroke-linecap="round" stroke-linejoin="round"/>
    <path d="M 151.58099365234375 212.58299255371094 C 165.22500610351562 189.031005859375 164.20199584960938 227.30499267578125 178.8679962158203 206.2030029296875" stroke-width="3.0" fill="none" stroke="rgb(0, 0, 0)" stroke-opacity="1" stroke-linecap="round" stroke-linejoin="round"/>
    <path d="M 182.1320037841797 183.60400390625 C 157.76100158691406 201.0959930419922 177.30799865722656 169.71099853515625 170.8000030517578 189.30799865722656" stroke-width="2.0" fill="none" stroke="rgb(0, 0, 0)" stroke-opacity="1" stroke-linecap="round" stroke-linejoin="round"/>
    <path d="M 158.89999389648438 122.98200225830078 C 171.86199951171875 120.14900207519531 173.18299865722656 138.26199340820312 169.6439971923828 126.7509994506836" stroke-width="2.0" fill="none" stroke="rgb(0, 0, 0)" stroke-opacity="1" stroke-linecap="round" stroke-linejoin="round"/>
    <path d="M 172.45599365234375 131.09100341796875 C 179.24200439453125 131.2449951171875 174.47900390625 121.62200164794922 169.52099609375 128.13699340820312" stroke-width="2.0" fill="none" stroke="rgb(0, 0, 0)" stroke-opacity="1" stroke-linecap="round" stroke-linejoin="round"/>
    <path d="M 167.99600219726562 137.406005859375 C 173.92300415039062 121.59500122070312 165.17599487304688 101.9739990234375 171.54100036621094 129.572998046875" stroke-width="2.0" fill="none" stroke="rgb(0, 0, 0)" stroke-opacity="1" stroke-linecap="round" stroke-linejoin="round"/>
    <path d="M 170.03900146484375 163.1649932861328 C 163.18600463867188 135.531005859375 171.08900451660156 123.45999908447266 158.34500122070312 126.33599853515625" stroke-width="2.0" fill="none" stroke="rgb(0, 0, 0)" stroke-opacity="1" stroke-linecap="round" stroke-linejoin="round"/>
    <path d="M 180.79600524902344 140.13699340820312 C 164.1820068359375 143.83799743652344 164.98199462890625 156.60800170898438 169.78799438476562 123.76000213623047" stroke-width="2.0" fill="none" stroke="rgb(0, 0, 0)" stroke-opacity="1" stroke-linecap="round" stroke-linejoin="round"/>
    <path d="M 192.83299255371094 187.46400451660156 C 173.52699279785156 152.718994140625 171.1699981689453 189.23599243164062 185.6490020751953 188.66400146484375" stroke-width="2.0" fill="none" stroke="rgb(0, 0, 0)" stroke-opacity="1" stroke-linecap="round" stroke-linejoin="round"/>
    <path d="M 171.27099609375 121.65399932861328 C 153.68899536132812 102.61499786376953 175.5570068359375 115.10900115966797 170.7239990234375 132.42599487304688" stroke-width="2.0" fill="none" stroke="rgb(0, 0, 0)" stroke-opacity="1" stroke-linecap="round" stroke-linejoin="round"/>
    <path d="M 194.0330047607422 190.0679931640625 C 157.2530059814453 186.42599487304688 162.03599548339844 157.4199981689453 170.8459930419922 170.9929962158203" stroke-width="2.0" fill="none" stroke="rgb(0, 0, 0)" stroke-opacity="1" stroke-linecap="round" stroke-linejoin="round"/>
    <path d="M 159.06199645996094 126.30500030517578 C 172.66200256347656 133.6529998779297 164.64199829101562 94.28130340576172 157.31100463867188 126.15699768066406" stroke-width="2.0" fill="none" stroke="rgb(0, 0, 0)" stroke-opacity="1" stroke-linecap="round" stroke-linejoin="round"/>
    <path d="M 165.4149932861328 187.17599487304688 C 166.09100341796875 148.33399963378906 171.33099365234375 135.8730010986328 171.60899353027344 118.87300109863281" stroke-width="2.0" fill="none" stroke="rgb(0, 0, 0)" stroke-opacity="1" stroke-linecap="round" stroke-linejoin="round"/>
    <path d="M 180.07699584960938 138.38900756835938 C 170.28900146484375 128.3159942626953 155.65899658203125 145.5709991455078 180.0070037841797 145.43899536132812" stroke-width="2.0" fill="none" stroke="rgb(0, 0, 0)" stroke-opacity="1" stroke-linecap="round" stroke-linejoin="round"/>
    <path d="M 172.45799255371094 163.54200744628906 C 140.7100067138672 175.81300354003906 195.60299682617188 183.7169952392578 160.68699645996094 179.54400634765625" stroke-width="2.0" fill="none" stroke="rgb(0, 0, 0)" stroke-opacity="1" stroke-linecap="round" stroke-linejoin="round"/>
    <path d="M 177.3800048828125 184.02499389648438 C 169.7100067138672 167.13600158691406 153.85899353027344 161.99400329589844 159.37100219726562 188.0989990234375" stroke-width="2.0" fill="none" stroke="rgb(0, 0, 0)" stroke-opacity="1" stroke-linecap="round" stroke-linejoin="round"/>
    <path d="M 178.1199951171875 139.07200622558594 C 179.20399475097656 135.96200561523438 173.76499938964844 129.697998046875 176.48699951171875 137.56199645996094" stroke-width="2.0" fill="none" stroke="rgb(0, 0, 0)" stroke-opacity="1" stroke-linecap="round" stroke-linejoin="round"/>
    <path d="M 168.48599243164062 145.8470001220703 C 174.07699584960938 180.83399963378906 175.81100463867188 157.93699645996094 175.4250030517578 146.74899291992188" stroke-width="2.0" fill="none" stroke="rgb(0, 0, 0)" stroke-opacity="1" stroke-linecap="round" stroke-linejoin="round"/>
    <path d="M 170.63900756835938 124.9469985961914 C 166.78399658203125 137.84300231933594 181.11099243164062 130.58700561523438 162.6649932861328 121.47799682617188" stroke-width="2.0" fill="none" stroke="rgb(0, 0, 0)" stroke-opacity="1" stroke-linecap="round" stroke-linejoin="round"/>
    <path d="M 158.7310028076172 187.64500427246094 C 156.5489959716797 123.23300170898438 161.072998046875 100.39299774169922 159.5019989013672 164.6179962158203" stroke-width="2.0" fill="none" stroke="rgb(0, 0, 0)" stroke-opacity="1" stroke-linecap="round" stroke-linejoin="round"/>
    <path d="M 175.83999633789062 156.7519989013672 C 174.60499572753906 112.2490005493164 175.531005859375 133.23399353027344 176.10299682617188 177.468994140625" stroke-width="2.0" fill="none" stroke="rgb(0, 0, 0)" stroke-opacity="1" stroke-linecap="round" stroke-linejoin="round"/>
    <path d="M 168.3509979248047 127.50199890136719 C 168.5500030517578 102.87699890136719 170.2740020751953 117.6050033569336 181.23300170898438 142.46800231933594" stroke-width="2.0" fill="none" stroke="rgb(0, 0, 0)" stroke-opacity="1" stroke-linecap="round" stroke-linejoin="round"/>
    <path d="M 167.9600067138672 147.17999267578125 C 189.9770050048828 137.93600463867188 180.92999267578125 138.95399475097656 169.39199829101562 132.57699584960938" stroke-width="2.0" fill="none" stroke="rgb(0, 0, 0)" stroke-opacity="1" stroke-linecap="round" stroke-linejoin="round"/>
    <path d="M 185.44400024414062 180.6699981689453 C 180.02000427246094 154.0489959716797 184.19700622558594 129.60499572753906 177.0959930419922 138.24000549316406" stroke-width="2.0" fill="none" stroke="rgb(0, 0, 0)" stroke-opacity="1" stroke-linecap="round" stroke-linejoin="round"/>
  </g>
</svg>
