<?xml version="1.0" ?>
<svg xmlns="http://www.w3.org/2000/svg" version="1.1" width="256" height="256">
  <defs/>
  <g>
    <path d="M 123.48300170898438 157.02000427246094 C 149.83399963378906 157.79600524902344 151.26199340820312 151.66400146484375 142.59500122070312 157.5500030517578" stroke-width="2.0" fill="none" stroke="rgb(255, 0, 0)" stroke-opacity="1" stroke-linecap="round" stroke-linejoin="round"/>
    <path d="M 161.26699829101562 202.6909942626953 C 130.34300231933594 173.5449981689453 181.08099365234375 205.65699768066406 172.26800537109375 154.83399963378906" stroke-width="2.0" fill="none" stroke="rgb(255, 0, 0)" stroke-opacity="1" stroke-linecap="round" stroke-linejoin="round"/>
    <path d="M 129.3280029296875 162.6909942626953 C 124.23400115966797 145.54200744628906 130.91299438476562 180.447998046875 138.33099365234375 188.12899780273438" stroke-width="2.0" fill="none" stroke="rgb(255, 0, 0)" stroke-opacity="1" stroke-linecap="round" stroke-linejoin="round"/>
    <path d="M 136.5019989013672 163.36399841308594 C 116.75800323486328 142.97300720214844 125.35600280761719 179.82200622558594 138.81300354003906 188.80599975585938" stroke-width="2.0" fill="none" stroke="rgb(255, 0, 0)" stroke-opacity="1" stroke-linecap="round" stroke-linejoin="round"/>
    <path d="M 132.7220001220703 164.3070068359375 C 137.95199584960938 144.50900268554688 139.69200134277344 144.77000427246094 123.38800048828125 146.75399780273438" stroke-width="2.0" fill="none" stroke="rgb(255, 0, 0)" stroke-opacity="1" stroke-linecap="round" stroke-linejoin="round"/>
    <path d="M 174.23199462890625 150.39700317382812 C 164.15499877929688 174.45199584960938 157.00999450683594 201.1230010986328 155.67999267578125 170.13600158691406" stroke-width="2.0" fill="none" stroke="rgb(255, 0, 0)" stroke-opacity="1" stroke-linecap="round" stroke-linejoin="round"/>
    <path d="M 138.4969940185547 150.03399658203125 C 147.37600708007812 161.63499450683594 130.24600219726562 166.8260040283203 126.22100067138672 166.06300354003906" stroke-width="2.0" fill="none" stroke="rgb(255, 0, 0)" stroke-opacity="1" stroke-linecap="round" stroke-linejoin="round"/>
    <path d="M 109.73300170898438 203.39700317382812 C 97.80000305175781 223.1269989013672 88.17890167236328 233.5970001220703 95.29550170898438 229.86000061035156" stroke-width="2.0" fill="none" stroke="rgb(0, 255, 0)" stroke-opacity="1" stroke-linecap="round" stroke-linejoin="round"/>
    <path d="M 98.99150085449219 231.50999450683594 C 102.4800033569336 230.0489959716797 98.52110290527344 232.96299743652344 94.9729995727539 229.968994140625" stroke-width="2.0" fill="none" stroke="rgb(0, 255, 0)" stroke-opacity="1" stroke-linecap="round" stroke-linejoin="round"/>
    <path d="M 135.36900329589844 138.83399963378906 C 118.6709976196289 174.3800048828125 101.49199676513672 156.92300415039062 136.25799560546875 147.75999450683594" stroke-width="2.0" fill="none" stroke="rgb(255, 0, 0)" stroke-opacity="1" stroke-linecap="round" stroke-linejoin="round"/>
    <path d="M 147.33900451660156 178.78599548339844 C 154.13400268554688 195.2689971923828 147.4219970703125 187.88299560546875 174.47799682617188 195.4250030517578" stroke-width="2.0" fill="none" stroke="rgb(255, 0, 0)" stroke-opacity="1" stroke-linecap="round" stroke-linejoin="round"/>
    <path d="M 137.33700561523438 161.02000427246094 C 148.07200622558594 163.93899536132812 125.48400115966797 171.05499267578125 112.25199890136719 154.40499877929688" stroke-width="2.0" fill="none" stroke="rgb(255, 0, 0)" stroke-opacity="1" stroke-linecap="round" stroke-linejoin="round"/>
    <path d="M 139.10699462890625 161.86599731445312 C 146.10800170898438 145.23599243164062 129.91099548339844 160.5229949951172 162.18499755859375 182.62899780273438" stroke-width="2.0" fill="none" stroke="rgb(255, 0, 0)" stroke-opacity="1" stroke-linecap="round" stroke-linejoin="round"/>
    <path d="M 94.34049987792969 229.97300720214844 C 92.658203125 227.72300720214844 91.98310089111328 233.61199951171875 99.70040130615234 233.0449981689453" stroke-width="2.0" fill="none" stroke="rgb(0, 255, 0)" stroke-opacity="1" stroke-linecap="round" stroke-linejoin="round"/>
    <path d="M 118.06099700927734 106.31300354003906 C 136.3699951171875 77.28150177001953 137.1269989013672 95.40869903564453 132.2169952392578 88.41089630126953" stroke-width="2.0" fill="none" stroke="rgb(0, 0, 255)" stroke-opacity="1" stroke-linecap="round" stroke-linejoin="round"/>
    <path d="M 119.4520034790039 90.71589660644531 C 127.28099822998047 84.73970031738281 163.39199829101562 93.57129669189453 141.33099365234375 110.04399871826172" stroke-width="2.0" fill="none" stroke="rgb(0, 0, 255)" stroke-opacity="1" stroke-linecap="round" stroke-linejoin="round"/>
    <path d="M 130.74600219726562 83.0 C 127.55899810791016 91.24729919433594 122.46600341796875 91.220703125 132.47900390625 86.72019958496094" stroke-width="2.0" fill="none" stroke="rgb(0, 0, 255)" stroke-opacity="1" stroke-linecap="round" stroke-linejoin="round"/>
    <path d="M 90.0 229.91799926757812 C 101.7760009765625 187.75900268554688 92.31950378417969 200.2949981689453 107.1510009765625 194.9770050048828" stroke-width="2.0" fill="none" stroke="rgb(0, 255, 0)" stroke-opacity="1" stroke-linecap="round" stroke-linejoin="round"/>
    <path d="M 125.51499938964844 186.3260040283203 C 100.68199920654297 189.5050048828125 117.22200012207031 196.45700073242188 102.9260025024414 198.46600341796875" stroke-width="2.0" fill="none" stroke="rgb(255, 0, 0)" stroke-opacity="1" stroke-linecap="round" stroke-linejoin="round"/>
    <path d="M 149.7310028076172 232.86099243164062 C 132.41600036621094 206.197998046875 132.5970001220703 200.4669952392578 130.81500244140625 202.58299255371094" stroke-width="2.0" fill="none" stroke="rgb(0, 255, 0)" stroke-opacity="1" stroke-linecap="round" stroke-linejoin="round"/>
    <path d="M 92.33589935302734 232.33799743652344 C 116.30699920654297 236.56300354003906 151.43699645996094 232.3000030517578 146.33099365234375 237.8300018310547" stroke-width="2.0" fill="none" stroke="rgb(0, 255, 0)" stroke-opacity="1" stroke-linecap="round" stroke-linejoin="round"/>
    <path d="M 137.46600341796875 185.23899841308594 C 112.9739990234375 198.01100158691406 121.96199798583984 198.76300048828125 98.90910339355469 196.98300170898438" stroke-width="2.0" fill="none" stroke="rgb(255, 0, 0)" stroke-opacity="1" stroke-linecap="round" stroke-linejoin="round"/>
    <path d="M 143.8179931640625 153.21299743652344 C 137.0570068359375 172.281005859375 102.09200286865234 154.427001953125 120.18699645996094 149.406005859375" stroke-width="2.0" fill="none" stroke="rgb(255, 0, 0)" stroke-opacity="1" stroke-linecap="round" stroke-linejoin="round"/>
    <path d="M 139.70399475097656 186.7729949951172 C 140.1230010986328 207.8280029296875 192.73399353027344 197.656005859375 122.03800201416016 204.11000061035156" stroke-width="2.0" fill="none" stroke="rgb(0, 255, 0)" stroke-opacity="1" stroke-linecap="round" stroke-linejoin="round"/>
    <path d="M 116.68599700927734 118.57099914550781 C 100.86799621582031 108.81600189208984 109.07599639892578 103.79000091552734 107.69599914550781 106.63200378417969" stroke-width="2.0" fill="none" stroke="rgb(0, 0, 255)" stroke-opacity="1" stroke-linecap="round" stroke-linejoin="round"/>
    <path d="M 121.4209976196289 163.63699340820312 C 118.70800018310547 179.57200622558594 133.41400146484375 194.10000610351562 138.8300018310547 190.95399475097656" stroke-width="2.0" fill="none" stroke="rgb(255, 0, 0)" stroke-opacity="1" stroke-linecap="round" stroke-linejoin="round"/>
    <path d="M 139.00999450683594 114.36299896240234 C 144.6750030517578 112.60800170898438 134.10499572753906 89.30899810791016 131.22300720214844 89.37969970703125" stroke-width="2.0" fill="none" stroke="rgb(0, 0, 255)" stroke-opacity="1" stroke-linecap="round" stroke-linejoin="round"/>
    <path d="M 133.05999755859375 156.72900390625 C 130.468994140625 158.28500366210938 166.77499389648438 157.2469940185547 133.9739990234375 146.99000549316406" stroke-width="2.0" fill="none" stroke="rgb(255, 0, 0)" stroke-opacity="1" stroke-linecap="round" stroke-linejoin="round"/>
    <path d="M 151.5070037841797 138.97799682617188 C 172.41200256347656 141.73399353027344 178.468994140625 198.14199829101562 157.46800231933594 176.00799560546875" stroke-width="2.0" fill="none" stroke="rgb(255, 0, 0)" stroke-opacity="1" stroke-linecap="round" stroke-linejoin="round"/>
    <path d="M 133.81900024414062 149.34100341796875 C 148.68800354003906 123.1969985961914 119.22799682617188 144.30599975585938 122.875 127.85399627685547" stroke-width="2.0" fill="none" stroke="rgb(255, 0, 0)" stroke-opacity="1" stroke-linecap="round" stroke-linejoin="round"/>
    <path d="M 174.89100646972656 198.86900329589844 C 132.36900329589844 208.531005859375 145.08399963378906 192.39300537109375 134.50799560546875 178.28799438476562" stroke-width="2.0" fill="none" stroke="rgb(0, 255, 0)" stroke-opacity="1" stroke-linecap="round" stroke-linejoin="round"/>
    <path d="M 117.21900177001953 157.28700256347656 C 133.66200256347656 171.53399658203125 118.20099639892578 137.91400146484375 161.3780059814453 182.47799682617188" stroke-width="2.0" fill="none" stroke="rgb(255, 0, 0)" stroke-opacity="1" stroke-linecap="round" stroke-linejoin="round"/>
    <path d="M 168.57000732421875 168.125 C 169.25799560546875 180.74400329589844 139.69500732421875 167.9759979248047 142.4290008544922 154.85299682617188" stroke-width="2.0" fill="none" stroke="rgb(255, 0, 0)" stroke-opacity="1" stroke-linecap="round" stroke-linejoin="round"/>
    <path d="M 120.27899932861328 84.0154037475586 C 119.2020034790039 84.2228012084961 150.81100463867188 82.2708969116211 127.28800201416016 90.13469696044922" stroke-width="2.0" fill="none" stroke="rgb(0, 0, 255)" stroke-opacity="1" stroke-linecap="round" stroke-linejoin="round"/>
    <path d="M 162.91600036621094 180.5659942626953 C 162.8990020751953 161.2969970703125 159.9029998779297 176.61099243164062 172.95700073242188 166.1739959716797" stroke-width="2.0" fill="none" stroke="rgb(255, 0, 0)" stroke-opacity="1" stroke-linecap="round" stroke-linejoin="round"/>
    <path d="M 111.93000030517578 154.64700317382812 C 132.4219970703125 136.18099975585938 132.6929931640625 167.20399475097656 137.8280029296875 173.30099487304688" stroke-width="2.0" fill="none" stroke="rgb(255, 0, 0)" stroke-opacity="1" stroke-linecap="round" stroke-linejoin="round"/>
    <path d="M 166.23599243164062 166.82699584960938 C 146.79299926757812 181.11199951171875 159.4320068359375 177.23899841308594 169.2030029296875 178.03500366210938" stroke-width="2.0" fill="none" stroke="rgb(255, 0, 0)" stroke-opacity="1" stroke-linecap="round" stroke-linejoin="round"/>
    <path d="M 91.54620361328125 231.0469970703125 C 98.61389923095703 211.20599365234375 101.30599975585938 190.1269989013672 98.9271011352539 202.99200439453125" stroke-width="2.0" fill="none" stroke="rgb(0, 255, 0)" stroke-opacity="1" stroke-linecap="round" stroke-linejoin="round"/>
    <path d="M 112.75 192.84800720214844 C 133.8459930419922 182.76800537109375 139.68299865722656 185.85499572753906 113.90299987792969 194.60800170898438" stroke-width="2.0" fill="none" stroke="rgb(255, 0, 0)" stroke-opacity="1" stroke-linecap="round" stroke-linejoin="round"/>
    <path d="M 152.4929962158203 140.0290069580078 C 151.38499450683594 153.88099670410156 180.29200744628906 156.72999572753906 152.93899536132812 170.5570068359375" stroke-width="2.0" fill="none" stroke="rgb(255, 0, 0)" stroke-opacity="1" stroke-linecap="round" stroke-linejoin="round"/>
    <path d="M 137.052001953125 182.197998046875 C 139.11099243164062 211.57899475097656 174.51400756835938 187.52000427246094 167.96800231933594 194.5659942626953" stroke-width="2.0" fill="none" stroke="rgb(255, 0, 0)" stroke-opacity="1" stroke-linecap="round" stroke-linejoin="round"/>
    <path d="M 128.03399658203125 84.80719757080078 C 106.14299774169922 81.27249908447266 99.70500183105469 102.89099884033203 109.36499786376953 108.68299865722656" stroke-width="2.0" fill="none" stroke="rgb(0, 0, 255)" stroke-opacity="1" stroke-linecap="round" stroke-linejoin="round"/>
    <path d="M 126.11699676513672 150.19900512695312 C 115.47599792480469 167.45399475097656 121.17400360107422 195.9929962158203 138.57200622558594 190.36399841308594" stroke-width="2.0" fill="none" stroke="rgb(255, 0, 0)" stroke-opacity="1" stroke-linecap="round" stroke-linejoin="round"/>
    <path d="M 141.46400451660156 193.72500610351562 C 142.50999450683594 165.0290069580078 123.48600006103516 164.91299438476562 137.70399475097656 151.0800018310547" stroke-width="2.0" fill="none" stroke="rgb(255, 0, 0)" stroke-opacity="1" stroke-linecap="round" stroke-linejoin="round"/>
    <path d="M 138.5489959716797 117.21800231933594 C 141.66700744628906 96.706298828125 128.04299926757812 80.8136978149414 132.33700561523438 88.41490173339844" stroke-width="2.0" fill="none" stroke="rgb(0, 0, 255)" stroke-opacity="1" stroke-linecap="round" stroke-linejoin="round"/>
    <path d="M 133.58999633789062 143.59500122070312 C 108.43199920654297 96.06109619140625 145.36199951171875 142.9949951171875 133.34100341796875 148.6999969482422" stroke-width="2.0" fill="none" stroke="rgb(255, 0, 0)" stroke-opacity="1" stroke-linecap="round" stroke-linejoin="round"/>
    <path d="M 119.61799621582031 160.61900329589844 C 130.46200561523438 140.9010009765625 126.30999755859375 158.00100708007812 141.6060028076172 160.89500427246094" stroke-width="2.0" fill="none" stroke="rgb(255, 0, 0)" stroke-opacity="1" stroke-linecap="round" stroke-linejoin="round"/>
    <path d="M 165.06700134277344 179.0399932861328 C 174.3489990234375 165.2989959716797 172.1739959716797 162.51199340820312 161.7469940185547 183.8560028076172" stroke-width="2.0" fill="none" stroke="rgb(255, 0, 0)" stroke-opacity="1" stroke-linecap="round" stroke-linejoin="round"/>
    <path d="M 168.5780029296875 177.58099365234375 C 173.22999572753906 140.9929962158203 185.67300415039062 153.3990020751953 183.2740020751953 138.78399658203125" stroke-width="2.0" fill="none" stroke="rgb(255, 0, 0)" stroke-opacity="1" stroke-linecap="round" stroke-linejoin="round"/>
    <path d="M 173.97999572753906 202.5760040283203 C 172.6009979248047 236.03900146484375 205.197998046875 231.35000610351562 148.1959991455078 234.4010009765625" stroke-width="2.0" fill="none" stroke="rgb(0, 255, 0)" stroke-opacity="1" stroke-linecap="round" stroke-linejoin="round"/>
    <path d="M 113.38500213623047 113.72699737548828 C 123.62999725341797 120.6520004272461 108.88899993896484 117.32499694824219 122.05500030517578 101.21499633789062" stroke-width="2.0" fill="none" stroke="rgb(0, 0, 255)" stroke-opacity="1" stroke-linecap="round" stroke-linejoin="round"/>
    <path d="M 134.9340057373047 136.26600646972656 C 133.0679931640625 144.39500427246094 111.68599700927734 95.54889678955078 137.48399353027344 136.7220001220703" stroke-width="2.0" fill="none" stroke="rgb(255, 0, 0)" stroke-opacity="1" stroke-linecap="round" stroke-linejoin="round"/>
    <path d="M 133.406005859375 88.58390045166016 C 134.99600219726562 93.71309661865234 133.14599609375 83.59249877929688 134.06700134277344 89.32340240478516" stroke-width="2.0" fill="none" stroke="rgb(0, 0, 255)" stroke-opacity="1" stroke-linecap="round" stroke-linejoin="round"/>
    <path d="M 161.27499389648438 177.13900756835938 C 131.5290069580078 155.9320068359375 139.92999267578125 169.77099609375 168.9340057373047 171.82699584960938" stroke-width="2.0" fill="none" stroke="rgb(255, 0, 0)" stroke-opacity="1" stroke-linecap="round" stroke-linejoin="round"/>
    <path d="M 131.427001953125 134.8070068359375 C 132.14500427246094 166.04200744628906 132.2519989013672 143.18299865722656 134.89100646972656 137.35000610351562" stroke-width="2.0" fill="none" stroke="rgb(255, 0, 0)" stroke-opacity="1" stroke-linecap="round" stroke-linejoin="round"/>
    <path d="M 112.87000274658203 159.02000427246094 C 133.77200317382812 176.45899963378906 145.77200317382812 146.08399963378906 129.53500366210938 166.46400451660156" stroke-width="2.0" fill="none" stroke="rgb(255, 0, 0)" stroke-opacity="1" stroke-linecap="round" stroke-linejoin="round"/>
    <path d="M 126.19200134277344 160.72799682617188 C 118.01399993896484 114.07099914550781 121.35800170898438 124.45099639892578 123.3219985961914 137.6580047607422" stroke-width="2.0" fill="none" stroke="rgb(255, 0, 0)" stroke-opacity="1" stroke-linecap="round" stroke-linejoin="round"/>
    <path d="M 120.84500122070312 116.91100311279297 C 120.77799987792969 117.54100036621094 112.21800231933594 107.37200164794922 107.28900146484375 101.44100189208984" stroke-width="2.0" fill="none" stroke="rgb(0, 0, 255)" stroke-opacity="1" stroke-linecap="round" stroke-linejoin="round"/>
    <path d="M 115.41300201416016 114.13999938964844 C 103.72200012207031 102.24299621582031 96.5155029296875 96.47830200195312 131.58599853515625 89.66549682617188" stroke-width="2.0" fill="none" stroke="rgb(0, 0, 255)" stroke-opacity="1" stroke-linecap="round" stroke-linejoin="round"/>
    <path d="M 151.76100158691406 174.8699951171875 C 171.65199279785156 170.43800354003906 159.41299438476562 185.8489990234375 142.62600708007812 160.4239959716797" stroke-width="2.0" fill="none" stroke="rgb(255, 0, 0)" stroke-opacity="1" stroke-linecap="round" stroke-linejoin="round"/>
    <path d="M 118.78800201416016 86.99169921875 C 132.03599548339844 74.03019714355469 136.97999572753906 116.33100128173828 131.9720001220703 118.1709976196289" stroke-width="2.0" fill="none" stroke="rgb(0, 0, 255)" stroke-opacity="1" stroke-linecap="round" stroke-linejoin="round"/>
    <path d="M 132.4459991455078 117.572998046875 C 145.4040069580078 119.8280029296875 150.0679931640625 107.53800201416016 149.90199279785156 99.88670349121094" stroke-width="2.0" fill="none" stroke="rgb(0, 0, 255)" stroke-opacity="1" stroke-linecap="round" stroke-linejoin="round"/>
    <path d="M 117.26300048828125 153.7899932861328 C 116.96499633789062 143.83099365234375 125.12699890136719 141.18699645996094 134.27200317382812 147.8780059814453" stroke-width="2.0" fill="none" stroke="rgb(255, 0, 0)" stroke-opacity="1" stroke-linecap="round" stroke-linejoin="round"/>
    <path d="M 156.73599243164062 192.64300537109375 C 181.91900634765625 203.031005859375 170.9199981689453 177.77699279785156 184.3280029296875 230.02099609375" stroke-width="2.0" fill="none" stroke="rgb(0, 255, 0)" stroke-opacity="1" stroke-linecap="round" stroke-linejoin="round"/>
    <path d="M 124.92500305175781 120.05500030517578 C 103.58100128173828 117.70600128173828 106.21800231933594 105.1259994506836 107.25700378417969 107.18599700927734" stroke-width="2.0" fill="none" stroke="rgb(0, 0, 255)" stroke-opacity="1" stroke-linecap="round" stroke-linejoin="round"/>
    <path d="M 147.0989990234375 200.6490020751953 C 103.87999725341797 207.5260009765625 93.45539855957031 195.5780029296875 102.19200134277344 200.802001953125" stroke-width="2.0" fill="none" stroke="rgb(0, 255, 0)" stroke-opacity="1" stroke-linecap="round" stroke-linejoin="round"/>
    <path d="M 129.11300659179688 118.91600036621094 C 143.3470001220703 119.39199829101562 162.30299377441406 96.9657974243164 136.12100219726562 85.63099670410156" stroke-width="2.0" fill="none" stroke="rgb(0, 0, 255)" stroke-opacity="1" stroke-linecap="round" stroke-linejoin="round"/>
    <path d="M 115.28099822998047 152.6929931640625 C 129.33299255371094 151.4149932861328 143.9080047607422 165.54800415039062 121.96700286865234 150.4739990234375" stroke-width="2.0" fill="none" stroke="rgb(255, 0, 0)" stroke-opacity="1" stroke-linecap="round" stroke-linejoin="round"/>
    <path d="M 117.38300323486328 234.43600463867188 C 82.95570373535156 234.32899475097656 92.23380279541016 228.42300415039062 92.22550201416016 229.6320037841797" stroke-width="2.0" fill="none" stroke="rgb(0, 255, 0)" stroke-opacity="1" stroke-linecap="round" stroke-linejoin="round"/>
    <path d="M 125.58999633789062 182.4949951171875 C 162.95399475097656 204.3350067138672 131.6529998779297 196.36199951171875 110.96099853515625 195.5330047607422" stroke-width="2.0" fill="none" stroke="rgb(0, 255, 0)" stroke-opacity="1" stroke-linecap="round" stroke-linejoin="round"/>
    <path d="M 153.95899963378906 189.70399475097656 C 180.44000244140625 192.70599365234375 165.06700134277344 199.6999969482422 153.01300048828125 194.93600463867188" stroke-width="2.0" fill="none" stroke="rgb(255, 0, 0)" stroke-opacity="1" stroke-linecap="round" stroke-linejoin="round"/>
    <path d="M 136.50399780273438 97.15290069580078 C 129.01800537109375 77.22309875488281 143.89300537109375 80.95709991455078 122.1500015258789 100.62300109863281" stroke-width="2.0" fill="none" stroke="rgb(0, 0, 255)" stroke-opacity="1" stroke-linecap="round" stroke-linejoin="round"/>
    <path d="M 123.0739974975586 131.01699829101562 C 137.48399353027344 138.29200744628906 122.53800201416016 146.7570037841797 124.6259994506836 128.93899536132812" stroke-width="2.0" fill="none" stroke="rgb(255, 0, 0)" stroke-opacity="1" stroke-linecap="round" stroke-linejoin="round"/>
    <path d="M 138.69400024414062 104.08300018310547 C 141.16600036621094 106.87200164794922 138.7220001220703 110.5510025024414 139.02200317382812 113.26100158691406" stroke-width="2.0" fill="none" stroke="rgb(0, 0, 255)" stroke-opacity="1" stroke-linecap="round" stroke-linejoin="round"/>
    <path d="M 185.0 137.98699951171875 C 156.75999450683594 185.7949981689453 167.5749969482422 137.37100219726562 181.83599853515625 138.7830047607422" stroke-width="2.0" fill="none" stroke="rgb(255, 0, 0)" stroke-opacity="1" stroke-linecap="round" stroke-linejoin="round"/>
    <path d="M 108.39199829101562 108.18099975585938 C 125.70999908447266 131.4759979248047 128.56900024414062 118.08300018310547 137.1739959716797 86.23870086669922" stroke-width="2.0" fill="none" stroke="rgb(0, 0, 255)" stroke-opacity="1" stroke-linecap="round" stroke-linejoin="round"/>
  </g>
</svg>
