<svg height="256" version="1.1" width="256" xmlns="http://www.w3.org/2000/svg">
  <defs/>
  <g>
    <path d="M146.743 169.523C146.743 178.05 129.044 183.3 129.044 169.523" fill="none" stroke="rgb(0, 0, 255)" stroke-linecap="round" stroke-linejoin="round" stroke-opacity="1.0" stroke-width="2"/>
    <path d="M123.911 99.9464C126.907 81.8288 143.619 79.8186 149.277 107.723" fill="none" stroke="rgb(0, 0, 255)" stroke-linecap="round" stroke-linejoin="round" stroke-opacity="1.0" stroke-width="2"/>
    <path d="M130.34 175.493C136.451 177.485 117.836 174.703 121.476 135.876" fill="none" stroke="rgb(0, 0, 255)" stroke-linecap="round" stroke-linejoin="round" stroke-opacity="1.0" stroke-width="2"/>
    <path d="M135.195 86.2069C121.476 86.2069 121.476 125.566 121.476 139.222" fill="none" stroke="rgb(0, 0, 255)" stroke-linecap="round" stroke-linejoin="round" stroke-opacity="1.0" stroke-width="2"/>
    <path d="M126.516 90.7912C147.404 64.3666 159.172 134.984 147.213 169.446" fill="none" stroke="rgb(0, 0, 255)" stroke-linecap="round" stroke-linejoin="round" stroke-opacity="1.0" stroke-width="2"/>
    <path d="M184.641 148.761C180.817 149.716 177.816 141.994 187.605 140.97" fill="none" stroke="rgb(255, 0, 0)" stroke-linecap="round" stroke-linejoin="round" stroke-opacity="1.0" stroke-width="2"/>
    <path d="M221.804 158.528C213.075 153.65 216.586 152.482 215.728 150.081" fill="none" stroke="rgb(255, 0, 0)" stroke-linecap="round" stroke-linejoin="round" stroke-opacity="1.0" stroke-width="2"/>
    <path d="M189.887 141.566C182.26 146.408 189.397 149.598 184.605 148.982" fill="none" stroke="rgb(255, 0, 0)" stroke-linecap="round" stroke-linejoin="round" stroke-opacity="1.0" stroke-width="2"/>
    <path d="M210.037 144.416C202.664 143.561 211.75 140.953 220.398 146.768" fill="none" stroke="rgb(255, 0, 0)" stroke-linecap="round" stroke-linejoin="round" stroke-opacity="1.0" stroke-width="2"/>
    <path d="M208.176 142.058C191.814 133.432 187.855 144.317 199.237 140.451" fill="none" stroke="rgb(255, 0, 0)" stroke-linecap="round" stroke-linejoin="round" stroke-opacity="1.0" stroke-width="2"/>
    <path d="M198.387 143.148C215.808 150.005 216.736 157.893 195.873 145.592" fill="none" stroke="rgb(255, 0, 0)" stroke-linecap="round" stroke-linejoin="round" stroke-opacity="1.0" stroke-width="2"/>
    <path d="M205.259 141.372C197.538 137.511 180.094 139.571 192.689 137.63" fill="none" stroke="rgb(255, 0, 0)" stroke-linecap="round" stroke-linejoin="round" stroke-opacity="1.0" stroke-width="2"/>
    <path d="M231.618 170.896C229.44 176.473 220.957 174.516 239.91 177.27" fill="none" stroke="rgb(255, 0, 0)" stroke-linecap="round" stroke-linejoin="round" stroke-opacity="1.0" stroke-width="2"/>
    <path d="M232.666 175.849C240.2 175.851 244.18 181.866 248.698 182.652" fill="none" stroke="rgb(255, 0, 0)" stroke-linecap="round" stroke-linejoin="round" stroke-opacity="1.0" stroke-width="2"/>
    <path d="M179.089 137.146C196.857 142.421 183.94 137.826 181.894 146.949" fill="none" stroke="rgb(255, 0, 0)" stroke-linecap="round" stroke-linejoin="round" stroke-opacity="1.0" stroke-width="2"/>
    <path d="M216.02 154.914C222.688 162.124 228.206 160.315 217.563 154.702" fill="none" stroke="rgb(255, 0, 0)" stroke-linecap="round" stroke-linejoin="round" stroke-opacity="1.0" stroke-width="2"/>
    <path d="M194.991 141.001C215.635 143.939 214.891 144.102 203.148 140.59" fill="none" stroke="rgb(255, 0, 0)" stroke-linecap="round" stroke-linejoin="round" stroke-opacity="1.0" stroke-width="2"/>
    <path d="M193.441 139.949C204.382 143.797 192.373 138.578 210.494 146.561" fill="none" stroke="rgb(255, 0, 0)" stroke-linecap="round" stroke-linejoin="round" stroke-opacity="1.0" stroke-width="2"/>
    <path d="M241.857 178.156C229.806 174.796 239.284 176.666 232.616 172.345" fill="none" stroke="rgb(255, 0, 0)" stroke-linecap="round" stroke-linejoin="round" stroke-opacity="1.0" stroke-width="2"/>
    <path d="M181.722 130.751C177.641 133.608 172.191 126.999 169.607 131.687" fill="none" stroke="rgb(255, 0, 0)" stroke-linecap="round" stroke-linejoin="round" stroke-opacity="1.0" stroke-width="2"/>
    <path d="M200.67 129.807C201.182 129.739 204.503 131.086 199.867 129.242" fill="none" stroke="rgb(255, 0, 0)" stroke-linecap="round" stroke-linejoin="round" stroke-opacity="1.0" stroke-width="2"/>
    <path d="M200.252 129.513C193.197 128.522 196.336 129.307 200.696 129.903" fill="none" stroke="rgb(255, 0, 0)" stroke-linecap="round" stroke-linejoin="round" stroke-opacity="1.0" stroke-width="2"/>
    <path d="M215.107 154.844C222.751 158.538 222.031 156.79 220.532 158.656" fill="none" stroke="rgb(255, 0, 0)" stroke-linecap="round" stroke-linejoin="round" stroke-opacity="1.0" stroke-width="2"/>
    <path d="M237.844 176.696C229.54 170.51 227.755 166.338 218.152 156.957" fill="none" stroke="rgb(255, 0, 0)" stroke-linecap="round" stroke-linejoin="round" stroke-opacity="1.0" stroke-width="2"/>
    <path d="M231.425 170.92C244.703 176.716 242.115 181.524 250 183" fill="none" stroke="rgb(255, 0, 0)" stroke-linecap="round" stroke-linejoin="round" stroke-opacity="1.0" stroke-width="2"/>
    <path d="M212.551 150.475C216.73 155.421 222.232 157.58 224.71 164.007" fill="none" stroke="rgb(255, 0, 0)" stroke-linecap="round" stroke-linejoin="round" stroke-opacity="1.0" stroke-width="2"/>
    <path d="M182.548 148.063C182.794 136.922 185.177 137.364 199.382 146.233" fill="none" stroke="rgb(255, 0, 0)" stroke-linecap="round" stroke-linejoin="round" stroke-opacity="1.0" stroke-width="2"/>
    <path d="M225.551 161.201C217.927 155.45 217.169 147.208 216.293 155.481" fill="none" stroke="rgb(255, 0, 0)" stroke-linecap="round" stroke-linejoin="round" stroke-opacity="1.0" stroke-width="2"/>
    <path d="M175.254 130.411C173.29 129.003 173.545 129.718 179.03 131.005" fill="none" stroke="rgb(255, 0, 0)" stroke-linecap="round" stroke-linejoin="round" stroke-opacity="1.0" stroke-width="2"/>
    <path d="M214.263 153.166C215.205 151.628 221.035 152.908 200.187 146.249" fill="none" stroke="rgb(255, 0, 0)" stroke-linecap="round" stroke-linejoin="round" stroke-opacity="1.0" stroke-width="2"/>
    <path d="M185.075 133.264C189.512 129.573 174.204 134.43 177.084 128.88" fill="none" stroke="rgb(255, 0, 0)" stroke-linecap="round" stroke-linejoin="round" stroke-opacity="1.0" stroke-width="2"/>
    <path d="M232.247 171.733C228.569 179.033 230.219 168.531 227.308 179.799" fill="none" stroke="rgb(255, 0, 0)" stroke-linecap="round" stroke-linejoin="round" stroke-opacity="1.0" stroke-width="2"/>
    <path d="M213.096 143.292C214.692 143.127 210.411 144.334 216.301 144.63" fill="none" stroke="rgb(255, 0, 0)" stroke-linecap="round" stroke-linejoin="round" stroke-opacity="1.0" stroke-width="2"/>
    <path d="M203.761 141.294C197.83 140.138 193.782 139.676 200.299 139.837" fill="none" stroke="rgb(255, 0, 0)" stroke-linecap="round" stroke-linejoin="round" stroke-opacity="1.0" stroke-width="2"/>
    <path d="M211.689 134.056C205.127 130.961 219.652 129.733 205.483 131.909" fill="none" stroke="rgb(255, 0, 0)" stroke-linecap="round" stroke-linejoin="round" stroke-opacity="1.0" stroke-width="2"/>
    <path d="M217.848 154.648C225.637 159.393 220.17 160.278 214.384 155.062" fill="none" stroke="rgb(255, 0, 0)" stroke-linecap="round" stroke-linejoin="round" stroke-opacity="1.0" stroke-width="2"/>
    <path d="M212.827 143.515C212.507 142.389 212.341 145.366 210.307 142.546" fill="none" stroke="rgb(255, 0, 0)" stroke-linecap="round" stroke-linejoin="round" stroke-opacity="1.0" stroke-width="2"/>
    <path d="M206.043 148.682C195.621 140.79 195.559 143.623 188.571 137.368" fill="none" stroke="rgb(255, 0, 0)" stroke-linecap="round" stroke-linejoin="round" stroke-opacity="1.0" stroke-width="2"/>
    <path d="M171.335 129.885C173.564 126.565 185.072 125.051 174.561 128.77" fill="none" stroke="rgb(255, 0, 0)" stroke-linecap="round" stroke-linejoin="round" stroke-opacity="1.0" stroke-width="2"/>
    <path d="M222.109 151.53C227.988 152.425 219.622 149.776 223.576 157.54" fill="none" stroke="rgb(255, 0, 0)" stroke-linecap="round" stroke-linejoin="round" stroke-opacity="1.0" stroke-width="2"/>
    <path d="M205.717 142.967C212.089 146.236 215.255 143.837 209.397 143.417" fill="none" stroke="rgb(255, 0, 0)" stroke-linecap="round" stroke-linejoin="round" stroke-opacity="1.0" stroke-width="2"/>
    <path d="M208.948 151.284C194.672 142.401 182.414 132.918 203.799 140.285" fill="none" stroke="rgb(255, 0, 0)" stroke-linecap="round" stroke-linejoin="round" stroke-opacity="1.0" stroke-width="2"/>
    <path d="M227.51 177.076C235.382 175.09 232.106 177.427 226.501 179.42" fill="none" stroke="rgb(255, 0, 0)" stroke-linecap="round" stroke-linejoin="round" stroke-opacity="1.0" stroke-width="2"/>
    <path d="M206.072 148.068C218.322 155.242 213.186 153.441 218.676 155.428" fill="none" stroke="rgb(255, 0, 0)" stroke-linecap="round" stroke-linejoin="round" stroke-opacity="1.0" stroke-width="2"/>
    <path d="M218.097 141.103C212.541 133.348 207.723 130.156 209.03 132.277" fill="none" stroke="rgb(255, 0, 0)" stroke-linecap="round" stroke-linejoin="round" stroke-opacity="1.0" stroke-width="2"/>
    <path d="M201.762 141.018C198.953 143.025 192.673 138.545 210.067 143.191" fill="none" stroke="rgb(255, 0, 0)" stroke-linecap="round" stroke-linejoin="round" stroke-opacity="1.0" stroke-width="2"/>
    <path d="M220.944 155.14C206.352 147.663 203.474 144.046 206.894 149.502" fill="none" stroke="rgb(255, 0, 0)" stroke-linecap="round" stroke-linejoin="round" stroke-opacity="1.0" stroke-width="2"/>
    <path d="M180.236 129.478C170.917 128.403 164.295 132.148 179.456 133.732" fill="none" stroke="rgb(255, 0, 0)" stroke-linecap="round" stroke-linejoin="round" stroke-opacity="1.0" stroke-width="2"/>
    <path d="M220.89 143.805C228.029 152.391 219.511 146.935 222.217 151.565" fill="none" stroke="rgb(255, 0, 0)" stroke-linecap="round" stroke-linejoin="round" stroke-opacity="1.0" stroke-width="2"/>
    <path d="M215.423 154.401C204.858 146.853 199.797 145.773 217.491 156.587" fill="none" stroke="rgb(255, 0, 0)" stroke-linecap="round" stroke-linejoin="round" stroke-opacity="1.0" stroke-width="2"/>
    <path d="M196.944 128.141C206.395 130.94 210.08 134.446 199.448 129.798" fill="none" stroke="rgb(255, 0, 0)" stroke-linecap="round" stroke-linejoin="round" stroke-opacity="1.0" stroke-width="2"/>
    <path d="M180.4 129.126C166.027 131.463 178.213 121.918 197.393 128.146" fill="none" stroke="rgb(255, 0, 0)" stroke-linecap="round" stroke-linejoin="round" stroke-opacity="1.0" stroke-width="2"/>
    <path d="M193.132 138.386C201.942 138.229 189.362 140.724 193.403 137.988" fill="none" stroke="rgb(255, 0, 0)" stroke-linecap="round" stroke-linejoin="round" stroke-opacity="1.0" stroke-width="2"/>
    <path d="M198.93 138.443C200.5 138.855 194.961 138.325 199.825 140.922" fill="none" stroke="rgb(255, 0, 0)" stroke-linecap="round" stroke-linejoin="round" stroke-opacity="1.0" stroke-width="2"/>
    <path d="M216.555 139.529C223.203 144.494 223.268 149.118 222.777 151.098" fill="none" stroke="rgb(255, 0, 0)" stroke-linecap="round" stroke-linejoin="round" stroke-opacity="1.0" stroke-width="2"/>
    <path d="M193.465 139.632C199.049 138.218 191.485 144.939 196.09 138.244" fill="none" stroke="rgb(255, 0, 0)" stroke-linecap="round" stroke-linejoin="round" stroke-opacity="1.0" stroke-width="2"/>
    <path d="M227.298 179.127C233.367 174.34 231.437 171.09 225.046 180.938" fill="none" stroke="rgb(255, 0, 0)" stroke-linecap="round" stroke-linejoin="round" stroke-opacity="1.0" stroke-width="2"/>
    <path d="M211.47 130.961C217.958 128.973 222.915 133.857 221.162 132.295" fill="none" stroke="rgb(255, 0, 0)" stroke-linecap="round" stroke-linejoin="round" stroke-opacity="1.0" stroke-width="2"/>
    <path d="M221.782 132.685C219.463 132.754 213.864 134.239 215.372 139.005" fill="none" stroke="rgb(255, 0, 0)" stroke-linecap="round" stroke-linejoin="round" stroke-opacity="1.0" stroke-width="2"/>
    <path d="M189.085 132.413C175.14 130.171 181.461 126.407 178.746 130.269" fill="none" stroke="rgb(255, 0, 0)" stroke-linecap="round" stroke-linejoin="round" stroke-opacity="1.0" stroke-width="2"/>
    <path d="M222.919 152.81C219.792 151.256 226.818 150.241 221.19 150.507" fill="none" stroke="rgb(255, 0, 0)" stroke-linecap="round" stroke-linejoin="round" stroke-opacity="1.0" stroke-width="2"/>
    <path d="M207.209 132.128C211.799 134.95 216.505 138.873 209.878 132.93" fill="none" stroke="rgb(255, 0, 0)" stroke-linecap="round" stroke-linejoin="round" stroke-opacity="1.0" stroke-width="2"/>
    <path d="M196.096 145.874C181.269 138.599 176.74 134.715 202.764 148.128" fill="none" stroke="rgb(255, 0, 0)" stroke-linecap="round" stroke-linejoin="round" stroke-opacity="1.0" stroke-width="2"/>
    <path d="M201.175 140.01C196.754 139.454 192.38 140.594 203.811 144.813" fill="none" stroke="rgb(255, 0, 0)" stroke-linecap="round" stroke-linejoin="round" stroke-opacity="1.0" stroke-width="2"/>
    <path d="M192.566 127.873C202.822 129.947 202.08 131.472 199.69 130.056" fill="none" stroke="rgb(255, 0, 0)" stroke-linecap="round" stroke-linejoin="round" stroke-opacity="1.0" stroke-width="2"/>
    <path d="M170.071 131.546C158.203 131.655 168.836 131.702 184.762 132.571" fill="none" stroke="rgb(255, 0, 0)" stroke-linecap="round" stroke-linejoin="round" stroke-opacity="1.0" stroke-width="2"/>
    <path d="M224.656 154.188C223.377 145.878 223.354 147.94 222.159 150.526" fill="none" stroke="rgb(255, 0, 0)" stroke-linecap="round" stroke-linejoin="round" stroke-opacity="1.0" stroke-width="2"/>
    <path d="M215.294 138.674C206.225 131.577 200.187 130.477 210.343 133.012" fill="none" stroke="rgb(255, 0, 0)" stroke-linecap="round" stroke-linejoin="round" stroke-opacity="1.0" stroke-width="2"/>
    <path d="M193.428 129.448C192.642 129.034 193.437 127.745 187.817 126.638" fill="none" stroke="rgb(255, 0, 0)" stroke-linecap="round" stroke-linejoin="round" stroke-opacity="1.0" stroke-width="2"/>
    <path d="M182.98 136.982C175.024 135.531 163.729 136.622 165.317 132.961" fill="none" stroke="rgb(255, 0, 0)" stroke-linecap="round" stroke-linejoin="round" stroke-opacity="1.0" stroke-width="2"/>
    <path d="M227.091 165.637C223.111 158.502 218.877 160.526 222.158 156.007" fill="none" stroke="rgb(255, 0, 0)" stroke-linecap="round" stroke-linejoin="round" stroke-opacity="1.0" stroke-width="2"/>
    <path d="M170.726 131.287C190.473 135.548 177.861 131.477 183.408 130.094" fill="none" stroke="rgb(255, 0, 0)" stroke-linecap="round" stroke-linejoin="round" stroke-opacity="1.0" stroke-width="2"/>
    <path d="M227.739 155.403C232.611 167.098 230.496 161.747 233.131 175.419" fill="none" stroke="rgb(255, 0, 0)" stroke-linecap="round" stroke-linejoin="round" stroke-opacity="1.0" stroke-width="2"/>
    <path d="M200.375 129.566C199.531 130.188 197.505 127.314 206.977 132.971" fill="none" stroke="rgb(255, 0, 0)" stroke-linecap="round" stroke-linejoin="round" stroke-opacity="1.0" stroke-width="2"/>
    <path d="M232.47 175.415C233.928 172.858 227.893 170.352 225.208 180.341" fill="none" stroke="rgb(255, 0, 0)" stroke-linecap="round" stroke-linejoin="round" stroke-opacity="1.0" stroke-width="2"/>
    <path d="M183.887 148.456C181.788 139.005 186.809 134.637 181.22 145.458" fill="none" stroke="rgb(255, 0, 0)" stroke-linecap="round" stroke-linejoin="round" stroke-opacity="1.0" stroke-width="2"/>
    <path d="M235.006 173.747C221.059 181.999 228.951 178.955 236.375 174.074" fill="none" stroke="rgb(255, 0, 0)" stroke-linecap="round" stroke-linejoin="round" stroke-opacity="1.0" stroke-width="2"/>
    <path d="M205.866 143.175C211.59 145.605 216.401 145.442 200.97 141.669" fill="none" stroke="rgb(255, 0, 0)" stroke-linecap="round" stroke-linejoin="round" stroke-opacity="1.0" stroke-width="2"/>
    <path d="M223.518 147.79C229.575 156.162 229.388 161.196 228.51 156.789" fill="none" stroke="rgb(255, 0, 0)" stroke-linecap="round" stroke-linejoin="round" stroke-opacity="1.0" stroke-width="2"/>
    <path d="M176.493 129.826C179.819 126.077 183.424 132.455 171.556 130.389" fill="none" stroke="rgb(255, 0, 0)" stroke-linecap="round" stroke-linejoin="round" stroke-opacity="1.0" stroke-width="2"/>
    <path d="M188.236 130.921C179.361 135.819 184.662 128.57 181.996 132.689" fill="none" stroke="rgb(255, 0, 0)" stroke-linecap="round" stroke-linejoin="round" stroke-opacity="1.0" stroke-width="2"/>
    <path d="M185.027 132.8C177.879 128.296 172.759 129.54 180.012 128.896" fill="none" stroke="rgb(255, 0, 0)" stroke-linecap="round" stroke-linejoin="round" stroke-opacity="1.0" stroke-width="2"/>
    <path d="M194.093 138.797C178.641 135.987 173.108 136.567 178.854 135.878" fill="none" stroke="rgb(255, 0, 0)" stroke-linecap="round" stroke-linejoin="round" stroke-opacity="1.0" stroke-width="2"/>
    <path d="M181.624 131.834C178.584 138.63 193.477 133.629 165.76 134.341" fill="none" stroke="rgb(255, 0, 0)" stroke-linecap="round" stroke-linejoin="round" stroke-opacity="1.0" stroke-width="2"/>
    <path d="M94.6095 210.846C85.5266 211.567 79.2717 210.44 92.7268 210.862" fill="none" stroke="rgb(0, 255, 0)" stroke-linecap="round" stroke-linejoin="round" stroke-opacity="1.0" stroke-width="2"/>
    <path d="M65.44 204.975C70.3505 205.246 77.176 208.49 85.3652 209.157" fill="none" stroke="rgb(0, 255, 0)" stroke-linecap="round" stroke-linejoin="round" stroke-opacity="1.0" stroke-width="2"/>
    <path d="M107.398 210.52C129.919 213.517 112.592 210.049 96.7104 210.536" fill="none" stroke="rgb(0, 255, 0)" stroke-linecap="round" stroke-linejoin="round" stroke-opacity="1.0" stroke-width="2"/>
    <path d="M210.572 202.193C226.739 195.915 207.292 205.615 222.578 200.789" fill="none" stroke="rgb(0, 255, 0)" stroke-linecap="round" stroke-linejoin="round" stroke-opacity="1.0" stroke-width="2"/>
    <path d="M121.493 211.457C167.27 205.9 132.081 217.53 231.646 205.13" fill="none" stroke="rgb(0, 255, 0)" stroke-linecap="round" stroke-linejoin="round" stroke-opacity="1.0" stroke-width="2"/>
    <path d="M237.114 207.647C243.467 208.502 264.171 200.061 206.329 205.267" fill="none" stroke="rgb(0, 255, 0)" stroke-linecap="round" stroke-linejoin="round" stroke-opacity="1.0" stroke-width="2"/>
    <path d="M164.882 208.399C236.101 197.959 269.045 207.113 238.738 208.106" fill="none" stroke="rgb(0, 255, 0)" stroke-linecap="round" stroke-linejoin="round" stroke-opacity="1.0" stroke-width="2"/>
    <path d="M85.1123 214.221C39.5467 208.635 71.306 214.187 102.107 215" fill="none" stroke="rgb(0, 255, 0)" stroke-linecap="round" stroke-linejoin="round" stroke-opacity="1.0" stroke-width="2"/>
    <path d="M158.314 213.672C106.762 216.499 113.295 207.278 91.5149 209.184" fill="none" stroke="rgb(0, 255, 0)" stroke-linecap="round" stroke-linejoin="round" stroke-opacity="1.0" stroke-width="2"/>
    <path d="M51.4755 205.131C28.3398 210.235 48.9704 202.135 78.0093 207.711" fill="none" stroke="rgb(0, 255, 0)" stroke-linecap="round" stroke-linejoin="round" stroke-opacity="1.0" stroke-width="2"/>
    <path d="M25 203.662C30.5434 210.06 49.2631 202.824 55.3189 205.557" fill="none" stroke="rgb(0, 255, 0)" stroke-linecap="round" stroke-linejoin="round" stroke-opacity="1.0" stroke-width="2"/>
    <path d="M200.428 205.03C213.784 203.59 203.402 204.941 227.018 200.642" fill="none" stroke="rgb(0, 255, 0)" stroke-linecap="round" stroke-linejoin="round" stroke-opacity="1.0" stroke-width="2"/>
    <path d="M117.527 209.841C148.627 201.246 155.009 213.403 195.236 200.745" fill="none" stroke="rgb(0, 255, 0)" stroke-linecap="round" stroke-linejoin="round" stroke-opacity="1.0" stroke-width="2"/>
  </g>
</svg>
