<?xml version="1.0" ?>
<svg xmlns="http://www.w3.org/2000/svg" version="1.1" width="256" height="256">
  <defs/>
  <g>
    <path d="M 106.51399993896484 194.95399475097656 C 145.10800170898438 159.11300659179688 148.3179931640625 174.75900268554688 106.5260009765625 184.33099365234375" stroke-width="3.0" fill="none" stroke="rgb(0, 0, 0)" stroke-opacity="1" stroke-linecap="round" stroke-linejoin="round"/>
    <path d="M 108.41699981689453 226.6580047607422 C 126.35199737548828 258.01800537109375 175.09500122070312 217.55299377441406 114.47899627685547 227.58900451660156" stroke-width="3.0" fill="none" stroke="rgb(0, 0, 0)" stroke-opacity="1" stroke-linecap="round" stroke-linejoin="round"/>
    <path d="M 155.60699462890625 187.3520050048828 C 103.68199920654297 189.26800537109375 96.75379943847656 170.41600036621094 137.4510040283203 159.677001953125" stroke-width="3.0" fill="none" stroke="rgb(0, 0, 0)" stroke-opacity="1" stroke-linecap="round" stroke-linejoin="round"/>
    <path d="M 142.76600646972656 158.1199951171875 C 124.64199829101562 190.26699829101562 159.38099670410156 149.78500366210938 142.5970001220703 163.0229949951172" stroke-width="3.0" fill="none" stroke="rgb(0, 0, 0)" stroke-opacity="1" stroke-linecap="round" stroke-linejoin="round"/>
    <path d="M 154.7469940185547 214.56399536132812 C 160.04100036621094 133.4499969482422 165.99000549316406 141.16200256347656 146.0019989013672 173.49099731445312" stroke-width="3.0" fill="none" stroke="rgb(0, 0, 0)" stroke-opacity="1" stroke-linecap="round" stroke-linejoin="round"/>
    <path d="M 140.21400451660156 194.2779998779297 C 93.84300231933594 205.2030029296875 143.74000549316406 166.7689971923828 113.14099884033203 177.125" stroke-width="3.0" fill="none" stroke="rgb(0, 0, 0)" stroke-opacity="1" stroke-linecap="round" stroke-linejoin="round"/>
    <path d="M 149.88800048828125 137.33299255371094 C 125.3740005493164 178.91299438476562 113.08999633789062 161.50799560546875 154.46800231933594 167.8679962158203" stroke-width="3.0" fill="none" stroke="rgb(0, 0, 0)" stroke-opacity="1" stroke-linecap="round" stroke-linejoin="round"/>
    <path d="M 109.75800323486328 237.78900146484375 C 158.3520050048828 241.94500732421875 166.68800354003906 234.11300659179688 110.50900268554688 237.26699829101562" stroke-width="3.0" fill="none" stroke="rgb(0, 0, 0)" stroke-opacity="1" stroke-linecap="round" stroke-linejoin="round"/>
    <path d="M 123.70999908447266 189.53500366210938 C 93.22949981689453 145.67999267578125 86.45890045166016 106.3010025024414 137.33799743652344 135.67999267578125" stroke-width="3.0" fill="none" stroke="rgb(0, 0, 0)" stroke-opacity="1" stroke-linecap="round" stroke-linejoin="round"/>
    <path d="M 120.0979995727539 203.73199462890625 C 170.99600219726562 213.66700744628906 132.96099853515625 235.39300537109375 135.5229949951172 175.7790069580078" stroke-width="3.0" fill="none" stroke="rgb(0, 0, 0)" stroke-opacity="1" stroke-linecap="round" stroke-linejoin="round"/>
    <path d="M 148.2220001220703 168.90699768066406 C 144.7480010986328 186.04600524902344 85.13330078125 146.8800048828125 115.41300201416016 190.90899658203125" stroke-width="3.0" fill="none" stroke="rgb(0, 0, 0)" stroke-opacity="1" stroke-linecap="round" stroke-linejoin="round"/>
    <path d="M 104.48999786376953 135.7220001220703 C 115.802001953125 149.77200317382812 146.8990020751953 196.83200073242188 141.65199279785156 215.625" stroke-width="3.0" fill="none" stroke="rgb(0, 0, 0)" stroke-opacity="1" stroke-linecap="round" stroke-linejoin="round"/>
    <path d="M 66.43450164794922 109.1500015258789 C 56.88349914550781 104.30799865722656 86.8115005493164 100.40699768066406 105.10800170898438 145.91000366210938" stroke-width="3.0" fill="none" stroke="rgb(0, 0, 0)" stroke-opacity="1" stroke-linecap="round" stroke-linejoin="round"/>
    <path d="M 118.83899688720703 223.8489990234375 C 122.26000213623047 161.2030029296875 146.13400268554688 196.18600463867188 116.0270004272461 217.25799560546875" stroke-width="3.0" fill="none" stroke="rgb(0, 0, 0)" stroke-opacity="1" stroke-linecap="round" stroke-linejoin="round"/>
    <path d="M 120.33300018310547 240.75799560546875 C 115.61599731445312 189.43600463867188 101.76599884033203 153.5749969482422 109.90499877929688 218.34800720214844" stroke-width="3.0" fill="none" stroke="rgb(0, 0, 0)" stroke-opacity="1" stroke-linecap="round" stroke-linejoin="round"/>
    <path d="M 144.2469940185547 238.4949951171875 C 131.23500061035156 216.86300659179688 128.23199462890625 220.14500427246094 121.2300033569336 202.31399536132812" stroke-width="3.0" fill="none" stroke="rgb(0, 0, 0)" stroke-opacity="1" stroke-linecap="round" stroke-linejoin="round"/>
    <path d="M 146.31199645996094 202.0399932861328 C 74.606201171875 159.79400634765625 96.89520263671875 128.16600036621094 110.02100372314453 242.65199279785156" stroke-width="3.0" fill="none" stroke="rgb(0, 0, 0)" stroke-opacity="1" stroke-linecap="round" stroke-linejoin="round"/>
    <path d="M 127.52999877929688 159.8090057373047 C 169.1060028076172 195.9759979248047 109.85099792480469 206.78199768066406 150.9250030517578 199.65899658203125" stroke-width="3.0" fill="none" stroke="rgb(0, 0, 0)" stroke-opacity="1" stroke-linecap="round" stroke-linejoin="round"/>
    <path d="M 148.61900329589844 238.59800720214844 C 135.56900024414062 152.23500061035156 143.8300018310547 182.48399353027344 120.35399627685547 230.2239990234375" stroke-width="3.0" fill="none" stroke="rgb(0, 0, 0)" stroke-opacity="1" stroke-linecap="round" stroke-linejoin="round"/>
    <path d="M 114.89299774169922 125.62999725341797 C 118.14900207519531 109.08300018310547 134.46200561523438 149.5540008544922 129.06900024414062 128.02000427246094" stroke-width="3.0" fill="none" stroke="rgb(0, 0, 0)" stroke-opacity="1" stroke-linecap="round" stroke-linejoin="round"/>
    <path d="M 150.6580047607422 152.2310028076172 C 131.33900451660156 177.5399932861328 149.63900756835938 189.50599670410156 138.97500610351562 194.7169952392578" stroke-width="3.0" fill="none" stroke="rgb(0, 0, 0)" stroke-opacity="1" stroke-linecap="round" stroke-linejoin="round"/>
    <path d="M 75.05349731445312 106.25299835205078 C 128.02999877929688 149.22900390625 119.31099700927734 119.66699981689453 83.1365966796875 123.55500030517578" stroke-width="3.0" fill="none" stroke="rgb(0, 0, 0)" stroke-opacity="1" stroke-linecap="round" stroke-linejoin="round"/>
    <path d="M 125.13899993896484 214.94900512695312 C 161.7469940185547 193.5489959716797 130.04200744628906 229.06300354003906 117.6989974975586 199.28399658203125" stroke-width="3.0" fill="none" stroke="rgb(0, 0, 0)" stroke-opacity="1" stroke-linecap="round" stroke-linejoin="round"/>
    <path d="M 133.4770050048828 235.73300170898438 C 166.17100524902344 129.88800048828125 172.78399658203125 134.45700073242188 115.33000183105469 146.8730010986328" stroke-width="3.0" fill="none" stroke="rgb(0, 0, 0)" stroke-opacity="1" stroke-linecap="round" stroke-linejoin="round"/>
    <path d="M 97.54029846191406 131.10800170898438 C 104.86100006103516 143.2429962158203 103.69000244140625 179.6320037841797 146.40699768066406 213.81399536132812" stroke-width="3.0" fill="none" stroke="rgb(0, 0, 0)" stroke-opacity="1" stroke-linecap="round" stroke-linejoin="round"/>
    <path d="M 128.531005859375 157.10400390625 C 141.22000122070312 127.96199798583984 174.43299865722656 145.2989959716797 123.88099670410156 128.74400329589844" stroke-width="3.0" fill="none" stroke="rgb(0, 0, 0)" stroke-opacity="1" stroke-linecap="round" stroke-linejoin="round"/>
    <path d="M 142.27699279785156 223.18600463867188 C 105.54100036621094 232.21299743652344 99.81700134277344 226.52099609375 106.48600006103516 171.03599548339844" stroke-width="3.0" fill="none" stroke="rgb(0, 0, 0)" stroke-opacity="1" stroke-linecap="round" stroke-linejoin="round"/>
    <path d="M 115.3550033569336 166.1020050048828 C 92.80229949951172 185.53399658203125 132.2519989013672 198.64599609375 115.21099853515625 189.156005859375" stroke-width="3.0" fill="none" stroke="rgb(0, 0, 0)" stroke-opacity="1" stroke-linecap="round" stroke-linejoin="round"/>
    <path d="M 130.197998046875 175.76300048828125 C 102.48999786376953 153.03199768066406 136.7030029296875 177.0500030517578 128.96600341796875 154.6750030517578" stroke-width="3.0" fill="none" stroke="rgb(0, 0, 0)" stroke-opacity="1" stroke-linecap="round" stroke-linejoin="round"/>
    <path d="M 52.20539855957031 88.18060302734375 C 60.067100524902344 111.64199829101562 73.49749755859375 95.72599792480469 50.0 91.00679779052734" stroke-width="3.0" fill="none" stroke="rgb(0, 0, 0)" stroke-opacity="1" stroke-linecap="round" stroke-linejoin="round"/>
    <path d="M 129.16200256347656 177.71499633789062 C 132.3939971923828 194.85000610351562 129.0449981689453 209.01699829101562 151.92799377441406 186.0590057373047" stroke-width="3.0" fill="none" stroke="rgb(0, 0, 0)" stroke-opacity="1" stroke-linecap="round" stroke-linejoin="round"/>
    <path d="M 107.14199829101562 182.26699829101562 C 155.5749969482422 189.61900329589844 157.31399536132812 194.3300018310547 131.80299377441406 140.79800415039062" stroke-width="3.0" fill="none" stroke="rgb(0, 0, 0)" stroke-opacity="1" stroke-linecap="round" stroke-linejoin="round"/>
    <path d="M 114.33499908447266 163.8070068359375 C 142.83799743652344 262.0610046386719 116.82499694824219 226.5030059814453 110.86499786376953 172.3939971923828" stroke-width="3.0" fill="none" stroke="rgb(0, 0, 0)" stroke-opacity="1" stroke-linecap="round" stroke-linejoin="round"/>
    <path d="M 108.99800109863281 223.18099975585938 C 107.27400207519531 234.39700317382812 107.44100189208984 263.1499938964844 111.7959976196289 224.39700317382812" stroke-width="3.0" fill="none" stroke="rgb(0, 0, 0)" stroke-opacity="1" stroke-linecap="round" stroke-linejoin="round"/>
    <path d="M 140.68499755859375 128.4040069580078 C 135.23500061035156 175.88400268554688 151.20399475097656 173.33299255371094 144.87899780273438 219.65199279785156" stroke-width="3.0" fill="none" stroke="rgb(0, 0, 0)" stroke-opacity="1" stroke-linecap="round" stroke-linejoin="round"/>
    <path d="M 113.97599792480469 172.33299255371094 C 69.3832015991211 148.88299560546875 116.82599639892578 146.36900329589844 126.22200012207031 144.427001953125" stroke-width="3.0" fill="none" stroke="rgb(0, 0, 0)" stroke-opacity="1" stroke-linecap="round" stroke-linejoin="round"/>
    <path d="M 126.79199981689453 151.23300170898438 C 174.09800720214844 177.70799255371094 176.1529998779297 132.75599670410156 125.55699920654297 159.83799743652344" stroke-width="3.0" fill="none" stroke="rgb(0, 0, 0)" stroke-opacity="1" stroke-linecap="round" stroke-linejoin="round"/>
    <path d="M 132.21099853515625 207.05599975585938 C 99.16449737548828 177.20700073242188 132.8350067138672 177.90499877929688 115.95700073242188 233.3209991455078" stroke-width="3.0" fill="none" stroke="rgb(0, 0, 0)" stroke-opacity="1" stroke-linecap="round" stroke-linejoin="round"/>
    <path d="M 159.0189971923828 129.8800048828125 C 133.20799255371094 217.31199645996094 136.98500061035156 217.07899475097656 154.61900329589844 157.12100219726562" stroke-width="3.0" fill="none" stroke="rgb(0, 0, 0)" stroke-opacity="1" stroke-linecap="round" stroke-linejoin="round"/>
    <path d="M 143.3800048828125 188.9550018310547 C 150.91400146484375 146.8280029296875 174.9409942626953 126.06400299072266 139.30299377441406 234.67799377441406" stroke-width="3.0" fill="none" stroke="rgb(0, 0, 0)" stroke-opacity="1" stroke-linecap="round" stroke-linejoin="round"/>
    <path d="M 101.08399963378906 150.54100036621094 C 126.53199768066406 163.1649932861328 126.83599853515625 157.89999389648438 91.9280014038086 111.69999694824219" stroke-width="3.0" fill="none" stroke="rgb(0, 0, 0)" stroke-opacity="1" stroke-linecap="round" stroke-linejoin="round"/>
    <path d="M 188.79800415039062 107.52799987792969 C 170.64999389648438 133.0050048828125 156.3419952392578 114.79900360107422 160.28599548339844 159.99000549316406" stroke-width="3.0" fill="none" stroke="rgb(0, 0, 0)" stroke-opacity="1" stroke-linecap="round" stroke-linejoin="round"/>
    <path d="M 105.05400085449219 167.0760040283203 C 163.4459991455078 169.69500732421875 184.28700256347656 136.27999877929688 125.5 153.53799438476562" stroke-width="3.0" fill="none" stroke="rgb(0, 0, 0)" stroke-opacity="1" stroke-linecap="round" stroke-linejoin="round"/>
    <path d="M 156.62399291992188 163.22000122070312 C 103.25499725341797 150.22500610351562 120.23200225830078 127.34500122070312 158.9669952392578 151.39500427246094" stroke-width="3.0" fill="none" stroke="rgb(0, 0, 0)" stroke-opacity="1" stroke-linecap="round" stroke-linejoin="round"/>
    <path d="M 144.2259979248047 157.5469970703125 C 149.23399353027344 201.2449951171875 171.1020050048828 168.30499267578125 133.74600219726562 134.97799682617188" stroke-width="3.0" fill="none" stroke="rgb(0, 0, 0)" stroke-opacity="1" stroke-linecap="round" stroke-linejoin="round"/>
    <path d="M 151.6009979248047 167.5330047607422 C 114.98200225830078 209.08299255371094 129.322998046875 208.25799560546875 137.15899658203125 159.7480010986328" stroke-width="3.0" fill="none" stroke="rgb(0, 0, 0)" stroke-opacity="1" stroke-linecap="round" stroke-linejoin="round"/>
    <path d="M 146.8699951171875 136.05099487304688 C 151.68600463867188 118.20500183105469 147.21200561523438 132.23399353027344 120.54900360107422 126.6969985961914" stroke-width="3.0" fill="none" stroke="rgb(0, 0, 0)" stroke-opacity="1" stroke-linecap="round" stroke-linejoin="round"/>
    <path d="M 109.71900177001953 177.2220001220703 C 96.45950317382812 200.1840057373047 136.39700317382812 194.77699279785156 153.44000244140625 181.8509979248047" stroke-width="3.0" fill="none" stroke="rgb(0, 0, 0)" stroke-opacity="1" stroke-linecap="round" stroke-linejoin="round"/>
    <path d="M 103.44599914550781 185.54400634765625 C 164.8470001220703 160.031005859375 140.72300720214844 145.91900634765625 134.63699340820312 150.45599365234375" stroke-width="3.0" fill="none" stroke="rgb(0, 0, 0)" stroke-opacity="1" stroke-linecap="round" stroke-linejoin="round"/>
    <path d="M 107.7229995727539 141.75900268554688 C 154.64300537109375 153.25399780273438 132.53199768066406 159.65899658203125 159.71200561523438 147.4949951171875" stroke-width="3.0" fill="none" stroke="rgb(0, 0, 0)" stroke-opacity="1" stroke-linecap="round" stroke-linejoin="round"/>
    <path d="M 151.2729949951172 155.47799682617188 C 83.33280181884766 143.0330047607422 90.96880340576172 141.8090057373047 144.41200256347656 158.92599487304688" stroke-width="3.0" fill="none" stroke="rgb(0, 0, 0)" stroke-opacity="1" stroke-linecap="round" stroke-linejoin="round"/>
    <path d="M 109.25299835205078 147.92799377441406 C 71.80989837646484 87.0730972290039 83.65010070800781 114.12000274658203 119.35399627685547 142.23899841308594" stroke-width="3.0" fill="none" stroke="rgb(0, 0, 0)" stroke-opacity="1" stroke-linecap="round" stroke-linejoin="round"/>
    <path d="M 132.9250030517578 144.45700073242188 C 193.92300415039062 110.25800323486328 149.67799377441406 126.48300170898438 194.5019989013672 108.8740005493164" stroke-width="3.0" fill="none" stroke="rgb(0, 0, 0)" stroke-opacity="1" stroke-linecap="round" stroke-linejoin="round"/>
    <path d="M 146.93800354003906 166.37899780273438 C 111.76300048828125 209.60299682617188 134.35800170898438 215.8000030517578 131.36399841308594 236.572998046875" stroke-width="3.0" fill="none" stroke="rgb(0, 0, 0)" stroke-opacity="1" stroke-linecap="round" stroke-linejoin="round"/>
    <path d="M 121.13700103759766 125.83000183105469 C 90.91259765625 148.28599548339844 102.33799743652344 126.91100311279297 140.22000122070312 130.57200622558594" stroke-width="3.0" fill="none" stroke="rgb(0, 0, 0)" stroke-opacity="1" stroke-linecap="round" stroke-linejoin="round"/>
    <path d="M 99.18579864501953 155.13099670410156 C 111.54100036621094 175.02699279785156 89.86499786376953 137.03199768066406 102.81999969482422 156.81900024414062" stroke-width="3.0" fill="none" stroke="rgb(0, 0, 0)" stroke-opacity="1" stroke-linecap="round" stroke-linejoin="round"/>
    <path d="M 140.9810028076172 193.08099365234375 C 115.60700225830078 203.02000427246094 112.53299713134766 193.5659942626953 127.09300231933594 188.83399963378906" stroke-width="3.0" fill="none" stroke="rgb(0, 0, 0)" stroke-opacity="1" stroke-linecap="round" stroke-linejoin="round"/>
    <path d="M 82.43830108642578 105.96099853515625 C 52.06159973144531 97.9563980102539 37.885101318359375 76.91580200195312 91.39350128173828 124.10399627685547" stroke-width="3.0" fill="none" stroke="rgb(0, 0, 0)" stroke-opacity="1" stroke-linecap="round" stroke-linejoin="round"/>
    <path d="M 129.86000061035156 231.24000549316406 C 143.72300720214844 217.35299682617188 147.4409942626953 202.4239959716797 142.18600463867188 236.8560028076172" stroke-width="3.0" fill="none" stroke="rgb(0, 0, 0)" stroke-opacity="1" stroke-linecap="round" stroke-linejoin="round"/>
    <path d="M 209.0 94.24210357666016 C 178.38800048828125 100.6729965209961 214.47999572753906 93.79340362548828 170.90699768066406 111.33100128173828" stroke-width="3.0" fill="none" stroke="rgb(0, 0, 0)" stroke-opacity="1" stroke-linecap="round" stroke-linejoin="round"/>
    <path d="M 135.2480010986328 158.48899841308594 C 135.08700561523438 190.9010009765625 153.07200622558594 195.69700622558594 153.91299438476562 157.63400268554688" stroke-width="3.0" fill="none" stroke="rgb(0, 0, 0)" stroke-opacity="1" stroke-linecap="round" stroke-linejoin="round"/>
    <path d="M 112.67900085449219 146.74200439453125 C 150.80799865722656 166.11399841308594 106.552001953125 174.4080047607422 139.802001953125 195.64300537109375" stroke-width="3.0" fill="none" stroke="rgb(0, 0, 0)" stroke-opacity="1" stroke-linecap="round" stroke-linejoin="round"/>
    <path d="M 124.43199920654297 226.593994140625 C 160.72799682617188 237.156005859375 92.45230102539062 222.63499450683594 122.06800079345703 218.1020050048828" stroke-width="3.0" fill="none" stroke="rgb(0, 0, 0)" stroke-opacity="1" stroke-linecap="round" stroke-linejoin="round"/>
    <path d="M 117.3759994506836 190.593994140625 C 127.1729965209961 122.11599731445312 128.3679962158203 149.0709991455078 140.25599670410156 198.30799865722656" stroke-width="3.0" fill="none" stroke="rgb(0, 0, 0)" stroke-opacity="1" stroke-linecap="round" stroke-linejoin="round"/>
    <path d="M 149.56700134277344 141.40199279785156 C 94.25530242919922 154.36099243164062 150.7100067138672 126.7979965209961 141.2480010986328 131.54800415039062" stroke-width="3.0" fill="none" stroke="rgb(0, 0, 0)" stroke-opacity="1" stroke-linecap="round" stroke-linejoin="round"/>
    <path d="M 106.24500274658203 197.6439971923828 C 121.5009994506836 177.0679931640625 132.3419952392578 155.3520050048828 174.0229949951172 109.76300048828125" stroke-width="3.0" fill="none" stroke="rgb(0, 0, 0)" stroke-opacity="1" stroke-linecap="round" stroke-linejoin="round"/>
    <path d="M 153.76300048828125 118.90499877929688 C 167.88900756835938 146.51199340820312 139.6529998779297 126.99800109863281 158.13499450683594 128.38999938964844" stroke-width="3.0" fill="none" stroke="rgb(0, 0, 0)" stroke-opacity="1" stroke-linecap="round" stroke-linejoin="round"/>
    <path d="M 106.87999725341797 175.91400146484375 C 172.30999755859375 168.8990020751953 169.031005859375 194.6840057373047 104.38999938964844 182.11500549316406" stroke-width="3.0" fill="none" stroke="rgb(0, 0, 0)" stroke-opacity="1" stroke-linecap="round" stroke-linejoin="round"/>
    <path d="M 99.81700134277344 154.1280059814453 C 96.33489990234375 194.19700622558594 153.99200439453125 189.08399963378906 147.23899841308594 159.64599609375" stroke-width="3.0" fill="none" stroke="rgb(0, 0, 0)" stroke-opacity="1" stroke-linecap="round" stroke-linejoin="round"/>
    <path d="M 65.377197265625 95.03520202636719 C 109.90499877929688 133.07400512695312 68.3864974975586 110.53800201416016 73.6729965209961 110.88999938964844" stroke-width="3.0" fill="none" stroke="rgb(0, 0, 0)" stroke-opacity="1" stroke-linecap="round" stroke-linejoin="round"/>
    <path d="M 145.0240020751953 224.41700744628906 C 129.6280059814453 178.88999938964844 90.32250213623047 219.50900268554688 134.06199645996094 188.7449951171875" stroke-width="3.0" fill="none" stroke="rgb(0, 0, 0)" stroke-opacity="1" stroke-linecap="round" stroke-linejoin="round"/>
    <path d="M 110.24500274658203 193.10800170898438 C 131.62899780273438 214.23199462890625 150.96299743652344 197.09800720214844 99.29070281982422 168.6739959716797" stroke-width="3.0" fill="none" stroke="rgb(0, 0, 0)" stroke-opacity="1" stroke-linecap="round" stroke-linejoin="round"/>
    <path d="M 112.15499877929688 191.0540008544922 C 156.81700134277344 188.0590057373047 165.92599487304688 163.59500122070312 138.68899536132812 196.4149932861328" stroke-width="3.0" fill="none" stroke="rgb(0, 0, 0)" stroke-opacity="1" stroke-linecap="round" stroke-linejoin="round"/>
    <path d="M 114.31199645996094 196.53799438476562 C 153.53500366210938 180.3560028076172 155.3070068359375 146.87600708007812 143.0240020751953 136.61000061035156" stroke-width="3.0" fill="none" stroke="rgb(0, 0, 0)" stroke-opacity="1" stroke-linecap="round" stroke-linejoin="round"/>
    <path d="M 155.28799438476562 127.06900024414062 C 118.38400268554688 117.54299926757812 118.79499816894531 117.93199920654297 134.97300720214844 145.6280059814453" stroke-width="3.0" fill="none" stroke="rgb(0, 0, 0)" stroke-opacity="1" stroke-linecap="round" stroke-linejoin="round"/>
    <path d="M 102.16100311279297 168.49899291992188 C 108.15399932861328 202.0279998779297 123.19000244140625 186.18899536132812 113.54199981689453 193.51499938964844" stroke-width="3.0" fill="none" stroke="rgb(0, 0, 0)" stroke-opacity="1" stroke-linecap="round" stroke-linejoin="round"/>
    <path d="M 155.53599548339844 240.13999938964844 C 82.96389770507812 252.4759979248047 104.98300170898438 231.2469940185547 145.26400756835938 218.5659942626953" stroke-width="3.0" fill="none" stroke="rgb(0, 0, 0)" stroke-opacity="1" stroke-linecap="round" stroke-linejoin="round"/>
    <path d="M 145.89700317382812 165.5760040283203 C 166.7550048828125 153.14999389648438 97.93150329589844 170.51199340820312 126.25 149.22300720214844" stroke-width="3.0" fill="none" stroke="rgb(0, 0, 0)" stroke-opacity="1" stroke-linecap="round" stroke-linejoin="round"/>
    <path d="M 149.81700134277344 198.49200439453125 C 153.43800354003906 170.6790008544922 153.3489990234375 176.99200439453125 103.0479965209961 183.4409942626953" stroke-width="3.0" fill="none" stroke="rgb(0, 0, 0)" stroke-opacity="1" stroke-linecap="round" stroke-linejoin="round"/>
    <path d="M 155.38699340820312 129.572998046875 C 92.82540130615234 127.17900085449219 87.935302734375 133.93899536132812 137.9929962158203 149.4029998779297" stroke-width="3.0" fill="none" stroke="rgb(0, 0, 0)" stroke-opacity="1" stroke-linecap="round" stroke-linejoin="round"/>
    <path d="M 152.16600036621094 240.3800048828125 C 156.98800659179688 195.61900329589844 158.43299865722656 139.45700073242188 148.01600646972656 227.31199645996094" stroke-width="3.0" fill="none" stroke="rgb(0, 0, 0)" stroke-opacity="1" stroke-linecap="round" stroke-linejoin="round"/>
    <path d="M 126.7229995727539 156.8249969482422 C 144.2220001220703 152.66799926757812 67.64810180664062 155.88299560546875 138.21600341796875 159.66799926757812" stroke-width="3.0" fill="none" stroke="rgb(0, 0, 0)" stroke-opacity="1" stroke-linecap="round" stroke-linejoin="round"/>
    <path d="M 101.23100280761719 148.01800537109375 C 180.1510009765625 141.76400756835938 149.322998046875 132.9250030517578 96.40589904785156 123.91899871826172" stroke-width="3.0" fill="none" stroke="rgb(0, 0, 0)" stroke-opacity="1" stroke-linecap="round" stroke-linejoin="round"/>
    <path d="M 100.05999755859375 167.57000732421875 C 104.29100036621094 223.31199645996094 117.47000122070312 160.07000732421875 125.16100311279297 193.35699462890625" stroke-width="3.0" fill="none" stroke="rgb(0, 0, 0)" stroke-opacity="1" stroke-linecap="round" stroke-linejoin="round"/>
    <path d="M 143.92100524902344 240.4219970703125 C 153.80999755859375 147.11599731445312 152.88699340820312 140.5679931640625 138.22000122070312 235.25" stroke-width="3.0" fill="none" stroke="rgb(0, 0, 0)" stroke-opacity="1" stroke-linecap="round" stroke-linejoin="round"/>
    <path d="M 159.4459991455078 134.8419952392578 C 156.7429962158203 152.58299255371094 158.1179962158203 188.61599731445312 119.70999908447266 208.96200561523438" stroke-width="3.0" fill="none" stroke="rgb(0, 0, 0)" stroke-opacity="1" stroke-linecap="round" stroke-linejoin="round"/>
    <path d="M 115.74199676513672 110.52799987792969 C 141.3260040283203 108.86900329589844 122.78900146484375 101.38899993896484 133.2969970703125 117.8239974975586" stroke-width="3.0" fill="none" stroke="rgb(0, 0, 0)" stroke-opacity="1" stroke-linecap="round" stroke-linejoin="round"/>
    <path d="M 121.9469985961914 123.0780029296875 C 115.46199798583984 113.25800323486328 119.16799926757812 118.4749984741211 115.46199798583984 109.37100219726562" stroke-width="3.0" fill="none" stroke="rgb(0, 0, 0)" stroke-opacity="1" stroke-linecap="round" stroke-linejoin="round"/>
    <path d="M 133.29600524902344 100.64700317382812 C 130.0540008544922 106.5989990234375 131.90699768066406 103.43699645996094 130.0540008544922 108.95500183105469" stroke-width="3.0" fill="none" stroke="rgb(0, 0, 0)" stroke-opacity="1" stroke-linecap="round" stroke-linejoin="round"/>
    <path d="M 130.31399536132812 107.29399871826172 C 131.76100158691406 121.70800018310547 134.54800415039062 114.00800323486328 122.75800323486328 123.0780029296875" stroke-width="3.0" fill="none" stroke="rgb(0, 0, 0)" stroke-opacity="1" stroke-linecap="round" stroke-linejoin="round"/>
    <path d="M 115.46199798583984 108.95500183105469 C 119.91899871826172 99.81659698486328 115.46199798583984 104.38600158691406 131.27000427246094 100.64700317382812" stroke-width="3.0" fill="none" stroke="rgb(0, 0, 0)" stroke-opacity="1" stroke-linecap="round" stroke-linejoin="round"/>
    <path d="M 132.48399353027344 100.23200225830078 C 139.3780059814453 116.00800323486328 138.16099548339844 108.54000091552734 133.70799255371094 116.00800323486328" stroke-width="3.0" fill="none" stroke="rgb(0, 0, 0)" stroke-opacity="1" stroke-linecap="round" stroke-linejoin="round"/>
    <path d="M 140.72300720214844 95.33589935302734 C 133.82899475097656 79.55950164794922 135.04600524902344 87.02770233154297 139.49899291992188 79.55950164794922" stroke-width="3.0" fill="none" stroke="rgb(0, 0, 0)" stroke-opacity="1" stroke-linecap="round" stroke-linejoin="round"/>
    <path d="M 157.7449951171875 86.61229705810547 C 153.28799438476562 95.75090026855469 157.7449951171875 91.18160247802734 141.93699645996094 94.92009735107422" stroke-width="3.0" fill="none" stroke="rgb(0, 0, 0)" stroke-opacity="1" stroke-linecap="round" stroke-linejoin="round"/>
    <path d="M 142.89300537109375 88.2739028930664 C 141.4459991455078 73.85929870605469 138.65899658203125 81.55950164794922 150.44900512695312 72.48919677734375" stroke-width="3.0" fill="none" stroke="rgb(0, 0, 0)" stroke-opacity="1" stroke-linecap="round" stroke-linejoin="round"/>
    <path d="M 139.91000366210938 94.92009735107422 C 143.1529998779297 88.96829986572266 141.3000030517578 92.13020324707031 143.1529998779297 86.61229705810547" stroke-width="3.0" fill="none" stroke="rgb(0, 0, 0)" stroke-opacity="1" stroke-linecap="round" stroke-linejoin="round"/>
    <path d="M 151.25999450683594 72.48919677734375 C 157.7449951171875 82.30970001220703 154.03900146484375 77.09249877929688 157.7449951171875 86.1968994140625" stroke-width="3.0" fill="none" stroke="rgb(0, 0, 0)" stroke-opacity="1" stroke-linecap="round" stroke-linejoin="round"/>
    <path d="M 157.46499633789062 85.03990173339844 C 131.88099670410156 86.69889831542969 150.41799926757812 94.17790222167969 139.91000366210938 77.74330139160156" stroke-width="3.0" fill="none" stroke="rgb(0, 0, 0)" stroke-opacity="1" stroke-linecap="round" stroke-linejoin="round"/>
    <path d="M 116.47000122070312 80.42669677734375 C 108.25599670410156 55.9833984375 105.8759994506836 75.94080352783203 118.92900085449219 61.47090148925781" stroke-width="3.0" fill="none" stroke="rgb(0, 0, 0)" stroke-opacity="1" stroke-linecap="round" stroke-linejoin="round"/>
    <path d="M 126.90899658203125 71.14530181884766 C 119.16300201416016 79.99189758300781 123.20999908447266 75.03890228271484 115.43199920654297 80.99800109863281" stroke-width="3.0" fill="none" stroke="rgb(0, 0, 0)" stroke-opacity="1" stroke-linecap="round" stroke-linejoin="round"/>
    <path d="M 102.44400024414062 65.91739654541016 C 108.99600219726562 67.529296875 105.48100280761719 66.54630279541016 111.25700378417969 66.91960144042969" stroke-width="3.0" fill="none" stroke="rgb(0, 0, 0)" stroke-opacity="1" stroke-linecap="round" stroke-linejoin="round"/>
    <path d="M 109.59500122070312 67.09660339355469 C 123.05400085449219 61.95880126953125 114.94300079345703 61.242698669433594 126.6989974975586 70.3572006225586" stroke-width="3.0" fill="none" stroke="rgb(0, 0, 0)" stroke-opacity="1" stroke-linecap="round" stroke-linejoin="round"/>
    <path d="M 115.03299713134766 81.10540008544922 C 105.10900115966797 79.13749694824219 110.64800262451172 82.28800201416016 102.96900177001953 67.88760375976562" stroke-width="3.0" fill="none" stroke="rgb(0, 0, 0)" stroke-opacity="1" stroke-linecap="round" stroke-linejoin="round"/>
    <path d="M 102.25599670410156 66.81510162353516 C 115.61199951171875 56.02920150756836 108.76000213623047 59.14580154418945 117.08000183105469 61.54180145263672" stroke-width="3.0" fill="none" stroke="rgb(0, 0, 0)" stroke-opacity="1" stroke-linecap="round" stroke-linejoin="round"/>
  </g>
</svg>
