<?xml version="1.0" ?>
<svg xmlns="http://www.w3.org/2000/svg" version="1.1" width="256" height="256">
  <defs/>
  <g>
    <path d="M 147.44900512695312 77.55829620361328 C 190.56900024414062 63.57600021362305 187.76199340820312 64.2509994506836 161.74200439453125 67.6760025024414" stroke-width="3.0" fill="none" stroke="rgb(0, 255, 0)" stroke-opacity="1" stroke-linecap="round" stroke-linejoin="round"/>
    <path d="M 158.58299255371094 89.5145034790039 C 155.78500366210938 82.88800048828125 181.6739959716797 80.77570343017578 155.6909942626953 80.7416000366211" stroke-width="3.0" fill="none" stroke="rgb(0, 255, 0)" stroke-opacity="1" stroke-linecap="round" stroke-linejoin="round"/>
    <path d="M 102.87000274658203 76.06520080566406 C 123.02200317382812 64.57779693603516 110.3270034790039 79.87950134277344 113.0 96.44779968261719" stroke-width="3.0" fill="none" stroke="rgb(0, 255, 0)" stroke-opacity="1" stroke-linecap="round" stroke-linejoin="round"/>
    <path d="M 111.1989974975586 87.14630126953125 C 139.38699340820312 82.09559631347656 129.2239990234375 83.68160247802734 119.91999816894531 85.83599853515625" stroke-width="3.0" fill="none" stroke="rgb(0, 255, 0)" stroke-opacity="1" stroke-linecap="round" stroke-linejoin="round"/>
    <path d="M 141.49099731445312 79.64309692382812 C 144.0489959716797 96.04389953613281 157.05799865722656 90.30860137939453 157.59100341796875 81.01000213623047" stroke-width="3.0" fill="none" stroke="rgb(0, 255, 0)" stroke-opacity="1" stroke-linecap="round" stroke-linejoin="round"/>
    <path d="M 109.5979995727539 71.7052993774414 C 133.2100067138672 68.46910095214844 143.10000610351562 72.5009994506836 106.86299896240234 76.57649993896484" stroke-width="3.0" fill="none" stroke="rgb(0, 255, 0)" stroke-opacity="1" stroke-linecap="round" stroke-linejoin="round"/>
    <path d="M 78.90129852294922 92.33300018310547 C 83.1011962890625 110.81300354003906 89.34349822998047 99.89859771728516 82.05950164794922 102.78299713134766" stroke-width="3.0" fill="none" stroke="rgb(0, 255, 0)" stroke-opacity="1" stroke-linecap="round" stroke-linejoin="round"/>
    <path d="M 93.49970245361328 65.78050231933594 C 103.76799774169922 64.07219696044922 113.25700378417969 57.66590118408203 109.62699890136719 62.14070129394531" stroke-width="3.0" fill="none" stroke="rgb(0, 255, 0)" stroke-opacity="1" stroke-linecap="round" stroke-linejoin="round"/>
    <path d="M 104.38400268554688 104.04000091552734 C 137.30299377441406 89.49829864501953 146.53700256347656 92.84049987792969 153.04600524902344 92.36190032958984" stroke-width="3.0" fill="none" stroke="rgb(0, 255, 0)" stroke-opacity="1" stroke-linecap="round" stroke-linejoin="round"/>
    <path d="M 97.22949981689453 62.718299865722656 C 143.3159942626953 62.66640090942383 120.70600128173828 65.20120239257812 110.10299682617188 75.22989654541016" stroke-width="3.0" fill="none" stroke="rgb(0, 255, 0)" stroke-opacity="1" stroke-linecap="round" stroke-linejoin="round"/>
    <path d="M 115.2959976196289 40.47800064086914 C 100.927001953125 42.22050094604492 104.13099670410156 41.71609878540039 128.91200256347656 39.109901428222656" stroke-width="3.0" fill="none" stroke="rgb(0, 255, 0)" stroke-opacity="1" stroke-linecap="round" stroke-linejoin="round"/>
    <path d="M 130.75100708007812 38.57680130004883 C 157.2209930419922 37.59230041503906 155.71299743652344 46.129600524902344 169.25799560546875 43.411598205566406" stroke-width="3.0" fill="none" stroke="rgb(0, 255, 0)" stroke-opacity="1" stroke-linecap="round" stroke-linejoin="round"/>
    <path d="M 135.92599487304688 97.53589630126953 C 105.5199966430664 108.23400115966797 96.48979949951172 98.55110168457031 129.4980010986328 95.03919982910156" stroke-width="3.0" fill="none" stroke="rgb(0, 255, 0)" stroke-opacity="1" stroke-linecap="round" stroke-linejoin="round"/>
    <path d="M 142.19000244140625 82.35749816894531 C 165.2899932861328 91.35669708251953 165.0449981689453 94.00199890136719 121.19599914550781 101.04299926757812" stroke-width="3.0" fill="none" stroke="rgb(0, 255, 0)" stroke-opacity="1" stroke-linecap="round" stroke-linejoin="round"/>
    <path d="M 103.15599822998047 92.92970275878906 C 120.06700134277344 88.20320129394531 136.76199340820312 117.75 120.81900024414062 106.37300109863281" stroke-width="3.0" fill="none" stroke="rgb(0, 255, 0)" stroke-opacity="1" stroke-linecap="round" stroke-linejoin="round"/>
    <path d="M 97.66449737548828 91.98400115966797 C 98.2876968383789 82.49610137939453 105.0250015258789 72.99819946289062 107.36699676513672 96.03759765625" stroke-width="3.0" fill="none" stroke="rgb(0, 255, 0)" stroke-opacity="1" stroke-linecap="round" stroke-linejoin="round"/>
    <path d="M 122.03700256347656 69.44879913330078 C 175.07200622558594 59.804901123046875 190.59100341796875 65.40779876708984 143.26600646972656 74.59649658203125" stroke-width="3.0" fill="none" stroke="rgb(0, 255, 0)" stroke-opacity="1" stroke-linecap="round" stroke-linejoin="round"/>
    <path d="M 97.38899993896484 88.88569641113281 C 106.3280029296875 85.71089935302734 135.1199951171875 97.52439880371094 110.52200317382812 102.06900024414062" stroke-width="3.0" fill="none" stroke="rgb(0, 255, 0)" stroke-opacity="1" stroke-linecap="round" stroke-linejoin="round"/>
    <path d="M 84.0167007446289 43.55939865112305 C 80.02220153808594 43.775001525878906 79.91480255126953 43.506099700927734 90.09459686279297 42.14540100097656" stroke-width="3.0" fill="none" stroke="rgb(0, 255, 0)" stroke-opacity="1" stroke-linecap="round" stroke-linejoin="round"/>
    <path d="M 103.18299865722656 82.58910369873047 C 115.71499633789062 91.49109649658203 121.60600280761719 99.36119842529297 116.6729965209961 101.072998046875" stroke-width="3.0" fill="none" stroke="rgb(0, 255, 0)" stroke-opacity="1" stroke-linecap="round" stroke-linejoin="round"/>
    <path d="M 194.35499572753906 67.04299926757812 C 178.68499755859375 71.43589782714844 204.89999389648438 71.87629699707031 147.64300537109375 74.97239685058594" stroke-width="3.0" fill="none" stroke="rgb(0, 255, 0)" stroke-opacity="1" stroke-linecap="round" stroke-linejoin="round"/>
    <path d="M 211.5489959716797 60.80799865722656 C 180.7689971923828 74.82610321044922 175.36500549316406 78.22049713134766 203.0989990234375 67.82469940185547" stroke-width="3.0" fill="none" stroke="rgb(0, 255, 0)" stroke-opacity="1" stroke-linecap="round" stroke-linejoin="round"/>
    <path d="M 202.91099548339844 49.68199920654297 C 237.79600524902344 40.388099670410156 232.6230010986328 44.53620147705078 212.0290069580078 62.17110061645508" stroke-width="3.0" fill="none" stroke="rgb(0, 255, 0)" stroke-opacity="1" stroke-linecap="round" stroke-linejoin="round"/>
    <path d="M 103.30599975585938 78.36239624023438 C 118.27200317382812 75.743896484375 118.03500366210938 75.78450012207031 92.88310241699219 85.17669677734375" stroke-width="3.0" fill="none" stroke="rgb(0, 255, 0)" stroke-opacity="1" stroke-linecap="round" stroke-linejoin="round"/>
    <path d="M 76.18319702148438 74.94049835205078 C 53.755401611328125 77.10579681396484 54.43040084838867 78.70989990234375 47.409400939941406 71.5615005493164" stroke-width="3.0" fill="none" stroke="rgb(0, 255, 0)" stroke-opacity="1" stroke-linecap="round" stroke-linejoin="round"/>
    <path d="M 107.56600189208984 77.69519805908203 C 109.7699966430664 100.75399780273438 128.1909942626953 97.08940124511719 111.78700256347656 75.71839904785156" stroke-width="3.0" fill="none" stroke="rgb(0, 255, 0)" stroke-opacity="1" stroke-linecap="round" stroke-linejoin="round"/>
    <path d="M 164.91600036621094 78.94779968261719 C 199.3979949951172 60.78960037231445 177.44400024414062 59.15610122680664 163.28599548339844 71.5458984375" stroke-width="3.0" fill="none" stroke="rgb(0, 255, 0)" stroke-opacity="1" stroke-linecap="round" stroke-linejoin="round"/>
    <path d="M 110.50800323486328 90.18250274658203 C 109.75299835205078 76.69249725341797 99.65640258789062 79.76349639892578 127.0739974975586 71.30960083007812" stroke-width="3.0" fill="none" stroke="rgb(0, 255, 0)" stroke-opacity="1" stroke-linecap="round" stroke-linejoin="round"/>
    <path d="M 108.0 109.0 C 126.24800109863281 120.55500030517578 119.30599975585938 211.48699951171875 128.0 234.0" stroke-width="3.0" fill="none" stroke="rgb(0, 255, 0)" stroke-opacity="1" stroke-linecap="round" stroke-linejoin="round"/>
    <path d="M 136.0 91.0 C 146.94900512695312 101.53900146484375 142.78399658203125 184.46800231933594 148.0 205.0" stroke-width="3.0" fill="none" stroke="rgb(0, 255, 0)" stroke-opacity="1" stroke-linecap="round" stroke-linejoin="round"/>
    <path d="M 110.01300048828125 75.46330261230469 C 81.14140319824219 86.94400024414062 109.2300033569336 100.60900115966797 135.4040069580078 91.07440185546875" stroke-width="3.0" fill="none" stroke="rgb(0, 255, 0)" stroke-opacity="1" stroke-linecap="round" stroke-linejoin="round"/>
    <path d="M 213.51100158691406 55.87770080566406 C 209.60499572753906 68.31009674072266 195.00399780273438 64.5989990234375 203.86700439453125 65.92780303955078" stroke-width="3.0" fill="none" stroke="rgb(0, 255, 0)" stroke-opacity="1" stroke-linecap="round" stroke-linejoin="round"/>
    <path d="M 111.66600036621094 73.69290161132812 C 143.88299560546875 66.16459655761719 131.76499938964844 57.73720169067383 103.8550033569336 71.62129974365234" stroke-width="3.0" fill="none" stroke="rgb(0, 255, 0)" stroke-opacity="1" stroke-linecap="round" stroke-linejoin="round"/>
    <path d="M 107.7490005493164 92.07779693603516 C 145.8800048828125 88.82550048828125 141.46099853515625 84.95970153808594 139.04400634765625 83.20989990234375" stroke-width="3.0" fill="none" stroke="rgb(0, 255, 0)" stroke-opacity="1" stroke-linecap="round" stroke-linejoin="round"/>
    <path d="M 107.08999633789062 92.50740051269531 C 116.5459976196289 69.22959899902344 105.56800079345703 74.34390258789062 107.3239974975586 78.39810180664062" stroke-width="3.0" fill="none" stroke="rgb(0, 255, 0)" stroke-opacity="1" stroke-linecap="round" stroke-linejoin="round"/>
    <path d="M 136.56300354003906 81.96540069580078 C 135.4600067138672 87.48600006103516 158.7689971923828 83.00090026855469 142.3800048828125 91.39530181884766" stroke-width="3.0" fill="none" stroke="rgb(0, 255, 0)" stroke-opacity="1" stroke-linecap="round" stroke-linejoin="round"/>
    <path d="M 230.4709930419922 41.04290008544922 C 236.85899353027344 31.458200454711914 240.93299865722656 34.14789962768555 225.71299743652344 37.38290023803711" stroke-width="3.0" fill="none" stroke="rgb(0, 255, 0)" stroke-opacity="1" stroke-linecap="round" stroke-linejoin="round"/>
    <path d="M 131.322998046875 59.90250015258789 C 110.8499984741211 66.84349822998047 127.5469970703125 49.98910140991211 140.87899780273438 57.379398345947266" stroke-width="3.0" fill="none" stroke="rgb(0, 255, 0)" stroke-opacity="1" stroke-linecap="round" stroke-linejoin="round"/>
    <path d="M 157.49600219726562 64.03160095214844 C 96.0967025756836 54.95790100097656 126.0479965209961 60.55139923095703 133.9199981689453 83.8563003540039" stroke-width="3.0" fill="none" stroke="rgb(0, 255, 0)" stroke-opacity="1" stroke-linecap="round" stroke-linejoin="round"/>
    <path d="M 92.9219970703125 90.86070251464844 C 88.01110076904297 74.82530212402344 108.37899780273438 88.30380249023438 108.67500305175781 78.87319946289062" stroke-width="3.0" fill="none" stroke="rgb(0, 255, 0)" stroke-opacity="1" stroke-linecap="round" stroke-linejoin="round"/>
    <path d="M 183.8249969482422 71.35299682617188 C 200.29800415039062 67.0426025390625 210.04600524902344 63.46030044555664 202.40199279785156 66.43769836425781" stroke-width="3.0" fill="none" stroke="rgb(0, 255, 0)" stroke-opacity="1" stroke-linecap="round" stroke-linejoin="round"/>
    <path d="M 227.63800048828125 40.485599517822266 C 214.1580047607422 44.56290054321289 215.74099731445312 39.14580154418945 205.4199981689453 54.550498962402344" stroke-width="3.0" fill="none" stroke="rgb(0, 255, 0)" stroke-opacity="1" stroke-linecap="round" stroke-linejoin="round"/>
    <path d="M 106.46900177001953 39.609100341796875 C 96.45359802246094 42.19649887084961 94.74919891357422 44.10380172729492 110.06400299072266 38.0" stroke-width="3.0" fill="none" stroke="rgb(0, 255, 0)" stroke-opacity="1" stroke-linecap="round" stroke-linejoin="round"/>
    <path d="M 112.2249984741211 74.46710205078125 C 114.94300079345703 72.51100158691406 75.07230377197266 75.74469757080078 87.19819641113281 87.5154037475586" stroke-width="3.0" fill="none" stroke="rgb(0, 255, 0)" stroke-opacity="1" stroke-linecap="round" stroke-linejoin="round"/>
    <path d="M 54.799198150634766 70.45649719238281 C 66.80789947509766 78.84480285644531 43.74300003051758 78.39520263671875 37.414798736572266 70.55030059814453" stroke-width="3.0" fill="none" stroke="rgb(0, 255, 0)" stroke-opacity="1" stroke-linecap="round" stroke-linejoin="round"/>
    <path d="M 72.94499969482422 47.320499420166016 C 82.57050323486328 41.728599548339844 74.189697265625 45.2515983581543 90.17659759521484 41.03730010986328" stroke-width="3.0" fill="none" stroke="rgb(0, 255, 0)" stroke-opacity="1" stroke-linecap="round" stroke-linejoin="round"/>
    <path d="M 228.80299377441406 41.32939910888672 C 218.86599731445312 43.53960037231445 223.14599609375 48.88240051269531 239.0 29.934600830078125" stroke-width="3.0" fill="none" stroke="rgb(0, 255, 0)" stroke-opacity="1" stroke-linecap="round" stroke-linejoin="round"/>
    <path d="M 232.64599609375 40.391300201416016 C 219.30299377441406 17.81220054626465 226.9080047607422 35.69200134277344 234.30299377441406 25.562000274658203" stroke-width="3.0" fill="none" stroke="rgb(0, 255, 0)" stroke-opacity="1" stroke-linecap="round" stroke-linejoin="round"/>
    <path d="M 134.42999267578125 76.56500244140625 C 154.51800537109375 82.47350311279297 109.79499816894531 83.64459991455078 124.77799987792969 85.21820068359375" stroke-width="3.0" fill="none" stroke="rgb(0, 255, 0)" stroke-opacity="1" stroke-linecap="round" stroke-linejoin="round"/>
    <path d="M 92.37470245361328 41.95560073852539 C 70.24220275878906 49.182701110839844 71.19390106201172 46.74509811401367 83.30989837646484 43.10029983520508" stroke-width="3.0" fill="none" stroke="rgb(0, 255, 0)" stroke-opacity="1" stroke-linecap="round" stroke-linejoin="round"/>
    <path d="M 152.94400024414062 63.069698333740234 C 194.27099609375 54.94459915161133 204.24600219726562 62.36320114135742 204.82899475097656 54.55619812011719" stroke-width="3.0" fill="none" stroke="rgb(0, 255, 0)" stroke-opacity="1" stroke-linecap="round" stroke-linejoin="round"/>
    <path d="M 92.75430297851562 104.71099853515625 C 109.14299774169922 112.2959976196289 112.7300033569336 110.21399688720703 115.51899719238281 100.0" stroke-width="3.0" fill="none" stroke="rgb(0, 255, 0)" stroke-opacity="1" stroke-linecap="round" stroke-linejoin="round"/>
    <path d="M 218.6179962158203 36.555999755859375 C 225.95700073242188 24.750200271606445 244.3090057373047 37.51070022583008 215.7740020751953 47.0718994140625" stroke-width="3.0" fill="none" stroke="rgb(0, 255, 0)" stroke-opacity="1" stroke-linecap="round" stroke-linejoin="round"/>
    <path d="M 98.14230346679688 94.45870208740234 C 136.8560028076172 102.27899932861328 111.58999633789062 108.59200286865234 83.568603515625 98.6333999633789" stroke-width="3.0" fill="none" stroke="rgb(0, 255, 0)" stroke-opacity="1" stroke-linecap="round" stroke-linejoin="round"/>
    <path d="M 230.64500427246094 30.920799255371094 C 238.23800659179688 21.729999542236328 244.98300170898438 31.70989990234375 222.55099487304688 23.0" stroke-width="3.0" fill="none" stroke="rgb(0, 255, 0)" stroke-opacity="1" stroke-linecap="round" stroke-linejoin="round"/>
    <path d="M 82.37409973144531 72.0718994140625 C 60.03200149536133 74.07060241699219 70.74369812011719 79.70559692382812 72.24800109863281 73.9968032836914" stroke-width="3.0" fill="none" stroke="rgb(0, 255, 0)" stroke-opacity="1" stroke-linecap="round" stroke-linejoin="round"/>
    <path d="M 149.71600341796875 91.36830139160156 C 165.80499267578125 73.01349639892578 167.73899841308594 70.76300048828125 143.81199645996094 82.0790023803711" stroke-width="3.0" fill="none" stroke="rgb(0, 255, 0)" stroke-opacity="1" stroke-linecap="round" stroke-linejoin="round"/>
    <path d="M 117.59700012207031 62.389400482177734 C 97.83769989013672 71.4292984008789 99.67759704589844 77.8187026977539 95.19529724121094 97.79450225830078" stroke-width="3.0" fill="none" stroke="rgb(0, 255, 0)" stroke-opacity="1" stroke-linecap="round" stroke-linejoin="round"/>
    <path d="M 222.83399963378906 24.766700744628906 C 214.88800048828125 35.747798919677734 217.70399475097656 34.067298889160156 218.55099487304688 38.73460006713867" stroke-width="3.0" fill="none" stroke="rgb(0, 255, 0)" stroke-opacity="1" stroke-linecap="round" stroke-linejoin="round"/>
    <path d="M 191.52099609375 58.902400970458984 C 204.96200561523438 60.287498474121094 199.72300720214844 61.596099853515625 205.59500122070312 51.448699951171875" stroke-width="3.0" fill="none" stroke="rgb(0, 255, 0)" stroke-opacity="1" stroke-linecap="round" stroke-linejoin="round"/>
    <path d="M 200.9770050048828 57.105899810791016 C 152.3470001220703 66.08499908447266 159.5800018310547 70.51529693603516 200.73599243164062 57.61109924316406" stroke-width="3.0" fill="none" stroke="rgb(0, 255, 0)" stroke-opacity="1" stroke-linecap="round" stroke-linejoin="round"/>
    <path d="M 38.18410110473633 69.0 C 27.52199935913086 64.44010162353516 58.054298400878906 49.045501708984375 83.06159973144531 42.22480010986328" stroke-width="3.0" fill="none" stroke="rgb(0, 255, 0)" stroke-opacity="1" stroke-linecap="round" stroke-linejoin="round"/>
    <path d="M 56.15739822387695 62.15829849243164 C 45.4744987487793 56.3588981628418 72.86160278320312 45.81520080566406 97.91799926757812 37.140499114990234" stroke-width="3.0" fill="none" stroke="rgb(0, 255, 0)" stroke-opacity="1" stroke-linecap="round" stroke-linejoin="round"/>
    <path d="M 169.52200317382812 39.067501068115234 C 180.1840057373047 43.62739944458008 152.8509979248047 51.917701721191406 127.84300231933594 58.738399505615234" stroke-width="3.0" fill="none" stroke="rgb(0, 255, 0)" stroke-opacity="1" stroke-linecap="round" stroke-linejoin="round"/>
    <path d="M 127.84300231933594 36.21549987792969 C 153.0449981689453 32.51129913330078 179.6999969482422 33.0796012878418 186.0 40.77690124511719" stroke-width="3.0" fill="none" stroke="rgb(0, 255, 0)" stroke-opacity="1" stroke-linecap="round" stroke-linejoin="round"/>
    <path d="M 135.59800720214844 59.59080123901367 C 160.7989959716797 59.59080123901367 186.0 48.760398864746094 186.0 40.4901008605957" stroke-width="3.0" fill="none" stroke="rgb(0, 255, 0)" stroke-opacity="1" stroke-linecap="round" stroke-linejoin="round"/>
    <path d="M 146.1840057373047 62.37540054321289 C 129.45599365234375 48.39619827270508 143.50599670410156 51.7661018371582 128.14599609375 65.44020080566406" stroke-width="3.0" fill="none" stroke="rgb(0, 255, 0)" stroke-opacity="1" stroke-linecap="round" stroke-linejoin="round"/>
    <path d="M 212.93899536132812 61.14929962158203 C 206.01699829101562 68.44670104980469 197.2790069580078 69.82630157470703 188.28700256347656 71.35569763183594" stroke-width="3.0" fill="none" stroke="rgb(0, 255, 0)" stroke-opacity="1" stroke-linecap="round" stroke-linejoin="round"/>
    <path d="M 80.08399963378906 91.81430053710938 C 108.1760025024414 88.42780303955078 103.48300170898438 64.15129852294922 109.53500366210938 101.02200317382812" stroke-width="3.0" fill="none" stroke="rgb(0, 255, 0)" stroke-opacity="1" stroke-linecap="round" stroke-linejoin="round"/>
    <path d="M 165.8520050048828 79.64610290527344 C 191.51600646972656 72.39720153808594 196.4239959716797 64.23739624023438 164.36900329589844 80.80130004882812" stroke-width="3.0" fill="none" stroke="rgb(0, 255, 0)" stroke-opacity="1" stroke-linecap="round" stroke-linejoin="round"/>
    <path d="M 71.65160369873047 72.518798828125 C 44.40810012817383 78.4386978149414 45.123600006103516 75.9094009399414 75.64109802246094 74.57869720458984" stroke-width="3.0" fill="none" stroke="rgb(0, 255, 0)" stroke-opacity="1" stroke-linecap="round" stroke-linejoin="round"/>
    <path d="M 139.26400756835938 88.1281967163086 C 142.15199279785156 93.24710083007812 137.03599548339844 86.7134017944336 133.71200561523438 66.70919799804688" stroke-width="3.0" fill="none" stroke="rgb(0, 255, 0)" stroke-opacity="1" stroke-linecap="round" stroke-linejoin="round"/>
    <path d="M 157.82899475097656 62.578800201416016 C 136.60299682617188 65.09149932861328 141.14599609375 60.09410095214844 123.177001953125 60.28670120239258" stroke-width="3.0" fill="none" stroke="rgb(0, 255, 0)" stroke-opacity="1" stroke-linecap="round" stroke-linejoin="round"/>
    <path d="M 105.79299926757812 78.46330261230469 C 85.86000061035156 74.4655990600586 85.68370056152344 69.34249877929688 94.92389678955078 97.75240325927734" stroke-width="3.0" fill="none" stroke="rgb(0, 255, 0)" stroke-opacity="1" stroke-linecap="round" stroke-linejoin="round"/>
    <path d="M 81.0238037109375 43.92639923095703 C 75.7052993774414 47.00600051879883 74.42269897460938 41.73929977416992 124.59500122070312 36.2150993347168" stroke-width="3.0" fill="none" stroke="rgb(0, 255, 0)" stroke-opacity="1" stroke-linecap="round" stroke-linejoin="round"/>
    <path d="M 115.35800170898438 83.57779693603516 C 101.73899841308594 82.0333023071289 83.7654037475586 63.965999603271484 87.1240005493164 96.22959899902344" stroke-width="3.0" fill="none" stroke="rgb(0, 255, 0)" stroke-opacity="1" stroke-linecap="round" stroke-linejoin="round"/>
    <path d="M 203.5659942626953 65.47350311279297 C 163.41400146484375 63.92890167236328 185.37899780273438 57.26100158691406 204.6750030517578 57.24639892578125" stroke-width="3.0" fill="none" stroke="rgb(0, 255, 0)" stroke-opacity="1" stroke-linecap="round" stroke-linejoin="round"/>
    <path d="M 215.28799438476562 42.09410095214844 C 243.07000732421875 34.84049987792969 217.38999938964844 29.922199249267578 210.72799682617188 48.837398529052734" stroke-width="3.0" fill="none" stroke="rgb(0, 255, 0)" stroke-opacity="1" stroke-linecap="round" stroke-linejoin="round"/>
    <path d="M 85.75240325927734 101.06099700927734 C 104.57099914550781 102.88200378417969 113.65599822998047 84.80840301513672 113.48600006103516 78.45600128173828" stroke-width="3.0" fill="none" stroke="rgb(0, 255, 0)" stroke-opacity="1" stroke-linecap="round" stroke-linejoin="round"/>
    <path d="M 227.39199829101562 25.4335994720459 C 230.0709991455078 28.28529930114746 212.29200744628906 23.97960090637207 224.822998046875 24.42650032043457" stroke-width="3.0" fill="none" stroke="rgb(0, 255, 0)" stroke-opacity="1" stroke-linecap="round" stroke-linejoin="round"/>
    <path d="M 96.27519989013672 95.55110168457031 C 92.83399963378906 106.21499633789062 98.94000244140625 116.822998046875 85.57460021972656 85.470703125" stroke-width="3.0" fill="none" stroke="rgb(0, 255, 0)" stroke-opacity="1" stroke-linecap="round" stroke-linejoin="round"/>
    <path d="M 88.55139923095703 89.30380249023438 C 101.29399871826172 90.83090209960938 94.17379760742188 84.89340209960938 80.57270050048828 91.90129852294922" stroke-width="3.0" fill="none" stroke="rgb(0, 255, 0)" stroke-opacity="1" stroke-linecap="round" stroke-linejoin="round"/>
    <path d="M 154.89199829101562 87.20059967041016 C 155.12100219726562 87.90979766845703 157.97500610351562 84.97509765625 154.01300048828125 81.26309967041016" stroke-width="3.0" fill="none" stroke="rgb(0, 255, 0)" stroke-opacity="1" stroke-linecap="round" stroke-linejoin="round"/>
    <path d="M 74.01200103759766 44.15950012207031 C 94.78990173339844 40.17430114746094 67.82520294189453 44.50270080566406 60.80849838256836 48.65250015258789" stroke-width="3.0" fill="none" stroke="rgb(0, 255, 0)" stroke-opacity="1" stroke-linecap="round" stroke-linejoin="round"/>
    <path d="M 142.99600219726562 85.5322036743164 C 165.58299255371094 85.59960174560547 173.19200134277344 75.81580352783203 159.47000122070312 82.33209991455078" stroke-width="3.0" fill="none" stroke="rgb(0, 255, 0)" stroke-opacity="1" stroke-linecap="round" stroke-linejoin="round"/>
    <path d="M 116.33300018310547 90.96769714355469 C 147.9709930419922 82.91560363769531 165.08399963378906 83.54429626464844 176.76199340820312 76.26959991455078" stroke-width="3.0" fill="none" stroke="rgb(0, 255, 0)" stroke-opacity="1" stroke-linecap="round" stroke-linejoin="round"/>
    <path d="M 94.29019927978516 78.85359954833984 C 111.33899688720703 75.57450103759766 105.8740005493164 71.90249633789062 110.50499725341797 82.64550018310547" stroke-width="3.0" fill="none" stroke="rgb(0, 255, 0)" stroke-opacity="1" stroke-linecap="round" stroke-linejoin="round"/>
    <path d="M 94.16400146484375 61.004600524902344 C 103.57599639892578 55.564300537109375 84.427001953125 60.76409912109375 66.83910369873047 61.00859832763672" stroke-width="3.0" fill="none" stroke="rgb(0, 255, 0)" stroke-opacity="1" stroke-linecap="round" stroke-linejoin="round"/>
    <path d="M 111.5270004272461 163.0 C 108.45500183105469 157.8679962158203 119.66999816894531 163.0 123.0 153.0" stroke-width="3.0" fill="none" stroke="rgb(255, 0, 0)" stroke-opacity="1" stroke-linecap="round" stroke-linejoin="round"/>
    <path d="M 105.47699737548828 153.0 C 101.71199798583984 147.54600524902344 105.47699737548828 134.6540069580078 113.0 147.54600524902344" stroke-width="3.0" fill="none" stroke="rgb(255, 0, 0)" stroke-opacity="1" stroke-linecap="round" stroke-linejoin="round"/>
    <path d="M 111.0530014038086 154.77999877929688 C 101.8280029296875 149.50399780273438 127.24500274658203 160.15499877929688 117.58300018310547 143.0" stroke-width="3.0" fill="none" stroke="rgb(255, 0, 0)" stroke-opacity="1" stroke-linecap="round" stroke-linejoin="round"/>
    <path d="M 116.13999938964844 178.27499389648438 C 120.35700225830078 158.968994140625 107.43199920654297 150.38999938964844 113.7959976196289 162.80599975585938" stroke-width="3.0" fill="none" stroke="rgb(255, 0, 0)" stroke-opacity="1" stroke-linecap="round" stroke-linejoin="round"/>
    <path d="M 108.0 151.4429931640625 C 115.26399993896484 184.97799682617188 113.83499908447266 150.2429962158203 108.66699981689453 149.0" stroke-width="3.0" fill="none" stroke="rgb(255, 0, 0)" stroke-opacity="1" stroke-linecap="round" stroke-linejoin="round"/>
    <path d="M 109.91799926757812 154.0 C 94.80020141601562 142.83599853515625 113.7969970703125 137.9949951171875 110.63899993896484 149.97999572753906" stroke-width="3.0" fill="none" stroke="rgb(255, 0, 0)" stroke-opacity="1" stroke-linecap="round" stroke-linejoin="round"/>
    <path d="M 115.2969970703125 170.3979949951172 C 119.15299987792969 179.86000061035156 107.2229995727539 170.75999450683594 112.26300048828125 166.0" stroke-width="3.0" fill="none" stroke="rgb(255, 0, 0)" stroke-opacity="1" stroke-linecap="round" stroke-linejoin="round"/>
    <path d="M 142.35000610351562 118.04000091552734 C 141.79299926757812 113.82099914550781 148.29800415039062 121.4749984741211 154.02000427246094 117.18199920654297" stroke-width="3.0" fill="none" stroke="rgb(0, 0, 255)" stroke-opacity="1" stroke-linecap="round" stroke-linejoin="round"/>
    <path d="M 153.06900024414062 126.03800201416016 C 153.4429931640625 120.3280029296875 160.18299865722656 130.14599609375 168.18299865722656 116.28900146484375" stroke-width="3.0" fill="none" stroke="rgb(0, 0, 255)" stroke-opacity="1" stroke-linecap="round" stroke-linejoin="round"/>
    <path d="M 148.0659942626953 141.77499389648438 C 161.37100219726562 127.16400146484375 154.4669952392578 113.27200317382812 153.77000427246094 127.20700073242188" stroke-width="3.0" fill="none" stroke="rgb(0, 0, 255)" stroke-opacity="1" stroke-linecap="round" stroke-linejoin="round"/>
    <path d="M 154.43299865722656 114.46800231933594 C 143.95599365234375 147.14199829101562 160.08599853515625 116.34700012207031 156.2310028076172 112.68599700927734" stroke-width="3.0" fill="none" stroke="rgb(0, 0, 255)" stroke-opacity="1" stroke-linecap="round" stroke-linejoin="round"/>
    <path d="M 154.27200317382812 120.35399627685547 C 146.76100158691406 103.12699890136719 165.63400268554688 108.43299865722656 156.906005859375 117.23300170898438" stroke-width="3.0" fill="none" stroke="rgb(0, 0, 255)" stroke-opacity="1" stroke-linecap="round" stroke-linejoin="round"/>
    <path d="M 151.2740020751953 134.53199768066406 C 149.88299560546875 144.65499877929688 144.1009979248047 130.8090057373047 150.8459930419922 129.20599365234375" stroke-width="3.0" fill="none" stroke="rgb(0, 0, 255)" stroke-opacity="1" stroke-linecap="round" stroke-linejoin="round"/>
    <path d="M 137.4770050048828 81.72869873046875 C 103.41200256347656 94.36959838867188 97.45670318603516 71.4354019165039 123.53900146484375 68.21399688720703" stroke-width="3.0" fill="none" stroke="rgb(0, 255, 0)" stroke-opacity="1" stroke-linecap="round" stroke-linejoin="round"/>
    <path d="M 118.37799835205078 94.45939636230469 C 138.24600219726562 87.41519927978516 152.5679931640625 90.3230972290039 114.89900207519531 93.75019836425781" stroke-width="3.0" fill="none" stroke="rgb(0, 255, 0)" stroke-opacity="1" stroke-linecap="round" stroke-linejoin="round"/>
    <path d="M 225.625 50.597599029541016 C 241.2449951171875 41.4474983215332 213.5749969482422 45.8568000793457 202.44400024414062 59.15489959716797" stroke-width="3.0" fill="none" stroke="rgb(0, 255, 0)" stroke-opacity="1" stroke-linecap="round" stroke-linejoin="round"/>
    <path d="M 111.08100128173828 104.9520034790039 C 90.14140319824219 111.81999969482422 137.76100158691406 105.99600219726562 136.83700561523438 99.0" stroke-width="3.0" fill="none" stroke="rgb(0, 255, 0)" stroke-opacity="1" stroke-linecap="round" stroke-linejoin="round"/>
    <path d="M 157.90499877929688 86.0114974975586 C 120.60900115966797 68.59639739990234 156.50900268554688 67.87129974365234 133.9530029296875 62.776100158691406" stroke-width="3.0" fill="none" stroke="rgb(0, 255, 0)" stroke-opacity="1" stroke-linecap="round" stroke-linejoin="round"/>
    <path d="M 95.964599609375 106.56300354003906 C 76.60099792480469 99.48829650878906 74.9458999633789 107.11499786376953 76.59529876708984 93.60079956054688" stroke-width="3.0" fill="none" stroke="rgb(0, 255, 0)" stroke-opacity="1" stroke-linecap="round" stroke-linejoin="round"/>
    <path d="M 159.93600463867188 67.89759826660156 C 211.07000732421875 63.371498107910156 226.625 54.14459991455078 132.63299560546875 69.53359985351562" stroke-width="3.0" fill="none" stroke="rgb(0, 255, 0)" stroke-opacity="1" stroke-linecap="round" stroke-linejoin="round"/>
    <path d="M 107.88899993896484 86.14620208740234 C 92.04869842529297 88.63059997558594 104.28800201416016 84.10859680175781 101.6729965209961 103.37999725341797" stroke-width="3.0" fill="none" stroke="rgb(0, 255, 0)" stroke-opacity="1" stroke-linecap="round" stroke-linejoin="round"/>
    <path d="M 144.16000366210938 84.68260192871094 C 148.08999633789062 97.44239807128906 153.05799865722656 91.84420013427734 155.1300048828125 77.2061996459961" stroke-width="3.0" fill="none" stroke="rgb(0, 255, 0)" stroke-opacity="1" stroke-linecap="round" stroke-linejoin="round"/>
  </g>
</svg>
