<?xml version="1.0" ?>
<svg xmlns="http://www.w3.org/2000/svg" version="1.1" width="256" height="256">
  <defs/>
  <g>
    <path d="M 76.87039947509766 157.218994140625 C 87.97969818115234 166.41700744628906 80.17040252685547 170.45399475097656 127.33399963378906 164.30799865722656" stroke-width="2.0" fill="none" stroke="rgb(255, 0, 0)" stroke-opacity="1" stroke-linecap="round" stroke-linejoin="round"/>
    <path d="M 73.193603515625 164.95199584960938 C 66.65390014648438 162.55099487304688 65.28610229492188 177.70899963378906 114.02200317382812 171.02200317382812" stroke-width="2.0" fill="none" stroke="rgb(255, 0, 0)" stroke-opacity="1" stroke-linecap="round" stroke-linejoin="round"/>
    <path d="M 92.87960052490234 163.98199462890625 C 109.5770034790039 145.12399291992188 106.71399688720703 167.29400634765625 79.86180114746094 158.5" stroke-width="2.0" fill="none" stroke="rgb(255, 0, 0)" stroke-opacity="1" stroke-linecap="round" stroke-linejoin="round"/>
    <path d="M 149.8249969482422 170.6739959716797 C 159.51499938964844 153.51600646972656 142.7429962158203 151.3209991455078 160.23399353027344 173.1060028076172" stroke-width="2.0" fill="none" stroke="rgb(0, 255, 0)" stroke-opacity="1" stroke-linecap="round" stroke-linejoin="round"/>
    <path d="M 132.42999267578125 166.85699462890625 C 121.37799835205078 145.9199981689453 112.00499725341797 150.25799560546875 112.7770004272461 136.36500549316406" stroke-width="2.0" fill="none" stroke="rgb(0, 0, 255)" stroke-opacity="1" stroke-linecap="round" stroke-linejoin="round"/>
    <path d="M 117.72599792480469 162.21600341796875 C 97.28350067138672 178.0240020751953 95.85970306396484 159.1300048828125 74.05850219726562 165.72900390625" stroke-width="2.0" fill="none" stroke="rgb(255, 0, 0)" stroke-opacity="1" stroke-linecap="round" stroke-linejoin="round"/>
    <path d="M 122.24700164794922 166.4550018310547 C 120.36199951171875 140.42300415039062 111.10900115966797 136.42999267578125 116.60099792480469 173.29800415039062" stroke-width="2.0" fill="none" stroke="rgb(0, 0, 255)" stroke-opacity="1" stroke-linecap="round" stroke-linejoin="round"/>
    <path d="M 118.01300048828125 147.6199951171875 C 124.81900024414062 115.7040023803711 104.96600341796875 129.3000030517578 126.11699676513672 168.8459930419922" stroke-width="2.0" fill="none" stroke="rgb(0, 0, 255)" stroke-opacity="1" stroke-linecap="round" stroke-linejoin="round"/>
    <path d="M 72.19100189208984 172.43099975585938 C 92.89409637451172 176.06399536132812 153.85699462890625 179.2239990234375 122.0719985961914 147.35299682617188" stroke-width="2.0" fill="none" stroke="rgb(255, 0, 0)" stroke-opacity="1" stroke-linecap="round" stroke-linejoin="round"/>
    <path d="M 191.99099731445312 131.843994140625 C 190.44400024414062 139.44000244140625 196.3300018310547 132.01499938964844 196.40899658203125 156.4600067138672" stroke-width="2.0" fill="none" stroke="rgb(0, 255, 0)" stroke-opacity="1" stroke-linecap="round" stroke-linejoin="round"/>
    <path d="M 96.01930236816406 160.25900268554688 C 77.49859619140625 164.67100524902344 66.09919738769531 144.4409942626953 120.16699981689453 165.12399291992188" stroke-width="2.0" fill="none" stroke="rgb(255, 0, 0)" stroke-opacity="1" stroke-linecap="round" stroke-linejoin="round"/>
    <path d="M 148.3470001220703 126.177001953125 C 141.92100524902344 100.54499816894531 148.64100646972656 89.489501953125 159.20599365234375 83.19090270996094" stroke-width="2.0" fill="none" stroke="rgb(0, 255, 0)" stroke-opacity="1" stroke-linecap="round" stroke-linejoin="round"/>
    <path d="M 147.6649932861328 83.09950256347656 C 172.9499969482422 77.470703125 136.58399963378906 79.26490020751953 173.35499572753906 117.9800033569336" stroke-width="2.0" fill="none" stroke="rgb(0, 255, 0)" stroke-opacity="1" stroke-linecap="round" stroke-linejoin="round"/>
    <path d="M 153.28599548339844 87.4292984008789 C 123.90699768066406 88.73750305175781 166.98199462890625 67.65519714355469 167.10299682617188 94.80970001220703" stroke-width="2.0" fill="none" stroke="rgb(0, 255, 0)" stroke-opacity="1" stroke-linecap="round" stroke-linejoin="round"/>
    <path d="M 141.11000061035156 170.56300354003906 C 186.87600708007812 172.48300170898438 143.03199768066406 174.3780059814453 155.7429962158203 157.0959930419922" stroke-width="2.0" fill="none" stroke="rgb(0, 255, 0)" stroke-opacity="1" stroke-linecap="round" stroke-linejoin="round"/>
    <path d="M 149.75799560546875 168.86700439453125 C 157.11599731445312 176.8520050048828 173.33700561523438 172.02000427246094 147.29600524902344 173.4409942626953" stroke-width="2.0" fill="none" stroke="rgb(0, 255, 0)" stroke-opacity="1" stroke-linecap="round" stroke-linejoin="round"/>
    <path d="M 118.73400115966797 168.0800018310547 C 153.04400634765625 174.70199584960938 143.79100036621094 174.86700439453125 164.01100158691406 172.5800018310547" stroke-width="2.0" fill="none" stroke="rgb(0, 255, 0)" stroke-opacity="1" stroke-linecap="round" stroke-linejoin="round"/>
    <path d="M 128.25900268554688 161.57000732421875 C 84.74340057373047 156.80099487304688 41.45159912109375 162.94700622558594 98.66470336914062 168.8000030517578" stroke-width="2.0" fill="none" stroke="rgb(255, 0, 0)" stroke-opacity="1" stroke-linecap="round" stroke-linejoin="round"/>
    <path d="M 162.3040008544922 173.55799865722656 C 142.31500244140625 166.8939971923828 148.75999450683594 159.65699768066406 156.74899291992188 170.3000030517578" stroke-width="2.0" fill="none" stroke="rgb(0, 255, 0)" stroke-opacity="1" stroke-linecap="round" stroke-linejoin="round"/>
    <path d="M 140.92999267578125 104.75499725341797 C 154.6320037841797 57.53340148925781 128.61599731445312 95.7677001953125 168.16099548339844 99.22090148925781" stroke-width="2.0" fill="none" stroke="rgb(0, 255, 0)" stroke-opacity="1" stroke-linecap="round" stroke-linejoin="round"/>
    <path d="M 152.03700256347656 121.31099700927734 C 134.33399963378906 82.44719696044922 152.2449951171875 69.756103515625 135.24200439453125 94.40370178222656" stroke-width="2.0" fill="none" stroke="rgb(0, 255, 0)" stroke-opacity="1" stroke-linecap="round" stroke-linejoin="round"/>
    <path d="M 92.06390380859375 166.7790069580078 C 114.64800262451172 166.8560028076172 89.87319946289062 168.52200317382812 65.2300033569336 166.51100158691406" stroke-width="2.0" fill="none" stroke="rgb(255, 0, 0)" stroke-opacity="1" stroke-linecap="round" stroke-linejoin="round"/>
    <path d="M 121.78099822998047 151.9080047607422 C 129.6739959716797 151.26800537109375 110.86199951171875 130.77699279785156 122.0780029296875 166.78700256347656" stroke-width="2.0" fill="none" stroke="rgb(0, 0, 255)" stroke-opacity="1" stroke-linecap="round" stroke-linejoin="round"/>
    <path d="M 150.68699645996094 93.90039825439453 C 145.67100524902344 126.95600128173828 162.8520050048828 128.63299560546875 153.18299865722656 117.11000061035156" stroke-width="2.0" fill="none" stroke="rgb(0, 255, 0)" stroke-opacity="1" stroke-linecap="round" stroke-linejoin="round"/>
    <path d="M 86.94509887695312 167.80499267578125 C 50.614898681640625 157.68800354003906 75.885498046875 162.18699645996094 143.6060028076172 164.67799377441406" stroke-width="2.0" fill="none" stroke="rgb(255, 0, 0)" stroke-opacity="1" stroke-linecap="round" stroke-linejoin="round"/>
    <path d="M 155.26499938964844 169.27000427246094 C 148.9250030517578 148.3800048828125 146.9759979248047 168.74400329589844 151.31199645996094 163.7050018310547" stroke-width="2.0" fill="none" stroke="rgb(0, 255, 0)" stroke-opacity="1" stroke-linecap="round" stroke-linejoin="round"/>
    <path d="M 121.5530014038086 170.8260040283203 C 79.63899993896484 178.052001953125 40.25360107421875 157.2519989013672 91.26809692382812 168.11500549316406" stroke-width="2.0" fill="none" stroke="rgb(255, 0, 0)" stroke-opacity="1" stroke-linecap="round" stroke-linejoin="round"/>
    <path d="M 163.9290008544922 96.26129913330078 C 173.41099548339844 63.21770095825195 132.46299743652344 83.6781997680664 162.1179962158203 83.78240203857422" stroke-width="2.0" fill="none" stroke="rgb(0, 255, 0)" stroke-opacity="1" stroke-linecap="round" stroke-linejoin="round"/>
    <path d="M 73.67739868164062 163.44900512695312 C 113.33300018310547 173.77999877929688 109.94100189208984 153.54200744628906 117.28500366210938 172.35400390625" stroke-width="2.0" fill="none" stroke="rgb(255, 0, 0)" stroke-opacity="1" stroke-linecap="round" stroke-linejoin="round"/>
    <path d="M 134.7480010986328 169.10699462890625 C 103.45099639892578 167.7570037841797 106.2020034790039 143.70599365234375 76.40440368652344 163.7779998779297" stroke-width="2.0" fill="none" stroke="rgb(255, 0, 0)" stroke-opacity="1" stroke-linecap="round" stroke-linejoin="round"/>
    <path d="M 199.0760040283203 167.81300354003906 C 205.61099243164062 181.46800231933594 215.59500122070312 177.33299255371094 198.6219940185547 170.21800231933594" stroke-width="2.0" fill="none" stroke="rgb(0, 255, 0)" stroke-opacity="1" stroke-linecap="round" stroke-linejoin="round"/>
    <path d="M 121.73200225830078 164.03599548339844 C 129.00599670410156 130.7209930419922 128.1280059814453 135.89999389648438 124.0260009765625 167.88099670410156" stroke-width="2.0" fill="none" stroke="rgb(0, 0, 255)" stroke-opacity="1" stroke-linecap="round" stroke-linejoin="round"/>
    <path d="M 117.53800201416016 165.3800048828125 C 106.61299896240234 156.33900451660156 130.14199829101562 125.33899688720703 128.552001953125 169.18099975585938" stroke-width="2.0" fill="none" stroke="rgb(0, 0, 255)" stroke-opacity="1" stroke-linecap="round" stroke-linejoin="round"/>
    <path d="M 99.2782974243164 155.3719940185547 C 27.484100341796875 164.76600646972656 113.53700256347656 171.2480010986328 125.78800201416016 156.625" stroke-width="2.0" fill="none" stroke="rgb(255, 0, 0)" stroke-opacity="1" stroke-linecap="round" stroke-linejoin="round"/>
    <path d="M 146.48399353027344 79.05239868164062 C 162.6790008544922 91.69740295410156 188.83900451660156 101.94599914550781 136.82000732421875 93.86470031738281" stroke-width="2.0" fill="none" stroke="rgb(0, 255, 0)" stroke-opacity="1" stroke-linecap="round" stroke-linejoin="round"/>
    <path d="M 131.60000610351562 171.5989990234375 C 163.15199279785156 173.46200561523438 116.1709976196289 173.65899658203125 154.625 168.04200744628906" stroke-width="2.0" fill="none" stroke="rgb(0, 255, 0)" stroke-opacity="1" stroke-linecap="round" stroke-linejoin="round"/>
    <path d="M 162.88299560546875 88.11109924316406 C 132.4510040283203 92.14839935302734 145.1020050048828 105.12200164794922 166.26100158691406 116.49400329589844" stroke-width="2.0" fill="none" stroke="rgb(0, 255, 0)" stroke-opacity="1" stroke-linecap="round" stroke-linejoin="round"/>
    <path d="M 155.5590057373047 101.81500244140625 C 142.6529998779297 97.58999633789062 124.55000305175781 88.02760314941406 159.3300018310547 79.27780151367188" stroke-width="2.0" fill="none" stroke="rgb(0, 255, 0)" stroke-opacity="1" stroke-linecap="round" stroke-linejoin="round"/>
    <path d="M 147.83399963378906 119.91000366210938 C 181.2790069580078 108.47799682617188 168.89599609375 122.73400115966797 145.81700134277344 89.4197006225586" stroke-width="2.0" fill="none" stroke="rgb(0, 255, 0)" stroke-opacity="1" stroke-linecap="round" stroke-linejoin="round"/>
    <path d="M 166.73199462890625 101.78800201416016 C 162.81100463867188 93.74169921875 178.2270050048828 106.61199951171875 147.86000061035156 112.4020004272461" stroke-width="2.0" fill="none" stroke="rgb(0, 255, 0)" stroke-opacity="1" stroke-linecap="round" stroke-linejoin="round"/>
    <path d="M 126.5999984741211 162.1280059814453 C 93.89749908447266 162.88099670410156 140.97500610351562 172.0989990234375 85.5635986328125 169.38999938964844" stroke-width="2.0" fill="none" stroke="rgb(255, 0, 0)" stroke-opacity="1" stroke-linecap="round" stroke-linejoin="round"/>
    <path d="M 136.49200439453125 154.93099975585938 C 135.1479949951172 175.73199462890625 150.13400268554688 158.5189971923828 156.61000061035156 174.2899932861328" stroke-width="2.0" fill="none" stroke="rgb(0, 255, 0)" stroke-opacity="1" stroke-linecap="round" stroke-linejoin="round"/>
    <path d="M 155.35400390625 120.2959976196289 C 137.3990020751953 54.32440185546875 187.36399841308594 94.36609649658203 153.0800018310547 121.14199829101562" stroke-width="2.0" fill="none" stroke="rgb(0, 255, 0)" stroke-opacity="1" stroke-linecap="round" stroke-linejoin="round"/>
    <path d="M 145.7570037841797 103.45800018310547 C 180.55999755859375 125.9229965209961 127.55999755859375 98.40370178222656 156.82000732421875 115.93699645996094" stroke-width="2.0" fill="none" stroke="rgb(0, 255, 0)" stroke-opacity="1" stroke-linecap="round" stroke-linejoin="round"/>
    <path d="M 165.6009979248047 106.83699798583984 C 119.70800018310547 109.55999755859375 181.54299926757812 120.55999755859375 157.0659942626953 80.29669952392578" stroke-width="2.0" fill="none" stroke="rgb(0, 255, 0)" stroke-opacity="1" stroke-linecap="round" stroke-linejoin="round"/>
    <path d="M 96.94200134277344 168.86399841308594 C 153.94700622558594 159.3560028076172 176.83799743652344 178.2530059814453 130.8090057373047 164.7469940185547" stroke-width="2.0" fill="none" stroke="rgb(0, 255, 0)" stroke-opacity="1" stroke-linecap="round" stroke-linejoin="round"/>
    <path d="M 141.53199768066406 87.38390350341797 C 164.92599487304688 110.34500122070312 161.60499572753906 91.83399963378906 156.89100646972656 113.56099700927734" stroke-width="2.0" fill="none" stroke="rgb(0, 255, 0)" stroke-opacity="1" stroke-linecap="round" stroke-linejoin="round"/>
    <path d="M 122.91699981689453 164.63499450683594 C 124.48899841308594 134.17599487304688 106.80500030517578 141.92300415039062 118.7699966430664 172.16200256347656" stroke-width="2.0" fill="none" stroke="rgb(0, 0, 255)" stroke-opacity="1" stroke-linecap="round" stroke-linejoin="round"/>
    <path d="M 157.54600524902344 83.85820007324219 C 130.70199584960938 93.1416015625 146.1490020751953 122.63999938964844 164.88400268554688 111.30400085449219" stroke-width="2.0" fill="none" stroke="rgb(0, 255, 0)" stroke-opacity="1" stroke-linecap="round" stroke-linejoin="round"/>
    <path d="M 142.73899841308594 97.94519805908203 C 184.51699829101562 86.26709747314453 165.30299377441406 122.15699768066406 149.89700317382812 84.28189849853516" stroke-width="2.0" fill="none" stroke="rgb(0, 255, 0)" stroke-opacity="1" stroke-linecap="round" stroke-linejoin="round"/>
    <path d="M 167.4969940185547 82.97450256347656 C 145.45700073242188 94.91510009765625 140.75900268554688 80.26699829101562 164.468994140625 87.47319793701172" stroke-width="2.0" fill="none" stroke="rgb(0, 255, 0)" stroke-opacity="1" stroke-linecap="round" stroke-linejoin="round"/>
    <path d="M 148.89999389648438 119.90499877929688 C 168.51800537109375 65.56549835205078 151.9600067138672 92.37049865722656 168.7209930419922 116.89099884033203" stroke-width="2.0" fill="none" stroke="rgb(0, 255, 0)" stroke-opacity="1" stroke-linecap="round" stroke-linejoin="round"/>
    <path d="M 147.52000427246094 102.2249984741211 C 190.11599731445312 102.93900299072266 138.60499572753906 94.53070068359375 159.71400451660156 117.48899841308594" stroke-width="2.0" fill="none" stroke="rgb(0, 255, 0)" stroke-opacity="1" stroke-linecap="round" stroke-linejoin="round"/>
    <path d="M 122.37300109863281 137.04100036621094 C 100.98600006103516 162.6540069580078 119.27899932861328 178.41400146484375 116.83899688720703 133.9340057373047" stroke-width="2.0" fill="none" stroke="rgb(0, 0, 255)" stroke-opacity="1" stroke-linecap="round" stroke-linejoin="round"/>
    <path d="M 195.03500366210938 164.67799377441406 C 206.99600219726562 178.28700256347656 209.8159942626953 171.73399353027344 192.86000061035156 163.33399963378906" stroke-width="2.0" fill="none" stroke="rgb(0, 255, 0)" stroke-opacity="1" stroke-linecap="round" stroke-linejoin="round"/>
    <path d="M 156.2729949951172 94.2677993774414 C 139.32200622558594 78.7313003540039 141.51400756835938 103.22200012207031 155.8350067138672 120.78900146484375" stroke-width="2.0" fill="none" stroke="rgb(0, 255, 0)" stroke-opacity="1" stroke-linecap="round" stroke-linejoin="round"/>
    <path d="M 146.00100708007812 174.33700561523438 C 58.035499572753906 185.16700744628906 16.362899780273438 173.7429962158203 79.05950164794922 173.7209930419922" stroke-width="2.0" fill="none" stroke="rgb(0, 255, 0)" stroke-opacity="1" stroke-linecap="round" stroke-linejoin="round"/>
    <path d="M 158.30999755859375 78.28910064697266 C 149.1529998779297 92.54910278320312 120.25299835205078 96.67729949951172 153.8179931640625 77.0" stroke-width="2.0" fill="none" stroke="rgb(0, 255, 0)" stroke-opacity="1" stroke-linecap="round" stroke-linejoin="round"/>
    <path d="M 74.466796875 165.5590057373047 C 88.16419982910156 147.77000427246094 100.0989990234375 170.7530059814453 69.17769622802734 161.7530059814453" stroke-width="2.0" fill="none" stroke="rgb(255, 0, 0)" stroke-opacity="1" stroke-linecap="round" stroke-linejoin="round"/>
    <path d="M 120.5260009765625 135.90899658203125 C 107.62200164794922 169.9199981689453 124.5009994506836 163.15199279785156 148.593994140625 171.11500549316406" stroke-width="2.0" fill="none" stroke="rgb(0, 0, 255)" stroke-opacity="1" stroke-linecap="round" stroke-linejoin="round"/>
    <path d="M 151.3560028076172 92.91329956054688 C 178.5330047607422 83.10230255126953 137.6199951171875 72.6688003540039 154.86900329589844 106.56700134277344" stroke-width="2.0" fill="none" stroke="rgb(0, 255, 0)" stroke-opacity="1" stroke-linecap="round" stroke-linejoin="round"/>
    <path d="M 173.4040069580078 116.54499816894531 C 193.5970001220703 119.66300201416016 189.47500610351562 122.1780014038086 195.13499450683594 151.7449951171875" stroke-width="2.0" fill="none" stroke="rgb(0, 255, 0)" stroke-opacity="1" stroke-linecap="round" stroke-linejoin="round"/>
    <path d="M 150.3159942626953 117.64099884033203 C 168.06199645996094 74.26080322265625 155.19500732421875 76.28589630126953 136.58399963378906 98.785400390625" stroke-width="2.0" fill="none" stroke="rgb(0, 255, 0)" stroke-opacity="1" stroke-linecap="round" stroke-linejoin="round"/>
    <path d="M 141.79400634765625 123.72799682617188 C 127.5780029296875 125.41400146484375 129.41299438476562 138.04400634765625 125.99800109863281 169.91099548339844" stroke-width="2.0" fill="none" stroke="rgb(0, 0, 255)" stroke-opacity="1" stroke-linecap="round" stroke-linejoin="round"/>
    <path d="M 167.38099670410156 114.64199829101562 C 154.34500122070312 109.60199737548828 139.4340057373047 136.82200622558594 167.39500427246094 114.86499786376953" stroke-width="2.0" fill="none" stroke="rgb(0, 255, 0)" stroke-opacity="1" stroke-linecap="round" stroke-linejoin="round"/>
    <path d="M 166.33200073242188 112.3489990234375 C 132.38099670410156 120.00800323486328 142.97500610351562 128.28700256347656 166.25999450683594 113.28299713134766" stroke-width="2.0" fill="none" stroke="rgb(0, 255, 0)" stroke-opacity="1" stroke-linecap="round" stroke-linejoin="round"/>
    <path d="M 115.96800231933594 141.77999877929688 C 134.1269989013672 125.6989974975586 111.78399658203125 159.57400512695312 114.89900207519531 134.15699768066406" stroke-width="2.0" fill="none" stroke="rgb(0, 0, 255)" stroke-opacity="1" stroke-linecap="round" stroke-linejoin="round"/>
    <path d="M 156.88499450683594 117.43399810791016 C 185.88900756835938 72.44129943847656 145.77999877929688 74.21880340576172 152.98199462890625 84.810302734375" stroke-width="2.0" fill="none" stroke="rgb(0, 255, 0)" stroke-opacity="1" stroke-linecap="round" stroke-linejoin="round"/>
    <path d="M 151.53900146484375 157.7729949951172 C 142.7790069580078 171.33200073242188 173.14300537109375 172.8040008544922 146.15199279785156 173.9709930419922" stroke-width="2.0" fill="none" stroke="rgb(0, 255, 0)" stroke-opacity="1" stroke-linecap="round" stroke-linejoin="round"/>
    <path d="M 73.23750305175781 161.7259979248047 C 99.19110107421875 174.6269989013672 73.5823974609375 161.91799926757812 102.56400299072266 160.53199768066406" stroke-width="2.0" fill="none" stroke="rgb(255, 0, 0)" stroke-opacity="1" stroke-linecap="round" stroke-linejoin="round"/>
    <path d="M 155.43899536132812 121.70800018310547 C 178.89999389648438 104.46299743652344 156.1300048828125 110.5790023803711 139.01499938964844 123.6989974975586" stroke-width="2.0" fill="none" stroke="rgb(0, 255, 0)" stroke-opacity="1" stroke-linecap="round" stroke-linejoin="round"/>
    <path d="M 69.62329864501953 163.83099365234375 C 115.64900207519531 145.63600158691406 71.41850280761719 176.4929962158203 112.86699676513672 167.47500610351562" stroke-width="2.0" fill="none" stroke="rgb(255, 0, 0)" stroke-opacity="1" stroke-linecap="round" stroke-linejoin="round"/>
    <path d="M 140.96600341796875 90.89019775390625 C 142.35400390625 119.23100280761719 142.53900146484375 118.73400115966797 165.19700622558594 102.08300018310547" stroke-width="2.0" fill="none" stroke="rgb(0, 255, 0)" stroke-opacity="1" stroke-linecap="round" stroke-linejoin="round"/>
    <path d="M 193.63699340820312 163.13800048828125 C 201.3300018310547 149.41700744628906 190.33700561523438 156.3800048828125 193.4239959716797 144.66700744628906" stroke-width="2.0" fill="none" stroke="rgb(0, 255, 0)" stroke-opacity="1" stroke-linecap="round" stroke-linejoin="round"/>
    <path d="M 74.15119934082031 167.10000610351562 C 108.77100372314453 168.70199584960938 138.66200256347656 162.71800231933594 79.14749908447266 159.7209930419922" stroke-width="2.0" fill="none" stroke="rgb(255, 0, 0)" stroke-opacity="1" stroke-linecap="round" stroke-linejoin="round"/>
    <path d="M 148.76199340820312 123.87300109863281 C 170.52000427246094 115.16799926757812 156.88499450683594 109.36399841308594 182.49899291992188 119.52300262451172" stroke-width="2.0" fill="none" stroke="rgb(0, 255, 0)" stroke-opacity="1" stroke-linecap="round" stroke-linejoin="round"/>
    <path d="M 154.03799438476562 169.19900512695312 C 156.97000122070312 184.66799926757812 139.73899841308594 152.57000732421875 153.5330047607422 164.12899780273438" stroke-width="2.0" fill="none" stroke="rgb(0, 255, 0)" stroke-opacity="1" stroke-linecap="round" stroke-linejoin="round"/>
    <path d="M 154.66099548339844 81.2926025390625 C 130.29200744628906 92.1238021850586 141.06300354003906 86.79280090332031 163.4290008544922 97.42479705810547" stroke-width="2.0" fill="none" stroke="rgb(0, 255, 0)" stroke-opacity="1" stroke-linecap="round" stroke-linejoin="round"/>
    <path d="M 128.98899841308594 162.9969940185547 C 44.19260025024414 164.2570037841797 69.78150177001953 169.6439971923828 105.92500305175781 161.76300048828125" stroke-width="2.0" fill="none" stroke="rgb(255, 0, 0)" stroke-opacity="1" stroke-linecap="round" stroke-linejoin="round"/>
    <path d="M 128.927001953125 97.86499786376953 C 136.0290069580078 113.43800354003906 107.9800033569336 143.71600341796875 126.08200073242188 143.89300537109375" stroke-width="2.0" fill="none" stroke="rgb(0, 0, 255)" stroke-opacity="1" stroke-linecap="round" stroke-linejoin="round"/>
    <path d="M 128.88800048828125 99.86499786376953 C 125.00299835205078 110.1510009765625 122.18299865722656 118.29399871826172 116.88800048828125 129.86500549316406" stroke-width="2.0" fill="none" stroke="rgb(0, 0, 255)" stroke-opacity="1" stroke-linecap="round" stroke-linejoin="round"/>
    <path d="M 150.3260040283203 124.3499984741211 C 144.3000030517578 93.90760040283203 118.85399627685547 103.15599822998047 158.36300659179688 78.64749908447266" stroke-width="2.0" fill="none" stroke="rgb(0, 255, 0)" stroke-opacity="1" stroke-linecap="round" stroke-linejoin="round"/>
    <path d="M 66.71099853515625 163.5050048828125 C 76.90750122070312 164.0989990234375 96.26509857177734 163.15499877929688 95.86759948730469 153.18800354003906" stroke-width="2.0" fill="none" stroke="rgb(255, 0, 0)" stroke-opacity="1" stroke-linecap="round" stroke-linejoin="round"/>
    <path d="M 159.3209991455078 80.0082015991211 C 167.89300537109375 87.35009765625 164.14500427246094 100.802001953125 144.77000427246094 80.79070281982422" stroke-width="2.0" fill="none" stroke="rgb(0, 255, 0)" stroke-opacity="1" stroke-linecap="round" stroke-linejoin="round"/>
    <path d="M 166.5959930419922 105.6719970703125 C 175.25100708007812 67.15670013427734 151.88400268554688 80.81800079345703 157.38900756835938 113.08300018310547" stroke-width="2.0" fill="none" stroke="rgb(0, 255, 0)" stroke-opacity="1" stroke-linecap="round" stroke-linejoin="round"/>
  </g>
</svg>
