<?xml version="1.0" ?>
<svg xmlns="http://www.w3.org/2000/svg" version="1.1" width="256" height="256">
  <defs/>
  <g>
    <path d="M 124.13999938964844 167.81199645996094 C 122.41400146484375 213.65199279785156 123.48300170898438 203.81700134277344 126.15399932861328 208.13999938964844" stroke-width="1.0" fill="none" stroke="rgb(0, 0, 0)" stroke-opacity="1" stroke-linecap="round" stroke-linejoin="round"/>
    <path d="M 126.18399810791016 209.97799682617188 C 122.60399627685547 227.58200073242188 120.58999633789062 205.54299926757812 123.15499877929688 182.94000244140625" stroke-width="1.0" fill="none" stroke="rgb(0, 0, 0)" stroke-opacity="1" stroke-linecap="round" stroke-linejoin="round"/>
    <path d="M 128.42999267578125 172.5659942626953 C 132.10499572753906 168.3560028076172 144.8679962158203 161.31100463867188 137.71600341796875 166.45700073242188" stroke-width="1.0" fill="none" stroke="rgb(0, 0, 0)" stroke-opacity="1" stroke-linecap="round" stroke-linejoin="round"/>
    <path d="M 144.26300048828125 190.16200256347656 C 145.79100036621094 178.0240020751953 143.552001953125 201.38499450683594 143.27699279785156 174.1529998779297" stroke-width="1.0" fill="none" stroke="rgb(0, 0, 0)" stroke-opacity="1" stroke-linecap="round" stroke-linejoin="round"/>
    <path d="M 132.16000366210938 179.24899291992188 C 136.09300231933594 175.43299865722656 150.5189971923828 172.48899841308594 143.95599365234375 168.4040069580078" stroke-width="1.0" fill="none" stroke="rgb(0, 0, 0)" stroke-opacity="1" stroke-linecap="round" stroke-linejoin="round"/>
    <path d="M 129.30999755859375 171.8249969482422 C 158.26800537109375 157.6999969482422 141.9810028076172 163.36000061035156 126.96099853515625 170.71099853515625" stroke-width="1.0" fill="none" stroke="rgb(0, 0, 0)" stroke-opacity="1" stroke-linecap="round" stroke-linejoin="round"/>
    <path d="M 122.16000366210938 216.17999267578125 C 124.01200103759766 173.1750030517578 122.05599975585938 188.41000366210938 123.37899780273438 212.12399291992188" stroke-width="1.0" fill="none" stroke="rgb(0, 0, 0)" stroke-opacity="1" stroke-linecap="round" stroke-linejoin="round"/>
    <path d="M 145.5500030517578 170.81900024414062 C 125.16999816894531 181.27999877929688 125.16100311279297 185.94400024414062 144.55599975585938 169.71600341796875" stroke-width="1.0" fill="none" stroke="rgb(0, 0, 0)" stroke-opacity="1" stroke-linecap="round" stroke-linejoin="round"/>
    <path d="M 123.75 215.08999633789062 C 125.75599670410156 148.55999755859375 124.52899932861328 147.59300231933594 124.09300231933594 178.25999450683594" stroke-width="1.0" fill="none" stroke="rgb(0, 0, 0)" stroke-opacity="1" stroke-linecap="round" stroke-linejoin="round"/>
    <path d="M 125.72899627685547 186.36300659179688 C 124.01699829101562 218.43299865722656 128.0279998779297 172.96400451660156 124.85700225830078 215.11000061035156" stroke-width="1.0" fill="none" stroke="rgb(0, 0, 0)" stroke-opacity="1" stroke-linecap="round" stroke-linejoin="round"/>
    <path d="M 125.17500305175781 165.16400146484375 C 129.84300231933594 165.16400146484375 146.87600708007812 151.4320068359375 142.20799255371094 157.9550018310547" stroke-width="1.0" fill="none" stroke="rgb(0, 0, 0)" stroke-opacity="1" stroke-linecap="round" stroke-linejoin="round"/>
    <path d="M 127.45999908447266 213.91200256347656 C 117.3479995727539 224.21099853515625 130.17100524902344 206.2310028076172 124.88400268554688 196.78199768066406" stroke-width="1.0" fill="none" stroke="rgb(0, 0, 0)" stroke-opacity="1" stroke-linecap="round" stroke-linejoin="round"/>
    <path d="M 128.74099731445312 180.63600158691406 C 144.94500732421875 173.05299377441406 143.23800659179688 173.83299255371094 128.27999877929688 181.8489990234375" stroke-width="1.0" fill="none" stroke="rgb(0, 0, 0)" stroke-opacity="1" stroke-linecap="round" stroke-linejoin="round"/>
    <path d="M 142.4250030517578 183.25799560546875 C 148.9149932861328 181.55999755859375 148.63999938964844 174.45899963378906 133.96499633789062 189.05799865722656" stroke-width="1.0" fill="none" stroke="rgb(0, 0, 0)" stroke-opacity="1" stroke-linecap="round" stroke-linejoin="round"/>
    <path d="M 128.0030059814453 159.81199645996094 C 126.43199920654297 218.75900268554688 128.28500366210938 207.93299865722656 124.4209976196289 200.08999633789062" stroke-width="1.0" fill="none" stroke="rgb(0, 0, 0)" stroke-opacity="1" stroke-linecap="round" stroke-linejoin="round"/>
    <path d="M 122.9530029296875 164.0330047607422 C 121.59100341796875 225.9510040283203 124.37799835205078 237.48800659179688 127.87999725341797 158.25399780273438" stroke-width="1.0" fill="none" stroke="rgb(0, 0, 0)" stroke-opacity="1" stroke-linecap="round" stroke-linejoin="round"/>
    <path d="M 128.08799743652344 192.15899658203125 C 148.5590057373047 182.19900512695312 154.9459991455078 166.0919952392578 132.96600341796875 190.1439971923828" stroke-width="1.0" fill="none" stroke="rgb(0, 0, 0)" stroke-opacity="1" stroke-linecap="round" stroke-linejoin="round"/>
    <path d="M 134.7270050048828 195.56399536132812 C 124.26799774169922 201.85499572753906 127.2760009765625 203.07000732421875 144.8280029296875 187.19400024414062" stroke-width="1.0" fill="none" stroke="rgb(0, 0, 0)" stroke-opacity="1" stroke-linecap="round" stroke-linejoin="round"/>
    <path d="M 127.52200317382812 214.19700622558594 C 128.26800537109375 200.00799560546875 124.36000061035156 210.61300659179688 145.1999969482422 192.31199645996094" stroke-width="1.0" fill="none" stroke="rgb(0, 0, 0)" stroke-opacity="1" stroke-linecap="round" stroke-linejoin="round"/>
    <path d="M 146.9080047607422 149.1439971923828 C 145.97000122070312 216.35000610351562 149.43299865722656 210.20599365234375 142.82699584960938 206.0540008544922" stroke-width="1.0" fill="none" stroke="rgb(0, 0, 0)" stroke-opacity="1" stroke-linecap="round" stroke-linejoin="round"/>
    <path d="M 142.91900634765625 207.22799682617188 C 143.85699462890625 140.02200317382812 140.3939971923828 146.16700744628906 147.0 150.31900024414062" stroke-width="1.0" fill="none" stroke="rgb(0, 0, 0)" stroke-opacity="1" stroke-linecap="round" stroke-linejoin="round"/>
    <path d="M 144.927001953125 187.43600463867188 C 138.52099609375 195.13099670410156 142.5229949951172 188.78599548339844 142.0019989013672 191.75100708007812" stroke-width="1.0" fill="none" stroke="rgb(0, 0, 0)" stroke-opacity="1" stroke-linecap="round" stroke-linejoin="round"/>
    <path d="M 168.63400268554688 133.80499267578125 C 155.36399841308594 153.95199584960938 146.67999267578125 148.37899780273438 174.59300231933594 132.2469940185547" stroke-width="1.0" fill="none" stroke="rgb(0, 0, 0)" stroke-opacity="1" stroke-linecap="round" stroke-linejoin="round"/>
    <path d="M 159.8350067138672 140.2519989013672 C 113.04299926757812 131.21499633789062 117.56700134277344 125.18299865722656 146.5800018310547 133.56100463867188" stroke-width="1.0" fill="none" stroke="rgb(0, 0, 0)" stroke-opacity="1" stroke-linecap="round" stroke-linejoin="round"/>
    <path d="M 142.41900634765625 136.61599731445312 C 119.31600189208984 148.9080047607422 115.96700286865234 127.08300018310547 136.2949981689453 144.11500549316406" stroke-width="1.0" fill="none" stroke="rgb(0, 0, 0)" stroke-opacity="1" stroke-linecap="round" stroke-linejoin="round"/>
    <path d="M 181.6280059814453 160.93699645996094 C 200.6820068359375 127.4749984741211 169.49899291992188 122.40499877929688 154.69400024414062 144.0399932861328" stroke-width="1.0" fill="none" stroke="rgb(0, 0, 0)" stroke-opacity="1" stroke-linecap="round" stroke-linejoin="round"/>
    <path d="M 134.0590057373047 139.9429931640625 C 123.47200012207031 128.06300354003906 146.38400268554688 105.93900299072266 122.66699981689453 120.30699920654297" stroke-width="1.0" fill="none" stroke="rgb(0, 0, 0)" stroke-opacity="1" stroke-linecap="round" stroke-linejoin="round"/>
    <path d="M 184.9219970703125 143.3820037841797 C 177.9199981689453 138.531005859375 194.968994140625 121.03299713134766 199.14100646972656 147.59100341796875" stroke-width="1.0" fill="none" stroke="rgb(0, 0, 0)" stroke-opacity="1" stroke-linecap="round" stroke-linejoin="round"/>
    <path d="M 114.43000030517578 103.62899780273438 C 95.69779968261719 124.2040023803711 108.80000305175781 149.88400268554688 111.00199890136719 105.43299865722656" stroke-width="1.0" fill="none" stroke="rgb(0, 0, 0)" stroke-opacity="1" stroke-linecap="round" stroke-linejoin="round"/>
    <path d="M 175.11900329589844 142.79100036621094 C 179.3979949951172 163.48199462890625 173.44700622558594 148.06399536132812 164.00999450683594 134.7729949951172" stroke-width="1.0" fill="none" stroke="rgb(0, 0, 0)" stroke-opacity="1" stroke-linecap="round" stroke-linejoin="round"/>
    <path d="M 181.76499938964844 144.1580047607422 C 194.31300354003906 178.94000244140625 198.6020050048828 177.15899658203125 191.1840057373047 167.58599853515625" stroke-width="1.0" fill="none" stroke="rgb(0, 0, 0)" stroke-opacity="1" stroke-linecap="round" stroke-linejoin="round"/>
    <path d="M 132.11399841308594 111.38099670410156 C 103.7229995727539 117.86000061035156 124.93599700927734 122.197998046875 140.21200561523438 144.718994140625" stroke-width="1.0" fill="none" stroke="rgb(0, 0, 0)" stroke-opacity="1" stroke-linecap="round" stroke-linejoin="round"/>
    <path d="M 178.75999450683594 153.06199645996094 C 185.09300231933594 119.1719970703125 188.39500427246094 139.36099243164062 180.6580047607422 156.69500732421875" stroke-width="1.0" fill="none" stroke="rgb(0, 0, 0)" stroke-opacity="1" stroke-linecap="round" stroke-linejoin="round"/>
    <path d="M 126.9000015258789 139.66000366210938 C 132.10800170898438 146.27000427246094 137.70199584960938 132.68099975585938 130.37399291992188 136.4720001220703" stroke-width="1.0" fill="none" stroke="rgb(0, 0, 0)" stroke-opacity="1" stroke-linecap="round" stroke-linejoin="round"/>
    <path d="M 167.5070037841797 125.61299896240234 C 193.8489990234375 130.8560028076172 209.76800537109375 149.1840057373047 166.4409942626953 131.2429962158203" stroke-width="1.0" fill="none" stroke="rgb(0, 0, 0)" stroke-opacity="1" stroke-linecap="round" stroke-linejoin="round"/>
    <path d="M 132.58999633789062 159.33999633789062 C 119.0270004272461 148.53700256347656 107.5250015258789 156.1490020751953 128.49400329589844 154.7449951171875" stroke-width="1.0" fill="none" stroke="rgb(0, 0, 0)" stroke-opacity="1" stroke-linecap="round" stroke-linejoin="round"/>
    <path d="M 137.1179962158203 91.44270324707031 C 137.18299865722656 84.81770324707031 139.1909942626953 89.02159881591797 130.71200561523438 85.61470031738281" stroke-width="1.0" fill="none" stroke="rgb(0, 0, 0)" stroke-opacity="1" stroke-linecap="round" stroke-linejoin="round"/>
    <path d="M 148.58399963378906 110.37699890136719 C 144.5540008544922 98.64730072021484 130.84300231933594 87.4229965209961 138.5240020751953 87.4613037109375" stroke-width="1.0" fill="none" stroke="rgb(0, 0, 0)" stroke-opacity="1" stroke-linecap="round" stroke-linejoin="round"/>
    <path d="M 133.1529998779297 85.04779815673828 C 138.4340057373047 88.35209655761719 122.1719970703125 87.10330200195312 133.03199768066406 88.40229797363281" stroke-width="1.0" fill="none" stroke="rgb(0, 0, 0)" stroke-opacity="1" stroke-linecap="round" stroke-linejoin="round"/>
    <path d="M 169.88900756835938 128.29100036621094 C 173.67300415039062 155.9770050048828 182.3780059814453 156.1840057373047 166.52099609375 134.01400756835938" stroke-width="1.0" fill="none" stroke="rgb(0, 0, 0)" stroke-opacity="1" stroke-linecap="round" stroke-linejoin="round"/>
    <path d="M 116.7959976196289 145.93499755859375 C 143.28799438476562 134.6790008544922 147.26199340820312 123.1989974975586 121.40799713134766 147.82400512695312" stroke-width="1.0" fill="none" stroke="rgb(0, 0, 0)" stroke-opacity="1" stroke-linecap="round" stroke-linejoin="round"/>
    <path d="M 187.24400329589844 134.7010040283203 C 140.73599243164062 142.7550048828125 157.93299865722656 144.21499633789062 190.2100067138672 141.1739959716797" stroke-width="1.0" fill="none" stroke="rgb(0, 0, 0)" stroke-opacity="1" stroke-linecap="round" stroke-linejoin="round"/>
    <path d="M 195.28700256347656 170.61199951171875 C 191.09300231933594 200.08599853515625 207.58299255371094 211.83900451660156 185.49200439453125 164.58799743652344" stroke-width="1.0" fill="none" stroke="rgb(0, 0, 0)" stroke-opacity="1" stroke-linecap="round" stroke-linejoin="round"/>
    <path d="M 138.2209930419922 138.39100646972656 C 142.9530029296875 127.32599639892578 160.99400329589844 152.4720001220703 149.6230010986328 146.1020050048828" stroke-width="1.0" fill="none" stroke="rgb(0, 0, 0)" stroke-opacity="1" stroke-linecap="round" stroke-linejoin="round"/>
    <path d="M 164.7480010986328 125.53800201416016 C 165.0399932861328 140.50399780273438 164.8769989013672 133.98899841308594 187.1840057373047 140.32400512695312" stroke-width="1.0" fill="none" stroke="rgb(0, 0, 0)" stroke-opacity="1" stroke-linecap="round" stroke-linejoin="round"/>
    <path d="M 181.5760040283203 151.01100158691406 C 184.10499572753906 127.30599975585938 202.83099365234375 126.3290023803711 182.9429931640625 161.12899780273438" stroke-width="1.0" fill="none" stroke="rgb(0, 0, 0)" stroke-opacity="1" stroke-linecap="round" stroke-linejoin="round"/>
    <path d="M 140.73899841308594 100.05500030517578 C 131.81500244140625 88.27030181884766 153.10400390625 100.28700256347656 156.16600036621094 105.90899658203125" stroke-width="1.0" fill="none" stroke="rgb(0, 0, 0)" stroke-opacity="1" stroke-linecap="round" stroke-linejoin="round"/>
    <path d="M 157.8249969482422 141.31399536132812 C 132.02699279785156 150.99899291992188 155.00100708007812 146.4320068359375 144.9530029296875 125.91600036621094" stroke-width="1.0" fill="none" stroke="rgb(0, 0, 0)" stroke-opacity="1" stroke-linecap="round" stroke-linejoin="round"/>
    <path d="M 139.75100708007812 113.57599639892578 C 150.5330047607422 105.28800201416016 143.38499450683594 109.40299987792969 137.58799743652344 97.74400329589844" stroke-width="1.0" fill="none" stroke="rgb(0, 0, 0)" stroke-opacity="1" stroke-linecap="round" stroke-linejoin="round"/>
    <path d="M 128.38699340820312 158.03599548339844 C 116.27100372314453 139.5989990234375 118.80899810791016 152.8560028076172 128.718994140625 156.36700439453125" stroke-width="1.0" fill="none" stroke="rgb(0, 0, 0)" stroke-opacity="1" stroke-linecap="round" stroke-linejoin="round"/>
    <path d="M 182.5260009765625 134.13699340820312 C 151.21200561523438 134.28500366210938 164.406005859375 116.0719985961914 185.9320068359375 138.9219970703125" stroke-width="1.0" fill="none" stroke="rgb(0, 0, 0)" stroke-opacity="1" stroke-linecap="round" stroke-linejoin="round"/>
    <path d="M 151.35000610351562 119.84300231933594 C 175.1909942626953 131.76100158691406 168.06300354003906 116.98799896240234 159.37399291992188 145.43600463867188" stroke-width="1.0" fill="none" stroke="rgb(0, 0, 0)" stroke-opacity="1" stroke-linecap="round" stroke-linejoin="round"/>
    <path d="M 143.8769989013672 109.39299774169922 C 142.19000244140625 118.98100280761719 151.12100219726562 108.59400177001953 134.3070068359375 110.99299621582031" stroke-width="1.0" fill="none" stroke="rgb(0, 0, 0)" stroke-opacity="1" stroke-linecap="round" stroke-linejoin="round"/>
    <path d="M 159.91099548339844 143.38099670410156 C 168.35400390625 137.12600708007812 147.90199279785156 125.3280029296875 148.02499389648438 148.23899841308594" stroke-width="1.0" fill="none" stroke="rgb(0, 0, 0)" stroke-opacity="1" stroke-linecap="round" stroke-linejoin="round"/>
    <path d="M 145.13400268554688 147.781005859375 C 148.34800720214844 115.16400146484375 130.33900451660156 121.43000030517578 149.61500549316406 134.2899932861328" stroke-width="1.0" fill="none" stroke="rgb(0, 0, 0)" stroke-opacity="1" stroke-linecap="round" stroke-linejoin="round"/>
    <path d="M 190.81199645996094 146.46400451660156 C 187.41400146484375 127.51100158691406 180.52499389648438 135.5850067138672 183.52699279785156 154.43899536132812" stroke-width="1.0" fill="none" stroke="rgb(0, 0, 0)" stroke-opacity="1" stroke-linecap="round" stroke-linejoin="round"/>
    <path d="M 148.0229949951172 97.03009796142578 C 128.15199279785156 84.87000274658203 139.0 105.2750015258789 136.375 87.97270202636719" stroke-width="1.0" fill="none" stroke="rgb(0, 0, 0)" stroke-opacity="1" stroke-linecap="round" stroke-linejoin="round"/>
    <path d="M 187.76400756835938 133.46099853515625 C 179.0330047607422 154.3679962158203 177.85299682617188 151.2220001220703 185.8260040283203 157.57400512695312" stroke-width="1.0" fill="none" stroke="rgb(0, 0, 0)" stroke-opacity="1" stroke-linecap="round" stroke-linejoin="round"/>
    <path d="M 185.55599975585938 164.5019989013672 C 165.18099975585938 140.13400268554688 158.6540069580078 144.53900146484375 146.51100158691406 138.7519989013672" stroke-width="1.0" fill="none" stroke="rgb(0, 0, 0)" stroke-opacity="1" stroke-linecap="round" stroke-linejoin="round"/>
    <path d="M 224.0 168.93899536132812 C 190.70799255371094 139.2310028076172 215.60699462890625 125.09300231933594 176.52200317382812 136.52499389648438" stroke-width="1.0" fill="none" stroke="rgb(0, 0, 0)" stroke-opacity="1" stroke-linecap="round" stroke-linejoin="round"/>
    <path d="M 190.9969940185547 165.03500366210938 C 186.75799560546875 137.18099975585938 176.60499572753906 151.30299377441406 191.48300170898438 172.04800415039062" stroke-width="1.0" fill="none" stroke="rgb(0, 0, 0)" stroke-opacity="1" stroke-linecap="round" stroke-linejoin="round"/>
    <path d="M 118.08699798583984 147.4219970703125 C 129.0 134.44900512695312 130.08399963378906 139.5800018310547 143.5229949951172 146.21600341796875" stroke-width="1.0" fill="none" stroke="rgb(0, 0, 0)" stroke-opacity="1" stroke-linecap="round" stroke-linejoin="round"/>
    <path d="M 154.25999450683594 117.96399688720703 C 144.1320037841797 137.64199829101562 128.88499450683594 127.13500213623047 152.1739959716797 107.44200134277344" stroke-width="1.0" fill="none" stroke="rgb(0, 0, 0)" stroke-opacity="1" stroke-linecap="round" stroke-linejoin="round"/>
    <path d="M 123.13899993896484 141.1790008544922 C 133.2480010986328 124.38400268554688 142.4530029296875 102.97100067138672 126.65699768066406 142.0850067138672" stroke-width="1.0" fill="none" stroke="rgb(0, 0, 0)" stroke-opacity="1" stroke-linecap="round" stroke-linejoin="round"/>
    <path d="M 174.1699981689453 130.71400451660156 C 175.53799438476562 136.9949951171875 168.37899780273438 141.96299743652344 185.01699829101562 159.54100036621094" stroke-width="1.0" fill="none" stroke="rgb(0, 0, 0)" stroke-opacity="1" stroke-linecap="round" stroke-linejoin="round"/>
    <path d="M 134.75999450683594 88.37969970703125 C 123.86100006103516 77.38490295410156 127.15799713134766 95.60679626464844 146.1699981689453 100.26000213623047" stroke-width="1.0" fill="none" stroke="rgb(0, 0, 0)" stroke-opacity="1" stroke-linecap="round" stroke-linejoin="round"/>
    <path d="M 142.3280029296875 123.60199737548828 C 152.4600067138672 137.56300354003906 144.3800048828125 140.08200073242188 159.072998046875 138.14100646972656" stroke-width="1.0" fill="none" stroke="rgb(0, 0, 0)" stroke-opacity="1" stroke-linecap="round" stroke-linejoin="round"/>
    <path d="M 208.6490020751953 155.052001953125 C 183.0279998779297 141.4759979248047 198.53500366210938 122.91300201416016 195.7449951171875 144.8719940185547" stroke-width="1.0" fill="none" stroke="rgb(0, 0, 0)" stroke-opacity="1" stroke-linecap="round" stroke-linejoin="round"/>
    <path d="M 135.11700439453125 109.6050033569336 C 113.67500305175781 121.89900207519531 111.17500305175781 107.76300048828125 115.47899627685547 103.67500305175781" stroke-width="1.0" fill="none" stroke="rgb(0, 0, 0)" stroke-opacity="1" stroke-linecap="round" stroke-linejoin="round"/>
    <path d="M 145.96400451660156 105.23100280761719 C 160.36399841308594 97.08879852294922 142.3000030517578 108.08599853515625 150.33599853515625 98.18599700927734" stroke-width="1.0" fill="none" stroke="rgb(0, 0, 0)" stroke-opacity="1" stroke-linecap="round" stroke-linejoin="round"/>
    <path d="M 152.4409942626953 122.33999633789062 C 152.64500427246094 121.08399963378906 161.5449981689453 126.89900207519531 148.0919952392578 122.56800079345703" stroke-width="1.0" fill="none" stroke="rgb(0, 0, 0)" stroke-opacity="1" stroke-linecap="round" stroke-linejoin="round"/>
    <path d="M 153.95199584960938 121.33799743652344 C 160.72799682617188 129.96499633789062 174.67300415039062 121.21700286865234 167.60000610351562 125.19499969482422" stroke-width="1.0" fill="none" stroke="rgb(0, 0, 0)" stroke-opacity="1" stroke-linecap="round" stroke-linejoin="round"/>
    <path d="M 183.38900756835938 137.08999633789062 C 169.4149932861328 129.98599243164062 164.4040069580078 125.23600006103516 182.83900451660156 154.22900390625" stroke-width="1.0" fill="none" stroke="rgb(0, 0, 0)" stroke-opacity="1" stroke-linecap="round" stroke-linejoin="round"/>
    <path d="M 163.09100341796875 143.49899291992188 C 154.13999938964844 148.62100219726562 172.16400146484375 130.6540069580078 168.7830047607422 141.322998046875" stroke-width="1.0" fill="none" stroke="rgb(0, 0, 0)" stroke-opacity="1" stroke-linecap="round" stroke-linejoin="round"/>
    <path d="M 200.9250030517578 191.5800018310547 C 194.14999389648438 218.58599853515625 194.6699981689453 170.02499389648438 197.77699279785156 192.0590057373047" stroke-width="1.0" fill="none" stroke="rgb(0, 0, 0)" stroke-opacity="1" stroke-linecap="round" stroke-linejoin="round"/>
    <path d="M 152.09800720214844 103.36699676513672 C 142.7830047607422 110.91999816894531 139.22799682617188 98.32140350341797 135.5570068359375 88.83820343017578" stroke-width="1.0" fill="none" stroke="rgb(0, 0, 0)" stroke-opacity="1" stroke-linecap="round" stroke-linejoin="round"/>
    <path d="M 122.52899932861328 122.76200103759766 C 142.77999877929688 115.00800323486328 140.01199340820312 100.17500305175781 131.177001953125 142.30499267578125" stroke-width="1.0" fill="none" stroke="rgb(0, 0, 0)" stroke-opacity="1" stroke-linecap="round" stroke-linejoin="round"/>
    <path d="M 120.06600189208984 119.88500213623047 C 140.50999450683594 110.16500091552734 149.11900329589844 106.88600158691406 136.8509979248047 89.95269775390625" stroke-width="1.0" fill="none" stroke="rgb(0, 0, 0)" stroke-opacity="1" stroke-linecap="round" stroke-linejoin="round"/>
    <path d="M 149.63299560546875 138.3159942626953 C 192.92999267578125 137.39599609375 171.8300018310547 124.00800323486328 151.96800231933594 137.8280029296875" stroke-width="1.0" fill="none" stroke="rgb(0, 0, 0)" stroke-opacity="1" stroke-linecap="round" stroke-linejoin="round"/>
    <path d="M 143.62899780273438 115.35700225830078 C 126.25199890136719 118.64900207519531 155.9499969482422 109.2490005493164 108.40599822998047 117.23799896240234" stroke-width="1.0" fill="none" stroke="rgb(0, 0, 0)" stroke-opacity="1" stroke-linecap="round" stroke-linejoin="round"/>
    <path d="M 106.50599670410156 129.10899353027344 C 100.7249984741211 109.16200256347656 119.98500061035156 138.1199951171875 105.74099731445312 132.2779998779297" stroke-width="1.0" fill="none" stroke="rgb(0, 0, 0)" stroke-opacity="1" stroke-linecap="round" stroke-linejoin="round"/>
    <path d="M 147.3509979248047 95.67179870605469 C 146.07699584960938 119.94300079345703 140.29299926757812 109.69000244140625 125.95500183105469 129.0330047607422" stroke-width="1.0" fill="none" stroke="rgb(0, 0, 0)" stroke-opacity="1" stroke-linecap="round" stroke-linejoin="round"/>
    <path d="M 153.1439971923828 101.85700225830078 C 161.25100708007812 110.28700256347656 160.02200317382812 102.97000122070312 141.21800231933594 112.26899719238281" stroke-width="1.0" fill="none" stroke="rgb(0, 0, 0)" stroke-opacity="1" stroke-linecap="round" stroke-linejoin="round"/>
    <path d="M 143.91799926757812 103.31500244140625 C 129.58599853515625 99.94539642333984 142.39599609375 81.40779876708984 131.02099609375 83.77899932861328" stroke-width="1.0" fill="none" stroke="rgb(0, 0, 0)" stroke-opacity="1" stroke-linecap="round" stroke-linejoin="round"/>
    <path d="M 223.8820037841797 169.43099975585938 C 208.84100341796875 157.03900146484375 225.76199340820312 164.947998046875 199.24200439453125 138.48599243164062" stroke-width="1.0" fill="none" stroke="rgb(0, 0, 0)" stroke-opacity="1" stroke-linecap="round" stroke-linejoin="round"/>
    <path d="M 158.927001953125 105.83399963378906 C 149.3249969482422 97.37539672851562 142.13400268554688 96.87660217285156 145.49600219726562 106.6500015258789" stroke-width="1.0" fill="none" stroke="rgb(0, 0, 0)" stroke-opacity="1" stroke-linecap="round" stroke-linejoin="round"/>
    <path d="M 132.5189971923828 107.98999786376953 C 97.75080108642578 112.71700286865234 109.83899688720703 103.22799682617188 105.35199737548828 125.46199798583984" stroke-width="1.0" fill="none" stroke="rgb(0, 0, 0)" stroke-opacity="1" stroke-linecap="round" stroke-linejoin="round"/>
    <path d="M 128.51199340820312 143.32699584960938 C 117.23899841308594 115.61499786376953 116.7750015258789 100.09600067138672 123.83300018310547 124.3949966430664" stroke-width="1.0" fill="none" stroke="rgb(0, 0, 0)" stroke-opacity="1" stroke-linecap="round" stroke-linejoin="round"/>
    <path d="M 188.52999877929688 165.2790069580078 C 161.08599853515625 136.6719970703125 184.16799926757812 147.7209930419922 147.69500732421875 146.23399353027344" stroke-width="1.0" fill="none" stroke="rgb(0, 0, 0)" stroke-opacity="1" stroke-linecap="round" stroke-linejoin="round"/>
    <path d="M 137.88699340820312 93.62770080566406 C 139.5959930419922 83.75029754638672 127.85800170898438 79.456298828125 130.39500427246094 93.58879852294922" stroke-width="1.0" fill="none" stroke="rgb(0, 0, 0)" stroke-opacity="1" stroke-linecap="round" stroke-linejoin="round"/>
    <path d="M 180.0189971923828 159.54299926757812 C 175.4080047607422 139.13499450683594 178.0050048828125 123.8030014038086 186.21200561523438 158.625" stroke-width="1.0" fill="none" stroke="rgb(0, 0, 0)" stroke-opacity="1" stroke-linecap="round" stroke-linejoin="round"/>
    <path d="M 133.98399353027344 83.6050033569336 C 140.38299560546875 97.4363021850586 135.94900512695312 108.14900207519531 147.02000427246094 96.44400024414062" stroke-width="1.0" fill="none" stroke="rgb(0, 0, 0)" stroke-opacity="1" stroke-linecap="round" stroke-linejoin="round"/>
    <path d="M 193.61700439453125 175.53199768066406 C 189.23199462890625 168.98500061035156 193.968994140625 177.26100158691406 200.99099731445312 198.9219970703125" stroke-width="1.0" fill="none" stroke="rgb(0, 0, 0)" stroke-opacity="1" stroke-linecap="round" stroke-linejoin="round"/>
    <path d="M 170.60899353027344 132.74099731445312 C 175.86000061035156 148.375 165.61399841308594 145.07200622558594 151.552001953125 142.08200073242188" stroke-width="1.0" fill="none" stroke="rgb(0, 0, 0)" stroke-opacity="1" stroke-linecap="round" stroke-linejoin="round"/>
    <path d="M 190.10299682617188 170.51499938964844 C 197.36199951171875 188.94700622558594 196.16799926757812 184.26800537109375 188.56100463867188 162.27099609375" stroke-width="1.0" fill="none" stroke="rgb(0, 0, 0)" stroke-opacity="1" stroke-linecap="round" stroke-linejoin="round"/>
    <path d="M 192.74899291992188 134.31199645996094 C 204.28900146484375 136.72999572753906 212.11599731445312 160.86000061035156 194.1909942626953 133.79200744628906" stroke-width="1.0" fill="none" stroke="rgb(0, 0, 0)" stroke-opacity="1" stroke-linecap="round" stroke-linejoin="round"/>
    <path d="M 149.03199768066406 140.9409942626953 C 138.7949981689453 138.10899353027344 167.70700073242188 160.16000366210938 133.96499633789062 136.94900512695312" stroke-width="1.0" fill="none" stroke="rgb(0, 0, 0)" stroke-opacity="1" stroke-linecap="round" stroke-linejoin="round"/>
    <path d="M 136.23399353027344 89.2302017211914 C 132.1510009765625 90.6155014038086 124.61499786376953 87.9927978515625 131.7030029296875 85.20600128173828" stroke-width="1.0" fill="none" stroke="rgb(0, 0, 0)" stroke-opacity="1" stroke-linecap="round" stroke-linejoin="round"/>
    <path d="M 106.28299713134766 111.33899688720703 C 162.94500732421875 108.93699645996094 148.2010040283203 111.35099792480469 124.66500091552734 124.73200225830078" stroke-width="1.0" fill="none" stroke="rgb(0, 0, 0)" stroke-opacity="1" stroke-linecap="round" stroke-linejoin="round"/>
    <path d="M 155.92999267578125 107.68099975585938 C 140.90699768066406 96.87660217285156 138.41099548339844 85.52010345458984 156.95399475097656 105.47599792480469" stroke-width="1.0" fill="none" stroke="rgb(0, 0, 0)" stroke-opacity="1" stroke-linecap="round" stroke-linejoin="round"/>
    <path d="M 100.64600372314453 107.25399780273438 C 130.4969940185547 126.06300354003906 114.61000061035156 116.32099914550781 104.58300018310547 132.447998046875" stroke-width="1.0" fill="none" stroke="rgb(0, 0, 0)" stroke-opacity="1" stroke-linecap="round" stroke-linejoin="round"/>
    <path d="M 145.20799255371094 98.25859832763672 C 137.3000030517578 124.18199920654297 158.77000427246094 108.78399658203125 142.6739959716797 93.00959777832031" stroke-width="1.0" fill="none" stroke="rgb(0, 0, 0)" stroke-opacity="1" stroke-linecap="round" stroke-linejoin="round"/>
    <path d="M 131.30499267578125 113.73899841308594 C 115.97599792480469 110.78800201416016 105.55500030517578 112.49500274658203 128.86500549316406 128.927001953125" stroke-width="1.0" fill="none" stroke="rgb(0, 0, 0)" stroke-opacity="1" stroke-linecap="round" stroke-linejoin="round"/>
    <path d="M 167.81399536132812 120.63300323486328 C 157.4739990234375 123.13300323486328 150.6280059814453 110.802001953125 152.20899963378906 119.91400146484375" stroke-width="1.0" fill="none" stroke="rgb(0, 0, 0)" stroke-opacity="1" stroke-linecap="round" stroke-linejoin="round"/>
    <path d="M 133.9759979248047 88.32520294189453 C 142.14599609375 79.48570251464844 123.12100219726562 91.90619659423828 137.29299926757812 85.7968978881836" stroke-width="1.0" fill="none" stroke="rgb(0, 0, 0)" stroke-opacity="1" stroke-linecap="round" stroke-linejoin="round"/>
    <path d="M 155.26800537109375 136.3260040283203 C 151.7480010986328 139.73300170898438 142.9040069580078 142.78700256347656 146.5019989013672 148.11900329589844" stroke-width="1.0" fill="none" stroke="rgb(0, 0, 0)" stroke-opacity="1" stroke-linecap="round" stroke-linejoin="round"/>
    <path d="M 196.38999938964844 139.24400329589844 C 203.60699462890625 168.7779998779297 200.18800354003906 130.77200317382812 189.52999877929688 133.875" stroke-width="1.0" fill="none" stroke="rgb(0, 0, 0)" stroke-opacity="1" stroke-linecap="round" stroke-linejoin="round"/>
    <path d="M 133.64199829101562 112.98100280761719 C 106.05400085449219 112.8239974975586 134.91600036621094 95.43479919433594 136.6009979248047 112.88500213623047" stroke-width="1.0" fill="none" stroke="rgb(0, 0, 0)" stroke-opacity="1" stroke-linecap="round" stroke-linejoin="round"/>
    <path d="M 155.08700561523438 138.96600341796875 C 182.31300354003906 141.57699584960938 185.88400268554688 132.16900634765625 166.1699981689453 128.05799865722656" stroke-width="1.0" fill="none" stroke="rgb(0, 0, 0)" stroke-opacity="1" stroke-linecap="round" stroke-linejoin="round"/>
    <path d="M 148.2209930419922 111.70600128173828 C 140.9080047607422 90.37590026855469 143.09800720214844 97.43350219726562 140.05499267578125 101.98500061035156" stroke-width="1.0" fill="none" stroke="rgb(0, 0, 0)" stroke-opacity="1" stroke-linecap="round" stroke-linejoin="round"/>
    <path d="M 145.60899353027344 131.88999938964844 C 161.48699951171875 130.84500122070312 128.65899658203125 142.1909942626953 138.53900146484375 116.27400207519531" stroke-width="1.0" fill="none" stroke="rgb(0, 0, 0)" stroke-opacity="1" stroke-linecap="round" stroke-linejoin="round"/>
    <path d="M 117.89800262451172 147.25900268554688 C 118.71499633789062 151.5780029296875 125.34100341796875 163.18299865722656 131.33700561523438 156.5050048828125" stroke-width="1.0" fill="none" stroke="rgb(0, 0, 0)" stroke-opacity="1" stroke-linecap="round" stroke-linejoin="round"/>
    <path d="M 131.6490020751953 106.86499786376953 C 94.42070007324219 99.09649658203125 119.16400146484375 113.427001953125 130.5659942626953 105.62899780273438" stroke-width="1.0" fill="none" stroke="rgb(0, 0, 0)" stroke-opacity="1" stroke-linecap="round" stroke-linejoin="round"/>
    <path d="M 145.8489990234375 148.11300659179688 C 126.35299682617188 137.18699645996094 157.39199829101562 145.33099365234375 146.14199829101562 126.6709976196289" stroke-width="1.0" fill="none" stroke="rgb(0, 0, 0)" stroke-opacity="1" stroke-linecap="round" stroke-linejoin="round"/>
    <path d="M 138.20899963378906 99.27469635009766 C 127.3010025024414 96.52780151367188 148.28700256347656 89.00650024414062 128.697998046875 86.45980072021484" stroke-width="1.0" fill="none" stroke="rgb(0, 0, 0)" stroke-opacity="1" stroke-linecap="round" stroke-linejoin="round"/>
    <path d="M 150.03599548339844 131.71099853515625 C 145.56100463867188 149.91799926757812 122.6969985961914 147.80999755859375 133.7259979248047 127.83000183105469" stroke-width="1.0" fill="none" stroke="rgb(0, 0, 0)" stroke-opacity="1" stroke-linecap="round" stroke-linejoin="round"/>
    <path d="M 138.30999755859375 115.87799835205078 C 110.88800048828125 131.1529998779297 129.1649932861328 115.66799926757812 140.8470001220703 133.875" stroke-width="1.0" fill="none" stroke="rgb(0, 0, 0)" stroke-opacity="1" stroke-linecap="round" stroke-linejoin="round"/>
    <path d="M 137.70700073242188 98.0250015258789 C 174.33999633789062 112.2959976196289 147.86700439453125 113.93099975585938 152.0030059814453 121.1709976196289" stroke-width="1.0" fill="none" stroke="rgb(0, 0, 0)" stroke-opacity="1" stroke-linecap="round" stroke-linejoin="round"/>
    <path d="M 167.86399841308594 133.58599853515625 C 162.11000061035156 145.8249969482422 163.28199768066406 144.66099548339844 177.9929962158203 136.41799926757812" stroke-width="1.0" fill="none" stroke="rgb(0, 0, 0)" stroke-opacity="1" stroke-linecap="round" stroke-linejoin="round"/>
    <path d="M 135.30499267578125 97.60420227050781 C 145.1179962158203 84.07740020751953 130.65199279785156 77.78079986572266 127.69200134277344 88.21640014648438" stroke-width="1.0" fill="none" stroke="rgb(0, 0, 0)" stroke-opacity="1" stroke-linecap="round" stroke-linejoin="round"/>
    <path d="M 163.58399963378906 138.11599731445312 C 185.18899536132812 133.11500549316406 202.6959991455078 132.49600219726562 184.8300018310547 163.0070037841797" stroke-width="1.0" fill="none" stroke="rgb(0, 0, 0)" stroke-opacity="1" stroke-linecap="round" stroke-linejoin="round"/>
    <path d="M 130.69200134277344 86.07649993896484 C 127.41999816894531 87.17279815673828 145.32000732421875 91.21769714355469 134.6929931640625 91.8582992553711" stroke-width="1.0" fill="none" stroke="rgb(0, 0, 0)" stroke-opacity="1" stroke-linecap="round" stroke-linejoin="round"/>
    <path d="M 180.22999572753906 146.81700134277344 C 158.76600646972656 142.7550048828125 166.3719940185547 136.56700134277344 181.51699829101562 140.8459930419922" stroke-width="1.0" fill="none" stroke="rgb(0, 0, 0)" stroke-opacity="1" stroke-linecap="round" stroke-linejoin="round"/>
    <path d="M 154.35699462890625 139.8990020751953 C 146.74200439453125 110.94400024414062 152.7220001220703 118.72899627685547 158.51800537109375 123.40699768066406" stroke-width="1.0" fill="none" stroke="rgb(0, 0, 0)" stroke-opacity="1" stroke-linecap="round" stroke-linejoin="round"/>
    <path d="M 173.11000061035156 142.87399291992188 C 174.64500427246094 117.63700103759766 156.01600646972656 124.4520034790039 160.54800415039062 146.14500427246094" stroke-width="1.0" fill="none" stroke="rgb(0, 0, 0)" stroke-opacity="1" stroke-linecap="round" stroke-linejoin="round"/>
    <path d="M 195.1230010986328 169.29800415039062 C 187.31399536132812 152.26699829101562 190.1280059814453 164.55999755859375 194.66600036621094 191.93099975585938" stroke-width="1.0" fill="none" stroke="rgb(0, 0, 0)" stroke-opacity="1" stroke-linecap="round" stroke-linejoin="round"/>
    <path d="M 128.13900756835938 106.56800079345703 C 106.69000244140625 105.1709976196289 99.6010971069336 107.30400085449219 111.40399932861328 127.06500244140625" stroke-width="1.0" fill="none" stroke="rgb(0, 0, 0)" stroke-opacity="1" stroke-linecap="round" stroke-linejoin="round"/>
    <path d="M 147.72300720214844 145.66099548339844 C 152.43099975585938 145.94500732421875 134.83599853515625 142.9510040283203 145.75799560546875 135.7550048828125" stroke-width="1.0" fill="none" stroke="rgb(0, 0, 0)" stroke-opacity="1" stroke-linecap="round" stroke-linejoin="round"/>
    <path d="M 177.36599731445312 140.7740020751953 C 183.33599853515625 132.3260040283203 177.5469970703125 128.3470001220703 192.61000061035156 147.47300720214844" stroke-width="1.0" fill="none" stroke="rgb(0, 0, 0)" stroke-opacity="1" stroke-linecap="round" stroke-linejoin="round"/>
    <path d="M 179.6479949951172 133.41099548339844 C 170.48800659179688 158.21299743652344 149.77200317382812 142.0030059814453 167.46400451660156 126.93900299072266" stroke-width="1.0" fill="none" stroke="rgb(0, 0, 0)" stroke-opacity="1" stroke-linecap="round" stroke-linejoin="round"/>
    <path d="M 109.28299713134766 130.5970001220703 C 92.63729858398438 99.41739654541016 117.10199737548828 103.28600311279297 110.59300231933594 123.2509994506836" stroke-width="1.0" fill="none" stroke="rgb(0, 0, 0)" stroke-opacity="1" stroke-linecap="round" stroke-linejoin="round"/>
    <path d="M 167.5540008544922 143.72000122070312 C 176.6929931640625 163.32000732421875 191.20899963378906 163.81100463867188 193.94700622558594 176.36700439453125" stroke-width="1.0" fill="none" stroke="rgb(0, 0, 0)" stroke-opacity="1" stroke-linecap="round" stroke-linejoin="round"/>
    <path d="M 168.6230010986328 125.4280014038086 C 168.26800537109375 150.92300415039062 196.75900268554688 131.63800048828125 173.51499938964844 130.23699951171875" stroke-width="1.0" fill="none" stroke="rgb(0, 0, 0)" stroke-opacity="1" stroke-linecap="round" stroke-linejoin="round"/>
    <path d="M 187.6439971923828 162.19500732421875 C 203.87600708007812 131.39300537109375 168.66700744628906 146.9510040283203 189.1179962158203 173.4429931640625" stroke-width="1.0" fill="none" stroke="rgb(0, 0, 0)" stroke-opacity="1" stroke-linecap="round" stroke-linejoin="round"/>
    <path d="M 146.88299560546875 144.78900146484375 C 188.8939971923828 135.33799743652344 199.7209930419922 149.02099609375 180.60800170898438 155.53900146484375" stroke-width="1.0" fill="none" stroke="rgb(0, 0, 0)" stroke-opacity="1" stroke-linecap="round" stroke-linejoin="round"/>
    <path d="M 109.91200256347656 129.23300170898438 C 92.98919677734375 109.4489974975586 108.81400299072266 115.22000122070312 99.0 106.10199737548828" stroke-width="1.0" fill="none" stroke="rgb(0, 0, 0)" stroke-opacity="1" stroke-linecap="round" stroke-linejoin="round"/>
    <path d="M 117.56500244140625 153.15499877929688 C 117.6719970703125 142.51100158691406 104.58599853515625 144.06100463867188 148.60000610351562 134.6320037841797" stroke-width="1.0" fill="none" stroke="rgb(0, 0, 0)" stroke-opacity="1" stroke-linecap="round" stroke-linejoin="round"/>
    <path d="M 153.677001953125 120.78900146484375 C 134.4980010986328 132.93499755859375 136.76600646972656 135.76100158691406 159.9149932861328 108.26699829101562" stroke-width="1.0" fill="none" stroke="rgb(0, 0, 0)" stroke-opacity="1" stroke-linecap="round" stroke-linejoin="round"/>
    <path d="M 188.15199279785156 158.03599548339844 C 174.58599853515625 136.9290008544922 178.99200439453125 145.57000732421875 169.6230010986328 136.4770050048828" stroke-width="1.0" fill="none" stroke="rgb(0, 0, 0)" stroke-opacity="1" stroke-linecap="round" stroke-linejoin="round"/>
    <path d="M 198.91799926757812 136.88699340820312 C 159.1269989013672 149.0540008544922 146.81199645996094 135.92100524902344 183.9199981689453 149.29100036621094" stroke-width="1.0" fill="none" stroke="rgb(0, 0, 0)" stroke-opacity="1" stroke-linecap="round" stroke-linejoin="round"/>
    <path d="M 174.74600219726562 129.5260009765625 C 192.468994140625 128.2220001220703 188.70799255371094 154.1580047607422 175.66900634765625 153.70399475097656" stroke-width="1.0" fill="none" stroke="rgb(0, 0, 0)" stroke-opacity="1" stroke-linecap="round" stroke-linejoin="round"/>
    <path d="M 142.531005859375 135.8419952392578 C 122.81500244140625 151.69200134277344 96.62999725341797 152.44400024414062 138.4459991455078 132.06300354003906" stroke-width="1.0" fill="none" stroke="rgb(0, 0, 0)" stroke-opacity="1" stroke-linecap="round" stroke-linejoin="round"/>
  </g>
</svg>
