<?xml version="1.0" ?>
<svg xmlns="http://www.w3.org/2000/svg" version="1.1" width="256" height="256">
  <defs/>
  <g>
    <path d="M 229.91000366210938 182.77699279785156 C 165.3769989013672 172.95399475097656 148.51100158691406 184.17799377441406 199.21400451660156 180.02699279785156" stroke-width="2.0" fill="none" stroke="rgb(0, 255, 0)" stroke-opacity="1" stroke-linecap="round" stroke-linejoin="round"/>
    <path d="M 187.05599975585938 182.30799865722656 C 197.50999450683594 186.3419952392578 167.41200256347656 180.1009979248047 183.6820068359375 182.40199279785156" stroke-width="2.0" fill="none" stroke="rgb(0, 255, 0)" stroke-opacity="1" stroke-linecap="round" stroke-linejoin="round"/>
    <path d="M 143.25999450683594 177.0850067138672 C 107.27200317382812 177.0850067138672 127.18399810791016 177.0850067138672 145.4040069580078 177.0850067138672" stroke-width="2.0" fill="none" stroke="rgb(0, 255, 0)" stroke-opacity="1" stroke-linecap="round" stroke-linejoin="round"/>
    <path d="M 177.07200622558594 177.5260009765625 C 102.14800262451172 171.49200439453125 146.42999267578125 186.86000061035156 133.85000610351562 176.03700256347656" stroke-width="2.0" fill="none" stroke="rgb(0, 255, 0)" stroke-opacity="1" stroke-linecap="round" stroke-linejoin="round"/>
    <path d="M 141.8040008544922 178.73599243164062 C 231.28500366210938 190.7010040283203 232.4600067138672 168.781005859375 141.1479949951172 179.93299865722656" stroke-width="2.0" fill="none" stroke="rgb(0, 255, 0)" stroke-opacity="1" stroke-linecap="round" stroke-linejoin="round"/>
    <path d="M 183.17599487304688 182.16099548339844 C 163.2530059814453 178.51699829101562 212.79800415039062 187.19000244140625 146.61599731445312 182.9149932861328" stroke-width="2.0" fill="none" stroke="rgb(0, 255, 0)" stroke-opacity="1" stroke-linecap="round" stroke-linejoin="round"/>
    <path d="M 76.96089935302734 185.03599548339844 C 57.038299560546875 181.39300537109375 106.58300018310547 190.06500244140625 40.40140151977539 185.7899932861328" stroke-width="2.0" fill="none" stroke="rgb(0, 255, 0)" stroke-opacity="1" stroke-linecap="round" stroke-linejoin="round"/>
    <path d="M 35.58919906616211 181.61199951171875 C 125.06999969482422 193.57699584960938 126.24500274658203 171.65699768066406 34.93360137939453 182.80799865722656" stroke-width="2.0" fill="none" stroke="rgb(0, 255, 0)" stroke-opacity="1" stroke-linecap="round" stroke-linejoin="round"/>
    <path d="M 70.85710144042969 180.40199279785156 C -4.0673298835754395 174.3679962158203 40.21500015258789 189.73599243164062 27.634899139404297 178.91299438476562" stroke-width="2.0" fill="none" stroke="rgb(0, 255, 0)" stroke-opacity="1" stroke-linecap="round" stroke-linejoin="round"/>
    <path d="M 37.04460144042969 179.96099853515625 C 1.056589961051941 179.96099853515625 20.96929931640625 179.96099853515625 39.1890983581543 179.96099853515625" stroke-width="2.0" fill="none" stroke="rgb(0, 255, 0)" stroke-opacity="1" stroke-linecap="round" stroke-linejoin="round"/>
    <path d="M 80.84089660644531 185.1840057373047 C 91.2947006225586 189.2169952392578 61.1974983215332 182.9770050048828 77.46710205078125 185.2779998779297" stroke-width="2.0" fill="none" stroke="rgb(0, 255, 0)" stroke-opacity="1" stroke-linecap="round" stroke-linejoin="round"/>
    <path d="M 163.3040008544922 181.6909942626953 C 75.82769775390625 185.65899658203125 65.6592025756836 198.46200561523438 90.36100006103516 181.4010009765625" stroke-width="2.0" fill="none" stroke="rgb(0, 255, 0)" stroke-opacity="1" stroke-linecap="round" stroke-linejoin="round"/>
    <path d="M 123.69499969482422 185.6529998779297 C 59.16189956665039 175.8300018310547 42.2958984375 187.0540008544922 92.99870300292969 182.90199279785156" stroke-width="2.0" fill="none" stroke="rgb(0, 255, 0)" stroke-opacity="1" stroke-linecap="round" stroke-linejoin="round"/>
    <path d="M 217.44000244140625 180.4530029296875 C 186.18800354003906 187.18099975585938 182.15199279785156 174.16700744628906 239.0 181.01199340820312" stroke-width="2.0" fill="none" stroke="rgb(0, 255, 0)" stroke-opacity="1" stroke-linecap="round" stroke-linejoin="round"/>
    <path d="M 80.81659698486328 147.14300537109375 C 85.13580322265625 148.53399658203125 88.5248031616211 137.28900146484375 77.46910095214844 135.79800415039062" stroke-width="2.0" fill="none" stroke="rgb(255, 0, 0)" stroke-opacity="1" stroke-linecap="round" stroke-linejoin="round"/>
    <path d="M 38.84389877319336 161.36599731445312 C 48.7041015625 154.26199340820312 44.73780059814453 152.56199645996094 45.707000732421875 149.0659942626953" stroke-width="2.0" fill="none" stroke="rgb(255, 0, 0)" stroke-opacity="1" stroke-linecap="round" stroke-linejoin="round"/>
    <path d="M 74.89289855957031 136.66600036621094 C 83.50550079345703 143.71800231933594 75.44619750976562 148.36199951171875 80.85710144042969 147.46400451660156" stroke-width="2.0" fill="none" stroke="rgb(255, 0, 0)" stroke-opacity="1" stroke-linecap="round" stroke-linejoin="round"/>
    <path d="M 52.135101318359375 140.8159942626953 C 60.46179962158203 139.57200622558594 50.200401306152344 135.7729949951172 40.432899475097656 144.24200439453125" stroke-width="2.0" fill="none" stroke="rgb(255, 0, 0)" stroke-opacity="1" stroke-linecap="round" stroke-linejoin="round"/>
    <path d="M 54.237300872802734 137.38299560546875 C 72.71540069580078 124.8219985961914 77.18710327148438 140.6719970703125 64.33290100097656 135.04299926757812" stroke-width="2.0" fill="none" stroke="rgb(255, 0, 0)" stroke-opacity="1" stroke-linecap="round" stroke-linejoin="round"/>
    <path d="M 65.29229736328125 138.968994140625 C 45.61640167236328 148.9550018310547 44.568599700927734 160.4409942626953 68.13150024414062 142.52999877929688" stroke-width="2.0" fill="none" stroke="rgb(255, 0, 0)" stroke-opacity="1" stroke-linecap="round" stroke-linejoin="round"/>
    <path d="M 57.53089904785156 136.38299560546875 C 66.25060272216797 130.76100158691406 85.95230102539062 133.76100158691406 71.72750091552734 130.93499755859375" stroke-width="2.0" fill="none" stroke="rgb(255, 0, 0)" stroke-opacity="1" stroke-linecap="round" stroke-linejoin="round"/>
    <path d="M 27.760499954223633 179.375 C 30.22100067138672 187.49600219726562 39.80149841308594 184.64700317382812 18.395000457763672 188.65699768066406" stroke-width="2.0" fill="none" stroke="rgb(0, 255, 0)" stroke-opacity="1" stroke-linecap="round" stroke-linejoin="round"/>
    <path d="M 26.577299118041992 186.58700561523438 C 18.068300247192383 186.58999633789062 13.573200225830078 195.34800720214844 8.470849990844727 196.49200439453125" stroke-width="2.0" fill="none" stroke="rgb(0, 255, 0)" stroke-opacity="1" stroke-linecap="round" stroke-linejoin="round"/>
    <path d="M 87.08789825439453 130.22999572753906 C 67.01959991455078 137.91000366210938 81.6083984375 131.22000122070312 83.91950225830078 144.50399780273438" stroke-width="2.0" fill="none" stroke="rgb(255, 0, 0)" stroke-opacity="1" stroke-linecap="round" stroke-linejoin="round"/>
    <path d="M 45.37710189819336 156.1020050048828 C 37.84640121459961 166.6009979248047 31.61440086364746 163.96800231933594 43.6338996887207 155.7949981689453" stroke-width="2.0" fill="none" stroke="rgb(255, 0, 0)" stroke-opacity="1" stroke-linecap="round" stroke-linejoin="round"/>
    <path d="M 69.12750244140625 135.843994140625 C 45.811500549316406 140.12100219726562 46.652400970458984 140.35899353027344 59.91490173339844 135.24600219726562" stroke-width="2.0" fill="none" stroke="rgb(255, 0, 0)" stroke-opacity="1" stroke-linecap="round" stroke-linejoin="round"/>
    <path d="M 70.87850189208984 134.31300354003906 C 58.52149963378906 139.9149932861328 72.08370208740234 132.3159942626953 51.61790084838867 143.93899536132812" stroke-width="2.0" fill="none" stroke="rgb(255, 0, 0)" stroke-opacity="1" stroke-linecap="round" stroke-linejoin="round"/>
    <path d="M 16.19700050354004 189.94700622558594 C 29.807600021362305 185.0540008544922 19.10260009765625 187.7760009765625 26.63290023803711 181.48500061035156" stroke-width="2.0" fill="none" stroke="rgb(0, 255, 0)" stroke-opacity="1" stroke-linecap="round" stroke-linejoin="round"/>
    <path d="M 84.11399841308594 120.91799926757812 C 88.72250366210938 125.0780029296875 94.87870025634766 115.45500183105469 97.79750061035156 122.28099822998047" stroke-width="2.0" fill="none" stroke="rgb(255, 0, 0)" stroke-opacity="1" stroke-linecap="round" stroke-linejoin="round"/>
    <path d="M 62.71390151977539 119.54399871826172 C 62.13520050048828 119.44499969482422 58.38479995727539 121.40599822998047 63.621700286865234 118.72100067138672" stroke-width="2.0" fill="none" stroke="rgb(255, 0, 0)" stroke-opacity="1" stroke-linecap="round" stroke-linejoin="round"/>
    <path d="M 63.185699462890625 119.11599731445312 C 71.1532974243164 117.6729965209961 67.60820007324219 118.81500244140625 62.68510055541992 119.68399810791016" stroke-width="2.0" fill="none" stroke="rgb(255, 0, 0)" stroke-opacity="1" stroke-linecap="round" stroke-linejoin="round"/>
    <path d="M 46.40890121459961 156.0 C 37.775699615478516 161.37899780273438 38.587501525878906 158.8350067138672 40.28120040893555 161.552001953125" stroke-width="2.0" fill="none" stroke="rgb(255, 0, 0)" stroke-opacity="1" stroke-linecap="round" stroke-linejoin="round"/>
    <path d="M 20.728700637817383 187.82000732421875 C 30.10740089416504 178.81300354003906 32.12310028076172 172.73800659179688 42.969600677490234 159.07699584960938" stroke-width="2.0" fill="none" stroke="rgb(255, 0, 0)" stroke-opacity="1" stroke-linecap="round" stroke-linejoin="round"/>
    <path d="M 27.978500366210938 179.40899658203125 C 12.982600212097168 187.8489990234375 15.904899597167969 194.8509979248047 7.0 197.0" stroke-width="2.0" fill="none" stroke="rgb(0, 255, 0)" stroke-opacity="1" stroke-linecap="round" stroke-linejoin="round"/>
    <path d="M 49.29570007324219 149.63900756835938 C 44.57550048828125 156.83999633789062 38.36090087890625 159.98599243164062 35.5625 169.34300231933594" stroke-width="2.0" fill="none" stroke="rgb(255, 0, 0)" stroke-opacity="1" stroke-linecap="round" stroke-linejoin="round"/>
    <path d="M 83.1802978515625 146.12600708007812 C 82.90339660644531 129.9040069580078 80.21089935302734 130.54800415039062 64.16829681396484 143.46200561523438" stroke-width="2.0" fill="none" stroke="rgb(255, 0, 0)" stroke-opacity="1" stroke-linecap="round" stroke-linejoin="round"/>
    <path d="M 34.612701416015625 165.25799560546875 C 43.22309875488281 156.88400268554688 44.080101013183594 144.88099670410156 45.06909942626953 156.92799377441406" stroke-width="2.0" fill="none" stroke="rgb(255, 0, 0)" stroke-opacity="1" stroke-linecap="round" stroke-linejoin="round"/>
    <path d="M 91.41909790039062 120.4229965209961 C 93.63670349121094 118.37300109863281 93.34870147705078 119.41400146484375 87.15440368652344 121.28800201416016" stroke-width="2.0" fill="none" stroke="rgb(255, 0, 0)" stroke-opacity="1" stroke-linecap="round" stroke-linejoin="round"/>
    <path d="M 47.36180114746094 153.5570068359375 C 46.297298431396484 151.31900024414062 39.713199615478516 153.1820068359375 63.25859832763672 143.48599243164062" stroke-width="2.0" fill="none" stroke="rgb(255, 0, 0)" stroke-opacity="1" stroke-linecap="round" stroke-linejoin="round"/>
    <path d="M 80.32689666748047 124.5770034790039 C 75.31510162353516 119.2030029296875 92.6041030883789 126.2750015258789 89.35220336914062 118.19400024414062" stroke-width="2.0" fill="none" stroke="rgb(255, 0, 0)" stroke-opacity="1" stroke-linecap="round" stroke-linejoin="round"/>
    <path d="M 27.04990005493164 180.59300231933594 C 31.20509910583496 191.22300720214844 29.340999603271484 175.93099975585938 32.627899169921875 192.33799743652344" stroke-width="2.0" fill="none" stroke="rgb(0, 255, 0)" stroke-opacity="1" stroke-linecap="round" stroke-linejoin="round"/>
    <path d="M 48.6796989440918 139.17999267578125 C 46.87710189819336 138.93899536132812 51.712501525878906 140.697998046875 45.060699462890625 141.1269989013672" stroke-width="2.0" fill="none" stroke="rgb(255, 0, 0)" stroke-opacity="1" stroke-linecap="round" stroke-linejoin="round"/>
    <path d="M 59.222999572753906 136.27000427246094 C 65.92140197753906 134.58700561523438 70.49340057373047 133.9149932861328 63.1328010559082 134.1490020751953" stroke-width="2.0" fill="none" stroke="rgb(255, 0, 0)" stroke-opacity="1" stroke-linecap="round" stroke-linejoin="round"/>
    <path d="M 50.269500732421875 125.7300033569336 C 57.6796989440918 121.2239990234375 41.275299072265625 119.43599700927734 57.278099060058594 122.6050033569336" stroke-width="2.0" fill="none" stroke="rgb(255, 0, 0)" stroke-opacity="1" stroke-linecap="round" stroke-linejoin="round"/>
    <path d="M 43.312801361083984 155.71499633789062 C 34.51679992675781 162.62399291992188 40.690101623535156 163.91400146484375 47.224700927734375 156.3179931640625" stroke-width="2.0" fill="none" stroke="rgb(255, 0, 0)" stroke-opacity="1" stroke-linecap="round" stroke-linejoin="round"/>
    <path d="M 48.983299255371094 139.50399780273438 C 49.34469985961914 137.86399841308594 49.53260040283203 142.19900512695312 51.82979965209961 138.0919952392578" stroke-width="2.0" fill="none" stroke="rgb(255, 0, 0)" stroke-opacity="1" stroke-linecap="round" stroke-linejoin="round"/>
    <path d="M 56.64609909057617 147.0290069580078 C 68.41629791259766 135.53599548339844 68.48660278320312 139.66200256347656 76.37779998779297 130.55299377441406" stroke-width="2.0" fill="none" stroke="rgb(255, 0, 0)" stroke-opacity="1" stroke-linecap="round" stroke-linejoin="round"/>
    <path d="M 95.84559631347656 119.65699768066406 C 93.32749938964844 114.822998046875 80.32980346679688 112.61699676513672 92.20149993896484 118.03299713134766" stroke-width="2.0" fill="none" stroke="rgb(255, 0, 0)" stroke-opacity="1" stroke-linecap="round" stroke-linejoin="round"/>
    <path d="M 38.499900817871094 151.1739959716797 C 31.8612003326416 152.47799682617188 41.30939865112305 148.62100219726562 36.84299850463867 159.92599487304688" stroke-width="2.0" fill="none" stroke="rgb(255, 0, 0)" stroke-opacity="1" stroke-linecap="round" stroke-linejoin="round"/>
    <path d="M 57.01359939575195 138.7050018310547 C 49.817100524902344 143.46600341796875 46.24129867553711 139.97300720214844 52.8572998046875 139.36099243164062" stroke-width="2.0" fill="none" stroke="rgb(255, 0, 0)" stroke-opacity="1" stroke-linecap="round" stroke-linejoin="round"/>
    <path d="M 53.36429977416992 150.8159942626953 C 69.4885025024414 137.8820037841797 83.3322982788086 124.072998046875 59.17940139770508 134.802001953125" stroke-width="2.0" fill="none" stroke="rgb(255, 0, 0)" stroke-opacity="1" stroke-linecap="round" stroke-linejoin="round"/>
    <path d="M 32.40039825439453 188.37399291992188 C 23.50979995727539 185.4810028076172 27.2091007232666 188.88499450683594 33.54050064086914 191.78700256347656" stroke-width="2.0" fill="none" stroke="rgb(0, 255, 0)" stroke-opacity="1" stroke-linecap="round" stroke-linejoin="round"/>
    <path d="M 56.61199951171875 146.13400268554688 C 42.7775993347168 156.5800018310547 48.57740020751953 153.95799255371094 42.377201080322266 156.8520050048828" stroke-width="2.0" fill="none" stroke="rgb(255, 0, 0)" stroke-opacity="1" stroke-linecap="round" stroke-linejoin="round"/>
    <path d="M 43.03139877319336 135.9929962158203 C 49.30580139160156 124.69999694824219 54.747501373291016 120.0510025024414 53.27149963378906 123.13999938964844" stroke-width="2.0" fill="none" stroke="rgb(255, 0, 0)" stroke-opacity="1" stroke-linecap="round" stroke-linejoin="round"/>
    <path d="M 61.4807014465332 135.8679962158203 C 64.6520004272461 138.79100036621094 71.74600219726562 132.26800537109375 52.10070037841797 139.0330047607422" stroke-width="2.0" fill="none" stroke="rgb(255, 0, 0)" stroke-opacity="1" stroke-linecap="round" stroke-linejoin="round"/>
    <path d="M 39.81570053100586 156.43299865722656 C 56.296600341796875 145.54400634765625 59.54679870605469 140.2760009765625 55.68450164794922 148.2220001220703" stroke-width="2.0" fill="none" stroke="rgb(255, 0, 0)" stroke-opacity="1" stroke-linecap="round" stroke-linejoin="round"/>
    <path d="M 85.79209899902344 119.06500244140625 C 96.31629943847656 117.4990005493164 103.7959976196289 122.9530029296875 86.67330169677734 125.25800323486328" stroke-width="2.0" fill="none" stroke="rgb(255, 0, 0)" stroke-opacity="1" stroke-linecap="round" stroke-linejoin="round"/>
    <path d="M 39.87779998779297 139.927001953125 C 31.81450080871582 152.4290008544922 41.434600830078125 144.48300170898438 38.37770080566406 151.2259979248047" stroke-width="2.0" fill="none" stroke="rgb(255, 0, 0)" stroke-opacity="1" stroke-linecap="round" stroke-linejoin="round"/>
    <path d="M 46.05179977416992 155.35499572753906 C 57.98400115966797 144.36500549316406 63.69919967651367 142.79200744628906 43.71630096435547 158.53900146484375" stroke-width="2.0" fill="none" stroke="rgb(255, 0, 0)" stroke-opacity="1" stroke-linecap="round" stroke-linejoin="round"/>
    <path d="M 66.92160034179688 117.11799621582031 C 56.247798919677734 121.19400024414062 52.08660125732422 126.29900360107422 64.09400177001953 119.52999877929688" stroke-width="2.0" fill="none" stroke="rgb(255, 0, 0)" stroke-opacity="1" stroke-linecap="round" stroke-linejoin="round"/>
    <path d="M 85.6073989868164 118.552001953125 C 101.83999633789062 121.95500183105469 88.07620239257812 108.05500030517578 66.41529846191406 117.1259994506836" stroke-width="2.0" fill="none" stroke="rgb(255, 0, 0)" stroke-opacity="1" stroke-linecap="round" stroke-linejoin="round"/>
    <path d="M 71.22730255126953 132.03599548339844 C 61.27790069580078 131.80799865722656 75.48560333251953 135.44000244140625 70.9207992553711 131.45700073242188" stroke-width="2.0" fill="none" stroke="rgb(255, 0, 0)" stroke-opacity="1" stroke-linecap="round" stroke-linejoin="round"/>
    <path d="M 64.67870330810547 132.11900329589844 C 62.90599822998047 132.71800231933594 69.1615982055664 131.94700622558594 63.667598724365234 135.72900390625" stroke-width="2.0" fill="none" stroke="rgb(255, 0, 0)" stroke-opacity="1" stroke-linecap="round" stroke-linejoin="round"/>
    <path d="M 44.77370071411133 133.6999969482422 C 37.265098571777344 140.92999267578125 37.19139862060547 147.66299438476562 37.74549865722656 150.54600524902344" stroke-width="2.0" fill="none" stroke="rgb(255, 0, 0)" stroke-opacity="1" stroke-linecap="round" stroke-linejoin="round"/>
    <path d="M 70.85079956054688 133.85000610351562 C 64.54499816894531 131.79100036621094 73.08769989013672 141.5780029296875 67.88690185546875 131.82899475097656" stroke-width="2.0" fill="none" stroke="rgb(255, 0, 0)" stroke-opacity="1" stroke-linecap="round" stroke-linejoin="round"/>
    <path d="M 32.63990020751953 191.36099243164062 C 25.78529930114746 184.38900756835938 27.965200424194336 179.65699768066406 35.18370056152344 193.9969940185547" stroke-width="2.0" fill="none" stroke="rgb(0, 255, 0)" stroke-opacity="1" stroke-linecap="round" stroke-linejoin="round"/>
    <path d="M 50.51570129394531 121.2249984741211 C 43.18939971923828 118.3290023803711 37.589900970458984 125.44200134277344 39.569698333740234 123.16699981689453" stroke-width="2.0" fill="none" stroke="rgb(255, 0, 0)" stroke-opacity="1" stroke-linecap="round" stroke-linejoin="round"/>
    <path d="M 38.86970138549805 123.73400115966797 C 41.48889923095703 123.83499908447266 47.81269836425781 125.99800109863281 46.109798431396484 132.93600463867188" stroke-width="2.0" fill="none" stroke="rgb(255, 0, 0)" stroke-opacity="1" stroke-linecap="round" stroke-linejoin="round"/>
    <path d="M 75.79850006103516 123.33799743652344 C 91.5470962524414 120.0739974975586 84.40850067138672 114.59200286865234 87.47480010986328 120.21600341796875" stroke-width="2.0" fill="none" stroke="rgb(255, 0, 0)" stroke-opacity="1" stroke-linecap="round" stroke-linejoin="round"/>
    <path d="M 37.585201263427734 153.03900146484375 C 41.117801666259766 150.77499389648438 33.18259811401367 149.2989959716797 39.538299560546875 149.68600463867188" stroke-width="2.0" fill="none" stroke="rgb(255, 0, 0)" stroke-opacity="1" stroke-linecap="round" stroke-linejoin="round"/>
    <path d="M 55.32830047607422 122.9229965209961 C 50.14459991455078 127.03199768066406 44.830299377441406 132.74400329589844 52.31340026855469 124.08999633789062" stroke-width="2.0" fill="none" stroke="rgb(255, 0, 0)" stroke-opacity="1" stroke-linecap="round" stroke-linejoin="round"/>
    <path d="M 67.87989807128906 142.93899536132812 C 84.62550354003906 132.3470001220703 89.73970031738281 126.69000244140625 60.34830093383789 146.2209930419922" stroke-width="2.0" fill="none" stroke="rgb(255, 0, 0)" stroke-opacity="1" stroke-linecap="round" stroke-linejoin="round"/>
    <path d="M 62.14350128173828 134.4010009765625 C 67.1364974975586 133.59100341796875 72.07710266113281 135.25 59.16640090942383 141.39500427246094" stroke-width="2.0" fill="none" stroke="rgb(255, 0, 0)" stroke-opacity="1" stroke-linecap="round" stroke-linejoin="round"/>
    <path d="M 71.86640167236328 116.72699737548828 C 60.28310012817383 119.74700164794922 61.121498107910156 121.96800231933594 63.81999969482422 119.90499877929688" stroke-width="2.0" fill="none" stroke="rgb(255, 0, 0)" stroke-opacity="1" stroke-linecap="round" stroke-linejoin="round"/>
    <path d="M 97.27279663085938 122.07599639892578 C 110.677001953125 122.23500061035156 98.66670227050781 122.3030014038086 80.6802978515625 123.56900024414062" stroke-width="2.0" fill="none" stroke="rgb(255, 0, 0)" stroke-opacity="1" stroke-linecap="round" stroke-linejoin="round"/>
    <path d="M 35.62379837036133 155.04600524902344 C 37.06909942626953 142.94500732421875 37.09469985961914 145.947998046875 38.44369888305664 149.71400451660156" stroke-width="2.0" fill="none" stroke="rgb(255, 0, 0)" stroke-opacity="1" stroke-linecap="round" stroke-linejoin="round"/>
    <path d="M 46.19770050048828 132.4550018310547 C 56.439701080322266 122.12200164794922 63.2593994140625 120.5199966430664 51.78950119018555 124.20999908447266" stroke-width="2.0" fill="none" stroke="rgb(255, 0, 0)" stroke-opacity="1" stroke-linecap="round" stroke-linejoin="round"/>
    <path d="M 70.89250183105469 119.02100372314453 C 71.78060150146484 118.41799926757812 70.88259887695312 116.54199981689453 77.23090362548828 114.92900085449219" stroke-width="2.0" fill="none" stroke="rgb(255, 0, 0)" stroke-opacity="1" stroke-linecap="round" stroke-linejoin="round"/>
    <path d="M 82.69339752197266 129.99200439453125 C 91.67890167236328 127.87899780273438 104.43499755859375 129.46800231933594 102.64199829101562 124.13600158691406" stroke-width="2.0" fill="none" stroke="rgb(255, 0, 0)" stroke-opacity="1" stroke-linecap="round" stroke-linejoin="round"/>
    <path d="M 32.87350082397461 171.71600341796875 C 37.36840057373047 161.32699584960938 42.150699615478516 164.2760009765625 38.444000244140625 157.69500732421875" stroke-width="2.0" fill="none" stroke="rgb(255, 0, 0)" stroke-opacity="1" stroke-linecap="round" stroke-linejoin="round"/>
    <path d="M 96.53309631347656 121.6989974975586 C 74.23059844970703 127.90299987792969 88.47429656982422 121.9749984741211 82.20929718017578 119.96199798583984" stroke-width="2.0" fill="none" stroke="rgb(255, 0, 0)" stroke-opacity="1" stroke-linecap="round" stroke-linejoin="round"/>
    <path d="M 32.141998291015625 156.81500244140625 C 26.63920021057129 173.84500122070312 29.027799606323242 166.05299377441406 26.052400588989258 185.96099853515625" stroke-width="2.0" fill="none" stroke="rgb(255, 0, 0)" stroke-opacity="1" stroke-linecap="round" stroke-linejoin="round"/>
    <path d="M 63.04719924926758 119.19200134277344 C 64.0 120.0979995727539 66.28790283203125 115.91300201416016 55.590999603271484 124.1500015258789" stroke-width="2.0" fill="none" stroke="rgb(255, 0, 0)" stroke-opacity="1" stroke-linecap="round" stroke-linejoin="round"/>
    <path d="M 26.798900604248047 185.9550018310547 C 25.152299880981445 182.2310028076172 31.967899322509766 178.58299255371094 35.00019836425781 193.12899780273438" stroke-width="2.0" fill="none" stroke="rgb(0, 255, 0)" stroke-opacity="1" stroke-linecap="round" stroke-linejoin="round"/>
    <path d="M 81.66840362548828 146.697998046875 C 84.03910064697266 132.93699645996094 78.36849975585938 126.57599639892578 84.68119812011719 142.33399963378906" stroke-width="2.0" fill="none" stroke="rgb(255, 0, 0)" stroke-opacity="1" stroke-linecap="round" stroke-linejoin="round"/>
    <path d="M 23.934200286865234 183.52699279785156 C 39.6869010925293 195.54200744628906 30.773399353027344 191.11000061035156 22.388099670410156 184.0030059814453" stroke-width="2.0" fill="none" stroke="rgb(0, 255, 0)" stroke-opacity="1" stroke-linecap="round" stroke-linejoin="round"/>
    <path d="M 56.84560012817383 139.00900268554688 C 50.379600524902344 142.5469970703125 44.94710159301758 142.31100463867188 62.37519836425781 136.81500244140625" stroke-width="2.0" fill="none" stroke="rgb(255, 0, 0)" stroke-opacity="1" stroke-linecap="round" stroke-linejoin="round"/>
    <path d="M 36.908599853515625 145.72900390625 C 30.068700790405273 157.9199981689453 30.279800415039062 165.25100708007812 31.270999908447266 158.83299255371094" stroke-width="2.0" fill="none" stroke="rgb(255, 0, 0)" stroke-opacity="1" stroke-linecap="round" stroke-linejoin="round"/>
    <path d="M 90.01950073242188 119.57099914550781 C 86.26319885253906 114.11100006103516 82.19129943847656 123.4000015258789 95.59539794921875 120.39099884033203" stroke-width="2.0" fill="none" stroke="rgb(255, 0, 0)" stroke-opacity="1" stroke-linecap="round" stroke-linejoin="round"/>
    <path d="M 76.75740051269531 121.16600036621094 C 86.78009796142578 128.29800415039062 80.7936019897461 117.74199676513672 83.80380249023438 123.74099731445312" stroke-width="2.0" fill="none" stroke="rgb(255, 0, 0)" stroke-opacity="1" stroke-linecap="round" stroke-linejoin="round"/>
    <path d="M 80.38130187988281 123.9020004272461 C 88.45429992675781 117.34400177001953 94.23670196533203 119.15499877929688 86.0458984375 118.21700286865234" stroke-width="2.0" fill="none" stroke="rgb(255, 0, 0)" stroke-opacity="1" stroke-linecap="round" stroke-linejoin="round"/>
    <path d="M 70.14250183105469 132.63400268554688 C 87.59310150146484 128.54299926757812 93.8427963256836 129.38699340820312 87.35310363769531 128.38400268554688" stroke-width="2.0" fill="none" stroke="rgb(255, 0, 0)" stroke-opacity="1" stroke-linecap="round" stroke-linejoin="round"/>
    <path d="M 84.2240982055664 122.49600219726562 C 87.65769958496094 132.39100646972656 70.83799743652344 125.10800170898438 102.14099884033203 126.14600372314453" stroke-width="2.0" fill="none" stroke="rgb(255, 0, 0)" stroke-opacity="1" stroke-linecap="round" stroke-linejoin="round"/>
    <path d="M 129.43499755859375 123.35800170898438 C 141.25900268554688 102.98799896240234 141.7469940185547 115.70700073242188 138.57699584960938 110.7969970703125" stroke-width="2.0" fill="none" stroke="rgb(0, 0, 255)" stroke-opacity="1" stroke-linecap="round" stroke-linejoin="round"/>
    <path d="M 130.33299255371094 112.41400146484375 C 135.38900756835938 108.22100067138672 158.70899963378906 114.41699981689453 144.46200561523438 125.9749984741211" stroke-width="2.0" fill="none" stroke="rgb(0, 0, 255)" stroke-opacity="1" stroke-linecap="round" stroke-linejoin="round"/>
    <path d="M 137.62600708007812 107.0 C 135.5679931640625 112.78700256347656 132.2790069580078 112.76799774169922 138.74600219726562 109.61000061035156" stroke-width="2.0" fill="none" stroke="rgb(0, 0, 255)" stroke-opacity="1" stroke-linecap="round" stroke-linejoin="round"/>
    <path d="M 128.5469970703125 131.95899963378906 C 118.33200073242188 125.11399841308594 123.63200378417969 121.58799743652344 122.74099731445312 123.58200073242188" stroke-width="2.0" fill="none" stroke="rgb(0, 0, 255)" stroke-opacity="1" stroke-linecap="round" stroke-linejoin="round"/>
    <path d="M 142.96299743652344 129.00599670410156 C 146.62100219726562 127.77400207519531 139.79600524902344 111.427001953125 137.93499755859375 111.47599792480469" stroke-width="2.0" fill="none" stroke="rgb(0, 0, 255)" stroke-opacity="1" stroke-linecap="round" stroke-linejoin="round"/>
    <path d="M 130.86700439453125 107.71199798583984 C 130.1719970703125 107.85800170898438 150.58399963378906 106.48799896240234 135.3939971923828 112.00599670410156" stroke-width="2.0" fill="none" stroke="rgb(0, 0, 255)" stroke-opacity="1" stroke-linecap="round" stroke-linejoin="round"/>
    <path d="M 135.875 108.26799774169922 C 121.73799896240234 105.78800201416016 117.58100128173828 120.95700073242188 123.81900024414062 125.02100372314453" stroke-width="2.0" fill="none" stroke="rgb(0, 0, 255)" stroke-opacity="1" stroke-linecap="round" stroke-linejoin="round"/>
    <path d="M 142.6649932861328 131.00900268554688 C 144.6790008544922 116.61699676513672 135.88099670410156 105.46600341796875 138.6540069580078 110.79900360107422" stroke-width="2.0" fill="none" stroke="rgb(0, 0, 255)" stroke-opacity="1" stroke-linecap="round" stroke-linejoin="round"/>
    <path d="M 126.41500091552734 128.55999755859375 C 133.031005859375 133.41900634765625 123.51200103759766 131.08399963378906 132.01400756835938 119.78099822998047" stroke-width="2.0" fill="none" stroke="rgb(0, 0, 255)" stroke-opacity="1" stroke-linecap="round" stroke-linejoin="round"/>
    <path d="M 139.343994140625 110.91799926757812 C 140.37100219726562 114.51699829101562 139.17599487304688 107.41600036621094 139.77099609375 111.43699645996094" stroke-width="2.0" fill="none" stroke="rgb(0, 0, 255)" stroke-opacity="1" stroke-linecap="round" stroke-linejoin="round"/>
    <path d="M 131.23199462890625 130.79400634765625 C 131.19000244140625 131.23599243164062 125.66100311279297 124.10099792480469 122.47899627685547 119.93900299072266" stroke-width="2.0" fill="none" stroke="rgb(0, 0, 255)" stroke-opacity="1" stroke-linecap="round" stroke-linejoin="round"/>
    <path d="M 127.7249984741211 128.85000610351562 C 120.17500305175781 120.50199890136719 115.52100372314453 116.45700073242188 138.16900634765625 111.677001953125" stroke-width="2.0" fill="none" stroke="rgb(0, 0, 255)" stroke-opacity="1" stroke-linecap="round" stroke-linejoin="round"/>
    <path d="M 129.9040069580078 109.8010025024414 C 138.45899963378906 100.70600128173828 141.65199279785156 130.38699340820312 138.41799926757812 131.67799377441406" stroke-width="2.0" fill="none" stroke="rgb(255, 0, 0)" stroke-opacity="1" stroke-linecap="round" stroke-linejoin="round"/>
    <path d="M 138.7239990234375 131.25900268554688 C 147.0919952392578 132.84100341796875 150.10400390625 124.21700286865234 149.9969940185547 118.8489990234375" stroke-width="2.0" fill="none" stroke="rgb(0, 0, 255)" stroke-opacity="1" stroke-linecap="round" stroke-linejoin="round"/>
    <path d="M 133.86700439453125 133.0 C 120.08300018310547 131.3520050048828 121.78600311279297 122.5250015258789 122.45800018310547 123.97100067138672" stroke-width="2.0" fill="none" stroke="rgb(0, 0, 255)" stroke-opacity="1" stroke-linecap="round" stroke-linejoin="round"/>
    <path d="M 136.57200622558594 132.2010040283203 C 145.76400756835938 132.53500366210938 158.0050048828125 116.79900360107422 141.09800720214844 108.84600067138672" stroke-width="2.0" fill="none" stroke="rgb(0, 0, 255)" stroke-opacity="1" stroke-linecap="round" stroke-linejoin="round"/>
    <path d="M 141.34500122070312 116.93000030517578 C 136.50999450683594 102.9469985961914 146.11599731445312 105.56700134277344 132.0749969482422 119.36499786376953" stroke-width="2.0" fill="none" stroke="rgb(0, 0, 255)" stroke-opacity="1" stroke-linecap="round" stroke-linejoin="round"/>
    <path d="M 142.75900268554688 121.79299926757812 C 144.3560028076172 123.75 142.77699279785156 126.33100128173828 142.9709930419922 128.23300170898438" stroke-width="2.0" fill="none" stroke="rgb(0, 0, 255)" stroke-opacity="1" stroke-linecap="round" stroke-linejoin="round"/>
    <path d="M 123.19000244140625 124.66899871826172 C 134.37399291992188 141.01300048828125 136.2209930419922 131.61599731445312 141.7779998779297 109.27200317382812" stroke-width="2.0" fill="none" stroke="rgb(0, 0, 255)" stroke-opacity="1" stroke-linecap="round" stroke-linejoin="round"/>
  </g>
</svg>
