<svg xmlns="http://www.w3.org/2000/svg" xmlns:xlink="http://www.w3.org/1999/xlink" width="256" height="256" viewBox="0 0 256 256" fill="none">
<rect x="0" y="0" width="0" height="0" fill="rgba(249, 249, 249, 1)" />
<path     fill="#FFFFFF"  d="M0 256L256 256L256 0L0 0L0 256Z">
</path>
<path    stroke="rgba(0, 0, 255, 1)" stroke-width="2" stroke-linejoin="round" stroke-linecap="round"  d="M177.066 166.695C112.66 178.204 76.1218 159.513 8 166.695">
</path>
<path    stroke="rgba(0, 0, 255, 1)" stroke-width="2" stroke-linejoin="round" stroke-linecap="round"  d="M247.665 166.695C183.259 178.204 146.721 159.513 78.599 166.695">
</path>
<path    stroke="rgba(0, 255, 0, 1)" stroke-width="2" stroke-linejoin="round" stroke-linecap="round"  d="M142.969 157.144C147.004 163.803 143.214 161.267 152.433 150.748">
</path>
<path    stroke="rgba(0, 255, 0, 1)" stroke-width="2" stroke-linejoin="round" stroke-linecap="round"  d="M131.896 155.639C136.736 152.416 126.876 157.097 135.062 149.152">
</path>
<path    stroke="rgba(0, 255, 0, 1)" stroke-width="2" stroke-linejoin="round" stroke-linecap="round"  d="M152.375 167.111C138.35 161.407 147.685 163.111 140.922 156.842">
</path>
<path    stroke="rgba(0, 255, 0, 1)" stroke-width="2" stroke-linejoin="round" stroke-linecap="round"  d="M120.359 162.574C121.175 158.929 125.32 164.377 120.363 163.062">
</path>
<path    stroke="rgba(0, 255, 0, 1)" stroke-width="2" stroke-linejoin="round" stroke-linecap="round"  d="M135.938 166.627C152.297 172.292 138.945 157.116 149.24 171">
</path>
<path    stroke="rgba(0, 255, 0, 1)" stroke-width="2" stroke-linejoin="round" stroke-linecap="round"  d="M134.711 154.75C131.953 158.362 115.007 157.102 118.191 164.126">
</path>
<path    stroke="rgba(0, 255, 0, 1)" stroke-width="2" stroke-linejoin="round" stroke-linecap="round"  d="M136.65 150.27C131.011 156.641 130.323 152.789 144.277 154.782">
</path>
<path    stroke="rgba(0, 255, 0, 1)" stroke-width="2" stroke-linejoin="round" stroke-linecap="round"  d="M133.184 157.609C116.13 160.61 131.778 153.085 159 163.685">
</path>
<path    stroke="rgba(0, 255, 0, 1)" stroke-width="2" stroke-linejoin="round" stroke-linecap="round"  d="M140.193 152.578C122.333 162.288 129.85 155.081 133.17 165.565">
</path>
<path    stroke="rgba(0, 255, 0, 1)" stroke-width="2" stroke-linejoin="round" stroke-linecap="round"  d="M144.72 168.62C106.042 170.864 116.81 161.047 120.422 159.781">
</path>
<path    stroke="rgba(0, 255, 0, 1)" stroke-width="2" stroke-linejoin="round" stroke-linecap="round"  d="M144.089 163.569C149.403 153.487 140.964 157.6 155.543 149">
</path>
<path    stroke="rgba(0, 255, 0, 1)" stroke-width="2" stroke-linejoin="round" stroke-linecap="round"  d="M117.958 159.746C118.014 161.435 114.375 163.83 116.882 163.353">
</path>
<path    stroke="rgba(0, 255, 0, 1)" stroke-width="2" stroke-linejoin="round" stroke-linecap="round"  d="M129.985 160.42C135.498 161.575 125.445 167.98 137.296 169.359">
</path>
<path    stroke="rgba(0, 255, 0, 1)" stroke-width="2" stroke-linejoin="round" stroke-linecap="round"  d="M136.845 151.23C133.621 158.635 129.758 148.963 147.368 155.377">
</path>
<path    stroke="rgba(0, 255, 0, 1)" stroke-width="2" stroke-linejoin="round" stroke-linecap="round"  d="M127.01 159.193C132.262 167.031 118.632 163.632 135.519 170.168">
</path>
<path    stroke="rgba(0, 255, 0, 1)" stroke-width="2" stroke-linejoin="round" stroke-linecap="round"  d="M138.884 151.777C132.835 154.784 134.305 155.927 137.115 153.127">
</path>
<path    stroke="rgba(255, 0, 0, 1)" stroke-width="2" stroke-linejoin="round" stroke-linecap="round"  d="M123.272 137.741C116.328 150.139 117.628 148.895 130.51 155.757">
</path>
<path    stroke="rgba(255, 0, 0, 1)" stroke-width="2" stroke-linejoin="round" stroke-linecap="round"  d="M90.8288 113.199C144.319 143.687 99.8309 112.312 131.352 135.64">
</path>
<path    stroke="rgba(255, 0, 0, 1)" stroke-width="2" stroke-linejoin="round" stroke-linecap="round"  d="M122.783 146.533C163.997 134.46 153.891 119.433 134.262 127.904">
</path>
<path    stroke="rgba(255, 0, 0, 1)" stroke-width="2" stroke-linejoin="round" stroke-linecap="round"  d="M113.925 134.327C136.386 140.058 111.053 139.051 92.261 117.624">
</path>
<path    stroke="rgba(255, 0, 0, 1)" stroke-width="2" stroke-linejoin="round" stroke-linecap="round"  d="M127.29 136.529C117.812 150.598 129.819 143.912 142.158 153.414">
</path>
<path    stroke="rgba(255, 0, 0, 1)" stroke-width="2" stroke-linejoin="round" stroke-linecap="round"  d="M141.03 156.318C141.03 153.321 144.031 151.827 146.028 154.828">
</path>
<path    stroke="rgba(255, 0, 0, 1)" stroke-width="2" stroke-linejoin="round" stroke-linecap="round"  d="M128.679 159.081C127.528 156.818 131.528 153.325 134.027 156.818">
</path>
<path    stroke="rgba(255, 0, 0, 1)" stroke-width="2" stroke-linejoin="round" stroke-linecap="round"  d="M89.3098 109.252C144.704 128.39 108.95 118.603 96.2217 100.375">
</path>
<path    stroke="rgba(255, 0, 0, 1)" stroke-width="2" stroke-linejoin="round" stroke-linecap="round"  d="M113.602 120.275C106.724 100.641 103.962 107.751 100.618 99.9285">
</path>
<path    stroke="rgba(255, 0, 0, 1)" stroke-width="2" stroke-linejoin="round" stroke-linecap="round"  d="M163.045 110.344C143.551 120.567 125.675 131.432 160.167 116.068">
</path>
<path    stroke="rgba(255, 0, 0, 1)" stroke-width="2" stroke-linejoin="round" stroke-linecap="round"  d="M163.732 109.037C129.109 122.865 164.301 112.877 158.658 104.186">
</path>
<path    stroke="rgba(255, 0, 0, 1)" stroke-width="2" stroke-linejoin="round" stroke-linecap="round"  d="M142.46 134.217C173.241 130.773 136.558 126.452 151.159 128.194">
</path>
<path    stroke="rgba(255, 0, 0, 1)" stroke-width="2" stroke-linejoin="round" stroke-linecap="round"  d="M137.307 126.852C157.466 101.55 160.985 126.617 164.051 106.32">
</path>
<path    stroke="rgba(255, 0, 0, 1)" stroke-width="2" stroke-linejoin="round" stroke-linecap="round"  d="M139.668 124.353C180.032 135.856 128.36 127.36 156.341 133.354">
</path>
<path    stroke="rgba(255, 0, 0, 1)" stroke-width="2" stroke-linejoin="round" stroke-linecap="round"  d="M111.397 115.466C126.709 120.737 129.858 129.925 140.996 132.216">
</path>
<path    stroke="rgba(255, 0, 0, 1)" stroke-width="2" stroke-linejoin="round" stroke-linecap="round"  d="M155.884 106.35C135.118 136.158 146.067 128.226 164.518 103.874">
</path>
<path    stroke="rgba(255, 0, 0, 1)" stroke-width="2" stroke-linejoin="round" stroke-linecap="round"  d="M152.953 132.561C135.808 123.488 179.824 136.946 145.92 134.435">
</path>
<path    stroke="rgba(255, 0, 0, 1)" stroke-width="2" stroke-linejoin="round" stroke-linecap="round"  d="M118.441 120.973C103.772 109.917 98.183 111.664 92.4348 104.374">
</path>
</svg>
