<svg height="256" version="1.1" width="256" xmlns="http://www.w3.org/2000/svg">
  <defs/>
  <g>
    <path d="M246.506 75.9961C198 150 42.5 220.5 7.99995 230.998" fill="none" stroke="rgb(0, 0, 0)" stroke-linecap="round" stroke-linejoin="round" stroke-opacity="1.0" stroke-width="2"/>
    <path d="M205.765 52.8396C207.36 51.6183 208.342 50.3979 209.689 49.0338" fill="none" stroke="rgb(0, 0, 0)" stroke-linecap="round" stroke-linejoin="round" stroke-opacity="1.0" stroke-width="2"/>
    <path d="M209.905 47.9492C215.552 42.2756 223.778 32.5334 226.637 32.1119" fill="none" stroke="rgb(0, 0, 0)" stroke-linecap="round" stroke-linejoin="round" stroke-opacity="1.0" stroke-width="2"/>
    <path d="M211.124 48.9221C216.771 43.2485 226.497 34.2072 226.875 32.0767" fill="none" stroke="rgb(0, 0, 0)" stroke-linecap="round" stroke-linejoin="round" stroke-opacity="1.0" stroke-width="2"/>
    <path d="M206.164 53.0696C207.527 52.0561 208.396 51.0092 209.567 49.8531" fill="none" stroke="rgb(0, 0, 0)" stroke-linecap="round" stroke-linejoin="round" stroke-opacity="1.0" stroke-width="2"/>
    <path d="M206.431 46.6174C208.927 48.0807 210.133 49.9008 212.006 51.7889" fill="none" stroke="rgb(0, 0, 0)" stroke-linecap="round" stroke-linejoin="round" stroke-opacity="1.0" stroke-width="2"/>
    <path d="M201.121 61.7985C187.73 57.8001 196.021 42.7898 196.382 67.6166" fill="none" stroke="rgb(0, 0, 0)" stroke-linecap="round" stroke-linejoin="round" stroke-opacity="1.0" stroke-width="2"/>
    <path d="M197.881 66.1926C201.982 45.1112 194.131 42.6101 201.521 61.0281" fill="none" stroke="rgb(0, 0, 0)" stroke-linecap="round" stroke-linejoin="round" stroke-opacity="1.0" stroke-width="2"/>
    <path d="M199.886 48.6191C195.785 69.7004 207.132 71.2454 198.75 52.6265" fill="none" stroke="rgb(0, 0, 0)" stroke-linecap="round" stroke-linejoin="round" stroke-opacity="1.0" stroke-width="2"/>
    <path d="M198.607 47.8468C200.773 62.0022 193.042 57.9907 196.601 65.4176" fill="none" stroke="rgb(0, 0, 0)" stroke-linecap="round" stroke-linejoin="round" stroke-opacity="1.0" stroke-width="2"/>
    <path d="M198.195 44.8937C191.02 60.0103 201.998 60.0955 196.111 46.0817" fill="none" stroke="rgb(0, 0, 0)" stroke-linecap="round" stroke-linejoin="round" stroke-opacity="1.0" stroke-width="2"/>
    <path d="M198.195 44.8937C191.02 60.0103 201.998 60.0955 196.111 46.0817" fill="none" stroke="rgb(0, 0, 0)" stroke-linecap="round" stroke-linejoin="round" stroke-opacity="1.0" stroke-width="2"/>
    <path d="M203.453 84.0839C200.338 69.2934 181.249 66.7242 204.606 81.6863" fill="none" stroke="rgb(0, 0, 0)" stroke-linecap="round" stroke-linejoin="round" stroke-opacity="1.0" stroke-width="2"/>
    <path d="M202.366 64.8355C191.727 74.8928 193.102 71.7596 200.104 63.8658" fill="none" stroke="rgb(0, 0, 0)" stroke-linecap="round" stroke-linejoin="round" stroke-opacity="1.0" stroke-width="2"/>
    <path d="M196.81 65.9949C186.171 76.0523 187.547 72.919 194.548 65.0253" fill="none" stroke="rgb(0, 0, 0)" stroke-linecap="round" stroke-linejoin="round" stroke-opacity="1.0" stroke-width="2"/>
    <path d="M188.984 84.7542C190.436 72.0333 186.64 66.7173 191.971 82.3447" fill="none" stroke="rgb(0, 0, 0)" stroke-linecap="round" stroke-linejoin="round" stroke-opacity="1.0" stroke-width="2"/>
    <path d="M207.685 51.5707C196.719 49.6827 197.822 45.9783 207.512 53.0854" fill="none" stroke="rgb(0, 0, 0)" stroke-linecap="round" stroke-linejoin="round" stroke-opacity="1.0" stroke-width="2"/>
    <path d="M211.642 55.5141C205.606 51.9327 205.96 48.8991 211.503 56.7259" fill="none" stroke="rgb(0, 0, 0)" stroke-linecap="round" stroke-linejoin="round" stroke-opacity="1.0" stroke-width="2"/>
    <path d="M182.138 60.6821C189.142 55.7853 189.481 52.7533 182 61.8938" fill="none" stroke="rgb(0, 0, 0)" stroke-linecap="round" stroke-linejoin="round" stroke-opacity="1.0" stroke-width="2"/>
    <path d="M189.513 55.9972C194.004 45.4968 199.008 49.4924 187.004 56.0047" fill="none" stroke="rgb(0, 0, 0)" stroke-linecap="round" stroke-linejoin="round" stroke-opacity="1.0" stroke-width="2"/>
    <path d="M194.97 48.2134C192.193 67.404 197.985 64.1938 198.7 69.3674" fill="none" stroke="rgb(0, 0, 0)" stroke-linecap="round" stroke-linejoin="round" stroke-opacity="1.0" stroke-width="2"/>
    <path d="M199.033 50.3252C186.361 39.1635 209.603 46.4951 193.801 45.4911" fill="none" stroke="rgb(0, 0, 0)" stroke-linecap="round" stroke-linejoin="round" stroke-opacity="1.0" stroke-width="2"/>
    <path d="M195.237 47.7496C189.062 43.7617 196.669 35.9746 199.231 45.4436" fill="none" stroke="rgb(0, 0, 0)" stroke-linecap="round" stroke-linejoin="round" stroke-opacity="1.0" stroke-width="2"/>
    <path d="M197.111 92.1394C183.833 85.6563 171.997 61.5035 165.501 79.005" fill="none" stroke="rgb(0, 0, 0)" stroke-linecap="round" stroke-linejoin="round" stroke-opacity="1.0" stroke-width="2"/>
    <path d="M220.881 65.8993C219.762 76.5121 209.462 84.8982 194.029 91.9025" fill="none" stroke="rgb(0, 0, 0)" stroke-linecap="round" stroke-linejoin="round" stroke-opacity="1.0" stroke-width="2"/>
    <path d="M190.949 67.0512C199.065 65.6052 195.362 61.7639 176.729 70.5262" fill="none" stroke="rgb(0, 0, 0)" stroke-linecap="round" stroke-linejoin="round" stroke-opacity="1.0" stroke-width="2"/>
    <path d="M200.389 65.3112C180.572 70.9248 177.728 76.72 200.794 65.4223" fill="none" stroke="rgb(0, 0, 0)" stroke-linecap="round" stroke-linejoin="round" stroke-opacity="1.0" stroke-width="2"/>
    <path d="M186.514 83.4137C197.76 96.816 179.277 101.229 184.887 114.145" fill="none" stroke="rgb(0, 0, 0)" stroke-linecap="round" stroke-linejoin="round" stroke-opacity="1.0" stroke-width="2"/>
    <path d="M189.264 84.3574C198.267 95.0857 185.146 105.107 192.705 114.116" fill="none" stroke="rgb(0, 0, 0)" stroke-linecap="round" stroke-linejoin="round" stroke-opacity="1.0" stroke-width="2"/>
    <path d="M201.415 64.6599C188.746 61.8759 163.365 80.7922 195.009 64.7997" fill="none" stroke="rgb(0, 0, 0)" stroke-linecap="round" stroke-linejoin="round" stroke-opacity="1.0" stroke-width="2"/>
    <path d="M176.065 61.0697C210.201 86.2105 185.755 95.492 176.635 60.2798" fill="none" stroke="rgb(0, 0, 0)" stroke-linecap="round" stroke-linejoin="round" stroke-opacity="1.0" stroke-width="2"/>
    <path d="M175.246 72.6425C146.55 88.2422 174.114 68.3746 171.522 63.3785" fill="none" stroke="rgb(0, 0, 0)" stroke-linecap="round" stroke-linejoin="round" stroke-opacity="1.0" stroke-width="2"/>
    <path d="M173.845 66.9827C180.205 60.1501 172.747 80.8147 169.795 71.4555" fill="none" stroke="rgb(0, 0, 0)" stroke-linecap="round" stroke-linejoin="round" stroke-opacity="1.0" stroke-width="2"/>
    <path d="M171.857 60.9164C200.218 82.2533 179.837 51.7078 172.146 65.4426" fill="none" stroke="rgb(0, 0, 0)" stroke-linecap="round" stroke-linejoin="round" stroke-opacity="1.0" stroke-width="2"/>
    <path d="M237.005 84.4988C221.964 86.0281 215 71 221.555 60.2197" fill="none" stroke="rgb(0, 0, 0)" stroke-linecap="round" stroke-linejoin="round" stroke-opacity="1.0" stroke-width="2"/>
    <path d="M231.501 93.001C217.5 85.0005 214 77.5 221.073 66.0964" fill="none" stroke="rgb(0, 0, 0)" stroke-linecap="round" stroke-linejoin="round" stroke-opacity="1.0" stroke-width="2"/>
    <path d="M201.017 63.8175C214.499 52.0001 228.999 63.8175 241.501 52.0001" fill="none" stroke="rgb(0, 0, 0)" stroke-linecap="round" stroke-linejoin="round" stroke-opacity="1.0" stroke-width="2"/>
    <path d="M245.731 48.874C236.008 53.8099 246.287 57.9829 227.503 61.4926" fill="none" stroke="rgb(0, 0, 0)" stroke-linecap="round" stroke-linejoin="round" stroke-opacity="1.0" stroke-width="2"/>
    <path d="M243.562 49.9946C232.527 53.8105 245.744 60.0927 223.431 60.845" fill="none" stroke="rgb(0, 0, 0)" stroke-linecap="round" stroke-linejoin="round" stroke-opacity="1.0" stroke-width="2"/>
    <path d="M244.989 48.6155C239.267 51.2535 248.398 60.9085 215.163 58.127" fill="none" stroke="rgb(0, 0, 0)" stroke-linecap="round" stroke-linejoin="round" stroke-opacity="1.0" stroke-width="2"/>
    <path d="M241.826 46.8845C236.105 49.5226 245.235 59.1776 212 56.3961" fill="none" stroke="rgb(0, 0, 0)" stroke-linecap="round" stroke-linejoin="round" stroke-opacity="1.0" stroke-width="2"/>
    <path d="M36.6633 152.445C34.6711 152.185 33.2111 151.619 31.3624 151.111" fill="none" stroke="rgb(0, 0, 0)" stroke-linecap="round" stroke-linejoin="round" stroke-opacity="1.0" stroke-width="2"/>
    <path d="M30.6325 150.28C22.9053 148.19 10.9104 143.866 8.22417 144.93" fill="none" stroke="rgb(0, 0, 0)" stroke-linecap="round" stroke-linejoin="round" stroke-opacity="1.0" stroke-width="2"/>
    <path d="M30.0632 151.732C22.336 149.642 9.39315 146.675 8.00002 145.019" fill="none" stroke="rgb(0, 0, 0)" stroke-linecap="round" stroke-linejoin="round" stroke-opacity="1.0" stroke-width="2"/>
    <path d="M36.4332 152.844C34.7453 152.648 33.4698 152.176 31.8771 151.76" fill="none" stroke="rgb(0, 0, 0)" stroke-linecap="round" stroke-linejoin="round" stroke-opacity="1.0" stroke-width="2"/>
    <path d="M32.9754 147.39C31.5453 149.905 31.411 152.084 30.7329 154.656" fill="none" stroke="rgb(0, 0, 0)" stroke-linecap="round" stroke-linejoin="round" stroke-opacity="1.0" stroke-width="2"/>
    <path d="M46.7619 153.777C56.3598 143.619 41.6749 134.765 53.7753 156.446" fill="none" stroke="rgb(0, 0, 0)" stroke-linecap="round" stroke-linejoin="round" stroke-opacity="1.0" stroke-width="2"/>
    <path d="M51.7649 155.962C37.6727 139.756 43.2219 133.664 46.0303 153.31" fill="none" stroke="rgb(0, 0, 0)" stroke-linecap="round" stroke-linejoin="round" stroke-opacity="1.0" stroke-width="2"/>
    <path d="M41.2425 141.745C55.3347 157.952 46.2797 164.964 44.2295 144.648" fill="none" stroke="rgb(0, 0, 0)" stroke-linecap="round" stroke-linejoin="round" stroke-opacity="1.0" stroke-width="2"/>
    <path d="M41.964 140.437C47.1655 153.779 51.855 146.44 52.4866 154.651" fill="none" stroke="rgb(0, 0, 0)" stroke-linecap="round" stroke-linejoin="round" stroke-opacity="1.0" stroke-width="2"/>
    <path d="M40.8443 137.674C54.6155 147.178 45.1511 152.741 43.2426 137.661" fill="none" stroke="rgb(0, 0, 0)" stroke-linecap="round" stroke-linejoin="round" stroke-opacity="1.0" stroke-width="2"/>
    <path d="M40.8443 137.674C54.6155 147.178 45.1511 152.741 43.2426 137.661" fill="none" stroke="rgb(0, 0, 0)" stroke-linecap="round" stroke-linejoin="round" stroke-opacity="1.0" stroke-width="2"/>
    <path d="M55.8853 174.243C51.1882 159.876 66.4345 148.107 53.6879 172.743" fill="none" stroke="rgb(0, 0, 0)" stroke-linecap="round" stroke-linejoin="round" stroke-opacity="1.0" stroke-width="2"/>
    <path d="M47.2029 157.029C61.4451 160.42 58.6875 158.394 48.6769 155.059" fill="none" stroke="rgb(0, 0, 0)" stroke-linecap="round" stroke-linejoin="round" stroke-opacity="1.0" stroke-width="2"/>
    <path d="M52.5938 155.256C66.8359 158.646 64.0784 156.62 54.0678 153.285" fill="none" stroke="rgb(0, 0, 0)" stroke-linecap="round" stroke-linejoin="round" stroke-opacity="1.0" stroke-width="2"/>
    <path d="M68.751 167.589C61.1329 157.298 61.7624 150.796 64.9599 166.995" fill="none" stroke="rgb(0, 0, 0)" stroke-linecap="round" stroke-linejoin="round" stroke-opacity="1.0" stroke-width="2"/>
    <path d="M35.9638 148.201C44.5168 141.083 41.7096 138.426 36.8709 149.427" fill="none" stroke="rgb(0, 0, 0)" stroke-linecap="round" stroke-linejoin="round" stroke-opacity="1.0" stroke-width="2"/>
    <path d="M34.5088 153.595C37.9455 147.475 36.1218 145.025 35.2345 154.575" fill="none" stroke="rgb(0, 0, 0)" stroke-linecap="round" stroke-linejoin="round" stroke-opacity="1.0" stroke-width="2"/>
    <path d="M63.968 139.622C55.454 138.884 53.6451 136.427 64.6937 140.603" fill="none" stroke="rgb(0, 0, 0)" stroke-linecap="round" stroke-linejoin="round" stroke-opacity="1.0" stroke-width="2"/>
    <path d="M56.6532 138.232C44.4722 140.45 42.9256 137.225 57.5604 139.458" fill="none" stroke="rgb(0, 0, 0)" stroke-linecap="round" stroke-linejoin="round" stroke-opacity="1.0" stroke-width="2"/>
    <path d="M45.2964 138.936C57.2973 154.167 50.6758 154.283 52.6434 159.121" fill="none" stroke="rgb(0, 0, 0)" stroke-linecap="round" stroke-linejoin="round" stroke-opacity="1.0" stroke-width="2"/>
    <path d="M42.8335 142.797C48.227 126.795 31.7651 144.765 44.9482 135.994" fill="none" stroke="rgb(0, 0, 0)" stroke-linecap="round" stroke-linejoin="round" stroke-opacity="1.0" stroke-width="2"/>
    <path d="M44.8338 138.668C48.1875 132.127 37.7063 129.186 40.2219 138.668" fill="none" stroke="rgb(0, 0, 0)" stroke-linecap="round" stroke-linejoin="round" stroke-opacity="1.0" stroke-width="2"/>
    <path d="M86.1676 160.7C79.8335 147.1 61.3806 125.705 86.3275 138.838" fill="none" stroke="rgb(0, 0, 0)" stroke-linecap="round" stroke-linejoin="round" stroke-opacity="1.0" stroke-width="2"/>
    <path d="M92.737 183.109C105.827 168.237 101.228 170.613 69.2318 147.613" fill="none" stroke="rgb(0, 0, 0)" stroke-linecap="round" stroke-linejoin="round" stroke-opacity="1.0" stroke-width="2"/>
    <path d="M68.5158 126.851C48.2027 164.063 74.2811 162.143 67.6647 126.376" fill="none" stroke="rgb(0, 0, 0)" stroke-linecap="round" stroke-linejoin="round" stroke-opacity="1.0" stroke-width="2"/>
    <path d="M74.1487 136.993C106.748 139.004 73.3712 132.647 73.6085 127.023" fill="none" stroke="rgb(0, 0, 0)" stroke-linecap="round" stroke-linejoin="round" stroke-opacity="1.0" stroke-width="2"/>
    <path d="M73.0262 131.272C64.375 127.767 79.8669 143.344 78.5867 133.614" fill="none" stroke="rgb(0, 0, 0)" stroke-linecap="round" stroke-linejoin="round" stroke-opacity="1.0" stroke-width="2"/>
    <path d="M51.7343 177.111C64.2319 181.11 75.2319 173.61 85.2349 159.614" fill="none" stroke="rgb(0, 0, 0)" stroke-linecap="round" stroke-linejoin="round" stroke-opacity="1.0" stroke-width="2"/>
    <path d="M60.5939 148.497C57.0965 155.963 54.3445 151.392 67.6309 135.661" fill="none" stroke="rgb(0, 0, 0)" stroke-linecap="round" stroke-linejoin="round" stroke-opacity="1.0" stroke-width="2"/>
    <path d="M56.47 157.165C67.0212 139.477 73.3552 138.229 56.4726 157.585" fill="none" stroke="rgb(0, 0, 0)" stroke-linecap="round" stroke-linejoin="round" stroke-opacity="1.0" stroke-width="2"/>
    <path d="M79.4109 154.196C87.1449 161.396 92.9437 142.064 90.9165 175.726" fill="none" stroke="rgb(0, 0, 0)" stroke-linecap="round" stroke-linejoin="round" stroke-opacity="1.0" stroke-width="2"/>
    <path d="M55.5752 157.988C56.165 145.03 81.0058 125.41 57.3684 151.836" fill="none" stroke="rgb(0, 0, 0)" stroke-linecap="round" stroke-linejoin="round" stroke-opacity="1.0" stroke-width="2"/>
    <path d="M72.2639 124.934C55.5776 156.257 61.1406 119.96 73.9156 129.158" fill="none" stroke="rgb(0, 0, 0)" stroke-linecap="round" stroke-linejoin="round" stroke-opacity="1.0" stroke-width="2"/>
    <path d="M37.0728 200.868C41.1424 190.752 46.1955 200.628 48.0547 181.61" fill="none" stroke="rgb(0, 0, 0)" stroke-linecap="round" stroke-linejoin="round" stroke-opacity="1.0" stroke-width="2"/>
    <path d="M38.0001 198.61C40.8397 187.284 48.2499 199.903 47.0547 177.61" fill="none" stroke="rgb(0, 0, 0)" stroke-linecap="round" stroke-linejoin="round" stroke-opacity="1.0" stroke-width="2"/>
    <path d="M72.7261 189.148C52.5914 183.168 58.8221 186.082 55.7311 173.11" fill="none" stroke="rgb(0, 0, 0)" stroke-linecap="round" stroke-linejoin="round" stroke-opacity="1.0" stroke-width="2"/>
    <path d="M57.7282 208.606C47.662 181.437 65.3944 191.881 46.2855 179.568" fill="none" stroke="rgb(0, 0, 0)" stroke-linecap="round" stroke-linejoin="round" stroke-opacity="1.0" stroke-width="2"/>
    <path d="M54.8611 157.382C47.4447 170.616 34.1631 154.677 48.3142 191.584" fill="none" stroke="rgb(0, 0, 0)" stroke-linecap="round" stroke-linejoin="round" stroke-opacity="1.0" stroke-width="2"/>
    <path d="M36.7505 200.151C38.8799 194.222 49.2939 202.476 43.6264 169.61" fill="none" stroke="rgb(0, 0, 0)" stroke-linecap="round" stroke-linejoin="round" stroke-opacity="1.0" stroke-width="2"/>
    <path d="M34.7505 197.151C36.8799 191.222 47.2939 199.476 41.6264 166.61" fill="none" stroke="rgb(0, 0, 0)" stroke-linecap="round" stroke-linejoin="round" stroke-opacity="1.0" stroke-width="2"/>
  </g>
</svg>
