<?xml version="1.0" ?>
<svg xmlns="http://www.w3.org/2000/svg" version="1.1" width="256" height="256">
  <defs/>
  <g>
    <path d="M 228.968994140625 213.3800048828125 C 209.5959930419922 197.62600708007812 216.03500366210938 218.2209930419922 201.0070037841797 206.62899780273438" stroke-width="1.0" fill="none" stroke="rgb(255, 0, 0)" stroke-opacity="1" stroke-linecap="round" stroke-linejoin="round"/>
    <path d="M 137.56500244140625 217.75999450683594 C 188.85499572753906 224.8280029296875 177.02999877929688 210.68800354003906 233.53700256347656 216.17799377441406" stroke-width="1.0" fill="none" stroke="rgb(0, 0, 255)" stroke-opacity="1" stroke-linecap="round" stroke-linejoin="round"/>
    <path d="M 234.48300170898438 208.0749969482422 C 253.0469970703125 214.1750030517578 249.38499450683594 201.9219970703125 246.23500061035156 218.06399536132812" stroke-width="1.0" fill="none" stroke="rgb(255, 0, 0)" stroke-opacity="1" stroke-linecap="round" stroke-linejoin="round"/>
    <path d="M 75.78060150146484 206.20899963378906 C 111.31600189208984 216.28599548339844 89.12640380859375 210.7050018310547 72.24739837646484 210.42100524902344" stroke-width="1.0" fill="none" stroke="rgb(0, 255, 0)" stroke-opacity="1" stroke-linecap="round" stroke-linejoin="round"/>
    <path d="M 99.78060150146484 221.01800537109375 C 112.4729995727539 175.75100708007812 116.16999816894531 187.48800659179688 122.9260025024414 224.4530029296875" stroke-width="1.0" fill="none" stroke="rgb(255, 0, 0)" stroke-opacity="1" stroke-linecap="round" stroke-linejoin="round"/>
    <path d="M 49.52130126953125 214.7480010986328 C 101.33699798583984 222.37100219726562 58.83760070800781 220.41099548339844 58.08729934692383 208.6219940185547" stroke-width="1.0" fill="none" stroke="rgb(255, 0, 0)" stroke-opacity="1" stroke-linecap="round" stroke-linejoin="round"/>
    <path d="M 157.9320068359375 224.30799865722656 C 122.43699645996094 220.86399841308594 195.0970001220703 211.86199951171875 192.86199951171875 210.24899291992188" stroke-width="1.0" fill="none" stroke="rgb(255, 0, 0)" stroke-opacity="1" stroke-linecap="round" stroke-linejoin="round"/>
    <path d="M 232.23899841308594 222.05999755859375 C 239.80999755859375 205.88600158691406 219.49899291992188 212.36500549316406 239.31900024414062 224.32200622558594" stroke-width="1.0" fill="none" stroke="rgb(255, 0, 0)" stroke-opacity="1" stroke-linecap="round" stroke-linejoin="round"/>
    <path d="M 245.54600524902344 222.88600158691406 C 231.23300170898438 222.6909942626953 315.2760009765625 225.96299743652344 109.11699676513672 224.71600341796875" stroke-width="1.0" fill="none" stroke="rgb(255, 0, 0)" stroke-opacity="1" stroke-linecap="round" stroke-linejoin="round"/>
    <path d="M 243.9550018310547 210.20799255371094 C 248.1929931640625 201.42799377441406 229.4510040283203 234.27499389648438 242.03900146484375 208.6199951171875" stroke-width="1.0" fill="none" stroke="rgb(255, 0, 0)" stroke-opacity="1" stroke-linecap="round" stroke-linejoin="round"/>
    <path d="M 215.72900390625 209.906005859375 C 230.25900268554688 222.85699462890625 236.53700256347656 223.38600158691406 244.92999267578125 218.7949981689453" stroke-width="1.0" fill="none" stroke="rgb(255, 0, 0)" stroke-opacity="1" stroke-linecap="round" stroke-linejoin="round"/>
    <path d="M 40.522300720214844 212.88800048828125 C 51.3135986328125 221.41799926757812 50.55609893798828 222.0399932861328 44.21969985961914 204.9409942626953" stroke-width="1.0" fill="none" stroke="rgb(255, 0, 0)" stroke-opacity="1" stroke-linecap="round" stroke-linejoin="round"/>
    <path d="M 59.96549987792969 206.41400146484375 C 49.30139923095703 213.80599975585938 125.08899688720703 211.9010009765625 69.64129638671875 217.9720001220703" stroke-width="1.0" fill="none" stroke="rgb(255, 0, 0)" stroke-opacity="1" stroke-linecap="round" stroke-linejoin="round"/>
    <path d="M 236.781005859375 214.61500549316406 C 246.8350067138672 223.40199279785156 267.8789978027344 216.10000610351562 207.83799743652344 211.26400756835938" stroke-width="1.0" fill="none" stroke="rgb(255, 0, 0)" stroke-opacity="1" stroke-linecap="round" stroke-linejoin="round"/>
    <path d="M 113.65299987792969 202.02999877929688 C 92.87069702148438 185.89100646972656 127.94300079345703 181.40899658203125 108.12100219726562 198.70199584960938" stroke-width="1.0" fill="none" stroke="rgb(255, 0, 0)" stroke-opacity="1" stroke-linecap="round" stroke-linejoin="round"/>
    <path d="M 113.43399810791016 201.14999389648438 C 109.71199798583984 193.3350067138672 115.95099639892578 194.822998046875 121.1510009765625 189.53900146484375" stroke-width="1.0" fill="none" stroke="rgb(255, 0, 0)" stroke-opacity="1" stroke-linecap="round" stroke-linejoin="round"/>
    <path d="M 10.946800231933594 205.94500732421875 C 20.552200317382812 218.7899932861328 3.319119930267334 235.50599670410156 16.83930015563965 212.11000061035156" stroke-width="1.0" fill="none" stroke="rgb(255, 0, 0)" stroke-opacity="1" stroke-linecap="round" stroke-linejoin="round"/>
    <path d="M 110.39700317382812 217.63999938964844 C 217.5760040283203 214.8300018310547 200.76199340820312 217.072998046875 204.68899536132812 205.19400024414062" stroke-width="1.0" fill="none" stroke="rgb(0, 0, 255)" stroke-opacity="1" stroke-linecap="round" stroke-linejoin="round"/>
    <path d="M 12.054800033569336 223.23500061035156 C 113.2969970703125 224.8509979248047 132.7519989013672 220.7969970703125 11.716899871826172 218.11599731445312" stroke-width="1.0" fill="none" stroke="rgb(255, 0, 0)" stroke-opacity="1" stroke-linecap="round" stroke-linejoin="round"/>
    <path d="M 25.658300399780273 219.7760009765625 C 98.07250213623047 220.1649932861328 103.51000213623047 227.0399932861328 78.4927978515625 223.2740020751953" stroke-width="1.0" fill="none" stroke="rgb(255, 0, 0)" stroke-opacity="1" stroke-linecap="round" stroke-linejoin="round"/>
    <path d="M 212.9290008544922 206.78700256347656 C 211.40499877929688 225.73599243164062 187.5469970703125 225.94400024414062 157.5679931640625 222.93299865722656" stroke-width="1.0" fill="none" stroke="rgb(255, 0, 0)" stroke-opacity="1" stroke-linecap="round" stroke-linejoin="round"/>
    <path d="M 107.23200225830078 190.35299682617188 C 105.73999786376953 208.3939971923828 101.75399780273438 210.1929931640625 113.697998046875 195.33099365234375" stroke-width="1.0" fill="none" stroke="rgb(255, 0, 0)" stroke-opacity="1" stroke-linecap="round" stroke-linejoin="round"/>
    <path d="M 213.4980010986328 212.48300170898438 C 172.45599365234375 220.75599670410156 166.48899841308594 222.677001953125 137.74000549316406 219.0229949951172" stroke-width="1.0" fill="none" stroke="rgb(0, 0, 255)" stroke-opacity="1" stroke-linecap="round" stroke-linejoin="round"/>
    <path d="M 70.84010314941406 189.28700256347656 C 67.78459930419922 234.156005859375 81.94840240478516 236.99000549316406 81.55460357666016 188.52999877929688" stroke-width="1.0" fill="none" stroke="rgb(255, 0, 0)" stroke-opacity="1" stroke-linecap="round" stroke-linejoin="round"/>
    <path d="M 88.75810241699219 224.08700561523438 C 190.1510009765625 215.89599609375 194.91299438476562 228.0279998779297 92.44319915771484 222.23300170898438" stroke-width="1.0" fill="none" stroke="rgb(255, 0, 0)" stroke-opacity="1" stroke-linecap="round" stroke-linejoin="round"/>
    <path d="M 144.61199951171875 203.8419952392578 C 137.0989990234375 194.77699279785156 137.8260040283203 250.3350067138672 144.4550018310547 209.56900024414062" stroke-width="1.0" fill="none" stroke="rgb(255, 0, 0)" stroke-opacity="1" stroke-linecap="round" stroke-linejoin="round"/>
    <path d="M 196.53500366210938 206.21299743652344 C 195.16799926757812 227.47300720214844 178.38900756835938 217.34300231933594 184.49400329589844 213.68800354003906" stroke-width="1.0" fill="none" stroke="rgb(0, 0, 255)" stroke-opacity="1" stroke-linecap="round" stroke-linejoin="round"/>
    <path d="M 110.44499969482422 223.8040008544922 C 112.71299743652344 185.70899963378906 135.76600646972656 182.5970001220703 125.0999984741211 217.95599365234375" stroke-width="1.0" fill="none" stroke="rgb(255, 0, 0)" stroke-opacity="1" stroke-linecap="round" stroke-linejoin="round"/>
    <path d="M 91.2405014038086 215.177001953125 C 69.22889709472656 221.23300170898438 105.14399719238281 214.3769989013672 41.779598236083984 218.72799682617188" stroke-width="1.0" fill="none" stroke="rgb(255, 0, 0)" stroke-opacity="1" stroke-linecap="round" stroke-linejoin="round"/>
    <path d="M 90.39949798583984 201.8300018310547 C 68.76309967041016 211.156005859375 48.937801361083984 218.40699768066406 51.99679946899414 208.25799560546875" stroke-width="1.0" fill="none" stroke="rgb(255, 0, 0)" stroke-opacity="1" stroke-linecap="round" stroke-linejoin="round"/>
    <path d="M 190.5330047607422 215.9949951171875 C 249.73399353027344 222.7740020751953 251.16799926757812 219.00100708007812 229.47799682617188 222.10299682617188" stroke-width="1.0" fill="none" stroke="rgb(255, 0, 0)" stroke-opacity="1" stroke-linecap="round" stroke-linejoin="round"/>
    <path d="M 166.72799682617188 220.16600036621094 C 173.35299682617188 186.1320037841797 162.67300415039062 207.73899841308594 159.17799377441406 217.59800720214844" stroke-width="1.0" fill="none" stroke="rgb(255, 0, 0)" stroke-opacity="1" stroke-linecap="round" stroke-linejoin="round"/>
    <path d="M 224.26400756835938 202.1649932861328 C 220.0 208.92599487304688 203.5570068359375 207.447998046875 242.83700561523438 213.13299560546875" stroke-width="1.0" fill="none" stroke="rgb(255, 0, 0)" stroke-opacity="1" stroke-linecap="round" stroke-linejoin="round"/>
    <path d="M 144.88099670410156 203.0019989013672 C 193.82200622558594 196.9949951171875 149.61599731445312 226.3509979248047 159.57899475097656 203.0489959716797" stroke-width="1.0" fill="none" stroke="rgb(255, 0, 0)" stroke-opacity="1" stroke-linecap="round" stroke-linejoin="round"/>
    <path d="M 113.85600280761719 211.74400329589844 C 119.49700164794922 215.1439971923828 37.297298431396484 219.3260040283203 71.70610046386719 212.427001953125" stroke-width="1.0" fill="none" stroke="rgb(255, 0, 0)" stroke-opacity="1" stroke-linecap="round" stroke-linejoin="round"/>
    <path d="M 117.3010025024414 188.0989990234375 C 103.90399932861328 189.2899932861328 96.2135009765625 193.843994140625 114.4540023803711 192.6020050048828" stroke-width="1.0" fill="none" stroke="rgb(255, 0, 0)" stroke-opacity="1" stroke-linecap="round" stroke-linejoin="round"/>
    <path d="M 79.7760009765625 212.6269989013672 C 15.43340015411377 214.06900024414062 10.668299674987793 192.802001953125 34.862701416015625 202.30299377441406" stroke-width="1.0" fill="none" stroke="rgb(255, 0, 0)" stroke-opacity="1" stroke-linecap="round" stroke-linejoin="round"/>
    <path d="M 82.77940368652344 215.5780029296875 C 107.49700164794922 226.88499450683594 102.16300201416016 197.83399963378906 101.65799713134766 188.86099243164062" stroke-width="1.0" fill="none" stroke="rgb(255, 0, 0)" stroke-opacity="1" stroke-linecap="round" stroke-linejoin="round"/>
    <path d="M 114.69999694824219 223.83900451660156 C 109.79299926757812 193.4739990234375 125.76000213623047 183.21600341796875 111.15799713134766 192.03799438476562" stroke-width="1.0" fill="none" stroke="rgb(255, 0, 0)" stroke-opacity="1" stroke-linecap="round" stroke-linejoin="round"/>
    <path d="M 123.49500274658203 196.72999572753906 C 115.0780029296875 201.09100341796875 141.53599548339844 193.9810028076172 111.00800323486328 201.1790008544922" stroke-width="1.0" fill="none" stroke="rgb(255, 0, 0)" stroke-opacity="1" stroke-linecap="round" stroke-linejoin="round"/>
    <path d="M 51.731998443603516 202.63299560546875 C 30.8799991607666 202.61399841308594 43.64149856567383 199.05599975585938 48.689998626708984 223.4600067138672" stroke-width="1.0" fill="none" stroke="rgb(255, 0, 0)" stroke-opacity="1" stroke-linecap="round" stroke-linejoin="round"/>
    <path d="M 107.94200134277344 208.83099365234375 C 118.3270034790039 221.3520050048828 102.63700103759766 210.96299743652344 124.53199768066406 219.37399291992188" stroke-width="1.0" fill="none" stroke="rgb(255, 0, 0)" stroke-opacity="1" stroke-linecap="round" stroke-linejoin="round"/>
    <path d="M 205.52099609375 224.53700256347656 C 205.49099731445312 199.88099670410156 194.13800048828125 201.34800720214844 192.02999877929688 217.48300170898438" stroke-width="1.0" fill="none" stroke="rgb(255, 0, 0)" stroke-opacity="1" stroke-linecap="round" stroke-linejoin="round"/>
    <path d="M 121.86799621582031 188.45599365234375 C 93.79070281982422 188.37899780273438 114.48400115966797 185.05499267578125 122.26399993896484 196.2209930419922" stroke-width="1.0" fill="none" stroke="rgb(255, 0, 0)" stroke-opacity="1" stroke-linecap="round" stroke-linejoin="round"/>
    <path d="M 60.44380187988281 210.71200561523438 C 35.770198822021484 214.1009979248047 -4.061450004577637 199.09800720214844 17.840299606323242 204.7030029296875" stroke-width="1.0" fill="none" stroke="rgb(255, 0, 0)" stroke-opacity="1" stroke-linecap="round" stroke-linejoin="round"/>
    <path d="M 89.40769958496094 216.01800537109375 C 67.26840209960938 182.74000549316406 84.61190032958984 178.94700622558594 74.29440307617188 202.80799865722656" stroke-width="1.0" fill="none" stroke="rgb(0, 255, 0)" stroke-opacity="1" stroke-linecap="round" stroke-linejoin="round"/>
    <path d="M 252.0 215.20599365234375 C 247.8489990234375 206.01400756835938 232.75599670410156 216.625 209.1510009765625 207.34500122070312" stroke-width="1.0" fill="none" stroke="rgb(255, 0, 0)" stroke-opacity="1" stroke-linecap="round" stroke-linejoin="round"/>
    <path d="M 95.1240005493164 202.64700317382812 C 80.39199829101562 219.11300659179688 65.31490325927734 221.11199951171875 101.51399993896484 219.53599548339844" stroke-width="1.0" fill="none" stroke="rgb(255, 0, 0)" stroke-opacity="1" stroke-linecap="round" stroke-linejoin="round"/>
    <path d="M 88.27790069580078 194.8070068359375 C 104.82099914550781 228.27699279785156 88.97959899902344 230.76800537109375 90.91500091552734 187.64300537109375" stroke-width="1.0" fill="none" stroke="rgb(0, 255, 0)" stroke-opacity="1" stroke-linecap="round" stroke-linejoin="round"/>
    <path d="M 129.08599853515625 220.5570068359375 C 127.9280014038086 184.38400268554688 130.28500366210938 172.19200134277344 125.39199829101562 210.5760040283203" stroke-width="1.0" fill="none" stroke="rgb(255, 0, 0)" stroke-opacity="1" stroke-linecap="round" stroke-linejoin="round"/>
    <path d="M 178.56300354003906 223.30999755859375 C 205.3350067138672 200.59500122070312 188.31900024414062 204.44400024414062 205.4759979248047 205.42300415039062" stroke-width="1.0" fill="none" stroke="rgb(0, 0, 255)" stroke-opacity="1" stroke-linecap="round" stroke-linejoin="round"/>
    <path d="M 9.354880332946777 219.27200317382812 C 34.68989944458008 218.48899841308594 51.17319869995117 211.86500549316406 17.56209945678711 220.90199279785156" stroke-width="1.0" fill="none" stroke="rgb(255, 0, 0)" stroke-opacity="1" stroke-linecap="round" stroke-linejoin="round"/>
    <path d="M 125.4000015258789 200.7530059814453 C 115.8550033569336 190.18299865722656 90.07420349121094 190.3780059814453 127.072998046875 189.19700622558594" stroke-width="1.0" fill="none" stroke="rgb(255, 0, 0)" stroke-opacity="1" stroke-linecap="round" stroke-linejoin="round"/>
    <path d="M 88.52140045166016 221.05299377441406 C 88.94180297851562 186.50599670410156 86.68180084228516 187.50599670410156 85.78179931640625 219.5489959716797" stroke-width="1.0" fill="none" stroke="rgb(0, 255, 0)" stroke-opacity="1" stroke-linecap="round" stroke-linejoin="round"/>
    <path d="M 129.47500610351562 190.61099243164062 C 127.85299682617188 212.56199645996094 132.49099731445312 203.03599548339844 127.81199645996094 187.44900512695312" stroke-width="1.0" fill="none" stroke="rgb(255, 0, 0)" stroke-opacity="1" stroke-linecap="round" stroke-linejoin="round"/>
    <path d="M 175.36199951171875 217.65499877929688 C 148.52699279785156 212.43699645996094 172.98800659179688 199.6439971923828 160.59300231933594 203.51800537109375" stroke-width="1.0" fill="none" stroke="rgb(255, 0, 0)" stroke-opacity="1" stroke-linecap="round" stroke-linejoin="round"/>
    <path d="M 84.51950073242188 208.98300170898438 C 82.51460266113281 190.60800170898438 98.10230255126953 183.3560028076172 67.94539642333984 189.14999389648438" stroke-width="1.0" fill="none" stroke="rgb(0, 255, 0)" stroke-opacity="1" stroke-linecap="round" stroke-linejoin="round"/>
    <path d="M 5.665999889373779 223.5780029296875 C 17.213699340820312 192.60699462890625 28.91510009765625 193.25599670410156 25.159400939941406 222.51699829101562" stroke-width="1.0" fill="none" stroke="rgb(255, 0, 0)" stroke-opacity="1" stroke-linecap="round" stroke-linejoin="round"/>
    <path d="M 6.338970184326172 222.55099487304688 C 76.62870025634766 224.20899963378906 113.33000183105469 225.24000549316406 6.469610214233398 224.13900756835938" stroke-width="1.0" fill="none" stroke="rgb(255, 0, 0)" stroke-opacity="1" stroke-linecap="round" stroke-linejoin="round"/>
    <path d="M 203.9810028076172 222.88699340820312 C 233.86599731445312 217.18099975585938 220.09100341796875 219.3489990234375 236.8040008544922 223.5760040283203" stroke-width="1.0" fill="none" stroke="rgb(255, 0, 0)" stroke-opacity="1" stroke-linecap="round" stroke-linejoin="round"/>
    <path d="M 69.28939819335938 215.86199951171875 C 86.9009017944336 200.87899780273438 91.0740966796875 186.68600463867188 88.45149993896484 213.1320037841797" stroke-width="1.0" fill="none" stroke="rgb(0, 255, 0)" stroke-opacity="1" stroke-linecap="round" stroke-linejoin="round"/>
    <path d="M 17.487199783325195 203.8679962158203 C 41.34040069580078 201.18699645996094 42.21419906616211 196.30499267578125 36.657798767089844 222.00100708007812" stroke-width="1.0" fill="none" stroke="rgb(255, 0, 0)" stroke-opacity="1" stroke-linecap="round" stroke-linejoin="round"/>
    <path d="M 236.4550018310547 208.76100158691406 C 247.70700073242188 214.01199340820312 200.45399475097656 213.8489990234375 181.31399536132812 212.406005859375" stroke-width="1.0" fill="none" stroke="rgb(255, 0, 0)" stroke-opacity="1" stroke-linecap="round" stroke-linejoin="round"/>
    <path d="M 125.73999786376953 219.80499267578125 C 142.0290069580078 209.197998046875 127.93099975585938 223.15699768066406 119.30000305175781 204.94500732421875" stroke-width="1.0" fill="none" stroke="rgb(255, 0, 0)" stroke-opacity="1" stroke-linecap="round" stroke-linejoin="round"/>
    <path d="M 122.63400268554688 206.4029998779297 C 85.9823989868164 212.14700317382812 119.30799865722656 220.08399963378906 108.45600128173828 201.3979949951172" stroke-width="1.0" fill="none" stroke="rgb(255, 0, 0)" stroke-opacity="1" stroke-linecap="round" stroke-linejoin="round"/>
    <path d="M 102.68000030517578 223.97900390625 C 89.5875015258789 206.4340057373047 77.72869873046875 205.83099365234375 95.4937973022461 209.38400268554688" stroke-width="1.0" fill="none" stroke="rgb(0, 255, 0)" stroke-opacity="1" stroke-linecap="round" stroke-linejoin="round"/>
    <path d="M 39.88880157470703 223.21400451660156 C 48.415401458740234 195.1020050048828 13.241900444030762 193.6840057373047 42.251800537109375 212.99200439453125" stroke-width="1.0" fill="none" stroke="rgb(255, 0, 0)" stroke-opacity="1" stroke-linecap="round" stroke-linejoin="round"/>
    <path d="M 34.119300842285156 202.47999572753906 C 44.900699615478516 222.58999633789062 4.988609790802002 234.13900756835938 3.462160110473633 208.43800354003906" stroke-width="1.0" fill="none" stroke="rgb(255, 0, 0)" stroke-opacity="1" stroke-linecap="round" stroke-linejoin="round"/>
    <path d="M 61.5181999206543 216.5070037841797 C 73.6863021850586 198.93800354003906 86.68810272216797 191.97799682617188 64.72550201416016 219.1750030517578" stroke-width="1.0" fill="none" stroke="rgb(255, 0, 0)" stroke-opacity="1" stroke-linecap="round" stroke-linejoin="round"/>
    <path d="M 23.277299880981445 215.43499755859375 C 46.18330001831055 227.4320068359375 20.282699584960938 224.83299255371094 26.445100784301758 217.75" stroke-width="1.0" fill="none" stroke="rgb(255, 0, 0)" stroke-opacity="1" stroke-linecap="round" stroke-linejoin="round"/>
    <path d="M 248.57699584960938 211.78700256347656 C 251.89300537109375 220.218994140625 255.89300537109375 217.46299743652344 236.48500061035156 209.08399963378906" stroke-width="1.0" fill="none" stroke="rgb(255, 0, 0)" stroke-opacity="1" stroke-linecap="round" stroke-linejoin="round"/>
    <path d="M 12.716099739074707 217.73199462890625 C 27.764799118041992 229.63699340820312 15.710700035095215 218.71499633789062 17.877899169921875 202.6479949951172" stroke-width="1.0" fill="none" stroke="rgb(255, 0, 0)" stroke-opacity="1" stroke-linecap="round" stroke-linejoin="round"/>
    <path d="M 16.50149917602539 202.31700134277344 C 5.548649787902832 205.64500427246094 20.705699920654297 224.81500244140625 0.0 211.51699829101562" stroke-width="1.0" fill="none" stroke="rgb(255, 0, 0)" stroke-opacity="1" stroke-linecap="round" stroke-linejoin="round"/>
    <path d="M 142.43600463867188 202.95700073242188 C 168.9709930419922 204.11099243164062 161.91200256347656 195.32200622558594 152.54100036621094 224.43899536132812" stroke-width="1.0" fill="none" stroke="rgb(255, 0, 0)" stroke-opacity="1" stroke-linecap="round" stroke-linejoin="round"/>
    <path d="M 37.01089859008789 208.0260009765625 C 32.040401458740234 226.0850067138672 61.230201721191406 226.2740020751953 54.69810104370117 202.45599365234375" stroke-width="1.0" fill="none" stroke="rgb(255, 0, 0)" stroke-opacity="1" stroke-linecap="round" stroke-linejoin="round"/>
    <path d="M 153.48599243164062 217.1719970703125 C 152.82899475097656 183.71400451660156 186.66299438476562 218.17300415039062 165.57400512695312 209.43800354003906" stroke-width="1.0" fill="none" stroke="rgb(255, 0, 0)" stroke-opacity="1" stroke-linecap="round" stroke-linejoin="round"/>
    <path d="M 185.24600219726562 160.8719940185547 C 203.5500030517578 207.18299865722656 206.31700134277344 200.80499267578125 211.52099609375 212.60899353027344" stroke-width="1.0" fill="none" stroke="rgb(0, 0, 255)" stroke-opacity="1" stroke-linecap="round" stroke-linejoin="round"/>
    <path d="M 219.2259979248047 201.72900390625 C 216.03700256347656 214.2449951171875 243.8800048828125 208.09300231933594 223.5780029296875 208.61700439453125" stroke-width="1.0" fill="none" stroke="rgb(255, 0, 0)" stroke-opacity="1" stroke-linecap="round" stroke-linejoin="round"/>
    <path d="M 177.77200317382812 195.7449951171875 C 202.04299926757812 210.55799865722656 205.4669952392578 191.1510009765625 186.781005859375 175.92599487304688" stroke-width="1.0" fill="none" stroke="rgb(0, 0, 255)" stroke-opacity="1" stroke-linecap="round" stroke-linejoin="round"/>
    <path d="M 196.41799926757812 200.2270050048828 C 166.02000427246094 179.45599365234375 160.1219940185547 178.94400024414062 198.68699645996094 194.2010040283203" stroke-width="1.0" fill="none" stroke="rgb(0, 0, 255)" stroke-opacity="1" stroke-linecap="round" stroke-linejoin="round"/>
    <path d="M 176.1719970703125 198.44200134277344 C 178.2220001220703 229.1199951171875 170.21600341796875 226.12399291992188 171.54299926757812 185.78199768066406" stroke-width="1.0" fill="none" stroke="rgb(0, 0, 255)" stroke-opacity="1" stroke-linecap="round" stroke-linejoin="round"/>
    <path d="M 170.10800170898438 224.74600219726562 C 179.63499450683594 194.031005859375 163.60800170898438 176.36900329589844 186.20700073242188 191.2570037841797" stroke-width="1.0" fill="none" stroke="rgb(0, 0, 255)" stroke-opacity="1" stroke-linecap="round" stroke-linejoin="round"/>
    <path d="M 188.51699829101562 172.4709930419922 C 195.00399780273438 195.4669952392578 193.2989959716797 197.08399963378906 203.83099365234375 208.61000061035156" stroke-width="1.0" fill="none" stroke="rgb(0, 0, 255)" stroke-opacity="1" stroke-linecap="round" stroke-linejoin="round"/>
    <path d="M 177.54299926757812 186.10899353027344 C 177.7550048828125 188.08999633789062 180.87399291992188 188.55999755859375 187.41400146484375 187.80999755859375" stroke-width="1.0" fill="none" stroke="rgb(0, 0, 255)" stroke-opacity="1" stroke-linecap="round" stroke-linejoin="round"/>
    <path d="M 189.6959991455078 153.64300537109375 C 177.5399932861328 172.24200439453125 170.7050018310547 147.5780029296875 187.0679931640625 171.4219970703125" stroke-width="1.0" fill="none" stroke="rgb(0, 0, 255)" stroke-opacity="1" stroke-linecap="round" stroke-linejoin="round"/>
    <path d="M 184.49099731445312 155.39199829101562 C 176.95899963378906 230.6490020751953 159.9219970703125 201.21200561523438 179.98500061035156 153.8990020751953" stroke-width="1.0" fill="none" stroke="rgb(0, 0, 255)" stroke-opacity="1" stroke-linecap="round" stroke-linejoin="round"/>
    <path d="M 172.90699768066406 141.68099975585938 C 160.64700317382812 154.22300720214844 156.072998046875 135.0489959716797 171.93899536132812 162.89199829101562" stroke-width="1.0" fill="none" stroke="rgb(0, 0, 255)" stroke-opacity="1" stroke-linecap="round" stroke-linejoin="round"/>
    <path d="M 206.7429962158203 210.4600067138672 C 197.20799255371094 206.4429931640625 189.0679931640625 200.99099731445312 183.48699951171875 188.0780029296875" stroke-width="1.0" fill="none" stroke="rgb(0, 0, 255)" stroke-opacity="1" stroke-linecap="round" stroke-linejoin="round"/>
    <path d="M 163.55099487304688 139.78599548339844 C 196.3719940185547 147.53599548339844 186.6529998779297 175.88600158691406 176.1510009765625 146.1790008544922" stroke-width="1.0" fill="none" stroke="rgb(0, 0, 255)" stroke-opacity="1" stroke-linecap="round" stroke-linejoin="round"/>
    <path d="M 181.822998046875 198.18299865722656 C 195.31900024414062 177.10800170898438 177.71200561523438 196.5019989013672 177.03700256347656 151.37100219726562" stroke-width="1.0" fill="none" stroke="rgb(0, 0, 255)" stroke-opacity="1" stroke-linecap="round" stroke-linejoin="round"/>
    <path d="M 207.93699645996094 200.802001953125 C 174.79600524902344 179.03900146484375 176.58299255371094 187.79800415039062 201.4980010986328 199.39999389648438" stroke-width="1.0" fill="none" stroke="rgb(0, 0, 255)" stroke-opacity="1" stroke-linecap="round" stroke-linejoin="round"/>
    <path d="M 178.0500030517578 194.3679962158203 C 189.1840057373047 204.35899353027344 187.7050018310547 175.4770050048828 187.66700744628906 225.60699462890625" stroke-width="1.0" fill="none" stroke="rgb(0, 0, 255)" stroke-opacity="1" stroke-linecap="round" stroke-linejoin="round"/>
    <path d="M 192.78399658203125 188.28500366210938 C 175.93699645996094 194.12899780273438 177.53199768066406 187.83200073242188 189.16000366210938 164.468994140625" stroke-width="1.0" fill="none" stroke="rgb(0, 0, 255)" stroke-opacity="1" stroke-linecap="round" stroke-linejoin="round"/>
    <path d="M 231.16400146484375 209.39300537109375 C 229.4080047607422 204.78500366210938 236.322998046875 211.21600341796875 215.26400756835938 207.64500427246094" stroke-width="1.0" fill="none" stroke="rgb(255, 0, 0)" stroke-opacity="1" stroke-linecap="round" stroke-linejoin="round"/>
    <path d="M 203.30599975585938 193.34100341796875 C 203.28799438476562 219.39300537109375 212.69700622558594 206.40499877929688 190.43099975585938 181.46099853515625" stroke-width="1.0" fill="none" stroke="rgb(0, 0, 255)" stroke-opacity="1" stroke-linecap="round" stroke-linejoin="round"/>
    <path d="M 213.625 214.5709991455078 C 214.77499389648438 201.70599365234375 174.58999633789062 178.3509979248047 183.66600036621094 219.40499877929688" stroke-width="1.0" fill="none" stroke="rgb(0, 0, 255)" stroke-opacity="1" stroke-linecap="round" stroke-linejoin="round"/>
    <path d="M 185.93299865722656 151.14199829101562 C 172.89300537109375 163.61399841308594 180.4969940185547 169.49000549316406 181.9340057373047 152.82699584960938" stroke-width="1.0" fill="none" stroke="rgb(0, 0, 255)" stroke-opacity="1" stroke-linecap="round" stroke-linejoin="round"/>
    <path d="M 217.06399536132812 210.3509979248047 C 212.697998046875 186.69500732421875 217.69900512695312 219.79800415039062 199.69500732421875 203.65499877929688" stroke-width="1.0" fill="none" stroke="rgb(255, 0, 0)" stroke-opacity="1" stroke-linecap="round" stroke-linejoin="round"/>
    <path d="M 186.6230010986328 224.8679962158203 C 178.0850067138672 199.7469940185547 184.78700256347656 176.9340057373047 187.8979949951172 156.14999389648438" stroke-width="1.0" fill="none" stroke="rgb(0, 0, 255)" stroke-opacity="1" stroke-linecap="round" stroke-linejoin="round"/>
    <path d="M 200.94500732421875 210.6479949951172 C 189.61199951171875 176.19700622558594 192.05499267578125 175.88499450683594 188.8699951171875 192.9669952392578" stroke-width="1.0" fill="none" stroke="rgb(0, 0, 255)" stroke-opacity="1" stroke-linecap="round" stroke-linejoin="round"/>
    <path d="M 178.78799438476562 148.30299377441406 C 159.13400268554688 146.5590057373047 153.6909942626953 131.85499572753906 176.97799682617188 154.27999877929688" stroke-width="1.0" fill="none" stroke="rgb(0, 0, 255)" stroke-opacity="1" stroke-linecap="round" stroke-linejoin="round"/>
    <path d="M 187.81300354003906 189.88600158691406 C 172.16400146484375 131.60400390625 169.531005859375 163.08099365234375 171.1230010986328 226.0" stroke-width="1.0" fill="none" stroke="rgb(0, 0, 255)" stroke-opacity="1" stroke-linecap="round" stroke-linejoin="round"/>
    <path d="M 225.18600463867188 205.7989959716797 C 224.0229949951172 220.80599975585938 228.66700744628906 204.06100463867188 201.1179962158203 210.34300231933594" stroke-width="1.0" fill="none" stroke="rgb(255, 0, 0)" stroke-opacity="1" stroke-linecap="round" stroke-linejoin="round"/>
    <path d="M 172.4499969482422 158.20399475097656 C 182.89999389648438 176.3280029296875 190.1490020751953 186.54299926757812 168.9239959716797 157.64599609375" stroke-width="1.0" fill="none" stroke="rgb(0, 0, 255)" stroke-opacity="1" stroke-linecap="round" stroke-linejoin="round"/>
    <path d="M 170.77699279785156 185.8459930419922 C 181.02499389648438 170.31100463867188 193.0749969482422 161.66000366210938 167.86500549316406 153.06399536132812" stroke-width="1.0" fill="none" stroke="rgb(0, 0, 255)" stroke-opacity="1" stroke-linecap="round" stroke-linejoin="round"/>
    <path d="M 180.68899536132812 192.88099670410156 C 184.57899475097656 165.90699768066406 175.61199951171875 176.95399475097656 205.20199584960938 198.38299560546875" stroke-width="1.0" fill="none" stroke="rgb(0, 0, 255)" stroke-opacity="1" stroke-linecap="round" stroke-linejoin="round"/>
    <path d="M 211.572998046875 212.6020050048828 C 196.552001953125 188.8679962158203 183.89599609375 194.49200439453125 187.3699951171875 171.16200256347656" stroke-width="1.0" fill="none" stroke="rgb(0, 0, 255)" stroke-opacity="1" stroke-linecap="round" stroke-linejoin="round"/>
    <path d="M 231.76600646972656 206.53599548339844 C 207.64999389648438 214.072998046875 205.39599609375 211.2449951171875 208.37600708007812 196.64999389648438" stroke-width="1.0" fill="none" stroke="rgb(255, 0, 0)" stroke-opacity="1" stroke-linecap="round" stroke-linejoin="round"/>
    <path d="M 185.2989959716797 172.83999633789062 C 188.7259979248047 190.0850067138672 194.6959991455078 206.46200561523438 183.91799926757812 207.17999267578125" stroke-width="1.0" fill="none" stroke="rgb(0, 0, 255)" stroke-opacity="1" stroke-linecap="round" stroke-linejoin="round"/>
    <path d="M 161.96499633789062 139.83700561523438 C 184.77099609375 150.52200317382812 174.6580047607422 160.43099975585938 166.76199340820312 137.0" stroke-width="1.0" fill="none" stroke="rgb(0, 0, 255)" stroke-opacity="1" stroke-linecap="round" stroke-linejoin="round"/>
    <path d="M 169.1580047607422 149.5919952392578 C 172.47799682617188 184.81100463867188 155.5030059814453 162.41000366210938 161.6840057373047 177.29400634765625" stroke-width="1.0" fill="none" stroke="rgb(0, 0, 255)" stroke-opacity="1" stroke-linecap="round" stroke-linejoin="round"/>
    <path d="M 160.8209991455078 144.63299560546875 C 169.4219970703125 126.91100311279297 183.61500549316406 148.50999450683594 177.33099365234375 185.32200622558594" stroke-width="1.0" fill="none" stroke="rgb(0, 0, 255)" stroke-opacity="1" stroke-linecap="round" stroke-linejoin="round"/>
    <path d="M 214.677001953125 203.5709991455078 C 238.875 215.91400146484375 252.58799743652344 198.32000732421875 249.59300231933594 200.5540008544922" stroke-width="1.0" fill="none" stroke="rgb(255, 0, 0)" stroke-opacity="1" stroke-linecap="round" stroke-linejoin="round"/>
    <path d="M 188.75900268554688 178.5780029296875 C 189.78199768066406 131.85000610351562 161.86099243164062 184.656005859375 189.66799926757812 199.61099243164062" stroke-width="1.0" fill="none" stroke="rgb(0, 0, 255)" stroke-opacity="1" stroke-linecap="round" stroke-linejoin="round"/>
    <path d="M 202.2530059814453 214.8939971923828 C 197.4219970703125 187.17300415039062 200.5489959716797 185.3679962158203 208.2760009765625 212.29299926757812" stroke-width="1.0" fill="none" stroke="rgb(0, 0, 255)" stroke-opacity="1" stroke-linecap="round" stroke-linejoin="round"/>
    <path d="M 170.86700439453125 191.78599548339844 C 194.5290069580078 191.34800720214844 182.01600646972656 178.3040008544922 183.89500427246094 190.38299560546875" stroke-width="1.0" fill="none" stroke="rgb(0, 0, 255)" stroke-opacity="1" stroke-linecap="round" stroke-linejoin="round"/>
    <path d="M 170.19000244140625 163.67100524902344 C 194.1230010986328 169.53900146484375 173.47000122070312 152.7830047607422 182.43699645996094 142.3470001220703" stroke-width="1.0" fill="none" stroke="rgb(0, 0, 255)" stroke-opacity="1" stroke-linecap="round" stroke-linejoin="round"/>
    <path d="M 169.44000244140625 138.33099365234375 C 159.97799682617188 147.1300048828125 166.29400634765625 155.54100036621094 181.05599975585938 142.8730010986328" stroke-width="1.0" fill="none" stroke="rgb(0, 0, 255)" stroke-opacity="1" stroke-linecap="round" stroke-linejoin="round"/>
    <path d="M 188.9949951171875 159.98899841308594 C 164.51699829101562 172.78799438476562 167.95599365234375 162.82000732421875 189.96499633789062 157.302001953125" stroke-width="1.0" fill="none" stroke="rgb(0, 0, 255)" stroke-opacity="1" stroke-linecap="round" stroke-linejoin="round"/>
    <path d="M 178.49099731445312 154.4459991455078 C 151.82699584960938 192.41000366210938 154.89300537109375 171.9969940185547 186.64500427246094 147.6009979248047" stroke-width="1.0" fill="none" stroke="rgb(0, 0, 255)" stroke-opacity="1" stroke-linecap="round" stroke-linejoin="round"/>
    <path d="M 170.74600219726562 175.28900146484375 C 163.2270050048828 140.4810028076172 180.10499572753906 131.02000427246094 171.80799865722656 170.39199829101562" stroke-width="1.0" fill="none" stroke="rgb(0, 0, 255)" stroke-opacity="1" stroke-linecap="round" stroke-linejoin="round"/>
    <path d="M 182.54299926757812 146.4980010986328 C 173.2010040283203 176.18299865722656 198.91000366210938 156.281005859375 181.80999755859375 164.69200134277344" stroke-width="1.0" fill="none" stroke="rgb(0, 0, 255)" stroke-opacity="1" stroke-linecap="round" stroke-linejoin="round"/>
    <path d="M 206.0749969482422 207.8070068359375 C 178.302001953125 171.93699645996094 187.02000427246094 166.83599853515625 188.4290008544922 200.92300415039062" stroke-width="1.0" fill="none" stroke="rgb(0, 0, 255)" stroke-opacity="1" stroke-linecap="round" stroke-linejoin="round"/>
    <path d="M 170.91799926757812 214.5590057373047 C 175.34800720214844 226.08900451660156 170.62100219726562 231.1219940185547 176.90499877929688 191.14599609375" stroke-width="1.0" fill="none" stroke="rgb(0, 0, 255)" stroke-opacity="1" stroke-linecap="round" stroke-linejoin="round"/>
    <path d="M 224.48399353027344 207.9810028076172 C 248.63299560546875 207.38600158691406 243.85000610351562 208.927001953125 218.99099731445312 202.55999755859375" stroke-width="1.0" fill="none" stroke="rgb(255, 0, 0)" stroke-opacity="1" stroke-linecap="round" stroke-linejoin="round"/>
    <path d="M 183.21200561523438 161.73899841308594 C 164.14100646972656 137.9669952392578 165.80099487304688 132.39599609375 159.0 144.58299255371094" stroke-width="1.0" fill="none" stroke="rgb(0, 0, 255)" stroke-opacity="1" stroke-linecap="round" stroke-linejoin="round"/>
    <path d="M 185.3459930419922 174.51400756835938 C 168.7050018310547 156.23800659179688 175.7949981689453 158.9010009765625 186.73699951171875 152.87100219726562" stroke-width="1.0" fill="none" stroke="rgb(0, 0, 255)" stroke-opacity="1" stroke-linecap="round" stroke-linejoin="round"/>
    <path d="M 169.73599243164062 137.73300170898438 C 192.73599243164062 198.07200622558594 171.16299438476562 176.48599243164062 167.0679931640625 139.2830047607422" stroke-width="1.0" fill="none" stroke="rgb(0, 0, 255)" stroke-opacity="1" stroke-linecap="round" stroke-linejoin="round"/>
    <path d="M 172.93699645996094 137.7050018310547 C 165.42300415039062 150.9029998779297 159.36099243164062 156.28599548339844 174.90899658203125 138.83299255371094" stroke-width="1.0" fill="none" stroke="rgb(0, 0, 255)" stroke-opacity="1" stroke-linecap="round" stroke-linejoin="round"/>
    <path d="M 185.52499389648438 190.44500732421875 C 155.88900756835938 139.48800659179688 161.6529998779297 172.91099548339844 192.2989959716797 190.60699462890625" stroke-width="1.0" fill="none" stroke="rgb(0, 0, 255)" stroke-opacity="1" stroke-linecap="round" stroke-linejoin="round"/>
    <path d="M 181.0469970703125 181.5 C 181.4040069580078 197.95599365234375 183.9810028076172 178.93800354003906 186.16299438476562 221.67300415039062" stroke-width="1.0" fill="none" stroke="rgb(0, 0, 255)" stroke-opacity="1" stroke-linecap="round" stroke-linejoin="round"/>
    <path d="M 167.9499969482422 161.72000122070312 C 169.08399963378906 130.8769989013672 148.0989990234375 162.30599975585938 176.9320068359375 139.78900146484375" stroke-width="1.0" fill="none" stroke="rgb(0, 0, 255)" stroke-opacity="1" stroke-linecap="round" stroke-linejoin="round"/>
    <path d="M 206.8520050048828 209.8939971923828 C 194.52699279785156 175.60499572753906 186.13900756835938 168.75900268554688 172.8209991455078 197.81900024414062" stroke-width="1.0" fill="none" stroke="rgb(0, 0, 255)" stroke-opacity="1" stroke-linecap="round" stroke-linejoin="round"/>
    <path d="M 190.77000427246094 170.18299865722656 C 185.4550018310547 205.1840057373047 189.5489959716797 189.30499267578125 181.5070037841797 218.9409942626953" stroke-width="1.0" fill="none" stroke="rgb(0, 0, 255)" stroke-opacity="1" stroke-linecap="round" stroke-linejoin="round"/>
    <path d="M 183.18600463867188 175.09300231933594 C 169.9239959716797 141.7239990234375 190.78799438476562 149.08200073242188 173.0279998779297 149.45399475097656" stroke-width="1.0" fill="none" stroke="rgb(0, 0, 255)" stroke-opacity="1" stroke-linecap="round" stroke-linejoin="round"/>
    <path d="M 209.41900634765625 197.60499572753906 C 210.7429962158203 212.15199279785156 202.56900024414062 218.8090057373047 200.3159942626953 191.3730010986328" stroke-width="1.0" fill="none" stroke="rgb(0, 0, 255)" stroke-opacity="1" stroke-linecap="round" stroke-linejoin="round"/>
    <path d="M 180.11900329589844 163.39199829101562 C 161.70799255371094 193.43099975585938 175.1320037841797 187.27099609375 175.0469970703125 152.49000549316406" stroke-width="1.0" fill="none" stroke="rgb(0, 0, 255)" stroke-opacity="1" stroke-linecap="round" stroke-linejoin="round"/>
    <path d="M 180.68499755859375 154.63900756835938 C 163.39199829101562 139.8509979248047 162.79299926757812 167.24099731445312 178.7760009765625 144.6280059814453" stroke-width="1.0" fill="none" stroke="rgb(0, 0, 255)" stroke-opacity="1" stroke-linecap="round" stroke-linejoin="round"/>
    <path d="M 188.3300018310547 167.54299926757812 C 163.38299560546875 196.8800048828125 175.4720001220703 180.1020050048828 187.4550018310547 161.91299438476562" stroke-width="1.0" fill="none" stroke="rgb(0, 0, 255)" stroke-opacity="1" stroke-linecap="round" stroke-linejoin="round"/>
    <path d="M 200.48300170898438 198.18699645996094 C 219.41000366210938 207.84100341796875 223.25399780273438 208.3679962158203 223.31900024414062 199.83099365234375" stroke-width="1.0" fill="none" stroke="rgb(255, 0, 0)" stroke-opacity="1" stroke-linecap="round" stroke-linejoin="round"/>
    <path d="M 178.2270050048828 138.2729949951172 C 165.35699462890625 175.79200744628906 170.85899353027344 149.7790069580078 175.4669952392578 137.93899536132812" stroke-width="1.0" fill="none" stroke="rgb(0, 0, 255)" stroke-opacity="1" stroke-linecap="round" stroke-linejoin="round"/>
    <path d="M 166.1479949951172 144.13499450683594 C 179.18600463867188 165.61399841308594 172.5500030517578 137.68600463867188 161.2729949951172 149.17100524902344" stroke-width="1.0" fill="none" stroke="rgb(0, 0, 255)" stroke-opacity="1" stroke-linecap="round" stroke-linejoin="round"/>
    <path d="M 203.5229949951172 210.54600524902344 C 239.88400268554688 213.31500244140625 245.56900024414062 205.19700622558594 219.62100219726562 211.47900390625" stroke-width="1.0" fill="none" stroke="rgb(255, 0, 0)" stroke-opacity="1" stroke-linecap="round" stroke-linejoin="round"/>
    <path d="M 177.1649932861328 175.65899658203125 C 172.48899841308594 148.25900268554688 183.22500610351562 162.67599487304688 189.7530059814453 157.5780029296875" stroke-width="1.0" fill="none" stroke="rgb(0, 0, 255)" stroke-opacity="1" stroke-linecap="round" stroke-linejoin="round"/>
    <path d="M 184.1230010986328 158.46600341796875 C 207.06100463867188 202.7689971923828 200.2100067138672 211.49099731445312 171.47799682617188 184.4969940185547" stroke-width="1.0" fill="none" stroke="rgb(0, 0, 255)" stroke-opacity="1" stroke-linecap="round" stroke-linejoin="round"/>
    <path d="M 172.8769989013672 212.64100646972656 C 181.3730010986328 163.38900756835938 177.23300170898438 177.60699462890625 183.8939971923828 154.9250030517578" stroke-width="1.0" fill="none" stroke="rgb(0, 0, 255)" stroke-opacity="1" stroke-linecap="round" stroke-linejoin="round"/>
    <path d="M 176.93899536132812 175.56100463867188 C 174.83200073242188 216.00399780273438 177.10000610351562 190.27699279785156 181.4029998779297 184.47799682617188" stroke-width="1.0" fill="none" stroke="rgb(0, 0, 255)" stroke-opacity="1" stroke-linecap="round" stroke-linejoin="round"/>
    <path d="M 190.68099975585938 166.97900390625 C 177.67300415039062 188.5489959716797 175.90899658203125 182.572998046875 177.9770050048828 144.4409942626953" stroke-width="1.0" fill="none" stroke="rgb(0, 0, 255)" stroke-opacity="1" stroke-linecap="round" stroke-linejoin="round"/>
    <path d="M 222.68800354003906 213.9709930419922 C 227.28900146484375 191.7169952392578 220.4929962158203 202.51499938964844 223.6320037841797 193.03500366210938" stroke-width="1.0" fill="none" stroke="rgb(255, 0, 0)" stroke-opacity="1" stroke-linecap="round" stroke-linejoin="round"/>
    <path d="M 195.4010009765625 180.16600036621094 C 181.9340057373047 193.04200744628906 199.8990020751953 189.53199768066406 207.91600036621094 199.49400329589844" stroke-width="1.0" fill="none" stroke="rgb(0, 0, 255)" stroke-opacity="1" stroke-linecap="round" stroke-linejoin="round"/>
    <path d="M 65.37339782714844 151.78199768066406 C 86.74819946289062 164.93699645996094 71.08809661865234 158.09100341796875 98.74870300292969 189.9739990234375" stroke-width="1.0" fill="none" stroke="rgb(0, 255, 0)" stroke-opacity="1" stroke-linecap="round" stroke-linejoin="round"/>
    <path d="M 17.089099884033203 187.1529998779297 C 13.562100410461426 199.63499450683594 20.654399871826172 220.94200134277344 45.18629837036133 200.66099548339844" stroke-width="1.0" fill="none" stroke="rgb(255, 0, 0)" stroke-opacity="1" stroke-linecap="round" stroke-linejoin="round"/>
    <path d="M 70.94770050048828 163.54299926757812 C 66.60910034179688 181.95899963378906 53.70249938964844 199.80799865722656 72.33899688720703 175.75999450683594" stroke-width="1.0" fill="none" stroke="rgb(0, 255, 0)" stroke-opacity="1" stroke-linecap="round" stroke-linejoin="round"/>
    <path d="M 89.52660369873047 155.5469970703125 C 92.52439880371094 183.6300048828125 79.34500122070312 187.02099609375 96.92739868164062 200.5" stroke-width="1.0" fill="none" stroke="rgb(0, 255, 0)" stroke-opacity="1" stroke-linecap="round" stroke-linejoin="round"/>
    <path d="M 66.44560241699219 184.8489990234375 C 72.73470306396484 143.72500610351562 68.2677993774414 181.843994140625 53.37929916381836 183.92599487304688" stroke-width="1.0" fill="none" stroke="rgb(0, 255, 0)" stroke-opacity="1" stroke-linecap="round" stroke-linejoin="round"/>
    <path d="M 46.39509963989258 199.72999572753906 C 51.91109848022461 196.91900634765625 49.144901275634766 210.36300659179688 58.43239974975586 180.66099548339844" stroke-width="1.0" fill="none" stroke="rgb(255, 0, 0)" stroke-opacity="1" stroke-linecap="round" stroke-linejoin="round"/>
    <path d="M 86.4489974975586 159.468994140625 C 61.12779998779297 173.47000122070312 64.44770050048828 164.9669952392578 101.7229995727539 186.49099731445312" stroke-width="1.0" fill="none" stroke="rgb(0, 255, 0)" stroke-opacity="1" stroke-linecap="round" stroke-linejoin="round"/>
    <path d="M 94.89730072021484 209.66700744628906 C 93.84110260009766 189.64300537109375 78.73860168457031 218.56199645996094 99.70549774169922 188.86700439453125" stroke-width="1.0" fill="none" stroke="rgb(0, 255, 0)" stroke-opacity="1" stroke-linecap="round" stroke-linejoin="round"/>
    <path d="M 92.1321029663086 203.91299438476562 C 97.72650146484375 212.4550018310547 83.0436019897461 209.2570037841797 92.95690155029297 212.41900634765625" stroke-width="1.0" fill="none" stroke="rgb(0, 255, 0)" stroke-opacity="1" stroke-linecap="round" stroke-linejoin="round"/>
    <path d="M 115.15799713134766 156.4600067138672 C 77.39360046386719 161.73399353027344 101.02999877929688 148.41299438476562 86.20590209960938 187.56300354003906" stroke-width="1.0" fill="none" stroke="rgb(0, 255, 0)" stroke-opacity="1" stroke-linecap="round" stroke-linejoin="round"/>
    <path d="M 55.640499114990234 184.83099365234375 C 50.569000244140625 206.0590057373047 48.9114990234375 211.65699768066406 44.820899963378906 199.26100158691406" stroke-width="1.0" fill="none" stroke="rgb(255, 0, 0)" stroke-opacity="1" stroke-linecap="round" stroke-linejoin="round"/>
    <path d="M 81.70860290527344 184.2449951171875 C 108.8949966430664 160.59300231933594 91.28510284423828 155.51199340820312 105.76599884033203 175.33599853515625" stroke-width="1.0" fill="none" stroke="rgb(0, 255, 0)" stroke-opacity="1" stroke-linecap="round" stroke-linejoin="round"/>
    <path d="M 99.91519927978516 184.5469970703125 C 101.02200317382812 202.21299743652344 90.2791976928711 190.4290008544922 97.30799865722656 178.7969970703125" stroke-width="1.0" fill="none" stroke="rgb(0, 255, 0)" stroke-opacity="1" stroke-linecap="round" stroke-linejoin="round"/>
    <path d="M 98.07209777832031 180.44900512695312 C 87.27629852294922 224.01499938964844 86.10639953613281 214.22000122070312 102.15599822998047 212.40899658203125" stroke-width="1.0" fill="none" stroke="rgb(0, 255, 0)" stroke-opacity="1" stroke-linecap="round" stroke-linejoin="round"/>
    <path d="M 104.13500213623047 135.63299560546875 C 73.78250122070312 151.5780029296875 98.55180358886719 169.2899932861328 107.1729965209961 134.87100219726562" stroke-width="1.0" fill="none" stroke="rgb(0, 255, 0)" stroke-opacity="1" stroke-linecap="round" stroke-linejoin="round"/>
    <path d="M 91.28780364990234 151.60499572753906 C 91.01499938964844 133.23199462890625 89.1333999633789 137.83200073242188 68.79740142822266 164.00399780273438" stroke-width="1.0" fill="none" stroke="rgb(0, 255, 0)" stroke-opacity="1" stroke-linecap="round" stroke-linejoin="round"/>
    <path d="M 87.7146987915039 146.0709991455078 C 114.21399688720703 146.8040008544922 106.73400115966797 126.91799926757812 115.10600280761719 127.0" stroke-width="1.0" fill="none" stroke="rgb(0, 255, 0)" stroke-opacity="1" stroke-linecap="round" stroke-linejoin="round"/>
    <path d="M 30.61280059814453 208.4239959716797 C 59.862300872802734 208.6699981689453 54.03990173339844 188.48500061035156 51.34360122680664 203.56100463867188" stroke-width="1.0" fill="none" stroke="rgb(255, 0, 0)" stroke-opacity="1" stroke-linecap="round" stroke-linejoin="round"/>
    <path d="M 39.03219985961914 207.23800659179688 C 26.204099655151367 199.74200439453125 1.7475999593734741 200.12600708007812 36.14440155029297 206.04800415039062" stroke-width="1.0" fill="none" stroke="rgb(255, 0, 0)" stroke-opacity="1" stroke-linecap="round" stroke-linejoin="round"/>
    <path d="M 92.50569915771484 184.2830047607422 C 97.53970336914062 223.01199340820312 89.16390228271484 223.71099853515625 92.32140350341797 182.0189971923828" stroke-width="1.0" fill="none" stroke="rgb(0, 255, 0)" stroke-opacity="1" stroke-linecap="round" stroke-linejoin="round"/>
    <path d="M 89.09829711914062 208.5500030517578 C 121.2509994506836 215.53799438476562 102.75 213.48800659179688 88.6886978149414 209.77099609375" stroke-width="1.0" fill="none" stroke="rgb(255, 0, 0)" stroke-opacity="1" stroke-linecap="round" stroke-linejoin="round"/>
    <path d="M 43.93000030517578 205.22500610351562 C 41.08430099487305 215.8000030517578 12.762900352478027 196.40499877929688 35.30540084838867 207.81100463867188" stroke-width="1.0" fill="none" stroke="rgb(255, 0, 0)" stroke-opacity="1" stroke-linecap="round" stroke-linejoin="round"/>
    <path d="M 65.8949966430664 152.30499267578125 C 98.56600189208984 158.74899291992188 70.45999908447266 179.3990020751953 89.99970245361328 163.51300048828125" stroke-width="1.0" fill="none" stroke="rgb(0, 255, 0)" stroke-opacity="1" stroke-linecap="round" stroke-linejoin="round"/>
    <path d="M 65.71160125732422 168.7729949951172 C 59.62189865112305 185.31700134277344 46.117000579833984 202.8509979248047 20.179000854492188 207.84500122070312" stroke-width="1.0" fill="none" stroke="rgb(255, 0, 0)" stroke-opacity="1" stroke-linecap="round" stroke-linejoin="round"/>
    <path d="M 110.8270034790039 129.2429962158203 C 91.58309936523438 159.59300231933594 65.26280212402344 157.36000061035156 98.98390197753906 136.4980010986328" stroke-width="1.0" fill="none" stroke="rgb(0, 255, 0)" stroke-opacity="1" stroke-linecap="round" stroke-linejoin="round"/>
    <path d="M 70.03900146484375 167.97900390625 C 83.99620056152344 190.66099548339844 117.19400024414062 176.9949951171875 94.65589904785156 204.94700622558594" stroke-width="1.0" fill="none" stroke="rgb(0, 255, 0)" stroke-opacity="1" stroke-linecap="round" stroke-linejoin="round"/>
    <path d="M 104.66200256347656 161.6840057373047 C 69.66320037841797 170.322998046875 115.72699737548828 132.02000427246094 86.15640258789062 151.23699951171875" stroke-width="1.0" fill="none" stroke="rgb(0, 255, 0)" stroke-opacity="1" stroke-linecap="round" stroke-linejoin="round"/>
    <path d="M 105.26200103759766 215.0780029296875 C 69.96009826660156 209.52000427246094 93.97460174560547 218.58900451660156 96.52519989013672 210.9810028076172" stroke-width="1.0" fill="none" stroke="rgb(0, 255, 0)" stroke-opacity="1" stroke-linecap="round" stroke-linejoin="round"/>
    <path d="M 101.55799865722656 192.052001953125 C 82.98049926757812 180.38400268554688 83.3031997680664 186.6529998779297 92.05329895019531 163.79400634765625" stroke-width="1.0" fill="none" stroke="rgb(0, 255, 0)" stroke-opacity="1" stroke-linecap="round" stroke-linejoin="round"/>
    <path d="M 57.68130111694336 175.9969940185547 C 74.7385025024414 166.86000061035156 73.64749908447266 151.41299438476562 77.26499938964844 197.59300231933594" stroke-width="1.0" fill="none" stroke="rgb(0, 255, 0)" stroke-opacity="1" stroke-linecap="round" stroke-linejoin="round"/>
    <path d="M 65.79450225830078 159.07400512695312 C 89.53720092773438 168.3780059814453 71.06610107421875 123.58599853515625 97.1061019897461 170.3459930419922" stroke-width="1.0" fill="none" stroke="rgb(0, 255, 0)" stroke-opacity="1" stroke-linecap="round" stroke-linejoin="round"/>
    <path d="M 86.76809692382812 214.36300659179688 C 100.34700012207031 179.76800537109375 89.72720336914062 191.7790069580078 89.94960021972656 210.0260009765625" stroke-width="1.0" fill="none" stroke="rgb(0, 255, 0)" stroke-opacity="1" stroke-linecap="round" stroke-linejoin="round"/>
    <path d="M 17.44260025024414 204.22900390625 C 6.985000133514404 179.2570037841797 29.35140037536621 179.58700561523438 23.996999740600586 180.34100341796875" stroke-width="1.0" fill="none" stroke="rgb(255, 0, 0)" stroke-opacity="1" stroke-linecap="round" stroke-linejoin="round"/>
    <path d="M 64.26329803466797 174.72500610351562 C 95.13960266113281 204.3939971923828 108.46900177001953 181.85899353027344 95.21910095214844 206.81700134277344" stroke-width="1.0" fill="none" stroke="rgb(0, 255, 0)" stroke-opacity="1" stroke-linecap="round" stroke-linejoin="round"/>
    <path d="M 76.67639923095703 144.4739990234375 C 107.58000183105469 141.98800659179688 101.59400177001953 125.05000305175781 115.5199966430664 128.45399475097656" stroke-width="1.0" fill="none" stroke="rgb(0, 255, 0)" stroke-opacity="1" stroke-linecap="round" stroke-linejoin="round"/>
    <path d="M 30.69420051574707 177.97300720214844 C 5.900430202484131 176.64599609375 8.050880432128906 211.88299560546875 31.596200942993164 210.52699279785156" stroke-width="1.0" fill="none" stroke="rgb(255, 0, 0)" stroke-opacity="1" stroke-linecap="round" stroke-linejoin="round"/>
    <path d="M 95.3208999633789 189.031005859375 C 60.627201080322266 151.95599365234375 84.71060180664062 155.0469970703125 92.7748031616211 199.531005859375" stroke-width="1.0" fill="none" stroke="rgb(0, 255, 0)" stroke-opacity="1" stroke-linecap="round" stroke-linejoin="round"/>
    <path d="M 91.18990325927734 206.53599548339844 C 107.72100067138672 186.28199768066406 105.24400329589844 191.64599609375 97.48629760742188 177.8780059814453" stroke-width="1.0" fill="none" stroke="rgb(0, 255, 0)" stroke-opacity="1" stroke-linecap="round" stroke-linejoin="round"/>
    <path d="M 108.177001953125 214.84100341796875 C 58.377601623535156 215.53900146484375 105.73600006103516 220.65899658203125 97.16670227050781 184.8820037841797" stroke-width="1.0" fill="none" stroke="rgb(0, 255, 0)" stroke-opacity="1" stroke-linecap="round" stroke-linejoin="round"/>
    <path d="M 20.475000381469727 203.03500366210938 C 55.39400100708008 199.6719970703125 61.11009979248047 200.68099975585938 34.474700927734375 207.3300018310547" stroke-width="1.0" fill="none" stroke="rgb(255, 0, 0)" stroke-opacity="1" stroke-linecap="round" stroke-linejoin="round"/>
    <path d="M 67.97440338134766 169.9409942626953 C 76.70490264892578 172.93499755859375 100.81999969482422 169.48399353027344 88.20890045166016 182.36500549316406" stroke-width="1.0" fill="none" stroke="rgb(0, 255, 0)" stroke-opacity="1" stroke-linecap="round" stroke-linejoin="round"/>
    <path d="M 71.83529663085938 180.27099609375 C 78.50879669189453 140.83299255371094 92.21939849853516 166.28199768066406 81.6448974609375 192.43099975585938" stroke-width="1.0" fill="none" stroke="rgb(0, 255, 0)" stroke-opacity="1" stroke-linecap="round" stroke-linejoin="round"/>
    <path d="M 21.452999114990234 181.6529998779297 C 9.860540390014648 196.0709991455078 22.284400939941406 208.33399963378906 50.660400390625 201.10800170898438" stroke-width="1.0" fill="none" stroke="rgb(255, 0, 0)" stroke-opacity="1" stroke-linecap="round" stroke-linejoin="round"/>
    <path d="M 74.47160339355469 155.3520050048828 C 110.50800323486328 138.13400268554688 108.9260025024414 139.6439971923828 86.95449829101562 144.46800231933594" stroke-width="1.0" fill="none" stroke="rgb(0, 255, 0)" stroke-opacity="1" stroke-linecap="round" stroke-linejoin="round"/>
    <path d="M 76.57140350341797 197.6820068359375 C 105.77100372314453 189.16799926757812 88.57360076904297 207.9949951171875 84.25070190429688 178.84100341796875" stroke-width="1.0" fill="none" stroke="rgb(0, 255, 0)" stroke-opacity="1" stroke-linecap="round" stroke-linejoin="round"/>
    <path d="M 22.971099853515625 207.77099609375 C 7.686679840087891 203.61199951171875 18.076900482177734 175.05499267578125 17.00779914855957 188.87100219726562" stroke-width="1.0" fill="none" stroke="rgb(255, 0, 0)" stroke-opacity="1" stroke-linecap="round" stroke-linejoin="round"/>
    <path d="M 100.14600372314453 157.61199951171875 C 101.8949966430664 162.69700622558594 85.02670288085938 164.95199584960938 101.22899627685547 135.61099243164062" stroke-width="1.0" fill="none" stroke="rgb(0, 255, 0)" stroke-opacity="1" stroke-linecap="round" stroke-linejoin="round"/>
    <path d="M 117.0 130.89599609375 C 78.79969787597656 133.1490020751953 97.0730972290039 148.73800659179688 114.48699951171875 136.85499572753906" stroke-width="1.0" fill="none" stroke="rgb(0, 255, 0)" stroke-opacity="1" stroke-linecap="round" stroke-linejoin="round"/>
    <path d="M 104.13099670410156 173.8209991455078 C 108.16000366210938 164.2449951171875 59.79719924926758 163.66900634765625 115.2490005493164 156.65199279785156" stroke-width="1.0" fill="none" stroke="rgb(0, 255, 0)" stroke-opacity="1" stroke-linecap="round" stroke-linejoin="round"/>
    <path d="M 59.44889831542969 181.55499267578125 C 98.222900390625 179.4250030517578 77.32720184326172 182.55099487304688 56.91189956665039 174.24000549316406" stroke-width="1.0" fill="none" stroke="rgb(0, 255, 0)" stroke-opacity="1" stroke-linecap="round" stroke-linejoin="round"/>
    <path d="M 53.073299407958984 187.0780029296875 C 57.985599517822266 182.1840057373047 50.49300003051758 189.47799682617188 50.62699890136719 200.10899353027344" stroke-width="1.0" fill="none" stroke="rgb(0, 255, 0)" stroke-opacity="1" stroke-linecap="round" stroke-linejoin="round"/>
    <path d="M 92.62470245361328 174.31900024414062 C 64.7970962524414 151.70199584960938 73.37860107421875 144.468994140625 95.29350280761719 171.6909942626953" stroke-width="1.0" fill="none" stroke="rgb(0, 255, 0)" stroke-opacity="1" stroke-linecap="round" stroke-linejoin="round"/>
    <path d="M 47.10879898071289 194.625 C 57.13420104980469 224.1699981689453 28.597999572753906 215.71299743652344 71.70369720458984 216.3350067138672" stroke-width="1.0" fill="none" stroke="rgb(255, 0, 0)" stroke-opacity="1" stroke-linecap="round" stroke-linejoin="round"/>
    <path d="M 80.89990234375 143.16700744628906 C 109.88200378417969 146.48599243164062 93.34980010986328 153.72000122070312 73.9489974975586 143.11599731445312" stroke-width="1.0" fill="none" stroke="rgb(0, 255, 0)" stroke-opacity="1" stroke-linecap="round" stroke-linejoin="round"/>
    <path d="M 98.94740295410156 157.3090057373047 C 47.755401611328125 170.94200134277344 79.10060119628906 148.7899932861328 96.66020202636719 169.29600524902344" stroke-width="1.0" fill="none" stroke="rgb(0, 255, 0)" stroke-opacity="1" stroke-linecap="round" stroke-linejoin="round"/>
    <path d="M 83.9541015625 149.8979949951172 C 110.35299682617188 170.33900451660156 104.34400177001953 139.6060028076172 82.64409637451172 160.83299255371094" stroke-width="1.0" fill="none" stroke="rgb(0, 255, 0)" stroke-opacity="1" stroke-linecap="round" stroke-linejoin="round"/>
    <path d="M 50.67279815673828 199.08299255371094 C 47.17179870605469 207.88900756835938 15.961400032043457 215.3560028076172 50.19060134887695 207.22900390625" stroke-width="1.0" fill="none" stroke="rgb(255, 0, 0)" stroke-opacity="1" stroke-linecap="round" stroke-linejoin="round"/>
    <path d="M 68.56649780273438 147.21499633789062 C 96.80590057373047 163.27499389648438 120.91899871826172 154.51699829101562 89.54460144042969 159.85400390625" stroke-width="1.0" fill="none" stroke="rgb(0, 255, 0)" stroke-opacity="1" stroke-linecap="round" stroke-linejoin="round"/>
    <path d="M 27.00429916381836 179.2100067138672 C 19.863100051879883 180.09500122070312 19.066699981689453 189.3820037841797 18.09980010986328 187.0330047607422" stroke-width="1.0" fill="none" stroke="rgb(255, 0, 0)" stroke-opacity="1" stroke-linecap="round" stroke-linejoin="round"/>
    <path d="M 87.07569885253906 163.00100708007812 C 97.17169952392578 125.33699798583984 78.70999908447266 159.7220001220703 91.14530181884766 170.0290069580078" stroke-width="1.0" fill="none" stroke="rgb(0, 255, 0)" stroke-opacity="1" stroke-linecap="round" stroke-linejoin="round"/>
    <path d="M 114.96800231933594 158.20599365234375 C 122.08799743652344 145.46600341796875 94.97630310058594 170.66900634765625 90.56320190429688 138.02000427246094" stroke-width="1.0" fill="none" stroke="rgb(0, 255, 0)" stroke-opacity="1" stroke-linecap="round" stroke-linejoin="round"/>
    <path d="M 74.22260284423828 147.0260009765625 C 95.19010162353516 165.9340057373047 97.96540069580078 145.47999572753906 80.44339752197266 141.80499267578125" stroke-width="1.0" fill="none" stroke="rgb(0, 255, 0)" stroke-opacity="1" stroke-linecap="round" stroke-linejoin="round"/>
    <path d="M 80.21060180664062 178.89599609375 C 75.97339630126953 210.77699279785156 73.04119873046875 179.0970001220703 88.31009674072266 161.5330047607422" stroke-width="1.0" fill="none" stroke="rgb(0, 255, 0)" stroke-opacity="1" stroke-linecap="round" stroke-linejoin="round"/>
    <path d="M 98.17549896240234 148.13900756835938 C 102.4219970703125 167.07899475097656 115.63600158691406 166.84300231933594 88.93460083007812 136.5019989013672" stroke-width="1.0" fill="none" stroke="rgb(0, 255, 0)" stroke-opacity="1" stroke-linecap="round" stroke-linejoin="round"/>
    <path d="M 94.27179718017578 135.46499633789062 C 106.15899658203125 151.16200256347656 102.93599700927734 172.9929962158203 71.63179779052734 149.0399932861328" stroke-width="1.0" fill="none" stroke="rgb(0, 255, 0)" stroke-opacity="1" stroke-linecap="round" stroke-linejoin="round"/>
    <path d="M 101.8759994506836 165.1479949951172 C 77.36360168457031 201.9949951171875 100.33899688720703 200.83399963378906 67.6552963256836 169.96800231933594" stroke-width="1.0" fill="none" stroke="rgb(0, 255, 0)" stroke-opacity="1" stroke-linecap="round" stroke-linejoin="round"/>
    <path d="M 33.575199127197266 206.40199279785156 C 59.214900970458984 188.27499389648438 53.77170181274414 200.64199829101562 27.123600006103516 204.1199951171875" stroke-width="1.0" fill="none" stroke="rgb(255, 0, 0)" stroke-opacity="1" stroke-linecap="round" stroke-linejoin="round"/>
    <path d="M 75.35769653320312 180.20899963378906 C 82.30690002441406 139.11099243164062 98.0790023803711 131.2949981689453 97.31079864501953 158.28599548339844" stroke-width="1.0" fill="none" stroke="rgb(0, 255, 0)" stroke-opacity="1" stroke-linecap="round" stroke-linejoin="round"/>
    <path d="M 44.60689926147461 203.23599243164062 C 24.383800506591797 221.0500030517578 21.222900390625 197.18099975585938 46.52470016479492 205.43800354003906" stroke-width="1.0" fill="none" stroke="rgb(255, 0, 0)" stroke-opacity="1" stroke-linecap="round" stroke-linejoin="round"/>
    <path d="M 87.21910095214844 141.218994140625 C 111.42400360107422 125.70500183105469 120.59100341796875 126.26699829101562 83.40160369873047 151.75999450683594" stroke-width="1.0" fill="none" stroke="rgb(0, 255, 0)" stroke-opacity="1" stroke-linecap="round" stroke-linejoin="round"/>
    <path d="M 47.03919982910156 216.47000122070312 C 88.92369842529297 214.14700317382812 53.76639938354492 216.6179962158203 62.578800201416016 209.48899841308594" stroke-width="1.0" fill="none" stroke="rgb(255, 0, 0)" stroke-opacity="1" stroke-linecap="round" stroke-linejoin="round"/>
    <path d="M 89.40509796142578 164.84800720214844 C 70.78099822998047 181.0449981689453 50.198699951171875 171.18099975585938 88.47160339355469 177.2949981689453" stroke-width="1.0" fill="none" stroke="rgb(0, 255, 0)" stroke-opacity="1" stroke-linecap="round" stroke-linejoin="round"/>
    <path d="M 106.052001953125 214.05499267578125 C 84.1072006225586 211.61399841308594 88.87439727783203 211.23399353027344 91.69509887695312 186.1790008544922" stroke-width="1.0" fill="none" stroke="rgb(0, 255, 0)" stroke-opacity="1" stroke-linecap="round" stroke-linejoin="round"/>
    <path d="M 79.93949890136719 194.625 C 85.39430236816406 164.13800048828125 93.2063980102539 170.94900512695312 77.37039947509766 163.23899841308594" stroke-width="1.0" fill="none" stroke="rgb(0, 255, 0)" stroke-opacity="1" stroke-linecap="round" stroke-linejoin="round"/>
    <path d="M 82.39099884033203 178.12600708007812 C 105.9280014038086 187.99400329589844 100.08000183105469 179.1909942626953 91.12480163574219 205.18099975585938" stroke-width="1.0" fill="none" stroke="rgb(0, 255, 0)" stroke-opacity="1" stroke-linecap="round" stroke-linejoin="round"/>
    <path d="M 111.8550033569336 138.427001953125 C 101.6050033569336 136.875 119.9000015258789 125.61799621582031 98.26370239257812 158.1510009765625" stroke-width="1.0" fill="none" stroke="rgb(0, 255, 0)" stroke-opacity="1" stroke-linecap="round" stroke-linejoin="round"/>
    <path d="M 56.349998474121094 181.60800170898438 C 62.134498596191406 165.94400024414062 73.71869659423828 163.14199829101562 74.431396484375 148.4530029296875" stroke-width="1.0" fill="none" stroke="rgb(0, 255, 0)" stroke-opacity="1" stroke-linecap="round" stroke-linejoin="round"/>
    <path d="M 64.08779907226562 156.2469940185547 C 88.68170166015625 171.0 68.78450012207031 165.50999450683594 91.99829864501953 186.16099548339844" stroke-width="1.0" fill="none" stroke="rgb(0, 255, 0)" stroke-opacity="1" stroke-linecap="round" stroke-linejoin="round"/>
    <path d="M 87.5873031616211 182.06300354003906 C 101.83000183105469 157.80499267578125 63.96950149536133 159.73199462890625 59.66899871826172 177.59500122070312" stroke-width="1.0" fill="none" stroke="rgb(0, 255, 0)" stroke-opacity="1" stroke-linecap="round" stroke-linejoin="round"/>
    <path d="M 114.55500030517578 134.43699645996094 C 87.84519958496094 151.25999450683594 102.66500091552734 153.07000732421875 111.67500305175781 137.56900024414062" stroke-width="1.0" fill="none" stroke="rgb(0, 255, 0)" stroke-opacity="1" stroke-linecap="round" stroke-linejoin="round"/>
    <path d="M 87.27420043945312 172.58999633789062 C 79.27940368652344 154.71600341796875 68.28019714355469 213.1479949951172 89.32050323486328 164.6540069580078" stroke-width="1.0" fill="none" stroke="rgb(0, 255, 0)" stroke-opacity="1" stroke-linecap="round" stroke-linejoin="round"/>
    <path d="M 95.44940185546875 172.6179962158203 C 84.60540008544922 142.60899353027344 81.04000091552734 137.99200439453125 68.50830078125 180.67100524902344" stroke-width="1.0" fill="none" stroke="rgb(0, 255, 0)" stroke-opacity="1" stroke-linecap="round" stroke-linejoin="round"/>
    <path d="M 100.79900360107422 138.3179931640625 C 107.47799682617188 159.98399353027344 91.66500091552734 156.5989990234375 109.6709976196289 129.6999969482422" stroke-width="1.0" fill="none" stroke="rgb(0, 255, 0)" stroke-opacity="1" stroke-linecap="round" stroke-linejoin="round"/>
    <path d="M 57.50230026245117 183.91200256347656 C 67.26709747314453 157.4720001220703 65.6864013671875 195.60499572753906 48.05120086669922 190.86700439453125" stroke-width="1.0" fill="none" stroke="rgb(0, 255, 0)" stroke-opacity="1" stroke-linecap="round" stroke-linejoin="round"/>
    <path d="M 97.37789916992188 191.5070037841797 C 77.66500091552734 174.1580047607422 72.48419952392578 192.18899536132812 99.7833023071289 196.3679962158203" stroke-width="1.0" fill="none" stroke="rgb(0, 255, 0)" stroke-opacity="1" stroke-linecap="round" stroke-linejoin="round"/>
    <path d="M 61.0098991394043 169.96800231933594 C 106.20099639892578 177.64100646972656 99.69319915771484 175.81300354003906 79.60659790039062 147.27499389648438" stroke-width="1.0" fill="none" stroke="rgb(0, 255, 0)" stroke-opacity="1" stroke-linecap="round" stroke-linejoin="round"/>
    <path d="M 19.508800506591797 182.5959930419922 C 12.235099792480469 199.6230010986328 16.399099349975586 178.8350067138672 33.10940170288086 178.73500061035156" stroke-width="1.0" fill="none" stroke="rgb(255, 0, 0)" stroke-opacity="1" stroke-linecap="round" stroke-linejoin="round"/>
    <path d="M 92.3218002319336 142.68600463867188 C 116.76100158691406 145.35400390625 113.052001953125 134.4080047607422 96.84750366210938 134.94900512695312" stroke-width="1.0" fill="none" stroke="rgb(0, 255, 0)" stroke-opacity="1" stroke-linecap="round" stroke-linejoin="round"/>
    <path d="M 99.56089782714844 197.53599548339844 C 94.98300170898438 173.1739959716797 93.38829803466797 195.51499938964844 81.13569641113281 179.08900451660156" stroke-width="1.0" fill="none" stroke="rgb(0, 255, 0)" stroke-opacity="1" stroke-linecap="round" stroke-linejoin="round"/>
    <path d="M 86.92389678955078 189.88400268554688 C 64.21549987792969 208.406005859375 50.40919876098633 211.0500030517578 66.677001953125 216.27699279785156" stroke-width="1.0" fill="none" stroke="rgb(255, 0, 0)" stroke-opacity="1" stroke-linecap="round" stroke-linejoin="round"/>
    <path d="M 86.79620361328125 174.39300537109375 C 68.77880096435547 166.4980010986328 85.46710205078125 164.0679931640625 59.30540084838867 178.68600463867188" stroke-width="1.0" fill="none" stroke="rgb(0, 255, 0)" stroke-opacity="1" stroke-linecap="round" stroke-linejoin="round"/>
    <path d="M 91.60310363769531 198.44400024414062 C 89.7522964477539 181.97500610351562 87.37989807128906 199.17599487304688 92.60050201416016 169.39300537109375" stroke-width="1.0" fill="none" stroke="rgb(0, 255, 0)" stroke-opacity="1" stroke-linecap="round" stroke-linejoin="round"/>
    <path d="M 67.88970184326172 154.66099548339844 C 81.65409851074219 166.447998046875 78.34040069580078 159.51800537109375 110.65699768066406 140.66799926757812" stroke-width="1.0" fill="none" stroke="rgb(0, 255, 0)" stroke-opacity="1" stroke-linecap="round" stroke-linejoin="round"/>
    <path d="M 43.60639953613281 202.49099731445312 C 53.58620071411133 183.9199981689453 44.595001220703125 200.09300231933594 50.55009841918945 198.4969940185547" stroke-width="1.0" fill="none" stroke="rgb(255, 0, 0)" stroke-opacity="1" stroke-linecap="round" stroke-linejoin="round"/>
    <path d="M 95.53900146484375 152.7969970703125 C 69.8738021850586 151.61000061035156 65.77220153808594 187.25 113.97599792480469 154.94700622558594" stroke-width="1.0" fill="none" stroke="rgb(0, 255, 0)" stroke-opacity="1" stroke-linecap="round" stroke-linejoin="round"/>
    <path d="M 70.69039916992188 147.80299377441406 C 97.16310119628906 152.04200744628906 71.0271987915039 132.39700317382812 92.37059783935547 156.26300048828125" stroke-width="1.0" fill="none" stroke="rgb(0, 255, 0)" stroke-opacity="1" stroke-linecap="round" stroke-linejoin="round"/>
    <path d="M 48.894901275634766 187.6840057373047 C 57.92610168457031 188.39999389648438 41.77539825439453 212.0189971923828 48.720699310302734 192.60000610351562" stroke-width="1.0" fill="none" stroke="rgb(255, 0, 0)" stroke-opacity="1" stroke-linecap="round" stroke-linejoin="round"/>
    <path d="M 82.05889892578125 139.50599670410156 C 102.79900360107422 142.9600067138672 101.20899963378906 142.09800720214844 111.38600158691406 130.70899963378906" stroke-width="1.0" fill="none" stroke="rgb(0, 255, 0)" stroke-opacity="1" stroke-linecap="round" stroke-linejoin="round"/>
    <path d="M 33.34239959716797 210.78900146484375 C 6.155280113220215 202.29600524902344 22.040700912475586 212.29200744628906 52.92559814453125 191.87399291992188" stroke-width="1.0" fill="none" stroke="rgb(255, 0, 0)" stroke-opacity="1" stroke-linecap="round" stroke-linejoin="round"/>
    <path d="M 78.45610046386719 147.0260009765625 C 125.68299865722656 134.31300354003906 101.89600372314453 130.79200744628906 97.43109893798828 150.2480010986328" stroke-width="1.0" fill="none" stroke="rgb(0, 255, 0)" stroke-opacity="1" stroke-linecap="round" stroke-linejoin="round"/>
    <path d="M 101.22100067138672 187.8939971923828 C 85.74210357666016 228.2239990234375 88.5510025024414 218.66799926757812 93.99849700927734 165.61500549316406" stroke-width="1.0" fill="none" stroke="rgb(0, 255, 0)" stroke-opacity="1" stroke-linecap="round" stroke-linejoin="round"/>
    <path d="M 84.36869812011719 195.6009979248047 C 78.43090057373047 160.3000030517578 94.79019927978516 155.46099853515625 70.34200286865234 153.22900390625" stroke-width="1.0" fill="none" stroke="rgb(0, 255, 0)" stroke-opacity="1" stroke-linecap="round" stroke-linejoin="round"/>
    <path d="M 54.08359909057617 192.25399780273438 C 51.11859893798828 199.7220001220703 30.396400451660156 208.86900329589844 28.368000030517578 204.2550048828125" stroke-width="1.0" fill="none" stroke="rgb(255, 0, 0)" stroke-opacity="1" stroke-linecap="round" stroke-linejoin="round"/>
    <path d="M 57.4552001953125 214.9739990234375 C 55.61980056762695 213.4340057373047 73.79540252685547 218.01800537109375 61.771400451660156 212.29400634765625" stroke-width="1.0" fill="none" stroke="rgb(255, 0, 0)" stroke-opacity="1" stroke-linecap="round" stroke-linejoin="round"/>
    <path d="M 69.57270050048828 184.41299438476562 C 69.36930084228516 165.52499389648438 81.56700134277344 163.1529998779297 74.78479766845703 144.83900451660156" stroke-width="1.0" fill="none" stroke="rgb(0, 255, 0)" stroke-opacity="1" stroke-linecap="round" stroke-linejoin="round"/>
    <path d="M 93.70999908447266 199.33999633789062 C 110.9010009765625 189.93499755859375 79.8687973022461 196.63999938964844 95.93949890136719 196.9080047607422" stroke-width="1.0" fill="none" stroke="rgb(0, 255, 0)" stroke-opacity="1" stroke-linecap="round" stroke-linejoin="round"/>
    <path d="M 100.96299743652344 169.17599487304688 C 87.09700012207031 173.71600341796875 82.79869842529297 186.01699829101562 93.60569763183594 204.072998046875" stroke-width="1.0" fill="none" stroke="rgb(0, 255, 0)" stroke-opacity="1" stroke-linecap="round" stroke-linejoin="round"/>
    <path d="M 84.160400390625 158.96099853515625 C 62.864601135253906 185.6649932861328 78.06739807128906 181.1479949951172 100.75800323486328 193.99200439453125" stroke-width="1.0" fill="none" stroke="rgb(0, 255, 0)" stroke-opacity="1" stroke-linecap="round" stroke-linejoin="round"/>
    <path d="M 81.03980255126953 144.4759979248047 C 87.87129974365234 157.0 86.21050262451172 155.70599365234375 74.00260162353516 149.42999267578125" stroke-width="1.0" fill="none" stroke="rgb(0, 255, 0)" stroke-opacity="1" stroke-linecap="round" stroke-linejoin="round"/>
    <path d="M 39.63719940185547 201.06199645996094 C 56.2041015625 188.10299682617188 55.674800872802734 200.00399780273438 48.88959884643555 215.4739990234375" stroke-width="1.0" fill="none" stroke="rgb(255, 0, 0)" stroke-opacity="1" stroke-linecap="round" stroke-linejoin="round"/>
    <path d="M 86.12570190429688 183.21400451660156 C 88.32160186767578 160.7100067138672 97.71430206298828 137.63600158691406 78.63909912109375 184.98399353027344" stroke-width="1.0" fill="none" stroke="rgb(0, 255, 0)" stroke-opacity="1" stroke-linecap="round" stroke-linejoin="round"/>
    <path d="M 18.312999725341797 186.71200561523438 C 11.764900207519531 198.66400146484375 28.764400482177734 224.63499450683594 47.80419921875 200.78500366210938" stroke-width="1.0" fill="none" stroke="rgb(255, 0, 0)" stroke-opacity="1" stroke-linecap="round" stroke-linejoin="round"/>
    <path d="M 57.91360092163086 185.06399536132812 C 34.956199645996094 204.10400390625 43.45970153808594 206.16799926757812 55.67509841918945 192.47799682617188" stroke-width="1.0" fill="none" stroke="rgb(255, 0, 0)" stroke-opacity="1" stroke-linecap="round" stroke-linejoin="round"/>
    <path d="M 76.7219009399414 186.1699981689453 C 105.9530029296875 160.48500061035156 79.3228988647461 169.16600036621094 66.35250091552734 163.25399780273438" stroke-width="1.0" fill="none" stroke="rgb(0, 255, 0)" stroke-opacity="1" stroke-linecap="round" stroke-linejoin="round"/>
    <path d="M 83.0969009399414 194.1790008544922 C 65.48629760742188 198.93800354003906 85.17510223388672 204.11700439453125 77.39720153808594 184.32400512695312" stroke-width="1.0" fill="none" stroke="rgb(0, 255, 0)" stroke-opacity="1" stroke-linecap="round" stroke-linejoin="round"/>
    <path d="M 58.75590133666992 188.94500732421875 C 72.42649841308594 172.38299560546875 102.28099822998047 175.1540069580078 63.05220031738281 166.3350067138672" stroke-width="1.0" fill="none" stroke="rgb(0, 255, 0)" stroke-opacity="1" stroke-linecap="round" stroke-linejoin="round"/>
    <path d="M 49.02410125732422 200.74200439453125 C 50.8400993347168 204.2469940185547 48.283599853515625 207.83599853515625 50.193599700927734 201.0760040283203" stroke-width="1.0" fill="none" stroke="rgb(255, 0, 0)" stroke-opacity="1" stroke-linecap="round" stroke-linejoin="round"/>
    <path d="M 88.55079650878906 154.39700317382812 C 72.5719985961914 195.0919952392578 80.44120025634766 190.78500366210938 72.27890014648438 202.23399353027344" stroke-width="1.0" fill="none" stroke="rgb(0, 255, 0)" stroke-opacity="1" stroke-linecap="round" stroke-linejoin="round"/>
    <path d="M 18.523799896240234 205.1649932861328 C 35.237701416015625 205.90699768066406 46.86940002441406 206.05499267578125 17.82270050048828 199.4929962158203" stroke-width="1.0" fill="none" stroke="rgb(255, 0, 0)" stroke-opacity="1" stroke-linecap="round" stroke-linejoin="round"/>
    <path d="M 100.98600006103516 162.86500549316406 C 82.09549713134766 197.65899658203125 75.76599884033203 205.39300537109375 81.1989974975586 167.04600524902344" stroke-width="1.0" fill="none" stroke="rgb(0, 255, 0)" stroke-opacity="1" stroke-linecap="round" stroke-linejoin="round"/>
  </g>
</svg>
