<svg height="256" version="1.1" width="256" xmlns="http://www.w3.org/2000/svg">
  <defs/>
  <g>
    <path d="M38.8623 137C34.135 153.071 30.7411 168.071 26.8623 182" fill="none" stroke="rgb(0, 0, 0)" stroke-linecap="round" stroke-linejoin="round" stroke-opacity="1.0" stroke-width="2"/>
    <path d="M56.8623 136C61.9835 152.071 65.6603 167.071 69.8623 181" fill="none" stroke="rgb(0, 0, 0)" stroke-linecap="round" stroke-linejoin="round" stroke-opacity="1.0" stroke-width="2"/>
    <path d="M35.8623 153C46.1047 152.642 53.4583 152.309 61.8623 152" fill="none" stroke="rgb(0, 0, 0)" stroke-linecap="round" stroke-linejoin="round" stroke-opacity="1.0" stroke-width="2"/>
    <path d="M47.8633 130C31.8634 130 31.8646 101 47.8633 101" fill="none" stroke="rgb(0, 0, 0)" stroke-linecap="round" stroke-linejoin="round" stroke-opacity="1.0" stroke-width="2"/>
    <path d="M47.8623 130C63.8623 130 63.8611 101 47.8623 101" fill="none" stroke="rgb(0, 0, 0)" stroke-linecap="round" stroke-linejoin="round" stroke-opacity="1.0" stroke-width="2"/>
    <path d="M47.8615 139C73.1969 139 73.1949 91 47.8615 91" fill="none" stroke="rgb(0, 0, 0)" stroke-linecap="round" stroke-linejoin="round" stroke-opacity="1.0" stroke-width="2"/>
    <path d="M47.8631 139C22.5277 139 22.5297 91 47.8631 91" fill="none" stroke="rgb(0, 0, 0)" stroke-linecap="round" stroke-linejoin="round" stroke-opacity="1.0" stroke-width="2"/>
    <path d="M48.3626 123C39.6952 123 39.6959 108 48.3626 108" fill="none" stroke="rgb(0, 0, 0)" stroke-linecap="round" stroke-linejoin="round" stroke-opacity="1.0" stroke-width="2"/>
    <path d="M48.362 123C57.0294 123 57.0287 108 48.362 108" fill="none" stroke="rgb(0, 0, 0)" stroke-linecap="round" stroke-linejoin="round" stroke-opacity="1.0" stroke-width="2"/>
    <path d="M212.07 134.954C235.755 175.539 209.414 166.738 211.076 109" fill="none" stroke="rgb(0, 0, 0)" stroke-linecap="round" stroke-linejoin="round" stroke-opacity="1.0" stroke-width="2"/>
    <path d="M213.701 140.303C196.017 128.601 204.416 97.5922 208.498 151.985" fill="none" stroke="rgb(0, 0, 0)" stroke-linecap="round" stroke-linejoin="round" stroke-opacity="1.0" stroke-width="2"/>
    <path d="M198.776 182.382C214.605 197.915 190.065 185.412 198.343 185.609" fill="none" stroke="rgb(0, 0, 0)" stroke-linecap="round" stroke-linejoin="round" stroke-opacity="1.0" stroke-width="2"/>
    <path d="M205.491 151.52C209.828 107.607 209.668 79.6186 209.67 153.668" fill="none" stroke="rgb(0, 0, 0)" stroke-linecap="round" stroke-linejoin="round" stroke-opacity="1.0" stroke-width="2"/>
    <path d="M195.13 156C206.915 196.688 204.285 194.867 195 188.558" fill="none" stroke="rgb(0, 0, 0)" stroke-linecap="round" stroke-linejoin="round" stroke-opacity="1.0" stroke-width="2"/>
    <path d="M236.5 112.5C232.752 125.054 221.75 118.73 215 118.73" fill="none" stroke="rgb(0, 0, 0)" stroke-linecap="round" stroke-linejoin="round" stroke-opacity="1.0" stroke-width="2"/>
    <path d="M235 112C230.435 123.193 220.87 116.37 216 116.37" fill="none" stroke="rgb(0, 0, 0)" stroke-linecap="round" stroke-linejoin="round" stroke-opacity="1.0" stroke-width="2"/>
    <path d="M169 114.499C181.5 114.499 190.5 119.499 204 110" fill="none" stroke="rgb(0, 0, 0)" stroke-linecap="round" stroke-linejoin="round" stroke-opacity="1.0" stroke-width="2"/>
    <path d="M172 118C180.5 118 201.5 118 201.5 123.498" fill="none" stroke="rgb(0, 0, 0)" stroke-linecap="round" stroke-linejoin="round" stroke-opacity="1.0" stroke-width="2"/>
    <path d="M170 116C178.5 116 199.5 116 199.5 121.498" fill="none" stroke="rgb(0, 0, 0)" stroke-linecap="round" stroke-linejoin="round" stroke-opacity="1.0" stroke-width="2"/>
    <path d="M206.078 155.243C195.66 162.393 202.485 174.589 206.078 187.206" fill="none" stroke="rgb(0, 0, 0)" stroke-linecap="round" stroke-linejoin="round" stroke-opacity="1.0" stroke-width="2"/>
    <path d="M203.706 152.72C193.288 159.869 200.113 172.065 203.706 184.682" fill="none" stroke="rgb(0, 0, 0)" stroke-linecap="round" stroke-linejoin="round" stroke-opacity="1.0" stroke-width="2"/>
    <path d="M220.302 180.662C204.473 196.195 229.013 183.692 220.735 183.889" fill="none" stroke="rgb(0, 0, 0)" stroke-linecap="round" stroke-linejoin="round" stroke-opacity="1.0" stroke-width="2"/>
    <path d="M224.932 157.28C211.673 194.577 214.632 192.908 225.078 187.125" fill="none" stroke="rgb(0, 0, 0)" stroke-linecap="round" stroke-linejoin="round" stroke-opacity="1.0" stroke-width="2"/>
    <path d="M213 153.523C223.418 160.673 216.593 172.869 213 185.486" fill="none" stroke="rgb(0, 0, 0)" stroke-linecap="round" stroke-linejoin="round" stroke-opacity="1.0" stroke-width="2"/>
    <path d="M215.372 151C225.79 158.149 218.965 170.345 215.372 182.962" fill="none" stroke="rgb(0, 0, 0)" stroke-linecap="round" stroke-linejoin="round" stroke-opacity="1.0" stroke-width="2"/>
    <path d="M203.381 112.087C197.814 80.0214 214.808 116.029 201.199 98.4554" fill="none" stroke="rgb(0, 0, 0)" stroke-linecap="round" stroke-linejoin="round" stroke-opacity="1.0" stroke-width="2"/>
    <path d="M205.917 109.349C215.408 176.678 213.809 165.674 209.237 108.405" fill="none" stroke="rgb(0, 0, 0)" stroke-linecap="round" stroke-linejoin="round" stroke-opacity="1.0" stroke-width="2"/>
    <path d="M209.463 154.254C198.335 97.8846 228.871 102.079 209.803 146.016" fill="none" stroke="rgb(0, 0, 0)" stroke-linecap="round" stroke-linejoin="round" stroke-opacity="1.0" stroke-width="2"/>
    <path d="M214.222 125.061C196.998 106.389 195.757 121.155 225 159" fill="none" stroke="rgb(0, 0, 0)" stroke-linecap="round" stroke-linejoin="round" stroke-opacity="1.0" stroke-width="2"/>
    <path d="M196.888 154.561C197.039 146.733 208.157 151.764 211.258 118.392" fill="none" stroke="rgb(0, 0, 0)" stroke-linecap="round" stroke-linejoin="round" stroke-opacity="1.0" stroke-width="2"/>
    <path d="M215.569 115.494C195.212 92.9907 200.879 131.325 196.888 121.924" fill="none" stroke="rgb(0, 0, 0)" stroke-linecap="round" stroke-linejoin="round" stroke-opacity="1.0" stroke-width="2"/>
    <path d="M215.057 118C214.299 154.888 221.311 149.766 223 160" fill="none" stroke="rgb(0, 0, 0)" stroke-linecap="round" stroke-linejoin="round" stroke-opacity="1.0" stroke-width="2"/>
    <path d="M206.23 103.339C196.01 108.422 195.812 94.4231 206.23 94.4231" fill="none" stroke="rgb(0, 0, 0)" stroke-linecap="round" stroke-linejoin="round" stroke-opacity="1.0" stroke-width="2"/>
    <path d="M200.481 102.916C210.701 107.998 210.899 94 200.481 94" fill="none" stroke="rgb(0, 0, 0)" stroke-linecap="round" stroke-linejoin="round" stroke-opacity="1.0" stroke-width="2"/>
    <path d="M149 115C145.67 114.366 144.381 111.317 149 110" fill="none" stroke="rgb(0, 0, 0)" stroke-linecap="round" stroke-linejoin="round" stroke-opacity="1.0" stroke-width="2"/>
    <path d="M236 112.5C211.504 112.5 186.504 112.5 147 112.5" fill="none" stroke="rgb(0, 0, 0)" stroke-linecap="round" stroke-linejoin="round" stroke-opacity="1.0" stroke-width="2"/>
    <path d="M180.889 150C176.115 139.545 158.977 103.636 180.889 82.7273" fill="none" stroke="rgb(0, 0, 0)" stroke-linecap="round" stroke-linejoin="round" stroke-opacity="1.0" stroke-width="2"/>
    <path d="M179.305 149.09C176.16 138.353 164.872 101.474 179.305 80" fill="none" stroke="rgb(0, 0, 0)" stroke-linecap="round" stroke-linejoin="round" stroke-opacity="1.0" stroke-width="2"/>
    <path d="M191.003 157C167.695 145.839 158.672 92.1805 191.003 69" fill="none" stroke="rgb(0, 0, 0)" stroke-linecap="round" stroke-linejoin="round" stroke-opacity="1.0" stroke-width="2"/>
    <path d="M237.503 113.5C218.003 98.5 204.003 84.5 188.003 71.5" fill="none" stroke="rgb(0, 0, 0)" stroke-linecap="round" stroke-linejoin="round" stroke-opacity="1.0" stroke-width="2"/>
    <path d="M238 114C218.303 127.571 204.162 140.238 188 152" fill="none" stroke="rgb(0, 0, 0)" stroke-linecap="round" stroke-linejoin="round" stroke-opacity="1.0" stroke-width="2"/>
  </g>
</svg>
