<svg height="256" version="1.1" width="256" xmlns="http://www.w3.org/2000/svg">
  <defs/>
  <g>
    <path d="M137 73.1643C160.897 75.0043 190.9 75.0043 229.9 75.0043" fill="none" stroke="rgb(0, 0, 0)" stroke-linecap="round" stroke-linejoin="round" stroke-opacity="1.0" stroke-width="2"/>
    <path d="M193.886 157.006C157.893 162.503 171.89 152.507 192.756 158.756" fill="none" stroke="rgb(0, 0, 0)" stroke-linecap="round" stroke-linejoin="round" stroke-opacity="1.0" stroke-width="2"/>
    <path d="M171.875 58.9972C199.055 58.9972 197.057 63.5034 199.055 41.0072" fill="none" stroke="rgb(0, 0, 0)" stroke-linecap="round" stroke-linejoin="round" stroke-opacity="1.0" stroke-width="2"/>
    <path d="M185.275 78.5049C182.665 99.003 185.275 130.003 185.275 155.355" fill="none" stroke="rgb(0, 0, 0)" stroke-linecap="round" stroke-linejoin="round" stroke-opacity="1.0" stroke-width="2"/>
    <path d="M139.473 74.3384C138.827 47.7158 141.394 24.4985 137.893 24.4985" fill="none" stroke="rgb(0, 0, 0)" stroke-linecap="round" stroke-linejoin="round" stroke-opacity="1.0" stroke-width="2"/>
    <path d="M227.733 21C228.894 37.0037 229.894 57.501 227.733 75.62" fill="none" stroke="rgb(0, 0, 0)" stroke-linecap="round" stroke-linejoin="round" stroke-opacity="1.0" stroke-width="2"/>
    <path d="M182.061 38.5036C193.057 38.5036 187.557 38.5036 197.841 39.1536" fill="none" stroke="rgb(0, 0, 0)" stroke-linecap="round" stroke-linejoin="round" stroke-opacity="1.0" stroke-width="2"/>
    <path d="M181.062 38.504C164.504 39.7296 168.932 37.0034 168.932 58.944" fill="none" stroke="rgb(0, 0, 0)" stroke-linecap="round" stroke-linejoin="round" stroke-opacity="1.0" stroke-width="2"/>
    <path d="M198.358 22.6689C235.693 23.7866 228.185 15.8923 228.398 33.4989" fill="none" stroke="rgb(0, 0, 0)" stroke-linecap="round" stroke-linejoin="round" stroke-opacity="1.0" stroke-width="2"/>
    <path d="M138.89 22.9054C163.896 22.9054 183.264 22.9054 199.89 22.9054" fill="none" stroke="rgb(0, 0, 0)" stroke-linecap="round" stroke-linejoin="round" stroke-opacity="1.0" stroke-width="2"/>
    <path d="M57.6958 96.7853C59.6998 90.0353 60.0348 83.8473 55.0688 78.7853" fill="none" stroke="rgb(0, 0, 0)" stroke-linecap="round" stroke-linejoin="round" stroke-opacity="1.0" stroke-width="1.5"/>
    <path d="M53.0688 85.7853C59.6038 89.2763 70.9068 87.4803 75.0688 85.7853" fill="none" stroke="rgb(0, 0, 0)" stroke-linecap="round" stroke-linejoin="round" stroke-opacity="1.0" stroke-width="1.5"/>
    <path d="M51.5688 86.2853C55.5688 105.285 74.0688 96.7853 74.0688 86.2853" fill="none" stroke="rgb(0, 0, 0)" stroke-linecap="round" stroke-linejoin="round" stroke-opacity="1.0" stroke-width="1.5"/>
    <path d="M52.0688 86.2834C52.0688 67.2833 79.0688 75.7833 74.0688 86.2834" fill="none" stroke="rgb(0, 0, 0)" stroke-linecap="round" stroke-linejoin="round" stroke-opacity="1.0" stroke-width="1.5"/>
    <path d="M70.5689 92.7853C67.0689 89.2853 66.4659 81.8473 69.5689 76.7853" fill="none" stroke="rgb(0, 0, 0)" stroke-linecap="round" stroke-linejoin="round" stroke-opacity="1.0" stroke-width="1.5"/>
    <path d="M62.0688 75.7853C62.5848 84.9464 64.4168 90.6093 65.0688 96.7853" fill="none" stroke="rgb(0, 0, 0)" stroke-linecap="round" stroke-linejoin="round" stroke-opacity="1.0" stroke-width="1.5"/>
    <path d="M72.0662 128.593C75.0689 126.102 72.0662 117.363 67.5662 117.363" fill="none" stroke="rgb(0, 0, 0)" stroke-linecap="round" stroke-linejoin="round" stroke-opacity="1.0" stroke-width="2"/>
    <path d="M43.0682 132.1C43.0682 143.102 47.5682 149.102 50.1482 153.58" fill="none" stroke="rgb(0, 0, 0)" stroke-linecap="round" stroke-linejoin="round" stroke-opacity="1.0" stroke-width="2"/>
    <path d="M69.2149 141.613C67.4092 102.732 69.557 119.629 73.5689 144.602" fill="none" stroke="rgb(0, 0, 0)" stroke-linecap="round" stroke-linejoin="round" stroke-opacity="1.0" stroke-width="2"/>
    <path d="M72.7641 109.602C82.3419 134.608 63.6673 133.586 71.5762 154.602" fill="none" stroke="rgb(0, 0, 0)" stroke-linecap="round" stroke-linejoin="round" stroke-opacity="1.0" stroke-width="2"/>
    <path d="M53.3133 89.6989C53.0533 97.6884 45.3765 98.08 50.7318 86.5211" fill="none" stroke="rgb(0, 0, 0)" stroke-linecap="round" stroke-linejoin="round" stroke-opacity="1.0" stroke-width="2"/>
    <path d="M58.5689 191.602C53.9543 191.602 49.2985 193.602 46.0689 193.602" fill="none" stroke="rgb(0, 0, 0)" stroke-linecap="round" stroke-linejoin="round" stroke-opacity="1.0" stroke-width="2"/>
    <path d="M61.5689 138.041C59.3539 138.041 57.1191 139.602 55.5689 139.602" fill="none" stroke="rgb(0, 0, 0)" stroke-linecap="round" stroke-linejoin="round" stroke-opacity="1.0" stroke-width="2"/>
    <path d="M64.5689 169.605C59.5689 169.605 60.2357 190.826 58.5689 194.105" fill="none" stroke="rgb(0, 0, 0)" stroke-linecap="round" stroke-linejoin="round" stroke-opacity="1.0" stroke-width="2"/>
    <path d="M53.5689 123.602C74.8584 126.633 73.6519 129.648 63.5653 125.76" fill="none" stroke="rgb(0, 0, 0)" stroke-linecap="round" stroke-linejoin="round" stroke-opacity="1.0" stroke-width="2"/>
    <path d="M47.5633 93C32.0668 101.5 33.0709 108.5 45.0833 123" fill="none" stroke="rgb(0, 0, 0)" stroke-linecap="round" stroke-linejoin="round" stroke-opacity="1.0" stroke-width="2"/>
    <path d="M73.5642 194.104C75.1114 194.808 77.6742 178.601 77.6742 212.924" fill="none" stroke="rgb(0, 0, 0)" stroke-linecap="round" stroke-linejoin="round" stroke-opacity="1.0" stroke-width="2"/>
    <path d="M74.5674 156.607C78.2949 163.791 77.0689 178.102 79.1379 189.057" fill="none" stroke="rgb(0, 0, 0)" stroke-linecap="round" stroke-linejoin="round" stroke-opacity="1.0" stroke-width="2"/>
    <path d="M73.0089 153.602C47.5689 160.099 47.5689 145.099 47.5689 191.732" fill="none" stroke="rgb(0, 0, 0)" stroke-linecap="round" stroke-linejoin="round" stroke-opacity="1.0" stroke-width="2"/>
    <path d="M70.5689 190.602C76.8533 178.408 79.8529 205.308 75.5483 157.602" fill="none" stroke="rgb(0, 0, 0)" stroke-linecap="round" stroke-linejoin="round" stroke-opacity="1.0" stroke-width="2"/>
    <path d="M56.3565 139.208C60.9031 134.915 61.5044 127.063 56.3565 132.394" fill="none" stroke="rgb(0, 0, 0)" stroke-linecap="round" stroke-linejoin="round" stroke-opacity="1.0" stroke-width="2"/>
    <path d="M51.5614 119.002C48.062 112 30.0652 108.5 49.5614 94.5023" fill="none" stroke="rgb(0, 0, 0)" stroke-linecap="round" stroke-linejoin="round" stroke-opacity="1.0" stroke-width="2"/>
    <path d="M53.0623 113.74C55.0623 123.082 65.0623 119.085 65.0623 113.74" fill="none" stroke="rgb(0, 0, 0)" stroke-linecap="round" stroke-linejoin="round" stroke-opacity="1.0" stroke-width="2"/>
    <path d="M67.0489 110.463C63.0623 94.5841 52.5689 101.584 52.5689 110.463" fill="none" stroke="rgb(0, 0, 0)" stroke-linecap="round" stroke-linejoin="round" stroke-opacity="1.0" stroke-width="2"/>
    <path d="M56.5623 107.146C73.9584 107.146 61.3962 101.377 53.0623 107.146" fill="none" stroke="rgb(0, 0, 0)" stroke-linecap="round" stroke-linejoin="round" stroke-opacity="1.0" stroke-width="2"/>
    <path d="M56.5623 111.146C73.9584 111.146 61.3962 105.377 53.0623 111.146" fill="none" stroke="rgb(0, 0, 0)" stroke-linecap="round" stroke-linejoin="round" stroke-opacity="1.0" stroke-width="2"/>
    <path d="M56.2202 114.744C60.3419 122.369 72.2004 103.093 55.0623 114.027" fill="none" stroke="rgb(0, 0, 0)" stroke-linecap="round" stroke-linejoin="round" stroke-opacity="1.0" stroke-width="2"/>
    <path d="M42.5689 141.112C42.718 113.275 62.7966 111.066 46.7989 135.562" fill="none" stroke="rgb(0, 0, 0)" stroke-linecap="round" stroke-linejoin="round" stroke-opacity="1.0" stroke-width="2"/>
    <path d="M47.4648 146.62C39.0531 126.499 52.1829 132.321 46.8624 121.602" fill="none" stroke="rgb(0, 0, 0)" stroke-linecap="round" stroke-linejoin="round" stroke-opacity="1.0" stroke-width="2"/>
    <path d="M70.5665 194.102C70.5665 200.102 73.5665 209.102 73.5665 215.602" fill="none" stroke="rgb(0, 0, 0)" stroke-linecap="round" stroke-linejoin="round" stroke-opacity="1.0" stroke-width="2"/>
    <path d="M72.2529 130.964C76.541 163.902 64.0651 139.808 67.0297 123.602" fill="none" stroke="rgb(0, 0, 0)" stroke-linecap="round" stroke-linejoin="round" stroke-opacity="1.0" stroke-width="2"/>
    <path d="M52.2292 87.6773C49.6481 83.3639 42.5636 77.0281 49.5906 95.1941" fill="none" stroke="rgb(0, 0, 0)" stroke-linecap="round" stroke-linejoin="round" stroke-opacity="1.0" stroke-width="2"/>
    <path d="M71.5689 89.3864C75.5902 87.7779 86.8639 86.2256 75.9157 93" fill="none" stroke="rgb(0, 0, 0)" stroke-linecap="round" stroke-linejoin="round" stroke-opacity="1.0" stroke-width="2"/>
    <path d="M47.9505 129.602C49.4604 147.961 40.6763 153.341 64.5688 149.371" fill="none" stroke="rgb(0, 0, 0)" stroke-linecap="round" stroke-linejoin="round" stroke-opacity="1.0" stroke-width="2"/>
    <path d="M72.5689 147.962C46.8188 143.322 44.5159 152.197 61.2642 150.344" fill="none" stroke="rgb(0, 0, 0)" stroke-linecap="round" stroke-linejoin="round" stroke-opacity="1.0" stroke-width="2"/>
    <path d="M47.6667 127.435C74.4536 117.429 67.8295 118.481 75.5667 132.105" fill="none" stroke="rgb(0, 0, 0)" stroke-linecap="round" stroke-linejoin="round" stroke-opacity="1.0" stroke-width="2"/>
    <path d="M74.0689 215.537C84.6549 238.635 69.044 228.897 76.9369 215.516" fill="none" stroke="rgb(0, 0, 0)" stroke-linecap="round" stroke-linejoin="round" stroke-opacity="1.0" stroke-width="2"/>
    <path d="M54.5689 230.602C51.9027 230.602 51.9017 220.689 54.5689 218.602" fill="none" stroke="rgb(0, 0, 0)" stroke-linecap="round" stroke-linejoin="round" stroke-opacity="1.0" stroke-width="2"/>
    <path d="M55.5689 230.102C58.2351 230.102 58.2361 220.602 55.5689 218.602" fill="none" stroke="rgb(0, 0, 0)" stroke-linecap="round" stroke-linejoin="round" stroke-opacity="1.0" stroke-width="2"/>
    <path d="M69.5689 123C84.0689 107.5 65.5689 106 76.0689 92" fill="none" stroke="rgb(0, 0, 0)" stroke-linecap="round" stroke-linejoin="round" stroke-opacity="1.0" stroke-width="2"/>
    <path d="M49.5689 195.602C50.126 203.847 51.8658 211.044 52.5689 216.602" fill="none" stroke="rgb(0, 0, 0)" stroke-linecap="round" stroke-linejoin="round" stroke-opacity="1.0" stroke-width="1.5"/>
    <path d="M66.5689 167.602C67.126 175.847 68.8658 183.044 69.5689 188.602" fill="none" stroke="rgb(0, 0, 0)" stroke-linecap="round" stroke-linejoin="round" stroke-opacity="1.0" stroke-width="1.5"/>
    <path d="M57.5689 195C57.3832 204.03 56.8033 211.912 56.5689 218" fill="none" stroke="rgb(0, 0, 0)" stroke-linecap="round" stroke-linejoin="round" stroke-opacity="1.0" stroke-width="1.5"/>
    <path d="M72.5689 91C64.4933 98.4287 75.6471 111.429 67.5689 117" fill="none" stroke="rgb(0, 0, 0)" stroke-linecap="round" stroke-linejoin="round" stroke-opacity="1.0" stroke-width="1.5"/>
    <path d="M70.5689 124.602C71.126 132.847 72.8658 140.044 73.5689 145.602" fill="none" stroke="rgb(0, 0, 0)" stroke-linecap="round" stroke-linejoin="round" stroke-opacity="1.0" stroke-width="1.5"/>
  </g>
</svg>
