<svg height="256" version="1.1" width="256" xmlns="http://www.w3.org/2000/svg">
  <defs/>
  <g>
    <path d="M145.268 191.565C132.788 183.612 117.534 186.26 110.947 191.565" fill="none" stroke="rgb(0, 0, 0)" stroke-linecap="round" stroke-linejoin="round" stroke-opacity="1.0" stroke-width="2"/>
    <path d="M119.614 216.212C115.8 209.01 115.454 204.083 111.987 194.61" fill="none" stroke="rgb(0, 0, 0)" stroke-linecap="round" stroke-linejoin="round" stroke-opacity="1.0" stroke-width="2"/>
    <path d="M126.894 220C124.467 212.672 124.247 207.659 122.041 198.02" fill="none" stroke="rgb(0, 0, 0)" stroke-linecap="round" stroke-linejoin="round" stroke-opacity="1.0" stroke-width="2"/>
    <path d="M130.845 194.545C115.686 172.069 139.277 139.729 130.845 116.146" fill="none" stroke="rgb(0, 0, 0)" stroke-linecap="round" stroke-linejoin="round" stroke-opacity="1.0" stroke-width="2"/>
    <path d="M126.603 171.009C77.5747 140.659 118.101 181.935 111.57 152.192" fill="none" stroke="rgb(0, 0, 0)" stroke-linecap="round" stroke-linejoin="round" stroke-opacity="1.0" stroke-width="2"/>
    <path d="M127.722 161.6C175.251 118.739 140.023 169.441 140.023 137.556" fill="none" stroke="rgb(0, 0, 0)" stroke-linecap="round" stroke-linejoin="round" stroke-opacity="1.0" stroke-width="2"/>
    <path d="M131.286 115.181C131.286 137.884 159.587 122.244 136.28 111.145" fill="none" stroke="rgb(0, 0, 0)" stroke-linecap="round" stroke-linejoin="round" stroke-opacity="1.0" stroke-width="2"/>
    <path d="M131.286 118.491C131.286 137.789 108.292 124.495 127.228 115.06" fill="none" stroke="rgb(0, 0, 0)" stroke-linecap="round" stroke-linejoin="round" stroke-opacity="1.0" stroke-width="2"/>
    <path d="M128.624 101.627C128.624 78.9234 156.924 94.5633 133.618 105.663" fill="none" stroke="rgb(0, 0, 0)" stroke-linecap="round" stroke-linejoin="round" stroke-opacity="1.0" stroke-width="2"/>
    <path d="M129.511 103.596C129.511 83.1635 101.211 97.2394 124.517 107.229" fill="none" stroke="rgb(0, 0, 0)" stroke-linecap="round" stroke-linejoin="round" stroke-opacity="1.0" stroke-width="2"/>
    <path d="M137.051 109.972C154.689 121.648 161.789 91.8887 133.838 105.201" fill="none" stroke="rgb(0, 0, 0)" stroke-linecap="round" stroke-linejoin="round" stroke-opacity="1.0" stroke-width="2"/>
    <path d="M127.048 109.496C109.41 97.8205 102.311 127.58 130.262 114.267" fill="none" stroke="rgb(0, 0, 0)" stroke-linecap="round" stroke-linejoin="round" stroke-opacity="1.0" stroke-width="2"/>
    <path d="M125.961 109.303C128.966 117.635 136.611 113.99 136.611 109.303" fill="none" stroke="rgb(0, 0, 0)" stroke-linecap="round" stroke-linejoin="round" stroke-opacity="1.0" stroke-width="2"/>
    <path d="M136.611 109.07C133.606 100.739 125.961 104.384 125.961 109.07" fill="none" stroke="rgb(0, 0, 0)" stroke-linecap="round" stroke-linejoin="round" stroke-opacity="1.0" stroke-width="2"/>
    <path d="M132.441 220C134.868 212.167 135.088 206.808 137.294 196.504" fill="none" stroke="rgb(0, 0, 0)" stroke-linecap="round" stroke-linejoin="round" stroke-opacity="1.0" stroke-width="2"/>
    <path d="M138.681 216.21C142.148 208.63 142.463 203.444 145.615 193.472" fill="none" stroke="rgb(0, 0, 0)" stroke-linecap="round" stroke-linejoin="round" stroke-opacity="1.0" stroke-width="2"/>
    <path d="M145.615 193.472C134.868 198.399 118.574 199.915 110.947 193.472" fill="none" stroke="rgb(0, 0, 0)" stroke-linecap="round" stroke-linejoin="round" stroke-opacity="1.0" stroke-width="2"/>
    <path d="M139.028 216.21C131.401 221.137 123.427 220.379 118.574 216.21" fill="none" stroke="rgb(0, 0, 0)" stroke-linecap="round" stroke-linejoin="round" stroke-opacity="1.0" stroke-width="2"/>
    <path d="M65.6878 160.895C63.7552 142.698 74.0732 144.573 79.6634 145.057" fill="none" stroke="rgb(0, 0, 0)" stroke-linecap="round" stroke-linejoin="round" stroke-opacity="1.0" stroke-width="2"/>
    <path d="M71.0518 165C60.685 159.404 63.4047 163.547 68.3805 164.579" fill="none" stroke="rgb(0, 0, 0)" stroke-linecap="round" stroke-linejoin="round" stroke-opacity="1.0" stroke-width="2"/>
    <path d="M91.5794 150.069C77.771 146.604 73.025 141.361 92.5933 147.913" fill="none" stroke="rgb(0, 0, 0)" stroke-linecap="round" stroke-linejoin="round" stroke-opacity="1.0" stroke-width="2"/>
    <path d="M50.9688 144.386C60.231 145.927 72.5929 149.749 53.1234 154.666" fill="none" stroke="rgb(0, 0, 0)" stroke-linecap="round" stroke-linejoin="round" stroke-opacity="1.0" stroke-width="2"/>
    <path d="M65.6303 149.45C29.238 114.991 60.8127 130.504 71.0449 160.9" fill="none" stroke="rgb(0, 0, 0)" stroke-linecap="round" stroke-linejoin="round" stroke-opacity="1.0" stroke-width="2"/>
    <path d="M70.6656 154.04C65.6086 143.028 59.7691 153.368 66.5119 150.141" fill="none" stroke="rgb(0, 0, 0)" stroke-linecap="round" stroke-linejoin="round" stroke-opacity="1.0" stroke-width="2"/>
    <path d="M55.6623 132.221C67.989 143.587 67.3261 162.688 68.2646 144.784" fill="none" stroke="rgb(0, 0, 0)" stroke-linecap="round" stroke-linejoin="round" stroke-opacity="1.0" stroke-width="2"/>
    <path d="M93 148.602C78.1594 164.718 82.5342 152.411 72.4456 164.26" fill="none" stroke="rgb(0, 0, 0)" stroke-linecap="round" stroke-linejoin="round" stroke-opacity="1.0" stroke-width="2"/>
    <path d="M75.2339 137.232C60.2211 145.801 73.2765 140.854 62.6536 152.354" fill="none" stroke="rgb(0, 0, 0)" stroke-linecap="round" stroke-linejoin="round" stroke-opacity="1.0" stroke-width="2"/>
    <path d="M48.569 148.553C48.392 163.855 69.9258 135.785 60.5231 156.966" fill="none" stroke="rgb(0, 0, 0)" stroke-linecap="round" stroke-linejoin="round" stroke-opacity="1.0" stroke-width="2"/>
    <path d="M67.5055 145.995C60.5588 147.006 71.068 144.121 65.1185 144.853" fill="none" stroke="rgb(0, 0, 0)" stroke-linecap="round" stroke-linejoin="round" stroke-opacity="1.0" stroke-width="2"/>
    <path d="M48 149.511C49.8629 146.013 45.4885 148.134 50.6148 142.518" fill="none" stroke="rgb(0, 0, 0)" stroke-linecap="round" stroke-linejoin="round" stroke-opacity="1.0" stroke-width="2"/>
    <path d="M61.4006 157.758C65.8677 170.822 82.5044 157.041 70.5861 164.521" fill="none" stroke="rgb(0, 0, 0)" stroke-linecap="round" stroke-linejoin="round" stroke-opacity="1.0" stroke-width="2"/>
    <path d="M49.8231 136.561C44.5964 118.917 57.5136 127.512 66.3302 147.538" fill="none" stroke="rgb(0, 0, 0)" stroke-linecap="round" stroke-linejoin="round" stroke-opacity="1.0" stroke-width="2"/>
    <path d="M52.18 127.799C44.4305 144.684 52.3458 138.712 49.5852 142.78" fill="none" stroke="rgb(0, 0, 0)" stroke-linecap="round" stroke-linejoin="round" stroke-opacity="1.0" stroke-width="2"/>
    <path d="M199.312 85.8955C201.245 67.6975 190.927 69.5726 185.337 70.0572" fill="none" stroke="rgb(0, 0, 0)" stroke-linecap="round" stroke-linejoin="round" stroke-opacity="1.0" stroke-width="2"/>
    <path d="M193.948 90C204.315 84.4038 201.595 88.5467 196.62 89.5793" fill="none" stroke="rgb(0, 0, 0)" stroke-linecap="round" stroke-linejoin="round" stroke-opacity="1.0" stroke-width="2"/>
    <path d="M173.421 75.0691C187.229 71.6039 191.975 66.3606 172.407 72.9132" fill="none" stroke="rgb(0, 0, 0)" stroke-linecap="round" stroke-linejoin="round" stroke-opacity="1.0" stroke-width="2"/>
    <path d="M214.031 69.3861C204.769 70.9274 192.407 74.7494 211.877 79.6664" fill="none" stroke="rgb(0, 0, 0)" stroke-linecap="round" stroke-linejoin="round" stroke-opacity="1.0" stroke-width="2"/>
    <path d="M199.37 74.4498C235.762 39.9915 204.187 55.5041 193.955 85.8999" fill="none" stroke="rgb(0, 0, 0)" stroke-linecap="round" stroke-linejoin="round" stroke-opacity="1.0" stroke-width="2"/>
    <path d="M194.334 79.0401C199.391 68.0275 205.231 78.3679 198.488 75.1405" fill="none" stroke="rgb(0, 0, 0)" stroke-linecap="round" stroke-linejoin="round" stroke-opacity="1.0" stroke-width="2"/>
    <path d="M209.338 57.2208C197.011 68.5868 197.674 87.6882 196.735 69.7838" fill="none" stroke="rgb(0, 0, 0)" stroke-linecap="round" stroke-linejoin="round" stroke-opacity="1.0" stroke-width="2"/>
    <path d="M172 73.6018C186.841 89.7184 182.466 77.4112 192.554 89.2602" fill="none" stroke="rgb(0, 0, 0)" stroke-linecap="round" stroke-linejoin="round" stroke-opacity="1.0" stroke-width="2"/>
    <path d="M189.766 62.2323C204.779 70.8007 191.723 65.8542 202.346 77.3537" fill="none" stroke="rgb(0, 0, 0)" stroke-linecap="round" stroke-linejoin="round" stroke-opacity="1.0" stroke-width="2"/>
    <path d="M216.431 73.5529C216.608 88.8548 195.074 60.7845 204.477 81.9655" fill="none" stroke="rgb(0, 0, 0)" stroke-linecap="round" stroke-linejoin="round" stroke-opacity="1.0" stroke-width="2"/>
    <path d="M197.494 70.9949C204.441 72.0065 193.932 69.121 199.881 69.8532" fill="none" stroke="rgb(0, 0, 0)" stroke-linecap="round" stroke-linejoin="round" stroke-opacity="1.0" stroke-width="2"/>
    <path d="M217 74.5106C215.137 71.0128 219.511 73.1337 214.385 67.5183" fill="none" stroke="rgb(0, 0, 0)" stroke-linecap="round" stroke-linejoin="round" stroke-opacity="1.0" stroke-width="2"/>
    <path d="M203.599 82.7575C199.132 95.8223 182.496 82.0406 194.414 89.5214" fill="none" stroke="rgb(0, 0, 0)" stroke-linecap="round" stroke-linejoin="round" stroke-opacity="1.0" stroke-width="2"/>
    <path d="M215.177 61.561C220.404 43.9168 207.486 52.512 198.67 72.5379" fill="none" stroke="rgb(0, 0, 0)" stroke-linecap="round" stroke-linejoin="round" stroke-opacity="1.0" stroke-width="2"/>
    <path d="M212.82 52.7986C220.569 69.6836 212.654 63.7123 215.415 67.7798" fill="none" stroke="rgb(0, 0, 0)" stroke-linecap="round" stroke-linejoin="round" stroke-opacity="1.0" stroke-width="2"/>
  </g>
</svg>
