<svg height="256" version="1.1" width="256" xmlns="http://www.w3.org/2000/svg">
  <defs/>
  <g>
    <path d="M119.755 194.691C105.692 184.535 88.5034 187.916 81.0812 194.691" fill="none" stroke="rgb(0, 0, 0)" stroke-linecap="round" stroke-linejoin="round" stroke-opacity="1.0" stroke-width="2"/>
    <path d="M90.8474 226.163C86.5503 216.966 86.1597 210.676 82.2532 198.579" fill="none" stroke="rgb(0, 0, 0)" stroke-linecap="round" stroke-linejoin="round" stroke-opacity="1.0" stroke-width="2"/>
    <path d="M99.051 231C96.3165 221.643 96.0679 215.241 93.5819 202.933" fill="none" stroke="rgb(0, 0, 0)" stroke-linecap="round" stroke-linejoin="round" stroke-opacity="1.0" stroke-width="2"/>
    <path d="M100.444 194.472C83.3635 165.772 123.058 125.058 100.444 94.3558" fill="none" stroke="rgb(0, 0, 0)" stroke-linecap="round" stroke-linejoin="round" stroke-opacity="1.0" stroke-width="2"/>
    <path d="M98.7233 168.442C43.4773 129.687 89.1429 182.393 81.7834 144.414" fill="none" stroke="rgb(0, 0, 0)" stroke-linecap="round" stroke-linejoin="round" stroke-opacity="1.0" stroke-width="2"/>
    <path d="M99.9834 156.428C153.54 101.698 113.845 166.439 113.845 125.726" fill="none" stroke="rgb(0, 0, 0)" stroke-linecap="round" stroke-linejoin="round" stroke-opacity="1.0" stroke-width="2"/>
    <path d="M97.233 102.365C92.8224 89.4588 109.198 102.365 116.123 81.6744" fill="none" stroke="rgb(0, 0, 0)" stroke-linecap="round" stroke-linejoin="round" stroke-opacity="1.0" stroke-width="2"/>
    <path d="M90.2952 89.6894C120.542 102.365 99.7614 111.047 107.95 79.0103" fill="none" stroke="rgb(0, 0, 0)" stroke-linecap="round" stroke-linejoin="round" stroke-opacity="1.0" stroke-width="2"/>
    <path d="M87.7799 84.3442C94.0807 102.365 101.642 104.367 101.642 75" fill="none" stroke="rgb(0, 0, 0)" stroke-linecap="round" stroke-linejoin="round" stroke-opacity="1.0" stroke-width="2"/>
    <path d="M90.3002 87.6814C96.601 105.702 104.162 107.705 104.162 78.3372" fill="none" stroke="rgb(0, 0, 0)" stroke-linecap="round" stroke-linejoin="round" stroke-opacity="1.0" stroke-width="2"/>
    <path d="M91.5604 79.6721C97.8612 97.6929 99.7514 107.705 112.353 79.6721" fill="none" stroke="rgb(0, 0, 0)" stroke-linecap="round" stroke-linejoin="round" stroke-opacity="1.0" stroke-width="2"/>
    <path d="M96.601 79.6721C102.902 97.6929 104.792 107.705 117.393 79.6721" fill="none" stroke="rgb(0, 0, 0)" stroke-linecap="round" stroke-linejoin="round" stroke-opacity="1.0" stroke-width="2"/>
    <path d="M92.8206 77.0023C99.1213 95.0232 101.012 105.035 113.613 77.0023" fill="none" stroke="rgb(0, 0, 0)" stroke-linecap="round" stroke-linejoin="round" stroke-opacity="1.0" stroke-width="2"/>
    <path d="M105.301 231C108.036 220.997 108.284 214.154 110.77 200.997" fill="none" stroke="rgb(0, 0, 0)" stroke-linecap="round" stroke-linejoin="round" stroke-opacity="1.0" stroke-width="2"/>
    <path d="M112.333 226.161C116.239 216.481 116.594 209.859 120.146 197.126" fill="none" stroke="rgb(0, 0, 0)" stroke-linecap="round" stroke-linejoin="round" stroke-opacity="1.0" stroke-width="2"/>
    <path d="M120.146 197.126C108.036 203.417 89.6754 205.352 81.0812 197.126" fill="none" stroke="rgb(0, 0, 0)" stroke-linecap="round" stroke-linejoin="round" stroke-opacity="1.0" stroke-width="2"/>
    <path d="M112.724 226.161C104.129 232.452 95.1445 231.484 89.6754 226.161" fill="none" stroke="rgb(0, 0, 0)" stroke-linecap="round" stroke-linejoin="round" stroke-opacity="1.0" stroke-width="2"/>
    <path d="M123.704 175.213C125.654 172.91 128.396 171.475 131.137 169.334" fill="none" stroke="rgb(0, 0, 0)" stroke-linecap="round" stroke-linejoin="round" stroke-opacity="1.0" stroke-width="2"/>
    <path d="M126.229 184.298C127.524 182.306 129.473 181.247 131.371 179.507" fill="none" stroke="rgb(0, 0, 0)" stroke-linecap="round" stroke-linejoin="round" stroke-opacity="1.0" stroke-width="2"/>
    <path d="M129.19 176.646C131.139 174.342 133.882 172.907 136.623 170.766" fill="none" stroke="rgb(0, 0, 0)" stroke-linecap="round" stroke-linejoin="round" stroke-opacity="1.0" stroke-width="2"/>
    <path d="M116.385 182.974C117.337 181.073 118.889 180.196 120.357 178.616" fill="none" stroke="rgb(0, 0, 0)" stroke-linecap="round" stroke-linejoin="round" stroke-opacity="1.0" stroke-width="2"/>
    <path d="M133.706 167.815C134.971 166.32 136.75 165.389 138.528 164" fill="none" stroke="rgb(0, 0, 0)" stroke-linecap="round" stroke-linejoin="round" stroke-opacity="1.0" stroke-width="2"/>
    <path d="M134.803 177.446C136.068 175.951 137.847 175.02 139.625 173.631" fill="none" stroke="rgb(0, 0, 0)" stroke-linecap="round" stroke-linejoin="round" stroke-opacity="1.0" stroke-width="2"/>
    <path d="M111.997 193C112.948 191.099 114.501 190.222 115.969 188.643" fill="none" stroke="rgb(0, 0, 0)" stroke-linecap="round" stroke-linejoin="round" stroke-opacity="1.0" stroke-width="2"/>
    <path d="M118.549 190.839C119.559 188.982 121.163 188.088 122.694 186.522" fill="none" stroke="rgb(0, 0, 0)" stroke-linecap="round" stroke-linejoin="round" stroke-opacity="1.0" stroke-width="2"/>
    <path d="M118.549 185.73C119.962 183.682 123.046 181.17 125.097 179.357" fill="none" stroke="rgb(0, 0, 0)" stroke-linecap="round" stroke-linejoin="round" stroke-opacity="1.0" stroke-width="2"/>
    <path d="M107.803 191.463C109.216 189.415 112.3 186.902 114.351 185.09" fill="none" stroke="rgb(0, 0, 0)" stroke-linecap="round" stroke-linejoin="round" stroke-opacity="1.0" stroke-width="2"/>
    <path d="M206.143 168.039C200.685 158.39 195.718 150.236 188.85 138.616" fill="none" stroke="rgb(0, 0, 0)" stroke-linecap="round" stroke-linejoin="round" stroke-opacity="1.0" stroke-width="2"/>
    <path d="M170.228 184.226C169.676 180.216 169.368 176.954 169.061 173.692" fill="none" stroke="rgb(0, 0, 0)" stroke-linecap="round" stroke-linejoin="round" stroke-opacity="1.0" stroke-width="2"/>
    <path d="M165.073 159.217C164.52 155.207 164.213 151.945 163.905 148.683" fill="none" stroke="rgb(0, 0, 0)" stroke-linecap="round" stroke-linejoin="round" stroke-opacity="1.0" stroke-width="2"/>
    <path d="M149.874 168.737C149.757 166.83 149.754 165.269 149.75 163.707" fill="none" stroke="rgb(0, 0, 0)" stroke-linecap="round" stroke-linejoin="round" stroke-opacity="1.0" stroke-width="2"/>
    <path d="M149.517 162.955C146.991 162.281 144.239 160.852 141.732 160.171" fill="none" stroke="rgb(0, 0, 0)" stroke-linecap="round" stroke-linejoin="round" stroke-opacity="1.0" stroke-width="2"/>
    <path d="M150.365 170.232C147.792 171.754 145.314 173.479 142.765 174.992" fill="none" stroke="rgb(0, 0, 0)" stroke-linecap="round" stroke-linejoin="round" stroke-opacity="1.0" stroke-width="2"/>
    <path d="M141.171 174.788C141.476 168.739 141.169 165.477 141.045 160.448" fill="none" stroke="rgb(0, 0, 0)" stroke-linecap="round" stroke-linejoin="round" stroke-opacity="1.0" stroke-width="2"/>
    <path d="M151.098 163.163C155.97 162.499 160.767 161.606 165.564 160.712" fill="none" stroke="rgb(0, 0, 0)" stroke-linecap="round" stroke-linejoin="round" stroke-opacity="1.0" stroke-width="2"/>
    <path d="M150.365 170.232C156.441 171.687 162.291 172.452 168.141 173.216" fill="none" stroke="rgb(0, 0, 0)" stroke-linecap="round" stroke-linejoin="round" stroke-opacity="1.0" stroke-width="2"/>
    <path d="M202.099 160.365C209.51 148.056 197.504 139.392 193.522 143.543" fill="none" stroke="rgb(0, 0, 0)" stroke-linecap="round" stroke-linejoin="round" stroke-opacity="1.0" stroke-width="2"/>
    <path d="M203.32 164.09C215.701 150.637 203.008 132.902 190.932 140.307" fill="none" stroke="rgb(0, 0, 0)" stroke-linecap="round" stroke-linejoin="round" stroke-opacity="1.0" stroke-width="2"/>
    <path d="M187.932 138.145C177.94 137.944 168.317 143.516 164.335 147.667" fill="none" stroke="rgb(0, 0, 0)" stroke-linecap="round" stroke-linejoin="round" stroke-opacity="1.0" stroke-width="2"/>
    <path d="M205.288 170.085C199.161 179.33 182.549 186.872 170.231 184.233" fill="none" stroke="rgb(0, 0, 0)" stroke-linecap="round" stroke-linejoin="round" stroke-opacity="1.0" stroke-width="2"/>
    <path d="M188.421 139.636C183.152 146.842 172.119 150.447 164.825 149.158" fill="none" stroke="rgb(0, 0, 0)" stroke-linecap="round" stroke-linejoin="round" stroke-opacity="1.0" stroke-width="2"/>
  </g>
</svg>
