<svg height="256" version="1.1" width="256" xmlns="http://www.w3.org/2000/svg">
  <defs/>
  <g>
    <path d="M93.1661 153.359C91.6088 141.049 95.9526 148.516 74.2335 153.361" fill="none" stroke="rgb(0, 0, 0)" stroke-linecap="round" stroke-linejoin="round" stroke-opacity="1.0" stroke-width="3"/>
    <path d="M61.9056 183.199C56.8739 179.464 45.3983 213.645 61.9103 213.029" fill="none" stroke="rgb(0, 0, 0)" stroke-linecap="round" stroke-linejoin="round" stroke-opacity="1.0" stroke-width="3"/>
    <path d="M50.3523 170.174C48.4 204.543 33.6821 218.185 45.8306 173.427" fill="none" stroke="rgb(0, 0, 0)" stroke-linecap="round" stroke-linejoin="round" stroke-opacity="1.0" stroke-width="3"/>
    <path d="M62.4031 183.423C52.5827 202.305 47.4085 194.502 54.149 201.585" fill="none" stroke="rgb(0, 0, 0)" stroke-linecap="round" stroke-linejoin="round" stroke-opacity="1.0" stroke-width="3"/>
    <path d="M58.8247 190.396C66.4401 145.696 34.6278 174.398 39.878 199.49" fill="none" stroke="rgb(0, 0, 0)" stroke-linecap="round" stroke-linejoin="round" stroke-opacity="1.0" stroke-width="3"/>
    <path d="M34.2966 175.52C5.5402 148.933 15.7772 138.361 19.4597 136.935" fill="none" stroke="rgb(0, 0, 0)" stroke-linecap="round" stroke-linejoin="round" stroke-opacity="1.0" stroke-width="3"/>
    <path d="M33.0301 174.223C66.5146 235.637 9.92717 193.831 45.8376 169.853" fill="none" stroke="rgb(0, 0, 0)" stroke-linecap="round" stroke-linejoin="round" stroke-opacity="1.0" stroke-width="3"/>
    <path d="M35.8211 176.367C31.5427 176.406 18.2014 162.347 15.2519 145.979" fill="none" stroke="rgb(0, 0, 0)" stroke-linecap="round" stroke-linejoin="round" stroke-opacity="1.0" stroke-width="3"/>
    <path d="M46.9806 219.355C36.7674 224.882 43.3855 222.356 32.7806 174.949" fill="none" stroke="rgb(0, 0, 0)" stroke-linecap="round" stroke-linejoin="round" stroke-opacity="1.0" stroke-width="3"/>
    <path d="M21.1683 160.393C14.0444 154.69 24.5316 169.323 37.5216 179.608" fill="none" stroke="rgb(0, 0, 0)" stroke-linecap="round" stroke-linejoin="round" stroke-opacity="1.0" stroke-width="3"/>
    <path d="M70.3914 169.328C62.6663 184.267 33.343 208.776 46.4489 218.147" fill="none" stroke="rgb(0, 0, 0)" stroke-linecap="round" stroke-linejoin="round" stroke-opacity="1.0" stroke-width="3"/>
    <path d="M92.7091 153.167C87.2648 156.516 83.8863 153.167 73.7488 158.119" fill="none" stroke="rgb(0, 0, 0)" stroke-linecap="round" stroke-linejoin="round" stroke-opacity="1.0" stroke-width="3"/>
    <path d="M82.68 171.251C76.4501 171.143 75.0393 166.376 64.0196 165.063" fill="none" stroke="rgb(0, 0, 0)" stroke-linecap="round" stroke-linejoin="round" stroke-opacity="1.0" stroke-width="3"/>
    <path d="M82.9891 171.669C87.2105 160.148 87.5938 169.015 66.5921 161.21" fill="none" stroke="rgb(0, 0, 0)" stroke-linecap="round" stroke-linejoin="round" stroke-opacity="1.0" stroke-width="3"/>
    <path d="M71.1951 150.063C74.3587 137.184 80.9701 121.464 59.2223 140.912" fill="none" stroke="rgb(0, 0, 0)" stroke-linecap="round" stroke-linejoin="round" stroke-opacity="1.0" stroke-width="3"/>
    <path d="M62.2949 143.243C67.1205 87.9427 88.7444 198.32 50.6603 168.798" fill="none" stroke="rgb(0, 0, 0)" stroke-linecap="round" stroke-linejoin="round" stroke-opacity="1.0" stroke-width="3"/>
    <path d="M44.1326 171.195C54.4462 139.443 68.0604 163.708 55.5311 134.093" fill="none" stroke="rgb(0, 0, 0)" stroke-linecap="round" stroke-linejoin="round" stroke-opacity="1.0" stroke-width="3"/>
    <path d="M39.8184 175.208C81.7643 127.38 39.4963 156.875 49.542 176.848" fill="none" stroke="rgb(0, 0, 0)" stroke-linecap="round" stroke-linejoin="round" stroke-opacity="1.0" stroke-width="3"/>
    <path d="M70.7612 139.437C34.0231 124.617 73.229 142.057 66.8793 124.001" fill="none" stroke="rgb(0, 0, 0)" stroke-linecap="round" stroke-linejoin="round" stroke-opacity="1.0" stroke-width="3"/>
    <path d="M220.591 160.034C220.591 152.077 225.309 152.077 242.056 152.077" fill="none" stroke="rgb(0, 0, 0)" stroke-linecap="round" stroke-linejoin="round" stroke-opacity="1.0" stroke-width="3"/>
    <path d="M243 152.077C243 160.034 238.282 160.034 221.535 160.034" fill="none" stroke="rgb(0, 0, 0)" stroke-linecap="round" stroke-linejoin="round" stroke-opacity="1.0" stroke-width="3"/>
    <path d="M238.518 160.034C238.518 183.245 237.689 183.245 234.744 183.245" fill="none" stroke="rgb(0, 0, 0)" stroke-linecap="round" stroke-linejoin="round" stroke-opacity="1.0" stroke-width="3"/>
    <path d="M233.092 160.034C235.451 188.883 229.554 183.243 239.697 183.243" fill="none" stroke="rgb(0, 0, 0)" stroke-linecap="round" stroke-linejoin="round" stroke-opacity="1.0" stroke-width="3"/>
    <path d="M223.342 160.148C225.7 188.999 219.803 183.359 229.947 183.359" fill="none" stroke="rgb(0, 0, 0)" stroke-linecap="round" stroke-linejoin="round" stroke-opacity="1.0" stroke-width="3"/>
    <path d="M228.766 160.15C228.766 183.36 227.937 183.36 224.992 183.36" fill="none" stroke="rgb(0, 0, 0)" stroke-linecap="round" stroke-linejoin="round" stroke-opacity="1.0" stroke-width="3"/>
    <path d="M211.643 174.619C195.092 191.247 198.119 181.251 204.25 177.272" fill="none" stroke="rgb(0, 0, 0)" stroke-linecap="round" stroke-linejoin="round" stroke-opacity="1.0" stroke-width="3"/>
    <path d="M202.084 175.284C198.591 180.259 184.673 180.259 208.26 180.259" fill="none" stroke="rgb(0, 0, 0)" stroke-linecap="round" stroke-linejoin="round" stroke-opacity="1.0" stroke-width="3"/>
    <path d="M208.956 181.01C201.642 136.247 215.324 153.489 223.345 139.893" fill="none" stroke="rgb(0, 0, 0)" stroke-linecap="round" stroke-linejoin="round" stroke-opacity="1.0" stroke-width="3"/>
    <path d="M204.209 175.948C196.896 131.186 210.575 148.428 218.598 134.833" fill="none" stroke="rgb(0, 0, 0)" stroke-linecap="round" stroke-linejoin="round" stroke-opacity="1.0" stroke-width="3"/>
    <path d="M204.731 122.896C222.184 122.896 215.729 106.362 222.185 95.7076" fill="none" stroke="rgb(0, 0, 0)" stroke-linecap="round" stroke-linejoin="round" stroke-opacity="1.0" stroke-width="3"/>
    <path d="M199.542 122.233C220.296 122.233 212.621 104.086 220.299 92.3911" fill="none" stroke="rgb(0, 0, 0)" stroke-linecap="round" stroke-linejoin="round" stroke-opacity="1.0" stroke-width="3"/>
    <path d="M209.92 126.211C227.139 126.211 220.77 111.29 227.14 101.676" fill="none" stroke="rgb(0, 0, 0)" stroke-linecap="round" stroke-linejoin="round" stroke-opacity="1.0" stroke-width="3"/>
    <path d="M212.437 176.969C202.837 144.016 237.027 159.053 233.685 140.496" fill="none" stroke="rgb(0, 0, 0)" stroke-linecap="round" stroke-linejoin="round" stroke-opacity="1.0" stroke-width="3"/>
    <path d="M217.108 78.2379C205.915 65.3879 248.268 74.3395 211.901 74.6636" fill="none" stroke="rgb(0, 0, 0)" stroke-linecap="round" stroke-linejoin="round" stroke-opacity="1.0" stroke-width="3"/>
    <path d="M218.874 82.2496C215.808 82.2496 218.403 89.5434 222.648 82.2491" fill="none" stroke="rgb(0, 0, 0)" stroke-linecap="round" stroke-linejoin="round" stroke-opacity="1.0" stroke-width="3"/>
    <path d="M222.984 81.4274C233.553 65.0477 204.064 57.1421 220.614 92.4175" fill="none" stroke="rgb(0, 0, 0)" stroke-linecap="round" stroke-linejoin="round" stroke-opacity="1.0" stroke-width="3"/>
    <path d="M217.458 136.958C221.468 136.958 222.175 131.988 231.613 136.958" fill="none" stroke="rgb(0, 0, 0)" stroke-linecap="round" stroke-linejoin="round" stroke-opacity="1.0" stroke-width="3"/>
    <path d="M233.6 145.214C230.117 118.105 232.489 135.776 228.827 104.27" fill="none" stroke="rgb(0, 0, 0)" stroke-linecap="round" stroke-linejoin="round" stroke-opacity="1.0" stroke-width="3"/>
    <path d="M223.847 82.5293C222.69 91.7473 232.564 100.135 230.932 136.809" fill="none" stroke="rgb(0, 0, 0)" stroke-linecap="round" stroke-linejoin="round" stroke-opacity="1.0" stroke-width="3"/>
    <path d="M218.165 134.306C215.808 75.9471 228.103 81.8364 230.67 122.032" fill="none" stroke="rgb(0, 0, 0)" stroke-linecap="round" stroke-linejoin="round" stroke-opacity="1.0" stroke-width="3"/>
    <path d="M194.917 122.325C194.917 96.4627 197.956 107.076 120.758 102.431" fill="none" stroke="rgb(0, 0, 0)" stroke-linecap="round" stroke-linejoin="round" stroke-opacity="1.0" stroke-width="3"/>
    <path d="M207.277 135.588C112.451 127.962 120.15 145.204 120.15 104.089" fill="none" stroke="rgb(0, 0, 0)" stroke-linecap="round" stroke-linejoin="round" stroke-opacity="1.0" stroke-width="3"/>
    <path d="M167.35 59.3263C158.387 83.1999 109.087 86.1843 130.553 101.767" fill="none" stroke="rgb(0, 0, 0)" stroke-linecap="round" stroke-linejoin="round" stroke-opacity="1.0" stroke-width="3"/>
    <path d="M174.635 101.104C192.961 53.1537 207.873 58.1485 167.179 58.1485" fill="none" stroke="rgb(0, 0, 0)" stroke-linecap="round" stroke-linejoin="round" stroke-opacity="1.0" stroke-width="3"/>
    <path d="M208.609 135.409C208.609 130.434 208.609 123.472 193.041 123.472" fill="none" stroke="rgb(0, 0, 0)" stroke-linecap="round" stroke-linejoin="round" stroke-opacity="1.0" stroke-width="3"/>
    <path d="M187.462 136.253C189.821 194.483 183.925 183.101 194.068 183.101" fill="none" stroke="rgb(0, 0, 0)" stroke-linecap="round" stroke-linejoin="round" stroke-opacity="1.0" stroke-width="3"/>
    <path d="M193.346 136.821C193.346 183.669 192.517 183.669 189.572 183.669" fill="none" stroke="rgb(0, 0, 0)" stroke-linecap="round" stroke-linejoin="round" stroke-opacity="1.0" stroke-width="3"/>
    <path d="M180.857 135.591C183.217 193.82 177.319 182.438 187.462 182.438" fill="none" stroke="rgb(0, 0, 0)" stroke-linecap="round" stroke-linejoin="round" stroke-opacity="1.0" stroke-width="3"/>
    <path d="M186.283 135.592C186.283 182.439 185.454 182.439 182.508 182.439" fill="none" stroke="rgb(0, 0, 0)" stroke-linecap="round" stroke-linejoin="round" stroke-opacity="1.0" stroke-width="3"/>
    <path d="M135.569 132.939C137.927 191.168 132.03 179.786 142.174 179.786" fill="none" stroke="rgb(0, 0, 0)" stroke-linecap="round" stroke-linejoin="round" stroke-opacity="1.0" stroke-width="3"/>
    <path d="M140.994 132.939C140.994 179.787 140.164 179.787 137.22 179.787" fill="none" stroke="rgb(0, 0, 0)" stroke-linecap="round" stroke-linejoin="round" stroke-opacity="1.0" stroke-width="3"/>
  </g>
</svg>
