<svg height="256" version="1.1" width="256" xmlns="http://www.w3.org/2000/svg">
  <defs/>
  <g>
    <path d="M72 69C73.7436 217.277 73.3795 198.397 73.8293 240" fill="none" stroke="rgb(0, 0, 0)" stroke-linecap="round" stroke-linejoin="round" stroke-opacity="1.0" stroke-width="2"/>
    <path d="M188.171 69C189.914 217.277 189.55 198.397 190 240" fill="none" stroke="rgb(0, 0, 0)" stroke-linecap="round" stroke-linejoin="round" stroke-opacity="1.0" stroke-width="2"/>
    <path d="M188.156 106.819C77.4573 108.485 100.578 108.273 72 108.74" fill="none" stroke="rgb(0, 0, 0)" stroke-linecap="round" stroke-linejoin="round" stroke-opacity="1.0" stroke-width="2"/>
    <path d="M132.053 143.816C130.093 171.795 137.801 164.32 128.444 126.863" fill="none" stroke="rgb(0, 0, 0)" stroke-linecap="round" stroke-linejoin="round" stroke-opacity="1.0" stroke-width="2"/>
    <path d="M131.346 150.147C144.752 138.702 132.195 117.669 137.852 157.729" fill="none" stroke="rgb(0, 0, 0)" stroke-linecap="round" stroke-linejoin="round" stroke-opacity="1.0" stroke-width="2"/>
    <path d="M137.747 158.344C126.537 127.286 121.938 106.999 134.474 160.601" fill="none" stroke="rgb(0, 0, 0)" stroke-linecap="round" stroke-linejoin="round" stroke-opacity="1.0" stroke-width="2"/>
    <path d="M133.5 128.719C132.916 104.572 124.224 133.496 133.091 118.485" fill="none" stroke="rgb(0, 0, 0)" stroke-linecap="round" stroke-linejoin="round" stroke-opacity="1.0" stroke-width="2"/>
    <path d="M132.986 126.379C136.126 176.712 135.655 168.478 129.937 126.253" fill="none" stroke="rgb(0, 0, 0)" stroke-linecap="round" stroke-linejoin="round" stroke-opacity="1.0" stroke-width="2"/>
    <path d="M140.212 158.404C140.351 115.728 114.489 123.901 138.521 152.498" fill="none" stroke="rgb(0, 0, 0)" stroke-linecap="round" stroke-linejoin="round" stroke-opacity="1.0" stroke-width="2"/>
    <path d="M142.962 183.205C142.266 142.686 126.492 150.285 148 184" fill="none" stroke="rgb(0, 0, 0)" stroke-linecap="round" stroke-linejoin="round" stroke-opacity="1.0" stroke-width="2"/>
    <path d="M126.831 181.79C127.528 141.272 143.302 148.87 121.795 182.585" fill="none" stroke="rgb(0, 0, 0)" stroke-linecap="round" stroke-linejoin="round" stroke-opacity="1.0" stroke-width="2"/>
    <path d="M125.998 132.842C137.647 111.776 137.205 141.453 139.054 133.618" fill="none" stroke="rgb(0, 0, 0)" stroke-linecap="round" stroke-linejoin="round" stroke-opacity="1.0" stroke-width="2"/>
    <path d="M126.132 134.159C131.275 156.276 129.87 153.34 131.106 159.514" fill="none" stroke="rgb(0, 0, 0)" stroke-linecap="round" stroke-linejoin="round" stroke-opacity="1.0" stroke-width="2"/>
    <path d="M129.7 122.886C139.453 124.845 137.256 114.679 128.19 116.432" fill="none" stroke="rgb(0, 0, 0)" stroke-linecap="round" stroke-linejoin="round" stroke-opacity="1.0" stroke-width="2"/>
    <path d="M134.629 121.551C126.597 126.95 124.054 116.851 133.12 115.098" fill="none" stroke="rgb(0, 0, 0)" stroke-linecap="round" stroke-linejoin="round" stroke-opacity="1.0" stroke-width="2"/>
    <path d="M126.991 129.091C111.561 122.853 113.684 117.856 124.863 130.964" fill="none" stroke="rgb(0, 0, 0)" stroke-linecap="round" stroke-linejoin="round" stroke-opacity="1.0" stroke-width="2"/>
    <path d="M114 110.575C116.723 122.485 116.348 132.024 114.376 107" fill="none" stroke="rgb(0, 0, 0)" stroke-linecap="round" stroke-linejoin="round" stroke-opacity="1.0" stroke-width="2"/>
    <path d="M147.777 110.575C145.054 122.485 145.429 132.024 147.401 107" fill="none" stroke="rgb(0, 0, 0)" stroke-linecap="round" stroke-linejoin="round" stroke-opacity="1.0" stroke-width="2"/>
    <path d="M135.435 129.84C150.866 123.601 148.742 118.604 137.564 131.712" fill="none" stroke="rgb(0, 0, 0)" stroke-linecap="round" stroke-linejoin="round" stroke-opacity="1.0" stroke-width="2"/>
  </g>
</svg>
