<?xml version="1.0" ?>
<svg xmlns="http://www.w3.org/2000/svg" version="1.1" width="256" height="256">
  <defs/>
  <g>
    <path d="M 145.23899841308594 126.9530029296875 C 131.58099365234375 148.11399841308594 137.3719940185547 148.85899353027344 108.72000122070312 137.48699951171875" stroke-width="2.0" fill="none" stroke="rgb(0, 0, 255)" stroke-opacity="1" stroke-linecap="round" stroke-linejoin="round"/>
    <path d="M 78.90619659423828 158.41400146484375 C 43.904998779296875 141.56700134277344 74.239501953125 134.447998046875 83.44860076904297 157.5469970703125" stroke-width="2.0" fill="none" stroke="rgb(255, 0, 0)" stroke-opacity="1" stroke-linecap="round" stroke-linejoin="round"/>
    <path d="M 131.3209991455078 162.77099609375 C 134.04200744628906 122.73600006103516 137.73199462890625 108.60399627685547 119.04399871826172 140.89199829101562" stroke-width="2.0" fill="none" stroke="rgb(0, 0, 255)" stroke-opacity="1" stroke-linecap="round" stroke-linejoin="round"/>
    <path d="M 200.8070068359375 113.05400085449219 C 231.47300720214844 121.9739990234375 198.74600219726562 144.9929962158203 212.1300048828125 120.3740005493164" stroke-width="2.0" fill="none" stroke="rgb(0, 255, 0)" stroke-opacity="1" stroke-linecap="round" stroke-linejoin="round"/>
    <path d="M 195.5850067138672 102.23899841308594 C 205.01400756835938 98.58560180664062 177.97900390625 106.13600158691406 188.531005859375 103.46299743652344" stroke-width="2.0" fill="none" stroke="rgb(0, 255, 0)" stroke-opacity="1" stroke-linecap="round" stroke-linejoin="round"/>
    <path d="M 181.38699340820312 127.47599792480469 C 181.66600036621094 139.60499572753906 137.3699951171875 140.37100219726562 183.947998046875 134.3179931640625" stroke-width="2.0" fill="none" stroke="rgb(0, 255, 0)" stroke-opacity="1" stroke-linecap="round" stroke-linejoin="round"/>
    <path d="M 74.66179656982422 108.9729995727539 C 62.71110153198242 112.20099639892578 74.18949890136719 126.90699768066406 68.9374008178711 112.427001953125" stroke-width="2.0" fill="none" stroke="rgb(255, 0, 0)" stroke-opacity="1" stroke-linecap="round" stroke-linejoin="round"/>
    <path d="M 172.54200744628906 175.04200744628906 C 173.5019989013672 172.1320037841797 147.197998046875 193.427001953125 127.6050033569336 187.1739959716797" stroke-width="2.0" fill="none" stroke="rgb(255, 255, 0)" stroke-opacity="1" stroke-linecap="round" stroke-linejoin="round"/>
    <path d="M 131.47999572753906 188.3209991455078 C 141.09500122070312 191.13099670410156 170.75799560546875 176.6999969482422 147.54800415039062 187.47000122070312" stroke-width="2.0" fill="none" stroke="rgb(255, 255, 0)" stroke-opacity="1" stroke-linecap="round" stroke-linejoin="round"/>
    <path d="M 199.63699340820312 106.75499725341797 C 189.11099243164062 91.67500305175781 177.5229949951172 106.11299896240234 184.6490020751953 112.64600372314453" stroke-width="2.0" fill="none" stroke="rgb(0, 255, 0)" stroke-opacity="1" stroke-linecap="round" stroke-linejoin="round"/>
    <path d="M 61.23540115356445 112.29399871826172 C 49.162200927734375 110.90299987792969 80.22589874267578 104.96199798583984 61.59270095825195 114.43800354003906" stroke-width="2.0" fill="none" stroke="rgb(255, 0, 0)" stroke-opacity="1" stroke-linecap="round" stroke-linejoin="round"/>
    <path d="M 145.73800659179688 138.4550018310547 C 143.3990020751953 141.0919952392578 115.05999755859375 131.3560028076172 123.95500183105469 137.35899353027344" stroke-width="2.0" fill="none" stroke="rgb(0, 0, 255)" stroke-opacity="1" stroke-linecap="round" stroke-linejoin="round"/>
    <path d="M 143.62899780273438 82.70989990234375 C 126.36199951171875 77.64019775390625 146.85499572753906 73.12139892578125 138.49400329589844 86.67790222167969" stroke-width="2.0" fill="none" stroke="rgb(0, 0, 255)" stroke-opacity="1" stroke-linecap="round" stroke-linejoin="round"/>
    <path d="M 65.87409973144531 180.3209991455078 C 77.88639831542969 165.1060028076172 50.41849899291992 128.47900390625 51.07310104370117 171.8509979248047" stroke-width="2.0" fill="none" stroke="rgb(255, 0, 0)" stroke-opacity="1" stroke-linecap="round" stroke-linejoin="round"/>
    <path d="M 131.18899536132812 189.24000549316406 C 146.93899536132812 188.3679962158203 154.48800659179688 184.5050048828125 149.71800231933594 186.11000061035156" stroke-width="2.0" fill="none" stroke="rgb(255, 255, 0)" stroke-opacity="1" stroke-linecap="round" stroke-linejoin="round"/>
    <path d="M 170.50100708007812 173.76400756835938 C 186.48699951171875 163.61000061035156 191.06399536132812 143.22999572753906 163.26100158691406 137.0919952392578" stroke-width="2.0" fill="none" stroke="rgb(0, 255, 0)" stroke-opacity="1" stroke-linecap="round" stroke-linejoin="round"/>
    <path d="M 57.5182991027832 113.3270034790039 C 63.927101135253906 98.58560180664062 88.14939880371094 102.71800231933594 71.20549774169922 124.73500061035156" stroke-width="2.0" fill="none" stroke="rgb(255, 0, 0)" stroke-opacity="1" stroke-linecap="round" stroke-linejoin="round"/>
    <path d="M 42.286800384521484 152.6840057373047 C 39.400001525878906 167.77000427246094 23.85140037536621 179.2239990234375 68.94059753417969 173.14999389648438" stroke-width="2.0" fill="none" stroke="rgb(255, 0, 0)" stroke-opacity="1" stroke-linecap="round" stroke-linejoin="round"/>
    <path d="M 133.63400268554688 137.73899841308594 C 154.26300048828125 134.01800537109375 110.80599975585938 144.20899963378906 147.17799377441406 134.34800720214844" stroke-width="2.0" fill="none" stroke="rgb(0, 0, 255)" stroke-opacity="1" stroke-linecap="round" stroke-linejoin="round"/>
    <path d="M 139.5800018310547 77.27870178222656 C 116.06300354003906 72.67420196533203 125.2750015258789 96.02729797363281 133.14999389648438 99.96240234375" stroke-width="2.0" fill="none" stroke="rgb(0, 0, 255)" stroke-opacity="1" stroke-linecap="round" stroke-linejoin="round"/>
    <path d="M 66.19740295410156 191.49099731445312 C 73.42960357666016 172.8800048828125 76.5342025756836 222.6219940185547 62.569400787353516 173.80299377441406" stroke-width="2.0" fill="none" stroke="rgb(255, 0, 0)" stroke-opacity="1" stroke-linecap="round" stroke-linejoin="round"/>
    <path d="M 214.50100708007812 140.50399780273438 C 202.94200134277344 108.10299682617188 197.83200073242188 140.21600341796875 204.9080047607422 106.8949966430664" stroke-width="2.0" fill="none" stroke="rgb(0, 255, 0)" stroke-opacity="1" stroke-linecap="round" stroke-linejoin="round"/>
    <path d="M 100.7040023803711 103.15699768066406 C 139.09800720214844 98.33070373535156 103.79299926757812 106.94300079345703 126.87200164794922 135.02999877929688" stroke-width="2.0" fill="none" stroke="rgb(0, 0, 255)" stroke-opacity="1" stroke-linecap="round" stroke-linejoin="round"/>
    <path d="M 210.75900268554688 147.927001953125 C 226.302001953125 195.7259979248047 196.1320037841797 132.86599731445312 219.50100708007812 177.97300720214844" stroke-width="2.0" fill="none" stroke="rgb(0, 255, 0)" stroke-opacity="1" stroke-linecap="round" stroke-linejoin="round"/>
    <path d="M 198.34800720214844 98.1438980102539 C 189.89300537109375 92.13980102539062 186.97300720214844 108.08899688720703 193.5030059814453 99.8042984008789" stroke-width="2.0" fill="none" stroke="rgb(0, 255, 0)" stroke-opacity="1" stroke-linecap="round" stroke-linejoin="round"/>
    <path d="M 115.802001953125 151.8000030517578 C 138.0570068359375 109.60399627685547 146.572998046875 140.74899291992188 140.8070068359375 107.20500183105469" stroke-width="2.0" fill="none" stroke="rgb(0, 0, 255)" stroke-opacity="1" stroke-linecap="round" stroke-linejoin="round"/>
    <path d="M 44.34230041503906 139.5290069580078 C 30.217599868774414 160.91900634765625 64.50060272216797 148.96299743652344 72.68080139160156 155.70700073242188" stroke-width="2.0" fill="none" stroke="rgb(255, 0, 0)" stroke-opacity="1" stroke-linecap="round" stroke-linejoin="round"/>
    <path d="M 213.1230010986328 138.43699645996094 C 200.83599853515625 119.69200134277344 224.906005859375 122.30799865722656 204.5070037841797 125.52999877929688" stroke-width="2.0" fill="none" stroke="rgb(0, 255, 0)" stroke-opacity="1" stroke-linecap="round" stroke-linejoin="round"/>
    <path d="M 215.85899353027344 139.14300537109375 C 200.03199768066406 142.77000427246094 199.14100646972656 123.76300048828125 215.1280059814453 139.3990020751953" stroke-width="2.0" fill="none" stroke="rgb(0, 255, 0)" stroke-opacity="1" stroke-linecap="round" stroke-linejoin="round"/>
    <path d="M 47.815799713134766 132.406005859375 C 74.95159912109375 103.40799713134766 64.2979965209961 116.822998046875 59.24359893798828 116.11399841308594" stroke-width="2.0" fill="none" stroke="rgb(255, 0, 0)" stroke-opacity="1" stroke-linecap="round" stroke-linejoin="round"/>
    <path d="M 189.2899932861328 101.61799621582031 C 193.40699768066406 113.7760009765625 184.2729949951172 87.03520202636719 192.56399536132812 108.84200286865234" stroke-width="2.0" fill="none" stroke="rgb(0, 255, 0)" stroke-opacity="1" stroke-linecap="round" stroke-linejoin="round"/>
    <path d="M 65.70690155029297 111.74299621582031 C 65.02660369873047 128.6840057373047 61.00199890136719 97.81819915771484 70.08480072021484 113.9260025024414" stroke-width="2.0" fill="none" stroke="rgb(255, 0, 0)" stroke-opacity="1" stroke-linecap="round" stroke-linejoin="round"/>
    <path d="M 180.39999389648438 152.5030059814453 C 204.11599731445312 168.39500427246094 241.30599975585938 153.8560028076172 194.9669952392578 162.5070037841797" stroke-width="2.0" fill="none" stroke="rgb(0, 255, 0)" stroke-opacity="1" stroke-linecap="round" stroke-linejoin="round"/>
    <path d="M 181.98199462890625 150.41200256347656 C 199.7830047607422 120.2770004272461 180.73500061035156 124.12899780273438 186.80099487304688 133.10499572753906" stroke-width="2.0" fill="none" stroke="rgb(0, 255, 0)" stroke-opacity="1" stroke-linecap="round" stroke-linejoin="round"/>
    <path d="M 212.0330047607422 140.8350067138672 C 210.23899841308594 138.11700439453125 209.2220001220703 126.5510025024414 206.6959991455078 131.156005859375" stroke-width="2.0" fill="none" stroke="rgb(0, 255, 0)" stroke-opacity="1" stroke-linecap="round" stroke-linejoin="round"/>
    <path d="M 144.218994140625 101.49800109863281 C 108.49299621582031 90.66310119628906 120.1709976196289 76.54039764404297 141.46800231933594 80.6675033569336" stroke-width="2.0" fill="none" stroke="rgb(0, 0, 255)" stroke-opacity="1" stroke-linecap="round" stroke-linejoin="round"/>
    <path d="M 200.80299377441406 103.91100311279297 C 197.36300659179688 110.62699890136719 195.7030029296875 96.24169921875 184.4080047607422 103.48300170898438" stroke-width="2.0" fill="none" stroke="rgb(0, 255, 0)" stroke-opacity="1" stroke-linecap="round" stroke-linejoin="round"/>
    <path d="M 197.58799743652344 106.12300109863281 C 183.96600341796875 91.31919860839844 186.13600158691406 124.69499969482422 187.21200561523438 106.06300354003906" stroke-width="2.0" fill="none" stroke="rgb(0, 255, 0)" stroke-opacity="1" stroke-linecap="round" stroke-linejoin="round"/>
    <path d="M 223.6719970703125 139.41799926757812 C 217.08900451660156 137.03700256347656 204.13600158691406 154.78700256347656 186.8769989013672 143.6699981689453" stroke-width="2.0" fill="none" stroke="rgb(0, 255, 0)" stroke-opacity="1" stroke-linecap="round" stroke-linejoin="round"/>
    <path d="M 70.6405029296875 111.73999786376953 C 61.941001892089844 106.34100341796875 88.53070068359375 104.08100128173828 60.22119903564453 114.48200225830078" stroke-width="2.0" fill="none" stroke="rgb(255, 0, 0)" stroke-opacity="1" stroke-linecap="round" stroke-linejoin="round"/>
    <path d="M 140.86399841308594 77.53140258789062 C 122.9000015258789 82.9113998413086 117.30599975585938 98.35440063476562 131.6959991455078 75.63849639892578" stroke-width="2.0" fill="none" stroke="rgb(0, 0, 255)" stroke-opacity="1" stroke-linecap="round" stroke-linejoin="round"/>
    <path d="M 70.81449890136719 150.93299865722656 C 71.3915023803711 144.7830047607422 76.03569793701172 138.26400756835938 62.19200134277344 128.88999938964844" stroke-width="2.0" fill="none" stroke="rgb(255, 0, 0)" stroke-opacity="1" stroke-linecap="round" stroke-linejoin="round"/>
    <path d="M 187.05299377441406 102.19499969482422 C 182.54200744628906 109.19599914550781 185.41700744628906 95.23989868164062 204.4340057373047 106.33000183105469" stroke-width="2.0" fill="none" stroke="rgb(0, 255, 0)" stroke-opacity="1" stroke-linecap="round" stroke-linejoin="round"/>
    <path d="M 94.13040161132812 99.32710266113281 C 120.05899810791016 109.26799774169922 68.64779663085938 102.1780014038086 105.9800033569336 97.54609680175781" stroke-width="2.0" fill="none" stroke="rgb(0, 0, 255)" stroke-opacity="1" stroke-linecap="round" stroke-linejoin="round"/>
    <path d="M 123.32099914550781 94.02629852294922 C 135.11900329589844 91.6698989868164 110.68000030517578 87.46299743652344 126.77100372314453 74.552001953125" stroke-width="2.0" fill="none" stroke="rgb(0, 0, 255)" stroke-opacity="1" stroke-linecap="round" stroke-linejoin="round"/>
    <path d="M 137.02699279785156 84.84829711914062 C 149.8280029296875 62.09189987182617 111.2770004272461 77.07679748535156 124.38899993896484 88.6968994140625" stroke-width="2.0" fill="none" stroke="rgb(0, 0, 255)" stroke-opacity="1" stroke-linecap="round" stroke-linejoin="round"/>
    <path d="M 131.85000610351562 86.96050262451172 C 117.36299896240234 70.68379974365234 121.01300048828125 97.01409912109375 144.3350067138672 107.5999984741211" stroke-width="2.0" fill="none" stroke="rgb(0, 0, 255)" stroke-opacity="1" stroke-linecap="round" stroke-linejoin="round"/>
    <path d="M 143.6790008544922 102.3270034790039 C 159.6739959716797 144.3520050048828 132.60499572753906 89.93479919433594 140.16200256347656 116.35800170898438" stroke-width="2.0" fill="none" stroke="rgb(0, 0, 255)" stroke-opacity="1" stroke-linecap="round" stroke-linejoin="round"/>
    <path d="M 61.32569885253906 110.38500213623047 C 69.58399963378906 95.89610290527344 87.97789764404297 119.78500366210938 68.87020111083984 106.94200134277344" stroke-width="2.0" fill="none" stroke="rgb(255, 0, 0)" stroke-opacity="1" stroke-linecap="round" stroke-linejoin="round"/>
    <path d="M 220.88999938964844 177.80099487304688 C 205.1199951171875 174.96099853515625 221.8300018310547 167.7259979248047 221.75 178.75599670410156" stroke-width="2.0" fill="none" stroke="rgb(0, 255, 0)" stroke-opacity="1" stroke-linecap="round" stroke-linejoin="round"/>
    <path d="M 132.51699829101562 188.76400756835938 C 135.98199462890625 188.64300537109375 131.78700256347656 188.90699768066406 130.73199462890625 189.13600158691406" stroke-width="2.0" fill="none" stroke="rgb(255, 255, 0)" stroke-opacity="1" stroke-linecap="round" stroke-linejoin="round"/>
    <path d="M 182.01300048828125 128.67599487304688 C 160.91400146484375 136.1820068359375 184.3520050048828 151.60499572753906 167.6929931640625 142.3249969482422" stroke-width="2.0" fill="none" stroke="rgb(0, 255, 0)" stroke-opacity="1" stroke-linecap="round" stroke-linejoin="round"/>
    <path d="M 138.05599975585938 138.94700622558594 C 137.67999267578125 110.6050033569336 123.71399688720703 131.02699279785156 139.91200256347656 138.00399780273438" stroke-width="2.0" fill="none" stroke="rgb(0, 0, 255)" stroke-opacity="1" stroke-linecap="round" stroke-linejoin="round"/>
    <path d="M 202.95899963378906 106.56500244140625 C 185.21499633789062 99.63600158691406 207.63699340820312 107.62300109863281 202.3699951171875 104.43399810791016" stroke-width="2.0" fill="none" stroke="rgb(0, 255, 0)" stroke-opacity="1" stroke-linecap="round" stroke-linejoin="round"/>
    <path d="M 134.75799560546875 111.44000244140625 C 138.11199951171875 86.50910186767578 154.69400024414062 82.9719009399414 130.10899353027344 77.19840240478516" stroke-width="2.0" fill="none" stroke="rgb(0, 0, 255)" stroke-opacity="1" stroke-linecap="round" stroke-linejoin="round"/>
    <path d="M 183.88999938964844 114.45099639892578 C 178.6820068359375 129.36099243164062 209.6230010986328 117.51599884033203 203.39599609375 110.7509994506836" stroke-width="2.0" fill="none" stroke="rgb(0, 255, 0)" stroke-opacity="1" stroke-linecap="round" stroke-linejoin="round"/>
    <path d="M 135.53500366210938 73.21920013427734 C 118.21900177001953 83.28800201416016 119.59200286865234 79.83470153808594 142.21400451660156 82.69740295410156" stroke-width="2.0" fill="none" stroke="rgb(0, 0, 255)" stroke-opacity="1" stroke-linecap="round" stroke-linejoin="round"/>
    <path d="M 189.33599853515625 117.97100067138672 C 194.16799926757812 130.71099853515625 227.0030059814453 92.2667007446289 189.73800659179688 101.5" stroke-width="2.0" fill="none" stroke="rgb(0, 255, 0)" stroke-opacity="1" stroke-linecap="round" stroke-linejoin="round"/>
    <path d="M 74.40969848632812 111.49800109863281 C 70.53520202636719 112.62899780273438 73.95449829101562 121.79399871826172 66.3302993774414 106.5199966430664" stroke-width="2.0" fill="none" stroke="rgb(255, 0, 0)" stroke-opacity="1" stroke-linecap="round" stroke-linejoin="round"/>
    <path d="M 70.78700256347656 159.3000030517578 C 60.37350082397461 147.57400512695312 66.05400085449219 129.68699645996094 71.20359802246094 155.66200256347656" stroke-width="2.0" fill="none" stroke="rgb(255, 0, 0)" stroke-opacity="1" stroke-linecap="round" stroke-linejoin="round"/>
    <path d="M 51.12519836425781 129.76100158691406 C 40.27199935913086 143.47799682617188 51.67190170288086 136.01100158691406 48.97359848022461 128.86099243164062" stroke-width="2.0" fill="none" stroke="rgb(255, 0, 0)" stroke-opacity="1" stroke-linecap="round" stroke-linejoin="round"/>
    <path d="M 45.58250045776367 131.85800170898438 C 46.97650146484375 116.31500244140625 73.5353012084961 116.76300048828125 69.76339721679688 146.96200561523438" stroke-width="2.0" fill="none" stroke="rgb(255, 0, 0)" stroke-opacity="1" stroke-linecap="round" stroke-linejoin="round"/>
    <path d="M 194.44700622558594 137.57899475097656 C 181.218994140625 116.9729995727539 205.71499633789062 114.34500122070312 200.12899780273438 125.3759994506836" stroke-width="2.0" fill="none" stroke="rgb(0, 255, 0)" stroke-opacity="1" stroke-linecap="round" stroke-linejoin="round"/>
    <path d="M 194.8979949951172 101.49700164794922 C 219.30299377441406 115.8759994506836 196.36300659179688 98.54840087890625 196.14599609375 104.65399932861328" stroke-width="2.0" fill="none" stroke="rgb(0, 255, 0)" stroke-opacity="1" stroke-linecap="round" stroke-linejoin="round"/>
    <path d="M 214.8070068359375 138.4980010986328 C 214.51199340820312 136.03399658203125 215.5749969482422 148.3489990234375 210.71499633789062 133.93499755859375" stroke-width="2.0" fill="none" stroke="rgb(0, 255, 0)" stroke-opacity="1" stroke-linecap="round" stroke-linejoin="round"/>
    <path d="M 126.02799987792969 83.9656982421875 C 157.66900634765625 66.1010971069336 145.10899353027344 101.25199890136719 122.08999633789062 98.51260375976562" stroke-width="2.0" fill="none" stroke="rgb(0, 0, 255)" stroke-opacity="1" stroke-linecap="round" stroke-linejoin="round"/>
    <path d="M 115.60800170898438 157.6739959716797 C 122.6449966430664 162.8560028076172 99.86479949951172 179.0050048828125 130.30499267578125 126.71299743652344" stroke-width="2.0" fill="none" stroke="rgb(0, 0, 255)" stroke-opacity="1" stroke-linecap="round" stroke-linejoin="round"/>
    <path d="M 189.88299560546875 103.93199920654297 C 193.33999633789062 109.1449966430664 199.50999450683594 101.46600341796875 184.5590057373047 103.63200378417969" stroke-width="2.0" fill="none" stroke="rgb(0, 255, 0)" stroke-opacity="1" stroke-linecap="round" stroke-linejoin="round"/>
    <path d="M 142.4010009765625 138.44000244140625 C 140.21400451660156 106.5009994506836 150.8179931640625 140.78700256347656 124.8489990234375 160.47900390625" stroke-width="2.0" fill="none" stroke="rgb(0, 0, 255)" stroke-opacity="1" stroke-linecap="round" stroke-linejoin="round"/>
    <path d="M 76.54350280761719 147.24200439453125 C 89.29759979248047 155.9409942626953 81.85330200195312 167.13999938964844 113.25399780273438 181.86599731445312" stroke-width="2.0" fill="none" stroke="rgb(255, 255, 0)" stroke-opacity="1" stroke-linecap="round" stroke-linejoin="round"/>
    <path d="M 41.07849884033203 140.9669952392578 C 48.82429885864258 129.3470001220703 37.82490158081055 132.5760040283203 57.980899810791016 125.23500061035156" stroke-width="2.0" fill="none" stroke="rgb(255, 0, 0)" stroke-opacity="1" stroke-linecap="round" stroke-linejoin="round"/>
    <path d="M 191.2689971923828 177.27200317382812 C 189.156005859375 143.91900634765625 208.1790008544922 170.3070068359375 184.31500244140625 175.31900024414062" stroke-width="2.0" fill="none" stroke="rgb(0, 255, 0)" stroke-opacity="1" stroke-linecap="round" stroke-linejoin="round"/>
    <path d="M 192.46400451660156 124.65799713134766 C 201.92599487304688 116.08499908447266 208.1009979248047 113.59300231933594 199.3520050048828 106.91600036621094" stroke-width="2.0" fill="none" stroke="rgb(0, 255, 0)" stroke-opacity="1" stroke-linecap="round" stroke-linejoin="round"/>
    <path d="M 123.1969985961914 138.20799255371094 C 115.7300033569336 122.96099853515625 139.1060028076172 111.39199829101562 149.4600067138672 135.718994140625" stroke-width="2.0" fill="none" stroke="rgb(0, 0, 255)" stroke-opacity="1" stroke-linecap="round" stroke-linejoin="round"/>
    <path d="M 52.03020095825195 128.29200744628906 C 44.4093017578125 145.77999877929688 47.7681999206543 117.50499725341797 45.06019973754883 140.4080047607422" stroke-width="2.0" fill="none" stroke="rgb(255, 0, 0)" stroke-opacity="1" stroke-linecap="round" stroke-linejoin="round"/>
    <path d="M 72.95429992675781 113.20899963378906 C 71.3416976928711 116.71399688720703 72.12670135498047 107.83100128173828 73.84629821777344 113.49700164794922" stroke-width="2.0" fill="none" stroke="rgb(255, 0, 0)" stroke-opacity="1" stroke-linecap="round" stroke-linejoin="round"/>
    <path d="M 165.87399291992188 177.60299682617188 C 190.88299560546875 160.5959930419922 175.70399475097656 146.71200561523438 181.3300018310547 159.96600341796875" stroke-width="2.0" fill="none" stroke="rgb(0, 255, 0)" stroke-opacity="1" stroke-linecap="round" stroke-linejoin="round"/>
    <path d="M 70.67130279541016 153.54400634765625 C 60.3567008972168 152.13699340820312 78.36009979248047 153.19200134277344 63.77579879760742 147.5279998779297" stroke-width="2.0" fill="none" stroke="rgb(255, 0, 0)" stroke-opacity="1" stroke-linecap="round" stroke-linejoin="round"/>
    <path d="M 203.7209930419922 129.8509979248047 C 202.24400329589844 113.68099975585938 193.11599731445312 135.85400390625 212.43099975585938 122.6780014038086" stroke-width="2.0" fill="none" stroke="rgb(0, 255, 0)" stroke-opacity="1" stroke-linecap="round" stroke-linejoin="round"/>
    <path d="M 85.02649688720703 154.26499938964844 C 90.5698013305664 167.697998046875 81.81109619140625 157.79600524902344 83.8125991821289 153.01600646972656" stroke-width="2.0" fill="none" stroke="rgb(255, 255, 0)" stroke-opacity="1" stroke-linecap="round" stroke-linejoin="round"/>
    <path d="M 184.40899658203125 107.14199829101562 C 184.89500427246094 103.88300323486328 188.0229949951172 93.03140258789062 191.1699981689453 106.47200012207031" stroke-width="2.0" fill="none" stroke="rgb(0, 255, 0)" stroke-opacity="1" stroke-linecap="round" stroke-linejoin="round"/>
    <path d="M 32.0 188.3769989013672 C 58.97949981689453 171.1060028076172 14.387499809265137 218.5019989013672 48.734901428222656 154.906005859375" stroke-width="2.0" fill="none" stroke="rgb(255, 0, 0)" stroke-opacity="1" stroke-linecap="round" stroke-linejoin="round"/>
    <path d="M 141.50900268554688 137.09800720214844 C 112.60900115966797 131.71099853515625 134.95599365234375 148.38299560546875 115.21199798583984 139.81300354003906" stroke-width="2.0" fill="none" stroke="rgb(0, 0, 255)" stroke-opacity="1" stroke-linecap="round" stroke-linejoin="round"/>
    <path d="M 136.21299743652344 188.77000427246094 C 121.46399688720703 188.56199645996094 103.83300018310547 176.41299438476562 103.97699737548828 176.76600646972656" stroke-width="2.0" fill="none" stroke="rgb(255, 255, 0)" stroke-opacity="1" stroke-linecap="round" stroke-linejoin="round"/>
    <path d="M 83.43669891357422 156.0189971923828 C 66.4303970336914 165.78900146484375 88.41790008544922 161.5850067138672 63.49399948120117 144.4949951171875" stroke-width="2.0" fill="none" stroke="rgb(255, 0, 0)" stroke-opacity="1" stroke-linecap="round" stroke-linejoin="round"/>
    <path d="M 117.24099731445312 138.46400451660156 C 129.7729949951172 132.7530059814453 134.2010040283203 140.03500366210938 126.13600158691406 97.62249755859375" stroke-width="2.0" fill="none" stroke="rgb(0, 0, 255)" stroke-opacity="1" stroke-linecap="round" stroke-linejoin="round"/>
    <path d="M 65.8561019897461 124.5739974975586 C 44.5166015625 119.38700103759766 80.22350311279297 95.17739868164062 59.515899658203125 117.4739990234375" stroke-width="2.0" fill="none" stroke="rgb(255, 0, 0)" stroke-opacity="1" stroke-linecap="round" stroke-linejoin="round"/>
    <path d="M 141.23199462890625 138.093994140625 C 111.50900268554688 128.1719970703125 98.5824966430664 145.3209991455078 121.51100158691406 124.94599914550781" stroke-width="2.0" fill="none" stroke="rgb(0, 0, 255)" stroke-opacity="1" stroke-linecap="round" stroke-linejoin="round"/>
    <path d="M 203.4459991455078 105.72899627685547 C 201.37100219726562 91.63829803466797 185.7779998779297 107.8759994506836 186.11300659179688 106.79499816894531" stroke-width="2.0" fill="none" stroke="rgb(0, 255, 0)" stroke-opacity="1" stroke-linecap="round" stroke-linejoin="round"/>
    <path d="M 219.43800354003906 148.2209930419922 C 184.98800659179688 111.98899841308594 202.16400146484375 116.48400115966797 210.5959930419922 139.0050048828125" stroke-width="2.0" fill="none" stroke="rgb(0, 255, 0)" stroke-opacity="1" stroke-linecap="round" stroke-linejoin="round"/>
    <path d="M 109.08499908447266 100.7020034790039 C 113.8219985961914 100.85600280761719 101.16400146484375 95.40029907226562 122.83499908447266 92.10269927978516" stroke-width="2.0" fill="none" stroke="rgb(0, 0, 255)" stroke-opacity="1" stroke-linecap="round" stroke-linejoin="round"/>
    <path d="M 220.72999572753906 144.51800537109375 C 229.10899353027344 132.39100646972656 219.44400024414062 143.23199462890625 213.38499450683594 121.58799743652344" stroke-width="2.0" fill="none" stroke="rgb(0, 255, 0)" stroke-opacity="1" stroke-linecap="round" stroke-linejoin="round"/>
    <path d="M 200.46200561523438 100.2030029296875 C 202.91799926757812 99.28489685058594 176.24200439453125 95.20490264892578 206.30999755859375 103.35199737548828" stroke-width="2.0" fill="none" stroke="rgb(0, 255, 0)" stroke-opacity="1" stroke-linecap="round" stroke-linejoin="round"/>
    <path d="M 119.1240005493164 129.23699951171875 C 121.70800018310547 147.88600158691406 108.38800048828125 133.0850067138672 150.5469970703125 137.61000061035156" stroke-width="2.0" fill="none" stroke="rgb(0, 0, 255)" stroke-opacity="1" stroke-linecap="round" stroke-linejoin="round"/>
    <path d="M 75.26390075683594 111.13800048828125 C 57.806400299072266 103.36299896240234 70.62059783935547 104.97200012207031 63.34479904174805 115.72699737548828" stroke-width="2.0" fill="none" stroke="rgb(255, 0, 0)" stroke-opacity="1" stroke-linecap="round" stroke-linejoin="round"/>
    <path d="M 131.0279998779297 74.78459930419922 C 153.9219970703125 75.28579711914062 142.43800354003906 87.89530181884766 136.11000061035156 74.12860107421875" stroke-width="2.0" fill="none" stroke="rgb(0, 0, 255)" stroke-opacity="1" stroke-linecap="round" stroke-linejoin="round"/>
    <path d="M 199.58399963378906 99.96089935302734 C 175.07400512695312 100.15899658203125 202.41900634765625 100.96399688720703 199.447998046875 103.39800262451172" stroke-width="2.0" fill="none" stroke="rgb(0, 255, 0)" stroke-opacity="1" stroke-linecap="round" stroke-linejoin="round"/>
    <path d="M 184.49000549316406 122.46299743652344 C 155.18600463867188 152.21499633789062 169.71600341796875 150.1269989013672 191.0659942626953 121.38800048828125" stroke-width="2.0" fill="none" stroke="rgb(0, 255, 0)" stroke-opacity="1" stroke-linecap="round" stroke-linejoin="round"/>
    <path d="M 145.43099975585938 134.03700256347656 C 109.27200317382812 112.22000122070312 112.48400115966797 136.5919952392578 133.89500427246094 121.61599731445312" stroke-width="2.0" fill="none" stroke="rgb(0, 0, 255)" stroke-opacity="1" stroke-linecap="round" stroke-linejoin="round"/>
    <path d="M 114.322998046875 139.8179931640625 C 112.4280014038086 117.63300323486328 150.1009979248047 109.66500091552734 141.76100158691406 139.8679962158203" stroke-width="2.0" fill="none" stroke="rgb(0, 0, 255)" stroke-opacity="1" stroke-linecap="round" stroke-linejoin="round"/>
    <path d="M 80.822998046875 151.31100463867188 C 96.98249816894531 149.87100219726562 74.79840087890625 172.4739990234375 57.307098388671875 137.8040008544922" stroke-width="2.0" fill="none" stroke="rgb(255, 0, 0)" stroke-opacity="1" stroke-linecap="round" stroke-linejoin="round"/>
    <path d="M 192.15499877929688 119.35299682617188 C 181.6840057373047 115.09600067138672 175.87399291992188 101.40699768066406 192.79600524902344 100.54299926757812" stroke-width="2.0" fill="none" stroke="rgb(0, 255, 0)" stroke-opacity="1" stroke-linecap="round" stroke-linejoin="round"/>
  </g>
</svg>
