<?xml version="1.0" ?>
<svg xmlns="http://www.w3.org/2000/svg" version="1.1" width="256" height="256">
  <defs/>
  <g>
    <path d="M 211.4459991455078 57.66130065917969 C 193.4040069580078 60.46540069580078 200.8470001220703 51.33720016479492 199.16299438476562 72.597900390625" stroke-width="2.0" fill="none" stroke="rgb(0, 255, 0)" stroke-opacity="1" stroke-linecap="round" stroke-linejoin="round"/>
    <path d="M 173.71200561523438 70.5698013305664 C 178.1840057373047 78.58580017089844 196.54200744628906 77.09559631347656 172.53500366210938 74.3750991821289" stroke-width="2.0" fill="none" stroke="rgb(0, 255, 0)" stroke-opacity="1" stroke-linecap="round" stroke-linejoin="round"/>
    <path d="M 208.3990020751953 63.15639877319336 C 194.2969970703125 63.97679901123047 202.01300048828125 71.67479705810547 201.4149932861328 59.19309997558594" stroke-width="2.0" fill="none" stroke="rgb(0, 255, 0)" stroke-opacity="1" stroke-linecap="round" stroke-linejoin="round"/>
    <path d="M 146.7270050048828 54.08420181274414 C 159.78799438476562 72.2916030883789 153.47300720214844 71.70169830322266 164.29200744628906 82.55989837646484" stroke-width="2.0" fill="none" stroke="rgb(0, 255, 0)" stroke-opacity="1" stroke-linecap="round" stroke-linejoin="round"/>
    <path d="M 221.73199462890625 58.69969940185547 C 236.18699645996094 39.601200103759766 238.75599670410156 36.950401306152344 218.5760040283203 58.90489959716797" stroke-width="2.0" fill="none" stroke="rgb(0, 255, 0)" stroke-opacity="1" stroke-linecap="round" stroke-linejoin="round"/>
    <path d="M 169.58799743652344 65.45559692382812 C 182.63699340820312 78.56300354003906 176.8260040283203 80.26930236816406 169.61900329589844 67.25650024414062" stroke-width="2.0" fill="none" stroke="rgb(0, 255, 0)" stroke-opacity="1" stroke-linecap="round" stroke-linejoin="round"/>
    <path d="M 157.18600463867188 64.92289733886719 C 169.406005859375 47.75090026855469 154.89300537109375 62.89609909057617 146.9669952392578 56.0443000793457" stroke-width="2.0" fill="none" stroke="rgb(0, 255, 0)" stroke-opacity="1" stroke-linecap="round" stroke-linejoin="round"/>
    <path d="M 163.072998046875 82.21040344238281 C 158.16799926757812 75.22730255126953 173.7969970703125 93.59600067138672 159.8820037841797 76.11650085449219" stroke-width="2.0" fill="none" stroke="rgb(0, 255, 0)" stroke-opacity="1" stroke-linecap="round" stroke-linejoin="round"/>
    <path d="M 147.88499450683594 61.50019836425781 C 168.03700256347656 57.737098693847656 137.9969940185547 59.695499420166016 160.1510009765625 66.19390106201172" stroke-width="2.0" fill="none" stroke="rgb(0, 255, 0)" stroke-opacity="1" stroke-linecap="round" stroke-linejoin="round"/>
    <path d="M 193.56500244140625 84.93440246582031 C 199.843994140625 64.71410369873047 183.95700073242188 77.40440368652344 194.16400146484375 74.71890258789062" stroke-width="2.0" fill="none" stroke="rgb(0, 255, 0)" stroke-opacity="1" stroke-linecap="round" stroke-linejoin="round"/>
    <path d="M 203.01199340820312 60.8484001159668 C 233.72000122070312 47.90019989013672 212.72300720214844 60.29570007324219 200.74600219726562 61.84120178222656" stroke-width="2.0" fill="none" stroke="rgb(0, 255, 0)" stroke-opacity="1" stroke-linecap="round" stroke-linejoin="round"/>
    <path d="M 198.64300537109375 73.99449920654297 C 204.8769989013672 55.652400970458984 193.65499877929688 51.89820098876953 204.66200256347656 65.2489013671875" stroke-width="2.0" fill="none" stroke="rgb(0, 255, 0)" stroke-opacity="1" stroke-linecap="round" stroke-linejoin="round"/>
    <path d="M 183.25100708007812 89.66079711914062 C 198.03900146484375 91.11579895019531 187.47900390625 93.69280242919922 193.39999389648438 87.26490020751953" stroke-width="2.0" fill="none" stroke="rgb(0, 255, 0)" stroke-opacity="1" stroke-linecap="round" stroke-linejoin="round"/>
    <path d="M 161.92999267578125 25.05190086364746 C 168.75100708007812 30.869800567626953 166.17599487304688 32.70819854736328 161.08099365234375 19.358200073242188" stroke-width="2.0" fill="none" stroke="rgb(0, 255, 0)" stroke-opacity="1" stroke-linecap="round" stroke-linejoin="round"/>
    <path d="M 164.16000366210938 29.577699661254883 C 169.02200317382812 31.28339958190918 160.58299255371094 28.27440071105957 165.8209991455078 25.492799758911133" stroke-width="2.0" fill="none" stroke="rgb(0, 255, 0)" stroke-opacity="1" stroke-linecap="round" stroke-linejoin="round"/>
    <path d="M 190.62399291992188 92.0 C 172.39500427246094 85.46060180664062 150.88699340820312 86.96980285644531 160.0590057373047 62.1879997253418" stroke-width="2.0" fill="none" stroke="rgb(0, 255, 0)" stroke-opacity="1" stroke-linecap="round" stroke-linejoin="round"/>
    <path d="M 164.8509979248047 83.59290313720703 C 154.3769989013672 69.2677001953125 160.01499938964844 63.02180099487305 149.92100524902344 54.66460037231445" stroke-width="2.0" fill="none" stroke="rgb(0, 255, 0)" stroke-opacity="1" stroke-linecap="round" stroke-linejoin="round"/>
    <path d="M 175.24000549316406 75.09480285644531 C 167.85000610351562 71.6978988647461 161.9499969482422 65.27079772949219 170.11199951171875 67.59480285644531" stroke-width="2.0" fill="none" stroke="rgb(0, 255, 0)" stroke-opacity="1" stroke-linecap="round" stroke-linejoin="round"/>
    <path d="M 177.60899353027344 74.5374984741211 C 186.05799865722656 74.96099853515625 173.04299926757812 82.45130157470703 168.16900634765625 64.2114028930664" stroke-width="2.0" fill="none" stroke="rgb(0, 255, 0)" stroke-opacity="1" stroke-linecap="round" stroke-linejoin="round"/>
    <path d="M 197.2239990234375 48.30739974975586 C 193.69900512695312 60.594398498535156 187.93699645996094 51.635101318359375 183.33599853515625 75.69999694824219" stroke-width="2.0" fill="none" stroke="rgb(0, 255, 0)" stroke-opacity="1" stroke-linecap="round" stroke-linejoin="round"/>
    <path d="M 166.61500549316406 70.45330047607422 C 171.73699951171875 75.625 168.61500549316406 77.26210021972656 198.4810028076172 75.30110168457031" stroke-width="2.0" fill="none" stroke="rgb(0, 255, 0)" stroke-opacity="1" stroke-linecap="round" stroke-linejoin="round"/>
    <path d="M 166.5290069580078 17.307199478149414 C 164.7899932861328 29.24970054626465 161.9949951171875 36.92649841308594 164.52999877929688 20.256099700927734" stroke-width="2.0" fill="none" stroke="rgb(0, 255, 0)" stroke-opacity="1" stroke-linecap="round" stroke-linejoin="round"/>
    <path d="M 197.34300231933594 71.87169647216797 C 180.28799438476562 76.43119812011719 171.4429931640625 74.22660064697266 197.2310028076172 76.8386001586914" stroke-width="2.0" fill="none" stroke="rgb(0, 255, 0)" stroke-opacity="1" stroke-linecap="round" stroke-linejoin="round"/>
    <path d="M 203.4969940185547 48.769798278808594 C 201.5590057373047 21.010499954223633 200.33700561523438 45.1890983581543 202.42300415039062 37.365299224853516" stroke-width="2.0" fill="none" stroke="rgb(0, 255, 0)" stroke-opacity="1" stroke-linecap="round" stroke-linejoin="round"/>
    <path d="M 233.1750030517578 56.89419937133789 C 205.20199584960938 60.93299865722656 194.95399475097656 66.71070098876953 202.63400268554688 43.944698333740234" stroke-width="2.0" fill="none" stroke="rgb(0, 255, 0)" stroke-opacity="1" stroke-linecap="round" stroke-linejoin="round"/>
    <path d="M 228.73800659179688 51.4827995300293 C 217.0959930419922 55.46080017089844 239.07699584960938 51.96540069580078 225.0780029296875 53.81399917602539" stroke-width="2.0" fill="none" stroke="rgb(0, 255, 0)" stroke-opacity="1" stroke-linecap="round" stroke-linejoin="round"/>
    <path d="M 154.75799560546875 62.75080108642578 C 134.77499389648438 65.04319763183594 151.10499572753906 39.88240051269531 154.59300231933594 60.486698150634766" stroke-width="2.0" fill="none" stroke="rgb(0, 255, 0)" stroke-opacity="1" stroke-linecap="round" stroke-linejoin="round"/>
    <path d="M 198.8350067138672 74.4384994506836 C 189.21299743652344 76.15670013427734 170.375 79.11280059814453 183.8070068359375 75.24079895019531" stroke-width="2.0" fill="none" stroke="rgb(0, 255, 0)" stroke-opacity="1" stroke-linecap="round" stroke-linejoin="round"/>
    <path d="M 231.3939971923828 60.17879867553711 C 230.6009979248047 42.83000183105469 230.24400329589844 48.1870002746582 214.25100708007812 58.91550064086914" stroke-width="2.0" fill="none" stroke="rgb(0, 255, 0)" stroke-opacity="1" stroke-linecap="round" stroke-linejoin="round"/>
    <path d="M 203.13499450683594 67.07369995117188 C 247.3730010986328 49.85100173950195 212.97300720214844 56.456298828125 202.197998046875 62.39979934692383" stroke-width="2.0" fill="none" stroke="rgb(0, 255, 0)" stroke-opacity="1" stroke-linecap="round" stroke-linejoin="round"/>
    <path d="M 145.21600341796875 58.78839874267578 C 165.59300231933594 71.30349731445312 154.0590057373047 69.19519805908203 161.74000549316406 75.56230163574219" stroke-width="2.0" fill="none" stroke="rgb(0, 255, 0)" stroke-opacity="1" stroke-linecap="round" stroke-linejoin="round"/>
    <path d="M 168.02999877929688 42.7317008972168 C 166.2729949951172 85.55740356445312 165.99400329589844 60.098201751708984 175.80999755859375 73.7123031616211" stroke-width="2.0" fill="none" stroke="rgb(0, 255, 0)" stroke-opacity="1" stroke-linecap="round" stroke-linejoin="round"/>
    <path d="M 162.36700439453125 81.1759033203125 C 151.4720001220703 74.41699981689453 158.9530029296875 57.689998626708984 158.73599243164062 76.09709930419922" stroke-width="2.0" fill="none" stroke="rgb(0, 255, 0)" stroke-opacity="1" stroke-linecap="round" stroke-linejoin="round"/>
    <path d="M 199.4040069580078 73.53060150146484 C 183.79299926757812 75.63980102539062 191.51400756835938 72.03079986572266 187.00799560546875 75.26270294189453" stroke-width="2.0" fill="none" stroke="rgb(0, 255, 0)" stroke-opacity="1" stroke-linecap="round" stroke-linejoin="round"/>
    <path d="M 146.71600341796875 56.858001708984375 C 159.7779998779297 68.4977035522461 157.4199981689453 54.2401008605957 156.36199951171875 64.97959899902344" stroke-width="2.0" fill="none" stroke="rgb(0, 255, 0)" stroke-opacity="1" stroke-linecap="round" stroke-linejoin="round"/>
    <path d="M 152.37600708007812 59.963199615478516 C 143.23899841308594 44.18050003051758 145.2969970703125 71.2354965209961 149.1750030517578 54.342201232910156" stroke-width="2.0" fill="none" stroke="rgb(0, 255, 0)" stroke-opacity="1" stroke-linecap="round" stroke-linejoin="round"/>
    <path d="M 172.97999572753906 73.19850158691406 C 176.68899536132812 74.02439880371094 175.9720001220703 75.71929931640625 199.44400024414062 73.35469818115234" stroke-width="2.0" fill="none" stroke="rgb(0, 255, 0)" stroke-opacity="1" stroke-linecap="round" stroke-linejoin="round"/>
    <path d="M 167.6009979248047 22.62579917907715 C 166.3350067138672 40.31850051879883 167.33399963378906 23.853599548339844 164.177001953125 16.0" stroke-width="2.0" fill="none" stroke="rgb(0, 255, 0)" stroke-opacity="1" stroke-linecap="round" stroke-linejoin="round"/>
    <path d="M 173.21299743652344 75.9801025390625 C 161.0260009765625 59.28179931640625 167.44700622558594 77.29029846191406 166.07400512695312 56.82389831542969" stroke-width="2.0" fill="none" stroke="rgb(0, 255, 0)" stroke-opacity="1" stroke-linecap="round" stroke-linejoin="round"/>
    <path d="M 197.9929962158203 70.35009765625 C 195.86900329589844 72.83889770507812 192.8179931640625 89.58899688720703 202.3730010986328 65.93250274658203" stroke-width="2.0" fill="none" stroke="rgb(0, 255, 0)" stroke-opacity="1" stroke-linecap="round" stroke-linejoin="round"/>
    <path d="M 163.37100219726562 33.64860153198242 C 159.5019989013672 45.65909957885742 164.24200439453125 38.90359878540039 160.71299743652344 54.81340026855469" stroke-width="2.0" fill="none" stroke="rgb(0, 255, 0)" stroke-opacity="1" stroke-linecap="round" stroke-linejoin="round"/>
    <path d="M 167.39199829101562 32.96699905395508 C 159.7220001220703 34.0443000793457 166.32200622558594 25.077299118041992 160.54100036621094 60.06660079956055" stroke-width="2.0" fill="none" stroke="rgb(0, 255, 0)" stroke-opacity="1" stroke-linecap="round" stroke-linejoin="round"/>
    <path d="M 149.8470001220703 59.8135986328125 C 167.7050018310547 51.503700256347656 146.8939971923828 72.01239776611328 149.20899963378906 55.412498474121094" stroke-width="2.0" fill="none" stroke="rgb(0, 255, 0)" stroke-opacity="1" stroke-linecap="round" stroke-linejoin="round"/>
    <path d="M 198.47000122070312 58.539398193359375 C 209.0489959716797 36.38959884643555 207.63600158691406 23.3174991607666 194.3560028076172 55.25299835205078" stroke-width="2.0" fill="none" stroke="rgb(0, 255, 0)" stroke-opacity="1" stroke-linecap="round" stroke-linejoin="round"/>
    <path d="M 167.2519989013672 63.27799987792969 C 171.7689971923828 71.57679748535156 168.54200744628906 62.183101654052734 174.96099853515625 72.01429748535156" stroke-width="2.0" fill="none" stroke="rgb(0, 255, 0)" stroke-opacity="1" stroke-linecap="round" stroke-linejoin="round"/>
    <path d="M 161.61399841308594 55.65890121459961 C 149.84800720214844 50.646400451660156 155.61700439453125 51.17380142211914 146.21400451660156 58.31449890136719" stroke-width="2.0" fill="none" stroke="rgb(0, 255, 0)" stroke-opacity="1" stroke-linecap="round" stroke-linejoin="round"/>
    <path d="M 167.91000366210938 22.707599639892578 C 169.02000427246094 34.86589813232422 163.58099365234375 31.887399673461914 168.4080047607422 18.833900451660156" stroke-width="2.0" fill="none" stroke="rgb(0, 255, 0)" stroke-opacity="1" stroke-linecap="round" stroke-linejoin="round"/>
    <path d="M 235.08200073242188 39.80339813232422 C 222.83900451660156 62.43830108642578 231.1300048828125 62.49660110473633 231.6439971923828 44.9379997253418" stroke-width="2.0" fill="none" stroke="rgb(0, 255, 0)" stroke-opacity="1" stroke-linecap="round" stroke-linejoin="round"/>
    <path d="M 172.7239990234375 75.80269622802734 C 168.74200439453125 66.90509796142578 164.91600036621094 63.974700927734375 167.1060028076172 66.51920318603516" stroke-width="2.0" fill="none" stroke="rgb(0, 255, 0)" stroke-opacity="1" stroke-linecap="round" stroke-linejoin="round"/>
    <path d="M 233.77099609375 45.5172004699707 C 220.98899841308594 59.1963005065918 230.6490020751953 62.01100158691406 236.0 40.43470001220703" stroke-width="2.0" fill="none" stroke="rgb(0, 255, 0)" stroke-opacity="1" stroke-linecap="round" stroke-linejoin="round"/>
    <path d="M 234.51300048828125 42.58890151977539 C 227.54100036621094 55.30289840698242 240.75999450683594 66.72599792480469 222.72500610351562 53.36090087890625" stroke-width="2.0" fill="none" stroke="rgb(0, 255, 0)" stroke-opacity="1" stroke-linecap="round" stroke-linejoin="round"/>
    <path d="M 167.83799743652344 46.375999450683594 C 163.8780059814453 60.29169845581055 173.8040008544922 62.682899475097656 164.44400024414062 64.1261978149414" stroke-width="2.0" fill="none" stroke="rgb(0, 255, 0)" stroke-opacity="1" stroke-linecap="round" stroke-linejoin="round"/>
    <path d="M 200.5189971923828 47.657100677490234 C 208.16900634765625 35.2859001159668 205.4199981689453 66.32260131835938 202.95199584960938 37.96540069580078" stroke-width="2.0" fill="none" stroke="rgb(0, 255, 0)" stroke-opacity="1" stroke-linecap="round" stroke-linejoin="round"/>
    <path d="M 164.16700744628906 19.652000427246094 C 167.72300720214844 29.306100845336914 156.42599487304688 17.101900100708008 160.77099609375 20.280799865722656" stroke-width="2.0" fill="none" stroke="rgb(0, 255, 0)" stroke-opacity="1" stroke-linecap="round" stroke-linejoin="round"/>
    <path d="M 213.38499450683594 62.83399963378906 C 195.63699340820312 64.06400299072266 211.2830047607422 72.36119842529297 184.14500427246094 75.22019958496094" stroke-width="2.0" fill="none" stroke="rgb(0, 255, 0)" stroke-opacity="1" stroke-linecap="round" stroke-linejoin="round"/>
    <path d="M 167.29100036621094 33.52429962158203 C 167.28700256347656 49.53229904174805 170.23899841308594 50.804901123046875 167.98800659179688 32.729400634765625" stroke-width="2.0" fill="none" stroke="rgb(0, 255, 0)" stroke-opacity="1" stroke-linecap="round" stroke-linejoin="round"/>
    <path d="M 39.37620162963867 190.8090057373047 C 39.97489929199219 183.45599365234375 33.798301696777344 190.8249969482422 37.88959884643555 190.05999755859375" stroke-width="2.0" fill="none" stroke="rgb(255, 0, 0)" stroke-opacity="1" stroke-linecap="round" stroke-linejoin="round"/>
    <path d="M 43.320701599121094 193.14599609375 C 68.3406982421875 189.44000244140625 62.98400115966797 205.7050018310547 62.36880111694336 187.20899963378906" stroke-width="2.0" fill="none" stroke="rgb(255, 0, 0)" stroke-opacity="1" stroke-linecap="round" stroke-linejoin="round"/>
    <path d="M 39.03969955444336 189.53500366210938 C 35.33509826660156 185.49099731445312 36.84920120239258 194.6790008544922 46.23979949951172 193.01199340820312" stroke-width="2.0" fill="none" stroke="rgb(255, 0, 0)" stroke-opacity="1" stroke-linecap="round" stroke-linejoin="round"/>
    <path d="M 84.35900115966797 160.2790069580078 C 97.68180084228516 156.43499755859375 88.00080108642578 182.37399291992188 93.29769897460938 165.8820037841797" stroke-width="2.0" fill="none" stroke="rgb(255, 0, 0)" stroke-opacity="1" stroke-linecap="round" stroke-linejoin="round"/>
    <path d="M 61.34479904174805 158.3489990234375 C 47.799400329589844 168.06900024414062 64.04820251464844 155.29200744628906 72.46610260009766 162.2310028076172" stroke-width="2.0" fill="none" stroke="rgb(255, 0, 0)" stroke-opacity="1" stroke-linecap="round" stroke-linejoin="round"/>
    <path d="M 78.54149627685547 175.89199829101562 C 85.29850006103516 176.97300720214844 90.03309631347656 174.9810028076172 79.33200073242188 173.55099487304688" stroke-width="2.0" fill="none" stroke="rgb(255, 0, 0)" stroke-opacity="1" stroke-linecap="round" stroke-linejoin="round"/>
    <path d="M 46.803001403808594 176.19400024414062 C 62.49789810180664 172.5330047607422 65.1436996459961 168.98699951171875 52.477901458740234 175.94900512695312" stroke-width="2.0" fill="none" stroke="rgb(255, 0, 0)" stroke-opacity="1" stroke-linecap="round" stroke-linejoin="round"/>
    <path d="M 61.26139831542969 191.83999633789062 C 65.05970001220703 206.1699981689453 42.716400146484375 202.6219940185547 49.479400634765625 217.94500732421875" stroke-width="2.0" fill="none" stroke="rgb(255, 0, 0)" stroke-opacity="1" stroke-linecap="round" stroke-linejoin="round"/>
    <path d="M 49.30569839477539 225.18699645996094 C 31.652599334716797 239.96600341796875 45.861000061035156 249.23699951171875 40.424198150634766 232.22900390625" stroke-width="2.0" fill="none" stroke="rgb(255, 0, 0)" stroke-opacity="1" stroke-linecap="round" stroke-linejoin="round"/>
    <path d="M 88.4801025390625 175.90699768066406 C 100.03399658203125 172.73500061035156 91.82510375976562 167.44400024414062 105.83799743652344 155.0850067138672" stroke-width="2.0" fill="none" stroke="rgb(255, 0, 0)" stroke-opacity="1" stroke-linecap="round" stroke-linejoin="round"/>
    <path d="M 75.00980377197266 196.83900451660156 C 84.36209869384766 179.6179962158203 83.77549743652344 174.94900512695312 78.02999877929688 191.9510040283203" stroke-width="2.0" fill="none" stroke="rgb(255, 0, 0)" stroke-opacity="1" stroke-linecap="round" stroke-linejoin="round"/>
    <path d="M 75.66670227050781 186.44900512695312 C 63.47380065917969 181.1320037841797 68.03150177001953 181.83299255371094 57.624698638916016 170.14700317382812" stroke-width="2.0" fill="none" stroke="rgb(255, 0, 0)" stroke-opacity="1" stroke-linecap="round" stroke-linejoin="round"/>
    <path d="M 94.77469635009766 159.77699279785156 C 85.7332992553711 164.8780059814453 86.88300323486328 166.50599670410156 97.31159973144531 164.48500061035156" stroke-width="2.0" fill="none" stroke="rgb(255, 0, 0)" stroke-opacity="1" stroke-linecap="round" stroke-linejoin="round"/>
    <path d="M 54.394901275634766 215.76499938964844 C 54.02360153198242 204.3000030517578 62.33689880371094 217.0919952392578 70.3844985961914 205.45199584960938" stroke-width="2.0" fill="none" stroke="rgb(255, 0, 0)" stroke-opacity="1" stroke-linecap="round" stroke-linejoin="round"/>
    <path d="M 38.49399948120117 170.87600708007812 C 65.76280212402344 155.16799926757812 66.8156967163086 156.65899658203125 58.284698486328125 163.2429962158203" stroke-width="2.0" fill="none" stroke="rgb(255, 0, 0)" stroke-opacity="1" stroke-linecap="round" stroke-linejoin="round"/>
    <path d="M 55.122798919677734 169.78599548339844 C 57.584598541259766 171.88999938964844 47.63130187988281 175.95899963378906 53.51020050048828 172.10400390625" stroke-width="2.0" fill="none" stroke="rgb(255, 0, 0)" stroke-opacity="1" stroke-linecap="round" stroke-linejoin="round"/>
    <path d="M 82.14610290527344 155.85299682617188 C 81.75060272216797 150.13099670410156 88.00180053710938 154.125 87.50679779052734 154.48899841308594" stroke-width="2.0" fill="none" stroke="rgb(255, 0, 0)" stroke-opacity="1" stroke-linecap="round" stroke-linejoin="round"/>
    <path d="M 58.64030075073242 192.1790008544922 C 59.13130187988281 204.51400756835938 65.78810119628906 189.07899475097656 58.16310119628906 203.52200317382812" stroke-width="2.0" fill="none" stroke="rgb(255, 0, 0)" stroke-opacity="1" stroke-linecap="round" stroke-linejoin="round"/>
    <path d="M 86.34989929199219 181.33799743652344 C 78.03790283203125 181.27699279785156 85.19170379638672 184.62100219726562 76.53790283203125 188.36199951171875" stroke-width="2.0" fill="none" stroke="rgb(255, 0, 0)" stroke-opacity="1" stroke-linecap="round" stroke-linejoin="round"/>
    <path d="M 67.80239868164062 204.66799926757812 C 75.42890167236328 206.45599365234375 80.38240051269531 204.71600341796875 73.26229858398438 189.05299377441406" stroke-width="2.0" fill="none" stroke="rgb(255, 0, 0)" stroke-opacity="1" stroke-linecap="round" stroke-linejoin="round"/>
    <path d="M 46.02050018310547 227.4010009765625 C 39.270198822021484 240.4029998779297 49.35070037841797 224.72799682617188 40.56769943237305 233.9969940185547" stroke-width="2.0" fill="none" stroke="rgb(255, 0, 0)" stroke-opacity="1" stroke-linecap="round" stroke-linejoin="round"/>
    <path d="M 71.68160247802734 197.7949981689453 C 75.20269775390625 190.5500030517578 73.63780212402344 187.15499877929688 63.542301177978516 184.54200744628906" stroke-width="2.0" fill="none" stroke="rgb(255, 0, 0)" stroke-opacity="1" stroke-linecap="round" stroke-linejoin="round"/>
    <path d="M 99.48789978027344 158.7760009765625 C 79.41020202636719 170.2259979248047 83.3051986694336 161.86300659179688 84.88600158691406 169.0469970703125" stroke-width="2.0" fill="none" stroke="rgb(255, 0, 0)" stroke-opacity="1" stroke-linecap="round" stroke-linejoin="round"/>
    <path d="M 80.60800170898438 182.656005859375 C 75.9374008178711 173.74000549316406 68.85919952392578 183.71800231933594 64.62879943847656 175.24600219726562" stroke-width="2.0" fill="none" stroke="rgb(255, 0, 0)" stroke-opacity="1" stroke-linecap="round" stroke-linejoin="round"/>
    <path d="M 85.71739959716797 153.6909942626953 C 79.12419891357422 148.97799682617188 81.60980224609375 157.29400634765625 85.96929931640625 152.8459930419922" stroke-width="2.0" fill="none" stroke="rgb(255, 0, 0)" stroke-opacity="1" stroke-linecap="round" stroke-linejoin="round"/>
    <path d="M 87.8761978149414 171.2010040283203 C 96.52960205078125 168.35699462890625 100.70999908447266 170.125 107.19599914550781 156.04800415039062" stroke-width="2.0" fill="none" stroke="rgb(255, 0, 0)" stroke-opacity="1" stroke-linecap="round" stroke-linejoin="round"/>
    <path d="M 65.29879760742188 162.64500427246094 C 65.7426986694336 162.1649932861328 56.00019836425781 170.93800354003906 66.60320281982422 162.7030029296875" stroke-width="2.0" fill="none" stroke="rgb(255, 0, 0)" stroke-opacity="1" stroke-linecap="round" stroke-linejoin="round"/>
    <path d="M 50.957401275634766 222.16200256347656 C 42.0265998840332 227.8520050048828 46.364498138427734 231.33599853515625 48.625099182128906 215.55799865722656" stroke-width="2.0" fill="none" stroke="rgb(255, 0, 0)" stroke-opacity="1" stroke-linecap="round" stroke-linejoin="round"/>
    <path d="M 85.84989929199219 170.0050048828125 C 86.76920318603516 168.79800415039062 87.70760345458984 159.4340057373047 88.2854995727539 162.6840057373047" stroke-width="2.0" fill="none" stroke="rgb(255, 0, 0)" stroke-opacity="1" stroke-linecap="round" stroke-linejoin="round"/>
    <path d="M 94.14559936523438 159.45799255371094 C 99.59819793701172 162.0229949951172 103.48100280761719 149.67599487304688 111.42500305175781 152.0" stroke-width="2.0" fill="none" stroke="rgb(255, 0, 0)" stroke-opacity="1" stroke-linecap="round" stroke-linejoin="round"/>
    <path d="M 28.925199508666992 180.51699829101562 C 38.24679946899414 179.3719940185547 42.70500183105469 174.10499572753906 29.634300231933594 181.39999389648438" stroke-width="2.0" fill="none" stroke="rgb(255, 0, 0)" stroke-opacity="1" stroke-linecap="round" stroke-linejoin="round"/>
    <path d="M 79.5156021118164 188.60899353027344 C 75.72630310058594 183.7429962158203 82.7970962524414 192.00599670410156 81.17559814453125 187.57899475097656" stroke-width="2.0" fill="none" stroke="rgb(255, 0, 0)" stroke-opacity="1" stroke-linecap="round" stroke-linejoin="round"/>
    <path d="M 69.47779846191406 168.53900146484375 C 72.98370361328125 171.2469940185547 61.106300354003906 167.8260040283203 79.60710144042969 167.36099243164062" stroke-width="2.0" fill="none" stroke="rgb(255, 0, 0)" stroke-opacity="1" stroke-linecap="round" stroke-linejoin="round"/>
    <path d="M 105.6989974975586 160.10499572753906 C 118.50700378417969 153.88400268554688 99.93560028076172 155.86099243164062 114.85199737548828 148.4429931640625" stroke-width="2.0" fill="none" stroke="rgb(255, 0, 0)" stroke-opacity="1" stroke-linecap="round" stroke-linejoin="round"/>
    <path d="M 76.69930267333984 165.25100708007812 C 69.78260040283203 164.40699768066406 59.85919952392578 162.2469940185547 48.75379943847656 172.04200744628906" stroke-width="2.0" fill="none" stroke="rgb(255, 0, 0)" stroke-opacity="1" stroke-linecap="round" stroke-linejoin="round"/>
    <path d="M 86.7782974243164 180.9770050048828 C 73.0354995727539 186.46099853515625 86.93190002441406 187.00100708007812 96.28910064697266 165.75999450683594" stroke-width="2.0" fill="none" stroke="rgb(255, 0, 0)" stroke-opacity="1" stroke-linecap="round" stroke-linejoin="round"/>
    <path d="M 37.47779846191406 188.76300048828125 C 42.67610168457031 176.60699462890625 38.41189956665039 189.43800354003906 39.588401794433594 189.4219970703125" stroke-width="2.0" fill="none" stroke="rgb(255, 0, 0)" stroke-opacity="1" stroke-linecap="round" stroke-linejoin="round"/>
    <path d="M 76.10359954833984 170.2270050048828 C 95.51740264892578 174.88900756835938 86.3865966796875 170.04100036621094 76.77279663085938 167.61300659179688" stroke-width="2.0" fill="none" stroke="rgb(255, 0, 0)" stroke-opacity="1" stroke-linecap="round" stroke-linejoin="round"/>
    <path d="M 68.13690185546875 209.4550018310547 C 52.9473991394043 221.64199829101562 58.69839859008789 220.16000366210938 49.2494010925293 230.16900634765625" stroke-width="2.0" fill="none" stroke="rgb(255, 0, 0)" stroke-opacity="1" stroke-linecap="round" stroke-linejoin="round"/>
    <path d="M 86.42060089111328 176.16799926757812 C 83.6510009765625 179.16600036621094 77.93810272216797 180.4600067138672 75.42179870605469 170.3260040283203" stroke-width="2.0" fill="none" stroke="rgb(255, 0, 0)" stroke-opacity="1" stroke-linecap="round" stroke-linejoin="round"/>
    <path d="M 54.7224006652832 171.50599670410156 C 59.638999938964844 168.90199279785156 50.188499450683594 178.55799865722656 54.37799835205078 171.6490020751953" stroke-width="2.0" fill="none" stroke="rgb(255, 0, 0)" stroke-opacity="1" stroke-linecap="round" stroke-linejoin="round"/>
    <path d="M 54.74470138549805 172.18499755859375 C 40.869998931884766 177.927001953125 42.09260177612305 182.10400390625 39.78350067138672 190.5919952392578" stroke-width="2.0" fill="none" stroke="rgb(255, 0, 0)" stroke-opacity="1" stroke-linecap="round" stroke-linejoin="round"/>
    <path d="M 79.60160064697266 190.75599670410156 C 86.19670104980469 181.46600341796875 91.5542984008789 185.78799438476562 86.42289733886719 167.49400329589844" stroke-width="2.0" fill="none" stroke="rgb(255, 0, 0)" stroke-opacity="1" stroke-linecap="round" stroke-linejoin="round"/>
    <path d="M 78.122802734375 156.25100708007812 C 87.48860168457031 148.44000244140625 71.00060272216797 152.28700256347656 80.48169708251953 159.51199340820312" stroke-width="2.0" fill="none" stroke="rgb(255, 0, 0)" stroke-opacity="1" stroke-linecap="round" stroke-linejoin="round"/>
    <path d="M 99.89409637451172 159.91700744628906 C 90.20860290527344 174.73699951171875 87.96690368652344 176.1580047607422 89.55000305175781 173.1199951171875" stroke-width="2.0" fill="none" stroke="rgb(255, 0, 0)" stroke-opacity="1" stroke-linecap="round" stroke-linejoin="round"/>
    <path d="M 57.69960021972656 193.02000427246094 C 64.95089721679688 177.00399780273438 66.69660186767578 184.1529998779297 64.46690368652344 175.7010040283203" stroke-width="2.0" fill="none" stroke="rgb(255, 0, 0)" stroke-opacity="1" stroke-linecap="round" stroke-linejoin="round"/>
    <path d="M 56.49330139160156 165.58799743652344 C 28.276100158691406 179.3179931640625 30.52910041809082 182.47900390625 52.44770050048828 169.62100219726562" stroke-width="2.0" fill="none" stroke="rgb(255, 0, 0)" stroke-opacity="1" stroke-linecap="round" stroke-linejoin="round"/>
    <path d="M 76.11360168457031 162.13600158691406 C 70.3511962890625 160.31100463867188 65.01319885253906 154.81500244140625 60.08610153198242 161.01199340820312" stroke-width="2.0" fill="none" stroke="rgb(255, 0, 0)" stroke-opacity="1" stroke-linecap="round" stroke-linejoin="round"/>
    <path d="M 81.43240356445312 152.00100708007812 C 88.45709991455078 155.01300048828125 82.62069702148438 152.89700317382812 87.05590057373047 159.41200256347656" stroke-width="2.0" fill="none" stroke="rgb(255, 0, 0)" stroke-opacity="1" stroke-linecap="round" stroke-linejoin="round"/>
    <path d="M 85.69969940185547 169.4550018310547 C 66.89250183105469 163.92100524902344 80.02739715576172 156.86700439453125 75.99549865722656 159.39100646972656" stroke-width="2.0" fill="none" stroke="rgb(255, 0, 0)" stroke-opacity="1" stroke-linecap="round" stroke-linejoin="round"/>
    <path d="M 39.507999420166016 184.5019989013672 C 38.95429992675781 183.14199829101562 40.3317985534668 175.44700622558594 40.30929946899414 191.91600036621094" stroke-width="2.0" fill="none" stroke="rgb(255, 0, 0)" stroke-opacity="1" stroke-linecap="round" stroke-linejoin="round"/>
    <path d="M 71.10030364990234 170.9759979248047 C 61.67580032348633 178.3769989013672 60.303001403808594 172.38099670410156 60.431400299072266 168.0260009765625" stroke-width="2.0" fill="none" stroke="rgb(255, 0, 0)" stroke-opacity="1" stroke-linecap="round" stroke-linejoin="round"/>
    <path d="M 40.982200622558594 246.63800048828125 C 46.8578987121582 232.906005859375 43.40409851074219 238.06300354003906 57.36429977416992 217.8699951171875" stroke-width="2.0" fill="none" stroke="rgb(255, 0, 0)" stroke-opacity="1" stroke-linecap="round" stroke-linejoin="round"/>
    <path d="M 85.15859985351562 152.70700073242188 C 88.67269897460938 165.281005859375 87.40460205078125 147.093994140625 78.92960357666016 153.91099548339844" stroke-width="2.0" fill="none" stroke="rgb(255, 0, 0)" stroke-opacity="1" stroke-linecap="round" stroke-linejoin="round"/>
    <path d="M 36.68199920654297 183.98500061035156 C 39.119598388671875 184.3939971923828 35.36000061035156 187.06500244140625 42.63029861450195 180.45199584960938" stroke-width="2.0" fill="none" stroke="rgb(255, 0, 0)" stroke-opacity="1" stroke-linecap="round" stroke-linejoin="round"/>
    <path d="M 59.795501708984375 169.75900268554688 C 62.23759841918945 174.93699645996094 53.00469970703125 169.56100463867188 65.20429992675781 161.86399841308594" stroke-width="2.0" fill="none" stroke="rgb(255, 0, 0)" stroke-opacity="1" stroke-linecap="round" stroke-linejoin="round"/>
    <path d="M 69.54290008544922 170.24600219726562 C 75.42759704589844 171.7030029296875 72.19650268554688 173.3780059814453 75.86979675292969 174.6750030517578" stroke-width="2.0" fill="none" stroke="rgb(255, 0, 0)" stroke-opacity="1" stroke-linecap="round" stroke-linejoin="round"/>
    <path d="M 54.62189865112305 182.58999633789062 C 63.61289978027344 175.26800537109375 62.45709991455078 161.19900512695312 47.55910110473633 175.54400634765625" stroke-width="2.0" fill="none" stroke="rgb(255, 0, 0)" stroke-opacity="1" stroke-linecap="round" stroke-linejoin="round"/>
    <path d="M 16.255300521850586 190.39700317382812 C 29.92729949951172 184.468994140625 23.22100067138672 194.9409942626953 43.53229904174805 179.1699981689453" stroke-width="2.0" fill="none" stroke="rgb(255, 0, 0)" stroke-opacity="1" stroke-linecap="round" stroke-linejoin="round"/>
    <path d="M 77.0916976928711 160.49600219726562 C 81.85690307617188 152.86199951171875 75.07080078125 150.02499389648438 77.63130187988281 163.70599365234375" stroke-width="2.0" fill="none" stroke="rgb(255, 0, 0)" stroke-opacity="1" stroke-linecap="round" stroke-linejoin="round"/>
    <path d="M 55.62409973144531 162.62100219726562 C 31.753299713134766 181.93099975585938 8.872739791870117 190.843994140625 23.417400360107422 188.43899536132812" stroke-width="2.0" fill="none" stroke="rgb(255, 0, 0)" stroke-opacity="1" stroke-linecap="round" stroke-linejoin="round"/>
    <path d="M 76.91600036621094 161.9040069580078 C 73.3291015625 163.302001953125 76.55049896240234 162.59100341796875 64.7780990600586 163.3209991455078" stroke-width="2.0" fill="none" stroke="rgb(255, 0, 0)" stroke-opacity="1" stroke-linecap="round" stroke-linejoin="round"/>
    <path d="M 88.79209899902344 174.03700256347656 C 85.18620300292969 164.3470001220703 74.40229797363281 169.5970001220703 86.03089904785156 168.35499572753906" stroke-width="2.0" fill="none" stroke="rgb(255, 0, 0)" stroke-opacity="1" stroke-linecap="round" stroke-linejoin="round"/>
    <path d="M 19.014400482177734 188.02999877929688 C 31.324899673461914 176.41200256347656 31.97279930114746 172.7259979248047 43.66790008544922 168.28700256347656" stroke-width="2.0" fill="none" stroke="rgb(255, 0, 0)" stroke-opacity="1" stroke-linecap="round" stroke-linejoin="round"/>
  </g>
</svg>
