<?xml version="1.0" ?>
<svg xmlns="http://www.w3.org/2000/svg" version="1.1" width="256" height="256">
  <defs/>
  <g>
    <path d="M 132.0189971923828 186.6929931640625 C 155.01600646972656 192.75900268554688 147.8159942626953 205.84300231933594 157.0 200.68899536132812" stroke-width="3.0" fill="none" stroke="rgb(0, 255, 0)" stroke-opacity="1" stroke-linecap="round" stroke-linejoin="round"/>
    <path d="M 83.96080017089844 208.0290069580078 C 110.48999786376953 187.82000732421875 95.2251968383789 207.99600219726562 109.64900207519531 189.42999267578125" stroke-width="3.0" fill="none" stroke="rgb(0, 0, 255)" stroke-opacity="1" stroke-linecap="round" stroke-linejoin="round"/>
    <path d="M 151.13699340820312 209.73500061035156 C 147.3800048828125 201.7949981689453 160.5240020751953 193.927001953125 147.1230010986328 197.48800659179688" stroke-width="3.0" fill="none" stroke="rgb(0, 255, 0)" stroke-opacity="1" stroke-linecap="round" stroke-linejoin="round"/>
    <path d="M 112.28600311279297 190.60299682617188 C 113.66300201416016 190.5019989013672 101.32099914550781 195.6909942626953 112.74800109863281 189.7790069580078" stroke-width="3.0" fill="none" stroke="rgb(0, 0, 255)" stroke-opacity="1" stroke-linecap="round" stroke-linejoin="round"/>
    <path d="M 95.36219787597656 169.35499572753906 C 64.94940185546875 157.83799743652344 54.4739990234375 163.8000030517578 83.56300354003906 164.51800537109375" stroke-width="3.0" fill="none" stroke="rgb(0, 0, 255)" stroke-opacity="1" stroke-linecap="round" stroke-linejoin="round"/>
    <path d="M 68.7219009399414 188.90899658203125 C 73.03070068359375 169.79800415039062 65.7344970703125 179.34300231933594 63.48759841918945 158.7030029296875" stroke-width="3.0" fill="none" stroke="rgb(0, 255, 255)" stroke-opacity="1" stroke-linecap="round" stroke-linejoin="round"/>
    <path d="M 138.947998046875 215.22000122070312 C 133.8489990234375 201.8820037841797 138.81900024414062 215.91900634765625 139.94700622558594 214.79200744628906" stroke-width="3.0" fill="none" stroke="rgb(0, 255, 0)" stroke-opacity="1" stroke-linecap="round" stroke-linejoin="round"/>
    <path d="M 120.90799713134766 209.65699768066406 C 113.13400268554688 214.00599670410156 118.8270034790039 212.59500122070312 113.0999984741211 211.26800537109375" stroke-width="3.0" fill="none" stroke="rgb(0, 255, 0)" stroke-opacity="1" stroke-linecap="round" stroke-linejoin="round"/>
    <path d="M 100.28700256347656 165.53500366210938 C 98.64320373535156 171.90699768066406 87.22669982910156 174.4980010986328 89.48040008544922 173.53900146484375" stroke-width="3.0" fill="none" stroke="rgb(0, 0, 255)" stroke-opacity="1" stroke-linecap="round" stroke-linejoin="round"/>
    <path d="M 153.72799682617188 197.23300170898438 C 138.23599243164062 196.0 155.74400329589844 194.89999389648438 152.3979949951172 200.3260040283203" stroke-width="3.0" fill="none" stroke="rgb(0, 255, 0)" stroke-opacity="1" stroke-linecap="round" stroke-linejoin="round"/>
    <path d="M 59.9922981262207 195.64300537109375 C 59.080101013183594 178.6280059814453 65.62259674072266 195.15199279785156 53.98889923095703 176.21600341796875" stroke-width="3.0" fill="none" stroke="rgb(0, 255, 255)" stroke-opacity="1" stroke-linecap="round" stroke-linejoin="round"/>
    <path d="M 33.393798828125 205.58900451660156 C 35.717201232910156 200.802001953125 48.548301696777344 189.4759979248047 54.79389953613281 178.96600341796875" stroke-width="3.0" fill="none" stroke="rgb(0, 255, 255)" stroke-opacity="1" stroke-linecap="round" stroke-linejoin="round"/>
    <path d="M 123.77300262451172 210.88800048828125 C 125.83200073242188 210.3489990234375 128.76499938964844 212.09500122070312 128.4510040283203 211.8300018310547" stroke-width="3.0" fill="none" stroke="rgb(0, 255, 0)" stroke-opacity="1" stroke-linecap="round" stroke-linejoin="round"/>
    <path d="M 61.12929916381836 119.80400085449219 C 66.31629943847656 121.12699890136719 77.7396011352539 125.69300079345703 70.32260131835938 122.04900360107422" stroke-width="3.0" fill="none" stroke="rgb(0, 255, 255)" stroke-opacity="1" stroke-linecap="round" stroke-linejoin="round"/>
    <path d="M 69.1063003540039 111.0 C 85.74210357666016 113.6050033569336 74.66300201416016 125.54499816894531 79.90540313720703 119.33200073242188" stroke-width="3.0" fill="none" stroke="rgb(0, 255, 255)" stroke-opacity="1" stroke-linecap="round" stroke-linejoin="round"/>
    <path d="M 149.05499267578125 210.92999267578125 C 152.62100219726562 208.1439971923828 157.53500366210938 210.593994140625 126.98400115966797 214.28399658203125" stroke-width="3.0" fill="none" stroke="rgb(0, 255, 0)" stroke-opacity="1" stroke-linecap="round" stroke-linejoin="round"/>
    <path d="M 28.833200454711914 204.18800354003906 C 33.676998138427734 192.6199951171875 37.819400787353516 210.00999450683594 31.979299545288086 203.33900451660156" stroke-width="3.0" fill="none" stroke="rgb(0, 255, 255)" stroke-opacity="1" stroke-linecap="round" stroke-linejoin="round"/>
    <path d="M 148.4770050048828 213.00999450683594 C 115.62100219726562 216.22300720214844 129.91200256347656 208.22000122070312 127.36199951171875 216.0" stroke-width="3.0" fill="none" stroke="rgb(0, 255, 0)" stroke-opacity="1" stroke-linecap="round" stroke-linejoin="round"/>
    <path d="M 125.66899871826172 211.53199768066406 C 123.06099700927734 211.83599853515625 128.74000549316406 209.72000122070312 126.16200256347656 210.62600708007812" stroke-width="3.0" fill="none" stroke="rgb(0, 255, 0)" stroke-opacity="1" stroke-linecap="round" stroke-linejoin="round"/>
    <path d="M 41.87990188598633 183.68899536132812 C 27.423500061035156 200.73500061035156 20.059099197387695 210.78700256347656 31.882400512695312 199.92300415039062" stroke-width="3.0" fill="none" stroke="rgb(0, 255, 255)" stroke-opacity="1" stroke-linecap="round" stroke-linejoin="round"/>
    <path d="M 51.11600112915039 185.2209930419922 C 53.92530059814453 176.52200317382812 55.74209976196289 170.28599548339844 51.35390090942383 185.06199645996094" stroke-width="3.0" fill="none" stroke="rgb(0, 255, 255)" stroke-opacity="1" stroke-linecap="round" stroke-linejoin="round"/>
    <path d="M 29.095300674438477 203.36900329589844 C 36.924598693847656 205.7790069580078 25.829999923706055 202.82200622558594 39.819698333740234 206.0070037841797" stroke-width="3.0" fill="none" stroke="rgb(0, 255, 255)" stroke-opacity="1" stroke-linecap="round" stroke-linejoin="round"/>
    <path d="M 67.70600128173828 122.36699676513672 C 74.10880279541016 125.5739974975586 57.77799987792969 116.00499725341797 78.73680114746094 123.21900177001953" stroke-width="3.0" fill="none" stroke="rgb(0, 255, 255)" stroke-opacity="1" stroke-linecap="round" stroke-linejoin="round"/>
    <path d="M 148.9250030517578 202.29400634765625 C 149.7100067138672 201.52200317382812 144.9980010986328 205.5989990234375 149.52999877929688 204.052001953125" stroke-width="3.0" fill="none" stroke="rgb(0, 255, 0)" stroke-opacity="1" stroke-linecap="round" stroke-linejoin="round"/>
    <path d="M 68.29280090332031 121.35099792480469 C 60.36640167236328 114.40499877929688 73.44660186767578 124.85299682617188 60.86410140991211 120.51200103759766" stroke-width="3.0" fill="none" stroke="rgb(0, 255, 255)" stroke-opacity="1" stroke-linecap="round" stroke-linejoin="round"/>
    <path d="M 154.78599548339844 197.3260040283203 C 147.26199340820312 189.22500610351562 142.5919952392578 183.12899780273438 155.4320068359375 200.52000427246094" stroke-width="3.0" fill="none" stroke="rgb(0, 255, 0)" stroke-opacity="1" stroke-linecap="round" stroke-linejoin="round"/>
    <path d="M 66.61100006103516 204.1280059814453 C 71.7218017578125 183.2570037841797 70.1321029663086 176.96400451660156 68.06710052490234 195.5290069580078" stroke-width="3.0" fill="none" stroke="rgb(0, 255, 255)" stroke-opacity="1" stroke-linecap="round" stroke-linejoin="round"/>
    <path d="M 55.86869812011719 178.33599853515625 C 45.466800689697266 161.6199951171875 50.699100494384766 163.656005859375 42.17100143432617 183.47900390625" stroke-width="3.0" fill="none" stroke="rgb(0, 255, 255)" stroke-opacity="1" stroke-linecap="round" stroke-linejoin="round"/>
    <path d="M 43.99140167236328 151.6840057373047 C 89.36380004882812 173.88999938964844 79.13999938964844 166.9409942626953 67.44219970703125 148.81199645996094" stroke-width="3.0" fill="none" stroke="rgb(0, 255, 255)" stroke-opacity="1" stroke-linecap="round" stroke-linejoin="round"/>
    <path d="M 150.77699279785156 202.33099365234375 C 155.08200073242188 194.68800354003906 159.6199951171875 195.947998046875 152.2760009765625 192.2010040283203" stroke-width="3.0" fill="none" stroke="rgb(0, 255, 0)" stroke-opacity="1" stroke-linecap="round" stroke-linejoin="round"/>
    <path d="M 53.10770034790039 181.61900329589844 C 50.49399948120117 186.4499969482422 49.543399810791016 187.65499877929688 51.63949966430664 183.6320037841797" stroke-width="3.0" fill="none" stroke="rgb(0, 255, 255)" stroke-opacity="1" stroke-linecap="round" stroke-linejoin="round"/>
    <path d="M 52.15589904785156 182.58099365234375 C 52.811798095703125 187.12100219726562 46.5443000793457 187.4010009765625 40.75830078125 196.77099609375" stroke-width="3.0" fill="none" stroke="rgb(0, 255, 255)" stroke-opacity="1" stroke-linecap="round" stroke-linejoin="round"/>
    <path d="M 71.75980377197266 112.12699890136719 C 62.800201416015625 108.4209976196289 55.79629898071289 119.71499633789062 65.11260223388672 118.3550033569336" stroke-width="3.0" fill="none" stroke="rgb(0, 255, 255)" stroke-opacity="1" stroke-linecap="round" stroke-linejoin="round"/>
    <path d="M 37.491600036621094 201.64700317382812 C 25.88960075378418 194.3800048828125 26.12310028076172 204.9429931640625 30.800600051879883 200.1649932861328" stroke-width="3.0" fill="none" stroke="rgb(0, 255, 255)" stroke-opacity="1" stroke-linecap="round" stroke-linejoin="round"/>
    <path d="M 155.2480010986328 203.38900756835938 C 157.0279998779297 196.96400451660156 160.13999938964844 200.218994140625 130.18699645996094 208.5659942626953" stroke-width="3.0" fill="none" stroke="rgb(0, 255, 0)" stroke-opacity="1" stroke-linecap="round" stroke-linejoin="round"/>
    <path d="M 148.24000549316406 195.2779998779297 C 151.82899475097656 200.73500061035156 150.9739990234375 196.38699340820312 149.89500427246094 195.49200439453125" stroke-width="3.0" fill="none" stroke="rgb(0, 255, 0)" stroke-opacity="1" stroke-linecap="round" stroke-linejoin="round"/>
    <path d="M 127.96900177001953 210.38800048828125 C 118.00399780273438 211.59100341796875 125.59400177001953 213.80099487304688 129.2830047607422 210.51400756835938" stroke-width="3.0" fill="none" stroke="rgb(0, 255, 0)" stroke-opacity="1" stroke-linecap="round" stroke-linejoin="round"/>
    <path d="M 53.26839828491211 179.68800354003906 C 52.089298248291016 179.95399475097656 58.90769958496094 182.24400329589844 51.389198303222656 170.94000244140625" stroke-width="3.0" fill="none" stroke="rgb(0, 255, 255)" stroke-opacity="1" stroke-linecap="round" stroke-linejoin="round"/>
    <path d="M 54.867801666259766 179.32000732421875 C 55.92430114746094 179.16099548339844 50.279300689697266 185.83299255371094 54.7859001159668 179.01699829101562" stroke-width="3.0" fill="none" stroke="rgb(0, 255, 255)" stroke-opacity="1" stroke-linecap="round" stroke-linejoin="round"/>
    <path d="M 77.80780029296875 119.23899841308594 C 77.65350341796875 125.13800048828125 85.41329956054688 133.0030059814453 68.62439727783203 122.73400115966797" stroke-width="3.0" fill="none" stroke="rgb(0, 255, 255)" stroke-opacity="1" stroke-linecap="round" stroke-linejoin="round"/>
    <path d="M 152.9409942626953 199.99600219726562 C 153.75 195.05999755859375 150.2270050048828 198.73199462890625 143.99000549316406 192.43800354003906" stroke-width="3.0" fill="none" stroke="rgb(0, 255, 0)" stroke-opacity="1" stroke-linecap="round" stroke-linejoin="round"/>
    <path d="M 73.4813003540039 213.81199645996094 C 48.225399017333984 213.81199645996094 59.778900146484375 206.84800720214844 59.778900146484375 196.18299865722656" stroke-width="3.0" fill="none" stroke="rgb(0, 255, 255)" stroke-opacity="1" stroke-linecap="round" stroke-linejoin="round"/>
    <path d="M 52.68840026855469 153.97999572753906 C 74.06400299072266 134.33700561523438 40.39939880371094 139.9949951171875 65.10710144042969 136.3679962158203" stroke-width="3.0" fill="none" stroke="rgb(0, 255, 255)" stroke-opacity="1" stroke-linecap="round" stroke-linejoin="round"/>
    <path d="M 65.60089874267578 118.9010009765625 C 73.87200164794922 120.4209976196289 67.28289794921875 119.88099670410156 78.42559814453125 123.56999969482422" stroke-width="3.0" fill="none" stroke="rgb(0, 255, 255)" stroke-opacity="1" stroke-linecap="round" stroke-linejoin="round"/>
    <path d="M 78.79810333251953 165.03500366210938 C 117.12699890136719 180.31300354003906 109.15799713134766 169.79600524902344 67.75379943847656 163.83700561523438" stroke-width="3.0" fill="none" stroke="rgb(0, 0, 255)" stroke-opacity="1" stroke-linecap="round" stroke-linejoin="round"/>
    <path d="M 54.346900939941406 178.21499633789062 C 55.346500396728516 177.3249969482422 55.55419921875 176.2830047607422 53.75619888305664 177.7689971923828" stroke-width="3.0" fill="none" stroke="rgb(0, 255, 255)" stroke-opacity="1" stroke-linecap="round" stroke-linejoin="round"/>
    <path d="M 121.06400299072266 173.35000610351562 C 109.43599700927734 165.64199829101562 125.45999908447266 168.68600463867188 100.20999908447266 164.0919952392578" stroke-width="3.0" fill="none" stroke="rgb(0, 0, 255)" stroke-opacity="1" stroke-linecap="round" stroke-linejoin="round"/>
    <path d="M 117.17400360107422 176.3679962158203 C 93.63310241699219 176.3679962158203 117.17400360107422 181.8090057373047 93.63310241699219 170.2729949951172" stroke-width="3.0" fill="none" stroke="rgb(0, 0, 255)" stroke-opacity="1" stroke-linecap="round" stroke-linejoin="round"/>
    <path d="M 111.51399993896484 210.92999267578125 C 116.53299713134766 211.82699584960938 109.0739974975586 211.14599609375 112.46099853515625 210.98199462890625" stroke-width="3.0" fill="none" stroke="rgb(0, 255, 0)" stroke-opacity="1" stroke-linecap="round" stroke-linejoin="round"/>
    <path d="M 72.31559753417969 122.5979995727539 C 65.0344009399414 118.322998046875 63.49660110473633 118.90799713134766 67.26280212402344 122.84600067138672" stroke-width="3.0" fill="none" stroke="rgb(0, 255, 255)" stroke-opacity="1" stroke-linecap="round" stroke-linejoin="round"/>
    <path d="M 57.769500732421875 130.86399841308594 C 45.31489944458008 143.8249969482422 55.80590057373047 136.13499450683594 46.487300872802734 150.38499450683594" stroke-width="3.0" fill="none" stroke="rgb(0, 255, 255)" stroke-opacity="1" stroke-linecap="round" stroke-linejoin="round"/>
    <path d="M 63.136600494384766 133.61700439453125 C 51.27000045776367 129.8070068359375 55.86880111694336 135.70599365234375 68.22039794921875 120.44499969482422" stroke-width="3.0" fill="none" stroke="rgb(0, 255, 255)" stroke-opacity="1" stroke-linecap="round" stroke-linejoin="round"/>
    <path d="M 147.39100646972656 204.7989959716797 C 148.64100646972656 195.47900390625 146.7239990234375 205.52000427246094 149.09300231933594 204.48899841308594" stroke-width="3.0" fill="none" stroke="rgb(0, 255, 0)" stroke-opacity="1" stroke-linecap="round" stroke-linejoin="round"/>
    <path d="M 61.04869842529297 163.39300537109375 C 44.51300048828125 156.80799865722656 11.831700325012207 148.59100341796875 57.91619873046875 161.60000610351562" stroke-width="3.0" fill="none" stroke="rgb(0, 255, 255)" stroke-opacity="1" stroke-linecap="round" stroke-linejoin="round"/>
    <path d="M 119.34500122070312 174.6009979248047 C 114.93000030517578 178.4969940185547 114.13700103759766 175.44000244140625 120.28500366210938 174.68499755859375" stroke-width="3.0" fill="none" stroke="rgb(0, 0, 255)" stroke-opacity="1" stroke-linecap="round" stroke-linejoin="round"/>
    <path d="M 48.52510070800781 165.90899658203125 C 49.58319854736328 169.40699768066406 46.32160186767578 167.72900390625 51.102699279785156 159.58999633789062" stroke-width="3.0" fill="none" stroke="rgb(0, 255, 255)" stroke-opacity="1" stroke-linecap="round" stroke-linejoin="round"/>
    <path d="M 62.77349853515625 131.87100219726562 C 53.9379997253418 130.89300537109375 63.01150131225586 124.7300033569336 69.47119903564453 143.26699829101562" stroke-width="3.0" fill="none" stroke="rgb(0, 255, 255)" stroke-opacity="1" stroke-linecap="round" stroke-linejoin="round"/>
    <path d="M 64.16719818115234 119.7699966430664 C 54.95930099487305 136.66400146484375 62.902400970458984 117.88600158691406 61.65959930419922 116.66000366210938" stroke-width="3.0" fill="none" stroke="rgb(0, 255, 255)" stroke-opacity="1" stroke-linecap="round" stroke-linejoin="round"/>
    <path d="M 44.4031982421875 192.0850067138672 C 32.87099838256836 213.43299865722656 27.74920082092285 209.31300354003906 48.99789810180664 187.48899841308594" stroke-width="3.0" fill="none" stroke="rgb(0, 255, 255)" stroke-opacity="1" stroke-linecap="round" stroke-linejoin="round"/>
    <path d="M 59.09450149536133 130.95799255371094 C 66.85579681396484 130.64199829101562 76.03119659423828 133.9530029296875 64.37359619140625 157.72300720214844" stroke-width="3.0" fill="none" stroke="rgb(0, 255, 255)" stroke-opacity="1" stroke-linecap="round" stroke-linejoin="round"/>
    <path d="M 69.26409912109375 188.93099975585938 C 70.14009857177734 177.73800659179688 73.22550201416016 178.66900634765625 62.403900146484375 164.72799682617188" stroke-width="3.0" fill="none" stroke="rgb(0, 255, 255)" stroke-opacity="1" stroke-linecap="round" stroke-linejoin="round"/>
    <path d="M 69.58769989013672 184.6280059814453 C 64.06719970703125 217.3730010986328 71.10659790039062 194.2310028076172 74.99690246582031 212.92799377441406" stroke-width="3.0" fill="none" stroke="rgb(0, 255, 255)" stroke-opacity="1" stroke-linecap="round" stroke-linejoin="round"/>
    <path d="M 74.69319915771484 121.8489990234375 C 54.96540069580078 111.61000061035156 54.37630081176758 118.4280014038086 73.27749633789062 122.53600311279297" stroke-width="3.0" fill="none" stroke="rgb(0, 255, 255)" stroke-opacity="1" stroke-linecap="round" stroke-linejoin="round"/>
    <path d="M 33.338600158691406 202.73599243164062 C 37.8650016784668 200.0399932861328 53.38679885864258 212.3070068359375 27.6875 204.4340057373047" stroke-width="3.0" fill="none" stroke="rgb(0, 255, 255)" stroke-opacity="1" stroke-linecap="round" stroke-linejoin="round"/>
    <path d="M 65.3687973022461 118.70800018310547 C 58.94879913330078 128.20799255371094 61.155601501464844 115.65399932861328 64.99690246582031 127.50299835205078" stroke-width="3.0" fill="none" stroke="rgb(0, 255, 255)" stroke-opacity="1" stroke-linecap="round" stroke-linejoin="round"/>
    <path d="M 121.61199951171875 211.25599670410156 C 117.93599700927734 213.38600158691406 115.8759994506836 210.7830047607422 113.23899841308594 212.14500427246094" stroke-width="3.0" fill="none" stroke="rgb(0, 255, 0)" stroke-opacity="1" stroke-linecap="round" stroke-linejoin="round"/>
    <path d="M 111.60199737548828 190.66400146484375 C 128.89700317382812 186.85000610351562 119.16799926757812 199.781005859375 130.48800659179688 188.11300659179688" stroke-width="3.0" fill="none" stroke="rgb(0, 255, 0)" stroke-opacity="1" stroke-linecap="round" stroke-linejoin="round"/>
    <path d="M 120.26399993896484 211.68899536132812 C 125.55999755859375 209.48500061035156 123.74500274658203 210.07400512695312 121.3280029296875 212.06300354003906" stroke-width="3.0" fill="none" stroke="rgb(0, 255, 0)" stroke-opacity="1" stroke-linecap="round" stroke-linejoin="round"/>
    <path d="M 154.71499633789062 209.37399291992188 C 149.83599853515625 213.50999450683594 145.02499389648438 201.8040008544922 148.43800354003906 211.60899353027344" stroke-width="3.0" fill="none" stroke="rgb(0, 255, 0)" stroke-opacity="1" stroke-linecap="round" stroke-linejoin="round"/>
    <path d="M 148.62399291992188 203.11599731445312 C 163.6280059814453 204.1179962158203 146.98399353027344 197.04400634765625 141.38699340820312 189.94500732421875" stroke-width="3.0" fill="none" stroke="rgb(0, 255, 0)" stroke-opacity="1" stroke-linecap="round" stroke-linejoin="round"/>
    <path d="M 71.70059967041016 123.70999908447266 C 53.78229904174805 112.83000183105469 63.945499420166016 117.81800079345703 78.3666000366211 124.15799713134766" stroke-width="3.0" fill="none" stroke="rgb(0, 255, 255)" stroke-opacity="1" stroke-linecap="round" stroke-linejoin="round"/>
    <path d="M 66.28839874267578 163.66099548339844 C 122.11900329589844 180.06199645996094 105.6520004272461 171.98300170898438 79.58709716796875 166.7100067138672" stroke-width="3.0" fill="none" stroke="rgb(0, 0, 255)" stroke-opacity="1" stroke-linecap="round" stroke-linejoin="round"/>
    <path d="M 62.26559829711914 118.43299865722656 C 61.068599700927734 114.80400085449219 78.043701171875 128.1179962158203 65.34040069580078 120.35600280761719" stroke-width="3.0" fill="none" stroke="rgb(0, 255, 255)" stroke-opacity="1" stroke-linecap="round" stroke-linejoin="round"/>
    <path d="M 82.46859741210938 165.4770050048828 C 86.23059844970703 176.1269989013672 61.905799865722656 156.68499755859375 99.193603515625 169.82200622558594" stroke-width="3.0" fill="none" stroke="rgb(0, 0, 255)" stroke-opacity="1" stroke-linecap="round" stroke-linejoin="round"/>
    <path d="M 67.74150085449219 120.93499755859375 C 69.78050231933594 125.29000091552734 80.15740203857422 114.75499725341797 68.01480102539062 135.43800354003906" stroke-width="3.0" fill="none" stroke="rgb(0, 255, 255)" stroke-opacity="1" stroke-linecap="round" stroke-linejoin="round"/>
    <path d="M 218.16000366210938 139.6490020751953 C 219.156005859375 145.0050048828125 223.16700744628906 145.08399963378906 217.46099853515625 138.05099487304688" stroke-width="2.0" fill="none" stroke="rgb(255, 0, 0)" stroke-opacity="1" stroke-linecap="round" stroke-linejoin="round"/>
    <path d="M 190.14500427246094 155.92599487304688 C 189.91700744628906 147.9669952392578 210.6719970703125 157.0800018310547 190.76300048828125 146.00399780273438" stroke-width="2.0" fill="none" stroke="rgb(255, 0, 0)" stroke-opacity="1" stroke-linecap="round" stroke-linejoin="round"/>
    <path d="M 207.66200256347656 132.8560028076172 C 197.92300415039062 143.98599243164062 182.93600463867188 137.0500030517578 200.1959991455078 134.95799255371094" stroke-width="2.0" fill="none" stroke="rgb(255, 0, 0)" stroke-opacity="1" stroke-linecap="round" stroke-linejoin="round"/>
    <path d="M 211.04600524902344 136.4600067138672 C 204.39300537109375 145.6179962158203 192.9290008544922 140.88499450683594 187.86300659179688 150.03500366210938" stroke-width="2.0" fill="none" stroke="rgb(255, 0, 0)" stroke-opacity="1" stroke-linecap="round" stroke-linejoin="round"/>
    <path d="M 201.99200439453125 124.14600372314453 C 198.95700073242188 124.24600219726562 204.697998046875 112.86199951171875 190.02099609375 138.03700256347656" stroke-width="2.0" fill="none" stroke="rgb(255, 0, 0)" stroke-opacity="1" stroke-linecap="round" stroke-linejoin="round"/>
    <path d="M 233.71800231933594 146.33299255371094 C 232.093994140625 138.56500244140625 233.88299560546875 149.86700439453125 232.7310028076172 147.0489959716797" stroke-width="2.0" fill="none" stroke="rgb(255, 0, 0)" stroke-opacity="1" stroke-linecap="round" stroke-linejoin="round"/>
    <path d="M 205.26600646972656 115.19000244140625 C 186.1479949951172 135.45799255371094 185.78799438476562 140.76699829101562 204.60499572753906 121.76100158691406" stroke-width="2.0" fill="none" stroke="rgb(255, 0, 0)" stroke-opacity="1" stroke-linecap="round" stroke-linejoin="round"/>
    <path d="M 221.8459930419922 159.47900390625 C 232.31399536132812 180.14100646972656 223.4709930419922 165.26400756835938 229.3719940185547 182.18699645996094" stroke-width="2.0" fill="none" stroke="rgb(255, 0, 0)" stroke-opacity="1" stroke-linecap="round" stroke-linejoin="round"/>
    <path d="M 243.75799560546875 186.53500366210938 C 243.6020050048828 183.84300231933594 252.79800415039062 191.09300231933594 223.15899658203125 185.9669952392578" stroke-width="2.0" fill="none" stroke="rgb(255, 0, 0)" stroke-opacity="1" stroke-linecap="round" stroke-linejoin="round"/>
    <path d="M 207.5070037841797 101.08300018310547 C 226.7729949951172 106.68199920654297 224.7270050048828 109.25299835205078 235.6219940185547 131.69000244140625" stroke-width="2.0" fill="none" stroke="rgb(255, 0, 0)" stroke-opacity="1" stroke-linecap="round" stroke-linejoin="round"/>
    <path d="M 190.50900268554688 131.70599365234375 C 186.01800537109375 180.16099548339844 177.88499450683594 160.83599853515625 184.72300720214844 155.84100341796875" stroke-width="2.0" fill="none" stroke="rgb(255, 0, 0)" stroke-opacity="1" stroke-linecap="round" stroke-linejoin="round"/>
    <path d="M 200.06500244140625 132.3780059814453 C 195.8769989013672 145.15899658203125 186.90699768066406 150.51199340820312 204.4250030517578 143.42300415039062" stroke-width="2.0" fill="none" stroke="rgb(255, 0, 0)" stroke-opacity="1" stroke-linecap="round" stroke-linejoin="round"/>
    <path d="M 205.8520050048828 137.00999450683594 C 178.25 162.0800018310547 201.39300537109375 136.94000244140625 191.4949951171875 143.8470001220703" stroke-width="2.0" fill="none" stroke="rgb(255, 0, 0)" stroke-opacity="1" stroke-linecap="round" stroke-linejoin="round"/>
    <path d="M 221.78700256347656 185.23599243164062 C 235.7050018310547 183.29800415039062 227.41799926757812 181.9239959716797 212.2740020751953 184.00799560546875" stroke-width="2.0" fill="none" stroke="rgb(255, 0, 0)" stroke-opacity="1" stroke-linecap="round" stroke-linejoin="round"/>
    <path d="M 198.0919952392578 106.86900329589844 C 193.06900024414062 87.89299774169922 191.3090057373047 90.74649810791016 211.2310028076172 103.65599822998047" stroke-width="2.0" fill="none" stroke="rgb(255, 0, 0)" stroke-opacity="1" stroke-linecap="round" stroke-linejoin="round"/>
    <path d="M 206.19200134277344 105.63200378417969 C 199.66299438476562 77.67009735107422 186.69900512695312 100.30899810791016 190.56199645996094 106.97699737548828" stroke-width="2.0" fill="none" stroke="rgb(255, 0, 0)" stroke-opacity="1" stroke-linecap="round" stroke-linejoin="round"/>
    <path d="M 221.29100036621094 137.35000610351562 C 223.6739959716797 145.40499877929688 223.2209930419922 133.97999572753906 222.95799255371094 148.74899291992188" stroke-width="2.0" fill="none" stroke="rgb(255, 0, 0)" stroke-opacity="1" stroke-linecap="round" stroke-linejoin="round"/>
    <path d="M 211.73599243164062 191.15199279785156 C 215.656005859375 181.0989990234375 206.89700317382812 190.03199768066406 219.03399658203125 161.09300231933594" stroke-width="2.0" fill="none" stroke="rgb(255, 0, 0)" stroke-opacity="1" stroke-linecap="round" stroke-linejoin="round"/>
    <path d="M 232.36300659179688 152.5749969482422 C 248.11000061035156 198.072998046875 239.89100646972656 184.06100463867188 244.02499389648438 184.99600219726562" stroke-width="2.0" fill="none" stroke="rgb(255, 0, 0)" stroke-opacity="1" stroke-linecap="round" stroke-linejoin="round"/>
    <path d="M 210.64199829101562 144.04600524902344 C 197.1269989013672 175.86000061035156 203.88999938964844 154.1719970703125 205.55299377441406 153.16099548339844" stroke-width="2.0" fill="none" stroke="rgb(255, 0, 0)" stroke-opacity="1" stroke-linecap="round" stroke-linejoin="round"/>
    <path d="M 192.41099548339844 149.41299438476562 C 217.51199340820312 143.02000427246094 207.947998046875 129.97900390625 198.7689971923828 150.843994140625" stroke-width="2.0" fill="none" stroke="rgb(255, 0, 0)" stroke-opacity="1" stroke-linecap="round" stroke-linejoin="round"/>
    <path d="M 236.07000732421875 162.9239959716797 C 229.98599243164062 139.5240020751953 232.2030029296875 159.49600219726562 233.99600219726562 127.80799865722656" stroke-width="2.0" fill="none" stroke="rgb(255, 0, 0)" stroke-opacity="1" stroke-linecap="round" stroke-linejoin="round"/>
    <path d="M 213.09100341796875 135.88400268554688 C 224.70399475097656 155.11300659179688 226.34800720214844 155.99899291992188 215.2100067138672 138.05299377441406" stroke-width="2.0" fill="none" stroke="rgb(255, 0, 0)" stroke-opacity="1" stroke-linecap="round" stroke-linejoin="round"/>
    <path d="M 192.25900268554688 190.96400451660156 C 213.91000366210938 189.4250030517578 216.81100463867188 192.2480010986328 204.47999572753906 191.98199462890625" stroke-width="2.0" fill="none" stroke="rgb(255, 0, 0)" stroke-opacity="1" stroke-linecap="round" stroke-linejoin="round"/>
    <path d="M 196.125 148.6529998779297 C 196.1020050048828 135.68299865722656 198.96299743652344 131.95199584960938 215.56700134277344 135.9759979248047" stroke-width="2.0" fill="none" stroke="rgb(255, 0, 0)" stroke-opacity="1" stroke-linecap="round" stroke-linejoin="round"/>
    <path d="M 199.62100219726562 139.5070037841797 C 187.73599243164062 127.0739974975586 192.33900451660156 140.07400512695312 203.02099609375 138.11599731445312" stroke-width="2.0" fill="none" stroke="rgb(255, 0, 0)" stroke-opacity="1" stroke-linecap="round" stroke-linejoin="round"/>
    <path d="M 205.46099853515625 116.13500213623047 C 207.20799255371094 105.1760025024414 217.27099609375 101.99299621582031 191.0709991455078 99.41400146484375" stroke-width="2.0" fill="none" stroke="rgb(255, 0, 0)" stroke-opacity="1" stroke-linecap="round" stroke-linejoin="round"/>
    <path d="M 221.62399291992188 148.8459930419922 C 224.73800659179688 135.79400634765625 219.49200439453125 161.09100341796875 221.91600036621094 141.20700073242188" stroke-width="2.0" fill="none" stroke="rgb(255, 0, 0)" stroke-opacity="1" stroke-linecap="round" stroke-linejoin="round"/>
    <path d="M 193.1280059814453 129.2220001220703 C 195.2729949951172 160.86099243164062 201.927001953125 132.91299438476562 191.38900756835938 139.4759979248047" stroke-width="2.0" fill="none" stroke="rgb(255, 0, 0)" stroke-opacity="1" stroke-linecap="round" stroke-linejoin="round"/>
    <path d="M 185.6300048828125 164.26600646972656 C 190.35699462890625 137.75999450683594 189.1529998779297 123.54399871826172 199.8280029296875 134.88499450683594" stroke-width="2.0" fill="none" stroke="rgb(255, 0, 0)" stroke-opacity="1" stroke-linecap="round" stroke-linejoin="round"/>
    <path d="M 194.11900329589844 151.32899475097656 C 192.88699340820312 119.27999877929688 204.90199279785156 135.78599548339844 188.59300231933594 143.76400756835938" stroke-width="2.0" fill="none" stroke="rgb(255, 0, 0)" stroke-opacity="1" stroke-linecap="round" stroke-linejoin="round"/>
    <path d="M 193.17300415039062 151.67799377441406 C 182.61900329589844 131.8209991455078 207.8000030517578 138.77099609375 191.18899536132812 144.14999389648438" stroke-width="2.0" fill="none" stroke="rgb(255, 0, 0)" stroke-opacity="1" stroke-linecap="round" stroke-linejoin="round"/>
    <path d="M 222.07699584960938 146.65899658203125 C 208.88600158691406 131.968994140625 224.70899963378906 135.01400756835938 220.23800659179688 145.25100708007812" stroke-width="2.0" fill="none" stroke="rgb(255, 0, 0)" stroke-opacity="1" stroke-linecap="round" stroke-linejoin="round"/>
    <path d="M 238.5540008544922 188.35800170898438 C 235.28399658203125 190.34300231933594 235.77499389648438 185.1790008544922 245.0 189.63099670410156" stroke-width="2.0" fill="none" stroke="rgb(255, 0, 0)" stroke-opacity="1" stroke-linecap="round" stroke-linejoin="round"/>
    <path d="M 196.31399536132812 148.44900512695312 C 207.5659942626953 133.29800415039062 201.93800354003906 131.1219940185547 198.6479949951172 147.69400024414062" stroke-width="2.0" fill="none" stroke="rgb(255, 0, 0)" stroke-opacity="1" stroke-linecap="round" stroke-linejoin="round"/>
    <path d="M 193.38900756835938 133.61500549316406 C 205.86300659179688 142.27099609375 214.06100463867188 133.1490020751953 202.66299438476562 136.03500366210938" stroke-width="2.0" fill="none" stroke="rgb(255, 0, 0)" stroke-opacity="1" stroke-linecap="round" stroke-linejoin="round"/>
    <path d="M 205.30499267578125 114.08200073242188 C 198.11199951171875 134.46600341796875 211.1529998779297 115.76200103759766 192.7030029296875 133.5919952392578" stroke-width="2.0" fill="none" stroke="rgb(255, 0, 0)" stroke-opacity="1" stroke-linecap="round" stroke-linejoin="round"/>
    <path d="M 183.5050048828125 165.52099609375 C 194.10800170898438 157.79400634765625 183.0449981689453 143.84800720214844 204.45399475097656 139.96499633789062" stroke-width="2.0" fill="none" stroke="rgb(255, 0, 0)" stroke-opacity="1" stroke-linecap="round" stroke-linejoin="round"/>
    <path d="M 202.13800048828125 98.6404037475586 C 198.86300659179688 93.22859954833984 193.52000427246094 108.0469970703125 206.38499450683594 103.197998046875" stroke-width="2.0" fill="none" stroke="rgb(255, 0, 0)" stroke-opacity="1" stroke-linecap="round" stroke-linejoin="round"/>
    <path d="M 188.42599487304688 150.72799682617188 C 203.05599975585938 156.97300720214844 208.78199768066406 140.79100036621094 188.05499267578125 154.58700561523438" stroke-width="2.0" fill="none" stroke="rgb(255, 0, 0)" stroke-opacity="1" stroke-linecap="round" stroke-linejoin="round"/>
    <path d="M 220.89100646972656 147.66299438476562 C 224.45199584960938 135.7030029296875 208.11099243164062 134.87600708007812 218.5240020751953 141.4199981689453" stroke-width="2.0" fill="none" stroke="rgb(255, 0, 0)" stroke-opacity="1" stroke-linecap="round" stroke-linejoin="round"/>
    <path d="M 190.9929962158203 102.4489974975586 C 194.70199584960938 111.23999786376953 197.71299743652344 110.6760025024414 192.86900329589844 98.66909790039062" stroke-width="2.0" fill="none" stroke="rgb(255, 0, 0)" stroke-opacity="1" stroke-linecap="round" stroke-linejoin="round"/>
    <path d="M 208.5489959716797 108.4530029296875 C 198.23199462890625 93.6676025390625 194.5279998779297 88.94999694824219 193.7550048828125 105.5" stroke-width="2.0" fill="none" stroke="rgb(255, 0, 0)" stroke-opacity="1" stroke-linecap="round" stroke-linejoin="round"/>
    <path d="M 207.00999450683594 101.1729965209961 C 200.42599487304688 125.02899932861328 207.9510040283203 123.76599884033203 196.27200317382812 128.802001953125" stroke-width="2.0" fill="none" stroke="rgb(255, 0, 0)" stroke-opacity="1" stroke-linecap="round" stroke-linejoin="round"/>
    <path d="M 191.77000427246094 131.24600219726562 C 202.99600219726562 142.94200134277344 215.01199340820312 138.54200744628906 193.89999389648438 153.5279998779297" stroke-width="2.0" fill="none" stroke="rgb(255, 0, 0)" stroke-opacity="1" stroke-linecap="round" stroke-linejoin="round"/>
    <path d="M 222.5 149.9219970703125 C 227.29299926757812 137.83399963378906 213.75399780273438 129.54400634765625 221.60000610351562 147.1179962158203" stroke-width="2.0" fill="none" stroke="rgb(255, 0, 0)" stroke-opacity="1" stroke-linecap="round" stroke-linejoin="round"/>
    <path d="M 234.13900756835938 128.15899658203125 C 237.91299438476562 129.5970001220703 229.79200744628906 139.29100036621094 232.9550018310547 135.9429931640625" stroke-width="2.0" fill="none" stroke="rgb(255, 0, 0)" stroke-opacity="1" stroke-linecap="round" stroke-linejoin="round"/>
    <path d="M 198.0279998779297 186.5449981689453 C 186.1020050048828 188.62100219726562 189.18699645996094 193.4239959716797 204.59800720214844 191.29200744628906" stroke-width="2.0" fill="none" stroke="rgb(255, 0, 0)" stroke-opacity="1" stroke-linecap="round" stroke-linejoin="round"/>
    <path d="M 198.79400634765625 106.80599975585938 C 188.27699279785156 91.08110046386719 205.6750030517578 107.27200317382812 216.4239959716797 105.46499633789062" stroke-width="2.0" fill="none" stroke="rgb(255, 0, 0)" stroke-opacity="1" stroke-linecap="round" stroke-linejoin="round"/>
    <path d="M 212.91099548339844 103.68800354003906 C 208.0800018310547 113.2040023803711 197.3090057373047 100.6709976196289 209.50799560546875 103.29199981689453" stroke-width="2.0" fill="none" stroke="rgb(255, 0, 0)" stroke-opacity="1" stroke-linecap="round" stroke-linejoin="round"/>
    <path d="M 198.04200744628906 126.93299865722656 C 187.2270050048828 148.27999877929688 192.81100463867188 154.85499572753906 207.0030059814453 131.0489959716797" stroke-width="2.0" fill="none" stroke="rgb(255, 0, 0)" stroke-opacity="1" stroke-linecap="round" stroke-linejoin="round"/>
    <path d="M 207.38900756835938 110.10600280761719 C 199.93499755859375 93.52950286865234 203.9040069580078 111.74400329589844 190.6020050048828 99.58309936523438" stroke-width="2.0" fill="none" stroke="rgb(255, 0, 0)" stroke-opacity="1" stroke-linecap="round" stroke-linejoin="round"/>
    <path d="M 221.23599243164062 137.625 C 204.24899291992188 135.41299438476562 201.5050048828125 136.4969940185547 193.57200622558594 132.35699462890625" stroke-width="2.0" fill="none" stroke="rgb(255, 0, 0)" stroke-opacity="1" stroke-linecap="round" stroke-linejoin="round"/>
    <path d="M 196.47999572753906 98.95649719238281 C 205.5749969482422 127.61699676513672 218.91099548339844 94.41829681396484 191.80099487304688 98.70449829101562" stroke-width="2.0" fill="none" stroke="rgb(255, 0, 0)" stroke-opacity="1" stroke-linecap="round" stroke-linejoin="round"/>
    <path d="M 190.23599243164062 104.28700256347656 C 194.64300537109375 106.68099975585938 196.27699279785156 101.35800170898438 193.13299560546875 96.61990356445312" stroke-width="2.0" fill="none" stroke="rgb(255, 0, 0)" stroke-opacity="1" stroke-linecap="round" stroke-linejoin="round"/>
    <path d="M 196.90199279785156 93.71659851074219 C 211.02699279785156 95.4176025390625 191.24600219726562 103.58300018310547 197.31199645996094 108.98999786376953" stroke-width="2.0" fill="none" stroke="rgb(255, 0, 0)" stroke-opacity="1" stroke-linecap="round" stroke-linejoin="round"/>
    <path d="M 198.72300720214844 147.7530059814453 C 194.5070037841797 155.656005859375 206.63099670410156 147.2949981689453 212.677001953125 136.93600463867188" stroke-width="2.0" fill="none" stroke="rgb(255, 0, 0)" stroke-opacity="1" stroke-linecap="round" stroke-linejoin="round"/>
    <path d="M 201.1820068359375 97.64029693603516 C 217.13999938964844 106.53399658203125 203.02200317382812 93.44029998779297 191.6529998779297 97.80079650878906" stroke-width="2.0" fill="none" stroke="rgb(255, 0, 0)" stroke-opacity="1" stroke-linecap="round" stroke-linejoin="round"/>
    <path d="M 207.5260009765625 105.77899932861328 C 210.75399780273438 116.31199645996094 205.71800231933594 106.2249984741211 193.5489959716797 103.81199645996094" stroke-width="2.0" fill="none" stroke="rgb(255, 0, 0)" stroke-opacity="1" stroke-linecap="round" stroke-linejoin="round"/>
    <path d="M 221.86000061035156 149.4499969482422 C 223.156005859375 149.06300354003906 225.15499877929688 148.52099609375 218.83099365234375 141.68600463867188" stroke-width="2.0" fill="none" stroke="rgb(255, 0, 0)" stroke-opacity="1" stroke-linecap="round" stroke-linejoin="round"/>
    <path d="M 190.45899963378906 101.11699676513672 C 201.11000061035156 92.25340270996094 203.41000366210938 88.54879760742188 210.07400512695312 106.73999786376953" stroke-width="2.0" fill="none" stroke="rgb(255, 0, 0)" stroke-opacity="1" stroke-linecap="round" stroke-linejoin="round"/>
    <path d="M 191.03799438476562 153.37100219726562 C 194.37899780273438 125.27899932861328 190.64500427246094 130.5679931640625 179.0 181.4770050048828" stroke-width="2.0" fill="none" stroke="rgb(255, 0, 0)" stroke-opacity="1" stroke-linecap="round" stroke-linejoin="round"/>
    <path d="M 194.1999969482422 97.44670104980469 C 205.25799560546875 94.04830169677734 207.12399291992188 93.67780303955078 210.50599670410156 104.04100036621094" stroke-width="2.0" fill="none" stroke="rgb(255, 0, 0)" stroke-opacity="1" stroke-linecap="round" stroke-linejoin="round"/>
    <path d="M 209.2270050048828 191.2899932861328 C 215.2239990234375 191.85000610351562 183.67300415039062 192.22300720214844 194.88699340820312 191.02499389648438" stroke-width="2.0" fill="none" stroke="rgb(255, 0, 0)" stroke-opacity="1" stroke-linecap="round" stroke-linejoin="round"/>
    <path d="M 204.78599548339844 105.95500183105469 C 205.7310028076172 134.40899658203125 186.55299377441406 123.09200286865234 205.00999450683594 118.1709976196289" stroke-width="2.0" fill="none" stroke="rgb(255, 0, 0)" stroke-opacity="1" stroke-linecap="round" stroke-linejoin="round"/>
    <path d="M 200.45599365234375 182.28799438476562 C 196.15199279785156 187.17999267578125 199.94400024414062 192.58999633789062 202.64100646972656 157.72999572753906" stroke-width="2.0" fill="none" stroke="rgb(255, 0, 0)" stroke-opacity="1" stroke-linecap="round" stroke-linejoin="round"/>
    <path d="M 200.07200622558594 129.63400268554688 C 194.1510009765625 156.91099548339844 210.0030059814453 148.63900756835938 189.03900146484375 149.66299438476562" stroke-width="2.0" fill="none" stroke="rgb(255, 0, 0)" stroke-opacity="1" stroke-linecap="round" stroke-linejoin="round"/>
    <path d="M 206.3820037841797 149.375 C 196.45899963378906 125.24299621582031 221.16400146484375 134.8280029296875 195.44900512695312 144.59300231933594" stroke-width="2.0" fill="none" stroke="rgb(255, 0, 0)" stroke-opacity="1" stroke-linecap="round" stroke-linejoin="round"/>
    <path d="M 191.4320068359375 102.72200012207031 C 211.06300354003906 116.1719970703125 205.86700439453125 107.55899810791016 201.23699951171875 123.41899871826172" stroke-width="2.0" fill="none" stroke="rgb(255, 0, 0)" stroke-opacity="1" stroke-linecap="round" stroke-linejoin="round"/>
    <path d="M 205.2050018310547 107.43499755859375 C 190.72900390625 102.99800109863281 203.13600158691406 85.83580017089844 200.97000122070312 105.2959976196289" stroke-width="2.0" fill="none" stroke="rgb(255, 0, 0)" stroke-opacity="1" stroke-linecap="round" stroke-linejoin="round"/>
    <path d="M 209.43600463867188 106.24700164794922 C 210.17999267578125 95.76290130615234 199.2270050048828 101.0459976196289 198.57400512695312 99.19840240478516" stroke-width="2.0" fill="none" stroke="rgb(255, 0, 0)" stroke-opacity="1" stroke-linecap="round" stroke-linejoin="round"/>
    <path d="M 196.1219940185547 110.39900207519531 C 226.98300170898438 101.5739974975586 205.70799255371094 103.60800170898438 189.9239959716797 101.92900085449219" stroke-width="2.0" fill="none" stroke="rgb(255, 0, 0)" stroke-opacity="1" stroke-linecap="round" stroke-linejoin="round"/>
    <path d="M 119.06900024414062 79.48750305175781 C 99.55829620361328 84.45850372314453 89.31549835205078 76.46009826660156 127.20800018310547 71.6072006225586" stroke-width="3.0" fill="none" stroke="rgb(255, 255, 0)" stroke-opacity="1" stroke-linecap="round" stroke-linejoin="round"/>
    <path d="M 107.11399841308594 84.1978988647461 C 126.1989974975586 69.25250244140625 127.95600128173828 82.92330169677734 81.418701171875 81.2083969116211" stroke-width="3.0" fill="none" stroke="rgb(255, 255, 0)" stroke-opacity="1" stroke-linecap="round" stroke-linejoin="round"/>
    <path d="M 101.53900146484375 82.95780181884766 C 141.46499633789062 72.74120330810547 131.26600646972656 65.4489974975586 87.85060119628906 85.56990051269531" stroke-width="3.0" fill="none" stroke="rgb(255, 255, 0)" stroke-opacity="1" stroke-linecap="round" stroke-linejoin="round"/>
    <path d="M 128.8249969482422 68.26750183105469 C 112.12699890136719 67.95719909667969 112.16799926757812 84.12190246582031 127.17500305175781 76.98860168457031" stroke-width="3.0" fill="none" stroke="rgb(255, 255, 0)" stroke-opacity="1" stroke-linecap="round" stroke-linejoin="round"/>
    <path d="M 90.10890197753906 83.36329650878906 C 138.83200073242188 69.58599853515625 142.0970001220703 69.19709777832031 92.40769958496094 84.5260009765625" stroke-width="3.0" fill="none" stroke="rgb(255, 255, 0)" stroke-opacity="1" stroke-linecap="round" stroke-linejoin="round"/>
    <path d="M 123.37200164794922 71.13490295410156 C 121.61900329589844 82.73970031738281 110.49800109863281 82.56520080566406 116.77799987792969 80.05650329589844" stroke-width="3.0" fill="none" stroke="rgb(255, 255, 0)" stroke-opacity="1" stroke-linecap="round" stroke-linejoin="round"/>
    <path d="M 139.7449951171875 88.22270202636719 C 135.35499572753906 68.21910095214844 139.4149932861328 76.2417984008789 138.0260009765625 78.10900115966797" stroke-width="3.0" fill="none" stroke="rgb(255, 0, 255)" stroke-opacity="1" stroke-linecap="round" stroke-linejoin="round"/>
    <path d="M 172.1490020751953 95.68589782714844 C 176.24400329589844 82.78150177001953 155.25399780273438 88.41799926757812 177.5970001220703 86.12650299072266" stroke-width="3.0" fill="none" stroke="rgb(255, 0, 255)" stroke-opacity="1" stroke-linecap="round" stroke-linejoin="round"/>
    <path d="M 137.53399658203125 97.06430053710938 C 132.9290008544922 97.34950256347656 120.24199676513672 102.01699829101562 149.625 99.9384994506836" stroke-width="3.0" fill="none" stroke="rgb(255, 0, 255)" stroke-opacity="1" stroke-linecap="round" stroke-linejoin="round"/>
    <path d="M 82.99510192871094 97.1510009765625 C 75.79329681396484 81.71060180664062 141.36199951171875 88.4031982421875 78.59140014648438 83.21849822998047" stroke-width="3.0" fill="none" stroke="rgb(255, 255, 0)" stroke-opacity="1" stroke-linecap="round" stroke-linejoin="round"/>
    <path d="M 87.30850219726562 80.44219970703125 C 144.04299926757812 70.75689697265625 123.24700164794922 65.10220336914062 119.39900207519531 74.40229797363281" stroke-width="3.0" fill="none" stroke="rgb(255, 255, 0)" stroke-opacity="1" stroke-linecap="round" stroke-linejoin="round"/>
    <path d="M 113.59300231933594 85.09770202636719 C 101.53700256347656 82.4469985961914 103.25900268554688 94.47200012207031 112.87899780273438 76.93720245361328" stroke-width="3.0" fill="none" stroke="rgb(255, 255, 0)" stroke-opacity="1" stroke-linecap="round" stroke-linejoin="round"/>
    <path d="M 136.10699462890625 25.454500198364258 C 166.43099975585938 18.286399841308594 130.64999389648438 29.003299713134766 141.9080047607422 32.28329849243164" stroke-width="3.0" fill="none" stroke="rgb(255, 0, 255)" stroke-opacity="1" stroke-linecap="round" stroke-linejoin="round"/>
    <path d="M 169.96800231933594 44.75270080566406 C 156.19200134277344 22.58340072631836 139.19900512695312 43.36690139770508 147.93899536132812 23.579500198364258" stroke-width="3.0" fill="none" stroke="rgb(255, 0, 255)" stroke-opacity="1" stroke-linecap="round" stroke-linejoin="round"/>
    <path d="M 95.62470245361328 79.79679870605469 C 130.79299926757812 97.24349975585938 150.18699645996094 88.70390319824219 133.89300537109375 98.01719665527344" stroke-width="3.0" fill="none" stroke="rgb(255, 255, 0)" stroke-opacity="1" stroke-linecap="round" stroke-linejoin="round"/>
    <path d="M 119.26699829101562 81.33429718017578 C 135.12399291992188 68.80470275878906 127.66899871826172 73.63089752197266 98.96209716796875 86.35310363769531" stroke-width="3.0" fill="none" stroke="rgb(255, 255, 0)" stroke-opacity="1" stroke-linecap="round" stroke-linejoin="round"/>
    <path d="M 84.52420043945312 99.13719940185547 C 80.63970184326172 91.25849914550781 80.35430145263672 102.4739990234375 82.91799926757812 90.32890319824219" stroke-width="3.0" fill="none" stroke="rgb(255, 255, 0)" stroke-opacity="1" stroke-linecap="round" stroke-linejoin="round"/>
    <path d="M 106.71700286865234 92.368896484375 C 105.20999908447266 78.65370178222656 105.46399688720703 96.88770294189453 106.0739974975586 93.49690246582031" stroke-width="3.0" fill="none" stroke="rgb(255, 255, 0)" stroke-opacity="1" stroke-linecap="round" stroke-linejoin="round"/>
    <path d="M 149.822998046875 99.50430297851562 C 148.91900634765625 86.46980285644531 153.91099548339844 104.18199920654297 149.91200256347656 80.5353012084961" stroke-width="3.0" fill="none" stroke="rgb(255, 0, 255)" stroke-opacity="1" stroke-linecap="round" stroke-linejoin="round"/>
    <path d="M 120.88400268554688 72.96920013427734 C 129.89300537109375 75.87960052490234 132.24600219726562 76.71099853515625 112.01100158691406 77.6990966796875" stroke-width="3.0" fill="none" stroke="rgb(255, 255, 0)" stroke-opacity="1" stroke-linecap="round" stroke-linejoin="round"/>
    <path d="M 175.72900390625 94.26789855957031 C 184.13099670410156 75.89029693603516 173.23300170898438 98.1583023071289 177.08900451660156 87.4489974975586" stroke-width="3.0" fill="none" stroke="rgb(255, 0, 255)" stroke-opacity="1" stroke-linecap="round" stroke-linejoin="round"/>
    <path d="M 109.80799865722656 82.87120056152344 C 107.46800231933594 90.31400299072266 96.90979766845703 72.61499786376953 117.36900329589844 73.37969970703125" stroke-width="3.0" fill="none" stroke="rgb(255, 255, 0)" stroke-opacity="1" stroke-linecap="round" stroke-linejoin="round"/>
    <path d="M 143.23500061035156 34.357200622558594 C 127.90399932861328 22.903799057006836 144.8489990234375 36.127201080322266 147.6020050048828 22.201000213623047" stroke-width="3.0" fill="none" stroke="rgb(255, 0, 255)" stroke-opacity="1" stroke-linecap="round" stroke-linejoin="round"/>
    <path d="M 104.35900115966797 87.94560241699219 C 115.06800079345703 100.56199645996094 87.22959899902344 107.60900115966797 84.54129791259766 97.80999755859375" stroke-width="3.0" fill="none" stroke="rgb(255, 255, 0)" stroke-opacity="1" stroke-linecap="round" stroke-linejoin="round"/>
    <path d="M 122.88500213623047 76.4292984008789 C 94.5176010131836 69.7177963256836 124.16200256347656 83.51200103759766 124.2229995727539 72.4447021484375" stroke-width="3.0" fill="none" stroke="rgb(255, 255, 0)" stroke-opacity="1" stroke-linecap="round" stroke-linejoin="round"/>
    <path d="M 139.0240020751953 59.95650100708008 C 134.01400756835938 69.91840362548828 139.7530059814453 66.85690307617188 136.85299682617188 65.25350189208984" stroke-width="3.0" fill="none" stroke="rgb(255, 0, 255)" stroke-opacity="1" stroke-linecap="round" stroke-linejoin="round"/>
    <path d="M 107.24299621582031 75.5886001586914 C 85.57869720458984 80.42220306396484 119.4000015258789 69.85199737548828 124.67900085449219 69.07340240478516" stroke-width="3.0" fill="none" stroke="rgb(255, 255, 0)" stroke-opacity="1" stroke-linecap="round" stroke-linejoin="round"/>
    <path d="M 84.38159942626953 84.2822036743164 C 110.57599639892578 89.95659637451172 114.77200317382812 90.04049682617188 96.62830352783203 81.79679870605469" stroke-width="3.0" fill="none" stroke="rgb(255, 255, 0)" stroke-opacity="1" stroke-linecap="round" stroke-linejoin="round"/>
    <path d="M 122.94100189208984 80.38169860839844 C 112.48300170898438 77.60420227050781 85.63610076904297 79.66729736328125 118.45099639892578 74.55670166015625" stroke-width="3.0" fill="none" stroke="rgb(255, 255, 0)" stroke-opacity="1" stroke-linecap="round" stroke-linejoin="round"/>
    <path d="M 129.5050048828125 70.02239990234375 C 114.21800231933594 74.04519653320312 119.8489990234375 70.41459655761719 99.95339965820312 79.33319854736328" stroke-width="3.0" fill="none" stroke="rgb(255, 255, 0)" stroke-opacity="1" stroke-linecap="round" stroke-linejoin="round"/>
    <path d="M 128.3769989013672 75.6729965209961 C 111.0270004272461 69.44840240478516 111.5770034790039 72.72059631347656 78.0000991821289 82.52279663085938" stroke-width="3.0" fill="none" stroke="rgb(255, 255, 0)" stroke-opacity="1" stroke-linecap="round" stroke-linejoin="round"/>
    <path d="M 107.94200134277344 78.68879699707031 C 124.57499694824219 65.9480972290039 141.91099548339844 78.63690185546875 111.55799865722656 85.89869689941406" stroke-width="3.0" fill="none" stroke="rgb(255, 255, 0)" stroke-opacity="1" stroke-linecap="round" stroke-linejoin="round"/>
    <path d="M 104.93199920654297 87.37960052490234 C 109.53099822998047 80.4281005859375 125.38999938964844 76.2571029663086 114.90299987792969 81.90190124511719" stroke-width="3.0" fill="none" stroke="rgb(255, 255, 0)" stroke-opacity="1" stroke-linecap="round" stroke-linejoin="round"/>
    <path d="M 97.69239807128906 86.54550170898438 C 119.35299682617188 94.92250061035156 95.4113998413086 107.92500305175781 87.16999816894531 101.07599639892578" stroke-width="3.0" fill="none" stroke="rgb(255, 255, 0)" stroke-opacity="1" stroke-linecap="round" stroke-linejoin="round"/>
    <path d="M 118.8759994506836 75.9009017944336 C 102.99099731445312 90.25240325927734 105.12000274658203 74.73709869384766 127.53399658203125 83.67829895019531" stroke-width="3.0" fill="none" stroke="rgb(255, 255, 0)" stroke-opacity="1" stroke-linecap="round" stroke-linejoin="round"/>
    <path d="M 112.83899688720703 77.53700256347656 C 136.46299743652344 79.40260314941406 112.74400329589844 83.39289855957031 105.16100311279297 89.29329681396484" stroke-width="3.0" fill="none" stroke="rgb(255, 255, 0)" stroke-opacity="1" stroke-linecap="round" stroke-linejoin="round"/>
    <path d="M 137.69000244140625 66.10790252685547 C 139.77999877929688 64.07479858398438 132.1510009765625 69.77059936523438 139.0989990234375 57.35100173950195" stroke-width="3.0" fill="none" stroke="rgb(255, 0, 255)" stroke-opacity="1" stroke-linecap="round" stroke-linejoin="round"/>
    <path d="M 114.54399871826172 83.55590057373047 C 103.4280014038086 72.60340118408203 70.0979995727539 79.21939849853516 121.6259994506836 81.81099700927734" stroke-width="3.0" fill="none" stroke="rgb(255, 255, 0)" stroke-opacity="1" stroke-linecap="round" stroke-linejoin="round"/>
    <path d="M 146.95599365234375 30.65329933166504 C 157.76800537109375 14.308799743652344 122.59200286865234 18.57979965209961 143.67100524902344 31.297199249267578" stroke-width="3.0" fill="none" stroke="rgb(255, 0, 255)" stroke-opacity="1" stroke-linecap="round" stroke-linejoin="round"/>
    <path d="M 137.22900390625 75.0468978881836 C 126.65399932861328 84.18450164794922 117.69200134277344 83.90380096435547 99.56639862060547 81.13860321044922" stroke-width="3.0" fill="none" stroke="rgb(255, 255, 0)" stroke-opacity="1" stroke-linecap="round" stroke-linejoin="round"/>
    <path d="M 96.77249908447266 78.12110137939453 C 128.83299255371094 82.16940307617188 103.16000366210938 88.75669860839844 125.36399841308594 68.58509826660156" stroke-width="3.0" fill="none" stroke="rgb(255, 255, 0)" stroke-opacity="1" stroke-linecap="round" stroke-linejoin="round"/>
    <path d="M 162.41099548339844 54.758399963378906 C 179.35400390625 37.04069900512695 166.42799377441406 40.114898681640625 169.58299255371094 42.33810043334961" stroke-width="3.0" fill="none" stroke="rgb(255, 0, 255)" stroke-opacity="1" stroke-linecap="round" stroke-linejoin="round"/>
    <path d="M 137.1529998779297 37.81480026245117 C 128.03399658203125 40.5802001953125 147.68800354003906 80.90869903564453 135.7689971923828 45.78139877319336" stroke-width="3.0" fill="none" stroke="rgb(255, 0, 255)" stroke-opacity="1" stroke-linecap="round" stroke-linejoin="round"/>
    <path d="M 144.65899658203125 29.820499420166016 C 127.85299682617188 47.47679901123047 140.28399658203125 49.11090087890625 136.29200744628906 55.65190124511719" stroke-width="3.0" fill="none" stroke="rgb(255, 0, 255)" stroke-opacity="1" stroke-linecap="round" stroke-linejoin="round"/>
    <path d="M 120.95999908447266 78.81539916992188 C 110.052001953125 86.3821029663086 109.62899780273438 91.38480377197266 110.93099975585938 78.61499786376953" stroke-width="3.0" fill="none" stroke="rgb(255, 255, 0)" stroke-opacity="1" stroke-linecap="round" stroke-linejoin="round"/>
    <path d="M 120.34300231933594 75.29389953613281 C 128.47999572753906 80.09739685058594 131.4510040283203 75.24359893798828 140.28500366210938 58.83570098876953" stroke-width="3.0" fill="none" stroke="rgb(255, 255, 0)" stroke-opacity="1" stroke-linecap="round" stroke-linejoin="round"/>
    <path d="M 106.13999938964844 96.97270202636719 C 92.1675033569336 110.81500244140625 78.14640045166016 94.0531997680664 81.595703125 97.96700286865234" stroke-width="3.0" fill="none" stroke="rgb(255, 255, 0)" stroke-opacity="1" stroke-linecap="round" stroke-linejoin="round"/>
    <path d="M 139.2790069580078 36.173301696777344 C 142.1020050048828 24.134199142456055 155.73300170898438 15.246999740600586 134.94700622558594 24.286699295043945" stroke-width="3.0" fill="none" stroke="rgb(255, 0, 255)" stroke-opacity="1" stroke-linecap="round" stroke-linejoin="round"/>
    <path d="M 135.23399353027344 42.454498291015625 C 159.2760009765625 15.632100105285645 146.5800018310547 15.870400428771973 135.65899658203125 46.161598205566406" stroke-width="3.0" fill="none" stroke="rgb(255, 0, 255)" stroke-opacity="1" stroke-linecap="round" stroke-linejoin="round"/>
    <path d="M 136.2689971923828 32.125301361083984 C 157.01800537109375 27.582599639892578 137.2740020751953 11.10949993133545 136.51600646972656 28.71150016784668" stroke-width="3.0" fill="none" stroke="rgb(255, 0, 255)" stroke-opacity="1" stroke-linecap="round" stroke-linejoin="round"/>
    <path d="M 154.04800415039062 69.27469635009766 C 152.8470001220703 82.2166976928711 153.12899780273438 72.0885009765625 169.7209930419922 86.87329864501953" stroke-width="3.0" fill="none" stroke="rgb(255, 0, 255)" stroke-opacity="1" stroke-linecap="round" stroke-linejoin="round"/>
    <path d="M 167.0590057373047 39.79280090332031 C 175.38800048828125 41.7495002746582 173.62399291992188 40.3734016418457 168.8719940185547 45.669898986816406" stroke-width="3.0" fill="none" stroke="rgb(255, 0, 255)" stroke-opacity="1" stroke-linecap="round" stroke-linejoin="round"/>
    <path d="M 137.01199340820312 66.32559967041016 C 134.44700622558594 69.96949768066406 139.38400268554688 59.23469924926758 134.59300231933594 65.84660339355469" stroke-width="3.0" fill="none" stroke="rgb(255, 0, 255)" stroke-opacity="1" stroke-linecap="round" stroke-linejoin="round"/>
    <path d="M 164.947998046875 54.03329849243164 C 178.93699645996094 30.358999252319336 172.6439971923828 44.793701171875 160.95199584960938 54.04100036621094" stroke-width="3.0" fill="none" stroke="rgb(255, 0, 255)" stroke-opacity="1" stroke-linecap="round" stroke-linejoin="round"/>
    <path d="M 119.5009994506836 73.94819641113281 C 113.90499877929688 74.73259735107422 124.63300323486328 96.9729995727539 128.58299255371094 69.989501953125" stroke-width="3.0" fill="none" stroke="rgb(255, 255, 0)" stroke-opacity="1" stroke-linecap="round" stroke-linejoin="round"/>
    <path d="M 138.20799255371094 22.35460090637207 C 138.17799377441406 48.81719970703125 132.2689971923828 9.70895004272461 137.8780059814453 32.7322998046875" stroke-width="3.0" fill="none" stroke="rgb(255, 0, 255)" stroke-opacity="1" stroke-linecap="round" stroke-linejoin="round"/>
    <path d="M 135.71800231933594 90.73729705810547 C 115.26699829101562 75.97380065917969 123.60299682617188 70.9896011352539 96.51329803466797 82.60590362548828" stroke-width="3.0" fill="none" stroke="rgb(255, 255, 0)" stroke-opacity="1" stroke-linecap="round" stroke-linejoin="round"/>
    <path d="M 136.41299438476562 24.721099853515625 C 162.39500427246094 33.51300048828125 129.07000732421875 35.44139862060547 145.19000244140625 20.95359992980957" stroke-width="3.0" fill="none" stroke="rgb(255, 0, 255)" stroke-opacity="1" stroke-linecap="round" stroke-linejoin="round"/>
    <path d="M 133.1219940185547 98.7197036743164 C 146.7449951171875 96.89070129394531 133.72900390625 88.50589752197266 133.79299926757812 90.83609771728516" stroke-width="3.0" fill="none" stroke="rgb(255, 255, 0)" stroke-opacity="1" stroke-linecap="round" stroke-linejoin="round"/>
    <path d="M 146.51699829101562 29.452199935913086 C 152.14999389648438 17.4148006439209 139.4029998779297 23.329099655151367 135.57200622558594 26.193899154663086" stroke-width="3.0" fill="none" stroke="rgb(255, 0, 255)" stroke-opacity="1" stroke-linecap="round" stroke-linejoin="round"/>
    <path d="M 82.20490264892578 95.63710021972656 C 76.13670349121094 100.89399719238281 77.76599884033203 96.77880096435547 85.92070007324219 99.6946029663086" stroke-width="3.0" fill="none" stroke="rgb(255, 255, 0)" stroke-opacity="1" stroke-linecap="round" stroke-linejoin="round"/>
    <path d="M 130.197998046875 68.42649841308594 C 103.7959976196289 73.5436019897461 126.87100219726562 77.58709716796875 120.0780029296875 77.00969696044922" stroke-width="3.0" fill="none" stroke="rgb(255, 255, 0)" stroke-opacity="1" stroke-linecap="round" stroke-linejoin="round"/>
    <path d="M 83.0365982055664 97.87889862060547 C 74.5167007446289 88.5886001586914 96.98149871826172 86.78569793701172 86.6063003540039 88.99199676513672" stroke-width="3.0" fill="none" stroke="rgb(255, 255, 0)" stroke-opacity="1" stroke-linecap="round" stroke-linejoin="round"/>
    <path d="M 123.4219970703125 82.5363998413086 C 94.07219696044922 92.8595962524414 108.3010025024414 84.59249877929688 123.49700164794922 77.52459716796875" stroke-width="3.0" fill="none" stroke="rgb(255, 255, 0)" stroke-opacity="1" stroke-linecap="round" stroke-linejoin="round"/>
    <path d="M 138.6269989013672 92.9384994506836 C 145.63499450683594 83.93840026855469 134.14500427246094 83.56300354003906 142.08099365234375 65.34269714355469" stroke-width="3.0" fill="none" stroke="rgb(255, 0, 255)" stroke-opacity="1" stroke-linecap="round" stroke-linejoin="round"/>
    <path d="M 159.1999969482422 63.74769973754883 C 160.11900329589844 58.331298828125 163.093994140625 59.575401306152344 170.53500366210938 40.97420120239258" stroke-width="3.0" fill="none" stroke="rgb(255, 0, 255)" stroke-opacity="1" stroke-linecap="round" stroke-linejoin="round"/>
    <path d="M 138.21800231933594 33.65810012817383 C 153.5260009765625 25.282800674438477 139.33200073242188 24.033000946044922 132.87899780273438 25.129499435424805" stroke-width="3.0" fill="none" stroke="rgb(255, 0, 255)" stroke-opacity="1" stroke-linecap="round" stroke-linejoin="round"/>
    <path d="M 153.8300018310547 69.20770263671875 C 170.64999389648438 58.37710189819336 158.82699584960938 49.04629898071289 163.22000122070312 61.06039810180664" stroke-width="3.0" fill="none" stroke="rgb(255, 0, 255)" stroke-opacity="1" stroke-linecap="round" stroke-linejoin="round"/>
    <path d="M 149.94400024414062 33.16780090332031 C 138.13400268554688 26.02440071105957 142.23399353027344 24.219900131225586 147.2740020751953 27.798500061035156" stroke-width="3.0" fill="none" stroke="rgb(255, 0, 255)" stroke-opacity="1" stroke-linecap="round" stroke-linejoin="round"/>
  </g>
</svg>
