<?xml version="1.0" ?>
<svg xmlns="http://www.w3.org/2000/svg" version="1.1" width="256" height="256">
  <defs/>
  <g>
    <path d="M 92.44100189208984 213.86399841308594 C 44.707801818847656 209.95199584960938 36.64889907836914 211.04200744628906 62.611900329589844 205.10899353027344" stroke-width="2.0" fill="none" stroke="rgb(0, 0, 255)" stroke-opacity="1" stroke-linecap="round" stroke-linejoin="round"/>
    <path d="M 57.26940155029297 198.56900024414062 C 74.2333984375 179.53500366210938 34.96139907836914 187.01800537109375 68.24510192871094 180.49000549316406" stroke-width="2.0" fill="none" stroke="rgb(0, 0, 255)" stroke-opacity="1" stroke-linecap="round" stroke-linejoin="round"/>
    <path d="M 83.68550109863281 209.68299865722656 C 115.80599975585938 189.3459930419922 92.45369720458984 203.18600463867188 109.5479965209961 210.73199462890625" stroke-width="2.0" fill="none" stroke="rgb(0, 0, 255)" stroke-opacity="1" stroke-linecap="round" stroke-linejoin="round"/>
    <path d="M 57.812599182128906 178.60400390625 C 56.0547981262207 198.34800720214844 30.441200256347656 186.6280059814453 100.33000183105469 187.00900268554688" stroke-width="2.0" fill="none" stroke="rgb(0, 0, 255)" stroke-opacity="1" stroke-linecap="round" stroke-linejoin="round"/>
    <path d="M 40.07360076904297 202.64199829101562 C 57.719200134277344 196.36199951171875 41.17210006713867 203.92799377441406 50.95539855957031 191.50999450683594" stroke-width="2.0" fill="none" stroke="rgb(0, 0, 255)" stroke-opacity="1" stroke-linecap="round" stroke-linejoin="round"/>
    <path d="M 62.14080047607422 194.3350067138672 C 75.4375 205.13800048828125 17.775699615478516 199.1540069580078 76.86589813232422 188.07899475097656" stroke-width="2.0" fill="none" stroke="rgb(0, 0, 255)" stroke-opacity="1" stroke-linecap="round" stroke-linejoin="round"/>
    <path d="M 74.12519836425781 216.87100219726562 C 110.46499633789062 166.26800537109375 86.05169677734375 179.63400268554688 92.33100128173828 216.5850067138672" stroke-width="2.0" fill="none" stroke="rgb(0, 0, 255)" stroke-opacity="1" stroke-linecap="round" stroke-linejoin="round"/>
    <path d="M 81.77850341796875 185.4199981689453 C 138.73500061035156 212.96499633789062 110.84200286865234 216.72799682617188 45.992401123046875 191.83399963378906" stroke-width="2.0" fill="none" stroke="rgb(0, 0, 255)" stroke-opacity="1" stroke-linecap="round" stroke-linejoin="round"/>
    <path d="M 46.36000061035156 201.6959991455078 C 126.2040023803711 178.22999572753906 121.3740005493164 193.06700134277344 36.898799896240234 213.96299743652344" stroke-width="2.0" fill="none" stroke="rgb(0, 0, 255)" stroke-opacity="1" stroke-linecap="round" stroke-linejoin="round"/>
    <path d="M 49.71030044555664 177.25999450683594 C 40.61940002441406 231.45199584960938 53.74919891357422 158.0749969482422 56.71860122680664 188.07699584960938" stroke-width="2.0" fill="none" stroke="rgb(0, 0, 255)" stroke-opacity="1" stroke-linecap="round" stroke-linejoin="round"/>
    <path d="M 95.32779693603516 211.81500244140625 C 102.78399658203125 183.16400146484375 99.2384033203125 158.23500061035156 103.71299743652344 210.63499450683594" stroke-width="2.0" fill="none" stroke="rgb(0, 0, 255)" stroke-opacity="1" stroke-linecap="round" stroke-linejoin="round"/>
    <path d="M 49.24449920654297 195.14300537109375 C 63.906700134277344 201.21600341796875 31.957300186157227 233.0189971923828 101.87899780273438 214.15899658203125" stroke-width="2.0" fill="none" stroke="rgb(0, 0, 255)" stroke-opacity="1" stroke-linecap="round" stroke-linejoin="round"/>
    <path d="M 59.69430160522461 221.6580047607422 C 33.1515007019043 220.78500366210938 20.727100372314453 231.7220001220703 79.12439727783203 187.7469940185547" stroke-width="2.0" fill="none" stroke="rgb(0, 0, 255)" stroke-opacity="1" stroke-linecap="round" stroke-linejoin="round"/>
    <path d="M 62.245201110839844 182.46299743652344 C 81.80940246582031 204.42300415039062 85.62460327148438 220.9219970703125 40.802101135253906 208.06500244140625" stroke-width="2.0" fill="none" stroke="rgb(0, 0, 255)" stroke-opacity="1" stroke-linecap="round" stroke-linejoin="round"/>
    <path d="M 49.92100143432617 176.64199829101562 C 112.96499633789062 168.4080047607422 108.37100219726562 187.0 100.04299926757812 214.87399291992188" stroke-width="2.0" fill="none" stroke="rgb(0, 0, 255)" stroke-opacity="1" stroke-linecap="round" stroke-linejoin="round"/>
    <path d="M 72.48709869384766 212.6320037841797 C 22.800199508666992 239.97900390625 76.32969665527344 223.24099731445312 100.60399627685547 175.3090057373047" stroke-width="2.0" fill="none" stroke="rgb(0, 0, 255)" stroke-opacity="1" stroke-linecap="round" stroke-linejoin="round"/>
    <path d="M 107.56400299072266 183.197998046875 C 99.37419891357422 231.8800048828125 81.4728012084961 202.12899780273438 39.12630081176758 213.15499877929688" stroke-width="2.0" fill="none" stroke="rgb(0, 0, 255)" stroke-opacity="1" stroke-linecap="round" stroke-linejoin="round"/>
    <path d="M 39.230899810791016 211.27200317382812 C 115.43099975585938 168.8699951171875 137.53399658203125 180.26499938964844 48.552799224853516 187.43499755859375" stroke-width="2.0" fill="none" stroke="rgb(0, 0, 255)" stroke-opacity="1" stroke-linecap="round" stroke-linejoin="round"/>
    <path d="M 35.736698150634766 223.01199340820312 C 44.757999420166016 167.46099853515625 42.27579879760742 227.0760040283203 60.37189865112305 215.9949951171875" stroke-width="2.0" fill="none" stroke="rgb(0, 0, 255)" stroke-opacity="1" stroke-linecap="round" stroke-linejoin="round"/>
    <path d="M 81.59639739990234 201.1999969482422 C 31.030500411987305 203.2220001220703 48.72850036621094 165.3780059814453 68.28690338134766 183.5030059814453" stroke-width="2.0" fill="none" stroke="rgb(0, 0, 255)" stroke-opacity="1" stroke-linecap="round" stroke-linejoin="round"/>
    <path d="M 39.100399017333984 196.49400329589844 C 33.3468017578125 239.2480010986328 37.13370132446289 173.2899932861328 97.28520202636719 179.14999389648438" stroke-width="2.0" fill="none" stroke="rgb(0, 0, 255)" stroke-opacity="1" stroke-linecap="round" stroke-linejoin="round"/>
    <path d="M 85.02799987792969 196.53500366210938 C 37.37099838256836 220.9980010986328 111.51699829101562 222.2480010986328 37.4379997253418 216.98800659179688" stroke-width="2.0" fill="none" stroke="rgb(0, 0, 255)" stroke-opacity="1" stroke-linecap="round" stroke-linejoin="round"/>
    <path d="M 47.21910095214844 210.2969970703125 C 73.62920379638672 185.18299865722656 59.454200744628906 173.43699645996094 105.71399688720703 177.9219970703125" stroke-width="2.0" fill="none" stroke="rgb(0, 0, 255)" stroke-opacity="1" stroke-linecap="round" stroke-linejoin="round"/>
    <path d="M 49.334598541259766 174.71299743652344 C 108.69200134277344 176.49899291992188 92.5280990600586 170.57000732421875 103.1719970703125 192.75799560546875" stroke-width="2.0" fill="none" stroke="rgb(0, 0, 255)" stroke-opacity="1" stroke-linecap="round" stroke-linejoin="round"/>
    <path d="M 83.41600036621094 213.47300720214844 C 63.183101654052734 183.05499267578125 86.16490173339844 180.33700561523438 110.79199981689453 216.8560028076172" stroke-width="2.0" fill="none" stroke="rgb(0, 0, 255)" stroke-opacity="1" stroke-linecap="round" stroke-linejoin="round"/>
    <path d="M 101.74099731445312 186.4040069580078 C 29.901899337768555 175.58099365234375 66.57550048828125 192.45700073242188 102.45899963378906 220.91400146484375" stroke-width="2.0" fill="none" stroke="rgb(0, 0, 255)" stroke-opacity="1" stroke-linecap="round" stroke-linejoin="round"/>
    <path d="M 96.43930053710938 197.1840057373047 C 102.25199890136719 198.2259979248047 135.01199340820312 232.59100341796875 58.71500015258789 216.7469940185547" stroke-width="2.0" fill="none" stroke="rgb(0, 0, 255)" stroke-opacity="1" stroke-linecap="round" stroke-linejoin="round"/>
    <path d="M 99.01119995117188 154.07699584960938 C 104.8239974975586 155.1179962158203 137.58399963378906 189.48300170898438 61.28689956665039 173.63900756835938" stroke-width="2.0" fill="none" stroke="rgb(0, 0, 255)" stroke-opacity="1" stroke-linecap="round" stroke-linejoin="round"/>
    <path d="M 104.31300354003906 143.29600524902344 C 32.47380065917969 132.4739990234375 69.14739990234375 149.3489990234375 105.03099822998047 177.80599975585938" stroke-width="2.0" fill="none" stroke="rgb(0, 0, 255)" stroke-opacity="1" stroke-linecap="round" stroke-linejoin="round"/>
    <path d="M 85.98780059814453 170.36500549316406 C 65.75489807128906 139.947998046875 88.73670196533203 137.22900390625 113.36399841308594 173.7480010986328" stroke-width="2.0" fill="none" stroke="rgb(0, 0, 255)" stroke-opacity="1" stroke-linecap="round" stroke-linejoin="round"/>
    <path d="M 51.90650177001953 131.60499572753906 C 111.26399993896484 133.39100646972656 95.0999984741211 127.46199798583984 105.74400329589844 149.64999389648438" stroke-width="2.0" fill="none" stroke="rgb(0, 0, 255)" stroke-opacity="1" stroke-linecap="round" stroke-linejoin="round"/>
    <path d="M 49.79090118408203 167.18899536132812 C 76.20099639892578 142.0749969482422 62.0260009765625 130.32899475097656 108.28500366210938 134.81399536132812" stroke-width="2.0" fill="none" stroke="rgb(0, 0, 255)" stroke-opacity="1" stroke-linecap="round" stroke-linejoin="round"/>
    <path d="M 87.59980010986328 153.427001953125 C 39.942901611328125 177.89100646972656 114.08899688720703 179.13999938964844 40.0098991394043 173.8800048828125" stroke-width="2.0" fill="none" stroke="rgb(0, 0, 255)" stroke-opacity="1" stroke-linecap="round" stroke-linejoin="round"/>
    <path d="M 41.672298431396484 153.38699340820312 C 35.91859817504883 196.13999938964844 39.705501556396484 130.1820068359375 99.85700225830078 136.04200744628906" stroke-width="2.0" fill="none" stroke="rgb(0, 0, 255)" stroke-opacity="1" stroke-linecap="round" stroke-linejoin="round"/>
    <path d="M 84.16819763183594 158.09300231933594 C 33.60240173339844 160.11399841308594 51.30030059814453 122.2699966430664 70.85870361328125 140.39500427246094" stroke-width="2.0" fill="none" stroke="rgb(0, 0, 255)" stroke-opacity="1" stroke-linecap="round" stroke-linejoin="round"/>
    <path d="M 38.30849838256836 179.9040069580078 C 47.32979965209961 124.35299682617188 44.847599029541016 183.96800231933594 62.94369888305664 172.88699340820312" stroke-width="2.0" fill="none" stroke="rgb(0, 0, 255)" stroke-opacity="1" stroke-linecap="round" stroke-linejoin="round"/>
    <path d="M 41.80270004272461 168.16400146484375 C 118.00299835205078 125.76200103759766 140.10499572753906 137.15699768066406 51.12459945678711 144.32699584960938" stroke-width="2.0" fill="none" stroke="rgb(0, 0, 255)" stroke-opacity="1" stroke-linecap="round" stroke-linejoin="round"/>
    <path d="M 110.13600158691406 140.08999633789062 C 101.94599914550781 188.77200317382812 84.0447006225586 159.02099609375 41.69810104370117 170.0469970703125" stroke-width="2.0" fill="none" stroke="rgb(0, 0, 255)" stroke-opacity="1" stroke-linecap="round" stroke-linejoin="round"/>
    <path d="M 75.05899810791016 169.52499389648438 C 25.371999740600586 196.87100219726562 78.90149688720703 180.13299560546875 103.1760025024414 132.2010040283203" stroke-width="2.0" fill="none" stroke="rgb(0, 0, 255)" stroke-opacity="1" stroke-linecap="round" stroke-linejoin="round"/>
    <path d="M 52.49290084838867 133.53399658203125 C 115.53600311279297 125.30000305175781 110.94300079345703 143.89199829101562 102.61499786376953 171.76600646972656" stroke-width="2.0" fill="none" stroke="rgb(0, 0, 255)" stroke-opacity="1" stroke-linecap="round" stroke-linejoin="round"/>
    <path d="M 64.81700134277344 139.35499572753906 C 84.3812026977539 161.31500244140625 88.19640350341797 177.81399536132812 43.3739013671875 164.95700073242188" stroke-width="2.0" fill="none" stroke="rgb(0, 0, 255)" stroke-opacity="1" stroke-linecap="round" stroke-linejoin="round"/>
    <path d="M 62.2661018371582 178.5500030517578 C 35.72330093383789 177.67799377441406 23.298900604248047 188.61500549316406 81.69619750976562 144.63900756835938" stroke-width="2.0" fill="none" stroke="rgb(0, 0, 255)" stroke-opacity="1" stroke-linecap="round" stroke-linejoin="round"/>
    <path d="M 51.81629943847656 152.03500366210938 C 66.47859954833984 158.10800170898438 34.52909851074219 189.91099548339844 104.45099639892578 171.05099487304688" stroke-width="2.0" fill="none" stroke="rgb(0, 0, 255)" stroke-opacity="1" stroke-linecap="round" stroke-linejoin="round"/>
    <path d="M 97.89959716796875 168.70700073242188 C 105.3550033569336 140.05599975585938 101.80999755859375 115.12799835205078 106.28500366210938 167.5279998779297" stroke-width="2.0" fill="none" stroke="rgb(0, 0, 255)" stroke-opacity="1" stroke-linecap="round" stroke-linejoin="round"/>
    <path d="M 52.282100677490234 134.15199279785156 C 43.191200256347656 188.343994140625 56.32109832763672 114.96700286865234 59.29050064086914 144.968994140625" stroke-width="2.0" fill="none" stroke="rgb(0, 0, 255)" stroke-opacity="1" stroke-linecap="round" stroke-linejoin="round"/>
    <path d="M 48.931800842285156 158.58900451660156 C 128.77499389648438 135.1219940185547 123.94599914550781 149.95899963378906 39.470699310302734 170.85499572753906" stroke-width="2.0" fill="none" stroke="rgb(0, 0, 255)" stroke-opacity="1" stroke-linecap="round" stroke-linejoin="round"/>
    <path d="M 84.35030364990234 142.31199645996094 C 141.30599975585938 169.85699462890625 113.41400146484375 173.6199951171875 48.56420135498047 148.7259979248047" stroke-width="2.0" fill="none" stroke="rgb(0, 0, 255)" stroke-opacity="1" stroke-linecap="round" stroke-linejoin="round"/>
    <path d="M 76.6969985961914 173.76300048828125 C 113.03700256347656 123.16000366210938 88.62359619140625 136.52699279785156 94.90280151367188 173.4770050048828" stroke-width="2.0" fill="none" stroke="rgb(0, 0, 255)" stroke-opacity="1" stroke-linecap="round" stroke-linejoin="round"/>
    <path d="M 64.71260070800781 151.2270050048828 C 78.0093994140625 162.02999877929688 20.34749984741211 156.04600524902344 79.43779754638672 144.9720001220703" stroke-width="2.0" fill="none" stroke="rgb(0, 0, 255)" stroke-opacity="1" stroke-linecap="round" stroke-linejoin="round"/>
    <path d="M 42.64540100097656 159.53500366210938 C 60.29100036621094 153.2550048828125 43.743900299072266 160.82000732421875 53.527198791503906 148.40199279785156" stroke-width="2.0" fill="none" stroke="rgb(0, 0, 255)" stroke-opacity="1" stroke-linecap="round" stroke-linejoin="round"/>
    <path d="M 60.3843994140625 135.4969940185547 C 58.6265983581543 155.24000549316406 33.01300048828125 143.52000427246094 102.9020004272461 143.9010009765625" stroke-width="2.0" fill="none" stroke="rgb(0, 0, 255)" stroke-opacity="1" stroke-linecap="round" stroke-linejoin="round"/>
    <path d="M 86.2573013305664 166.5760040283203 C 118.37799835205078 146.23800659179688 95.02559661865234 160.0780029296875 112.12000274658203 167.62399291992188" stroke-width="2.0" fill="none" stroke="rgb(0, 0, 255)" stroke-opacity="1" stroke-linecap="round" stroke-linejoin="round"/>
    <path d="M 59.84120178222656 155.46099853515625 C 76.8052978515625 136.427001953125 37.533199310302734 143.91099548339844 70.81690216064453 137.3820037841797" stroke-width="2.0" fill="none" stroke="rgb(0, 0, 255)" stroke-opacity="1" stroke-linecap="round" stroke-linejoin="round"/>
    <path d="M 95.01280212402344 170.7570037841797 C 47.279598236083984 166.843994140625 39.220699310302734 167.9340057373047 65.18370056152344 162.00100708007812" stroke-width="2.0" fill="none" stroke="rgb(0, 0, 255)" stroke-opacity="1" stroke-linecap="round" stroke-linejoin="round"/>
    <path d="M 140.78199768066406 113.28800201416016 C 145.91400146484375 116.30799865722656 130.09100341796875 140.42300415039062 79.26930236816406 104.56199645996094" stroke-width="2.0" fill="none" stroke="rgb(255, 0, 0)" stroke-opacity="1" stroke-linecap="round" stroke-linejoin="round"/>
    <path d="M 151.0290069580078 112.4280014038086 C 146.9969940185547 179.322998046875 119.71399688720703 212.25900268554688 139.32699584960938 115.15299987792969" stroke-width="2.0" fill="none" stroke="rgb(0, 255, 0)" stroke-opacity="1" stroke-linecap="round" stroke-linejoin="round"/>
    <path d="M 162.8769989013672 108.75499725341797 C 116.16500091552734 171.38800048828125 158.36500549316406 122.96299743652344 134.93699645996094 112.36499786376953" stroke-width="2.0" fill="none" stroke="rgb(0, 255, 0)" stroke-opacity="1" stroke-linecap="round" stroke-linejoin="round"/>
    <path d="M 135.031005859375 100.90699768066406 C 71.01640319824219 65.32659912109375 100.4729995727539 93.07730102539062 125.90399932861328 130.31900024414062" stroke-width="2.0" fill="none" stroke="rgb(255, 0, 0)" stroke-opacity="1" stroke-linecap="round" stroke-linejoin="round"/>
    <path d="M 110.23300170898438 117.0250015258789 C 99.97419738769531 83.88819885253906 122.20800018310547 90.05020141601562 134.83900451660156 129.95799255371094" stroke-width="2.0" fill="none" stroke="rgb(255, 0, 0)" stroke-opacity="1" stroke-linecap="round" stroke-linejoin="round"/>
    <path d="M 150.08599853515625 149.10899353027344 C 175.9149932861328 122.08899688720703 153.56900024414062 116.0719985961914 145.10299682617188 181.71800231933594" stroke-width="2.0" fill="none" stroke="rgb(0, 255, 0)" stroke-opacity="1" stroke-linecap="round" stroke-linejoin="round"/>
    <path d="M 89.47360229492188 71.74510192871094 C 177.9530029296875 113.19599914550781 156.34800720214844 93.74939727783203 162.21299743652344 133.96299743652344" stroke-width="2.0" fill="none" stroke="rgb(0, 255, 0)" stroke-opacity="1" stroke-linecap="round" stroke-linejoin="round"/>
    <path d="M 144.00999450683594 151.4770050048828 C 162.1719970703125 239.656005859375 159.427001953125 253.9320068359375 133.3520050048828 151.01100158691406" stroke-width="2.0" fill="none" stroke="rgb(0, 255, 0)" stroke-opacity="1" stroke-linecap="round" stroke-linejoin="round"/>
    <path d="M 146.54600524902344 213.05999755859375 C 156.65899658203125 214.43800354003906 186.1490020751953 224.39500427246094 125.80599975585938 222.48199462890625" stroke-width="2.0" fill="none" stroke="rgb(0, 255, 0)" stroke-opacity="1" stroke-linecap="round" stroke-linejoin="round"/>
    <path d="M 159.53599548339844 127.63899993896484 C 133.38099670410156 154.531005859375 132.18499755859375 101.93800354003906 160.94700622558594 101.69000244140625" stroke-width="2.0" fill="none" stroke="rgb(0, 255, 0)" stroke-opacity="1" stroke-linecap="round" stroke-linejoin="round"/>
    <path d="M 152.42300415039062 219.76199340820312 C 138.83200073242188 148.9759979248047 144.10400390625 170.1490020751953 172.1909942626953 82.04779815673828" stroke-width="2.0" fill="none" stroke="rgb(0, 255, 0)" stroke-opacity="1" stroke-linecap="round" stroke-linejoin="round"/>
    <path d="M 163.34500122070312 122.12100219726562 C 165.156005859375 152.9290008544922 152.4759979248047 131.38900756835938 136.52999877929688 127.802001953125" stroke-width="2.0" fill="none" stroke="rgb(0, 255, 0)" stroke-opacity="1" stroke-linecap="round" stroke-linejoin="round"/>
    <path d="M 155.6580047607422 120.10800170898438 C 52.173500061035156 82.9926986694336 108.72899627685547 85.00489807128906 156.39999389648438 119.60399627685547" stroke-width="2.0" fill="none" stroke="rgb(255, 0, 0)" stroke-opacity="1" stroke-linecap="round" stroke-linejoin="round"/>
    <path d="M 131.56399536132812 175.89999389648438 C 146.97900390625 242.32000732421875 168.1999969482422 213.96800231933594 135.156005859375 219.2050018310547" stroke-width="2.0" fill="none" stroke="rgb(0, 255, 0)" stroke-opacity="1" stroke-linecap="round" stroke-linejoin="round"/>
    <path d="M 168.77699279785156 60.27980041503906 C 180.36000061035156 116.7490005493164 149.8249969482422 126.98899841308594 176.9340057373047 61.570499420166016" stroke-width="2.0" fill="none" stroke="rgb(0, 255, 0)" stroke-opacity="1" stroke-linecap="round" stroke-linejoin="round"/>
    <path d="M 160.8990020751953 58.645198822021484 C 188.39599609375 46.632301330566406 157.98699951171875 76.57060241699219 150.00399780273438 125.65599822998047" stroke-width="2.0" fill="none" stroke="rgb(0, 255, 0)" stroke-opacity="1" stroke-linecap="round" stroke-linejoin="round"/>
    <path d="M 157.84800720214844 86.31549835205078 C 211.5679931640625 44.5546989440918 137.6269989013672 43.20640182495117 166.1739959716797 75.81909942626953" stroke-width="2.0" fill="none" stroke="rgb(0, 255, 0)" stroke-opacity="1" stroke-linecap="round" stroke-linejoin="round"/>
    <path d="M 155.85499572753906 210.09800720214844 C 124.1719970703125 146.42799377441406 137.19200134277344 117.45099639892578 159.53500366210938 219.78799438476562" stroke-width="2.0" fill="none" stroke="rgb(0, 255, 0)" stroke-opacity="1" stroke-linecap="round" stroke-linejoin="round"/>
    <path d="M 139.9040069580078 114.58200073242188 C 138.95399475097656 201.57899475097656 121.71099853515625 195.66600036621094 141.35299682617188 116.16300201416016" stroke-width="2.0" fill="none" stroke="rgb(0, 255, 0)" stroke-opacity="1" stroke-linecap="round" stroke-linejoin="round"/>
    <path d="M 144.906005859375 120.42400360107422 C 135.57899475097656 210.66200256347656 141.5959930419922 196.0959930419922 154.7310028076172 119.27899932861328" stroke-width="2.0" fill="none" stroke="rgb(0, 255, 0)" stroke-opacity="1" stroke-linecap="round" stroke-linejoin="round"/>
    <path d="M 139.75799560546875 220.35000610351562 C 150.34100341796875 199.20599365234375 179.1719970703125 220.48800659179688 135.3820037841797 217.2220001220703" stroke-width="2.0" fill="none" stroke="rgb(0, 255, 0)" stroke-opacity="1" stroke-linecap="round" stroke-linejoin="round"/>
    <path d="M 153.8159942626953 211.9409942626953 C 116.62899780273438 143.46499633789062 137.76300048828125 132.11000061035156 163.0709991455078 112.68000030517578" stroke-width="2.0" fill="none" stroke="rgb(0, 255, 0)" stroke-opacity="1" stroke-linecap="round" stroke-linejoin="round"/>
    <path d="M 77.33260345458984 101.0199966430664 C 109.125 89.52960205078125 99.22260284423828 74.39179992675781 141.1490020751953 95.2052001953125" stroke-width="2.0" fill="none" stroke="rgb(255, 0, 0)" stroke-opacity="1" stroke-linecap="round" stroke-linejoin="round"/>
    <path d="M 133.17100524902344 119.90399932861328 C 162.625 102.83300018310547 127.21900177001953 107.0999984741211 131.8300018310547 179.5" stroke-width="2.0" fill="none" stroke="rgb(0, 255, 0)" stroke-opacity="1" stroke-linecap="round" stroke-linejoin="round"/>
    <path d="M 164.6999969482422 99.96219635009766 C 178.906005859375 25.66309928894043 162.6649932861328 54.112300872802734 171.63600158691406 100.10700225830078" stroke-width="2.0" fill="none" stroke="rgb(0, 255, 0)" stroke-opacity="1" stroke-linecap="round" stroke-linejoin="round"/>
    <path d="M 142.95399475097656 198.33099365234375 C 165.89100646972656 92.30899810791016 174.3780059814453 101.20999908447266 141.39999389648438 208.2969970703125" stroke-width="2.0" fill="none" stroke="rgb(0, 255, 0)" stroke-opacity="1" stroke-linecap="round" stroke-linejoin="round"/>
    <path d="M 149.6540069580078 168.41900634765625 C 161.26800537109375 108.7699966430664 147.03399658203125 95.9103012084961 166.052001953125 91.25779724121094" stroke-width="2.0" fill="none" stroke="rgb(0, 255, 0)" stroke-opacity="1" stroke-linecap="round" stroke-linejoin="round"/>
    <path d="M 134.71299743652344 136.88400268554688 C 156.74899291992188 224.05599975585938 176.57000732421875 260.1929931640625 144.28500366210938 157.49899291992188" stroke-width="2.0" fill="none" stroke="rgb(0, 255, 0)" stroke-opacity="1" stroke-linecap="round" stroke-linejoin="round"/>
    <path d="M 116.5469970703125 103.31300354003906 C 65.0978012084961 106.43499755859375 133.98399353027344 134.7790069580078 66.29900360107422 103.0719985961914" stroke-width="2.0" fill="none" stroke="rgb(255, 0, 0)" stroke-opacity="1" stroke-linecap="round" stroke-linejoin="round"/>
    <path d="M 73.66940307617188 86.37519836425781 C 56.15890121459961 120.36699676513672 78.42050170898438 66.05249786376953 132.9290008544922 93.1405029296875" stroke-width="2.0" fill="none" stroke="rgb(255, 0, 0)" stroke-opacity="1" stroke-linecap="round" stroke-linejoin="round"/>
    <path d="M 112.01799774169922 105.98999786376953 C 64.22350311279297 89.08689880371094 91.49440002441406 63.637699127197266 104.61299896240234 86.14450073242188" stroke-width="2.0" fill="none" stroke="rgb(255, 0, 0)" stroke-opacity="1" stroke-linecap="round" stroke-linejoin="round"/>
    <path d="M 132.66000366210938 178.1269989013672 C 151.3699951171875 149.06399536132812 151.83900451660156 145.14500427246094 153.02000427246094 86.49299621582031" stroke-width="2.0" fill="none" stroke="rgb(0, 255, 0)" stroke-opacity="1" stroke-linecap="round" stroke-linejoin="round"/>
    <path d="M 63.0 107.53399658203125 C 87.19519805908203 63.93560028076172 67.9529037475586 113.37300109863281 87.9977035522461 110.67400360107422" stroke-width="2.0" fill="none" stroke="rgb(255, 0, 0)" stroke-opacity="1" stroke-linecap="round" stroke-linejoin="round"/>
    <path d="M 147.41200256347656 94.29859924316406 C 127.35600280761719 148.76100158691406 136.66799926757812 206.46800231933594 145.1739959716797 115.31099700927734" stroke-width="2.0" fill="none" stroke="rgb(0, 255, 0)" stroke-opacity="1" stroke-linecap="round" stroke-linejoin="round"/>
    <path d="M 169.74899291992188 73.77529907226562 C 188.33999633789062 43.520599365234375 141.7729949951172 51.300201416015625 166.97900390625 69.74980163574219" stroke-width="2.0" fill="none" stroke="rgb(0, 255, 0)" stroke-opacity="1" stroke-linecap="round" stroke-linejoin="round"/>
    <path d="M 161.93099975585938 106.36799621582031 C 96.22810363769531 147.37100219726562 110.3479995727539 114.072998046875 161.6580047607422 82.61920166015625" stroke-width="2.0" fill="none" stroke="rgb(255, 0, 0)" stroke-opacity="1" stroke-linecap="round" stroke-linejoin="round"/>
    <path d="M 173.9530029296875 84.19349670410156 C 137.38800048828125 121.55000305175781 127.60199737548828 125.26000213623047 94.78050231933594 109.55500030517578" stroke-width="2.0" fill="none" stroke="rgb(255, 0, 0)" stroke-opacity="1" stroke-linecap="round" stroke-linejoin="round"/>
    <path d="M 165.43899536132812 103.697998046875 C 100.58200073242188 80.83650207519531 98.43450164794922 91.60919952392578 125.85700225830078 121.09500122070312" stroke-width="2.0" fill="none" stroke="rgb(255, 0, 0)" stroke-opacity="1" stroke-linecap="round" stroke-linejoin="round"/>
    <path d="M 151.01300048828125 220.13999938964844 C 125.23600006103516 171.8090057373047 137.58200073242188 157.3040008544922 150.16900634765625 222.4320068359375" stroke-width="2.0" fill="none" stroke="rgb(0, 255, 0)" stroke-opacity="1" stroke-linecap="round" stroke-linejoin="round"/>
    <path d="M 132.61500549316406 111.66000366210938 C 163.343994140625 135.06199645996094 111.47899627685547 88.3447036743164 153.3280029296875 126.61199951171875" stroke-width="2.0" fill="none" stroke="rgb(255, 0, 0)" stroke-opacity="1" stroke-linecap="round" stroke-linejoin="round"/>
    <path d="M 69.59600067138672 98.9041976928711 C 152.79299926757812 91.1365966796875 170.19900512695312 108.8949966430664 85.06829833984375 82.20259857177734" stroke-width="2.0" fill="none" stroke="rgb(255, 0, 0)" stroke-opacity="1" stroke-linecap="round" stroke-linejoin="round"/>
    <path d="M 153.31399536132812 99.9718017578125 C 128.3769989013672 137.83900451660156 118.7699966430664 106.31900024414062 69.20059967041016 100.08499908447266" stroke-width="2.0" fill="none" stroke="rgb(255, 0, 0)" stroke-opacity="1" stroke-linecap="round" stroke-linejoin="round"/>
    <path d="M 175.76100158691406 97.22209930419922 C 139.98300170898438 148.781005859375 194.69500732421875 100.69300079345703 136.3560028076172 173.697998046875" stroke-width="2.0" fill="none" stroke="rgb(0, 255, 0)" stroke-opacity="1" stroke-linecap="round" stroke-linejoin="round"/>
    <path d="M 173.5469970703125 60.21120071411133 C 141.19000244140625 63.482398986816406 176.63900756835938 68.59519958496094 167.39300537109375 75.69750213623047" stroke-width="2.0" fill="none" stroke="rgb(0, 255, 0)" stroke-opacity="1" stroke-linecap="round" stroke-linejoin="round"/>
    <path d="M 129.53900146484375 115.36599731445312 C 75.68949890136719 119.82499694824219 130.11300659179688 124.98300170898438 166.1790008544922 95.73470306396484" stroke-width="2.0" fill="none" stroke="rgb(255, 0, 0)" stroke-opacity="1" stroke-linecap="round" stroke-linejoin="round"/>
    <path d="M 89.47109985351562 73.92849731445312 C 163.18899536132812 108.86599731445312 151.66600036621094 138.99400329589844 132.7689971923828 183.0240020751953" stroke-width="2.0" fill="none" stroke="rgb(255, 0, 0)" stroke-opacity="1" stroke-linecap="round" stroke-linejoin="round"/>
    <path d="M 99.26640319824219 83.0427017211914 C 111.302001953125 108.79000091552734 110.18099975585938 124.12999725341797 71.97370147705078 96.77359771728516" stroke-width="2.0" fill="none" stroke="rgb(255, 0, 0)" stroke-opacity="1" stroke-linecap="round" stroke-linejoin="round"/>
    <path d="M 151.46600341796875 94.19029998779297 C 200.82400512695312 52.44459915161133 156.04400634765625 49.20029830932617 174.5540008544922 59.450599670410156" stroke-width="2.0" fill="none" stroke="rgb(0, 255, 0)" stroke-opacity="1" stroke-linecap="round" stroke-linejoin="round"/>
    <path d="M 85.7572021484375 115.20800018310547 C 61.21799850463867 104.7020034790039 46.51060104370117 109.36599731445312 113.52899932861328 93.71759796142578" stroke-width="2.0" fill="none" stroke="rgb(255, 0, 0)" stroke-opacity="1" stroke-linecap="round" stroke-linejoin="round"/>
    <path d="M 83.52619934082031 88.96690368652344 C 95.49440002441406 99.49259948730469 56.629798889160156 114.59400177001953 127.27999877929688 124.4000015258789" stroke-width="2.0" fill="none" stroke="rgb(255, 0, 0)" stroke-opacity="1" stroke-linecap="round" stroke-linejoin="round"/>
    <path d="M 127.97799682617188 121.2750015258789 C 165.27999877929688 130.10800170898438 174.35400390625 105.1969985961914 137.3990020751953 120.46600341796875" stroke-width="2.0" fill="none" stroke="rgb(0, 255, 0)" stroke-opacity="1" stroke-linecap="round" stroke-linejoin="round"/>
    <path d="M 121.8280029296875 120.00900268554688 C 136.9239959716797 98.55449676513672 140.6909942626953 76.19509887695312 129.99400329589844 122.0989990234375" stroke-width="2.0" fill="none" stroke="rgb(255, 0, 0)" stroke-opacity="1" stroke-linecap="round" stroke-linejoin="round"/>
    <path d="M 157.968994140625 221.58399963378906 C 163.80499267578125 203.5659942626953 119.97599792480469 222.86099243164062 150.29100036621094 220.86500549316406" stroke-width="2.0" fill="none" stroke="rgb(0, 255, 0)" stroke-opacity="1" stroke-linecap="round" stroke-linejoin="round"/>
    <path d="M 89.03790283203125 74.03479766845703 C 65.1636962890625 116.45899963378906 98.25630187988281 59.31719970703125 92.51190185546875 85.74970245361328" stroke-width="2.0" fill="none" stroke="rgb(255, 0, 0)" stroke-opacity="1" stroke-linecap="round" stroke-linejoin="round"/>
    <path d="M 78.9719009399414 93.44049835205078 C 160.1959991455078 103.00700378417969 151.4739990234375 113.76000213623047 66.65409851074219 100.31900024414062" stroke-width="2.0" fill="none" stroke="rgb(255, 0, 0)" stroke-opacity="1" stroke-linecap="round" stroke-linejoin="round"/>
    <path d="M 166.57400512695312 70.6792984008789 C 174.78900146484375 38.43730163574219 156.2949981689453 79.42120361328125 166.79800415039062 97.50810241699219" stroke-width="2.0" fill="none" stroke="rgb(0, 255, 0)" stroke-opacity="1" stroke-linecap="round" stroke-linejoin="round"/>
    <path d="M 116.66799926757812 92.72889709472656 C 162.03700256347656 136.95599365234375 134.92100524902344 129.86900329589844 81.42859649658203 84.97509765625" stroke-width="2.0" fill="none" stroke="rgb(255, 0, 0)" stroke-opacity="1" stroke-linecap="round" stroke-linejoin="round"/>
    <path d="M 100.59200286865234 116.47599792480469 C 148.89500427246094 87.11139678955078 122.3010025024414 89.41549682617188 117.67500305175781 122.93499755859375" stroke-width="2.0" fill="none" stroke="rgb(255, 0, 0)" stroke-opacity="1" stroke-linecap="round" stroke-linejoin="round"/>
    <path d="M 152.80999755859375 117.75 C 142.5919952392578 138.39999389648438 132.9290008544922 119.4520034790039 172.94000244140625 76.43830108642578" stroke-width="2.0" fill="none" stroke="rgb(0, 255, 0)" stroke-opacity="1" stroke-linecap="round" stroke-linejoin="round"/>
    <path d="M 155.42300415039062 138.60800170898438 C 175.70700073242188 76.27739715576172 186.86000061035156 72.5781021118164 158.9929962158203 106.63400268554688" stroke-width="2.0" fill="none" stroke="rgb(0, 255, 0)" stroke-opacity="1" stroke-linecap="round" stroke-linejoin="round"/>
    <path d="M 169.73899841308594 75.70809936523438 C 140.67100524902344 85.03589630126953 139.01300048828125 107.03399658203125 170.33700561523438 72.05130004882812" stroke-width="2.0" fill="none" stroke="rgb(0, 255, 0)" stroke-opacity="1" stroke-linecap="round" stroke-linejoin="round"/>
    <path d="M 95.79859924316406 93.03130340576172 C 105.14900207519531 107.04900360107422 53.000301361083984 80.77279663085938 111.32599639892578 93.16719818115234" stroke-width="2.0" fill="none" stroke="rgb(255, 0, 0)" stroke-opacity="1" stroke-linecap="round" stroke-linejoin="round"/>
    <path d="M 165.91799926757812 112.5469970703125 C 108.31400299072266 109.82499694824219 123.22200012207031 131.1649932861328 140.03900146484375 117.9260025024414" stroke-width="2.0" fill="none" stroke="rgb(255, 0, 0)" stroke-opacity="1" stroke-linecap="round" stroke-linejoin="round"/>
    <path d="M 72.83270263671875 91.9260025024414 C 91.09400177001953 93.11630249023438 73.49359893798828 93.41629791259766 86.1552963256836 86.52839660644531" stroke-width="2.0" fill="none" stroke="rgb(255, 0, 0)" stroke-opacity="1" stroke-linecap="round" stroke-linejoin="round"/>
    <path d="M 96.22260284423828 78.1521987915039 C 88.9760971069336 94.1803970336914 68.38390350341797 74.8550033569336 133.54200744628906 100.89900207519531" stroke-width="2.0" fill="none" stroke="rgb(255, 0, 0)" stroke-opacity="1" stroke-linecap="round" stroke-linejoin="round"/>
    <path d="M 175.7270050048828 92.47720336914062 C 135.718994140625 139.1719970703125 127.98300170898438 148.4550018310547 155.06900024414062 83.21630096435547" stroke-width="2.0" fill="none" stroke="rgb(0, 255, 0)" stroke-opacity="1" stroke-linecap="round" stroke-linejoin="round"/>
    <path d="M 151.2689971923828 104.10600280761719 C 132.4459991455078 203.28700256347656 127.70099639892578 232.64700317382812 157.8350067138672 117.37300109863281" stroke-width="2.0" fill="none" stroke="rgb(0, 255, 0)" stroke-opacity="1" stroke-linecap="round" stroke-linejoin="round"/>
    <path d="M 155.4320068359375 96.28800201416016 C 181.47799682617188 45.88990020751953 156.3990020751953 38.329498291015625 169.52699279785156 100.02799987792969" stroke-width="2.0" fill="none" stroke="rgb(0, 255, 0)" stroke-opacity="1" stroke-linecap="round" stroke-linejoin="round"/>
    <path d="M 138.07899475097656 168.72300720214844 C 163.29200744628906 86.6852035522461 115.43099975585938 157.4459991455078 150.83999633789062 215.16000366210938" stroke-width="2.0" fill="none" stroke="rgb(0, 255, 0)" stroke-opacity="1" stroke-linecap="round" stroke-linejoin="round"/>
    <path d="M 144.66200256347656 119.50800323486328 C 169.6490020751953 83.91130065917969 184.177001953125 54.03239822387695 153.3489990234375 60.667701721191406" stroke-width="2.0" fill="none" stroke="rgb(0, 255, 0)" stroke-opacity="1" stroke-linecap="round" stroke-linejoin="round"/>
    <path d="M 142.1840057373047 217.14100646972656 C 123.68599700927734 224.0229949951172 106.76699829101562 224.55799865722656 160.45700073242188 217.5500030517578" stroke-width="2.0" fill="none" stroke="rgb(0, 255, 0)" stroke-opacity="1" stroke-linecap="round" stroke-linejoin="round"/>
    <path d="M 139.1439971923828 124.40899658203125 C 167.5540008544922 90.12550354003906 194.14300537109375 111.50900268554688 160.9459991455078 58.38610076904297" stroke-width="2.0" fill="none" stroke="rgb(0, 255, 0)" stroke-opacity="1" stroke-linecap="round" stroke-linejoin="round"/>
    <path d="M 150.13099670410156 193.50999450683594 C 138.09300231933594 195.468994140625 164.2830047607422 189.78199768066406 155.91099548339844 215.15199279785156" stroke-width="2.0" fill="none" stroke="rgb(0, 255, 0)" stroke-opacity="1" stroke-linecap="round" stroke-linejoin="round"/>
    <path d="M 135.6439971923828 144.53700256347656 C 155.4199981689453 118.10600280761719 149.5260009765625 131.1959991455078 170.7989959716797 73.05889892578125" stroke-width="2.0" fill="none" stroke="rgb(0, 255, 0)" stroke-opacity="1" stroke-linecap="round" stroke-linejoin="round"/>
    <path d="M 111.23500061035156 120.46900177001953 C 171.031005859375 100.5459976196289 128.0070037841797 112.05799865722656 151.11199951171875 159.17599487304688" stroke-width="2.0" fill="none" stroke="rgb(0, 255, 0)" stroke-opacity="1" stroke-linecap="round" stroke-linejoin="round"/>
    <path d="M 173.0449981689453 69.60420227050781 C 139.38800048828125 53.805599212646484 174.57400512695312 84.45449829101562 172.75100708007812 59.6693000793457" stroke-width="2.0" fill="none" stroke="rgb(0, 255, 0)" stroke-opacity="1" stroke-linecap="round" stroke-linejoin="round"/>
    <path d="M 163.23699951171875 99.52870178222656 C 141.78700256347656 78.98829650878906 147.802001953125 117.53099822998047 139.2220001220703 134.35499572753906" stroke-width="2.0" fill="none" stroke="rgb(0, 255, 0)" stroke-opacity="1" stroke-linecap="round" stroke-linejoin="round"/>
    <path d="M 90.04759979248047 94.81420135498047 C 111.29299926757812 84.98169708251953 72.49440002441406 76.84819793701172 105.43000030517578 83.58460235595703" stroke-width="2.0" fill="none" stroke="rgb(255, 0, 0)" stroke-opacity="1" stroke-linecap="round" stroke-linejoin="round"/>
    <path d="M 149.51600646972656 112.62100219726562 C 172.97300720214844 98.94670104980469 142.3249969482422 109.01499938964844 149.67300415039062 97.87580108642578" stroke-width="2.0" fill="none" stroke="rgb(0, 255, 0)" stroke-opacity="1" stroke-linecap="round" stroke-linejoin="round"/>
    <path d="M 118.55000305175781 120.6780014038086 C 75.08529663085938 99.80500030517578 67.25019836425781 97.7593994140625 93.17980194091797 102.30400085449219" stroke-width="2.0" fill="none" stroke="rgb(255, 0, 0)" stroke-opacity="1" stroke-linecap="round" stroke-linejoin="round"/>
  </g>
</svg>
