<?xml version="1.0" ?>
<svg xmlns="http://www.w3.org/2000/svg" version="1.1" width="256" height="256">
  <defs/>
  <g>
    <path d="M 229.79800415039062 172.76199340820312 C 122.4219970703125 165.61900329589844 152.36399841308594 155.79600524902344 162.07000732421875 170.06399536132812" stroke-width="2.0" fill="none" stroke="rgb(255, 0, 0)" stroke-opacity="1" stroke-linecap="round" stroke-linejoin="round"/>
    <path d="M 17.389799118041992 171.28799438476562 C 27.3789005279541 153.4029998779297 44.99250030517578 193.2729949951172 73.92970275878906 169.71200561523438" stroke-width="2.0" fill="none" stroke="rgb(255, 0, 0)" stroke-opacity="1" stroke-linecap="round" stroke-linejoin="round"/>
    <path d="M 34.96160125732422 171.61199951171875 C 6.7186198234558105 196.16299438476562 21.616899490356445 179.03700256347656 43.70100021362305 184.6790008544922" stroke-width="2.0" fill="none" stroke="rgb(255, 0, 0)" stroke-opacity="1" stroke-linecap="round" stroke-linejoin="round"/>
    <path d="M 134.48899841308594 168.7480010986328 C 168.64999389648438 167.72799682617188 82.28209686279297 161.78199768066406 209.55599975585938 164.32200622558594" stroke-width="2.0" fill="none" stroke="rgb(255, 0, 0)" stroke-opacity="1" stroke-linecap="round" stroke-linejoin="round"/>
    <path d="M 202.45399475097656 172.51199340820312 C 267.57598876953125 165.64500427246094 244.697998046875 180.10899353027344 225.72999572753906 167.51100158691406" stroke-width="2.0" fill="none" stroke="rgb(255, 0, 0)" stroke-opacity="1" stroke-linecap="round" stroke-linejoin="round"/>
    <path d="M 8.843790054321289 165.906005859375 C 67.86840057373047 201.41700744628906 33.50239944458008 188.7469940185547 4.476190090179443 166.9720001220703" stroke-width="2.0" fill="none" stroke="rgb(255, 0, 0)" stroke-opacity="1" stroke-linecap="round" stroke-linejoin="round"/>
    <path d="M 246.0 177.67599487304688 C 207.8070068359375 190.16700744628906 155.16400146484375 188.11700439453125 238.57899475097656 168.2100067138672" stroke-width="2.0" fill="none" stroke="rgb(255, 0, 0)" stroke-opacity="1" stroke-linecap="round" stroke-linejoin="round"/>
    <path d="M 143.281005859375 172.36900329589844 C 161.97900390625 184.7989959716797 147.23399353027344 164.84500122070312 170.10000610351562 175.52200317382812" stroke-width="2.0" fill="none" stroke="rgb(255, 0, 0)" stroke-opacity="1" stroke-linecap="round" stroke-linejoin="round"/>
    <path d="M 242.58700561523438 171.74899291992188 C 146.38400268554688 177.33099365234375 142.8679962158203 162.17100524902344 149.11399841308594 167.29800415039062" stroke-width="2.0" fill="none" stroke="rgb(255, 0, 0)" stroke-opacity="1" stroke-linecap="round" stroke-linejoin="round"/>
    <path d="M 107.22699737548828 176.73300170898438 C 116.40599822998047 194.91700744628906 121.48200225830078 178.3419952392578 95.75530242919922 188.50100708007812" stroke-width="2.0" fill="none" stroke="rgb(255, 0, 0)" stroke-opacity="1" stroke-linecap="round" stroke-linejoin="round"/>
    <path d="M 15.800299644470215 180.75999450683594 C 58.54309844970703 192.53599548339844 48.562400817871094 185.78900146484375 105.11599731445312 189.57000732421875" stroke-width="2.0" fill="none" stroke="rgb(255, 0, 0)" stroke-opacity="1" stroke-linecap="round" stroke-linejoin="round"/>
    <path d="M 198.39999389648438 179.0489959716797 C 252.07899475097656 161.5970001220703 238.0959930419922 183.08200073242188 162.14500427246094 169.55999755859375" stroke-width="2.0" fill="none" stroke="rgb(255, 0, 0)" stroke-opacity="1" stroke-linecap="round" stroke-linejoin="round"/>
    <path d="M 243.25900268554688 174.73899841308594 C 210.24600219726562 190.14700317382812 270.8590087890625 184.08700561523438 182.64100646972656 177.26400756835938" stroke-width="2.0" fill="none" stroke="rgb(255, 0, 0)" stroke-opacity="1" stroke-linecap="round" stroke-linejoin="round"/>
    <path d="M 140.36399841308594 167.76499938964844 C 75.36139678955078 176.73599243164062 104.51100158691406 188.38900756835938 86.9657974243164 171.16400146484375" stroke-width="2.0" fill="none" stroke="rgb(255, 0, 0)" stroke-opacity="1" stroke-linecap="round" stroke-linejoin="round"/>
    <path d="M 7.68848991394043 167.56300354003906 C 38.31529998779297 162.0959930419922 28.93160057067871 161.95199584960938 20.796499252319336 182.01300048828125" stroke-width="2.0" fill="none" stroke="rgb(255, 0, 0)" stroke-opacity="1" stroke-linecap="round" stroke-linejoin="round"/>
    <path d="M 191.34300231933594 180.5760040283203 C 145.81100463867188 187.14700317382812 139.61700439453125 187.56300354003906 175.86700439453125 181.47000122070312" stroke-width="2.0" fill="none" stroke="rgb(255, 0, 0)" stroke-opacity="1" stroke-linecap="round" stroke-linejoin="round"/>
    <path d="M 12.305399894714355 167.27999877929688 C 21.282400131225586 160.86500549316406 11.760600090026855 176.55799865722656 34.84510040283203 178.6929931640625" stroke-width="2.0" fill="none" stroke="rgb(255, 0, 0)" stroke-opacity="1" stroke-linecap="round" stroke-linejoin="round"/>
    <path d="M 55.34809875488281 187.04800415039062 C -4.497260093688965 189.0279998779297 4.843800067901611 179.0800018310547 16.74220085144043 166.177001953125" stroke-width="2.0" fill="none" stroke="rgb(255, 0, 0)" stroke-opacity="1" stroke-linecap="round" stroke-linejoin="round"/>
    <path d="M 190.00999450683594 184.5469970703125 C 171.95599365234375 194.7259979248047 176.4499969482422 178.8780059814453 163.4250030517578 175.968994140625" stroke-width="2.0" fill="none" stroke="rgb(255, 0, 0)" stroke-opacity="1" stroke-linecap="round" stroke-linejoin="round"/>
    <path d="M 209.7259979248047 165.96800231933594 C 153.55499267578125 165.02099609375 159.44000244140625 154.9669952392578 208.61199951171875 187.22300720214844" stroke-width="2.0" fill="none" stroke="rgb(255, 0, 0)" stroke-opacity="1" stroke-linecap="round" stroke-linejoin="round"/>
    <path d="M 143.95199584960938 181.08999633789062 C 177.86500549316406 181.80799865722656 177.53700256347656 181.84800720214844 104.54499816894531 174.81100463867188" stroke-width="2.0" fill="none" stroke="rgb(255, 0, 0)" stroke-opacity="1" stroke-linecap="round" stroke-linejoin="round"/>
    <path d="M 187.71400451660156 180.83599853515625 C 146.24000549316406 166.21800231933594 121.73500061035156 184.29200744628906 169.07699584960938 174.69900512695312" stroke-width="2.0" fill="none" stroke="rgb(255, 0, 0)" stroke-opacity="1" stroke-linecap="round" stroke-linejoin="round"/>
    <path d="M 42.195899963378906 175.08299255371094 C 33.998199462890625 157.79200744628906 22.247600555419922 159.84500122070312 28.50749969482422 177.7949981689453" stroke-width="2.0" fill="none" stroke="rgb(255, 0, 0)" stroke-opacity="1" stroke-linecap="round" stroke-linejoin="round"/>
    <path d="M 196.2760009765625 188.8459930419922 C 258.23199462890625 180.49000549316406 259.0 184.53700256347656 197.9340057373047 188.32000732421875" stroke-width="2.0" fill="none" stroke="rgb(255, 0, 0)" stroke-opacity="1" stroke-linecap="round" stroke-linejoin="round"/>
    <path d="M 190.22000122070312 176.3979949951172 C 153.9739990234375 159.02000427246094 209.5800018310547 156.81900024414062 213.53799438476562 176.3769989013672" stroke-width="2.0" fill="none" stroke="rgb(255, 0, 0)" stroke-opacity="1" stroke-linecap="round" stroke-linejoin="round"/>
    <path d="M 47.69390106201172 180.1179962158203 C 105.34500122070312 177.07000732421875 93.95770263671875 175.85400390625 41.06460189819336 187.0240020751953" stroke-width="2.0" fill="none" stroke="rgb(255, 0, 0)" stroke-opacity="1" stroke-linecap="round" stroke-linejoin="round"/>
    <path d="M 146.96600341796875 180.552001953125 C 74.74710083007812 182.64100646972656 56.254398345947266 185.95700073242188 98.74109649658203 172.24899291992188" stroke-width="2.0" fill="none" stroke="rgb(255, 0, 0)" stroke-opacity="1" stroke-linecap="round" stroke-linejoin="round"/>
    <path d="M 175.41700744628906 169.29299926757812 C 200.06399536132812 200.54299926757812 240.93600463867188 177.8070068359375 141.4980010986328 164.8509979248047" stroke-width="2.0" fill="none" stroke="rgb(255, 0, 0)" stroke-opacity="1" stroke-linecap="round" stroke-linejoin="round"/>
    <path d="M 7.178880214691162 170.82899475097656 C 16.632200241088867 162.70599365234375 51.439998626708984 156.14100646972656 30.642200469970703 175.13800048828125" stroke-width="2.0" fill="none" stroke="rgb(255, 0, 0)" stroke-opacity="1" stroke-linecap="round" stroke-linejoin="round"/>
    <path d="M 179.14300537109375 162.73699951171875 C 229.06199645996094 169.73500061035156 215.35899353027344 164.4709930419922 238.02699279785156 180.2050018310547" stroke-width="2.0" fill="none" stroke="rgb(255, 0, 0)" stroke-opacity="1" stroke-linecap="round" stroke-linejoin="round"/>
    <path d="M 21.405000686645508 173.40199279785156 C 53.06809997558594 160.13299560546875 29.843799591064453 170.1909942626953 5.906370162963867 167.16700744628906" stroke-width="2.0" fill="none" stroke="rgb(255, 0, 0)" stroke-opacity="1" stroke-linecap="round" stroke-linejoin="round"/>
    <path d="M 147.90699768066406 188.54200744628906 C 119.84200286865234 170.69200134277344 183.4600067138672 167.552001953125 191.2550048828125 183.75399780273438" stroke-width="2.0" fill="none" stroke="rgb(255, 0, 0)" stroke-opacity="1" stroke-linecap="round" stroke-linejoin="round"/>
    <path d="M 227.9510040283203 184.08299255371094 C 132.6009979248047 180.5050048828125 255.9459991455078 183.03799438476562 229.41099548339844 166.48399353027344" stroke-width="2.0" fill="none" stroke="rgb(255, 0, 0)" stroke-opacity="1" stroke-linecap="round" stroke-linejoin="round"/>
    <path d="M 189.85299682617188 169.89100646972656 C 123.65499877929688 164.54400634765625 167.14300537109375 161.90199279785156 179.14100646972656 163.07899475097656" stroke-width="2.0" fill="none" stroke="rgb(255, 0, 0)" stroke-opacity="1" stroke-linecap="round" stroke-linejoin="round"/>
    <path d="M 72.74520111083984 170.32699584960938 C 130.43800354003906 201.98899841308594 136.24899291992188 182.64500427246094 62.55030059814453 180.14599609375" stroke-width="2.0" fill="none" stroke="rgb(255, 0, 0)" stroke-opacity="1" stroke-linecap="round" stroke-linejoin="round"/>
    <path d="M 33.05149841308594 184.32200622558594 C 35.38629913330078 164.09800720214844 18.634300231933594 154.85400390625 47.77669906616211 175.7429962158203" stroke-width="2.0" fill="none" stroke="rgb(255, 0, 0)" stroke-opacity="1" stroke-linecap="round" stroke-linejoin="round"/>
    <path d="M 195.32000732421875 164.7779998779297 C 231.48199462890625 179.79200744628906 262.7049865722656 191.62399291992188 220.19900512695312 166.46800231933594" stroke-width="2.0" fill="none" stroke="rgb(255, 0, 0)" stroke-opacity="1" stroke-linecap="round" stroke-linejoin="round"/>
    <path d="M 3.0 170.72999572753906 C 18.428300857543945 173.427001953125 22.73390007019043 192.0709991455078 46.257598876953125 185.4600067138672" stroke-width="2.0" fill="none" stroke="rgb(255, 0, 0)" stroke-opacity="1" stroke-linecap="round" stroke-linejoin="round"/>
    <path d="M 187.6790008544922 166.48399353027344 C 213.1739959716797 158.9409942626953 247.54200744628906 163.8699951171875 108.45099639892578 162.0" stroke-width="2.0" fill="none" stroke="rgb(0, 255, 0)" stroke-opacity="1" stroke-linecap="round" stroke-linejoin="round"/>
    <path d="M 152.82400512695312 186.7530059814453 C 150.6580047607422 153.53399658203125 160.09800720214844 177.3300018310547 84.03579711914062 176.89599609375" stroke-width="2.0" fill="none" stroke="rgb(255, 0, 0)" stroke-opacity="1" stroke-linecap="round" stroke-linejoin="round"/>
    <path d="M 84.03579711914062 170.08799743652344 C 115.74299621582031 170.97300720214844 93.66169738769531 173.58900451660156 107.94499969482422 165.2030029296875" stroke-width="2.0" fill="none" stroke="rgb(255, 0, 0)" stroke-opacity="1" stroke-linecap="round" stroke-linejoin="round"/>
    <path d="M 127.00700378417969 167.99000549316406 C 199.8179931640625 169.9949951171875 221.66700744628906 162.0570068359375 185.04200744628906 168.08799743652344" stroke-width="2.0" fill="none" stroke="rgb(255, 0, 0)" stroke-opacity="1" stroke-linecap="round" stroke-linejoin="round"/>
    <path d="M 186.46800231933594 188.45599365234375 C 227.66799926757812 187.65699768066406 269.6510009765625 189.84800720214844 227.96499633789062 166.1179962158203" stroke-width="2.0" fill="none" stroke="rgb(255, 0, 0)" stroke-opacity="1" stroke-linecap="round" stroke-linejoin="round"/>
    <path d="M 62.55030059814453 174.42300415039062 C 102.04900360107422 174.91600036621094 99.54029846191406 161.32699584960938 127.86199951171875 173.45899963378906" stroke-width="2.0" fill="none" stroke="rgb(255, 0, 0)" stroke-opacity="1" stroke-linecap="round" stroke-linejoin="round"/>
    <path d="M 57.66709899902344 181.9739990234375 C 168.7949981689453 188.13800048828125 178.5030059814453 175.96200561523438 75.75540161132812 179.218994140625" stroke-width="2.0" fill="none" stroke="rgb(255, 0, 0)" stroke-opacity="1" stroke-linecap="round" stroke-linejoin="round"/>
    <path d="M 107.4749984741211 176.73300170898438 C 179.8979949951172 187.33299255371094 207.03799438476562 193.8090057373047 172.97900390625 184.8509979248047" stroke-width="2.0" fill="none" stroke="rgb(255, 0, 0)" stroke-opacity="1" stroke-linecap="round" stroke-linejoin="round"/>
    <path d="M 186.18600463867188 174.81900024414062 C 187.09300231933594 181.75900268554688 221.9239959716797 170.72900390625 95.75530242919922 173.281005859375" stroke-width="2.0" fill="none" stroke="rgb(255, 0, 0)" stroke-opacity="1" stroke-linecap="round" stroke-linejoin="round"/>
    <path d="M 129.93699645996094 182.8470001220703 C 135.5489959716797 180.75599670410156 202.14300537109375 180.76699829101562 163.7570037841797 174.43299865722656" stroke-width="2.0" fill="none" stroke="rgb(255, 0, 0)" stroke-opacity="1" stroke-linecap="round" stroke-linejoin="round"/>
    <path d="M 71.25779724121094 187.8000030517578 C 161.58200073242188 192.1719970703125 145.32699584960938 188.68299865722656 183.77499389648438 188.65899658203125" stroke-width="2.0" fill="none" stroke="rgb(255, 0, 0)" stroke-opacity="1" stroke-linecap="round" stroke-linejoin="round"/>
    <path d="M 46.92430114746094 178.55299377441406 C 91.20069885253906 194.1269989013672 83.95149993896484 183.9600067138672 101.10900115966797 178.01400756835938" stroke-width="2.0" fill="none" stroke="rgb(255, 0, 0)" stroke-opacity="1" stroke-linecap="round" stroke-linejoin="round"/>
    <path d="M 143.78399658203125 165.39300537109375 C 92.2052993774414 163.81900024414062 126.3290023803711 157.2449951171875 73.02690124511719 171.8000030517578" stroke-width="2.0" fill="none" stroke="rgb(255, 0, 0)" stroke-opacity="1" stroke-linecap="round" stroke-linejoin="round"/>
    <path d="M 4.183010101318359 165.50100708007812 C 18.695999145507812 194.2760009765625 17.617900848388672 183.05999755859375 17.681299209594727 164.44000244140625" stroke-width="2.0" fill="none" stroke="rgb(255, 0, 0)" stroke-opacity="1" stroke-linecap="round" stroke-linejoin="round"/>
    <path d="M 166.85800170898438 183.50100708007812 C 109.38999938964844 181.64500427246094 104.2750015258789 187.50799560546875 149.4219970703125 187.718994140625" stroke-width="2.0" fill="none" stroke="rgb(255, 0, 0)" stroke-opacity="1" stroke-linecap="round" stroke-linejoin="round"/>
    <path d="M 152.3520050048828 167.12399291992188 C 261.0220031738281 165.39199829101562 273.12298583984375 159.70899963378906 110.40499877929688 166.62100219726562" stroke-width="2.0" fill="none" stroke="rgb(0, 255, 0)" stroke-opacity="1" stroke-linecap="round" stroke-linejoin="round"/>
    <path d="M 144.57899475097656 170.32699584960938 C 77.90699768066406 181.89700317382812 71.11720275878906 175.0749969482422 143.47500610351562 175.02000427246094" stroke-width="2.0" fill="none" stroke="rgb(255, 0, 0)" stroke-opacity="1" stroke-linecap="round" stroke-linejoin="round"/>
    <path d="M 26.415300369262695 176.73300170898438 C 124.10700225830078 178.68299865722656 104.9520034790039 201.33700561523438 30.305400848388672 178.30299377441406" stroke-width="2.0" fill="none" stroke="rgb(255, 0, 0)" stroke-opacity="1" stroke-linecap="round" stroke-linejoin="round"/>
    <path d="M 211.78900146484375 169.4530029296875 C 256.4280090332031 154.0679931640625 250.60299682617188 191.781005859375 231.46099853515625 181.11099243164062" stroke-width="2.0" fill="none" stroke="rgb(255, 0, 0)" stroke-opacity="1" stroke-linecap="round" stroke-linejoin="round"/>
    <path d="M 66.83910369873047 179.13699340820312 C 14.803400039672852 176.6060028076172 67.3134994506836 156.91000366210938 34.22829818725586 183.23699951171875" stroke-width="2.0" fill="none" stroke="rgb(255, 0, 0)" stroke-opacity="1" stroke-linecap="round" stroke-linejoin="round"/>
    <path d="M 77.31990051269531 154.49200439453125 C 66.85749816894531 147.40199279785156 68.00630187988281 147.0279998779297 67.48899841308594 152.85499572753906" stroke-width="2.0" fill="none" stroke="rgb(0, 0, 255)" stroke-opacity="1" stroke-linecap="round" stroke-linejoin="round"/>
    <path d="M 66.30819702148438 154.25900268554688 C 66.90730285644531 154.76800537109375 66.84310150146484 143.02999877929688 79.56310272216797 151.63699340820312" stroke-width="2.0" fill="none" stroke="rgb(0, 0, 255)" stroke-opacity="1" stroke-linecap="round" stroke-linejoin="round"/>
    <path d="M 67.68340301513672 148.96299743652344 C 76.10810089111328 147.83099365234375 80.82659912109375 154.58900451660156 67.92510223388672 150.58700561523438" stroke-width="2.0" fill="none" stroke="rgb(0, 0, 255)" stroke-opacity="1" stroke-linecap="round" stroke-linejoin="round"/>
    <path d="M 67.72810363769531 152.177001953125 C 84.04530334472656 154.5760040283203 75.30509948730469 153.552001953125 78.61599731445312 154.49200439453125" stroke-width="2.0" fill="none" stroke="rgb(0, 0, 255)" stroke-opacity="1" stroke-linecap="round" stroke-linejoin="round"/>
    <path d="M 104.36100006103516 147.2779998779297 C 114.07599639892578 157.39199829101562 102.38300323486328 150.38699340820312 103.5530014038086 143.8699951171875" stroke-width="2.0" fill="none" stroke="rgb(0, 0, 255)" stroke-opacity="1" stroke-linecap="round" stroke-linejoin="round"/>
    <path d="M 99.11009979248047 152.4810028076172 C 159.80599975585938 149.4739990234375 156.5019989013672 146.7429962158203 112.31400299072266 149.26199340820312" stroke-width="2.0" fill="none" stroke="rgb(0, 0, 255)" stroke-opacity="1" stroke-linecap="round" stroke-linejoin="round"/>
    <path d="M 127.6760025024414 141.78900146484375 C 111.2969970703125 144.58099365234375 116.03099822998047 161.90699768066406 117.16500091552734 133.60000610351562" stroke-width="2.0" fill="none" stroke="rgb(0, 0, 255)" stroke-opacity="1" stroke-linecap="round" stroke-linejoin="round"/>
    <path d="M 130.2830047607422 148.8470001220703 C 158.7030029296875 151.14100646972656 138.16099548339844 130.21200561523438 126.80400085449219 139.2689971923828" stroke-width="2.0" fill="none" stroke="rgb(0, 0, 255)" stroke-opacity="1" stroke-linecap="round" stroke-linejoin="round"/>
    <path d="M 58.64950180053711 156.91600036621094 C 61.369998931884766 155.40499877929688 93.64929962158203 155.41200256347656 75.04290008544922 150.8350067138672" stroke-width="2.0" fill="none" stroke="rgb(0, 0, 255)" stroke-opacity="1" stroke-linecap="round" stroke-linejoin="round"/>
    <path d="M 133.44000244140625 149.4409942626953 C 128.947998046875 129.8719940185547 144.21400451660156 136.06500244140625 129.7449951171875 135.30299377441406" stroke-width="2.0" fill="none" stroke="rgb(0, 0, 255)" stroke-opacity="1" stroke-linecap="round" stroke-linejoin="round"/>
    <path d="M 70.33300018310547 124.26599884033203 C 48.311100006103516 120.26899719238281 53.80120086669922 113.83399963378906 57.18130111694336 138.4980010986328" stroke-width="2.0" fill="none" stroke="rgb(0, 0, 255)" stroke-opacity="1" stroke-linecap="round" stroke-linejoin="round"/>
    <path d="M 131.5760040283203 146.14199829101562 C 125.45700073242188 129.04800415039062 132.7790069580078 134.9530029296875 104.9530029296875 132.57000732421875" stroke-width="2.0" fill="none" stroke="rgb(0, 0, 255)" stroke-opacity="1" stroke-linecap="round" stroke-linejoin="round"/>
    <path d="M 123.60700225830078 144.44500732421875 C 136.8260040283203 148.0540008544922 119.89199829101562 145.2689971923828 113.15899658203125 145.98599243164062" stroke-width="2.0" fill="none" stroke="rgb(0, 0, 255)" stroke-opacity="1" stroke-linecap="round" stroke-linejoin="round"/>
    <path d="M 67.16120147705078 149.8470001220703 C 88.8604965209961 154.96499633789062 77.23750305175781 152.78199768066406 81.6404037475586 154.78500366210938" stroke-width="2.0" fill="none" stroke="rgb(0, 0, 255)" stroke-opacity="1" stroke-linecap="round" stroke-linejoin="round"/>
    <path d="M 123.37799835205078 131.23500061035156 C 126.99700164794922 130.1790008544922 131.447998046875 146.94500732421875 122.38400268554688 133.97999572753906" stroke-width="2.0" fill="none" stroke="rgb(0, 0, 255)" stroke-opacity="1" stroke-linecap="round" stroke-linejoin="round"/>
    <path d="M 115.88899993896484 150.13699340820312 C 132.96200561523438 135.45199584960938 139.41000366210938 132.36500549316406 134.61199951171875 149.98599243164062" stroke-width="2.0" fill="none" stroke="rgb(0, 0, 255)" stroke-opacity="1" stroke-linecap="round" stroke-linejoin="round"/>
    <path d="M 107.49299621582031 152.4010009765625 C 127.13800048828125 152.4010009765625 155.7779998779297 147.5449981689453 144.41700744628906 158.88699340820312" stroke-width="2.0" fill="none" stroke="rgb(0, 0, 255)" stroke-opacity="1" stroke-linecap="round" stroke-linejoin="round"/>
    <path d="M 104.6520004272461 161.07699584960938 C 124.2979965209961 161.07699584960938 149.38699340820312 161.07699584960938 146.07400512695312 155.4149932861328" stroke-width="2.0" fill="none" stroke="rgb(0, 0, 255)" stroke-opacity="1" stroke-linecap="round" stroke-linejoin="round"/>
    <path d="M 86.94940185546875 130.3459930419922 C 47.84270095825195 117.84700012207031 55.6067008972168 120.33300018310547 85.768798828125 122.95600128173828" stroke-width="2.0" fill="none" stroke="rgb(0, 0, 255)" stroke-opacity="1" stroke-linecap="round" stroke-linejoin="round"/>
    <path d="M 130.052001953125 138.3090057373047 C 127.71499633789062 158.91099548339844 134.927001953125 141.99899291992188 105.97599792480469 147.86099243164062" stroke-width="2.0" fill="none" stroke="rgb(0, 0, 255)" stroke-opacity="1" stroke-linecap="round" stroke-linejoin="round"/>
    <path d="M 101.05899810791016 128.36399841308594 C 116.2239990234375 150.8179931640625 88.49250030517578 144.21800231933594 125.87100219726562 145.94400024414062" stroke-width="2.0" fill="none" stroke="rgb(0, 0, 255)" stroke-opacity="1" stroke-linecap="round" stroke-linejoin="round"/>
    <path d="M 137.18800354003906 135.27200317382812 C 137.1699981689453 145.30799865722656 145.9980010986328 131.43099975585938 142.89100646972656 147.7729949951172" stroke-width="2.0" fill="none" stroke="rgb(0, 0, 255)" stroke-opacity="1" stroke-linecap="round" stroke-linejoin="round"/>
    <path d="M 103.72899627685547 136.072998046875 C 105.60600280761719 126.33100128173828 85.54309844970703 134.5279998779297 104.62300109863281 139.00999450683594" stroke-width="2.0" fill="none" stroke="rgb(0, 0, 255)" stroke-opacity="1" stroke-linecap="round" stroke-linejoin="round"/>
    <path d="M 62.32350158691406 160.33399963378906 C 63.63740158081055 113.64800262451172 62.967498779296875 111.46399688720703 59.43280029296875 156.4709930419922" stroke-width="2.0" fill="none" stroke="rgb(0, 0, 255)" stroke-opacity="1" stroke-linecap="round" stroke-linejoin="round"/>
    <path d="M 102.55699920654297 141.7570037841797 C 111.96199798583984 125.71299743652344 89.03469848632812 126.47699737548828 90.21929931640625 133.74000549316406" stroke-width="2.0" fill="none" stroke="rgb(0, 0, 255)" stroke-opacity="1" stroke-linecap="round" stroke-linejoin="round"/>
    <path d="M 93.0542984008789 133.13600158691406 C 37.67190170288086 126.86399841308594 54.35169982910156 116.10600280761719 66.99469757080078 128.53500366210938" stroke-width="2.0" fill="none" stroke="rgb(0, 0, 255)" stroke-opacity="1" stroke-linecap="round" stroke-linejoin="round"/>
    <path d="M 80.2125015258789 130.2570037841797 C 74.07360076904297 127.71499633789062 70.36380004882812 119.01799774169922 65.49559783935547 125.70899963378906" stroke-width="2.0" fill="none" stroke="rgb(0, 0, 255)" stroke-opacity="1" stroke-linecap="round" stroke-linejoin="round"/>
    <path d="M 122.08999633789062 133.26800537109375 C 97.21900177001953 133.87100219726562 95.55049896240234 132.02000427246094 123.677001953125 131.23399353027344" stroke-width="2.0" fill="none" stroke="rgb(0, 0, 255)" stroke-opacity="1" stroke-linecap="round" stroke-linejoin="round"/>
    <path d="M 65.15589904785156 146.68299865722656 C 77.01860046386719 144.08399963378906 83.6626968383789 159.593994140625 65.49620056152344 150.40899658203125" stroke-width="2.0" fill="none" stroke="rgb(0, 0, 255)" stroke-opacity="1" stroke-linecap="round" stroke-linejoin="round"/>
    <path d="M 124.16500091552734 133.86900329589844 C 131.59300231933594 158.25999450683594 132.5590057373047 157.41799926757812 123.39199829101562 133.32400512695312" stroke-width="2.0" fill="none" stroke="rgb(0, 0, 255)" stroke-opacity="1" stroke-linecap="round" stroke-linejoin="round"/>
    <path d="M 97.31739807128906 129.2429962158203 C 85.53040313720703 133.00599670410156 111.41000366210938 119.78700256347656 105.5770034790039 141.3159942626953" stroke-width="2.0" fill="none" stroke="rgb(0, 0, 255)" stroke-opacity="1" stroke-linecap="round" stroke-linejoin="round"/>
    <path d="M 70.7645034790039 126.34300231933594 C 68.72530364990234 123.0510025024414 69.33190155029297 130.74200439453125 57.62080001831055 119.0" stroke-width="2.0" fill="none" stroke="rgb(0, 0, 255)" stroke-opacity="1" stroke-linecap="round" stroke-linejoin="round"/>
    <path d="M 113.11100006103516 153.2570037841797 C 111.68499755859375 139.44400024414062 118.26799774169922 148.20899963378906 126.94999694824219 150.93699645996094" stroke-width="2.0" fill="none" stroke="rgb(0, 0, 255)" stroke-opacity="1" stroke-linecap="round" stroke-linejoin="round"/>
    <path d="M 74.06829833984375 159.8990020751953 C 54.339298248291016 158.7050018310547 58.95159912109375 166.14500427246094 57.596099853515625 123.54299926757812" stroke-width="2.0" fill="none" stroke="rgb(0, 0, 255)" stroke-opacity="1" stroke-linecap="round" stroke-linejoin="round"/>
    <path d="M 122.41500091552734 146.64599609375 C 125.79399871826172 137.80299377441406 118.21700286865234 144.4969940185547 119.78900146484375 150.5540008544922" stroke-width="2.0" fill="none" stroke="rgb(0, 0, 255)" stroke-opacity="1" stroke-linecap="round" stroke-linejoin="round"/>
    <path d="M 94.58380126953125 131.5469970703125 C 86.39209747314453 132.69500732421875 126.59200286865234 128.63600158691406 124.69499969482422 131.67100524902344" stroke-width="2.0" fill="none" stroke="rgb(0, 0, 255)" stroke-opacity="1" stroke-linecap="round" stroke-linejoin="round"/>
    <path d="M 63.219398498535156 158.83799743652344 C 64.06289672851562 160.0050048828125 63.97249984741211 133.06700134277344 81.88349914550781 152.82000732421875" stroke-width="2.0" fill="none" stroke="rgb(0, 0, 255)" stroke-opacity="1" stroke-linecap="round" stroke-linejoin="round"/>
    <path d="M 81.21959686279297 154.0290069580078 C 62.28409957885742 175.32400512695312 64.57379913330078 162.1490020751953 58.26029968261719 160.0469970703125" stroke-width="2.0" fill="none" stroke="rgb(0, 0, 255)" stroke-opacity="1" stroke-linecap="round" stroke-linejoin="round"/>
    <path d="M 64.66419982910156 124.18099975585938 C 110.50599670410156 135.61300659179688 116.09700012207031 143.6790008544922 82.0447998046875 125.62200164794922" stroke-width="2.0" fill="none" stroke="rgb(0, 0, 255)" stroke-opacity="1" stroke-linecap="round" stroke-linejoin="round"/>
    <path d="M 100.72000122070312 160.43299865722656 C 117.01300048828125 162.66900634765625 93.53720092773438 161.55299377441406 97.54789733886719 153.10299682617188" stroke-width="2.0" fill="none" stroke="rgb(0, 0, 255)" stroke-opacity="1" stroke-linecap="round" stroke-linejoin="round"/>
    <path d="M 97.02439880371094 133.6540069580078 C 58.90510177612305 124.7979965209961 57.87519836425781 128.69400024414062 106.84200286865234 132.3159942626953" stroke-width="2.0" fill="none" stroke="rgb(0, 0, 255)" stroke-opacity="1" stroke-linecap="round" stroke-linejoin="round"/>
    <path d="M 72.4625015258789 155.41700744628906 C 64.40170288085938 143.88499450683594 65.28679656982422 143.27499389648438 64.88819885253906 152.7550048828125" stroke-width="2.0" fill="none" stroke="rgb(0, 0, 255)" stroke-opacity="1" stroke-linecap="round" stroke-linejoin="round"/>
    <path d="M 82.45690155029297 153.82400512695312 C 50.948699951171875 160.3070068359375 65.07820129394531 168.72900390625 56.57360076904297 156.27999877929688" stroke-width="2.0" fill="none" stroke="rgb(0, 0, 255)" stroke-opacity="1" stroke-linecap="round" stroke-linejoin="round"/>
    <path d="M 86.3114013671875 129.79800415039062 C 40.217098236083984 116.39900207519531 48.18669891357422 117.02999877929688 89.38079833984375 131.18099975585938" stroke-width="2.0" fill="none" stroke="rgb(0, 0, 255)" stroke-opacity="1" stroke-linecap="round" stroke-linejoin="round"/>
    <path d="M 55.70330047607422 123.73799896240234 C 93.60669708251953 120.84500122070312 106.01499938964844 128.62899780273438 87.69609832763672 131.8679962158203" stroke-width="2.0" fill="none" stroke="rgb(0, 0, 255)" stroke-opacity="1" stroke-linecap="round" stroke-linejoin="round"/>
    <path d="M 93.87149810791016 133.00599670410156 C 109.05000305175781 126.1510009765625 99.49469757080078 129.52000427246094 56.95880126953125 125.58699798583984" stroke-width="2.0" fill="none" stroke="rgb(0, 0, 255)" stroke-opacity="1" stroke-linecap="round" stroke-linejoin="round"/>
    <path d="M 65.11699676513672 149.343994140625 C 74.18049621582031 158.3260040283203 67.033203125 143.906005859375 78.11710357666016 151.6219940185547" stroke-width="2.0" fill="none" stroke="rgb(0, 0, 255)" stroke-opacity="1" stroke-linecap="round" stroke-linejoin="round"/>
    <path d="M 101.73100280761719 161.46400451660156 C 110.85600280761719 149.57699584960938 86.95899963378906 153.19700622558594 107.17400360107422 161.5279998779297" stroke-width="2.0" fill="none" stroke="rgb(0, 0, 255)" stroke-opacity="1" stroke-linecap="round" stroke-linejoin="round"/>
    <path d="M 107.95899963378906 150.86900329589844 C 97.65360260009766 165.9250030517578 124.64299774169922 161.33900451660156 101.81199645996094 150.78799438476562" stroke-width="2.0" fill="none" stroke="rgb(0, 0, 255)" stroke-opacity="1" stroke-linecap="round" stroke-linejoin="round"/>
    <path d="M 115.05999755859375 150.41000366210938 C 104.75499725341797 166.18299865722656 131.74400329589844 161.37899780273438 108.91300201416016 150.3249969482422" stroke-width="2.0" fill="none" stroke="rgb(0, 0, 255)" stroke-opacity="1" stroke-linecap="round" stroke-linejoin="round"/>
    <path d="M 121.21399688720703 150.41000366210938 C 110.90899658203125 166.18299865722656 137.8979949951172 161.37899780273438 115.06700134277344 150.3249969482422" stroke-width="2.0" fill="none" stroke="rgb(0, 0, 255)" stroke-opacity="1" stroke-linecap="round" stroke-linejoin="round"/>
    <path d="M 127.36900329589844 150.41000366210938 C 117.06300354003906 166.18299865722656 144.052001953125 161.37899780273438 121.22200012207031 150.3249969482422" stroke-width="2.0" fill="none" stroke="rgb(0, 0, 255)" stroke-opacity="1" stroke-linecap="round" stroke-linejoin="round"/>
    <path d="M 134.46800231933594 150.41000366210938 C 124.16300201416016 166.18299865722656 151.15199279785156 161.37899780273438 128.32200622558594 150.3249969482422" stroke-width="2.0" fill="none" stroke="rgb(0, 0, 255)" stroke-opacity="1" stroke-linecap="round" stroke-linejoin="round"/>
    <path d="M 140.14999389648438 148.0959930419922 C 129.843994140625 163.8679962158203 156.83399963378906 159.06399536132812 134.0030059814453 148.01100158691406" stroke-width="2.0" fill="none" stroke="rgb(0, 0, 255)" stroke-opacity="1" stroke-linecap="round" stroke-linejoin="round"/>
    <path d="M 213.1300048828125 156.6909942626953 C 180.86000061035156 153.92999267578125 189.85899353027344 150.13299560546875 192.7760009765625 155.6479949951172" stroke-width="2.0" fill="none" stroke="rgb(0, 255, 0)" stroke-opacity="1" stroke-linecap="round" stroke-linejoin="round"/>
    <path d="M 204.24400329589844 152.4929962158203 C 190.89700317382812 161.0 197.93800354003906 155.0659942626953 208.37399291992188 157.02099609375" stroke-width="2.0" fill="none" stroke="rgb(0, 255, 0)" stroke-opacity="1" stroke-linecap="round" stroke-linejoin="round"/>
    <path d="M 184.48699951171875 155.13900756835938 C 194.7530059814453 154.7449951171875 168.7969970703125 152.44700622558594 207.0469970703125 153.42799377441406" stroke-width="2.0" fill="none" stroke="rgb(0, 255, 0)" stroke-opacity="1" stroke-linecap="round" stroke-linejoin="round"/>
    <path d="M 177.78500366210938 161.80799865722656 C 201.23500061035156 159.1540069580078 192.9969940185547 164.7449951171875 186.16700744628906 159.875" stroke-width="2.0" fill="none" stroke="rgb(0, 255, 0)" stroke-opacity="1" stroke-linecap="round" stroke-linejoin="round"/>
    <path d="M 191.9010009765625 150.51600646972656 C 219.7949981689453 162.82000732421875 203.55499267578125 158.42999267578125 189.83700561523438 150.88499450683594" stroke-width="2.0" fill="none" stroke="rgb(0, 255, 0)" stroke-opacity="1" stroke-linecap="round" stroke-linejoin="round"/>
    <path d="M 218.0 158.59100341796875 C 206.52200317382812 163.41900634765625 190.7010040283203 162.62600708007812 215.77000427246094 154.93099975585938" stroke-width="2.0" fill="none" stroke="rgb(0, 255, 0)" stroke-opacity="1" stroke-linecap="round" stroke-linejoin="round"/>
    <path d="M 216.9739990234375 156.2989959716797 C 188.06199645996094 158.45700073242188 187.0050048828125 152.5970001220703 188.8820037841797 154.57899475097656" stroke-width="2.0" fill="none" stroke="rgb(0, 255, 0)" stroke-opacity="1" stroke-linecap="round" stroke-linejoin="round"/>
    <path d="M 203.69400024414062 159.12100219726562 C 219.82699584960938 152.375 215.62399291992188 160.67999267578125 192.7989959716797 155.4530029296875" stroke-width="2.0" fill="none" stroke="rgb(0, 255, 0)" stroke-opacity="1" stroke-linecap="round" stroke-linejoin="round"/>
    <path d="M 217.17599487304688 157.4550018310547 C 207.25399780273438 163.41099548339844 225.4709930419922 161.06900024414062 198.95799255371094 158.43099975585938" stroke-width="2.0" fill="none" stroke="rgb(0, 255, 0)" stroke-opacity="1" stroke-linecap="round" stroke-linejoin="round"/>
    <path d="M 191.35499572753906 151.08999633789062 C 205.82899475097656 149.1959991455078 201.39500427246094 149.14599609375 197.5500030517578 156.0970001220703" stroke-width="2.0" fill="none" stroke="rgb(0, 255, 0)" stroke-opacity="1" stroke-linecap="round" stroke-linejoin="round"/>
    <path d="M 201.57400512695312 159.71099853515625 C 187.88999938964844 162.25100708007812 186.0279998779297 162.41200256347656 196.92300415039062 160.0570068359375" stroke-width="2.0" fill="none" stroke="rgb(0, 255, 0)" stroke-opacity="1" stroke-linecap="round" stroke-linejoin="round"/>
    <path d="M 201.17300415039062 161.24600219726562 C 195.7469940185547 165.18099975585938 197.09800720214844 159.05499267578125 193.18299865722656 157.93099975585938" stroke-width="2.0" fill="none" stroke="rgb(0, 255, 0)" stroke-opacity="1" stroke-linecap="round" stroke-linejoin="round"/>
    <path d="M 191.03199768066406 156.63099670410156 C 177.10800170898438 156.36500549316406 178.56700134277344 153.55099487304688 190.75599670410156 162.58099365234375" stroke-width="2.0" fill="none" stroke="rgb(0, 255, 0)" stroke-opacity="1" stroke-linecap="round" stroke-linejoin="round"/>
    <path d="M 200.48300170898438 159.81199645996094 C 188.0189971923828 154.16099548339844 180.6540069580078 161.1479949951172 194.8820037841797 157.44000244140625" stroke-width="2.0" fill="none" stroke="rgb(0, 255, 0)" stroke-opacity="1" stroke-linecap="round" stroke-linejoin="round"/>
    <path d="M 203.05599975585938 162.9080047607422 C 221.67599487304688 159.67799377441406 221.906005859375 161.2429962158203 203.5540008544922 162.7050018310547" stroke-width="2.0" fill="none" stroke="rgb(0, 255, 0)" stroke-opacity="1" stroke-linecap="round" stroke-linejoin="round"/>
    <path d="M 179.8699951171875 161.1649932861328 C 169.76400756835938 154.26499938964844 192.67300415039062 153.05099487304688 195.47999572753906 159.31399536132812" stroke-width="2.0" fill="none" stroke="rgb(0, 255, 0)" stroke-opacity="1" stroke-linecap="round" stroke-linejoin="round"/>
    <path d="M 202.7689971923828 153.60499572753906 C 213.63699340820312 159.4080047607422 223.02000427246094 163.98199462890625 210.24600219726562 154.25799560546875" stroke-width="2.0" fill="none" stroke="rgb(0, 255, 0)" stroke-opacity="1" stroke-linecap="round" stroke-linejoin="round"/>
    <path d="M 199.22999572753906 162.3820037841797 C 206.89199829101562 159.46600341796875 217.2209930419922 161.37100219726562 175.41900634765625 160.6479949951172" stroke-width="2.0" fill="none" stroke="rgb(0, 255, 0)" stroke-opacity="1" stroke-linecap="round" stroke-linejoin="round"/>
    <path d="M 200.10899353027344 162.7570037841797 C 212.49099731445312 162.447998046875 225.10800170898438 163.2949981689453 212.5800018310547 154.1230010986328" stroke-width="2.0" fill="none" stroke="rgb(0, 255, 0)" stroke-opacity="1" stroke-linecap="round" stroke-linejoin="round"/>
    <path d="M 176.3679962158203 158.2259979248047 C 198.13400268554688 162.322998046875 206.2899932861328 164.82699584960938 196.05499267578125 161.36399841308594" stroke-width="2.0" fill="none" stroke="rgb(0, 255, 0)" stroke-opacity="1" stroke-linecap="round" stroke-linejoin="round"/>
    <path d="M 215.55299377441406 161.3939971923828 C 215.8800048828125 164.07699584960938 228.4219970703125 159.81300354003906 182.98899841308594 160.8000030517578" stroke-width="2.0" fill="none" stroke="rgb(0, 255, 0)" stroke-opacity="1" stroke-linecap="round" stroke-linejoin="round"/>
    <path d="M 195.61199951171875 162.35400390625 C 192.95599365234375 161.54600524902344 161.4499969482422 161.5500030517578 179.61099243164062 159.1020050048828" stroke-width="2.0" fill="none" stroke="rgb(0, 255, 0)" stroke-opacity="1" stroke-linecap="round" stroke-linejoin="round"/>
  </g>
</svg>
