<?xml version="1.0" ?>
<svg xmlns="http://www.w3.org/2000/svg" version="1.1" width="256" height="256">
  <defs/>
  <g>
    <path d="M 182.93099975585938 174.4149932861328 C 266.7049865722656 178.91700744628906 247.90199279785156 205.83900451660156 208.93099975585938 186.79299926757812" stroke-width="2.0" fill="none" stroke="rgb(0, 0, 0)" stroke-opacity="1" stroke-linecap="round" stroke-linejoin="round"/>
    <path d="M 46.26649856567383 183.41600036621094 C 79.17350006103516 163.71400451660156 69.91539764404297 170.343994140625 26.016599655151367 183.39100646972656" stroke-width="2.0" fill="none" stroke="rgb(0, 0, 0)" stroke-opacity="1" stroke-linecap="round" stroke-linejoin="round"/>
    <path d="M 135.81100463867188 161.5970001220703 C 170.76400756835938 169.8820037841797 173.8470001220703 170.83299255371094 195.28399658203125 181.22300720214844" stroke-width="2.0" fill="none" stroke="rgb(0, 0, 0)" stroke-opacity="1" stroke-linecap="round" stroke-linejoin="round"/>
    <path d="M 161.83999633789062 122.59700012207031 C 165.24000549316406 108.10299682617188 162.32899475097656 110.13999938964844 110.2030029296875 124.56199645996094" stroke-width="2.0" fill="none" stroke="rgb(0, 0, 0)" stroke-opacity="1" stroke-linecap="round" stroke-linejoin="round"/>
    <path d="M 210.33599853515625 192.00999450683594 C 199.67999267578125 188.25599670410156 197.6840057373047 197.7830047607422 225.78500366210938 197.93499755859375" stroke-width="2.0" fill="none" stroke="rgb(0, 0, 0)" stroke-opacity="1" stroke-linecap="round" stroke-linejoin="round"/>
    <path d="M 133.3509979248047 112.10399627685547 C 142.16400146484375 121.31199645996094 131.8179931640625 138.2449951171875 122.63099670410156 111.36799621582031" stroke-width="2.0" fill="none" stroke="rgb(0, 0, 0)" stroke-opacity="1" stroke-linecap="round" stroke-linejoin="round"/>
    <path d="M 239.63900756835938 197.94200134277344 C 213.79800415039062 178.08299255371094 231.00100708007812 187.79800415039062 236.2169952392578 194.64300537109375" stroke-width="2.0" fill="none" stroke="rgb(0, 0, 0)" stroke-opacity="1" stroke-linecap="round" stroke-linejoin="round"/>
    <path d="M 127.4530029296875 92.61270141601562 C 130.8260040283203 115.78099822998047 139.6820068359375 100.8010025024414 98.09040069580078 112.10099792480469" stroke-width="2.0" fill="none" stroke="rgb(0, 0, 0)" stroke-opacity="1" stroke-linecap="round" stroke-linejoin="round"/>
    <path d="M 39.50699996948242 157.88699340820312 C -4.8586201667785645 157.93800354003906 20.5664005279541 158.77499389648438 32.20920181274414 157.79400634765625" stroke-width="2.0" fill="none" stroke="rgb(0, 0, 0)" stroke-opacity="1" stroke-linecap="round" stroke-linejoin="round"/>
    <path d="M 145.4759979248047 161.90499877929688 C 137.50799560546875 163.27099609375 154.96200561523438 155.5919952392578 224.8780059814453 185.58700561523438" stroke-width="2.0" fill="none" stroke="rgb(0, 0, 0)" stroke-opacity="1" stroke-linecap="round" stroke-linejoin="round"/>
    <path d="M 129.572998046875 92.28140258789062 C 131.98800659179688 68.01820373535156 114.04399871826172 95.60260009765625 124.68800354003906 122.26899719238281" stroke-width="2.0" fill="none" stroke="rgb(0, 0, 0)" stroke-opacity="1" stroke-linecap="round" stroke-linejoin="round"/>
    <path d="M 120.65699768066406 98.13050079345703 C 125.61299896240234 90.19450378417969 115.5469970703125 120.9530029296875 115.73200225830078 121.37300109863281" stroke-width="2.0" fill="none" stroke="rgb(0, 0, 0)" stroke-opacity="1" stroke-linecap="round" stroke-linejoin="round"/>
    <path d="M 126.25 107.93299865722656 C 123.14399719238281 71.07890319824219 125.99299621582031 78.47730255126953 127.5459976196289 97.72160339355469" stroke-width="2.0" fill="none" stroke="rgb(0, 0, 0)" stroke-opacity="1" stroke-linecap="round" stroke-linejoin="round"/>
    <path d="M 236.9409942626953 196.16299438476562 C 233.44400024414062 195.20399475097656 217.86099243164062 181.99000549316406 227.17999267578125 187.35800170898438" stroke-width="2.0" fill="none" stroke="rgb(0, 0, 0)" stroke-opacity="1" stroke-linecap="round" stroke-linejoin="round"/>
    <path d="M 202.36700439453125 189.8459930419922 C 243.4429931640625 202.46800231933594 242.39599609375 196.0919952392578 178.6699981689453 177.06199645996094" stroke-width="2.0" fill="none" stroke="rgb(0, 0, 0)" stroke-opacity="1" stroke-linecap="round" stroke-linejoin="round"/>
    <path d="M 228.14199829101562 206.68600463867188 C 245.04800415039062 206.68899536132812 244.80499267578125 211.3090057373047 193.69200134277344 184.98399353027344" stroke-width="2.0" fill="none" stroke="rgb(0, 0, 0)" stroke-opacity="1" stroke-linecap="round" stroke-linejoin="round"/>
    <path d="M 123.20500183105469 116.99800109863281 C 134.75999450683594 150.5570068359375 100.53700256347656 142.70899963378906 107.94999694824219 113.73600006103516" stroke-width="2.0" fill="none" stroke="rgb(0, 0, 0)" stroke-opacity="1" stroke-linecap="round" stroke-linejoin="round"/>
    <path d="M 51.08430099487305 186.625 C 40.611900329589844 189.56300354003906 41.88359832763672 187.15899658203125 22.29800033569336 195.86399841308594" stroke-width="2.0" fill="none" stroke="rgb(0, 0, 0)" stroke-opacity="1" stroke-linecap="round" stroke-linejoin="round"/>
    <path d="M 123.19200134277344 138.2469940185547 C 113.78299713134766 95.29910278320312 116.76899719238281 79.41519927978516 116.87899780273438 106.77200317382812" stroke-width="2.0" fill="none" stroke="rgb(0, 0, 0)" stroke-opacity="1" stroke-linecap="round" stroke-linejoin="round"/>
    <path d="M 229.08200073242188 177.81500244140625 C 228.67599487304688 182.56199645996094 225.5749969482422 189.74400329589844 231.03599548339844 184.2760009765625" stroke-width="2.0" fill="none" stroke="rgb(0, 0, 0)" stroke-opacity="1" stroke-linecap="round" stroke-linejoin="round"/>
    <path d="M 122.50499725341797 105.81500244140625 C 136.82200622558594 110.51899719238281 126.73899841308594 65.7113037109375 122.36399841308594 88.36620330810547" stroke-width="2.0" fill="none" stroke="rgb(0, 0, 0)" stroke-opacity="1" stroke-linecap="round" stroke-linejoin="round"/>
    <path d="M 140.322998046875 127.7750015258789 C 113.88400268554688 129.75599670410156 112.64099884033203 123.06600189208984 106.26599884033203 115.76200103759766" stroke-width="2.0" fill="none" stroke="rgb(0, 0, 0)" stroke-opacity="1" stroke-linecap="round" stroke-linejoin="round"/>
    <path d="M 49.0 113.92400360107422 C 56.54840087890625 116.41799926757812 69.27369689941406 114.79900360107422 93.67359924316406 117.08799743652344" stroke-width="2.0" fill="none" stroke="rgb(0, 0, 0)" stroke-opacity="1" stroke-linecap="round" stroke-linejoin="round"/>
    <path d="M 128.38600158691406 180.93600463867188 C 126.30999755859375 211.82699584960938 132.8730010986328 196.322998046875 122.55400085449219 183.76699829101562" stroke-width="2.0" fill="none" stroke="rgb(0, 0, 0)" stroke-opacity="1" stroke-linecap="round" stroke-linejoin="round"/>
    <path d="M 102.06300354003906 136.12600708007812 C 130.92300415039062 139.31199645996094 118.11799621582031 136.6719970703125 144.5780029296875 136.6510009765625" stroke-width="2.0" fill="none" stroke="rgb(0, 0, 0)" stroke-opacity="1" stroke-linecap="round" stroke-linejoin="round"/>
    <path d="M 181.89300537109375 169.6719970703125 C 172.18800354003906 167.00399780273438 193.4040069580078 168.4080047607422 169.8209991455078 164.37100219726562" stroke-width="2.0" fill="none" stroke="rgb(0, 0, 0)" stroke-opacity="1" stroke-linecap="round" stroke-linejoin="round"/>
    <path d="M 122.9489974975586 88.18560028076172 C 138.50999450683594 79.552001953125 134.56399536132812 116.76899719238281 114.97100067138672 114.9530029296875" stroke-width="2.0" fill="none" stroke="rgb(0, 0, 0)" stroke-opacity="1" stroke-linecap="round" stroke-linejoin="round"/>
    <path d="M 98.84960174560547 157.06100463867188 C 161.04800415039062 155.5570068359375 164.5989990234375 158.70199584960938 172.9199981689453 157.97900390625" stroke-width="2.0" fill="none" stroke="rgb(0, 0, 0)" stroke-opacity="1" stroke-linecap="round" stroke-linejoin="round"/>
    <path d="M 19.23550033569336 182.60400390625 C 15.899299621582031 189.2100067138672 24.72369956970215 181.43499755859375 59.468299865722656 172.8780059814453" stroke-width="2.0" fill="none" stroke="rgb(0, 0, 0)" stroke-opacity="1" stroke-linecap="round" stroke-linejoin="round"/>
    <path d="M 131.83799743652344 201.1219940185547 C 119.63600158691406 177.42100524902344 131.80999755859375 156.32400512695312 122.0 207.6929931640625" stroke-width="2.0" fill="none" stroke="rgb(0, 0, 0)" stroke-opacity="1" stroke-linecap="round" stroke-linejoin="round"/>
    <path d="M 169.5590057373047 112.66699981689453 C 173.45799255371094 133.53500366210938 175.031005859375 107.78900146484375 170.63499450683594 117.53199768066406" stroke-width="2.0" fill="none" stroke="rgb(0, 0, 0)" stroke-opacity="1" stroke-linecap="round" stroke-linejoin="round"/>
    <path d="M 129.1840057373047 109.39600372314453 C 133.71400451660156 149.29100036621094 122.1240005493164 135.9739990234375 123.76799774169922 101.47000122070312" stroke-width="2.0" fill="none" stroke="rgb(0, 0, 0)" stroke-opacity="1" stroke-linecap="round" stroke-linejoin="round"/>
    <path d="M 127.19000244140625 193.58999633789062 C 134.656005859375 200.58700561523438 131.1529998779297 218.79100036621094 124.75399780273438 179.86300659179688" stroke-width="2.0" fill="none" stroke="rgb(0, 0, 0)" stroke-opacity="1" stroke-linecap="round" stroke-linejoin="round"/>
    <path d="M 124.37999725341797 82.99659729003906 C 113.64399719238281 85.9030990600586 138.4810028076172 112.10600280761719 100.62000274658203 117.6259994506836" stroke-width="2.0" fill="none" stroke="rgb(0, 0, 0)" stroke-opacity="1" stroke-linecap="round" stroke-linejoin="round"/>
    <path d="M 240.9320068359375 193.60800170898438 C 230.58399963378906 195.77999877929688 207.8470001220703 192.1320037841797 189.71299743652344 182.33200073242188" stroke-width="2.0" fill="none" stroke="rgb(0, 0, 0)" stroke-opacity="1" stroke-linecap="round" stroke-linejoin="round"/>
    <path d="M 100.31600189208984 122.18599700927734 C 105.16500091552734 102.78500366210938 94.70149993896484 105.30999755859375 97.19229888916016 116.77300262451172" stroke-width="2.0" fill="none" stroke="rgb(0, 0, 0)" stroke-opacity="1" stroke-linecap="round" stroke-linejoin="round"/>
    <path d="M 129.0749969482422 134.6739959716797 C 125.95800018310547 67.32669830322266 125.20800018310547 71.5519027709961 131.7949981689453 121.73500061035156" stroke-width="2.0" fill="none" stroke="rgb(0, 0, 0)" stroke-opacity="1" stroke-linecap="round" stroke-linejoin="round"/>
    <path d="M 129.7969970703125 127.16100311279297 C 110.01000213623047 102.33399963378906 129.32699584960938 101.13899993896484 121.62999725341797 133.85899353027344" stroke-width="2.0" fill="none" stroke="rgb(0, 0, 0)" stroke-opacity="1" stroke-linecap="round" stroke-linejoin="round"/>
    <path d="M 121.86100006103516 111.51399993896484 C 87.55709838867188 128.30599975585938 90.86699676513672 111.94599914550781 110.90499877929688 118.18800354003906" stroke-width="2.0" fill="none" stroke="rgb(0, 0, 0)" stroke-opacity="1" stroke-linecap="round" stroke-linejoin="round"/>
    <path d="M 80.4072036743164 155.83599853515625 C 49.231998443603516 158.22300720214844 54.10879898071289 155.7790069580078 99.45659637451172 157.00799560546875" stroke-width="2.0" fill="none" stroke="rgb(0, 0, 0)" stroke-opacity="1" stroke-linecap="round" stroke-linejoin="round"/>
    <path d="M 121.21199798583984 125.3219985961914 C 102.89399719238281 121.30699920654297 98.18589782714844 107.625 92.69319915771484 123.4260025024414" stroke-width="2.0" fill="none" stroke="rgb(0, 0, 0)" stroke-opacity="1" stroke-linecap="round" stroke-linejoin="round"/>
    <path d="M 121.49400329589844 101.51399993896484 C 128.27200317382812 83.12220001220703 123.08399963378906 79.77349853515625 122.11299896240234 112.72899627685547" stroke-width="2.0" fill="none" stroke="rgb(0, 0, 0)" stroke-opacity="1" stroke-linecap="round" stroke-linejoin="round"/>
    <path d="M 144.12399291992188 111.21700286865234 C 158.55499267578125 110.86399841308594 138.8459930419922 92.11209869384766 149.0500030517578 121.19999694824219" stroke-width="2.0" fill="none" stroke="rgb(0, 0, 0)" stroke-opacity="1" stroke-linecap="round" stroke-linejoin="round"/>
    <path d="M 124.43099975585938 103.99299621582031 C 114.48100280761719 125.51799774169922 121.34100341796875 136.7570037841797 128.302001953125 87.38390350341797" stroke-width="2.0" fill="none" stroke="rgb(0, 0, 0)" stroke-opacity="1" stroke-linecap="round" stroke-linejoin="round"/>
    <path d="M 67.15139770507812 173.11399841308594 C 107.18299865722656 161.18600463867188 109.11799621582031 166.72900390625 118.72100067138672 161.21299743652344" stroke-width="2.0" fill="none" stroke="rgb(0, 0, 0)" stroke-opacity="1" stroke-linecap="round" stroke-linejoin="round"/>
    <path d="M 106.41799926757812 135.43499755859375 C 104.45600128173828 113.58499908447266 128.2830047607422 128.35299682617188 132.57400512695312 113.43599700927734" stroke-width="2.0" fill="none" stroke="rgb(0, 0, 0)" stroke-opacity="1" stroke-linecap="round" stroke-linejoin="round"/>
    <path d="M 120.45600128173828 137.42300415039062 C 137.3179931640625 141.20599365234375 121.63500213623047 137.97799682617188 115.08799743652344 114.14900207519531" stroke-width="2.0" fill="none" stroke="rgb(0, 0, 0)" stroke-opacity="1" stroke-linecap="round" stroke-linejoin="round"/>
    <path d="M 124.4280014038086 115.1259994506836 C 153.80299377441406 113.52200317382812 175.45899963378906 113.85900115966797 199.00799560546875 113.63200378417969" stroke-width="2.0" fill="none" stroke="rgb(0, 0, 0)" stroke-opacity="1" stroke-linecap="round" stroke-linejoin="round"/>
    <path d="M 152.6479949951172 110.87699890136719 C 110.42400360107422 102.43900299072266 109.12100219726562 100.52100372314453 132.36099243164062 114.03199768066406" stroke-width="2.0" fill="none" stroke="rgb(0, 0, 0)" stroke-opacity="1" stroke-linecap="round" stroke-linejoin="round"/>
    <path d="M 118.9540023803711 108.45899963378906 C 123.93900299072266 106.49099731445312 114.52799987792969 77.71939849853516 130.1280059814453 88.66419982910156" stroke-width="2.0" fill="none" stroke="rgb(0, 0, 0)" stroke-opacity="1" stroke-linecap="round" stroke-linejoin="round"/>
    <path d="M 236.36500549316406 170.10899353027344 C 204.39500427246094 168.4770050048828 197.83799743652344 164.7830047607422 205.93299865722656 167.2469940185547" stroke-width="2.0" fill="none" stroke="rgb(0, 0, 0)" stroke-opacity="1" stroke-linecap="round" stroke-linejoin="round"/>
    <path d="M 125.88700103759766 104.0469970703125 C 123.33999633789062 82.28790283203125 113.29900360107422 110.38999938964844 120.93900299072266 113.25700378417969" stroke-width="2.0" fill="none" stroke="rgb(0, 0, 0)" stroke-opacity="1" stroke-linecap="round" stroke-linejoin="round"/>
    <path d="M 160.2480010986328 114.33000183105469 C 109.17900085449219 105.94499969482422 99.65239715576172 127.64700317382812 171.2790069580078 116.69599914550781" stroke-width="2.0" fill="none" stroke="rgb(0, 0, 0)" stroke-opacity="1" stroke-linecap="round" stroke-linejoin="round"/>
    <path d="M 122.03900146484375 119.56500244140625 C 121.69999694824219 116.98999786376953 150.23199462890625 100.34700012207031 140.5229949951172 133.9320068359375" stroke-width="2.0" fill="none" stroke="rgb(0, 0, 0)" stroke-opacity="1" stroke-linecap="round" stroke-linejoin="round"/>
    <path d="M 21.295499801635742 188.61700439453125 C 41.649898529052734 187.17799377441406 42.639400482177734 180.28500366210938 23.59149932861328 188.84300231933594" stroke-width="2.0" fill="none" stroke="rgb(0, 0, 0)" stroke-opacity="1" stroke-linecap="round" stroke-linejoin="round"/>
    <path d="M 123.22200012207031 89.30899810791016 C 116.93599700927734 81.55349731445312 116.66200256347656 90.00160217285156 114.9260025024414 124.39900207519531" stroke-width="2.0" fill="none" stroke="rgb(0, 0, 0)" stroke-opacity="1" stroke-linecap="round" stroke-linejoin="round"/>
    <path d="M 126.26899719238281 88.03939819335938 C 110.62999725341797 102.24800109863281 141.10400390625 86.60220336914062 127.40799713134766 100.68599700927734" stroke-width="2.0" fill="none" stroke="rgb(0, 0, 0)" stroke-opacity="1" stroke-linecap="round" stroke-linejoin="round"/>
    <path d="M 109.36199951171875 132.3719940185547 C 100.83999633789062 136.125 114.08499908447266 120.29399871826172 110.89299774169922 135.20599365234375" stroke-width="2.0" fill="none" stroke="rgb(0, 0, 0)" stroke-opacity="1" stroke-linecap="round" stroke-linejoin="round"/>
    <path d="M 125.11699676513672 170.1699981689453 C 129.0469970703125 182.9219970703125 116.95500183105469 182.5399932861328 124.68000030517578 179.28500366210938" stroke-width="2.0" fill="none" stroke="rgb(0, 0, 0)" stroke-opacity="1" stroke-linecap="round" stroke-linejoin="round"/>
    <path d="M 122.69999694824219 88.98049926757812 C 136.2169952392578 117.75800323486328 101.71800231933594 108.2770004272461 104.02100372314453 123.78399658203125" stroke-width="2.0" fill="none" stroke="rgb(0, 0, 0)" stroke-opacity="1" stroke-linecap="round" stroke-linejoin="round"/>
    <path d="M 136.39199829101562 116.72699737548828 C 208.30799865722656 114.5739974975586 190.33200073242188 120.78800201416016 200.0 112.21800231933594" stroke-width="2.0" fill="none" stroke="rgb(0, 0, 0)" stroke-opacity="1" stroke-linecap="round" stroke-linejoin="round"/>
    <path d="M 129.1999969482422 96.9884033203125 C 128.55799865722656 111.47799682617188 132.9029998779297 120.1989974975586 129.1280059814453 89.57630157470703" stroke-width="2.0" fill="none" stroke="rgb(0, 0, 0)" stroke-opacity="1" stroke-linecap="round" stroke-linejoin="round"/>
    <path d="M 125.47100067138672 111.08000183105469 C 152.22500610351562 117.97000122070312 135.24200439453125 132.27999877929688 119.89199829101562 123.51899719238281" stroke-width="2.0" fill="none" stroke="rgb(0, 0, 0)" stroke-opacity="1" stroke-linecap="round" stroke-linejoin="round"/>
    <path d="M 133.54100036621094 98.26750183105469 C 124.0979995727539 57.43370056152344 109.41000366210938 87.5625 115.2020034790039 108.13600158691406" stroke-width="2.0" fill="none" stroke="rgb(0, 0, 0)" stroke-opacity="1" stroke-linecap="round" stroke-linejoin="round"/>
    <path d="M 163.3000030517578 118.28500366210938 C 120.40899658203125 108.09400177001953 129.7220001220703 101.74500274658203 141.77499389648438 127.88899993896484" stroke-width="2.0" fill="none" stroke="rgb(0, 0, 0)" stroke-opacity="1" stroke-linecap="round" stroke-linejoin="round"/>
    <path d="M 128.55299377441406 137.86900329589844 C 121.3499984741211 114.38999938964844 99.4115982055664 137.468994140625 121.30500030517578 115.56500244140625" stroke-width="2.0" fill="none" stroke="rgb(0, 0, 0)" stroke-opacity="1" stroke-linecap="round" stroke-linejoin="round"/>
    <path d="M 129.38999938964844 93.83000183105469 C 132.593994140625 85.95960235595703 130.70399475097656 89.80989837646484 129.33099365234375 89.79100036621094" stroke-width="2.0" fill="none" stroke="rgb(0, 0, 0)" stroke-opacity="1" stroke-linecap="round" stroke-linejoin="round"/>
    <path d="M 229.22300720214844 158.0 C 224.18800354003906 160.1529998779297 161.88600158691406 158.28599548339844 127.0 159.51100158691406" stroke-width="2.0" fill="none" stroke="rgb(0, 0, 0)" stroke-opacity="1" stroke-linecap="round" stroke-linejoin="round"/>
    <path d="M 123.6719970703125 178.86399841308594 C 136.2779998779297 175.0399932861328 124.34100341796875 182.0970001220703 119.4520034790039 195.1959991455078" stroke-width="2.0" fill="none" stroke="rgb(0, 0, 0)" stroke-opacity="1" stroke-linecap="round" stroke-linejoin="round"/>
    <path d="M 67.84980010986328 116.85900115966797 C 35.027801513671875 120.70500183105469 52.549598693847656 119.2699966430664 99.73889923095703 120.03099822998047" stroke-width="2.0" fill="none" stroke="rgb(0, 0, 0)" stroke-opacity="1" stroke-linecap="round" stroke-linejoin="round"/>
    <path d="M 68.98380279541016 158.1540069580078 C 38.191898345947266 157.4459991455078 42.18619918823242 158.55999755859375 40.13560104370117 157.5989990234375" stroke-width="2.0" fill="none" stroke="rgb(0, 0, 0)" stroke-opacity="1" stroke-linecap="round" stroke-linejoin="round"/>
    <path d="M 117.15299987792969 116.1969985961914 C 134.79800415039062 102.28800201416016 133.2270050048828 88.91519927978516 119.43299865722656 99.2323989868164" stroke-width="2.0" fill="none" stroke="rgb(0, 0, 0)" stroke-opacity="1" stroke-linecap="round" stroke-linejoin="round"/>
    <path d="M 177.1929931640625 113.95800018310547 C 122.50599670410156 106.42400360107422 167.61199951171875 115.00499725341797 143.6020050048828 120.29000091552734" stroke-width="2.0" fill="none" stroke="rgb(0, 0, 0)" stroke-opacity="1" stroke-linecap="round" stroke-linejoin="round"/>
    <path d="M 22.856700897216797 177.98500061035156 C 19.839099884033203 186.45700073242188 20.595500946044922 183.92599487304688 19.487199783325195 180.8800048828125" stroke-width="2.0" fill="none" stroke="rgb(0, 0, 0)" stroke-opacity="1" stroke-linecap="round" stroke-linejoin="round"/>
    <path d="M 120.35900115966797 105.33599853515625 C 132.197998046875 100.83100128173828 137.45399475097656 92.71790313720703 125.26000213623047 95.19760131835938" stroke-width="2.0" fill="none" stroke="rgb(0, 0, 0)" stroke-opacity="1" stroke-linecap="round" stroke-linejoin="round"/>
    <path d="M 76.84439849853516 123.18099975585938 C 77.19339752197266 104.85600280761719 103.94300079345703 125.85800170898438 64.10710144042969 115.68499755859375" stroke-width="2.0" fill="none" stroke="rgb(0, 0, 0)" stroke-opacity="1" stroke-linecap="round" stroke-linejoin="round"/>
    <path d="M 126.09100341796875 97.69529724121094 C 123.5770034790039 92.75769805908203 123.95899963378906 121.4489974975586 133.9759979248047 119.6969985961914" stroke-width="2.0" fill="none" stroke="rgb(0, 0, 0)" stroke-opacity="1" stroke-linecap="round" stroke-linejoin="round"/>
    <path d="M 124.81800079345703 187.7239990234375 C 124.62699890136719 163.97000122070312 125.27300262451172 149.19500732421875 125.44599914550781 202.99000549316406" stroke-width="2.0" fill="none" stroke="rgb(0, 0, 0)" stroke-opacity="1" stroke-linecap="round" stroke-linejoin="round"/>
    <path d="M 130.00799560546875 111.28099822998047 C 136.8719940185547 69.78929901123047 119.7509994506836 72.33460235595703 114.60399627685547 91.48899841308594" stroke-width="2.0" fill="none" stroke="rgb(0, 0, 0)" stroke-opacity="1" stroke-linecap="round" stroke-linejoin="round"/>
    <path d="M 130.13900756835938 94.37079620361328 C 136.1439971923828 74.76909637451172 112.5270004272461 90.28389739990234 118.12200164794922 110.17500305175781" stroke-width="2.0" fill="none" stroke="rgb(0, 0, 0)" stroke-opacity="1" stroke-linecap="round" stroke-linejoin="round"/>
    <path d="M 55.139801025390625 172.92100524902344 C 21.550199508666992 180.62899780273438 9.710700035095215 179.85899353027344 15.345199584960938 188.92300415039062" stroke-width="2.0" fill="none" stroke="rgb(0, 0, 0)" stroke-opacity="1" stroke-linecap="round" stroke-linejoin="round"/>
    <path d="M 100.35600280761719 110.20700073242188 C 100.31500244140625 125.94999694824219 66.73619842529297 126.16100311279297 115.61499786376953 114.3759994506836" stroke-width="2.0" fill="none" stroke="rgb(0, 0, 0)" stroke-opacity="1" stroke-linecap="round" stroke-linejoin="round"/>
    <path d="M 51.28120040893555 116.48999786376953 C 101.19000244140625 113.62899780273438 127.1500015258789 107.72899627685547 126.01899719238281 122.4020004272461" stroke-width="2.0" fill="none" stroke="rgb(0, 0, 0)" stroke-opacity="1" stroke-linecap="round" stroke-linejoin="round"/>
    <path d="M 194.86300659179688 173.01199340820312 C 165.5679931640625 164.20199584960938 199.93099975585938 168.7220001220703 218.02999877929688 169.98199462890625" stroke-width="2.0" fill="none" stroke="rgb(0, 0, 0)" stroke-opacity="1" stroke-linecap="round" stroke-linejoin="round"/>
    <path d="M 127.92500305175781 190.2449951171875 C 135.05599975585938 204.25900268554688 137.44000244140625 217.343994140625 124.05799865722656 163.12100219726562" stroke-width="2.0" fill="none" stroke="rgb(0, 0, 0)" stroke-opacity="1" stroke-linecap="round" stroke-linejoin="round"/>
    <path d="M 148.70399475097656 116.6709976196289 C 119.2959976196289 129.1060028076172 113.82099914550781 115.59700012207031 72.37220001220703 118.90599822998047" stroke-width="2.0" fill="none" stroke="rgb(0, 0, 0)" stroke-opacity="1" stroke-linecap="round" stroke-linejoin="round"/>
    <path d="M 102.88300323486328 135.0989990234375 C 159.30599975585938 138.15699768066406 156.8280029296875 139.94700622558594 121.73300170898438 136.00799560546875" stroke-width="2.0" fill="none" stroke="rgb(0, 0, 0)" stroke-opacity="1" stroke-linecap="round" stroke-linejoin="round"/>
    <path d="M 225.4669952392578 193.1909942626953 C 197.35400390625 182.47900390625 214.0229949951172 181.6929931640625 171.0449981689453 170.86099243164062" stroke-width="2.0" fill="none" stroke="rgb(0, 0, 0)" stroke-opacity="1" stroke-linecap="round" stroke-linejoin="round"/>
    <path d="M 121.5770034790039 109.56099700927734 C 140.87899780273438 123.4010009765625 132.68800354003906 119.66600036621094 125.0719985961914 109.60399627685547" stroke-width="2.0" fill="none" stroke="rgb(0, 0, 0)" stroke-opacity="1" stroke-linecap="round" stroke-linejoin="round"/>
    <path d="M 45.709598541259766 181.0 C 40.47060012817383 186.7480010986328 45.402198791503906 181.79800415039062 23.0 194.64199829101562" stroke-width="2.0" fill="none" stroke="rgb(0, 0, 0)" stroke-opacity="1" stroke-linecap="round" stroke-linejoin="round"/>
    <path d="M 132.9219970703125 122.01799774169922 C 108.86599731445312 133.3719940185547 141.1719970703125 140.25100708007812 120.41500091552734 119.77899932861328" stroke-width="2.0" fill="none" stroke="rgb(0, 0, 0)" stroke-opacity="1" stroke-linecap="round" stroke-linejoin="round"/>
    <path d="M 60.33319854736328 172.42599487304688 C 121.91400146484375 159.66799926757812 123.88099670410156 156.00799560546875 89.44609832763672 156.72799682617188" stroke-width="2.0" fill="none" stroke="rgb(0, 0, 0)" stroke-opacity="1" stroke-linecap="round" stroke-linejoin="round"/>
  </g>
</svg>
