<svg height="256" version="1.1" width="256" xmlns="http://www.w3.org/2000/svg">
  <defs/>
  <g>
    <path d="M86.614 159.669C101.325 142.798 78.22 165.712 97.569 155.049" fill="none" stroke="rgb(0, 0, 0)" stroke-linecap="round" stroke-linejoin="round" stroke-opacity="1.0" stroke-width="2"/>
    <path d="M167.79 158.301C168.263 174.535 169.777 174.721 170.951 183.214" fill="none" stroke="rgb(0, 0, 0)" stroke-linecap="round" stroke-linejoin="round" stroke-opacity="1.0" stroke-width="2"/>
    <path d="M91.0829 148.498C119.094 151.216 102.131 167.362 117.141 177.526" fill="none" stroke="rgb(0, 0, 0)" stroke-linecap="round" stroke-linejoin="round" stroke-opacity="1.0" stroke-width="2"/>
    <path d="M126.282 135.529C124.412 112.658 122.032 131.427 123.744 105.799" fill="none" stroke="rgb(0, 0, 0)" stroke-linecap="round" stroke-linejoin="round" stroke-opacity="1.0" stroke-width="2"/>
    <path d="M83.8543 148.36C87.3779 112.177 90.771 129.83 83.8356 157.747" fill="none" stroke="rgb(0, 0, 0)" stroke-linecap="round" stroke-linejoin="round" stroke-opacity="1.0" stroke-width="2"/>
    <path d="M168.878 175.373C172.777 198.313 174.404 184.731 178.483 212.841" fill="none" stroke="rgb(0, 0, 0)" stroke-linecap="round" stroke-linejoin="round" stroke-opacity="1.0" stroke-width="2"/>
    <path d="M114.85 106.514C114.146 131.677 105.752 132.375 118.469 99" fill="none" stroke="rgb(0, 0, 0)" stroke-linecap="round" stroke-linejoin="round" stroke-opacity="1.0" stroke-width="2"/>
    <path d="M120.804 164.942C139.101 205.217 126.768 193.319 136.742 232" fill="none" stroke="rgb(0, 0, 0)" stroke-linecap="round" stroke-linejoin="round" stroke-opacity="1.0" stroke-width="2"/>
    <path d="M81.6544 159.704C87.714 138.923 76.4931 139.252 89.4399 132.572" fill="none" stroke="rgb(0, 0, 0)" stroke-linecap="round" stroke-linejoin="round" stroke-opacity="1.0" stroke-width="2"/>
    <path d="M87.9949 166.823C111.548 139.951 88.214 162.14 81.0744 156.494" fill="none" stroke="rgb(0, 0, 0)" stroke-linecap="round" stroke-linejoin="round" stroke-opacity="1.0" stroke-width="2"/>
    <path d="M113.081 59.7704C117.284 76.5579 123.021 78.5853 121.739 90.9091" fill="none" stroke="rgb(0, 0, 0)" stroke-linecap="round" stroke-linejoin="round" stroke-opacity="1.0" stroke-width="2"/>
    <path d="M99.4829 63C112.934 97.5845 101.59 68.2244 106.04 109.51" fill="none" stroke="rgb(0, 0, 0)" stroke-linecap="round" stroke-linejoin="round" stroke-opacity="1.0" stroke-width="2"/>
    <path d="M90.7599 185.808C83.5468 162.152 88.7039 203.686 95.861 158.255" fill="none" stroke="rgb(0, 0, 0)" stroke-linecap="round" stroke-linejoin="round" stroke-opacity="1.0" stroke-width="2"/>
    <path d="M154.428 177.098C159.045 185.701 156.979 178.183 161.114 208.456" fill="none" stroke="rgb(0, 0, 0)" stroke-linecap="round" stroke-linejoin="round" stroke-opacity="1.0" stroke-width="2"/>
    <path d="M130.1 191.769C123.547 164.83 124.653 185.322 121.369 163.497" fill="none" stroke="rgb(0, 0, 0)" stroke-linecap="round" stroke-linejoin="round" stroke-opacity="1.0" stroke-width="2"/>
    <path d="M104.826 121.33C97.542 107.57 102.729 134.375 88.159 141.086" fill="none" stroke="rgb(0, 0, 0)" stroke-linecap="round" stroke-linejoin="round" stroke-opacity="1.0" stroke-width="2"/>
    <path d="M136.825 75.9468C144.883 84.9699 150.164 86.9243 155.614 96.5165" fill="none" stroke="rgb(0, 0, 0)" stroke-linecap="round" stroke-linejoin="round" stroke-opacity="1.0" stroke-width="2"/>
    <path d="M92.174 156.994C117.291 160.019 79.817 159.963 78.5629 156.17" fill="none" stroke="rgb(0, 0, 0)" stroke-linecap="round" stroke-linejoin="round" stroke-opacity="1.0" stroke-width="2"/>
    <path d="M163.338 76.5355C154.152 97.1762 154.297 98.0886 159.053 107.459" fill="none" stroke="rgb(0, 0, 0)" stroke-linecap="round" stroke-linejoin="round" stroke-opacity="1.0" stroke-width="2"/>
    <path d="M120.483 167C112.937 118.252 110.965 123.056 106.483 101" fill="none" stroke="rgb(0, 0, 0)" stroke-linecap="round" stroke-linejoin="round" stroke-opacity="1.0" stroke-width="2"/>
    <path d="M125.169 126C127.011 162.164 130.009 150.046 123.483 168" fill="none" stroke="rgb(0, 0, 0)" stroke-linecap="round" stroke-linejoin="round" stroke-opacity="1.0" stroke-width="2"/>
    <path d="M90.9609 136.393C74.916 127.596 97.7159 122.339 85.8024 135.253" fill="none" stroke="rgb(0, 0, 0)" stroke-linecap="round" stroke-linejoin="round" stroke-opacity="1.0" stroke-width="2"/>
    <path d="M102.338 154.55C81.5691 150.775 89.9689 133.93 111.72 173.652" fill="none" stroke="rgb(0, 0, 0)" stroke-linecap="round" stroke-linejoin="round" stroke-opacity="1.0" stroke-width="2"/>
    <path d="M131.797 61.5406C136.793 75.4823 142.585 85.6618 142.85 87.2398" fill="none" stroke="rgb(0, 0, 0)" stroke-linecap="round" stroke-linejoin="round" stroke-opacity="1.0" stroke-width="2"/>
    <path d="M86.1598 166.203C76.0661 140.371 71.3635 176.205 96.1669 153.258" fill="none" stroke="rgb(0, 0, 0)" stroke-linecap="round" stroke-linejoin="round" stroke-opacity="1.0" stroke-width="2"/>
    <path d="M80.5334 158.74C89.789 168.928 93.353 168.145 92.678 163.392" fill="none" stroke="rgb(0, 0, 0)" stroke-linecap="round" stroke-linejoin="round" stroke-opacity="1.0" stroke-width="2"/>
    <path d="M87.2329 157.294C89.3119 176.887 100.675 148.902 88.1069 182.561" fill="none" stroke="rgb(0, 0, 0)" stroke-linecap="round" stroke-linejoin="round" stroke-opacity="1.0" stroke-width="2"/>
    <path d="M132.286 105.524C132.762 107.06 132.968 105.237 128.269 94.5965" fill="none" stroke="rgb(0, 0, 0)" stroke-linecap="round" stroke-linejoin="round" stroke-opacity="1.0" stroke-width="2"/>
    <path d="M117.159 74.9229C123.584 71.2206 122.29 52.1756 132.041 87.2522" fill="none" stroke="rgb(0, 0, 0)" stroke-linecap="round" stroke-linejoin="round" stroke-opacity="1.0" stroke-width="2"/>
    <path d="M90.0579 178.168C113.095 153.843 69.0823 166.406 99.7999 156.061" fill="none" stroke="rgb(0, 0, 0)" stroke-linecap="round" stroke-linejoin="round" stroke-opacity="1.0" stroke-width="2"/>
    <path d="M91.8229 159.968C78.7197 153.455 91.2439 149.78 103.668 150.083" fill="none" stroke="rgb(0, 0, 0)" stroke-linecap="round" stroke-linejoin="round" stroke-opacity="1.0" stroke-width="2"/>
    <path d="M161.231 72.3887C155.856 105.677 160.628 107.32 161.42 133.037" fill="none" stroke="rgb(0, 0, 0)" stroke-linecap="round" stroke-linejoin="round" stroke-opacity="1.0" stroke-width="2"/>
    <path d="M129.267 101.925C133.015 130.814 129.486 105.037 132.073 126.912" fill="none" stroke="rgb(0, 0, 0)" stroke-linecap="round" stroke-linejoin="round" stroke-opacity="1.0" stroke-width="2"/>
    <path d="M168.623 163.478C161.378 141.407 165.213 150.234 159.634 131.018" fill="none" stroke="rgb(0, 0, 0)" stroke-linecap="round" stroke-linejoin="round" stroke-opacity="1.0" stroke-width="2"/>
    <path d="M91.4829 141.974C95.5019 149.365 106.141 117.335 108.408 120.179" fill="none" stroke="rgb(0, 0, 0)" stroke-linecap="round" stroke-linejoin="round" stroke-opacity="1.0" stroke-width="2"/>
    <path d="M118.412 73.3354C128.603 93.8284 114.729 81.5145 125.837 105.373" fill="none" stroke="rgb(0, 0, 0)" stroke-linecap="round" stroke-linejoin="round" stroke-opacity="1.0" stroke-width="2"/>
    <path d="M130.844 87.8783C127.793 109.067 128.907 98.0589 129.644 109.252" fill="none" stroke="rgb(0, 0, 0)" stroke-linecap="round" stroke-linejoin="round" stroke-opacity="1.0" stroke-width="2"/>
    <path d="M85.0635 158.479C76.4175 166.318 85.1634 174.569 88.8 156.112" fill="none" stroke="rgb(0, 0, 0)" stroke-linecap="round" stroke-linejoin="round" stroke-opacity="1.0" stroke-width="2"/>
    <path d="M161.94 138.916C160.018 117.413 160.295 115.777 159.071 104.575" fill="none" stroke="rgb(0, 0, 0)" stroke-linecap="round" stroke-linejoin="round" stroke-opacity="1.0" stroke-width="2"/>
    <path d="M90.546 158.704C89.1509 129.125 103.375 148.293 101.904 128.426" fill="none" stroke="rgb(0, 0, 0)" stroke-linecap="round" stroke-linejoin="round" stroke-opacity="1.0" stroke-width="2"/>
    <path d="M98.4159 164.846C73.589 156.685 85.8354 143.344 79.247 163.213" fill="none" stroke="rgb(0, 0, 0)" stroke-linecap="round" stroke-linejoin="round" stroke-opacity="1.0" stroke-width="2"/>
    <path d="M157.718 110.09C154.41 85.2241 155.381 95.058 155.536 93.1058" fill="none" stroke="rgb(0, 0, 0)" stroke-linecap="round" stroke-linejoin="round" stroke-opacity="1.0" stroke-width="2"/>
  </g>
</svg>
