<?xml version="1.0" ?>
<svg xmlns="http://www.w3.org/2000/svg" version="1.1" width="256" height="256">
  <defs/>
  <g>
    <path d="M 114.38200378417969 97.18389892578125 C 111.93099975585938 97.87370300292969 122.0770034790039 101.99600219726562 111.95099639892578 99.52290344238281" stroke-width="1.0" fill="none" stroke="rgb(0, 0, 0)" stroke-opacity="1" stroke-linecap="round" stroke-linejoin="round"/>
    <path d="M 114.5469970703125 108.74199676513672 C 116.62100219726562 108.7040023803711 101.54199981689453 103.6729965209961 112.06999969482422 106.4800033569336" stroke-width="1.0" fill="none" stroke="rgb(0, 0, 0)" stroke-opacity="1" stroke-linecap="round" stroke-linejoin="round"/>
    <path d="M 42.40549850463867 57.59080123901367 C 58.68539810180664 84.20780181884766 51.63639831542969 66.2573013305664 50.99720001220703 84.03230285644531" stroke-width="1.0" fill="none" stroke="rgb(0, 0, 0)" stroke-opacity="1" stroke-linecap="round" stroke-linejoin="round"/>
    <path d="M 106.77799987792969 107.31800079345703 C 121.5479965209961 102.74600219726562 116.84200286865234 103.48699951171875 112.76200103759766 107.02200317382812" stroke-width="1.0" fill="none" stroke="rgb(0, 0, 0)" stroke-opacity="1" stroke-linecap="round" stroke-linejoin="round"/>
    <path d="M 107.44000244140625 102.91000366210938 C 123.42500305175781 99.6063003540039 111.91100311279297 97.06600189208984 109.56600189208984 103.76399993896484" stroke-width="1.0" fill="none" stroke="rgb(0, 0, 0)" stroke-opacity="1" stroke-linecap="round" stroke-linejoin="round"/>
    <path d="M 49.575199127197266 80.0521011352539 C 35.71590042114258 82.3510971069336 45.584999084472656 84.6395034790039 31.151500701904297 88.46759796142578" stroke-width="1.0" fill="none" stroke="rgb(0, 0, 0)" stroke-opacity="1" stroke-linecap="round" stroke-linejoin="round"/>
    <path d="M 50.990501403808594 79.29820251464844 C 51.26179885864258 81.27169799804688 50.68080139160156 78.02570343017578 51.34989929199219 77.20269775390625" stroke-width="1.0" fill="none" stroke="rgb(0, 0, 0)" stroke-opacity="1" stroke-linecap="round" stroke-linejoin="round"/>
    <path d="M 27.69420051574707 89.00749969482422 C 42.55030059814453 88.49330139160156 41.583099365234375 87.47689819335938 27.730199813842773 88.29550170898438" stroke-width="1.0" fill="none" stroke="rgb(0, 0, 0)" stroke-opacity="1" stroke-linecap="round" stroke-linejoin="round"/>
    <path d="M 71.40190124511719 104.05400085449219 C 74.46009826660156 108.50299835205078 66.49099731445312 106.98200225830078 65.67880249023438 113.61000061035156" stroke-width="1.0" fill="none" stroke="rgb(0, 0, 0)" stroke-opacity="1" stroke-linecap="round" stroke-linejoin="round"/>
    <path d="M 116.58200073242188 103.79100036621094 C 119.7300033569336 99.69090270996094 95.05380249023438 84.57230377197266 115.76799774169922 100.85399627685547" stroke-width="1.0" fill="none" stroke="rgb(0, 0, 0)" stroke-opacity="1" stroke-linecap="round" stroke-linejoin="round"/>
    <path d="M 98.57749938964844 97.24009704589844 C 101.6719970703125 111.61799621582031 104.80699920654297 104.42400360107422 112.98200225830078 109.82499694824219" stroke-width="1.0" fill="none" stroke="rgb(0, 0, 0)" stroke-opacity="1" stroke-linecap="round" stroke-linejoin="round"/>
    <path d="M 73.34880065917969 85.8125 C 88.09349822998047 89.3552017211914 72.07990264892578 85.60479736328125 70.96880340576172 84.76239776611328" stroke-width="1.0" fill="none" stroke="rgb(0, 0, 0)" stroke-opacity="1" stroke-linecap="round" stroke-linejoin="round"/>
    <path d="M 86.9209976196289 102.09700012207031 C 77.30500030517578 92.30079650878906 86.19869995117188 98.2040023803711 86.80069732666016 103.16000366210938" stroke-width="1.0" fill="none" stroke="rgb(0, 0, 0)" stroke-opacity="1" stroke-linecap="round" stroke-linejoin="round"/>
    <path d="M 53.9807014465332 84.11180114746094 C 61.2692985534668 90.66889953613281 60.91059875488281 102.8949966430664 79.71959686279297 107.36699676513672" stroke-width="1.0" fill="none" stroke="rgb(0, 0, 0)" stroke-opacity="1" stroke-linecap="round" stroke-linejoin="round"/>
    <path d="M 67.02639770507812 76.98979949951172 C 81.23680114746094 66.01730346679688 132.65699768066406 103.4000015258789 82.13829803466797 65.73159790039062" stroke-width="1.0" fill="none" stroke="rgb(0, 0, 0)" stroke-opacity="1" stroke-linecap="round" stroke-linejoin="round"/>
    <path d="M 98.54730224609375 78.6438980102539 C 96.82379913330078 80.51349639892578 105.41000366210938 80.01390075683594 87.6094970703125 63.19169998168945" stroke-width="1.0" fill="none" stroke="rgb(0, 0, 0)" stroke-opacity="1" stroke-linecap="round" stroke-linejoin="round"/>
    <path d="M 41.6869010925293 49.31560134887695 C 42.00859832763672 53.407100677490234 46.019901275634766 56.33729934692383 53.97560119628906 72.12220001220703" stroke-width="1.0" fill="none" stroke="rgb(0, 0, 0)" stroke-opacity="1" stroke-linecap="round" stroke-linejoin="round"/>
    <path d="M 112.66400146484375 109.7770004272461 C 95.36669921875 115.18800354003906 87.82879638671875 110.49199676513672 112.92900085449219 110.10299682617188" stroke-width="1.0" fill="none" stroke="rgb(0, 0, 0)" stroke-opacity="1" stroke-linecap="round" stroke-linejoin="round"/>
    <path d="M 44.645999908447266 67.24510192871094 C 39.4109992980957 86.24400329589844 44.61669921875 68.95999908447266 30.464799880981445 89.28199768066406" stroke-width="1.0" fill="none" stroke="rgb(0, 0, 0)" stroke-opacity="1" stroke-linecap="round" stroke-linejoin="round"/>
    <path d="M 78.8240966796875 109.15899658203125 C 103.9280014038086 112.30899810791016 101.71399688720703 109.04900360107422 109.7509994506836 110.27200317382812" stroke-width="1.0" fill="none" stroke="rgb(0, 0, 0)" stroke-opacity="1" stroke-linecap="round" stroke-linejoin="round"/>
    <path d="M 64.63079833984375 119.02100372314453 C 64.09040069580078 111.72100067138672 68.39550018310547 116.45500183105469 79.20800018310547 108.12000274658203" stroke-width="1.0" fill="none" stroke="rgb(0, 0, 0)" stroke-opacity="1" stroke-linecap="round" stroke-linejoin="round"/>
    <path d="M 104.47000122070312 111.49199676513672 C 77.1052017211914 111.33300018310547 94.36260223388672 112.64800262451172 79.92659759521484 118.4020004272461" stroke-width="1.0" fill="none" stroke="rgb(0, 0, 0)" stroke-opacity="1" stroke-linecap="round" stroke-linejoin="round"/>
    <path d="M 106.54000091552734 98.7251968383789 C 113.46700286865234 100.60199737548828 104.6050033569336 92.79750061035156 105.9540023803711 98.1343002319336" stroke-width="1.0" fill="none" stroke="rgb(0, 0, 0)" stroke-opacity="1" stroke-linecap="round" stroke-linejoin="round"/>
    <path d="M 100.197998046875 92.95429992675781 C 89.45320129394531 98.95059967041016 110.30699920654297 119.95700073242188 82.56670379638672 98.09100341796875" stroke-width="1.0" fill="none" stroke="rgb(0, 0, 0)" stroke-opacity="1" stroke-linecap="round" stroke-linejoin="round"/>
    <path d="M 97.63860321044922 76.17489624023438 C 75.0448989868164 74.32099914550781 92.64739990234375 74.35449981689453 104.98100280761719 86.84880065917969" stroke-width="1.0" fill="none" stroke="rgb(0, 0, 0)" stroke-opacity="1" stroke-linecap="round" stroke-linejoin="round"/>
    <path d="M 62.662899017333984 96.49539947509766 C 57.55379867553711 84.25260162353516 55.15950012207031 85.62090301513672 53.46419906616211 100.73300170898438" stroke-width="1.0" fill="none" stroke="rgb(0, 0, 0)" stroke-opacity="1" stroke-linecap="round" stroke-linejoin="round"/>
    <path d="M 79.10260009765625 68.52339935302734 C 105.58999633789062 80.6322021484375 111.01100158691406 92.6948013305664 93.43489837646484 65.8427963256836" stroke-width="1.0" fill="none" stroke="rgb(0, 0, 0)" stroke-opacity="1" stroke-linecap="round" stroke-linejoin="round"/>
    <path d="M 108.51899719238281 110.60800170898438 C 89.66280364990234 114.48500061035156 85.08670043945312 109.13200378417969 113.69599914550781 109.94400024414062" stroke-width="1.0" fill="none" stroke="rgb(0, 0, 0)" stroke-opacity="1" stroke-linecap="round" stroke-linejoin="round"/>
    <path d="M 29.76849937438965 84.80239868164062 C 33.79970169067383 77.89559936523438 40.326499938964844 74.993896484375 51.942501068115234 75.3135986328125" stroke-width="1.0" fill="none" stroke="rgb(0, 0, 0)" stroke-opacity="1" stroke-linecap="round" stroke-linejoin="round"/>
    <path d="M 83.71700286865234 89.35179901123047 C 75.06230163574219 85.5885009765625 57.694698333740234 81.79429626464844 71.98650360107422 85.11090087890625" stroke-width="1.0" fill="none" stroke="rgb(0, 0, 0)" stroke-opacity="1" stroke-linecap="round" stroke-linejoin="round"/>
    <path d="M 57.08649826049805 74.12920379638672 C 76.06929779052734 81.96489715576172 56.32529830932617 63.159698486328125 92.30359649658203 76.27940368652344" stroke-width="1.0" fill="none" stroke="rgb(0, 0, 0)" stroke-opacity="1" stroke-linecap="round" stroke-linejoin="round"/>
    <path d="M 112.1449966430664 110.19300079345703 C 88.92459869384766 104.41699981689453 93.52100372314453 110.3550033569336 87.82980346679688 100.17900085449219" stroke-width="1.0" fill="none" stroke="rgb(0, 0, 0)" stroke-opacity="1" stroke-linecap="round" stroke-linejoin="round"/>
    <path d="M 89.59609985351562 91.30950164794922 C 62.53419876098633 80.72760009765625 82.39579772949219 90.65499877929688 56.11470031738281 79.15290069580078" stroke-width="1.0" fill="none" stroke="rgb(0, 0, 0)" stroke-opacity="1" stroke-linecap="round" stroke-linejoin="round"/>
    <path d="M 71.35030364990234 85.78359985351562 C 73.28119659423828 86.37220001220703 45.639198303222656 75.03849792480469 55.3047981262207 78.91439819335938" stroke-width="1.0" fill="none" stroke="rgb(0, 0, 0)" stroke-opacity="1" stroke-linecap="round" stroke-linejoin="round"/>
    <path d="M 79.34210205078125 66.52729797363281 C 90.83529663085938 72.2228012084961 93.8021011352539 57.10879898071289 94.956298828125 65.90779876708984" stroke-width="1.0" fill="none" stroke="rgb(0, 0, 0)" stroke-opacity="1" stroke-linecap="round" stroke-linejoin="round"/>
    <path d="M 112.2959976196289 105.45899963378906 C 117.83799743652344 111.80599975585938 115.68800354003906 110.95600128173828 96.82129669189453 109.83399963378906" stroke-width="1.0" fill="none" stroke="rgb(0, 0, 0)" stroke-opacity="1" stroke-linecap="round" stroke-linejoin="round"/>
    <path d="M 52.063899993896484 83.73490142822266 C 61.11949920654297 85.17530059814453 64.22760009765625 97.18399810791016 58.34939956665039 88.9209976196289" stroke-width="1.0" fill="none" stroke="rgb(0, 0, 0)" stroke-opacity="1" stroke-linecap="round" stroke-linejoin="round"/>
    <path d="M 105.1969985961914 106.73999786376953 C 100.37300109863281 100.74099731445312 117.59700012207031 107.26000213623047 109.3290023803711 91.56379699707031" stroke-width="1.0" fill="none" stroke="rgb(0, 0, 0)" stroke-opacity="1" stroke-linecap="round" stroke-linejoin="round"/>
    <path d="M 73.11689758300781 106.81300354003906 C 81.10089874267578 106.52300262451172 74.01580047607422 107.64199829101562 69.3541030883789 102.8949966430664" stroke-width="1.0" fill="none" stroke="rgb(0, 0, 0)" stroke-opacity="1" stroke-linecap="round" stroke-linejoin="round"/>
    <path d="M 26.7810001373291 87.2571029663086 C 36.522300720214844 81.96320343017578 31.313499450683594 79.76110076904297 45.60279846191406 71.62920379638672" stroke-width="1.0" fill="none" stroke="rgb(0, 0, 0)" stroke-opacity="1" stroke-linecap="round" stroke-linejoin="round"/>
    <path d="M 110.5260009765625 91.86000061035156 C 121.6709976196289 104.29100036621094 119.74199676513672 104.18000030517578 102.6520004272461 89.54049682617188" stroke-width="1.0" fill="none" stroke="rgb(0, 0, 0)" stroke-opacity="1" stroke-linecap="round" stroke-linejoin="round"/>
    <path d="M 110.21900177001953 96.7936019897461 C 117.79499816894531 104.3280029296875 114.06700134277344 99.4833984375 111.37699890136719 93.26110076904297" stroke-width="1.0" fill="none" stroke="rgb(0, 0, 0)" stroke-opacity="1" stroke-linecap="round" stroke-linejoin="round"/>
    <path d="M 31.67490005493164 88.03780364990234 C 28.778400421142578 89.94419860839844 34.527000427246094 91.10990142822266 51.69820022583008 83.03209686279297" stroke-width="1.0" fill="none" stroke="rgb(0, 0, 0)" stroke-opacity="1" stroke-linecap="round" stroke-linejoin="round"/>
    <path d="M 91.88909912109375 60.83449935913086 C 97.74739837646484 73.95780181884766 99.86669921875 69.35089874267578 97.4916000366211 80.7073974609375" stroke-width="1.0" fill="none" stroke="rgb(0, 0, 0)" stroke-opacity="1" stroke-linecap="round" stroke-linejoin="round"/>
    <path d="M 78.96759796142578 91.63929748535156 C 103.70899963378906 108.3290023803711 75.66390228271484 95.39689636230469 74.60379791259766 91.32330322265625" stroke-width="1.0" fill="none" stroke="rgb(0, 0, 0)" stroke-opacity="1" stroke-linecap="round" stroke-linejoin="round"/>
    <path d="M 104.28700256347656 106.61799621582031 C 119.7490005493164 103.95700073242188 125.8239974975586 98.93890380859375 104.39600372314453 102.0260009765625" stroke-width="1.0" fill="none" stroke="rgb(0, 0, 0)" stroke-opacity="1" stroke-linecap="round" stroke-linejoin="round"/>
    <path d="M 65.59989929199219 75.4977035522461 C 66.75779724121094 62.68239974975586 84.88500213623047 72.61029815673828 74.37359619140625 66.78829956054688" stroke-width="1.0" fill="none" stroke="rgb(0, 0, 0)" stroke-opacity="1" stroke-linecap="round" stroke-linejoin="round"/>
    <path d="M 102.91600036621094 83.87010192871094 C 97.13269805908203 75.82759857177734 85.16500091552734 69.7562026977539 101.72200012207031 80.6239013671875" stroke-width="1.0" fill="none" stroke="rgb(0, 0, 0)" stroke-opacity="1" stroke-linecap="round" stroke-linejoin="round"/>
    <path d="M 105.21700286865234 91.16909790039062 C 84.11160278320312 88.45989990234375 102.08000183105469 95.13829803466797 84.68370056152344 89.26529693603516" stroke-width="1.0" fill="none" stroke="rgb(0, 0, 0)" stroke-opacity="1" stroke-linecap="round" stroke-linejoin="round"/>
    <path d="M 88.08049774169922 89.99649810791016 C 97.13610076904297 95.48560333251953 95.82479858398438 84.785400390625 102.74500274658203 92.0697021484375" stroke-width="1.0" fill="none" stroke="rgb(0, 0, 0)" stroke-opacity="1" stroke-linecap="round" stroke-linejoin="round"/>
    <path d="M 109.62000274658203 94.63729858398438 C 85.75630187988281 78.94080352783203 84.00440216064453 106.59700012207031 103.3270034790039 108.82099914550781" stroke-width="1.0" fill="none" stroke="rgb(0, 0, 0)" stroke-opacity="1" stroke-linecap="round" stroke-linejoin="round"/>
    <path d="M 52.60179901123047 75.05850219726562 C 45.016998291015625 68.4175033569336 56.71120071411133 81.60910034179688 53.88610076904297 66.4634017944336" stroke-width="1.0" fill="none" stroke="rgb(0, 0, 0)" stroke-opacity="1" stroke-linecap="round" stroke-linejoin="round"/>
    <path d="M 88.18470001220703 110.53600311279297 C 70.38760375976562 105.96199798583984 81.59839630126953 109.68399810791016 68.50379943847656 111.93599700927734" stroke-width="1.0" fill="none" stroke="rgb(0, 0, 0)" stroke-opacity="1" stroke-linecap="round" stroke-linejoin="round"/>
    <path d="M 110.16000366210938 91.3655014038086 C 97.33789825439453 75.44619750976562 97.06620025634766 79.181396484375 78.74659729003906 71.85929870605469" stroke-width="1.0" fill="none" stroke="rgb(0, 0, 0)" stroke-opacity="1" stroke-linecap="round" stroke-linejoin="round"/>
    <path d="M 43.1869010925293 49.41350173950195 C 58.766300201416016 66.05999755859375 50.30440139770508 71.10250091552734 62.47249984741211 76.28710174560547" stroke-width="1.0" fill="none" stroke="rgb(0, 0, 0)" stroke-opacity="1" stroke-linecap="round" stroke-linejoin="round"/>
    <path d="M 115.00700378417969 99.01629638671875 C 108.49700164794922 85.2593994140625 95.98090362548828 73.92780303955078 86.8240966796875 64.93099975585938" stroke-width="1.0" fill="none" stroke="rgb(0, 0, 0)" stroke-opacity="1" stroke-linecap="round" stroke-linejoin="round"/>
    <path d="M 108.54900360107422 103.11399841308594 C 120.18699645996094 97.68070220947266 119.11000061035156 104.7959976196289 110.00800323486328 101.38999938964844" stroke-width="1.0" fill="none" stroke="rgb(0, 0, 0)" stroke-opacity="1" stroke-linecap="round" stroke-linejoin="round"/>
    <path d="M 109.96399688720703 91.63420104980469 C 106.56600189208984 85.92459869384766 118.33899688720703 102.8949966430664 112.26699829101562 95.04419708251953" stroke-width="1.0" fill="none" stroke="rgb(0, 0, 0)" stroke-opacity="1" stroke-linecap="round" stroke-linejoin="round"/>
    <path d="M 57.01649856567383 73.17259979248047 C 55.34749984741211 74.01100158691406 74.55809783935547 78.84459686279297 61.60309982299805 76.25199890136719" stroke-width="1.0" fill="none" stroke="rgb(0, 0, 0)" stroke-opacity="1" stroke-linecap="round" stroke-linejoin="round"/>
    <path d="M 37.972900390625 77.25859832763672 C 49.69139862060547 67.3093032836914 42.50809860229492 79.44779968261719 43.61119842529297 51.851200103759766" stroke-width="1.0" fill="none" stroke="rgb(0, 0, 0)" stroke-opacity="1" stroke-linecap="round" stroke-linejoin="round"/>
    <path d="M 86.70580291748047 67.27100372314453 C 105.03900146484375 83.09500122070312 111.5510025024414 93.51249694824219 101.49500274658203 82.81079864501953" stroke-width="1.0" fill="none" stroke="rgb(0, 0, 0)" stroke-opacity="1" stroke-linecap="round" stroke-linejoin="round"/>
    <path d="M 100.13899993896484 79.78060150146484 C 91.76699829101562 54.21879959106445 94.2384033203125 70.21499633789062 71.30130004882812 68.00579833984375" stroke-width="1.0" fill="none" stroke="rgb(0, 0, 0)" stroke-opacity="1" stroke-linecap="round" stroke-linejoin="round"/>
    <path d="M 63.81420135498047 95.60800170898438 C 56.91749954223633 86.09590148925781 54.638099670410156 87.65080261230469 61.08689880371094 93.49469757080078" stroke-width="1.0" fill="none" stroke="rgb(0, 0, 0)" stroke-opacity="1" stroke-linecap="round" stroke-linejoin="round"/>
    <path d="M 106.16799926757812 85.53820037841797 C 94.0824966430664 77.47419738769531 107.68800354003906 79.94219970703125 95.66529846191406 65.63020324707031" stroke-width="1.0" fill="none" stroke="rgb(0, 0, 0)" stroke-opacity="1" stroke-linecap="round" stroke-linejoin="round"/>
    <path d="M 137.76400756835938 123.64299774169922 C 134.57400512695312 123.14900207519531 122.22899627685547 128.44700622558594 138.65199279785156 119.9280014038086" stroke-width="1.0" fill="none" stroke="rgb(0, 0, 0)" stroke-opacity="1" stroke-linecap="round" stroke-linejoin="round"/>
    <path d="M 143.18099975585938 128.06900024414062 C 144.0279998779297 121.15699768066406 145.18299865722656 128.08799743652344 149.56100463867188 130.17999267578125" stroke-width="1.0" fill="none" stroke="rgb(0, 0, 0)" stroke-opacity="1" stroke-linecap="round" stroke-linejoin="round"/>
    <path d="M 134.8090057373047 117.97799682617188 C 144.08599853515625 123.95999908447266 127.48200225830078 126.65799713134766 133.4720001220703 121.37200164794922" stroke-width="1.0" fill="none" stroke="rgb(0, 0, 0)" stroke-opacity="1" stroke-linecap="round" stroke-linejoin="round"/>
    <path d="M 180.4669952392578 140.19000244140625 C 185.593994140625 141.44200134277344 182.97500610351562 138.78900146484375 179.75900268554688 138.27200317382812" stroke-width="1.0" fill="none" stroke="rgb(0, 0, 0)" stroke-opacity="1" stroke-linecap="round" stroke-linejoin="round"/>
    <path d="M 179.281005859375 132.8179931640625 C 182.7729949951172 137.40899658203125 183.52000427246094 138.09800720214844 179.89100646972656 132.5919952392578" stroke-width="1.0" fill="none" stroke="rgb(0, 0, 0)" stroke-opacity="1" stroke-linecap="round" stroke-linejoin="round"/>
    <path d="M 145.13400268554688 126.125 C 144.13600158691406 130.63800048828125 146.08399963378906 124.3280029296875 141.47000122070312 123.34600067138672" stroke-width="1.0" fill="none" stroke="rgb(0, 0, 0)" stroke-opacity="1" stroke-linecap="round" stroke-linejoin="round"/>
    <path d="M 138.11900329589844 122.12200164794922 C 133.66900634765625 115.94300079345703 142.76199340820312 122.8030014038086 137.37100219726562 117.19400024414062" stroke-width="1.0" fill="none" stroke="rgb(0, 0, 0)" stroke-opacity="1" stroke-linecap="round" stroke-linejoin="round"/>
    <path d="M 174.00900268554688 140.28599548339844 C 161.28799438476562 131.1699981689453 162.05099487304688 131.927001953125 156.4669952392578 130.39199829101562" stroke-width="1.0" fill="none" stroke="rgb(0, 0, 0)" stroke-opacity="1" stroke-linecap="round" stroke-linejoin="round"/>
    <path d="M 166.17799377441406 136.1529998779297 C 167.95899963378906 134.10899353027344 166.60699462890625 138.2469940185547 169.0260009765625 136.91099548339844" stroke-width="1.0" fill="none" stroke="rgb(0, 0, 0)" stroke-opacity="1" stroke-linecap="round" stroke-linejoin="round"/>
    <path d="M 180.94000244140625 139.3179931640625 C 179.4949951171875 134.93499755859375 187.59300231933594 137.52499389648438 172.93499755859375 126.89600372314453" stroke-width="1.0" fill="none" stroke="rgb(0, 0, 0)" stroke-opacity="1" stroke-linecap="round" stroke-linejoin="round"/>
    <path d="M 156.822998046875 129.1750030517578 C 159.23800659179688 134.02000427246094 172.56500244140625 137.4499969482422 168.75799560546875 135.0050048828125" stroke-width="1.0" fill="none" stroke="rgb(0, 0, 0)" stroke-opacity="1" stroke-linecap="round" stroke-linejoin="round"/>
    <path d="M 183.90899658203125 137.37600708007812 C 178.77000427246094 141.31700134277344 187.11000061035156 138.9709930419922 176.2689971923828 130.29600524902344" stroke-width="1.0" fill="none" stroke="rgb(0, 0, 0)" stroke-opacity="1" stroke-linecap="round" stroke-linejoin="round"/>
    <path d="M 128.35899353027344 125.16899871826172 C 145.5 121.28399658203125 138.95599365234375 125.5 138.875 120.94999694824219" stroke-width="1.0" fill="none" stroke="rgb(0, 0, 0)" stroke-opacity="1" stroke-linecap="round" stroke-linejoin="round"/>
    <path d="M 162.26699829101562 132.19400024414062 C 177.53799438476562 137.86700439453125 183.99899291992188 141.91600036621094 159.072998046875 133.55299377441406" stroke-width="1.0" fill="none" stroke="rgb(0, 0, 0)" stroke-opacity="1" stroke-linecap="round" stroke-linejoin="round"/>
    <path d="M 176.0959930419922 129.7030029296875 C 157.56399536132812 122.947998046875 179.57699584960938 127.95700073242188 179.0780029296875 134.36000061035156" stroke-width="1.0" fill="none" stroke="rgb(0, 0, 0)" stroke-opacity="1" stroke-linecap="round" stroke-linejoin="round"/>
    <path d="M 168.64100646972656 124.25199890136719 C 155.70899963378906 119.19999694824219 148.20899963378906 119.64399719238281 168.67799377441406 125.23899841308594" stroke-width="1.0" fill="none" stroke="rgb(0, 0, 0)" stroke-opacity="1" stroke-linecap="round" stroke-linejoin="round"/>
    <path d="M 160.43699645996094 122.83499908447266 C 156.58200073242188 118.19400024414062 167.51499938964844 118.11599731445312 158.81100463867188 121.63800048828125" stroke-width="1.0" fill="none" stroke="rgb(0, 0, 0)" stroke-opacity="1" stroke-linecap="round" stroke-linejoin="round"/>
    <path d="M 184.7790069580078 139.38099670410156 C 179.10699462890625 142.93499755859375 175.6820068359375 134.8719940185547 180.52099609375 135.97799682617188" stroke-width="1.0" fill="none" stroke="rgb(0, 0, 0)" stroke-opacity="1" stroke-linecap="round" stroke-linejoin="round"/>
    <path d="M 182.56100463867188 135.81900024414062 C 186.76300048828125 142.6840057373047 177.63699340820312 135.3509979248047 183.1750030517578 136.9550018310547" stroke-width="1.0" fill="none" stroke="rgb(0, 0, 0)" stroke-opacity="1" stroke-linecap="round" stroke-linejoin="round"/>
    <path d="M 154.16600036621094 128.14700317382812 C 168.6840057373047 137.92599487304688 167.36300659179688 139.24899291992188 159.69500732421875 133.7570037841797" stroke-width="1.0" fill="none" stroke="rgb(0, 0, 0)" stroke-opacity="1" stroke-linecap="round" stroke-linejoin="round"/>
    <path d="M 152.06700134277344 134.9320068359375 C 155.02200317382812 130.593994140625 160.65199279785156 138.38099670410156 148.98399353027344 129.48599243164062" stroke-width="1.0" fill="none" stroke="rgb(0, 0, 0)" stroke-opacity="1" stroke-linecap="round" stroke-linejoin="round"/>
    <path d="M 124.85299682617188 125.26100158691406 C 132.05999755859375 124.9280014038086 133.5019989013672 116.30500030517578 145.16200256347656 125.91000366210938" stroke-width="1.0" fill="none" stroke="rgb(0, 0, 0)" stroke-opacity="1" stroke-linecap="round" stroke-linejoin="round"/>
    <path d="M 183.5019989013672 140.08299255371094 C 191.29400634765625 140.99000549316406 175.7949981689453 129.88299560546875 179.10899353027344 131.6060028076172" stroke-width="1.0" fill="none" stroke="rgb(0, 0, 0)" stroke-opacity="1" stroke-linecap="round" stroke-linejoin="round"/>
    <path d="M 135.21600341796875 122.96099853515625 C 141.78700256347656 119.16500091552734 142.22300720214844 123.75800323486328 125.31600189208984 125.51599884033203" stroke-width="1.0" fill="none" stroke="rgb(0, 0, 0)" stroke-opacity="1" stroke-linecap="round" stroke-linejoin="round"/>
    <path d="M 161.81900024414062 122.2040023803711 C 156.06900024414062 120.65399932861328 161.4669952392578 126.04399871826172 161.71200561523438 116.19000244140625" stroke-width="1.0" fill="none" stroke="rgb(0, 0, 0)" stroke-opacity="1" stroke-linecap="round" stroke-linejoin="round"/>
    <path d="M 175.52200317382812 138.43699645996094 C 183.781005859375 142.98800659179688 171.343994140625 137.60000610351562 183.95199584960938 137.65899658203125" stroke-width="1.0" fill="none" stroke="rgb(0, 0, 0)" stroke-opacity="1" stroke-linecap="round" stroke-linejoin="round"/>
    <path d="M 168.5399932861328 125.36900329589844 C 176.95700073242188 128.54400634765625 167.30299377441406 123.52100372314453 166.10000610351562 123.63400268554688" stroke-width="1.0" fill="none" stroke="rgb(0, 0, 0)" stroke-opacity="1" stroke-linecap="round" stroke-linejoin="round"/>
    <path d="M 152.73899841308594 128.031005859375 C 172.63099670410156 139.2449951171875 176.52699279785156 139.031005859375 165.96800231933594 137.1929931640625" stroke-width="1.0" fill="none" stroke="rgb(0, 0, 0)" stroke-opacity="1" stroke-linecap="round" stroke-linejoin="round"/>
    <path d="M 171.0469970703125 136.81100463867188 C 160.44400024414062 136.28500366210938 171.6719970703125 135.5989990234375 159.2429962158203 129.4720001220703" stroke-width="1.0" fill="none" stroke="rgb(0, 0, 0)" stroke-opacity="1" stroke-linecap="round" stroke-linejoin="round"/>
    <path d="M 182.57400512695312 135.2010040283203 C 178.54800415039062 143.0540008544922 177.75799560546875 138.15899658203125 181.322998046875 135.34800720214844" stroke-width="1.0" fill="none" stroke="rgb(0, 0, 0)" stroke-opacity="1" stroke-linecap="round" stroke-linejoin="round"/>
    <path d="M 149.90499877929688 119.51200103759766 C 167.18600463867188 121.75700378417969 161.10899353027344 122.68699645996094 148.73500061035156 119.77400207519531" stroke-width="1.0" fill="none" stroke="rgb(0, 0, 0)" stroke-opacity="1" stroke-linecap="round" stroke-linejoin="round"/>
    <path d="M 173.0659942626953 134.56399536132812 C 163.33900451660156 132.16799926757812 165.10800170898438 129.57200622558594 159.2220001220703 132.25" stroke-width="1.0" fill="none" stroke="rgb(0, 0, 0)" stroke-opacity="1" stroke-linecap="round" stroke-linejoin="round"/>
    <path d="M 164.7790069580078 123.98400115966797 C 165.46099853515625 124.30000305175781 164.77000427246094 122.37200164794922 160.97300720214844 122.76399993896484" stroke-width="1.0" fill="none" stroke="rgb(0, 0, 0)" stroke-opacity="1" stroke-linecap="round" stroke-linejoin="round"/>
    <path d="M 139.46499633789062 123.28900146484375 C 131.81300354003906 120.47599792480469 138.67100524902344 121.71800231933594 132.77000427246094 121.52100372314453" stroke-width="1.0" fill="none" stroke="rgb(0, 0, 0)" stroke-opacity="1" stroke-linecap="round" stroke-linejoin="round"/>
    <path d="M 160.87399291992188 115.0459976196289 C 168.6510009765625 126.71800231933594 163.9029998779297 120.99299621582031 161.89599609375 117.73400115966797" stroke-width="1.0" fill="none" stroke="rgb(0, 0, 0)" stroke-opacity="1" stroke-linecap="round" stroke-linejoin="round"/>
    <path d="M 181.09500122070312 140.18899536132812 C 171.85400390625 141.8560028076172 176.67799377441406 129.6490020751953 172.83700561523438 139.27999877929688" stroke-width="1.0" fill="none" stroke="rgb(0, 0, 0)" stroke-opacity="1" stroke-linecap="round" stroke-linejoin="round"/>
    <path d="M 161.16000366210938 134.1219940185547 C 160.09100341796875 129.51100158691406 156.4499969482422 128.45700073242188 161.27499389648438 130.63099670410156" stroke-width="1.0" fill="none" stroke="rgb(0, 0, 0)" stroke-opacity="1" stroke-linecap="round" stroke-linejoin="round"/>
    <path d="M 181.22999572753906 140.02200317382812 C 189.4669952392578 143.06199645996094 183.59800720214844 133.69200134277344 176.718994140625 131.50399780273438" stroke-width="1.0" fill="none" stroke="rgb(0, 0, 0)" stroke-opacity="1" stroke-linecap="round" stroke-linejoin="round"/>
    <path d="M 172.26699829101562 139.23500061035156 C 150.11199951171875 134.6219940185547 161.68099975585938 133.89599609375 152.13299560546875 134.67300415039062" stroke-width="1.0" fill="none" stroke="rgb(0, 0, 0)" stroke-opacity="1" stroke-linecap="round" stroke-linejoin="round"/>
    <path d="M 180.35400390625 138.07400512695312 C 182.84800720214844 136.5590057373047 184.13299560546875 145.01100158691406 161.61900329589844 137.08999633789062" stroke-width="1.0" fill="none" stroke="rgb(0, 0, 0)" stroke-opacity="1" stroke-linecap="round" stroke-linejoin="round"/>
    <path d="M 146.4739990234375 119.34200286865234 C 154.45899963378906 120.9020004272461 157.34500122070312 119.5790023803711 141.92999267578125 119.36699676513672" stroke-width="1.0" fill="none" stroke="rgb(0, 0, 0)" stroke-opacity="1" stroke-linecap="round" stroke-linejoin="round"/>
    <path d="M 137.38999938964844 119.07099914550781 C 138.05099487304688 123.28299713134766 138.97999572753906 120.94499969482422 128.14700317382812 110.53099822998047" stroke-width="1.0" fill="none" stroke="rgb(0, 0, 0)" stroke-opacity="1" stroke-linecap="round" stroke-linejoin="round"/>
    <path d="M 161.06399536132812 130.39599609375 C 170.4040069580078 135.031005859375 171.33799743652344 136.56300354003906 158.92300415039062 130.12600708007812" stroke-width="1.0" fill="none" stroke="rgb(0, 0, 0)" stroke-opacity="1" stroke-linecap="round" stroke-linejoin="round"/>
    <path d="M 165.91600036621094 125.38400268554688 C 177.99600219726562 129.0260009765625 179.86300659179688 133.24000549316406 184.72999572753906 137.88900756835938" stroke-width="1.0" fill="none" stroke="rgb(0, 0, 0)" stroke-opacity="1" stroke-linecap="round" stroke-linejoin="round"/>
    <path d="M 151.4459991455078 128.0989990234375 C 137.3350067138672 121.73500061035156 145.59800720214844 125.9739990234375 143.5229949951172 127.5989990234375" stroke-width="1.0" fill="none" stroke="rgb(0, 0, 0)" stroke-opacity="1" stroke-linecap="round" stroke-linejoin="round"/>
    <path d="M 154.5290069580078 129.78500366210938 C 164.7259979248047 133.88299560546875 154.38400268554688 126.35900115966797 159.30799865722656 131.9010009765625" stroke-width="1.0" fill="none" stroke="rgb(0, 0, 0)" stroke-opacity="1" stroke-linecap="round" stroke-linejoin="round"/>
    <path d="M 174.98500061035156 128.98899841308594 C 172.30499267578125 124.9990005493164 168.18499755859375 127.36399841308594 170.49600219726562 125.37000274658203" stroke-width="1.0" fill="none" stroke="rgb(0, 0, 0)" stroke-opacity="1" stroke-linecap="round" stroke-linejoin="round"/>
    <path d="M 144.23599243164062 119.73699951171875 C 136.21299743652344 117.33599853515625 135.38900756835938 111.25399780273438 128.98399353027344 110.052001953125" stroke-width="1.0" fill="none" stroke="rgb(0, 0, 0)" stroke-opacity="1" stroke-linecap="round" stroke-linejoin="round"/>
    <path d="M 182.86900329589844 140.4239959716797 C 181.63999938964844 137.24600219726562 177.58900451660156 132.78799438476562 184.26100158691406 137.406005859375" stroke-width="1.0" fill="none" stroke="rgb(0, 0, 0)" stroke-opacity="1" stroke-linecap="round" stroke-linejoin="round"/>
    <path d="M 177.08099365234375 134.5189971923828 C 179.4040069580078 132.08700561523438 185.8820037841797 136.34500122070312 169.14599609375 125.30599975585938" stroke-width="1.0" fill="none" stroke="rgb(0, 0, 0)" stroke-opacity="1" stroke-linecap="round" stroke-linejoin="round"/>
    <path d="M 135.7259979248047 122.34400177001953 C 142.81300354003906 122.61000061035156 150.76199340820312 128.14199829101562 143.3699951171875 127.97599792480469" stroke-width="1.0" fill="none" stroke="rgb(0, 0, 0)" stroke-opacity="1" stroke-linecap="round" stroke-linejoin="round"/>
    <path d="M 173.197998046875 137.656005859375 C 176.93499755859375 130.6219940185547 183.7519989013672 134.20700073242188 168.41400146484375 126.79199981689453" stroke-width="1.0" fill="none" stroke="rgb(0, 0, 0)" stroke-opacity="1" stroke-linecap="round" stroke-linejoin="round"/>
    <path d="M 164.47300720214844 136.66799926757812 C 153.33700561523438 133.87399291992188 167.10299682617188 141.48300170898438 173.427001953125 139.23500061035156" stroke-width="1.0" fill="none" stroke="rgb(0, 0, 0)" stroke-opacity="1" stroke-linecap="round" stroke-linejoin="round"/>
    <path d="M 154.86599731445312 120.83799743652344 C 168.33099365234375 121.13899993896484 171.57899475097656 126.36199951171875 153.1219940185547 119.94100189208984" stroke-width="1.0" fill="none" stroke="rgb(0, 0, 0)" stroke-opacity="1" stroke-linecap="round" stroke-linejoin="round"/>
    <path d="M 177.34100341796875 131.71600341796875 C 171.5050048828125 122.98200225830078 167.81399536132812 128.66200256347656 167.81199645996094 124.0469970703125" stroke-width="1.0" fill="none" stroke="rgb(0, 0, 0)" stroke-opacity="1" stroke-linecap="round" stroke-linejoin="round"/>
    <path d="M 177.58900451660156 130.98300170898438 C 170.93099975585938 123.36599731445312 163.09500122070312 122.68699645996094 160.64599609375 119.43000030517578" stroke-width="1.0" fill="none" stroke="rgb(0, 0, 0)" stroke-opacity="1" stroke-linecap="round" stroke-linejoin="round"/>
    <path d="M 168.37899780273438 139.1060028076172 C 160.58599853515625 134.98599243164062 165.3260040283203 131.65199279785156 161.39100646972656 130.23800659179688" stroke-width="1.0" fill="none" stroke="rgb(0, 0, 0)" stroke-opacity="1" stroke-linecap="round" stroke-linejoin="round"/>
    <path d="M 170.08599853515625 124.99400329589844 C 165.3209991455078 123.03600311279297 162.57899475097656 120.83200073242188 166.31700134277344 123.15299987792969" stroke-width="1.0" fill="none" stroke="rgb(0, 0, 0)" stroke-opacity="1" stroke-linecap="round" stroke-linejoin="round"/>
    <path d="M 152.5330047607422 128.46200561523438 C 163.5709991455078 134.79400634765625 158.05799865722656 133.5959930419922 150.75399780273438 127.02100372314453" stroke-width="1.0" fill="none" stroke="rgb(0, 0, 0)" stroke-opacity="1" stroke-linecap="round" stroke-linejoin="round"/>
    <path d="M 147.84500122070312 119.7229995727539 C 142.25 119.62899780273438 147.9720001220703 118.65399932861328 159.1179962158203 122.46199798583984" stroke-width="1.0" fill="none" stroke="rgb(0, 0, 0)" stroke-opacity="1" stroke-linecap="round" stroke-linejoin="round"/>
    <path d="M 164.51499938964844 120.52999877929688 C 154.89300537109375 120.40699768066406 154.79600524902344 119.8759994506836 169.34800720214844 125.927001953125" stroke-width="1.0" fill="none" stroke="rgb(0, 0, 0)" stroke-opacity="1" stroke-linecap="round" stroke-linejoin="round"/>
    <path d="M 170.08900451660156 125.16400146484375 C 162.02499389648438 123.74299621582031 159.2449951171875 118.79900360107422 169.8489990234375 125.5469970703125" stroke-width="1.0" fill="none" stroke="rgb(0, 0, 0)" stroke-opacity="1" stroke-linecap="round" stroke-linejoin="round"/>
    <path d="M 170.05499267578125 135.6060028076172 C 158.08900451660156 131.927001953125 151.83099365234375 126.19200134277344 169.11599731445312 135.66799926757812" stroke-width="1.0" fill="none" stroke="rgb(0, 0, 0)" stroke-opacity="1" stroke-linecap="round" stroke-linejoin="round"/>
    <path d="M 166.16799926757812 122.93000030517578 C 142.2239990234375 115.90299987792969 155.80099487304688 122.22000122070312 168.01400756835938 125.12699890136719" stroke-width="1.0" fill="none" stroke="rgb(0, 0, 0)" stroke-opacity="1" stroke-linecap="round" stroke-linejoin="round"/>
  </g>
</svg>
