<?xml version="1.0" ?>
<svg xmlns="http://www.w3.org/2000/svg" version="1.1" width="256" height="256">
  <defs/>
  <g>
    <path d="M 168.0 79.00250244140625 C 204.36300659179688 92.60189819335938 229.46299743652344 119.35700225830078 231.64700317382812 189.18099975585938" stroke-width="2.0" fill="none" stroke="rgb(0, 0, 0)" stroke-opacity="1" stroke-linecap="round" stroke-linejoin="round"/>
    <path d="M 169.46299743652344 79.0 C 169.46299743652344 116.63800048828125 169.46299743652344 150.1909942626953 169.46299743652344 188.2779998779297" stroke-width="2.0" fill="none" stroke="rgb(0, 0, 0)" stroke-opacity="1" stroke-linecap="round" stroke-linejoin="round"/>
    <path d="M 210.18699645996094 111.19599914550781 C 196.23699951171875 138.0800018310547 184.302001953125 161.07200622558594 170.18600463867188 188.27499389648438" stroke-width="2.0" fill="none" stroke="rgb(0, 0, 0)" stroke-opacity="1" stroke-linecap="round" stroke-linejoin="round"/>
    <path d="M 221.0970001220703 132.052001953125 C 209.68299865722656 151.9770050048828 199.91799926757812 169.0189971923828 188.3679962158203 189.18299865722656" stroke-width="2.0" fill="none" stroke="rgb(0, 0, 0)" stroke-opacity="1" stroke-linecap="round" stroke-linejoin="round"/>
    <path d="M 226.76400756835938 158.3509979248047 C 219.71499633789062 169.10400390625 213.6840057373047 178.30099487304688 206.55099487304688 189.1820068359375" stroke-width="2.0" fill="none" stroke="rgb(0, 0, 0)" stroke-opacity="1" stroke-linecap="round" stroke-linejoin="round"/>
    <path d="M 196.41900634765625 96.6875 C 186.76300048828125 116.2959976196289 178.5019989013672 133.06700134277344 168.7310028076172 152.91000366210938" stroke-width="2.0" fill="none" stroke="rgb(0, 0, 0)" stroke-opacity="1" stroke-linecap="round" stroke-linejoin="round"/>
    <path d="M 182.5070037841797 85.8051986694336 C 177.7030029296875 94.34519958496094 173.59300231933594 101.64800262451172 168.7310028076172 110.28900146484375" stroke-width="2.0" fill="none" stroke="rgb(0, 0, 0)" stroke-opacity="1" stroke-linecap="round" stroke-linejoin="round"/>
    <path d="M 169.43099975585938 90.95120239257812 C 189.44700622558594 111.4540023803711 206.5659942626953 128.98500061035156 226.82000732421875 149.73199462890625" stroke-width="2.0" fill="none" stroke="rgb(0, 0, 0)" stroke-opacity="1" stroke-linecap="round" stroke-linejoin="round"/>
    <path d="M 168.7989959716797 115.66999816894531 C 190.08299255371094 137.01800537109375 208.28599548339844 155.27200317382812 229.82400512695312 176.87600708007812" stroke-width="2.0" fill="none" stroke="rgb(0, 0, 0)" stroke-opacity="1" stroke-linecap="round" stroke-linejoin="round"/>
    <path d="M 169.78900146484375 138.63999938964844 C 187.72500610351562 156.6540069580078 203.06500244140625 172.05599975585938 221.21600341796875 190.28399658203125" stroke-width="2.0" fill="none" stroke="rgb(0, 0, 0)" stroke-opacity="1" stroke-linecap="round" stroke-linejoin="round"/>
    <path d="M 169.906005859375 159.822998046875 C 179.5449981689453 170.17799377441406 187.78900146484375 179.031005859375 197.54299926757812 189.50900268554688" stroke-width="2.0" fill="none" stroke="rgb(0, 0, 0)" stroke-opacity="1" stroke-linecap="round" stroke-linejoin="round"/>
    <path d="M 168.7270050048828 186.46600341796875 C 184.72799682617188 191.0 216.36700439453125 191.0 232.0 191.0" stroke-width="2.0" fill="none" stroke="rgb(0, 0, 0)" stroke-opacity="1" stroke-linecap="round" stroke-linejoin="round"/>
    <path d="M 72.0 105.87999725341797 C 66.83920288085938 97.85430145263672 55.79890060424805 104.53199768066406 61.680999755859375 111.83599853515625" stroke-width="2.0" fill="none" stroke="rgb(0, 0, 0)" stroke-opacity="1" stroke-linecap="round" stroke-linejoin="round"/>
    <path d="M 71.52239990234375 104.4469985961914 C 74.7853012084961 123.1050033569336 49.81380081176758 108.08000183105469 65.91089630126953 111.41999816894531" stroke-width="2.0" fill="none" stroke="rgb(0, 0, 0)" stroke-opacity="1" stroke-linecap="round" stroke-linejoin="round"/>
    <path d="M 63.26259994506836 112.58399963378906 C 69.36409759521484 93.2291030883789 55.90480041503906 105.68800354003906 69.36409759521484 112.58399963378906" stroke-width="2.0" fill="none" stroke="rgb(0, 0, 0)" stroke-opacity="1" stroke-linecap="round" stroke-linejoin="round"/>
    <path d="M 67.34249877929688 113.41799926757812 C 73.44409942626953 94.06310272216797 58.332801818847656 103.68800354003906 71.79209899902344 110.58399963378906" stroke-width="2.0" fill="none" stroke="rgb(0, 0, 0)" stroke-opacity="1" stroke-linecap="round" stroke-linejoin="round"/>
    <path d="M 59.25339889526367 154.47300720214844 C 69.21430206298828 173.9949951171875 71.02549743652344 166.0019989013672 72.72920227050781 144.16700744628906" stroke-width="2.0" fill="none" stroke="rgb(0, 0, 0)" stroke-opacity="1" stroke-linecap="round" stroke-linejoin="round"/>
    <path d="M 97.14679718017578 154.74200439453125 C 85.37760162353516 149.88800048828125 102.9010009765625 152.79800415039062 98.03569793701172 159.6020050048828" stroke-width="2.0" fill="none" stroke="rgb(0, 0, 0)" stroke-opacity="1" stroke-linecap="round" stroke-linejoin="round"/>
    <path d="M 92.04859924316406 163.0489959716797 C 87.19100189208984 174.3040008544922 83.481201171875 173.44700622558594 93.51830291748047 165.32400512695312" stroke-width="2.0" fill="none" stroke="rgb(0, 0, 0)" stroke-opacity="1" stroke-linecap="round" stroke-linejoin="round"/>
    <path d="M 95.32140350341797 151.9929962158203 C 82.60330200195312 163.4949951171875 104.13500213623047 163.48899841308594 78.89360046386719 169.79400634765625" stroke-width="2.0" fill="none" stroke="rgb(0, 0, 0)" stroke-opacity="1" stroke-linecap="round" stroke-linejoin="round"/>
    <path d="M 57.12519836425781 121.55999755859375 C 50.42169952392578 117.4489974975586 36.1068000793457 107.74500274658203 63.42580032348633 132.86500549316406" stroke-width="2.0" fill="none" stroke="rgb(0, 0, 0)" stroke-opacity="1" stroke-linecap="round" stroke-linejoin="round"/>
    <path d="M 51.1776008605957 107.20099639892578 C 53.905399322509766 109.51799774169922 49.61880111694336 118.29199981689453 46.76110076904297 115.64399719238281" stroke-width="2.0" fill="none" stroke="rgb(0, 0, 0)" stroke-opacity="1" stroke-linecap="round" stroke-linejoin="round"/>
    <path d="M 92.14759826660156 164.38499450683594 C 73.91089630126953 175.7989959716797 61.0807991027832 154.79200744628906 83.02729797363281 164.85000610351562" stroke-width="2.0" fill="none" stroke="rgb(0, 0, 0)" stroke-opacity="1" stroke-linecap="round" stroke-linejoin="round"/>
    <path d="M 59.37730026245117 160.25999450683594 C 56.316200256347656 154.60400390625 62.572601318359375 149.80599975585938 58.660099029541016 149.3509979248047" stroke-width="2.0" fill="none" stroke="rgb(0, 0, 0)" stroke-opacity="1" stroke-linecap="round" stroke-linejoin="round"/>
    <path d="M 90.41940307617188 178.6580047607422 C 97.0166015625 162.843994140625 95.44229888916016 174.7259979248047 90.05770111083984 186.16700744628906" stroke-width="2.0" fill="none" stroke="rgb(0, 0, 0)" stroke-opacity="1" stroke-linecap="round" stroke-linejoin="round"/>
    <path d="M 89.21479797363281 186.12100219726562 C 79.60569763183594 192.83399963378906 73.5947036743164 195.7449951171875 73.00640106201172 192.9340057373047" stroke-width="2.0" fill="none" stroke="rgb(0, 0, 0)" stroke-opacity="1" stroke-linecap="round" stroke-linejoin="round"/>
    <path d="M 82.29810333251953 152.29400634765625 C 85.143798828125 164.4429931640625 78.25810241699219 144.09500122070312 80.4657974243164 143.97500610351562" stroke-width="2.0" fill="none" stroke="rgb(0, 0, 0)" stroke-opacity="1" stroke-linecap="round" stroke-linejoin="round"/>
    <path d="M 72.19149780273438 166.03199768066406 C 88.34089660644531 161.42599487304688 83.40290069580078 146.00599670410156 79.40029907226562 167.92799377441406" stroke-width="2.0" fill="none" stroke="rgb(0, 0, 0)" stroke-opacity="1" stroke-linecap="round" stroke-linejoin="round"/>
    <path d="M 86.4490966796875 169.84800720214844 C 62.90439987182617 151.88699340820312 69.91010284423828 161.0 92.25279998779297 166.21800231933594" stroke-width="2.0" fill="none" stroke="rgb(0, 0, 0)" stroke-opacity="1" stroke-linecap="round" stroke-linejoin="round"/>
    <path d="M 85.17849731445312 157.4250030517578 C 87.25959777832031 159.73500061035156 62.12409973144531 169.28599548339844 87.01599884033203 172.13900756835938" stroke-width="2.0" fill="none" stroke="rgb(0, 0, 0)" stroke-opacity="1" stroke-linecap="round" stroke-linejoin="round"/>
    <path d="M 86.68599700927734 158.78399658203125 C 91.44180297851562 182.01800537109375 80.69979858398438 177.43099975585938 92.18579864501953 179.18800354003906" stroke-width="2.0" fill="none" stroke="rgb(0, 0, 0)" stroke-opacity="1" stroke-linecap="round" stroke-linejoin="round"/>
    <path d="M 51.108001708984375 107.0 C 49.052398681640625 114.91799926757812 40.062198638916016 112.07499694824219 49.052398681640625 118.98100280761719" stroke-width="2.0" fill="none" stroke="rgb(0, 0, 0)" stroke-opacity="1" stroke-linecap="round" stroke-linejoin="round"/>
    <path d="M 72.38400268554688 159.27000427246094 C 80.37449645996094 171.4199981689453 81.32420349121094 173.9969940185547 93.3104019165039 161.11300659179688" stroke-width="2.0" fill="none" stroke="rgb(0, 0, 0)" stroke-opacity="1" stroke-linecap="round" stroke-linejoin="round"/>
    <path d="M 88.66110229492188 162.5970001220703 C 65.91539764404297 165.14700317382812 61.2843017578125 159.98800659179688 88.73670196533203 169.5989990234375" stroke-width="2.0" fill="none" stroke="rgb(0, 0, 0)" stroke-opacity="1" stroke-linecap="round" stroke-linejoin="round"/>
    <path d="M 91.21949768066406 179.10000610351562 C 100.98600006103516 163.0030059814453 86.93499755859375 152.093994140625 75.09819793701172 165.26300048828125" stroke-width="2.0" fill="none" stroke="rgb(0, 0, 0)" stroke-opacity="1" stroke-linecap="round" stroke-linejoin="round"/>
    <path d="M 77.27079772949219 190.447998046875 C 72.10340118408203 188.83599853515625 71.46990203857422 193.0959930419922 72.87979888916016 192.80999755859375" stroke-width="2.0" fill="none" stroke="rgb(0, 0, 0)" stroke-opacity="1" stroke-linecap="round" stroke-linejoin="round"/>
    <path d="M 51.37630081176758 179.1999969482422 C 36.74689865112305 183.95199584960938 56.654300689697266 188.20799255371094 49.7661018371582 152.27200317382812" stroke-width="2.0" fill="none" stroke="rgb(0, 0, 0)" stroke-opacity="1" stroke-linecap="round" stroke-linejoin="round"/>
    <path d="M 60.57229995727539 142.26100158691406 C 66.77100372314453 175.8249969482422 81.03520202636719 149.99099731445312 62.964500427246094 127.10299682617188" stroke-width="2.0" fill="none" stroke="rgb(0, 0, 0)" stroke-opacity="1" stroke-linecap="round" stroke-linejoin="round"/>
    <path d="M 95.66059875488281 151.74000549316406 C 109.8479995727539 165.11199951171875 83.99909973144531 164.6699981689453 92.15290069580078 163.84800720214844" stroke-width="2.0" fill="none" stroke="rgb(0, 0, 0)" stroke-opacity="1" stroke-linecap="round" stroke-linejoin="round"/>
    <path d="M 48.95970153808594 154.0659942626953 C 48.27669906616211 194.906005859375 57.304100036621094 148.30499267578125 51.118099212646484 161.78900146484375" stroke-width="2.0" fill="none" stroke="rgb(0, 0, 0)" stroke-opacity="1" stroke-linecap="round" stroke-linejoin="round"/>
    <path d="M 94.97630310058594 164.41400146484375 C 87.97039794921875 179.0570068359375 80.76609802246094 184.90199279785156 97.21209716796875 162.46499633789062" stroke-width="2.0" fill="none" stroke="rgb(0, 0, 0)" stroke-opacity="1" stroke-linecap="round" stroke-linejoin="round"/>
    <path d="M 67.1697998046875 166.0050048828125 C 49.371498107910156 156.3769989013672 40.026100158691406 145.52200317382812 57.2843017578125 153.80999755859375" stroke-width="2.0" fill="none" stroke="rgb(0, 0, 0)" stroke-opacity="1" stroke-linecap="round" stroke-linejoin="round"/>
    <path d="M 49.2692985534668 147.95700073242188 C 63.83879852294922 149.56500244140625 60.91310119628906 150.77099609375 61.44200134277344 144.93600463867188" stroke-width="2.0" fill="none" stroke="rgb(0, 0, 0)" stroke-opacity="1" stroke-linecap="round" stroke-linejoin="round"/>
    <path d="M 65.93250274658203 129.03500366210938 C 59.21030044555664 116.84300231933594 37.423301696777344 121.1719970703125 45.95100021362305 112.49500274658203" stroke-width="2.0" fill="none" stroke="rgb(0, 0, 0)" stroke-opacity="1" stroke-linecap="round" stroke-linejoin="round"/>
    <path d="M 79.1980972290039 168.48699951171875 C 101.4729995727539 153.86000061035156 91.24349975585938 150.02699279785156 88.68419647216797 169.91799926757812" stroke-width="2.0" fill="none" stroke="rgb(0, 0, 0)" stroke-opacity="1" stroke-linecap="round" stroke-linejoin="round"/>
    <path d="M 79.506103515625 170.81199645996094 C 49.01499938964844 160.16900634765625 65.83190155029297 132.19000244140625 59.10260009765625 152.2830047607422" stroke-width="2.0" fill="none" stroke="rgb(0, 0, 0)" stroke-opacity="1" stroke-linecap="round" stroke-linejoin="round"/>
    <path d="M 90.39440155029297 160.63999938964844 C 66.66809844970703 161.33700561523438 75.28730010986328 147.3800048828125 71.69159698486328 159.2169952392578" stroke-width="2.0" fill="none" stroke="rgb(0, 0, 0)" stroke-opacity="1" stroke-linecap="round" stroke-linejoin="round"/>
    <path d="M 90.06790161132812 162.64700317382812 C 84.1104965209961 159.11500549316406 83.63059997558594 164.25100708007812 73.42169952392578 158.48399353027344" stroke-width="2.0" fill="none" stroke="rgb(0, 0, 0)" stroke-opacity="1" stroke-linecap="round" stroke-linejoin="round"/>
    <path d="M 50.06809997558594 157.9980010986328 C 55.28900146484375 158.17999267578125 49.15879821777344 182.76699829101562 47.95330047607422 149.54600524902344" stroke-width="2.0" fill="none" stroke="rgb(0, 0, 0)" stroke-opacity="1" stroke-linecap="round" stroke-linejoin="round"/>
    <path d="M 88.4572982788086 164.4709930419922 C 73.77459716796875 160.9459991455078 85.6572036743164 150.07400512695312 93.72689819335938 164.24000549316406" stroke-width="2.0" fill="none" stroke="rgb(0, 0, 0)" stroke-opacity="1" stroke-linecap="round" stroke-linejoin="round"/>
    <path d="M 77.09549713134766 190.58099365234375 C 104.11900329589844 167.51699829101562 92.63990020751953 149.52999877929688 85.40599822998047 182.5489959716797" stroke-width="2.0" fill="none" stroke="rgb(0, 0, 0)" stroke-opacity="1" stroke-linecap="round" stroke-linejoin="round"/>
    <path d="M 72.84980010986328 162.8560028076172 C 87.44080352783203 174.08700561523438 96.96980285644531 157.4739990234375 85.74410247802734 170.28599548339844" stroke-width="2.0" fill="none" stroke="rgb(0, 0, 0)" stroke-opacity="1" stroke-linecap="round" stroke-linejoin="round"/>
    <path d="M 80.8855972290039 143.80299377441406 C 86.8208999633789 140.6540069580078 77.5625 138.16799926757812 77.03479766845703 144.95199584960938" stroke-width="2.0" fill="none" stroke="rgb(0, 0, 0)" stroke-opacity="1" stroke-linecap="round" stroke-linejoin="round"/>
    <path d="M 61.21799850463867 150.4550018310547 C 63.712501525878906 153.0050048828125 60.685699462890625 141.927001953125 63.85879898071289 132.99099731445312" stroke-width="2.0" fill="none" stroke="rgb(0, 0, 0)" stroke-opacity="1" stroke-linecap="round" stroke-linejoin="round"/>
    <path d="M 87.35859680175781 170.03799438476562 C 74.6948013305664 173.71800231933594 61.373199462890625 151.7449951171875 86.37169647216797 166.31300354003906" stroke-width="2.0" fill="none" stroke="rgb(0, 0, 0)" stroke-opacity="1" stroke-linecap="round" stroke-linejoin="round"/>
    <path d="M 51.45539855957031 178.6009979248047 C 44.390499114990234 166.76699829101562 49.973899841308594 127.24099731445312 50.220001220703125 179.12899780273438" stroke-width="2.0" fill="none" stroke="rgb(0, 0, 0)" stroke-opacity="1" stroke-linecap="round" stroke-linejoin="round"/>
    <path d="M 91.67849731445312 161.927001953125 C 62.96009826660156 166.58799743652344 63.79990005493164 158.7270050048828 92.59860229492188 163.41299438476562" stroke-width="2.0" fill="none" stroke="rgb(0, 0, 0)" stroke-opacity="1" stroke-linecap="round" stroke-linejoin="round"/>
    <path d="M 80.96099853515625 159.18899536132812 C 77.4352035522461 153.90899658203125 77.4352035522461 148.83200073242188 77.4352035522461 143.95799255371094" stroke-width="2.0" fill="none" stroke="rgb(0, 0, 0)" stroke-opacity="1" stroke-linecap="round" stroke-linejoin="round"/>
  </g>
</svg>
