<?xml version="1.0" ?>
<svg xmlns="http://www.w3.org/2000/svg" version="1.1" width="256" height="256">
  <defs/>
  <g>
    <path d="M 111.87000274658203 143.2969970703125 C 136.1510009765625 157.18299865722656 126.56600189208984 150.91099548339844 108.44499969482422 145.19000244140625" stroke-width="1.0" fill="none" stroke="rgb(0, 0, 0)" stroke-opacity="1" stroke-linecap="round" stroke-linejoin="round"/>
    <path d="M 160.74099731445312 146.68800354003906 C 133.9340057373047 153.4969940185547 134.5989990234375 156.1649932861328 112.18199920654297 153.93800354003906" stroke-width="1.0" fill="none" stroke="rgb(0, 0, 0)" stroke-opacity="1" stroke-linecap="round" stroke-linejoin="round"/>
    <path d="M 204.28399658203125 167.77699279785156 C 191.27000427246094 154.33099365234375 174.18499755859375 147.1009979248047 186.50399780273438 168.8249969482422" stroke-width="1.0" fill="none" stroke="rgb(0, 0, 0)" stroke-opacity="1" stroke-linecap="round" stroke-linejoin="round"/>
    <path d="M 180.3560028076172 140.69000244140625 C 170.34100341796875 157.78199768066406 166.4550018310547 152.2530059814453 206.2270050048828 163.8769989013672" stroke-width="1.0" fill="none" stroke="rgb(0, 0, 0)" stroke-opacity="1" stroke-linecap="round" stroke-linejoin="round"/>
    <path d="M 183.54400634765625 157.9969940185547 C 168.86099243164062 146.94900512695312 178.77000427246094 140.83200073242188 177.84100341796875 155.9149932861328" stroke-width="1.0" fill="none" stroke="rgb(0, 0, 0)" stroke-opacity="1" stroke-linecap="round" stroke-linejoin="round"/>
    <path d="M 209.9969940185547 161.85299682617188 C 161.08399963378906 154.61199951171875 185.9219970703125 165.89500427246094 178.44000244140625 128.97300720214844" stroke-width="1.0" fill="none" stroke="rgb(0, 0, 0)" stroke-opacity="1" stroke-linecap="round" stroke-linejoin="round"/>
    <path d="M 215.97000122070312 135.12899780273438 C 200.48599243164062 165.35800170898438 182.6840057373047 180.23800659179688 209.8209991455078 158.6020050048828" stroke-width="1.0" fill="none" stroke="rgb(0, 0, 0)" stroke-opacity="1" stroke-linecap="round" stroke-linejoin="round"/>
    <path d="M 149.05099487304688 176.2100067138672 C 144.406005859375 178.25 153.25999450683594 165.5019989013672 152.06700134277344 172.33999633789062" stroke-width="1.0" fill="none" stroke="rgb(0, 0, 0)" stroke-opacity="1" stroke-linecap="round" stroke-linejoin="round"/>
    <path d="M 215.09300231933594 177.4530029296875 C 240.53599548339844 186.4499969482422 239.26699829101562 152.56199645996094 227.6540069580078 168.78199768066406" stroke-width="1.0" fill="none" stroke="rgb(0, 0, 0)" stroke-opacity="1" stroke-linecap="round" stroke-linejoin="round"/>
    <path d="M 163.25599670410156 154.72900390625 C 156.16900634765625 152.3070068359375 148.3560028076172 161.5540008544922 184.42799377441406 156.781005859375" stroke-width="1.0" fill="none" stroke="rgb(0, 0, 0)" stroke-opacity="1" stroke-linecap="round" stroke-linejoin="round"/>
    <path d="M 152.91799926757812 149.5 C 165.74899291992188 167.0279998779297 157.22799682617188 172.3780059814453 133.88800048828125 155.4980010986328" stroke-width="1.0" fill="none" stroke="rgb(0, 0, 0)" stroke-opacity="1" stroke-linecap="round" stroke-linejoin="round"/>
    <path d="M 142.1909942626953 165.40499877929688 C 144.08900451660156 142.97900390625 161.47000122070312 158.2270050048828 109.7969970703125 156.18600463867188" stroke-width="1.0" fill="none" stroke="rgb(0, 0, 0)" stroke-opacity="1" stroke-linecap="round" stroke-linejoin="round"/>
    <path d="M 186.04600524902344 139.44700622558594 C 190.1529998779297 175.29299926757812 171.91900634765625 150.0590057373047 167.49200439453125 157.68800354003906" stroke-width="1.0" fill="none" stroke="rgb(0, 0, 0)" stroke-opacity="1" stroke-linecap="round" stroke-linejoin="round"/>
    <path d="M 221.87399291992188 168.718994140625 C 230.68600463867188 168.3560028076172 225.406005859375 166.8520050048828 213.41299438476562 174.91900634765625" stroke-width="1.0" fill="none" stroke="rgb(0, 0, 0)" stroke-opacity="1" stroke-linecap="round" stroke-linejoin="round"/>
    <path d="M 190.86399841308594 142.11599731445312 C 223.25599670410156 132.55499267578125 208.35800170898438 131.8560028076172 191.6790008544922 136.88299560546875" stroke-width="1.0" fill="none" stroke="rgb(0, 0, 0)" stroke-opacity="1" stroke-linecap="round" stroke-linejoin="round"/>
    <path d="M 180.25100708007812 132.7310028076172 C 172.60299682617188 144.78900146484375 185.26600646972656 139.36599731445312 173.36700439453125 157.197998046875" stroke-width="1.0" fill="none" stroke="rgb(0, 0, 0)" stroke-opacity="1" stroke-linecap="round" stroke-linejoin="round"/>
    <path d="M 202.50900268554688 139.48500061035156 C 219.0919952392578 131.11500549316406 179.0570068359375 133.95599365234375 187.64500427246094 141.9040069580078" stroke-width="1.0" fill="none" stroke="rgb(0, 0, 0)" stroke-opacity="1" stroke-linecap="round" stroke-linejoin="round"/>
    <path d="M 199.1179962158203 156.97300720214844 C 198.16099548339844 174.39300537109375 208.156005859375 155.28500366210938 223.07400512695312 154.08299255371094" stroke-width="1.0" fill="none" stroke="rgb(0, 0, 0)" stroke-opacity="1" stroke-linecap="round" stroke-linejoin="round"/>
    <path d="M 192.9550018310547 169.7220001220703 C 190.0330047607422 152.50999450683594 174.39700317382812 157.6750030517578 212.80499267578125 157.54100036621094" stroke-width="1.0" fill="none" stroke="rgb(0, 0, 0)" stroke-opacity="1" stroke-linecap="round" stroke-linejoin="round"/>
    <path d="M 152.5780029296875 150.77999877929688 C 147.97799682617188 179.13600158691406 180.4510040283203 162.58299255371094 161.5189971923828 174.2830047607422" stroke-width="1.0" fill="none" stroke="rgb(0, 0, 0)" stroke-opacity="1" stroke-linecap="round" stroke-linejoin="round"/>
    <path d="M 167.12100219726562 161.6320037841797 C 176.4669952392578 184.11000061035156 151.63499450683594 181.7530059814453 160.11199951171875 153.54299926757812" stroke-width="1.0" fill="none" stroke="rgb(0, 0, 0)" stroke-opacity="1" stroke-linecap="round" stroke-linejoin="round"/>
    <path d="M 209.61199951171875 171.01300048828125 C 214.88600158691406 148.093994140625 242.0330047607422 168.0959930419922 229.843994140625 161.94400024414062" stroke-width="1.0" fill="none" stroke="rgb(0, 0, 0)" stroke-opacity="1" stroke-linecap="round" stroke-linejoin="round"/>
    <path d="M 194.2519989013672 135.35699462890625 C 193.99400329589844 164.55799865722656 196.1529998779297 157.7449951171875 183.50399780273438 162.1009979248047" stroke-width="1.0" fill="none" stroke="rgb(0, 0, 0)" stroke-opacity="1" stroke-linecap="round" stroke-linejoin="round"/>
    <path d="M 124.27200317382812 159.8719940185547 C 90.33740234375 147.43499755859375 121.09500122070312 152.9550018310547 107.552001953125 164.63800048828125" stroke-width="1.0" fill="none" stroke="rgb(0, 0, 0)" stroke-opacity="1" stroke-linecap="round" stroke-linejoin="round"/>
    <path d="M 110.69999694824219 157.3679962158203 C 128.7100067138672 163.48500061035156 159.54800415039062 159.44000244140625 127.51100158691406 151.61900329589844" stroke-width="1.0" fill="none" stroke="rgb(0, 0, 0)" stroke-opacity="1" stroke-linecap="round" stroke-linejoin="round"/>
    <path d="M 99.35060119628906 150.30799865722656 C 106.55799865722656 139.56399536132812 100.54000091552734 137.3070068359375 120.56900024414062 150.89100646972656" stroke-width="1.0" fill="none" stroke="rgb(0, 0, 0)" stroke-opacity="1" stroke-linecap="round" stroke-linejoin="round"/>
    <path d="M 213.9029998779297 163.7530059814453 C 223.86700439453125 170.64199829101562 235.18499755859375 169.88499450683594 170.11300659179688 170.81700134277344" stroke-width="1.0" fill="none" stroke="rgb(0, 0, 0)" stroke-opacity="1" stroke-linecap="round" stroke-linejoin="round"/>
    <path d="M 222.8509979248047 136.10899353027344 C 223.49400329589844 160.1929931640625 221.83700561523438 165.5780029296875 222.75999450683594 145.46600341796875" stroke-width="1.0" fill="none" stroke="rgb(0, 0, 0)" stroke-opacity="1" stroke-linecap="round" stroke-linejoin="round"/>
    <path d="M 188.96400451660156 137.03399658203125 C 180.46099853515625 172.73899841308594 208.20700073242188 145.7259979248047 195.7830047607422 160.3260040283203" stroke-width="1.0" fill="none" stroke="rgb(0, 0, 0)" stroke-opacity="1" stroke-linecap="round" stroke-linejoin="round"/>
    <path d="M 127.29299926757812 155.75100708007812 C 90.13030242919922 140.94400024414062 104.6719970703125 132.125 98.22209930419922 154.10699462890625" stroke-width="1.0" fill="none" stroke="rgb(0, 0, 0)" stroke-opacity="1" stroke-linecap="round" stroke-linejoin="round"/>
    <path d="M 182.57000732421875 167.906005859375 C 205.83399963378906 167.91000366210938 202.58999633789062 159.00599670410156 206.50999450683594 135.85000610351562" stroke-width="1.0" fill="none" stroke="rgb(0, 0, 0)" stroke-opacity="1" stroke-linecap="round" stroke-linejoin="round"/>
    <path d="M 135.24899291992188 161.23899841308594 C 154.6439971923828 149.82899475097656 151.02200317382812 159.1909942626953 130.68299865722656 155.27499389648438" stroke-width="1.0" fill="none" stroke="rgb(0, 0, 0)" stroke-opacity="1" stroke-linecap="round" stroke-linejoin="round"/>
    <path d="M 193.33299255371094 168.35400390625 C 193.1300048828125 148.25399780273438 199.37600708007812 152.0279998779297 195.8489990234375 172.1750030517578" stroke-width="1.0" fill="none" stroke="rgb(0, 0, 0)" stroke-opacity="1" stroke-linecap="round" stroke-linejoin="round"/>
    <path d="M 174.6820068359375 137.3939971923828 C 179.09100341796875 130.8719940185547 187.3820037841797 121.2300033569336 174.3560028076172 135.0540008544922" stroke-width="1.0" fill="none" stroke="rgb(0, 0, 0)" stroke-opacity="1" stroke-linecap="round" stroke-linejoin="round"/>
    <path d="M 127.9990005493164 149.83900451660156 C 99.77310180664062 171.00999450683594 105.66500091552734 159.98899841308594 113.36499786376953 173.2779998779297" stroke-width="1.0" fill="none" stroke="rgb(0, 0, 0)" stroke-opacity="1" stroke-linecap="round" stroke-linejoin="round"/>
    <path d="M 131.14100646972656 159.73599243164062 C 158.1840057373047 136.94500732421875 150.6179962158203 154.47799682617188 153.96499633789062 168.2209930419922" stroke-width="1.0" fill="none" stroke="rgb(0, 0, 0)" stroke-opacity="1" stroke-linecap="round" stroke-linejoin="round"/>
    <path d="M 204.7050018310547 169.41600036621094 C 199.17100524902344 126.302001953125 213.4290008544922 119.80899810791016 208.95799255371094 159.3800048828125" stroke-width="1.0" fill="none" stroke="rgb(0, 0, 0)" stroke-opacity="1" stroke-linecap="round" stroke-linejoin="round"/>
    <path d="M 159.12600708007812 159.28799438476562 C 196.63299560546875 156.60000610351562 181.76800537109375 182.9980010986328 164.73899841308594 176.32400512695312" stroke-width="1.0" fill="none" stroke="rgb(0, 0, 0)" stroke-opacity="1" stroke-linecap="round" stroke-linejoin="round"/>
    <path d="M 117.29900360107422 148.01300048828125 C 145.79299926757812 152.9219970703125 153.39199829101562 148.87899780273438 143.1929931640625 162.85800170898438" stroke-width="1.0" fill="none" stroke="rgb(0, 0, 0)" stroke-opacity="1" stroke-linecap="round" stroke-linejoin="round"/>
    <path d="M 146.66700744628906 151.0030059814453 C 102.96399688720703 156.5800018310547 143.6739959716797 152.80999755859375 134.51300048828125 149.4510040283203" stroke-width="1.0" fill="none" stroke="rgb(0, 0, 0)" stroke-opacity="1" stroke-linecap="round" stroke-linejoin="round"/>
    <path d="M 206.6439971923828 135.76499938964844 C 211.41400146484375 172.60699462890625 218.33700561523438 161.48699951171875 217.23300170898438 134.0019989013672" stroke-width="1.0" fill="none" stroke="rgb(0, 0, 0)" stroke-opacity="1" stroke-linecap="round" stroke-linejoin="round"/>
    <path d="M 108.16500091552734 154.21400451660156 C 109.2239990234375 168.4239959716797 146.93699645996094 153.7270050048828 134.41299438476562 160.0919952392578" stroke-width="1.0" fill="none" stroke="rgb(0, 0, 0)" stroke-opacity="1" stroke-linecap="round" stroke-linejoin="round"/>
    <path d="M 179.9759979248047 131.4600067138672 C 162.50100708007812 127.65899658203125 192.7469940185547 136.5679931640625 168.80299377441406 151.65499877929688" stroke-width="1.0" fill="none" stroke="rgb(0, 0, 0)" stroke-opacity="1" stroke-linecap="round" stroke-linejoin="round"/>
    <path d="M 201.12399291992188 172.63299560546875 C 184.92799377441406 172.63800048828125 209.30799865722656 173.13499450683594 182.87100219726562 155.8679962158203" stroke-width="1.0" fill="none" stroke="rgb(0, 0, 0)" stroke-opacity="1" stroke-linecap="round" stroke-linejoin="round"/>
    <path d="M 108.99700164794922 152.88299560546875 C 152.24600219726562 159.60299682617188 171.71200561523438 140.4239959716797 125.86399841308594 152.55499267578125" stroke-width="1.0" fill="none" stroke="rgb(0, 0, 0)" stroke-opacity="1" stroke-linecap="round" stroke-linejoin="round"/>
    <path d="M 120.29100036621094 152.83700561523438 C 104.35700225830078 139.01800537109375 104.90399932861328 145.02499389648438 97.48789978027344 142.98199462890625" stroke-width="1.0" fill="none" stroke="rgb(0, 0, 0)" stroke-opacity="1" stroke-linecap="round" stroke-linejoin="round"/>
    <path d="M 191.78599548339844 141.3990020751953 C 209.9550018310547 142.0919952392578 215.98899841308594 140.12899780273438 189.05999755859375 137.6540069580078" stroke-width="1.0" fill="none" stroke="rgb(0, 0, 0)" stroke-opacity="1" stroke-linecap="round" stroke-linejoin="round"/>
    <path d="M 177.20599365234375 141.57000732421875 C 143.9499969482422 160.98199462890625 165.7949981689453 159.41900634765625 162.93800354003906 147.79400634765625" stroke-width="1.0" fill="none" stroke="rgb(0, 0, 0)" stroke-opacity="1" stroke-linecap="round" stroke-linejoin="round"/>
    <path d="M 211.01499938964844 134.79400634765625 C 215.1300048828125 179.48199462890625 187.8800048828125 180.16299438476562 213.42799377441406 143.1750030517578" stroke-width="1.0" fill="none" stroke="rgb(0, 0, 0)" stroke-opacity="1" stroke-linecap="round" stroke-linejoin="round"/>
    <path d="M 223.906005859375 144.87399291992188 C 219.27000427246094 127.24099731445312 219.9929962158203 131.9739990234375 219.3509979248047 157.69500732421875" stroke-width="1.0" fill="none" stroke="rgb(0, 0, 0)" stroke-opacity="1" stroke-linecap="round" stroke-linejoin="round"/>
    <path d="M 120.74099731445312 147.15499877929688 C 103.40699768066406 162.30499267578125 84.0864028930664 148.7530059814453 107.87300109863281 143.19500732421875" stroke-width="1.0" fill="none" stroke="rgb(0, 0, 0)" stroke-opacity="1" stroke-linecap="round" stroke-linejoin="round"/>
    <path d="M 229.95199584960938 167.4290008544922 C 231.45700073242188 172.7899932861328 220.2449951171875 171.7689971923828 220.875 169.09800720214844" stroke-width="1.0" fill="none" stroke="rgb(0, 0, 0)" stroke-opacity="1" stroke-linecap="round" stroke-linejoin="round"/>
    <path d="M 208.09800720214844 139.97500610351562 C 192.22999572753906 138.3090057373047 228.55599975585938 139.20899963378906 190.78700256347656 135.85400390625" stroke-width="1.0" fill="none" stroke="rgb(0, 0, 0)" stroke-opacity="1" stroke-linecap="round" stroke-linejoin="round"/>
    <path d="M 209.14199829101562 137.79800415039062 C 172.8209991455078 141.30499267578125 189.6719970703125 141.75900268554688 206.5749969482422 139.9499969482422" stroke-width="1.0" fill="none" stroke="rgb(0, 0, 0)" stroke-opacity="1" stroke-linecap="round" stroke-linejoin="round"/>
    <path d="M 150.71200561523438 150.44200134277344 C 133.47300720214844 143.69400024414062 133.2689971923828 155.17100524902344 140.9080047607422 163.9040069580078" stroke-width="1.0" fill="none" stroke="rgb(0, 0, 0)" stroke-opacity="1" stroke-linecap="round" stroke-linejoin="round"/>
    <path d="M 187.43800354003906 135.33599853515625 C 181.56199645996094 172.44500732421875 193.16700744628906 185.82899475097656 185.8939971923828 147.75399780273438" stroke-width="1.0" fill="none" stroke="rgb(0, 0, 0)" stroke-opacity="1" stroke-linecap="round" stroke-linejoin="round"/>
    <path d="M 148.9929962158203 150.06199645996094 C 142.63299560546875 149.08700561523438 92.01580047607422 153.19500732421875 127.68099975585938 160.21800231933594" stroke-width="1.0" fill="none" stroke="rgb(0, 0, 0)" stroke-opacity="1" stroke-linecap="round" stroke-linejoin="round"/>
    <path d="M 176.13999938964844 148.28500366210938 C 150.8419952392578 137.32899475097656 162.64199829101562 149.08999633789062 176.55799865722656 141.47799682617188" stroke-width="1.0" fill="none" stroke="rgb(0, 0, 0)" stroke-opacity="1" stroke-linecap="round" stroke-linejoin="round"/>
    <path d="M 114.9229965209961 160.22799682617188 C 107.91699981689453 141.3520050048828 95.9041976928711 134.218994140625 108.76599884033203 146.48800659179688" stroke-width="1.0" fill="none" stroke="rgb(0, 0, 0)" stroke-opacity="1" stroke-linecap="round" stroke-linejoin="round"/>
    <path d="M 199.8040008544922 134.4600067138672 C 208.2310028076172 144.60000610351562 218.02200317382812 179.1479949951172 213.05499267578125 133.9080047607422" stroke-width="1.0" fill="none" stroke="rgb(0, 0, 0)" stroke-opacity="1" stroke-linecap="round" stroke-linejoin="round"/>
    <path d="M 190.3719940185547 168.61500549316406 C 187.65499877929688 156.6540069580078 195.56500244140625 157.5540008544922 165.9810028076172 159.33999633789062" stroke-width="1.0" fill="none" stroke="rgb(0, 0, 0)" stroke-opacity="1" stroke-linecap="round" stroke-linejoin="round"/>
    <path d="M 104.60600280761719 142.3179931640625 C 93.92310333251953 142.62600708007812 131.5500030517578 145.7169952392578 104.62799835205078 139.89700317382812" stroke-width="1.0" fill="none" stroke="rgb(0, 0, 0)" stroke-opacity="1" stroke-linecap="round" stroke-linejoin="round"/>
    <path d="M 168.06100463867188 149.39999389648438 C 194.56399536132812 137.78199768066406 176.2469940185547 148.14599609375 175.0540008544922 158.26800537109375" stroke-width="1.0" fill="none" stroke="rgb(0, 0, 0)" stroke-opacity="1" stroke-linecap="round" stroke-linejoin="round"/>
    <path d="M 107.85199737548828 143.91099548339844 C 133.94200134277344 155.78700256347656 136.78599548339844 144.6909942626953 104.4749984741211 154.66700744628906" stroke-width="1.0" fill="none" stroke="rgb(0, 0, 0)" stroke-opacity="1" stroke-linecap="round" stroke-linejoin="round"/>
    <path d="M 118.22699737548828 158.83099365234375 C 116.4739990234375 176.75100708007812 123.8219985961914 173.2429962158203 117.72000122070312 175.51199340820312" stroke-width="1.0" fill="none" stroke="rgb(0, 0, 0)" stroke-opacity="1" stroke-linecap="round" stroke-linejoin="round"/>
    <path d="M 220.45399475097656 157.30299377441406 C 221.28599548339844 129.1439971923828 210.6479949951172 130.2100067138672 188.6219940185547 140.19200134277344" stroke-width="1.0" fill="none" stroke="rgb(0, 0, 0)" stroke-opacity="1" stroke-linecap="round" stroke-linejoin="round"/>
    <path d="M 229.03500366210938 161.73899841308594 C 224.82000732421875 170.97300720214844 220.69200134277344 163.81900024414062 228.16099548339844 178.23800659179688" stroke-width="1.0" fill="none" stroke="rgb(0, 0, 0)" stroke-opacity="1" stroke-linecap="round" stroke-linejoin="round"/>
    <path d="M 211.5399932861328 135.68499755859375 C 172.5590057373047 133.40499877929688 182.12899780273438 143.375 206.843994140625 141.4810028076172" stroke-width="1.0" fill="none" stroke="rgb(0, 0, 0)" stroke-opacity="1" stroke-linecap="round" stroke-linejoin="round"/>
    <path d="M 166.64100646972656 176.81300354003906 C 154.79100036621094 169.73500061035156 168.80799865722656 185.34500122070312 179.8560028076172 174.0189971923828" stroke-width="1.0" fill="none" stroke="rgb(0, 0, 0)" stroke-opacity="1" stroke-linecap="round" stroke-linejoin="round"/>
    <path d="M 109.91100311279297 150.9010009765625 C 153.9759979248047 152.15499877929688 178.08299255371094 147.906005859375 116.00700378417969 151.35699462890625" stroke-width="1.0" fill="none" stroke="rgb(0, 0, 0)" stroke-opacity="1" stroke-linecap="round" stroke-linejoin="round"/>
    <path d="M 173.00799560546875 177.53599548339844 C 171.08700561523438 166.78799438476562 169.10400390625 171.2530059814453 174.77000427246094 161.9409942626953" stroke-width="1.0" fill="none" stroke="rgb(0, 0, 0)" stroke-opacity="1" stroke-linecap="round" stroke-linejoin="round"/>
    <path d="M 211.6790008544922 147.54400634765625 C 194.0760040283203 181.94000244140625 196.95700073242188 177.78799438476562 204.88900756835938 136.17100524902344" stroke-width="1.0" fill="none" stroke="rgb(0, 0, 0)" stroke-opacity="1" stroke-linecap="round" stroke-linejoin="round"/>
    <path d="M 137.93600463867188 150.3679962158203 C 87.75070190429688 153.68499755859375 128.37100219726562 152.8939971923828 147.9600067138672 164.36099243164062" stroke-width="1.0" fill="none" stroke="rgb(0, 0, 0)" stroke-opacity="1" stroke-linecap="round" stroke-linejoin="round"/>
    <path d="M 186.02699279785156 135.4969940185547 C 222.44200134277344 131.58700561523438 218.5919952392578 129.8070068359375 219.27699279785156 156.20199584960938" stroke-width="1.0" fill="none" stroke="rgb(0, 0, 0)" stroke-opacity="1" stroke-linecap="round" stroke-linejoin="round"/>
    <path d="M 100.94599914550781 145.50100708007812 C 138.3070068359375 146.91700744628906 114.11399841308594 162.46099853515625 108.74800109863281 143.08799743652344" stroke-width="1.0" fill="none" stroke="rgb(0, 0, 0)" stroke-opacity="1" stroke-linecap="round" stroke-linejoin="round"/>
    <path d="M 162.17599487304688 155.20199584960938 C 184.30099487304688 124.77999877929688 191.50399780273438 118.80400085449219 170.052001953125 152.93899536132812" stroke-width="1.0" fill="none" stroke="rgb(0, 0, 0)" stroke-opacity="1" stroke-linecap="round" stroke-linejoin="round"/>
    <path d="M 186.94000244140625 147.15199279785156 C 184.1269989013672 148.74899291992188 181.51499938964844 146.12100219726562 220.74600219726562 147.2779998779297" stroke-width="1.0" fill="none" stroke="rgb(0, 0, 0)" stroke-opacity="1" stroke-linecap="round" stroke-linejoin="round"/>
    <path d="M 118.73699951171875 150.09300231933594 C 91.37049865722656 139.05099487304688 116.00399780273438 136.7449951171875 134.08399963378906 158.4709930419922" stroke-width="1.0" fill="none" stroke="rgb(0, 0, 0)" stroke-opacity="1" stroke-linecap="round" stroke-linejoin="round"/>
    <path d="M 170.42100524902344 148.58999633789062 C 195.29600524902344 135.29299926757812 165.1540069580078 148.93499755859375 181.5189971923828 160.9429931640625" stroke-width="1.0" fill="none" stroke="rgb(0, 0, 0)" stroke-opacity="1" stroke-linecap="round" stroke-linejoin="round"/>
    <path d="M 157.6699981689453 154.58999633789062 C 157.4040069580078 146.89599609375 186.5279998779297 145.14500427246094 169.11500549316406 145.91400146484375" stroke-width="1.0" fill="none" stroke="rgb(0, 0, 0)" stroke-opacity="1" stroke-linecap="round" stroke-linejoin="round"/>
    <path d="M 199.73800659179688 141.23500061035156 C 210.31100463867188 138.34500122070312 200.28500366210938 132.54299926757812 202.0850067138672 140.53199768066406" stroke-width="1.0" fill="none" stroke="rgb(0, 0, 0)" stroke-opacity="1" stroke-linecap="round" stroke-linejoin="round"/>
    <path d="M 142.5959930419922 161.8560028076172 C 155.53799438476562 141.07200622558594 149.031005859375 142.6649932861328 154.59800720214844 166.20899963378906" stroke-width="1.0" fill="none" stroke="rgb(0, 0, 0)" stroke-opacity="1" stroke-linecap="round" stroke-linejoin="round"/>
    <path d="M 122.10199737548828 153.6020050048828 C 151.99600219726562 142.79800415039062 140.81399536132812 147.29800415039062 166.66799926757812 159.3260040283203" stroke-width="1.0" fill="none" stroke="rgb(0, 0, 0)" stroke-opacity="1" stroke-linecap="round" stroke-linejoin="round"/>
    <path d="M 99.14289855957031 140.2969970703125 C 93.61820220947266 161.4429931640625 94.13619995117188 156.94900512695312 106.4990005493164 141.39599609375" stroke-width="1.0" fill="none" stroke="rgb(0, 0, 0)" stroke-opacity="1" stroke-linecap="round" stroke-linejoin="round"/>
    <path d="M 124.7979965209961 151.84800720214844 C 113.59400177001953 137.59300231933594 120.42400360107422 144.51600646972656 119.56999969482422 152.052001953125" stroke-width="1.0" fill="none" stroke="rgb(0, 0, 0)" stroke-opacity="1" stroke-linecap="round" stroke-linejoin="round"/>
    <path d="M 106.08499908447266 140.54600524902344 C 115.69000244140625 163.41799926757812 145.1699981689453 157.82699584960938 143.4969940185547 159.3769989013672" stroke-width="1.0" fill="none" stroke="rgb(0, 0, 0)" stroke-opacity="1" stroke-linecap="round" stroke-linejoin="round"/>
    <path d="M 221.0989990234375 169.8419952392578 C 229.72000122070312 177.18899536132812 226.71400451660156 161.47300720214844 218.3679962158203 178.5449981689453" stroke-width="1.0" fill="none" stroke="rgb(0, 0, 0)" stroke-opacity="1" stroke-linecap="round" stroke-linejoin="round"/>
    <path d="M 212.4080047607422 147.9720001220703 C 186.26800537109375 145.7050018310547 182.04600524902344 151.30799865722656 190.88400268554688 136.53900146484375" stroke-width="1.0" fill="none" stroke="rgb(0, 0, 0)" stroke-opacity="1" stroke-linecap="round" stroke-linejoin="round"/>
    <path d="M 194.58599853515625 157.6179962158203 C 185.13099670410156 167.7519989013672 209.39999389648438 153.43099975585938 192.23300170898438 164.1490020751953" stroke-width="1.0" fill="none" stroke="rgb(0, 0, 0)" stroke-opacity="1" stroke-linecap="round" stroke-linejoin="round"/>
    <path d="M 151.5050048828125 173.16400146484375 C 145.4669952392578 154.92300415039062 135.17799377441406 156.50100708007812 153.73699951171875 148.6790008544922" stroke-width="1.0" fill="none" stroke="rgb(0, 0, 0)" stroke-opacity="1" stroke-linecap="round" stroke-linejoin="round"/>
    <path d="M 107.26499938964844 146.7689971923828 C 85.9646987915039 137.70199584960938 95.23480224609375 140.1719970703125 113.58100128173828 150.76300048828125" stroke-width="1.0" fill="none" stroke="rgb(0, 0, 0)" stroke-opacity="1" stroke-linecap="round" stroke-linejoin="round"/>
    <path d="M 200.0970001220703 167.48500061035156 C 200.5290069580078 122.17500305175781 213.03199768066406 116.33899688720703 201.6909942626953 172.65199279785156" stroke-width="1.0" fill="none" stroke="rgb(0, 0, 0)" stroke-opacity="1" stroke-linecap="round" stroke-linejoin="round"/>
    <path d="M 142.38299560546875 148.02999877929688 C 96.38680267333984 153.4770050048828 105.04900360107422 153.71200561523438 156.5449981689453 165.66299438476562" stroke-width="1.0" fill="none" stroke="rgb(0, 0, 0)" stroke-opacity="1" stroke-linecap="round" stroke-linejoin="round"/>
    <path d="M 187.71800231933594 135.37600708007812 C 205.00799560546875 131.45599365234375 226.2949981689453 133.37399291992188 185.6060028076172 137.4250030517578" stroke-width="1.0" fill="none" stroke="rgb(0, 0, 0)" stroke-opacity="1" stroke-linecap="round" stroke-linejoin="round"/>
    <path d="M 221.7469940185547 168.8159942626953 C 235.27999877929688 167.70199584960938 231.64199829101562 157.21800231933594 236.0 168.29600524902344" stroke-width="1.0" fill="none" stroke="rgb(0, 0, 0)" stroke-opacity="1" stroke-linecap="round" stroke-linejoin="round"/>
    <path d="M 223.31399536132812 135.1929931640625 C 189.33099365234375 128.13699340820312 203.322998046875 137.82400512695312 210.76400756835938 146.6439971923828" stroke-width="1.0" fill="none" stroke="rgb(0, 0, 0)" stroke-opacity="1" stroke-linecap="round" stroke-linejoin="round"/>
    <path d="M 208.5290069580078 163.66900634765625 C 201.81500244140625 163.927001953125 230.29600524902344 154.41799926757812 223.16700744628906 144.98899841308594" stroke-width="1.0" fill="none" stroke="rgb(0, 0, 0)" stroke-opacity="1" stroke-linecap="round" stroke-linejoin="round"/>
    <path d="M 221.75599670410156 136.1179962158203 C 221.23899841308594 167.66900634765625 214.31700134277344 158.31500244140625 212.56700134277344 151.01499938964844" stroke-width="1.0" fill="none" stroke="rgb(0, 0, 0)" stroke-opacity="1" stroke-linecap="round" stroke-linejoin="round"/>
    <path d="M 205.6999969482422 168.06900024414062 C 200.06199645996094 148.5709991455078 209.36900329589844 147.78900146484375 219.15199279785156 154.0469970703125" stroke-width="1.0" fill="none" stroke="rgb(0, 0, 0)" stroke-opacity="1" stroke-linecap="round" stroke-linejoin="round"/>
    <path d="M 175.802001953125 163.82699584960938 C 189.00100708007812 175.18800354003906 167.71800231933594 178.20199584960938 172.78599548339844 177.54100036621094" stroke-width="1.0" fill="none" stroke="rgb(0, 0, 0)" stroke-opacity="1" stroke-linecap="round" stroke-linejoin="round"/>
    <path d="M 127.97799682617188 153.52000427246094 C 107.75900268554688 136.78799438476562 116.86000061035156 142.18600463867188 113.59300231933594 151.25100708007812" stroke-width="1.0" fill="none" stroke="rgb(0, 0, 0)" stroke-opacity="1" stroke-linecap="round" stroke-linejoin="round"/>
    <path d="M 131.468994140625 149.71800231933594 C 136.54299926757812 163.03399658203125 131.42300415039062 163.08299255371094 150.08700561523438 148.2270050048828" stroke-width="1.0" fill="none" stroke="rgb(0, 0, 0)" stroke-opacity="1" stroke-linecap="round" stroke-linejoin="round"/>
    <path d="M 159.697998046875 158.4709930419922 C 212.93499755859375 151.7100067138672 238.6510009765625 154.64999389648438 202.42599487304688 153.99600219726562" stroke-width="1.0" fill="none" stroke="rgb(0, 0, 0)" stroke-opacity="1" stroke-linecap="round" stroke-linejoin="round"/>
    <path d="M 147.88999938964844 154.25100708007812 C 106.11900329589844 151.50100708007812 89.8552017211914 147.21600341796875 140.5540008544922 162.13099670410156" stroke-width="1.0" fill="none" stroke="rgb(0, 0, 0)" stroke-opacity="1" stroke-linecap="round" stroke-linejoin="round"/>
    <path d="M 220.8800048828125 139.1739959716797 C 214.66400146484375 127.98300170898438 216.03399658203125 137.8990020751953 217.61300659179688 158.0030059814453" stroke-width="1.0" fill="none" stroke="rgb(0, 0, 0)" stroke-opacity="1" stroke-linecap="round" stroke-linejoin="round"/>
    <path d="M 171.11900329589844 177.46200561523438 C 187.94400024414062 176.43099975585938 173.11700439453125 169.73399353027344 153.81500244140625 162.90499877929688" stroke-width="1.0" fill="none" stroke="rgb(0, 0, 0)" stroke-opacity="1" stroke-linecap="round" stroke-linejoin="round"/>
    <path d="M 173.25100708007812 158.53500366210938 C 173.4759979248047 129.52000427246094 175.5030059814453 146.86900329589844 142.99600219726562 150.1929931640625" stroke-width="1.0" fill="none" stroke="rgb(0, 0, 0)" stroke-opacity="1" stroke-linecap="round" stroke-linejoin="round"/>
    <path d="M 223.72999572753906 159.83299255371094 C 222.92799377441406 173.04400634765625 220.7760009765625 166.218994140625 223.47500610351562 167.21499633789062" stroke-width="1.0" fill="none" stroke="rgb(0, 0, 0)" stroke-opacity="1" stroke-linecap="round" stroke-linejoin="round"/>
    <path d="M 145.96200561523438 167.5 C 115.06400299072266 149.82400512695312 105.85700225830078 144.84300231933594 148.41799926757812 153.4550018310547" stroke-width="1.0" fill="none" stroke="rgb(0, 0, 0)" stroke-opacity="1" stroke-linecap="round" stroke-linejoin="round"/>
    <path d="M 221.3780059814453 157.53700256347656 C 230.46200561523438 119.43099975585938 218.03199768066406 136.2899932861328 220.16900634765625 155.1009979248047" stroke-width="1.0" fill="none" stroke="rgb(0, 0, 0)" stroke-opacity="1" stroke-linecap="round" stroke-linejoin="round"/>
    <path d="M 159.03900146484375 170.6280059814453 C 162.22999572753906 149.64999389648438 198.67300415039062 170.1510009765625 160.1300048828125 169.34300231933594" stroke-width="1.0" fill="none" stroke="rgb(0, 0, 0)" stroke-opacity="1" stroke-linecap="round" stroke-linejoin="round"/>
    <path d="M 169.37899780273438 158.7779998779297 C 170.9759979248047 139.8979949951172 180.67799377441406 161.30099487304688 175.53799438476562 153.44500732421875" stroke-width="1.0" fill="none" stroke="rgb(0, 0, 0)" stroke-opacity="1" stroke-linecap="round" stroke-linejoin="round"/>
    <path d="M 217.49099731445312 178.4459991455078 C 198.7100067138672 172.84800720214844 207.20399475097656 146.0590057373047 220.43899536132812 149.0030059814453" stroke-width="1.0" fill="none" stroke="rgb(0, 0, 0)" stroke-opacity="1" stroke-linecap="round" stroke-linejoin="round"/>
    <path d="M 186.8979949951172 158.9219970703125 C 196.2050018310547 170.83599853515625 217.05299377441406 159.9459991455078 171.1479949951172 153.76100158691406" stroke-width="1.0" fill="none" stroke="rgb(0, 0, 0)" stroke-opacity="1" stroke-linecap="round" stroke-linejoin="round"/>
    <path d="M 234.16600036621094 172.69200134277344 C 216.11099243164062 168.53399658203125 231.447998046875 169.80299377441406 221.77099609375 169.3350067138672" stroke-width="1.0" fill="none" stroke="rgb(0, 0, 0)" stroke-opacity="1" stroke-linecap="round" stroke-linejoin="round"/>
    <path d="M 167.60800170898438 144.30999755859375 C 168.84800720214844 155.7530059814453 177.6320037841797 154.8459930419922 210.72999572753906 156.4290008544922" stroke-width="1.0" fill="none" stroke="rgb(0, 0, 0)" stroke-opacity="1" stroke-linecap="round" stroke-linejoin="round"/>
  </g>
</svg>
