<?xml version="1.0" ?>
<svg xmlns="http://www.w3.org/2000/svg" version="1.1" width="256" height="256">
  <defs/>
  <g>
    <path d="M 89.0802993774414 143.697998046875 C 79.93370056152344 138.4530029296875 97.49659729003906 150.5330047607422 86.17130279541016 141.29400634765625" stroke-width="2.0" fill="none" stroke="rgb(0, 0, 0)" stroke-opacity="1" stroke-linecap="round" stroke-linejoin="round"/>
    <path d="M 108.86199951171875 156.8419952392578 C 92.88710021972656 145.91900634765625 110.6259994506836 137.86300659179688 101.14700317382812 164.47500610351562" stroke-width="2.0" fill="none" stroke="rgb(0, 0, 0)" stroke-opacity="1" stroke-linecap="round" stroke-linejoin="round"/>
    <path d="M 78.52749633789062 135.18099975585938 C 75.82659912109375 119.98600006103516 68.197998046875 161.50799560546875 105.08599853515625 179.4739990234375" stroke-width="2.0" fill="none" stroke="rgb(0, 0, 0)" stroke-opacity="1" stroke-linecap="round" stroke-linejoin="round"/>
    <path d="M 123.59100341796875 142.80299377441406 C 129.1820068359375 146.4459991455078 131.75599670410156 140.16799926757812 132.9949951171875 145.947998046875" stroke-width="2.0" fill="none" stroke="rgb(0, 0, 0)" stroke-opacity="1" stroke-linecap="round" stroke-linejoin="round"/>
    <path d="M 82.98719787597656 136.552001953125 C 86.62349700927734 125.99400329589844 88.39219665527344 143.7550048828125 94.25170135498047 121.94599914550781" stroke-width="2.0" fill="none" stroke="rgb(0, 0, 0)" stroke-opacity="1" stroke-linecap="round" stroke-linejoin="round"/>
    <path d="M 88.81559753417969 145.82000732421875 C 95.91220092773438 161.10299682617188 98.314697265625 149.1909942626953 102.34400177001953 164.9669952392578" stroke-width="2.0" fill="none" stroke="rgb(0, 0, 0)" stroke-opacity="1" stroke-linecap="round" stroke-linejoin="round"/>
    <path d="M 146.5399932861328 123.66899871826172 C 134.2779998779297 117.26100158691406 145.88099670410156 139.47999572753906 135.6959991455078 120.5979995727539" stroke-width="2.0" fill="none" stroke="rgb(0, 0, 0)" stroke-opacity="1" stroke-linecap="round" stroke-linejoin="round"/>
    <path d="M 99.28269958496094 168.8419952392578 C 128.51600646972656 119.33999633789062 98.48429870605469 175.8249969482422 101.04100036621094 151.9739990234375" stroke-width="2.0" fill="none" stroke="rgb(0, 0, 0)" stroke-opacity="1" stroke-linecap="round" stroke-linejoin="round"/>
    <path d="M 109.84400177001953 157.47999572753906 C 90.73079681396484 178.01300048828125 108.48300170898438 170.49000549316406 101.58899688720703 168.3820037841797" stroke-width="2.0" fill="none" stroke="rgb(0, 0, 0)" stroke-opacity="1" stroke-linecap="round" stroke-linejoin="round"/>
    <path d="M 178.6750030517578 131.61900329589844 C 184.71299743652344 161.75399780273438 168.11399841308594 112.26799774169922 168.34100341796875 137.9499969482422" stroke-width="2.0" fill="none" stroke="rgb(0, 0, 0)" stroke-opacity="1" stroke-linecap="round" stroke-linejoin="round"/>
    <path d="M 142.56300354003906 160.57200622558594 C 142.13999938964844 168.38400268554688 142.83200073242188 169.55799865722656 144.67999267578125 160.41400146484375" stroke-width="2.0" fill="none" stroke="rgb(0, 0, 0)" stroke-opacity="1" stroke-linecap="round" stroke-linejoin="round"/>
    <path d="M 105.22699737548828 164.87100219726562 C 112.04399871826172 127.43099975585938 95.66239929199219 158.08299255371094 97.654296875 148.62399291992188" stroke-width="2.0" fill="none" stroke="rgb(0, 0, 0)" stroke-opacity="1" stroke-linecap="round" stroke-linejoin="round"/>
    <path d="M 156.08299255371094 136.48599243164062 C 154.4340057373047 136.5260009765625 151.5 138.99000549316406 150.4949951171875 135.81900024414062" stroke-width="2.0" fill="none" stroke="rgb(0, 0, 0)" stroke-opacity="1" stroke-linecap="round" stroke-linejoin="round"/>
    <path d="M 126.29499816894531 183.3780059814453 C 122.06199645996094 183.30599975585938 129.14999389648438 184.73500061035156 141.53799438476562 181.66299438476562" stroke-width="2.0" fill="none" stroke="rgb(0, 0, 0)" stroke-opacity="1" stroke-linecap="round" stroke-linejoin="round"/>
    <path d="M 129.9499969482422 107.11199951171875 C 146.56700134277344 92.63610076904297 134.51600646972656 117.4469985961914 143.2830047607422 99.35790252685547" stroke-width="2.0" fill="none" stroke="rgb(0, 0, 0)" stroke-opacity="1" stroke-linecap="round" stroke-linejoin="round"/>
    <path d="M 141.4929962158203 89.99430084228516 C 141.97300720214844 89.5553970336914 170.0659942626953 100.01799774169922 175.3939971923828 120.9540023803711" stroke-width="2.0" fill="none" stroke="rgb(0, 0, 0)" stroke-opacity="1" stroke-linecap="round" stroke-linejoin="round"/>
    <path d="M 149.37600708007812 96.55500030517578 C 142.24200439453125 86.63040161132812 119.49400329589844 87.14710235595703 121.72799682617188 89.72650146484375" stroke-width="2.0" fill="none" stroke="rgb(0, 0, 0)" stroke-opacity="1" stroke-linecap="round" stroke-linejoin="round"/>
    <path d="M 176.03700256347656 153.25999450683594 C 168.12399291992188 170.20399475097656 156.50399780273438 178.23300170898438 138.76100158691406 182.43899536132812" stroke-width="2.0" fill="none" stroke="rgb(0, 0, 0)" stroke-opacity="1" stroke-linecap="round" stroke-linejoin="round"/>
    <path d="M 156.64700317382812 129.88800048828125 C 157.61399841308594 131.63400268554688 158.29600524902344 130.73399353027344 160.73500061035156 129.9770050048828" stroke-width="2.0" fill="none" stroke="rgb(0, 0, 0)" stroke-opacity="1" stroke-linecap="round" stroke-linejoin="round"/>
    <path d="M 143.8350067138672 160.43499755859375 C 152.8040008544922 158.73699951171875 145.92100524902344 154.96499633789062 148.98500061035156 153.7790069580078" stroke-width="2.0" fill="none" stroke="rgb(0, 0, 0)" stroke-opacity="1" stroke-linecap="round" stroke-linejoin="round"/>
    <path d="M 107.802001953125 180.78700256347656 C 109.54499816894531 181.55999755859375 117.40899658203125 183.28199768066406 113.75900268554688 182.5709991455078" stroke-width="2.0" fill="none" stroke="rgb(0, 0, 0)" stroke-opacity="1" stroke-linecap="round" stroke-linejoin="round"/>
    <path d="M 142.5850067138672 161.36700439453125 C 150.06199645996094 157.23500061035156 137.4669952392578 161.51699829101562 144.76300048828125 159.47999572753906" stroke-width="2.0" fill="none" stroke="rgb(0, 0, 0)" stroke-opacity="1" stroke-linecap="round" stroke-linejoin="round"/>
    <path d="M 131.60299682617188 122.36100006103516 C 126.25900268554688 120.95500183105469 131.55599975585938 125.01899719238281 121.03500366210938 122.41500091552734" stroke-width="2.0" fill="none" stroke="rgb(0, 0, 0)" stroke-opacity="1" stroke-linecap="round" stroke-linejoin="round"/>
    <path d="M 108.35700225830078 177.0659942626953 C 98.75250244140625 177.6959991455078 104.10099792480469 163.78700256347656 97.6635971069336 146.5229949951172" stroke-width="2.0" fill="none" stroke="rgb(0, 0, 0)" stroke-opacity="1" stroke-linecap="round" stroke-linejoin="round"/>
    <path d="M 164.8509979248047 103.03700256347656 C 160.14500427246094 100.77799987792969 159.38299560546875 97.03289794921875 169.46800231933594 108.24600219726562" stroke-width="2.0" fill="none" stroke="rgb(0, 0, 0)" stroke-opacity="1" stroke-linecap="round" stroke-linejoin="round"/>
    <path d="M 109.12999725341797 149.13299560546875 C 83.1144027709961 139.8260040283203 96.85320281982422 150.02699279785156 106.45600128173828 163.5970001220703" stroke-width="2.0" fill="none" stroke="rgb(0, 0, 0)" stroke-opacity="1" stroke-linecap="round" stroke-linejoin="round"/>
    <path d="M 144.6199951171875 100.39099884033203 C 151.65199279785156 101.84500122070312 135.3979949951172 91.84349822998047 148.01600646972656 98.08419799804688" stroke-width="2.0" fill="none" stroke="rgb(0, 0, 0)" stroke-opacity="1" stroke-linecap="round" stroke-linejoin="round"/>
    <path d="M 140.19200134277344 181.73800659179688 C 135.13600158691406 183.125 130.71200561523438 184.4149932861328 145.03199768066406 180.58900451660156" stroke-width="2.0" fill="none" stroke="rgb(0, 0, 0)" stroke-opacity="1" stroke-linecap="round" stroke-linejoin="round"/>
    <path d="M 124.56500244140625 143.88099670410156 C 121.34500122070312 134.65899658203125 108.25299835205078 142.5959930419922 127.73799896240234 123.5" stroke-width="2.0" fill="none" stroke="rgb(0, 0, 0)" stroke-opacity="1" stroke-linecap="round" stroke-linejoin="round"/>
    <path d="M 147.95899963378906 129.84500122070312 C 152.68099975585938 149.38600158691406 157.48500061035156 114.53500366210938 169.0229949951172 138.5760040283203" stroke-width="2.0" fill="none" stroke="rgb(0, 0, 0)" stroke-opacity="1" stroke-linecap="round" stroke-linejoin="round"/>
    <path d="M 130.7169952392578 100.68699645996094 C 151.58200073242188 109.71099853515625 125.61799621582031 90.8634033203125 134.52200317382812 111.58300018310547" stroke-width="2.0" fill="none" stroke="rgb(0, 0, 0)" stroke-opacity="1" stroke-linecap="round" stroke-linejoin="round"/>
    <path d="M 98.75499725341797 168.36199951171875 C 105.95999908447266 155.9340057373047 71.33930206298828 140.57699584960938 105.65799713134766 163.62600708007812" stroke-width="2.0" fill="none" stroke="rgb(0, 0, 0)" stroke-opacity="1" stroke-linecap="round" stroke-linejoin="round"/>
    <path d="M 153.71800231933594 129.61399841308594 C 161.05099487304688 132.61900329589844 165.14700317382812 121.96099853515625 155.093994140625 135.5749969482422" stroke-width="2.0" fill="none" stroke="rgb(0, 0, 0)" stroke-opacity="1" stroke-linecap="round" stroke-linejoin="round"/>
    <path d="M 152.6490020751953 137.0399932861328 C 153.63900756835938 131.61900329589844 162.9429931640625 141.6009979248047 147.21600341796875 133.92300415039062" stroke-width="2.0" fill="none" stroke="rgb(0, 0, 0)" stroke-opacity="1" stroke-linecap="round" stroke-linejoin="round"/>
    <path d="M 123.3740005493164 88.44640350341797 C 123.0510025024414 86.002197265625 106.11799621582031 98.9655990600586 115.29299926757812 95.74639892578125" stroke-width="2.0" fill="none" stroke="rgb(0, 0, 0)" stroke-opacity="1" stroke-linecap="round" stroke-linejoin="round"/>
    <path d="M 155.92599487304688 142.0290069580078 C 144.76400756835938 146.68899536132812 155.4149932861328 149.57899475097656 147.6510009765625 154.4499969482422" stroke-width="2.0" fill="none" stroke="rgb(0, 0, 0)" stroke-opacity="1" stroke-linecap="round" stroke-linejoin="round"/>
    <path d="M 156.68600463867188 133.80999755859375 C 159.38400268554688 138.02699279785156 159.3699951171875 135.99899291992188 156.15899658203125 141.5469970703125" stroke-width="2.0" fill="none" stroke="rgb(0, 0, 0)" stroke-opacity="1" stroke-linecap="round" stroke-linejoin="round"/>
    <path d="M 132.2169952392578 145.5469970703125 C 133.42799377441406 150.6540069580078 134.76499938964844 145.04400634765625 135.62899780273438 150.7519989013672" stroke-width="2.0" fill="none" stroke="rgb(0, 0, 0)" stroke-opacity="1" stroke-linecap="round" stroke-linejoin="round"/>
    <path d="M 122.94300079345703 184.0 C 114.15899658203125 183.2899932861328 125.66799926757812 184.87100219726562 142.0970001220703 181.5240020751953" stroke-width="2.0" fill="none" stroke="rgb(0, 0, 0)" stroke-opacity="1" stroke-linecap="round" stroke-linejoin="round"/>
    <path d="M 156.77000427246094 135.66299438476562 C 154.26199340820312 130.6719970703125 160.75599670410156 133.75799560546875 153.5449981689453 136.50999450683594" stroke-width="2.0" fill="none" stroke="rgb(0, 0, 0)" stroke-opacity="1" stroke-linecap="round" stroke-linejoin="round"/>
    <path d="M 136.81700134277344 114.10600280761719 C 117.02799987792969 123.58200073242188 112.68199920654297 131.70399475097656 135.427001953125 111.00800323486328" stroke-width="2.0" fill="none" stroke="rgb(0, 0, 0)" stroke-opacity="1" stroke-linecap="round" stroke-linejoin="round"/>
    <path d="M 131.00799560546875 123.4800033569336 C 130.9720001220703 136.58399963378906 126.4209976196289 115.13300323486328 135.9199981689453 110.95700073242188" stroke-width="2.0" fill="none" stroke="rgb(0, 0, 0)" stroke-opacity="1" stroke-linecap="round" stroke-linejoin="round"/>
    <path d="M 98.52349853515625 147.1300048828125 C 105.60600280761719 166.85899353027344 113.83399963378906 141.63299560546875 90.22669982910156 150.3730010986328" stroke-width="2.0" fill="none" stroke="rgb(0, 0, 0)" stroke-opacity="1" stroke-linecap="round" stroke-linejoin="round"/>
    <path d="M 123.61299896240234 88.38179779052734 C 89.44170379638672 90.31430053710938 110.16899871826172 108.01300048828125 101.98899841308594 102.87000274658203" stroke-width="2.0" fill="none" stroke="rgb(0, 0, 0)" stroke-opacity="1" stroke-linecap="round" stroke-linejoin="round"/>
    <path d="M 134.5570068359375 149.26199340820312 C 134.4409942626953 157.2469940185547 135.83099365234375 154.4770050048828 140.29299926757812 166.54299926757812" stroke-width="2.0" fill="none" stroke="rgb(0, 0, 0)" stroke-opacity="1" stroke-linecap="round" stroke-linejoin="round"/>
    <path d="M 101.13400268554688 149.13299560546875 C 86.7313003540039 163.59100341796875 112.81900024414062 138.59100341796875 108.08100128173828 156.28700256347656" stroke-width="2.0" fill="none" stroke="rgb(0, 0, 0)" stroke-opacity="1" stroke-linecap="round" stroke-linejoin="round"/>
    <path d="M 111.59400177001953 102.1500015258789 C 109.7040023803711 91.13249969482422 121.0250015258789 87.56990051269531 110.33000183105469 100.17400360107422" stroke-width="2.0" fill="none" stroke="rgb(0, 0, 0)" stroke-opacity="1" stroke-linecap="round" stroke-linejoin="round"/>
    <path d="M 106.69599914550781 107.15299987792969 C 121.38200378417969 88.44609832763672 95.06510162353516 113.7699966430664 112.5790023803711 100.81500244140625" stroke-width="2.0" fill="none" stroke="rgb(0, 0, 0)" stroke-opacity="1" stroke-linecap="round" stroke-linejoin="round"/>
    <path d="M 144.48399353027344 120.6449966430664 C 136.43899536132812 133.66299438476562 121.31999969482422 118.17400360107422 136.2790069580078 109.27100372314453" stroke-width="2.0" fill="none" stroke="rgb(0, 0, 0)" stroke-opacity="1" stroke-linecap="round" stroke-linejoin="round"/>
    <path d="M 122.68699645996094 128.24200439453125 C 146.7729949951172 116.46399688720703 137.0489959716797 121.49600219726562 124.4729995727539 118.8280029296875" stroke-width="2.0" fill="none" stroke="rgb(0, 0, 0)" stroke-opacity="1" stroke-linecap="round" stroke-linejoin="round"/>
    <path d="M 170.375 162.9530029296875 C 173.60800170898438 158.34500122070312 177.18299865722656 152.88800048828125 172.4010009765625 160.20700073242188" stroke-width="2.0" fill="none" stroke="rgb(0, 0, 0)" stroke-opacity="1" stroke-linecap="round" stroke-linejoin="round"/>
    <path d="M 120.6449966430664 130.52099609375 C 117.15599822998047 125.90299987792969 125.10399627685547 130.9080047607422 121.13500213623047 125.0770034790039" stroke-width="2.0" fill="none" stroke="rgb(0, 0, 0)" stroke-opacity="1" stroke-linecap="round" stroke-linejoin="round"/>
    <path d="M 128.29299926757812 183.343994140625 C 122.59200286865234 183.22799682617188 109.56500244140625 183.80599975585938 100.46700286865234 176.4709930419922" stroke-width="2.0" fill="none" stroke="rgb(0, 0, 0)" stroke-opacity="1" stroke-linecap="round" stroke-linejoin="round"/>
    <path d="M 103.46099853515625 97.8584976196289 C 96.90280151367188 111.11799621582031 74.58910369873047 126.4729995727539 104.68199920654297 99.33550262451172" stroke-width="2.0" fill="none" stroke="rgb(0, 0, 0)" stroke-opacity="1" stroke-linecap="round" stroke-linejoin="round"/>
    <path d="M 93.36380004882812 100.1520004272461 C 75.83769989013672 114.58899688720703 70.46859741210938 145.49899291992188 85.39920043945312 142.031005859375" stroke-width="2.0" fill="none" stroke="rgb(0, 0, 0)" stroke-opacity="1" stroke-linecap="round" stroke-linejoin="round"/>
    <path d="M 105.19999694824219 94.92980194091797 C 125.29299926757812 87.1781997680664 99.37830352783203 89.84729766845703 86.79029846191406 106.95500183105469" stroke-width="2.0" fill="none" stroke="rgb(0, 0, 0)" stroke-opacity="1" stroke-linecap="round" stroke-linejoin="round"/>
    <path d="M 105.01000213623047 148.09500122070312 C 117.12699890136719 171.8470001220703 102.45999908447266 142.0709991455078 100.68599700927734 164.37399291992188" stroke-width="2.0" fill="none" stroke="rgb(0, 0, 0)" stroke-opacity="1" stroke-linecap="round" stroke-linejoin="round"/>
    <path d="M 91.70059967041016 125.91600036621094 C 109.73699951171875 110.69100189208984 95.8386001586914 111.89099884033203 100.33699798583984 120.2300033569336" stroke-width="2.0" fill="none" stroke="rgb(0, 0, 0)" stroke-opacity="1" stroke-linecap="round" stroke-linejoin="round"/>
    <path d="M 136.89599609375 112.41500091552734 C 112.85900115966797 130.29400634765625 121.03399658203125 138.3769989013672 130.85499572753906 120.2490005493164" stroke-width="2.0" fill="none" stroke="rgb(0, 0, 0)" stroke-opacity="1" stroke-linecap="round" stroke-linejoin="round"/>
    <path d="M 90.20980072021484 116.4489974975586 C 111.41500091552734 85.9365005493164 92.3114013671875 101.42900085449219 98.01080322265625 111.66400146484375" stroke-width="2.0" fill="none" stroke="rgb(0, 0, 0)" stroke-opacity="1" stroke-linecap="round" stroke-linejoin="round"/>
    <path d="M 164.13299560546875 102.39099884033203 C 157.8800048828125 96.54299926757812 160.75799560546875 99.10209655761719 166.06700134277344 105.2969970703125" stroke-width="2.0" fill="none" stroke="rgb(0, 0, 0)" stroke-opacity="1" stroke-linecap="round" stroke-linejoin="round"/>
    <path d="M 114.85900115966797 89.24130249023438 C 152.5050048828125 81.75569915771484 170.97000122070312 110.89199829101562 164.2830047607422 103.21600341796875" stroke-width="2.0" fill="none" stroke="rgb(0, 0, 0)" stroke-opacity="1" stroke-linecap="round" stroke-linejoin="round"/>
    <path d="M 155.61500549316406 133.25 C 150.1269989013672 135.0500030517578 159.88699340820312 132.3280029296875 158.37600708007812 139.08299255371094" stroke-width="2.0" fill="none" stroke="rgb(0, 0, 0)" stroke-opacity="1" stroke-linecap="round" stroke-linejoin="round"/>
    <path d="M 162.47000122070312 100.3550033569336 C 154.8209991455078 96.4906997680664 194.7209930419922 118.56999969482422 173.927001953125 157.36500549316406" stroke-width="2.0" fill="none" stroke="rgb(0, 0, 0)" stroke-opacity="1" stroke-linecap="round" stroke-linejoin="round"/>
    <path d="M 204.2519989013672 133.85400390625 C 210.08900451660156 131.24099731445312 200.32000732421875 132.11599731445312 218.06399536132812 133.2570037841797" stroke-width="1.5" fill="none" stroke="rgb(0, 0, 0)" stroke-opacity="1" stroke-linecap="round" stroke-linejoin="round"/>
    <path d="M 234.15499877929688 143.28399658203125 C 230.07400512695312 143.6219940185547 231.82899475097656 143.64999389648438 233.08700561523438 141.92799377441406" stroke-width="1.5" fill="none" stroke="rgb(0, 0, 0)" stroke-opacity="1" stroke-linecap="round" stroke-linejoin="round"/>
    <path d="M 232.08200073242188 148.3990020751953 C 234.3990020751953 157.38999938964844 230.45799255371094 156.93299865722656 236.197998046875 153.81900024414062" stroke-width="1.5" fill="none" stroke="rgb(0, 0, 0)" stroke-opacity="1" stroke-linecap="round" stroke-linejoin="round"/>
    <path d="M 220.90499877929688 131.05999755859375 C 219.66799926757812 132.0290069580078 215.70899963378906 132.4149932861328 212.62600708007812 134.23599243164062" stroke-width="1.5" fill="none" stroke="rgb(0, 0, 0)" stroke-opacity="1" stroke-linecap="round" stroke-linejoin="round"/>
    <path d="M 226.18899536132812 119.28900146484375 C 227.71400451660156 111.49500274658203 232.2469940185547 114.74800109863281 226.88900756835938 122.5530014038086" stroke-width="1.5" fill="none" stroke="rgb(0, 0, 0)" stroke-opacity="1" stroke-linecap="round" stroke-linejoin="round"/>
    <path d="M 226.5019989013672 117.91799926757812 C 222.4459991455078 122.10299682617188 231.177001953125 117.48500061035156 229.1179962158203 131.77499389648438" stroke-width="1.5" fill="none" stroke="rgb(0, 0, 0)" stroke-opacity="1" stroke-linecap="round" stroke-linejoin="round"/>
    <path d="M 227.7220001220703 114.68199920654297 C 226.74099731445312 103.30999755859375 227.9149932861328 105.44999694824219 224.56100463867188 114.62200164794922" stroke-width="1.5" fill="none" stroke="rgb(0, 0, 0)" stroke-opacity="1" stroke-linecap="round" stroke-linejoin="round"/>
    <path d="M 233.83299255371094 138.5760040283203 C 231.86199951171875 140.99099731445312 231.218994140625 147.20399475097656 227.70700073242188 139.99099731445312" stroke-width="1.5" fill="none" stroke="rgb(0, 0, 0)" stroke-opacity="1" stroke-linecap="round" stroke-linejoin="round"/>
    <path d="M 227.9459991455078 141.41600036621094 C 227.08200073242188 142.33999633789062 231.72000122070312 146.85000610351562 232.60899353027344 142.2429962158203" stroke-width="1.5" fill="none" stroke="rgb(0, 0, 0)" stroke-opacity="1" stroke-linecap="round" stroke-linejoin="round"/>
    <path d="M 234.5850067138672 151.60800170898438 C 230.73199462890625 146.447998046875 227.4669952392578 141.61700439453125 230.5469970703125 155.90199279785156" stroke-width="1.5" fill="none" stroke="rgb(0, 0, 0)" stroke-opacity="1" stroke-linecap="round" stroke-linejoin="round"/>
    <path d="M 231.12600708007812 130.52000427246094 C 233.38800048828125 133.5959930419922 233.06199645996094 131.052001953125 220.23399353027344 134.5659942626953" stroke-width="1.5" fill="none" stroke="rgb(0, 0, 0)" stroke-opacity="1" stroke-linecap="round" stroke-linejoin="round"/>
    <path d="M 228.49600219726562 123.83699798583984 C 217.35899353027344 123.30000305175781 220.2259979248047 124.51499938964844 226.427001953125 123.69200134277344" stroke-width="1.5" fill="none" stroke="rgb(0, 0, 0)" stroke-opacity="1" stroke-linecap="round" stroke-linejoin="round"/>
    <path d="M 215.9409942626953 135.64300537109375 C 221.8679962158203 132.052001953125 223.593994140625 135.00999450683594 214.87399291992188 136.11399841308594" stroke-width="1.5" fill="none" stroke="rgb(0, 0, 0)" stroke-opacity="1" stroke-linecap="round" stroke-linejoin="round"/>
    <path d="M 212.1439971923828 135.08599853515625 C 210.52000427246094 126.30400085449219 219.88999938964844 133.968994140625 210.22000122070312 136.177001953125" stroke-width="1.5" fill="none" stroke="rgb(0, 0, 0)" stroke-opacity="1" stroke-linecap="round" stroke-linejoin="round"/>
    <path d="M 227.72000122070312 117.5999984741211 C 229.3979949951172 112.34200286865234 228.0749969482422 114.00599670410156 229.34500122070312 120.78199768066406" stroke-width="1.5" fill="none" stroke="rgb(0, 0, 0)" stroke-opacity="1" stroke-linecap="round" stroke-linejoin="round"/>
    <path d="M 213.11700439453125 131.06500244140625 C 227.8820037841797 128.76800537109375 222.6269989013672 128.60800170898438 212.37899780273438 135.35800170898438" stroke-width="1.5" fill="none" stroke="rgb(0, 0, 0)" stroke-opacity="1" stroke-linecap="round" stroke-linejoin="round"/>
    <path d="M 234.49200439453125 154.58700561523438 C 237.8780059814453 145.74200439453125 235.91900634765625 147.08599853515625 230.66400146484375 154.38800048828125" stroke-width="1.5" fill="none" stroke="rgb(0, 0, 0)" stroke-opacity="1" stroke-linecap="round" stroke-linejoin="round"/>
    <path d="M 207.16799926757812 133.9929962158203 C 212.25399780273438 138.1269989013672 208.71200561523438 137.11300659179688 209.7480010986328 130.93899536132812" stroke-width="1.5" fill="none" stroke="rgb(0, 0, 0)" stroke-opacity="1" stroke-linecap="round" stroke-linejoin="round"/>
    <path d="M 229.3800048828125 113.28399658203125 C 233.12399291992188 132.92599487304688 231.58099365234375 116.78099822998047 227.4320068359375 118.07099914550781" stroke-width="1.5" fill="none" stroke="rgb(0, 0, 0)" stroke-opacity="1" stroke-linecap="round" stroke-linejoin="round"/>
    <path d="M 223.3159942626953 122.0260009765625 C 225.01100158691406 121.93399810791016 218.9409942626953 120.13800048828125 216.23199462890625 123.00800323486328" stroke-width="1.5" fill="none" stroke="rgb(0, 0, 0)" stroke-opacity="1" stroke-linecap="round" stroke-linejoin="round"/>
    <path d="M 222.7480010986328 133.20199584960938 C 222.93099975585938 126.43299865722656 218.08099365234375 128.6909942626953 232.9320068359375 127.3740005493164" stroke-width="1.5" fill="none" stroke="rgb(0, 0, 0)" stroke-opacity="1" stroke-linecap="round" stroke-linejoin="round"/>
    <path d="M 209.5050048828125 131.11199951171875 C 211.8070068359375 127.85900115966797 202.91600036621094 133.61099243164062 208.1020050048828 129.48899841308594" stroke-width="1.5" fill="none" stroke="rgb(0, 0, 0)" stroke-opacity="1" stroke-linecap="round" stroke-linejoin="round"/>
    <path d="M 214.38800048828125 122.68099975585938 C 216.95799255371094 127.32099914550781 213.65199279785156 121.02300262451172 215.57699584960938 131.33399963378906" stroke-width="1.5" fill="none" stroke="rgb(0, 0, 0)" stroke-opacity="1" stroke-linecap="round" stroke-linejoin="round"/>
    <path d="M 215.8979949951172 122.9280014038086 C 219.1020050048828 120.75599670410156 219.62600708007812 122.74500274658203 221.60299682617188 122.47899627685547" stroke-width="1.5" fill="none" stroke="rgb(0, 0, 0)" stroke-opacity="1" stroke-linecap="round" stroke-linejoin="round"/>
    <path d="M 208.53799438476562 129.23300170898438 C 208.63999938964844 122.40599822998047 202.41799926757812 125.34600067138672 217.406005859375 121.94000244140625" stroke-width="1.5" fill="none" stroke="rgb(0, 0, 0)" stroke-opacity="1" stroke-linecap="round" stroke-linejoin="round"/>
    <path d="M 221.7760009765625 129.9080047607422 C 222.8699951171875 133.94200134277344 223.99600219726562 134.73699951171875 220.5030059814453 132.01499938964844" stroke-width="1.5" fill="none" stroke="rgb(0, 0, 0)" stroke-opacity="1" stroke-linecap="round" stroke-linejoin="round"/>
    <path d="M 234.72000122070312 143.1439971923828 C 232.9770050048828 133.28199768066406 234.35800170898438 133.99099731445312 230.4510040283203 142.22500610351562" stroke-width="1.5" fill="none" stroke="rgb(0, 0, 0)" stroke-opacity="1" stroke-linecap="round" stroke-linejoin="round"/>
    <path d="M 226.447998046875 118.61299896240234 C 223.8780059814453 122.02799987792969 225.8509979248047 124.65899658203125 223.4810028076172 114.29199981689453" stroke-width="1.5" fill="none" stroke="rgb(0, 0, 0)" stroke-opacity="1" stroke-linecap="round" stroke-linejoin="round"/>
    <path d="M 209.6280059814453 127.53900146484375 C 208.7530059814453 139.9080047607422 207.1840057373047 138.64199829101562 207.68299865722656 132.82400512695312" stroke-width="1.5" fill="none" stroke="rgb(0, 0, 0)" stroke-opacity="1" stroke-linecap="round" stroke-linejoin="round"/>
    <path d="M 226.98500061035156 134.21099853515625 C 229.49200439453125 145.75799560546875 234.9459991455078 147.1540069580078 233.2729949951172 132.00900268554688" stroke-width="1.5" fill="none" stroke="rgb(0, 0, 0)" stroke-opacity="1" stroke-linecap="round" stroke-linejoin="round"/>
    <path d="M 227.7689971923828 133.9709930419922 C 230.5780029296875 132.44000244140625 235.3419952392578 131.63600158691406 232.93800354003906 122.02999877929688" stroke-width="1.5" fill="none" stroke="rgb(0, 0, 0)" stroke-opacity="1" stroke-linecap="round" stroke-linejoin="round"/>
    <path d="M 226.11399841308594 123.05000305175781 C 219.03199768066406 125.81300354003906 222.40499877929688 125.15399932861328 227.51699829101562 122.43699645996094" stroke-width="1.5" fill="none" stroke="rgb(0, 0, 0)" stroke-opacity="1" stroke-linecap="round" stroke-linejoin="round"/>
    <path d="M 217.53399658203125 135.2310028076172 C 216.1009979248047 132.13900756835938 219.36700439453125 133.1649932861328 221.75 131.32000732421875" stroke-width="1.5" fill="none" stroke="rgb(0, 0, 0)" stroke-opacity="1" stroke-linecap="round" stroke-linejoin="round"/>
    <path d="M 233.41799926757812 155.4040069580078 C 236.1540069580078 150.94200134277344 235.1750030517578 147.61099243164062 231.5590057373047 155.0780029296875" stroke-width="1.5" fill="none" stroke="rgb(0, 0, 0)" stroke-opacity="1" stroke-linecap="round" stroke-linejoin="round"/>
    <path d="M 222.281005859375 122.15299987792969 C 226.6230010986328 128.59800720214844 220.40699768066406 125.44400024414062 223.4080047607422 119.875" stroke-width="1.5" fill="none" stroke="rgb(0, 0, 0)" stroke-opacity="1" stroke-linecap="round" stroke-linejoin="round"/>
    <path d="M 215.88299560546875 133.71200561523438 C 218.02200317382812 138.4239959716797 218.70199584960938 135.63600158691406 216.90899658203125 129.8159942626953" stroke-width="1.5" fill="none" stroke="rgb(0, 0, 0)" stroke-opacity="1" stroke-linecap="round" stroke-linejoin="round"/>
    <path d="M 228.64199829101562 111.79399871826172 C 224.4290008544922 120.33399963378906 223.62100219726562 120.26699829101562 226.7169952392578 109.21900177001953" stroke-width="1.5" fill="none" stroke="rgb(0, 0, 0)" stroke-opacity="1" stroke-linecap="round" stroke-linejoin="round"/>
    <path d="M 227.6959991455078 106.0999984741211 C 228.98800659179688 113.8239974975586 229.41400146484375 115.48200225830078 228.44500732421875 112.14199829101562" stroke-width="1.5" fill="none" stroke="rgb(0, 0, 0)" stroke-opacity="1" stroke-linecap="round" stroke-linejoin="round"/>
    <path d="M 222.5780029296875 130.60400390625 C 222.90199279785156 125.8270034790039 224.3769989013672 138.12399291992188 220.67999267578125 133.19900512695312" stroke-width="1.5" fill="none" stroke="rgb(0, 0, 0)" stroke-opacity="1" stroke-linecap="round" stroke-linejoin="round"/>
    <path d="M 227.29800415039062 136.02999877929688 C 228.1479949951172 148.21400451660156 229.4149932861328 151.4969940185547 233.8070068359375 137.0399932861328" stroke-width="1.5" fill="none" stroke="rgb(0, 0, 0)" stroke-opacity="1" stroke-linecap="round" stroke-linejoin="round"/>
    <path d="M 214.6909942626953 128.54400634765625 C 213.7570037841797 132.4459991455078 217.29800415039062 131.177001953125 207.88400268554688 135.02999877929688" stroke-width="1.5" fill="none" stroke="rgb(0, 0, 0)" stroke-opacity="1" stroke-linecap="round" stroke-linejoin="round"/>
    <path d="M 237.18699645996094 153.5019989013672 C 232.3979949951172 137.0469970703125 235.0449981689453 135.1300048828125 234.2010040283203 147.968994140625" stroke-width="1.5" fill="none" stroke="rgb(0, 0, 0)" stroke-opacity="1" stroke-linecap="round" stroke-linejoin="round"/>
    <path d="M 207.843994140625 124.38899993896484 C 202.8459930419922 126.15699768066406 203.66700744628906 135.2729949951172 208.25 137.3730010986328" stroke-width="1.5" fill="none" stroke="rgb(0, 0, 0)" stroke-opacity="1" stroke-linecap="round" stroke-linejoin="round"/>
    <path d="M 223.50599670410156 114.125 C 222.76100158691406 106.38999938964844 220.87100219726562 109.88400268554688 227.65499877929688 106.2229995727539" stroke-width="1.5" fill="none" stroke="rgb(0, 0, 0)" stroke-opacity="1" stroke-linecap="round" stroke-linejoin="round"/>
    <path d="M 213.73699951171875 135.6179962158203 C 218.5399932861328 133.63299560546875 215.84100341796875 137.87600708007812 208.2209930419922 136.25999450683594" stroke-width="1.5" fill="none" stroke="rgb(0, 0, 0)" stroke-opacity="1" stroke-linecap="round" stroke-linejoin="round"/>
    <path d="M 218.55299377441406 130.06399536132812 C 221.4320068359375 138.38600158691406 221.1060028076172 133.7830047607422 211.79800415039062 132.85899353027344" stroke-width="1.5" fill="none" stroke="rgb(0, 0, 0)" stroke-opacity="1" stroke-linecap="round" stroke-linejoin="round"/>
    <path d="M 228.18899536132812 144.3990020751953 C 230.16099548339844 153.5970001220703 230.07400512695312 155.36599731445312 231.0540008544922 146.86700439453125" stroke-width="1.5" fill="none" stroke="rgb(0, 0, 0)" stroke-opacity="1" stroke-linecap="round" stroke-linejoin="round"/>
    <path d="M 220.1280059814453 130.42999267578125 C 213.48399353027344 135.45799255371094 222.36500549316406 140.2169952392578 218.35800170898438 131.0709991455078" stroke-width="1.5" fill="none" stroke="rgb(0, 0, 0)" stroke-opacity="1" stroke-linecap="round" stroke-linejoin="round"/>
    <path d="M 235.6649932861328 148.35400390625 C 232.03199768066406 141.49000549316406 227.52099609375 142.61300659179688 231.3070068359375 146.22500610351562" stroke-width="1.5" fill="none" stroke="rgb(0, 0, 0)" stroke-opacity="1" stroke-linecap="round" stroke-linejoin="round"/>
    <path d="M 212.45599365234375 135.96800231933594 C 219.9219970703125 133.6719970703125 226.51699829101562 134.62399291992188 209.51600646972656 137.70399475097656" stroke-width="1.5" fill="none" stroke="rgb(0, 0, 0)" stroke-opacity="1" stroke-linecap="round" stroke-linejoin="round"/>
    <path d="M 223.8350067138672 124.07599639892578 C 229.55799865722656 119.50499725341797 223.28700256347656 119.3479995727539 232.38099670410156 121.71600341796875" stroke-width="1.5" fill="none" stroke="rgb(0, 0, 0)" stroke-opacity="1" stroke-linecap="round" stroke-linejoin="round"/>
    <path d="M 235.67100524902344 147.97999572753906 C 234.62100219726562 140.4499969482422 232.02099609375 138.97799682617188 232.5 142.53700256347656" stroke-width="1.5" fill="none" stroke="rgb(0, 0, 0)" stroke-opacity="1" stroke-linecap="round" stroke-linejoin="round"/>
  </g>
</svg>
