<?xml version="1.0" ?>
<svg xmlns="http://www.w3.org/2000/svg" version="1.1" width="256" height="256">
  <defs/>
  <g>
    <path d="M 92.3051986694336 131.44900512695312 C 91.1343994140625 128.1540069580078 86.90129852294922 122.70999908447266 81.94869995117188 104.66500091552734" stroke-width="1.0" fill="none" stroke="rgb(0, 0, 0)" stroke-opacity="1" stroke-linecap="round" stroke-linejoin="round"/>
    <path d="M 41.958099365234375 131.7949981689453 C 57.694801330566406 142.77200317382812 56.22850036621094 142.531005859375 40.95180130004883 132.2969970703125" stroke-width="1.0" fill="none" stroke="rgb(0, 0, 0)" stroke-opacity="1" stroke-linecap="round" stroke-linejoin="round"/>
    <path d="M 82.69539642333984 120.5780029296875 C 88.91519927978516 129.4290008544922 112.57099914550781 132.02200317382812 102.5250015258789 136.61399841308594" stroke-width="1.0" fill="none" stroke="rgb(0, 0, 0)" stroke-opacity="1" stroke-linecap="round" stroke-linejoin="round"/>
    <path d="M 63.632301330566406 115.02799987792969 C 57.93190002441406 130.64599609375 63.8120002746582 123.92400360107422 61.66189956665039 133.8260040283203" stroke-width="1.0" fill="none" stroke="rgb(0, 0, 0)" stroke-opacity="1" stroke-linecap="round" stroke-linejoin="round"/>
    <path d="M 70.78610229492188 121.18499755859375 C 67.21939849853516 112.7030029296875 70.27320098876953 106.43099975585938 72.54820251464844 115.88200378417969" stroke-width="1.0" fill="none" stroke="rgb(0, 0, 0)" stroke-opacity="1" stroke-linecap="round" stroke-linejoin="round"/>
    <path d="M 28.70870018005371 126.89800262451172 C 6.196189880371094 133.35299682617188 26.017499923706055 134.44000244140625 40.867698669433594 118.24299621582031" stroke-width="1.0" fill="none" stroke="rgb(0, 0, 0)" stroke-opacity="1" stroke-linecap="round" stroke-linejoin="round"/>
    <path d="M 100.54199981689453 107.38099670410156 C 81.39099884033203 112.41899871826172 86.66280364990234 114.86900329589844 101.86299896240234 128.8780059814453" stroke-width="1.0" fill="none" stroke="rgb(0, 0, 0)" stroke-opacity="1" stroke-linecap="round" stroke-linejoin="round"/>
    <path d="M 34.16999816894531 145.0240020751953 C 45.32640075683594 119.74700164794922 38.345401763916016 141.96200561523438 35.4359016418457 140.2550048828125" stroke-width="1.0" fill="none" stroke="rgb(0, 0, 0)" stroke-opacity="1" stroke-linecap="round" stroke-linejoin="round"/>
    <path d="M 44.67620086669922 143.78799438476562 C 56.86289978027344 134.08099365234375 44.95690155029297 133.35299682617188 39.416099548339844 155.68899536132812" stroke-width="1.0" fill="none" stroke="rgb(0, 0, 0)" stroke-opacity="1" stroke-linecap="round" stroke-linejoin="round"/>
    <path d="M 51.29090118408203 111.9990005493164 C 33.71770095825195 115.2509994506836 42.43109893798828 117.5999984741211 28.62420082092285 125.86100006103516" stroke-width="1.0" fill="none" stroke="rgb(0, 0, 0)" stroke-opacity="1" stroke-linecap="round" stroke-linejoin="round"/>
    <path d="M 68.03849792480469 137.05099487304688 C 77.31079864501953 130.2050018310547 60.78239822387695 134.8300018310547 66.82019805908203 112.05899810791016" stroke-width="1.0" fill="none" stroke="rgb(0, 0, 0)" stroke-opacity="1" stroke-linecap="round" stroke-linejoin="round"/>
    <path d="M 77.0447006225586 133.96400451660156 C 78.7343978881836 139.91299438476562 70.22550201416016 128.19200134277344 75.10250091552734 135.09100341796875" stroke-width="1.0" fill="none" stroke="rgb(0, 0, 0)" stroke-opacity="1" stroke-linecap="round" stroke-linejoin="round"/>
    <path d="M 90.00150299072266 132.14500427246094 C 75.38099670410156 120.46600341796875 103.44400024414062 131.822998046875 89.44779968261719 111.56900024414062" stroke-width="1.0" fill="none" stroke="rgb(0, 0, 0)" stroke-opacity="1" stroke-linecap="round" stroke-linejoin="round"/>
    <path d="M 43.13140106201172 135.62899780273438 C 56.984798431396484 141.42999267578125 53.979000091552734 130.66000366210938 41.734100341796875 142.22799682617188" stroke-width="1.0" fill="none" stroke="rgb(0, 0, 0)" stroke-opacity="1" stroke-linecap="round" stroke-linejoin="round"/>
    <path d="M 102.21099853515625 107.5260009765625 C 96.49539947509766 115.66100311279297 106.38999938964844 102.97799682617188 86.54000091552734 102.53900146484375" stroke-width="1.0" fill="none" stroke="rgb(0, 0, 0)" stroke-opacity="1" stroke-linecap="round" stroke-linejoin="round"/>
    <path d="M 110.2300033569336 112.34100341796875 C 100.15299987792969 105.4260025024414 99.58799743652344 104.7699966430664 88.80580139160156 106.625" stroke-width="1.0" fill="none" stroke="rgb(0, 0, 0)" stroke-opacity="1" stroke-linecap="round" stroke-linejoin="round"/>
    <path d="M 82.94339752197266 110.83100128173828 C 77.8042984008789 100.68800354003906 98.48210144042969 104.84500122070312 94.49250030517578 104.44300079345703" stroke-width="1.0" fill="none" stroke="rgb(0, 0, 0)" stroke-opacity="1" stroke-linecap="round" stroke-linejoin="round"/>
    <path d="M 70.77469635009766 136.9290008544922 C 90.44419860839844 131.56300354003906 77.5115966796875 131.21800231933594 82.62210083007812 117.9260025024414" stroke-width="1.0" fill="none" stroke="rgb(0, 0, 0)" stroke-opacity="1" stroke-linecap="round" stroke-linejoin="round"/>
    <path d="M 84.17510223388672 128.76699829101562 C 113.45099639892578 145.11000061035156 118.99800109863281 127.68399810791016 100.96399688720703 129.2550048828125" stroke-width="1.0" fill="none" stroke="rgb(0, 0, 0)" stroke-opacity="1" stroke-linecap="round" stroke-linejoin="round"/>
    <path d="M 52.28269958496094 139.3719940185547 C 59.61579895019531 138.625 63.27399826049805 132.1750030517578 63.08340072631836 136.39199829101562" stroke-width="1.0" fill="none" stroke="rgb(0, 0, 0)" stroke-opacity="1" stroke-linecap="round" stroke-linejoin="round"/>
    <path d="M 49.45750045776367 137.031005859375 C 45.34859848022461 150.4759979248047 38.482398986816406 139.447998046875 46.847801208496094 142.79100036621094" stroke-width="1.0" fill="none" stroke="rgb(0, 0, 0)" stroke-opacity="1" stroke-linecap="round" stroke-linejoin="round"/>
    <path d="M 65.89189910888672 136.34300231933594 C 69.85980224609375 133.12399291992188 65.49530029296875 125.49700164794922 66.83999633789062 130.36399841308594" stroke-width="1.0" fill="none" stroke="rgb(0, 0, 0)" stroke-opacity="1" stroke-linecap="round" stroke-linejoin="round"/>
    <path d="M 97.5541000366211 128.46299743652344 C 75.19120025634766 114.5469970703125 93.73519897460938 123.02400207519531 82.31649780273438 103.02100372314453" stroke-width="1.0" fill="none" stroke="rgb(0, 0, 0)" stroke-opacity="1" stroke-linecap="round" stroke-linejoin="round"/>
    <path d="M 43.73939895629883 126.93800354003906 C 29.65920066833496 166.5780029296875 24.604000091552734 132.91900634765625 44.72990036010742 136.55499267578125" stroke-width="1.0" fill="none" stroke="rgb(0, 0, 0)" stroke-opacity="1" stroke-linecap="round" stroke-linejoin="round"/>
    <path d="M 104.15499877929688 115.92900085449219 C 88.96499633789062 109.91500091552734 81.481201171875 109.60199737548828 108.24400329589844 105.02300262451172" stroke-width="1.0" fill="none" stroke="rgb(0, 0, 0)" stroke-opacity="1" stroke-linecap="round" stroke-linejoin="round"/>
    <path d="M 60.167701721191406 136.77000427246094 C 46.67639923095703 142.51400756835938 31.009000778198242 136.28799438476562 55.56489944458008 139.5279998779297" stroke-width="1.0" fill="none" stroke="rgb(0, 0, 0)" stroke-opacity="1" stroke-linecap="round" stroke-linejoin="round"/>
    <path d="M 97.06120300292969 114.63600158691406 C 111.2300033569336 101.58499908447266 110.7770004272461 99.71720123291016 99.66809844970703 110.5270004272461" stroke-width="1.0" fill="none" stroke="rgb(0, 0, 0)" stroke-opacity="1" stroke-linecap="round" stroke-linejoin="round"/>
    <path d="M 43.627201080322266 147.96099853515625 C 45.582801818847656 137.82200622558594 52.09000015258789 136.1179962158203 43.96799850463867 145.093994140625" stroke-width="1.0" fill="none" stroke="rgb(0, 0, 0)" stroke-opacity="1" stroke-linecap="round" stroke-linejoin="round"/>
    <path d="M 78.0105972290039 121.26300048828125 C 66.39640045166016 97.98989868164062 71.24349975585938 115.20600128173828 72.7166976928711 136.072998046875" stroke-width="1.0" fill="none" stroke="rgb(0, 0, 0)" stroke-opacity="1" stroke-linecap="round" stroke-linejoin="round"/>
    <path d="M 72.57879638671875 110.2979965209961 C 77.36019897460938 114.88300323486328 80.98359680175781 121.01599884033203 75.21829986572266 109.79399871826172" stroke-width="1.0" fill="none" stroke="rgb(0, 0, 0)" stroke-opacity="1" stroke-linecap="round" stroke-linejoin="round"/>
    <path d="M 47.6880989074707 115.22799682617188 C 61.89759826660156 109.44599914550781 60.619998931884766 115.09500122070312 57.81700134277344 120.34300231933594" stroke-width="1.0" fill="none" stroke="rgb(0, 0, 0)" stroke-opacity="1" stroke-linecap="round" stroke-linejoin="round"/>
    <path d="M 76.55650329589844 135.2449951171875 C 71.72699737548828 123.48500061035156 80.55460357666016 133.59800720214844 68.29109954833984 111.8479995727539" stroke-width="1.0" fill="none" stroke="rgb(0, 0, 0)" stroke-opacity="1" stroke-linecap="round" stroke-linejoin="round"/>
    <path d="M 98.13870239257812 120.1449966430664 C 101.16100311279297 127.26200103759766 93.7520980834961 115.84400177001953 106.91699981689453 117.33399963378906" stroke-width="1.0" fill="none" stroke="rgb(0, 0, 0)" stroke-opacity="1" stroke-linecap="round" stroke-linejoin="round"/>
    <path d="M 80.62439727783203 109.63099670410156 C 86.30819702148438 129.5240020751953 83.61979675292969 139.76699829101562 77.50270080566406 118.96800231933594" stroke-width="1.0" fill="none" stroke="rgb(0, 0, 0)" stroke-opacity="1" stroke-linecap="round" stroke-linejoin="round"/>
    <path d="M 97.68560028076172 108.84600067138672 C 108.66799926757812 102.72100067138672 111.78099822998047 100.27799987792969 84.06199645996094 101.51599884033203" stroke-width="1.0" fill="none" stroke="rgb(0, 0, 0)" stroke-opacity="1" stroke-linecap="round" stroke-linejoin="round"/>
    <path d="M 108.59400177001953 119.39800262451172 C 106.2040023803711 114.1520004272461 92.36160278320312 129.89199829101562 88.86730194091797 102.62300109863281" stroke-width="1.0" fill="none" stroke="rgb(0, 0, 0)" stroke-opacity="1" stroke-linecap="round" stroke-linejoin="round"/>
    <path d="M 46.26409912109375 114.50399780273438 C 34.19889831542969 122.83200073242188 45.32509994506836 113.75800323486328 30.006900787353516 126.68099975585938" stroke-width="1.0" fill="none" stroke="rgb(0, 0, 0)" stroke-opacity="1" stroke-linecap="round" stroke-linejoin="round"/>
    <path d="M 81.03160095214844 132.66799926757812 C 98.93679809570312 128.3159942626953 79.09839630126953 116.91300201416016 94.87020111083984 126.55500030517578" stroke-width="1.0" fill="none" stroke="rgb(0, 0, 0)" stroke-opacity="1" stroke-linecap="round" stroke-linejoin="round"/>
    <path d="M 33.20790100097656 143.6300048828125 C 41.96099853515625 130.78700256347656 25.350900650024414 149.5050048828125 35.736698150634766 142.9510040283203" stroke-width="1.0" fill="none" stroke="rgb(0, 0, 0)" stroke-opacity="1" stroke-linecap="round" stroke-linejoin="round"/>
    <path d="M 57.5458984375 137.77499389648438 C 58.56380081176758 134.16799926757812 57.69850158691406 141.57899475097656 64.05819702148438 131.66200256347656" stroke-width="1.0" fill="none" stroke="rgb(0, 0, 0)" stroke-opacity="1" stroke-linecap="round" stroke-linejoin="round"/>
    <path d="M 78.21549987792969 129.98699951171875 C 79.3292007446289 103.2699966430664 77.31500244140625 106.63700103759766 77.97100067138672 108.61799621582031" stroke-width="1.0" fill="none" stroke="rgb(0, 0, 0)" stroke-opacity="1" stroke-linecap="round" stroke-linejoin="round"/>
    <path d="M 97.82869720458984 102.19400024414062 C 94.86229705810547 128.10800170898438 88.25810241699219 128.40899658203125 99.41919708251953 103.3479995727539" stroke-width="1.0" fill="none" stroke="rgb(0, 0, 0)" stroke-opacity="1" stroke-linecap="round" stroke-linejoin="round"/>
    <path d="M 83.39630126953125 124.8550033569336 C 110.16699981689453 143.7570037841797 110.97599792480469 139.78700256347656 82.2490005493164 126.86000061035156" stroke-width="1.0" fill="none" stroke="rgb(0, 0, 0)" stroke-opacity="1" stroke-linecap="round" stroke-linejoin="round"/>
    <path d="M 97.27739715576172 113.01399993896484 C 78.39749908447266 100.10299682617188 92.02010345458984 104.26300048828125 98.42330169677734 115.53600311279297" stroke-width="1.0" fill="none" stroke="rgb(0, 0, 0)" stroke-opacity="1" stroke-linecap="round" stroke-linejoin="round"/>
    <path d="M 26.831100463867188 128.96200561523438 C 26.695499420166016 126.40299987792969 18.336599349975586 135.7209930419922 11.0 131.1719970703125" stroke-width="1.0" fill="none" stroke="rgb(0, 0, 0)" stroke-opacity="1" stroke-linecap="round" stroke-linejoin="round"/>
    <path d="M 69.10919952392578 136.6790008544922 C 66.94509887695312 137.6649932861328 73.30249786376953 134.31399536132812 65.74939727783203 123.072998046875" stroke-width="1.0" fill="none" stroke="rgb(0, 0, 0)" stroke-opacity="1" stroke-linecap="round" stroke-linejoin="round"/>
    <path d="M 94.82630157470703 117.91400146484375 C 83.94180297851562 107.74700164794922 84.9623031616211 105.08999633789062 97.15470123291016 104.66300201416016" stroke-width="1.0" fill="none" stroke="rgb(0, 0, 0)" stroke-opacity="1" stroke-linecap="round" stroke-linejoin="round"/>
    <path d="M 99.02940368652344 110.14099884033203 C 104.40499877929688 98.18419647216797 80.14769744873047 105.00199890136719 94.2583999633789 107.375" stroke-width="1.0" fill="none" stroke="rgb(0, 0, 0)" stroke-opacity="1" stroke-linecap="round" stroke-linejoin="round"/>
    <path d="M 97.14559936523438 121.59100341796875 C 96.35009765625 109.24199676513672 118.66600036621094 125.81500244140625 106.97100067138672 109.8550033569336" stroke-width="1.0" fill="none" stroke="rgb(0, 0, 0)" stroke-opacity="1" stroke-linecap="round" stroke-linejoin="round"/>
    <path d="M 109.05699920654297 103.677001953125 C 108.9520034790039 117.31400299072266 84.72599792480469 99.39679718017578 91.93150329589844 118.7979965209961" stroke-width="1.0" fill="none" stroke="rgb(0, 0, 0)" stroke-opacity="1" stroke-linecap="round" stroke-linejoin="round"/>
    <path d="M 96.80439758300781 115.16200256347656 C 90.83090209960938 120.93199920654297 96.43180084228516 110.45800018310547 102.98999786376953 116.61900329589844" stroke-width="1.0" fill="none" stroke="rgb(0, 0, 0)" stroke-opacity="1" stroke-linecap="round" stroke-linejoin="round"/>
    <path d="M 92.67220306396484 111.48300170898438 C 91.69290161132812 127.39099884033203 95.6978988647461 131.55499267578125 93.0302963256836 116.13500213623047" stroke-width="1.0" fill="none" stroke="rgb(0, 0, 0)" stroke-opacity="1" stroke-linecap="round" stroke-linejoin="round"/>
    <path d="M 44.074100494384766 154.70599365234375 C 34.314300537109375 164.07699584960938 37.24140167236328 122.87300109863281 44.88410186767578 154.66400146484375" stroke-width="1.0" fill="none" stroke="rgb(0, 0, 0)" stroke-opacity="1" stroke-linecap="round" stroke-linejoin="round"/>
    <path d="M 93.30950164794922 101.61900329589844 C 87.88829803466797 112.0260009765625 105.47799682617188 129.78900146484375 91.99199676513672 101.48500061035156" stroke-width="1.0" fill="none" stroke="rgb(0, 0, 0)" stroke-opacity="1" stroke-linecap="round" stroke-linejoin="round"/>
    <path d="M 73.98739624023438 109.70600128173828 C 61.16569900512695 123.42400360107422 80.82659912109375 98.04570007324219 75.0093002319336 113.9739990234375" stroke-width="1.0" fill="none" stroke="rgb(0, 0, 0)" stroke-opacity="1" stroke-linecap="round" stroke-linejoin="round"/>
    <path d="M 93.00650024414062 119.97200012207031 C 109.40499877929688 108.04299926757812 107.61599731445312 114.90399932861328 94.54759979248047 113.33599853515625" stroke-width="1.0" fill="none" stroke="rgb(0, 0, 0)" stroke-opacity="1" stroke-linecap="round" stroke-linejoin="round"/>
    <path d="M 101.53199768066406 135.531005859375 C 70.65190124511719 122.13700103759766 82.73979949951172 120.61399841308594 96.01020050048828 131.77699279785156" stroke-width="1.0" fill="none" stroke="rgb(0, 0, 0)" stroke-opacity="1" stroke-linecap="round" stroke-linejoin="round"/>
    <path d="M 44.903499603271484 114.03099822998047 C 59.56959915161133 108.87899780273438 58.091800689697266 114.51100158691406 53.844600677490234 115.59400177001953" stroke-width="1.0" fill="none" stroke="rgb(0, 0, 0)" stroke-opacity="1" stroke-linecap="round" stroke-linejoin="round"/>
    <path d="M 61.031898498535156 112.28700256347656 C 65.4220962524414 115.93699645996094 61.845401763916016 120.85199737548828 64.29979705810547 112.28500366210938" stroke-width="1.0" fill="none" stroke="rgb(0, 0, 0)" stroke-opacity="1" stroke-linecap="round" stroke-linejoin="round"/>
    <path d="M 60.587501525878906 113.72899627685547 C 95.49099731445312 103.697998046875 60.63140106201172 121.73300170898438 83.84369659423828 104.73100280761719" stroke-width="1.0" fill="none" stroke="rgb(0, 0, 0)" stroke-opacity="1" stroke-linecap="round" stroke-linejoin="round"/>
    <path d="M 103.3479995727539 112.11199951171875 C 84.58529663085938 111.2959976196289 110.36799621582031 97.00430297851562 107.60099792480469 112.54299926757812" stroke-width="1.0" fill="none" stroke="rgb(0, 0, 0)" stroke-opacity="1" stroke-linecap="round" stroke-linejoin="round"/>
    <path d="M 99.70110321044922 102.81199645996094 C 94.79789733886719 108.50900268554688 89.08920288085938 130.55999755859375 87.68479919433594 103.41200256347656" stroke-width="1.0" fill="none" stroke="rgb(0, 0, 0)" stroke-opacity="1" stroke-linecap="round" stroke-linejoin="round"/>
    <path d="M 22.974700927734375 129.7689971923828 C 44.502899169921875 116.01399993896484 29.057600021362305 131.98199462890625 12.069000244140625 130.6009979248047" stroke-width="1.0" fill="none" stroke="rgb(0, 0, 0)" stroke-opacity="1" stroke-linecap="round" stroke-linejoin="round"/>
    <path d="M 83.73500061035156 103.23200225830078 C 104.76300048828125 103.52200317382812 103.75 100.18399810791016 104.0 114.2300033569336" stroke-width="1.0" fill="none" stroke="rgb(0, 0, 0)" stroke-opacity="1" stroke-linecap="round" stroke-linejoin="round"/>
    <path d="M 91.28600311279297 113.52899932861328 C 91.14700317382812 103.3949966430664 102.18299865722656 105.00499725341797 97.73179626464844 114.0739974975586" stroke-width="1.0" fill="none" stroke="rgb(0, 0, 0)" stroke-opacity="1" stroke-linecap="round" stroke-linejoin="round"/>
    <path d="M 79.21800231933594 134.0760040283203 C 79.33480072021484 129.32400512695312 77.5386962890625 125.66400146484375 80.35209655761719 133.05599975585938" stroke-width="1.0" fill="none" stroke="rgb(0, 0, 0)" stroke-opacity="1" stroke-linecap="round" stroke-linejoin="round"/>
    <path d="M 109.052001953125 133.13099670410156 C 103.39600372314453 137.5709991455078 115.46900177001953 133.15499877929688 104.31999969482422 130.52499389648438" stroke-width="1.0" fill="none" stroke="rgb(0, 0, 0)" stroke-opacity="1" stroke-linecap="round" stroke-linejoin="round"/>
    <path d="M 107.16000366210938 103.96499633789062 C 101.91000366210938 104.15799713134766 81.26480102539062 94.45770263671875 99.43299865722656 108.47200012207031" stroke-width="1.0" fill="none" stroke="rgb(0, 0, 0)" stroke-opacity="1" stroke-linecap="round" stroke-linejoin="round"/>
    <path d="M 71.45480346679688 136.45199584960938 C 73.45780181884766 132.66900634765625 78.802001953125 133.5679931640625 71.18910217285156 136.197998046875" stroke-width="1.0" fill="none" stroke="rgb(0, 0, 0)" stroke-opacity="1" stroke-linecap="round" stroke-linejoin="round"/>
    <path d="M 90.49590301513672 113.79399871826172 C 109.2770004272461 104.8010025024414 84.45359802246094 94.64800262451172 85.51260375976562 109.68000030517578" stroke-width="1.0" fill="none" stroke="rgb(0, 0, 0)" stroke-opacity="1" stroke-linecap="round" stroke-linejoin="round"/>
    <path d="M 51.934200286865234 136.25100708007812 C 42.519100189208984 151.88800048828125 48.579898834228516 135.66299438476562 41.81380081176758 155.97000122070312" stroke-width="1.0" fill="none" stroke="rgb(0, 0, 0)" stroke-opacity="1" stroke-linecap="round" stroke-linejoin="round"/>
    <path d="M 83.1852035522461 102.1240005493164 C 73.9822998046875 110.68800354003906 83.39669799804688 109.43699645996094 78.40519714355469 106.13700103759766" stroke-width="1.0" fill="none" stroke="rgb(0, 0, 0)" stroke-opacity="1" stroke-linecap="round" stroke-linejoin="round"/>
    <path d="M 38.37519836425781 153.87899780273438 C 40.298099517822266 134.33700561523438 51.31880187988281 125.56800079345703 41.47959899902344 153.16900634765625" stroke-width="1.0" fill="none" stroke="rgb(0, 0, 0)" stroke-opacity="1" stroke-linecap="round" stroke-linejoin="round"/>
    <path d="M 48.375999450683594 137.0679931640625 C 36.349098205566406 123.73500061035156 46.63930130004883 119.31600189208984 46.499000549316406 115.86900329589844" stroke-width="1.0" fill="none" stroke="rgb(0, 0, 0)" stroke-opacity="1" stroke-linecap="round" stroke-linejoin="round"/>
    <path d="M 42.35110092163086 132.75599670410156 C 38.98550033569336 144.91799926757812 28.945600509643555 145.1529998779297 43.19380187988281 136.03199768066406" stroke-width="1.0" fill="none" stroke="rgb(0, 0, 0)" stroke-opacity="1" stroke-linecap="round" stroke-linejoin="round"/>
    <path d="M 95.88420104980469 100.70800018310547 C 115.77300262451172 106.33799743652344 105.22100067138672 101.58599853515625 110.79399871826172 115.11299896240234" stroke-width="1.0" fill="none" stroke="rgb(0, 0, 0)" stroke-opacity="1" stroke-linecap="round" stroke-linejoin="round"/>
    <path d="M 101.22200012207031 105.28299713134766 C 97.15650177001953 104.7979965209961 113.71600341796875 118.78600311279297 103.11199951171875 115.94200134277344" stroke-width="1.0" fill="none" stroke="rgb(0, 0, 0)" stroke-opacity="1" stroke-linecap="round" stroke-linejoin="round"/>
    <path d="M 84.64640045166016 104.01399993896484 C 93.5988998413086 94.29219818115234 112.83300018310547 102.92500305175781 99.90160369873047 122.40299987792969" stroke-width="1.0" fill="none" stroke="rgb(0, 0, 0)" stroke-opacity="1" stroke-linecap="round" stroke-linejoin="round"/>
    <path d="M 65.81449890136719 113.07099914550781 C 67.45030212402344 111.10800170898438 65.30380249023438 113.36799621582031 66.11599731445312 115.32099914550781" stroke-width="1.0" fill="none" stroke="rgb(0, 0, 0)" stroke-opacity="1" stroke-linecap="round" stroke-linejoin="round"/>
    <path d="M 83.34629821777344 107.63800048828125 C 91.59400177001953 94.00450134277344 72.70050048828125 110.28600311279297 83.1552963256836 102.927001953125" stroke-width="1.0" fill="none" stroke="rgb(0, 0, 0)" stroke-opacity="1" stroke-linecap="round" stroke-linejoin="round"/>
    <path d="M 66.22650146484375 117.41600036621094 C 61.205101013183594 110.53600311279297 74.13179779052734 110.2030029296875 87.62229919433594 102.89900207519531" stroke-width="1.0" fill="none" stroke="rgb(0, 0, 0)" stroke-opacity="1" stroke-linecap="round" stroke-linejoin="round"/>
    <path d="M 54.0703010559082 112.70600128173828 C 79.68599700927734 111.3219985961914 55.11439895629883 109.8479995727539 52.57550048828125 117.76300048828125" stroke-width="1.0" fill="none" stroke="rgb(0, 0, 0)" stroke-opacity="1" stroke-linecap="round" stroke-linejoin="round"/>
    <path d="M 104.24500274658203 103.46600341796875 C 92.80139923095703 101.45700073242188 80.54750061035156 98.11830139160156 79.87059783935547 109.51000213623047" stroke-width="1.0" fill="none" stroke="rgb(0, 0, 0)" stroke-opacity="1" stroke-linecap="round" stroke-linejoin="round"/>
    <path d="M 46.71730041503906 134.78500366210938 C 44.107601165771484 135.7519989013672 26.85580062866211 132.4219970703125 56.42290115356445 138.16000366210938" stroke-width="1.0" fill="none" stroke="rgb(0, 0, 0)" stroke-opacity="1" stroke-linecap="round" stroke-linejoin="round"/>
    <path d="M 155.03199768066406 150.7989959716797 C 157.9429931640625 155.35699462890625 156.58399963378906 146.67599487304688 161.2050018310547 155.80499267578125" stroke-width="1.0" fill="none" stroke="rgb(0, 0, 0)" stroke-opacity="1" stroke-linecap="round" stroke-linejoin="round"/>
    <path d="M 161.20599365234375 156.93699645996094 C 151.3719940185547 150.6219940185547 152.09100341796875 161.05999755859375 157.3419952392578 154.33299255371094" stroke-width="1.0" fill="none" stroke="rgb(0, 0, 0)" stroke-opacity="1" stroke-linecap="round" stroke-linejoin="round"/>
    <path d="M 149.7310028076172 152.86300659179688 C 132.91600036621094 147.43899536132812 149.86599731445312 148.3090057373047 140.31300354003906 150.5540008544922" stroke-width="1.0" fill="none" stroke="rgb(0, 0, 0)" stroke-opacity="1" stroke-linecap="round" stroke-linejoin="round"/>
    <path d="M 163.6739959716797 143.86099243164062 C 172.53900146484375 158.3280029296875 163.40899658203125 160.12600708007812 163.18699645996094 144.14999389648438" stroke-width="1.0" fill="none" stroke="rgb(0, 0, 0)" stroke-opacity="1" stroke-linecap="round" stroke-linejoin="round"/>
    <path d="M 162.70599365234375 151.20599365234375 C 158.77000427246094 144.75 164.98199462890625 136.4199981689453 164.78700256347656 148.875" stroke-width="1.0" fill="none" stroke="rgb(0, 0, 0)" stroke-opacity="1" stroke-linecap="round" stroke-linejoin="round"/>
    <path d="M 157.85000610351562 144.31399536132812 C 168.37899780273438 149.76199340820312 161.3979949951172 151.73300170898438 161.98399353027344 148.35899353027344" stroke-width="1.0" fill="none" stroke="rgb(0, 0, 0)" stroke-opacity="1" stroke-linecap="round" stroke-linejoin="round"/>
    <path d="M 165.01100158691406 146.61599731445312 C 166.39999389648438 156.60899353027344 170.10800170898438 154.072998046875 164.75999450683594 146.12399291992188" stroke-width="1.0" fill="none" stroke="rgb(0, 0, 0)" stroke-opacity="1" stroke-linecap="round" stroke-linejoin="round"/>
    <path d="M 151.58099365234375 154.0590057373047 C 167.42599487304688 146.70399475097656 159.12100219726562 163.91600036621094 158.94500732421875 155.83700561523438" stroke-width="1.0" fill="none" stroke="rgb(0, 0, 0)" stroke-opacity="1" stroke-linecap="round" stroke-linejoin="round"/>
    <path d="M 140.23300170898438 148.41099548339844 C 121.36499786376953 170.75399780273438 130.22900390625 164.16099548339844 130.7429962158203 165.00999450683594" stroke-width="1.0" fill="none" stroke="rgb(0, 0, 0)" stroke-opacity="1" stroke-linecap="round" stroke-linejoin="round"/>
    <path d="M 133.72500610351562 158.1820068359375 C 148.59800720214844 148.0570068359375 151.83999633789062 149.5050048828125 138.2030029296875 158.6179962158203" stroke-width="1.0" fill="none" stroke="rgb(0, 0, 0)" stroke-opacity="1" stroke-linecap="round" stroke-linejoin="round"/>
    <path d="M 154.52999877929688 156.04800415039062 C 144.70700073242188 151.44400024414062 149.43800354003906 147.86300659179688 134.19200134277344 159.697998046875" stroke-width="1.0" fill="none" stroke="rgb(0, 0, 0)" stroke-opacity="1" stroke-linecap="round" stroke-linejoin="round"/>
    <path d="M 159.43800354003906 153.58700561523438 C 148.66600036621094 154.37600708007812 134.39999389648438 149.95399475097656 154.78199768066406 154.822998046875" stroke-width="1.0" fill="none" stroke="rgb(0, 0, 0)" stroke-opacity="1" stroke-linecap="round" stroke-linejoin="round"/>
    <path d="M 136.0260009765625 158.14300537109375 C 145.2259979248047 157.63400268554688 141.79100036621094 142.7209930419922 143.843994140625 154.0070037841797" stroke-width="1.0" fill="none" stroke="rgb(0, 0, 0)" stroke-opacity="1" stroke-linecap="round" stroke-linejoin="round"/>
    <path d="M 136.07200622558594 162.14199829101562 C 143.49600219726562 163.86599731445312 137.7740020751953 162.8820037841797 138.2519989013672 155.86000061035156" stroke-width="1.0" fill="none" stroke="rgb(0, 0, 0)" stroke-opacity="1" stroke-linecap="round" stroke-linejoin="round"/>
    <path d="M 123.78299713134766 144.21200561523438 C 129.6580047607422 140.93699645996094 134.06500244140625 139.28799438476562 123.37899780273438 143.7310028076172" stroke-width="1.0" fill="none" stroke="rgb(0, 0, 0)" stroke-opacity="1" stroke-linecap="round" stroke-linejoin="round"/>
    <path d="M 129.50100708007812 141.46400451660156 C 121.63500213623047 147.14599609375 128.0399932861328 130.6999969482422 138.87600708007812 140.0279998779297" stroke-width="1.0" fill="none" stroke="rgb(0, 0, 0)" stroke-opacity="1" stroke-linecap="round" stroke-linejoin="round"/>
    <path d="M 146.98599243164062 154.4949951171875 C 139.6060028076172 152.5240020751953 137.12600708007812 157.51199340820312 148.47799682617188 151.66600036621094" stroke-width="1.0" fill="none" stroke="rgb(0, 0, 0)" stroke-opacity="1" stroke-linecap="round" stroke-linejoin="round"/>
    <path d="M 150.0070037841797 155.0030059814453 C 164.8699951171875 147.0760040283203 171.94900512695312 158.177001953125 156.23300170898438 150.4199981689453" stroke-width="1.0" fill="none" stroke="rgb(0, 0, 0)" stroke-opacity="1" stroke-linecap="round" stroke-linejoin="round"/>
    <path d="M 142.46800231933594 147.56300354003906 C 136.75 151.11000061035156 151.95899963378906 143.64100646972656 134.093994140625 156.218994140625" stroke-width="1.0" fill="none" stroke="rgb(0, 0, 0)" stroke-opacity="1" stroke-linecap="round" stroke-linejoin="round"/>
    <path d="M 161.4929962158203 154.94400024414062 C 150.9720001220703 157.843994140625 130.91600036621094 149.75599670410156 161.9739990234375 154.14199829101562" stroke-width="1.0" fill="none" stroke="rgb(0, 0, 0)" stroke-opacity="1" stroke-linecap="round" stroke-linejoin="round"/>
    <path d="M 158.51499938964844 155.85400390625 C 137.09100341796875 149.64199829101562 136.33799743652344 164.68800354003906 144.20799255371094 154.24099731445312" stroke-width="1.0" fill="none" stroke="rgb(0, 0, 0)" stroke-opacity="1" stroke-linecap="round" stroke-linejoin="round"/>
    <path d="M 154.14500427246094 152.5070037841797 C 134.9290008544922 157.1820068359375 136.5570068359375 147.01800537109375 164.20599365234375 154.25399780273438" stroke-width="1.0" fill="none" stroke="rgb(0, 0, 0)" stroke-opacity="1" stroke-linecap="round" stroke-linejoin="round"/>
    <path d="M 142.30999755859375 145.3769989013672 C 160.65499877929688 146.94200134277344 147.42100524902344 141.4810028076172 139.94200134277344 148.75399780273438" stroke-width="1.0" fill="none" stroke="rgb(0, 0, 0)" stroke-opacity="1" stroke-linecap="round" stroke-linejoin="round"/>
    <path d="M 157.6959991455078 150.36599731445312 C 148.05499267578125 155.85400390625 138.20199584960938 152.75900268554688 139.4929962158203 150.3990020751953" stroke-width="1.0" fill="none" stroke="rgb(0, 0, 0)" stroke-opacity="1" stroke-linecap="round" stroke-linejoin="round"/>
    <path d="M 130.13999938964844 138.17100524902344 C 122.05999755859375 140.02200317382812 121.48200225830078 150.1269989013672 129.91400146484375 141.39999389648438" stroke-width="1.0" fill="none" stroke="rgb(0, 0, 0)" stroke-opacity="1" stroke-linecap="round" stroke-linejoin="round"/>
    <path d="M 136.6999969482422 148.81399536132812 C 134.0709991455078 162.6020050048828 138.13400268554688 142.38099670410156 137.61700439453125 163.19500732421875" stroke-width="1.0" fill="none" stroke="rgb(0, 0, 0)" stroke-opacity="1" stroke-linecap="round" stroke-linejoin="round"/>
    <path d="M 167.4250030517578 147.1320037841797 C 161.51199340820312 146.78199768066406 164.80799865722656 150.82000732421875 166.83700561523438 146.5679931640625" stroke-width="1.0" fill="none" stroke="rgb(0, 0, 0)" stroke-opacity="1" stroke-linecap="round" stroke-linejoin="round"/>
    <path d="M 164.95700073242188 145.4720001220703 C 156.4250030517578 153.16200256347656 168.03799438476562 148.64500427246094 163.01800537109375 148.83399963378906" stroke-width="1.0" fill="none" stroke="rgb(0, 0, 0)" stroke-opacity="1" stroke-linecap="round" stroke-linejoin="round"/>
    <path d="M 166.58900451660156 150.78900146484375 C 169.0709991455078 140.83399963378906 171.60699462890625 143.07000732421875 160.83099365234375 147.53900146484375" stroke-width="1.0" fill="none" stroke="rgb(0, 0, 0)" stroke-opacity="1" stroke-linecap="round" stroke-linejoin="round"/>
    <path d="M 162.6179962158203 150.28199768066406 C 166.85699462890625 150.3820037841797 167.40499877929688 147.5279998779297 163.2010040283203 143.57200622558594" stroke-width="1.0" fill="none" stroke="rgb(0, 0, 0)" stroke-opacity="1" stroke-linecap="round" stroke-linejoin="round"/>
    <path d="M 160.8260040283203 157.65199279785156 C 147.906005859375 151.57200622558594 165.1219940185547 147.04299926757812 157.3249969482422 158.65899658203125" stroke-width="1.0" fill="none" stroke="rgb(0, 0, 0)" stroke-opacity="1" stroke-linecap="round" stroke-linejoin="round"/>
    <path d="M 131.78599548339844 142.15899658203125 C 140.6439971923828 149.57400512695312 135.3939971923828 140.302001953125 124.87200164794922 142.27699279785156" stroke-width="1.0" fill="none" stroke="rgb(0, 0, 0)" stroke-opacity="1" stroke-linecap="round" stroke-linejoin="round"/>
    <path d="M 136.92100524902344 145.41000366210938 C 133.75799560546875 153.02000427246094 145.04400634765625 154.25900268554688 136.4409942626953 156.78399658203125" stroke-width="1.0" fill="none" stroke="rgb(0, 0, 0)" stroke-opacity="1" stroke-linecap="round" stroke-linejoin="round"/>
    <path d="M 156.13900756835938 158.7790069580078 C 147.77200317382812 149.88600158691406 154.9409942626953 152.03599548339844 156.343994140625 149.27999877929688" stroke-width="1.0" fill="none" stroke="rgb(0, 0, 0)" stroke-opacity="1" stroke-linecap="round" stroke-linejoin="round"/>
    <path d="M 132.5919952392578 158.4720001220703 C 146.71600341796875 144.5989990234375 145.94900512695312 144.2550048828125 130.1820068359375 164.37100219726562" stroke-width="1.0" fill="none" stroke="rgb(0, 0, 0)" stroke-opacity="1" stroke-linecap="round" stroke-linejoin="round"/>
    <path d="M 150.0919952392578 151.302001953125 C 154.8459930419922 158.6179962158203 146.2729949951172 149.72300720214844 148.20700073242188 152.7449951171875" stroke-width="1.0" fill="none" stroke="rgb(0, 0, 0)" stroke-opacity="1" stroke-linecap="round" stroke-linejoin="round"/>
    <path d="M 165.6649932861328 146.71299743652344 C 163.99000549316406 154.156005859375 172.63499450683594 153.4340057373047 159.73199462890625 144.69200134277344" stroke-width="1.0" fill="none" stroke="rgb(0, 0, 0)" stroke-opacity="1" stroke-linecap="round" stroke-linejoin="round"/>
    <path d="M 162.99000549316406 147.85000610351562 C 166.26699829101562 142.4720001220703 163.61099243164062 151.29600524902344 162.01400756835938 149.26600646972656" stroke-width="1.0" fill="none" stroke="rgb(0, 0, 0)" stroke-opacity="1" stroke-linecap="round" stroke-linejoin="round"/>
    <path d="M 148.8769989013672 153.5800018310547 C 166.70399475097656 161.82899475097656 145.6199951171875 159.56100463867188 159.50599670410156 151.8209991455078" stroke-width="1.0" fill="none" stroke="rgb(0, 0, 0)" stroke-opacity="1" stroke-linecap="round" stroke-linejoin="round"/>
    <path d="M 136.74899291992188 138.7480010986328 C 140.46600341796875 139.84800720214844 140.21400451660156 142.90899658203125 141.5050048828125 144.26400756835938" stroke-width="1.0" fill="none" stroke="rgb(0, 0, 0)" stroke-opacity="1" stroke-linecap="round" stroke-linejoin="round"/>
    <path d="M 135.74600219726562 157.01100158691406 C 137.6820068359375 151.09100341796875 143.21400451660156 154.18600463867188 149.3350067138672 152.19200134277344" stroke-width="1.0" fill="none" stroke="rgb(0, 0, 0)" stroke-opacity="1" stroke-linecap="round" stroke-linejoin="round"/>
    <path d="M 160.41799926757812 145.25799560546875 C 166.65899658203125 154.7220001220703 171.58700561523438 152.302001953125 166.41600036621094 154.68699645996094" stroke-width="1.0" fill="none" stroke="rgb(0, 0, 0)" stroke-opacity="1" stroke-linecap="round" stroke-linejoin="round"/>
    <path d="M 139.36099243164062 150.677001953125 C 131.92999267578125 155.8560028076172 148.64599609375 151.08299255371094 137.85899353027344 156.3679962158203" stroke-width="1.0" fill="none" stroke="rgb(0, 0, 0)" stroke-opacity="1" stroke-linecap="round" stroke-linejoin="round"/>
    <path d="M 143.00799560546875 148.29600524902344 C 143.74200439453125 140.69900512695312 136.3209991455078 143.93800354003906 149.48500061035156 145.1439971923828" stroke-width="1.0" fill="none" stroke="rgb(0, 0, 0)" stroke-opacity="1" stroke-linecap="round" stroke-linejoin="round"/>
    <path d="M 166.18600463867188 146.0800018310547 C 168.2899932861328 154.92999267578125 161.82899475097656 154.4949951171875 158.84100341796875 147.91900634765625" stroke-width="1.0" fill="none" stroke="rgb(0, 0, 0)" stroke-opacity="1" stroke-linecap="round" stroke-linejoin="round"/>
    <path d="M 163.1269989013672 150.92100524902344 C 164.38400268554688 143.0500030517578 162.9459991455078 150.38400268554688 168.0019989013672 146.10400390625" stroke-width="1.0" fill="none" stroke="rgb(0, 0, 0)" stroke-opacity="1" stroke-linecap="round" stroke-linejoin="round"/>
    <path d="M 164.86000061035156 146.48199462890625 C 160.1510009765625 149.64500427246094 170.7969970703125 150.25599670410156 166.302001953125 150.34100341796875" stroke-width="1.0" fill="none" stroke="rgb(0, 0, 0)" stroke-opacity="1" stroke-linecap="round" stroke-linejoin="round"/>
    <path d="M 167.06100463867188 146.593994140625 C 165.625 154.76800537109375 158.2779998779297 149.97900390625 165.67300415039062 146.47900390625" stroke-width="1.0" fill="none" stroke="rgb(0, 0, 0)" stroke-opacity="1" stroke-linecap="round" stroke-linejoin="round"/>
    <path d="M 151.03799438476562 144.00100708007812 C 154.59100341796875 141.95899963378906 171.23500061035156 146.33200073242188 153.00999450683594 144.8979949951172" stroke-width="1.0" fill="none" stroke="rgb(0, 0, 0)" stroke-opacity="1" stroke-linecap="round" stroke-linejoin="round"/>
    <path d="M 141.23699951171875 149.43899536132812 C 141.37399291992188 146.27099609375 143.29800415039062 145.3280029296875 156.46800231933594 145.01499938964844" stroke-width="1.0" fill="none" stroke="rgb(0, 0, 0)" stroke-opacity="1" stroke-linecap="round" stroke-linejoin="round"/>
    <path d="M 139.48599243164062 149.62100219726562 C 148.26800537109375 146.33299255371094 137.91099548339844 145.79600524902344 144.03700256347656 145.19500732421875" stroke-width="1.0" fill="none" stroke="rgb(0, 0, 0)" stroke-opacity="1" stroke-linecap="round" stroke-linejoin="round"/>
    <path d="M 159.34800720214844 155.33399963378906 C 130.7830047607422 147.14199829101562 129.04600524902344 148.85000610351562 161.03399658203125 156.08999633789062" stroke-width="1.0" fill="none" stroke="rgb(0, 0, 0)" stroke-opacity="1" stroke-linecap="round" stroke-linejoin="round"/>
    <path d="M 166.52200317382812 148.50999450683594 C 159.55999755859375 154.60699462890625 162.88600158691406 146.6280059814453 158.32000732421875 145.63299560546875" stroke-width="1.0" fill="none" stroke="rgb(0, 0, 0)" stroke-opacity="1" stroke-linecap="round" stroke-linejoin="round"/>
    <path d="M 166.61399841308594 149.4219970703125 C 163.29800415039062 150.8179931640625 162.29200744628906 147.1699981689453 165.22000122070312 147.88299560546875" stroke-width="1.0" fill="none" stroke="rgb(0, 0, 0)" stroke-opacity="1" stroke-linecap="round" stroke-linejoin="round"/>
    <path d="M 147.8489990234375 144.49400329589844 C 148.7519989013672 145.37899780273438 147.88600158691406 144.38299560546875 152.83700561523438 143.8300018310547" stroke-width="1.0" fill="none" stroke="rgb(0, 0, 0)" stroke-opacity="1" stroke-linecap="round" stroke-linejoin="round"/>
    <path d="M 158.08900451660156 144.22999572753906 C 164.32699584960938 146.83900451660156 162.2790069580078 136.6320037841797 164.697998046875 147.843994140625" stroke-width="1.0" fill="none" stroke="rgb(0, 0, 0)" stroke-opacity="1" stroke-linecap="round" stroke-linejoin="round"/>
    <path d="M 140.71200561523438 146.94400024414062 C 142.00799560546875 148.23599243164062 138.31900024414062 150.41200256347656 143.8350067138672 147.78599548339844" stroke-width="1.0" fill="none" stroke="rgb(0, 0, 0)" stroke-opacity="1" stroke-linecap="round" stroke-linejoin="round"/>
    <path d="M 137.33599853515625 159.3939971923828 C 139.13800048828125 144.04800415039062 148.83200073242188 143.697998046875 136.91400146484375 158.4040069580078" stroke-width="1.0" fill="none" stroke="rgb(0, 0, 0)" stroke-opacity="1" stroke-linecap="round" stroke-linejoin="round"/>
    <path d="M 142.84300231933594 145.77200317382812 C 147.37600708007812 144.4969940185547 151.22799682617188 144.94900512695312 142.0260009765625 144.94400024414062" stroke-width="1.0" fill="none" stroke="rgb(0, 0, 0)" stroke-opacity="1" stroke-linecap="round" stroke-linejoin="round"/>
  </g>
</svg>
