<?xml version="1.0" ?>
<svg xmlns="http://www.w3.org/2000/svg" version="1.1" width="256" height="256">
  <defs/>
  <g>
    <path d="M 185.12899780273438 156.24200439453125 C 188.0659942626953 165.56399536132812 185.52200317382812 175.093994140625 186.52699279785156 151.58900451660156" stroke-width="2.0" fill="none" stroke="rgb(0, 0, 255)" stroke-opacity="1" stroke-linecap="round" stroke-linejoin="round"/>
    <path d="M 203.3489990234375 181.10800170898438 C 206.5290069580078 169.2429962158203 186.52000427246094 164.55499267578125 203.38999938964844 173.25399780273438" stroke-width="2.0" fill="none" stroke="rgb(0, 0, 255)" stroke-opacity="1" stroke-linecap="round" stroke-linejoin="round"/>
    <path d="M 185.53500366210938 162.3979949951172 C 181.47300720214844 169.3489990234375 184.25900268554688 166.24200439453125 186.8769989013672 164.1649932861328" stroke-width="2.0" fill="none" stroke="rgb(0, 0, 255)" stroke-opacity="1" stroke-linecap="round" stroke-linejoin="round"/>
    <path d="M 190.40899658203125 151.18299865722656 C 184.3159942626953 157.9040069580078 185.94500732421875 156.2100067138672 183.11399841308594 163.32000732421875" stroke-width="2.0" fill="none" stroke="rgb(0, 0, 255)" stroke-opacity="1" stroke-linecap="round" stroke-linejoin="round"/>
    <path d="M 198.72900390625 135.67599487304688 C 199.61000061035156 135.3070068359375 196.01600646972656 125.7490005493164 200.99200439453125 143.1009979248047" stroke-width="2.0" fill="none" stroke="rgb(0, 0, 255)" stroke-opacity="1" stroke-linecap="round" stroke-linejoin="round"/>
    <path d="M 183.9340057373047 167.37899780273438 C 187.73699951171875 180.73899841308594 182.92999267578125 161.88299560546875 185.58099365234375 164.96800231933594" stroke-width="2.0" fill="none" stroke="rgb(0, 0, 255)" stroke-opacity="1" stroke-linecap="round" stroke-linejoin="round"/>
    <path d="M 185.43899536132812 160.25399780273438 C 183.86399841308594 147.85299682617188 195.26199340820312 143.0959930419922 182.88999938964844 159.08700561523438" stroke-width="2.0" fill="none" stroke="rgb(0, 0, 255)" stroke-opacity="1" stroke-linecap="round" stroke-linejoin="round"/>
    <path d="M 243.35699462890625 188.09100341796875 C 229.91900634765625 197.0050048828125 223.8939971923828 196.05799865722656 242.2239990234375 183.71499633789062" stroke-width="2.0" fill="none" stroke="rgb(0, 0, 255)" stroke-opacity="1" stroke-linecap="round" stroke-linejoin="round"/>
    <path d="M 221.5590057373047 192.6649932861328 C 239.92100524902344 199.13999938964844 236.96299743652344 185.03900146484375 245.4770050048828 184.85000610351562" stroke-width="2.0" fill="none" stroke="rgb(0, 0, 255)" stroke-opacity="1" stroke-linecap="round" stroke-linejoin="round"/>
    <path d="M 193.66400146484375 144.5959930419922 C 192.52499389648438 146.62100219726562 180.8090057373047 150.24099731445312 191.6280059814453 147.27000427246094" stroke-width="2.0" fill="none" stroke="rgb(0, 0, 255)" stroke-opacity="1" stroke-linecap="round" stroke-linejoin="round"/>
    <path d="M 216.51300048828125 177.05499267578125 C 217.00599670410156 178.96099853515625 220.0070037841797 186.94900512695312 216.85899353027344 179.76600646972656" stroke-width="2.0" fill="none" stroke="rgb(0, 0, 255)" stroke-opacity="1" stroke-linecap="round" stroke-linejoin="round"/>
    <path d="M 186.35899353027344 166.81900024414062 C 181.41000366210938 166.3719940185547 186.00799560546875 165.66799926757812 171.8419952392578 142.3280029296875" stroke-width="2.0" fill="none" stroke="rgb(0, 0, 255)" stroke-opacity="1" stroke-linecap="round" stroke-linejoin="round"/>
    <path d="M 180.7740020751953 156.86099243164062 C 187.36700439453125 177.8280029296875 185.6999969482422 169.44200134277344 185.8509979248047 168.8719940185547" stroke-width="2.0" fill="none" stroke="rgb(0, 0, 255)" stroke-opacity="1" stroke-linecap="round" stroke-linejoin="round"/>
    <path d="M 208.97999572753906 182.98899841308594 C 201.97799682617188 195.0989990234375 213.2790069580078 186.1750030517578 201.33599853515625 204.07000732421875" stroke-width="2.0" fill="none" stroke="rgb(0, 0, 255)" stroke-opacity="1" stroke-linecap="round" stroke-linejoin="round"/>
    <path d="M 195.19500732421875 121.20899963378906 C 189.0050048828125 115.35900115966797 190.2469940185547 133.73599243164062 198.35299682617188 117.23400115966797" stroke-width="2.0" fill="none" stroke="rgb(0, 0, 255)" stroke-opacity="1" stroke-linecap="round" stroke-linejoin="round"/>
    <path d="M 161.8719940185547 135.21600341796875 C 149.7220001220703 132.9429931640625 155.28799438476562 133.10800170898438 169.23399353027344 137.4600067138672" stroke-width="2.0" fill="none" stroke="rgb(0, 0, 255)" stroke-opacity="1" stroke-linecap="round" stroke-linejoin="round"/>
    <path d="M 191.38400268554688 121.21700286865234 C 208.49000549316406 126.88600158691406 190.4810028076172 125.17900085449219 193.68099975585938 129.18099975585938" stroke-width="2.0" fill="none" stroke="rgb(0, 0, 255)" stroke-opacity="1" stroke-linecap="round" stroke-linejoin="round"/>
    <path d="M 246.46600341796875 185.656005859375 C 222.6999969482422 192.47900390625 225.3470001220703 191.71299743652344 245.92300415039062 183.322998046875" stroke-width="2.0" fill="none" stroke="rgb(0, 0, 255)" stroke-opacity="1" stroke-linecap="round" stroke-linejoin="round"/>
    <path d="M 208.3350067138672 176.92599487304688 C 202.552001953125 183.89100646972656 207.23699951171875 179.7790069580078 204.61500549316406 185.75100708007812" stroke-width="2.0" fill="none" stroke="rgb(0, 0, 255)" stroke-opacity="1" stroke-linecap="round" stroke-linejoin="round"/>
    <path d="M 245.5709991455078 183.1300048828125 C 242.28799438476562 182.7209930419922 240.12100219726562 179.74000549316406 236.3679962158203 188.93899536132812" stroke-width="2.0" fill="none" stroke="rgb(0, 0, 255)" stroke-opacity="1" stroke-linecap="round" stroke-linejoin="round"/>
    <path d="M 246.3419952392578 185.72300720214844 C 237.8509979248047 194.7740020751953 239.0 192.4409942626953 223.26199340820312 195.4340057373047" stroke-width="2.0" fill="none" stroke="rgb(0, 0, 255)" stroke-opacity="1" stroke-linecap="round" stroke-linejoin="round"/>
    <path d="M 222.26199340820312 191.73500061035156 C 213.3000030517578 176.69500732421875 221.9340057373047 185.10400390625 213.60499572753906 172.19400024414062" stroke-width="2.0" fill="none" stroke="rgb(0, 0, 255)" stroke-opacity="1" stroke-linecap="round" stroke-linejoin="round"/>
    <path d="M 211.16600036621094 161.4669952392578 C 206.6909942626953 143.48599243164062 197.7689971923828 146.25999450683594 198.71800231933594 134.24899291992188" stroke-width="2.0" fill="none" stroke="rgb(0, 0, 255)" stroke-opacity="1" stroke-linecap="round" stroke-linejoin="round"/>
    <path d="M 199.12399291992188 196.99400329589844 C 186.04800415039062 183.02200317382812 189.38900756835938 183.16799926757812 184.4949951171875 166.78199768066406" stroke-width="2.0" fill="none" stroke="rgb(0, 0, 255)" stroke-opacity="1" stroke-linecap="round" stroke-linejoin="round"/>
    <path d="M 163.67100524902344 136.01400756835938 C 150.84300231933594 137.20599365234375 147.0399932861328 126.63999938964844 162.4040069580078 135.5399932861328" stroke-width="2.0" fill="none" stroke="rgb(0, 0, 255)" stroke-opacity="1" stroke-linecap="round" stroke-linejoin="round"/>
    <path d="M 201.44700622558594 176.58700561523438 C 202.1580047607422 160.5 195.01400756835938 180.36599731445312 204.822998046875 170.43299865722656" stroke-width="2.0" fill="none" stroke="rgb(0, 0, 255)" stroke-opacity="1" stroke-linecap="round" stroke-linejoin="round"/>
    <path d="M 201.1490020751953 114.0 C 193.96800231933594 122.25800323486328 194.68099975585938 114.0530014038086 189.9040069580078 118.6240005493164" stroke-width="2.0" fill="none" stroke="rgb(0, 0, 255)" stroke-opacity="1" stroke-linecap="round" stroke-linejoin="round"/>
    <path d="M 217.5070037841797 180.18600463867188 C 219.80999755859375 197.1009979248047 235.71800231933594 191.10499572753906 240.84100341796875 185.20700073242188" stroke-width="2.0" fill="none" stroke="rgb(0, 0, 255)" stroke-opacity="1" stroke-linecap="round" stroke-linejoin="round"/>
    <path d="M 188.4739990234375 156.01499938964844 C 185.052001953125 155.78799438476562 177.7010040283203 155.83399963378906 197.7790069580078 143.97500610351562" stroke-width="2.0" fill="none" stroke="rgb(0, 0, 255)" stroke-opacity="1" stroke-linecap="round" stroke-linejoin="round"/>
    <path d="M 183.1219940185547 137.49600219726562 C 189.12399291992188 145.60699462890625 183.68299865722656 143.19900512695312 187.25799560546875 156.99400329589844" stroke-width="2.0" fill="none" stroke="rgb(0, 0, 255)" stroke-opacity="1" stroke-linecap="round" stroke-linejoin="round"/>
    <path d="M 197.68499755859375 128.72999572753906 C 195.9600067138672 120.1500015258789 202.21600341796875 125.35900115966797 200.7259979248047 115.2030029296875" stroke-width="2.0" fill="none" stroke="rgb(0, 0, 255)" stroke-opacity="1" stroke-linecap="round" stroke-linejoin="round"/>
    <path d="M 205.00599670410156 172.98699951171875 C 206.94500732421875 170.97799682617188 197.73300170898438 185.30299377441406 207.2519989013672 173.85400390625" stroke-width="2.0" fill="none" stroke="rgb(0, 0, 255)" stroke-opacity="1" stroke-linecap="round" stroke-linejoin="round"/>
    <path d="M 183.57200622558594 156.11399841308594 C 190.57899475097656 135.92799377441406 195.55099487304688 152.1009979248047 187.1439971923828 150.47000122070312" stroke-width="2.0" fill="none" stroke="rgb(0, 0, 255)" stroke-opacity="1" stroke-linecap="round" stroke-linejoin="round"/>
    <path d="M 185.8679962158203 156.5540008544922 C 185.74400329589844 154.5240020751953 182.1060028076172 138.64700317382812 185.2310028076172 158.54400634765625" stroke-width="2.0" fill="none" stroke="rgb(0, 0, 255)" stroke-opacity="1" stroke-linecap="round" stroke-linejoin="round"/>
    <path d="M 185.81700134277344 129.718994140625 C 178.25399780273438 113.1510009765625 191.48300170898438 120.0719985961914 193.97999572753906 127.4209976196289" stroke-width="2.0" fill="none" stroke="rgb(0, 0, 255)" stroke-opacity="1" stroke-linecap="round" stroke-linejoin="round"/>
    <path d="M 212.58799743652344 166.86900329589844 C 219.6479949951172 179.0290069580078 217.41099548339844 187.6219940185547 217.08399963378906 178.60800170898438" stroke-width="2.0" fill="none" stroke="rgb(0, 0, 255)" stroke-opacity="1" stroke-linecap="round" stroke-linejoin="round"/>
    <path d="M 181.2550048828125 159.3820037841797 C 189.76499938964844 176.33099365234375 177.6999969482422 161.0590057373047 186.8769989013672 160.2239990234375" stroke-width="2.0" fill="none" stroke="rgb(0, 0, 255)" stroke-opacity="1" stroke-linecap="round" stroke-linejoin="round"/>
    <path d="M 204.468994140625 172.60800170898438 C 198.30999755859375 182.34800720214844 208.56199645996094 166.45899963378906 204.08999633789062 174.62899780273438" stroke-width="2.0" fill="none" stroke="rgb(0, 0, 255)" stroke-opacity="1" stroke-linecap="round" stroke-linejoin="round"/>
    <path d="M 212.0399932861328 181.06199645996094 C 217.92300415039062 183.20899963378906 217.82200622558594 200.19000244140625 231.35800170898438 194.0449981689453" stroke-width="2.0" fill="none" stroke="rgb(0, 0, 255)" stroke-opacity="1" stroke-linecap="round" stroke-linejoin="round"/>
    <path d="M 185.85899353027344 170.20799255371094 C 190.0959930419922 164.13499450683594 181.25 168.71099853515625 190.0290069580078 177.58700561523438" stroke-width="2.0" fill="none" stroke="rgb(0, 0, 255)" stroke-opacity="1" stroke-linecap="round" stroke-linejoin="round"/>
    <path d="M 169.88299560546875 143.86000061035156 C 170.302001953125 142.64700317382812 160.92100524902344 139.26199340820312 178.96400451660156 154.5469970703125" stroke-width="2.0" fill="none" stroke="rgb(0, 0, 255)" stroke-opacity="1" stroke-linecap="round" stroke-linejoin="round"/>
    <path d="M 184.11099243164062 148.47799682617188 C 185.7239990234375 146.9199981689453 202.00999450683594 145.28900146484375 186.8800048828125 150.73599243164062" stroke-width="2.0" fill="none" stroke="rgb(0, 0, 255)" stroke-opacity="1" stroke-linecap="round" stroke-linejoin="round"/>
    <path d="M 198.44500732421875 172.90899658203125 C 207.5989990234375 170.6929931640625 200.21499633789062 181.7030029296875 202.50999450683594 170.82899475097656" stroke-width="2.0" fill="none" stroke="rgb(0, 0, 255)" stroke-opacity="1" stroke-linecap="round" stroke-linejoin="round"/>
    <path d="M 190.17100524902344 122.4280014038086 C 205.18800354003906 116.44300079345703 174.81199645996094 119.34400177001953 185.89599609375 121.13400268554688" stroke-width="2.0" fill="none" stroke="rgb(0, 0, 255)" stroke-opacity="1" stroke-linecap="round" stroke-linejoin="round"/>
    <path d="M 184.5800018310547 165.39300537109375 C 192.94400024414062 166.71400451660156 180.31700134277344 158.5989990234375 186.32000732421875 175.00100708007812" stroke-width="2.0" fill="none" stroke="rgb(0, 0, 255)" stroke-opacity="1" stroke-linecap="round" stroke-linejoin="round"/>
    <path d="M 215.1699981689453 181.5 C 213.20399475097656 164.06900024414062 219.66799926757812 182.5330047607422 217.03199768066406 180.9149932861328" stroke-width="2.0" fill="none" stroke="rgb(0, 0, 255)" stroke-opacity="1" stroke-linecap="round" stroke-linejoin="round"/>
    <path d="M 179.51199340820312 148.8090057373047 C 179.34300231933594 135.71299743652344 167.26400756835938 138.0070037841797 162.08999633789062 134.69400024414062" stroke-width="2.0" fill="none" stroke="rgb(0, 0, 255)" stroke-opacity="1" stroke-linecap="round" stroke-linejoin="round"/>
    <path d="M 193.62399291992188 125.4209976196289 C 197.7100067138672 114.44599914550781 198.5959930419922 122.5780029296875 185.3260040283203 118.52200317382812" stroke-width="2.0" fill="none" stroke="rgb(0, 0, 255)" stroke-opacity="1" stroke-linecap="round" stroke-linejoin="round"/>
    <path d="M 183.71200561523438 132.9600067138672 C 188.1479949951172 125.63999938964844 190.14100646972656 122.25499725341797 179.68600463867188 136.55999755859375" stroke-width="2.0" fill="none" stroke="rgb(0, 0, 255)" stroke-opacity="1" stroke-linecap="round" stroke-linejoin="round"/>
    <path d="M 165.8679962158203 140.843994140625 C 164.07000732421875 138.8070068359375 180.53900146484375 158.468994140625 175.0260009765625 141.92799377441406" stroke-width="2.0" fill="none" stroke="rgb(0, 0, 255)" stroke-opacity="1" stroke-linecap="round" stroke-linejoin="round"/>
    <path d="M 205.66299438476562 148.468994140625 C 210.88499450683594 154.99000549316406 209.64199829101562 157.3699951171875 217.28199768066406 180.03399658203125" stroke-width="2.0" fill="none" stroke="rgb(0, 0, 255)" stroke-opacity="1" stroke-linecap="round" stroke-linejoin="round"/>
    <path d="M 197.9759979248047 132.6719970703125 C 198.00599670410156 143.48399353027344 196.79800415039062 145.68699645996094 201.25799560546875 119.59400177001953" stroke-width="2.0" fill="none" stroke="rgb(0, 0, 255)" stroke-opacity="1" stroke-linecap="round" stroke-linejoin="round"/>
    <path d="M 203.92300415039062 204.03199768066406 C 207.0290069580078 208.7899932861328 187.51100158691406 208.51400756835938 198.52000427246094 199.30599975585938" stroke-width="2.0" fill="none" stroke="rgb(0, 0, 255)" stroke-opacity="1" stroke-linecap="round" stroke-linejoin="round"/>
    <path d="M 192.8179931640625 128.25900268554688 C 199.2760009765625 133.9770050048828 188.4810028076172 119.33799743652344 195.89100646972656 129.072998046875" stroke-width="2.0" fill="none" stroke="rgb(0, 0, 255)" stroke-opacity="1" stroke-linecap="round" stroke-linejoin="round"/>
    <path d="M 180.4149932861328 136.68800354003906 C 179.45199584960938 139.63600158691406 180.08599853515625 144.26100158691406 159.447998046875 131.02499389648438" stroke-width="2.0" fill="none" stroke="rgb(0, 0, 255)" stroke-opacity="1" stroke-linecap="round" stroke-linejoin="round"/>
    <path d="M 196.28399658203125 128.2740020751953 C 192.31100463867188 116.97799682617188 198.89500427246094 134.52000427246094 187.21499633789062 128.52499389648438" stroke-width="2.0" fill="none" stroke="rgb(0, 0, 255)" stroke-opacity="1" stroke-linecap="round" stroke-linejoin="round"/>
    <path d="M 217.78500366210938 181.89199829101562 C 214.51300048828125 178.69000244140625 216.77699279785156 174.0189971923828 216.20700073242188 176.15199279785156" stroke-width="2.0" fill="none" stroke="rgb(0, 0, 255)" stroke-opacity="1" stroke-linecap="round" stroke-linejoin="round"/>
    <path d="M 171.75999450683594 139.14700317382812 C 188.23399353027344 136.16700744628906 176.9080047607422 150.093994140625 188.74200439453125 152.10800170898438" stroke-width="2.0" fill="none" stroke="rgb(0, 0, 255)" stroke-opacity="1" stroke-linecap="round" stroke-linejoin="round"/>
    <path d="M 186.92599487304688 145.45399475097656 C 186.46099853515625 151.33799743652344 177.38999938964844 146.9510040283203 190.29100036621094 151.1929931640625" stroke-width="2.0" fill="none" stroke="rgb(0, 0, 255)" stroke-opacity="1" stroke-linecap="round" stroke-linejoin="round"/>
    <path d="M 152.56900024414062 138.19000244140625 C 173.24099731445312 142.53199768066406 152.23399353027344 131.56900024414062 177.1060028076172 153.66700744628906" stroke-width="2.0" fill="none" stroke="rgb(0, 0, 255)" stroke-opacity="1" stroke-linecap="round" stroke-linejoin="round"/>
    <path d="M 187.23399353027344 123.86799621582031 C 182.67300415039062 137.22799682617188 186.73899841308594 124.4990005493164 196.02000427246094 129.9199981689453" stroke-width="2.0" fill="none" stroke="rgb(0, 0, 255)" stroke-opacity="1" stroke-linecap="round" stroke-linejoin="round"/>
    <path d="M 173.50599670410156 144.53799438476562 C 162.22900390625 129.88299560546875 151.13999938964844 143.00100708007812 154.6060028076172 136.37100219726562" stroke-width="2.0" fill="none" stroke="rgb(0, 0, 255)" stroke-opacity="1" stroke-linecap="round" stroke-linejoin="round"/>
    <path d="M 199.3090057373047 170.94400024414062 C 198.9709930419922 174.83599853515625 201.50900268554688 177.20399475097656 196.76400756835938 168.29800415039062" stroke-width="2.0" fill="none" stroke="rgb(0, 0, 255)" stroke-opacity="1" stroke-linecap="round" stroke-linejoin="round"/>
    <path d="M 160.53599548339844 137.12100219726562 C 174.66900634765625 135.13800048828125 148.0240020751953 126.51499938964844 153.20899963378906 134.2989959716797" stroke-width="2.0" fill="none" stroke="rgb(0, 0, 255)" stroke-opacity="1" stroke-linecap="round" stroke-linejoin="round"/>
    <path d="M 114.56199645996094 114.35800170898438 C 125.16300201416016 93.98760223388672 125.60099792480469 106.70700073242188 122.75800323486328 101.7969970703125" stroke-width="2.0" fill="none" stroke="rgb(0, 255, 0)" stroke-opacity="1" stroke-linecap="round" stroke-linejoin="round"/>
    <path d="M 115.36699676513672 103.41400146484375 C 119.9000015258789 99.220703125 140.80799865722656 105.41699981689453 128.03500366210938 116.9749984741211" stroke-width="2.0" fill="none" stroke="rgb(0, 255, 0)" stroke-opacity="1" stroke-linecap="round" stroke-linejoin="round"/>
    <path d="M 121.90599822998047 98.0 C 120.06099700927734 103.78700256347656 117.11299896240234 103.76799774169922 122.91000366210938 100.61000061035156" stroke-width="2.0" fill="none" stroke="rgb(0, 255, 0)" stroke-opacity="1" stroke-linecap="round" stroke-linejoin="round"/>
    <path d="M 113.76599884033203 122.95899963378906 C 104.60800170898438 116.11399841308594 109.36000061035156 112.58799743652344 108.56099700927734 114.58200073242188" stroke-width="2.0" fill="none" stroke="rgb(0, 255, 0)" stroke-opacity="1" stroke-linecap="round" stroke-linejoin="round"/>
    <path d="M 126.69100189208984 120.00599670410156 C 129.9709930419922 118.77400207519531 123.85099792480469 102.427001953125 122.18299865722656 102.47599792480469" stroke-width="2.0" fill="none" stroke="rgb(0, 255, 0)" stroke-opacity="1" stroke-linecap="round" stroke-linejoin="round"/>
    <path d="M 115.84600067138672 98.7125015258789 C 115.2229995727539 98.85800170898438 133.5240020751953 97.4884033203125 119.90499877929688 103.00599670410156" stroke-width="2.0" fill="none" stroke="rgb(0, 255, 0)" stroke-opacity="1" stroke-linecap="round" stroke-linejoin="round"/>
    <path d="M 120.33599853515625 99.26799774169922 C 107.66200256347656 96.78790283203125 103.93399810791016 111.95700073242188 109.5270004272461 116.02100372314453" stroke-width="2.0" fill="none" stroke="rgb(0, 255, 0)" stroke-opacity="1" stroke-linecap="round" stroke-linejoin="round"/>
    <path d="M 126.42400360107422 122.01000213623047 C 128.22900390625 107.61699676513672 120.34200286865234 96.46600341796875 122.8280029296875 101.79900360107422" stroke-width="2.0" fill="none" stroke="rgb(0, 255, 0)" stroke-opacity="1" stroke-linecap="round" stroke-linejoin="round"/>
    <path d="M 111.8550033569336 119.55999755859375 C 117.78600311279297 124.41899871826172 109.25199890136719 122.08399963378906 116.875 110.78099822998047" stroke-width="2.0" fill="none" stroke="rgb(0, 255, 0)" stroke-opacity="1" stroke-linecap="round" stroke-linejoin="round"/>
    <path d="M 123.4469985961914 101.91799926757812 C 124.36699676513672 105.51699829101562 123.2959976196289 98.41570281982422 123.8290023803711 102.43699645996094" stroke-width="2.0" fill="none" stroke="rgb(0, 255, 0)" stroke-opacity="1" stroke-linecap="round" stroke-linejoin="round"/>
    <path d="M 116.17400360107422 121.79399871826172 C 116.13500213623047 122.23600006103516 111.17900085449219 115.10099792480469 108.32499694824219 110.93900299072266" stroke-width="2.0" fill="none" stroke="rgb(0, 255, 0)" stroke-opacity="1" stroke-linecap="round" stroke-linejoin="round"/>
    <path d="M 113.02899932861328 119.8499984741211 C 106.26000213623047 111.50199890136719 102.08799743652344 107.45700073242188 122.39299774169922 102.677001953125" stroke-width="2.0" fill="none" stroke="rgb(0, 255, 0)" stroke-opacity="1" stroke-linecap="round" stroke-linejoin="round"/>
    <path d="M 114.98300170898438 100.8010025024414 C 122.65299987792969 91.706298828125 125.51599884033203 121.38700103759766 122.61699676513672 122.6780014038086" stroke-width="2.0" fill="none" stroke="rgb(0, 255, 0)" stroke-opacity="1" stroke-linecap="round" stroke-linejoin="round"/>
    <path d="M 122.89099884033203 122.25900268554688 C 130.39300537109375 123.84100341796875 133.093994140625 115.21700286865234 132.9980010986328 109.8489990234375" stroke-width="2.0" fill="none" stroke="rgb(0, 255, 0)" stroke-opacity="1" stroke-linecap="round" stroke-linejoin="round"/>
    <path d="M 118.53600311279297 124.0 C 106.1780014038086 122.35199737548828 107.70500183105469 113.5250015258789 108.30699920654297 114.97100067138672" stroke-width="2.0" fill="none" stroke="rgb(0, 255, 0)" stroke-opacity="1" stroke-linecap="round" stroke-linejoin="round"/>
    <path d="M 120.96099853515625 123.20099639892578 C 129.20199584960938 123.53500366210938 140.177001953125 107.79900360107422 125.01899719238281 99.84609985351562" stroke-width="2.0" fill="none" stroke="rgb(0, 255, 0)" stroke-opacity="1" stroke-linecap="round" stroke-linejoin="round"/>
    <path d="M 125.23999786376953 107.93000030517578 C 120.90599822998047 93.94660186767578 129.51800537109375 96.56659698486328 116.93000030517578 110.36499786376953" stroke-width="2.0" fill="none" stroke="rgb(0, 255, 0)" stroke-opacity="1" stroke-linecap="round" stroke-linejoin="round"/>
    <path d="M 126.50800323486328 112.79299926757812 C 127.94000244140625 114.75 126.52400207519531 117.33100128173828 126.697998046875 119.23300170898438" stroke-width="2.0" fill="none" stroke="rgb(0, 255, 0)" stroke-opacity="1" stroke-linecap="round" stroke-linejoin="round"/>
    <path d="M 108.96399688720703 115.66899871826172 C 118.99099731445312 132.01300048828125 120.64600372314453 122.61599731445312 125.62799835205078 100.27200317382812" stroke-width="2.0" fill="none" stroke="rgb(0, 255, 0)" stroke-opacity="1" stroke-linecap="round" stroke-linejoin="round"/>
    <path d="M 83.5624008178711 154.84500122070312 C 68.22270202636719 173.20399475097656 94.50920104980469 163.73699951171875 93.02010345458984 171.61300659179688" stroke-width="2.0" fill="none" stroke="rgb(255, 0, 0)" stroke-opacity="1" stroke-linecap="round" stroke-linejoin="round"/>
    <path d="M 54.79859924316406 179.5850067138672 C 51.20610046386719 190.31700134277344 50.73139953613281 184.9040069580078 49.09560012817383 184.88999938964844" stroke-width="2.0" fill="none" stroke="rgb(255, 0, 0)" stroke-opacity="1" stroke-linecap="round" stroke-linejoin="round"/>
    <path d="M 58.236000061035156 187.4759979248047 C 43.5531005859375 180.4669952392578 54.93949890136719 162.9029998779297 47.63999938964844 185.39599609375" stroke-width="2.0" fill="none" stroke="rgb(255, 0, 0)" stroke-opacity="1" stroke-linecap="round" stroke-linejoin="round"/>
    <path d="M 54.58319854736328 168.51499938964844 C 51.24589920043945 182.2830047607422 55.17340087890625 191.35800170898438 50.186798095703125 175.30999755859375" stroke-width="2.0" fill="none" stroke="rgb(255, 0, 0)" stroke-opacity="1" stroke-linecap="round" stroke-linejoin="round"/>
    <path d="M 66.77290344238281 144.36000061035156 C 61.79629898071289 160.36000061035156 55.03049850463867 166.7030029296875 57.54010009765625 163.16000366210938" stroke-width="2.0" fill="none" stroke="rgb(255, 0, 0)" stroke-opacity="1" stroke-linecap="round" stroke-linejoin="round"/>
    <path d="M 49.264198303222656 186.05599975585938 C 51.97420120239258 177.7310028076172 50.79180145263672 182.27000427246094 53.34700012207031 174.26800537109375" stroke-width="2.0" fill="none" stroke="rgb(255, 0, 0)" stroke-opacity="1" stroke-linecap="round" stroke-linejoin="round"/>
    <path d="M 84.35549926757812 160.69200134277344 C 81.53520202636719 161.28399658203125 80.72489929199219 167.2830047607422 81.64810180664062 153.33599853515625" stroke-width="2.0" fill="none" stroke="rgb(255, 0, 0)" stroke-opacity="1" stroke-linecap="round" stroke-linejoin="round"/>
    <path d="M 12.000100135803223 176.36900329589844 C 12.827799797058105 183.29299926757812 23.367799758911133 195.85299682617188 55.49409866333008 186.4149932861328" stroke-width="2.0" fill="none" stroke="rgb(255, 0, 0)" stroke-opacity="1" stroke-linecap="round" stroke-linejoin="round"/>
    <path d="M 69.82839965820312 205.2570037841797 C 65.49299621582031 209.4980010986328 55.56420135498047 202.70199584960938 71.38310241699219 194.2220001220703" stroke-width="2.0" fill="none" stroke="rgb(255, 0, 0)" stroke-opacity="1" stroke-linecap="round" stroke-linejoin="round"/>
    <path d="M 81.54389953613281 157.2209930419922 C 92.55470275878906 171.58099365234375 91.69889831542969 158.51100158691406 89.18109893798828 150.968994140625" stroke-width="2.0" fill="none" stroke="rgb(255, 0, 0)" stroke-opacity="1" stroke-linecap="round" stroke-linejoin="round"/>
    <path d="M 30.8843994140625 187.22999572753906 C 69.8740005493164 189.4459991455078 50.84260177612305 178.96200561523438 49.80580139160156 181.92599487304688" stroke-width="2.0" fill="none" stroke="rgb(255, 0, 0)" stroke-opacity="1" stroke-linecap="round" stroke-linejoin="round"/>
    <path d="M 54.04330062866211 175.42300415039062 C 50.00410079956055 196.8520050048828 42.024898529052734 177.17999267578125 58.79439926147461 162.08200073242188" stroke-width="2.0" fill="none" stroke="rgb(255, 0, 0)" stroke-opacity="1" stroke-linecap="round" stroke-linejoin="round"/>
    <path d="M 82.47160339355469 157.36000061035156 C 79.84760284423828 167.87899780273438 71.30940246582031 163.01300048828125 79.08719635009766 180.91099548339844" stroke-width="2.0" fill="none" stroke="rgb(255, 0, 0)" stroke-opacity="1" stroke-linecap="round" stroke-linejoin="round"/>
    <path d="M 45.20249938964844 188.11000061035156 C 27.11870002746582 191.18600463867188 13.485699653625488 184.697998046875 26.465900421142578 188.2519989013672" stroke-width="2.0" fill="none" stroke="rgb(255, 0, 0)" stroke-opacity="1" stroke-linecap="round" stroke-linejoin="round"/>
    <path d="M 90.43460083007812 132.99899291992188 C 68.7344970703125 123.05500030517578 62.0536003112793 143.9239959716797 80.47730255126953 131.02699279785156" stroke-width="2.0" fill="none" stroke="rgb(255, 0, 0)" stroke-opacity="1" stroke-linecap="round" stroke-linejoin="round"/>
    <path d="M 99.93779754638672 128.5189971923828 C 93.9176025390625 138.8719940185547 101.46700286865234 139.0590057373047 88.67350006103516 149.8939971923828" stroke-width="2.0" fill="none" stroke="rgb(255, 0, 0)" stroke-opacity="1" stroke-linecap="round" stroke-linejoin="round"/>
    <path d="M 106.61000061035156 123.77100372314453 C 109.75900268554688 118.76599884033203 92.80919647216797 119.7020034790039 92.82740020751953 133.5970001220703" stroke-width="2.0" fill="none" stroke="rgb(255, 0, 0)" stroke-opacity="1" stroke-linecap="round" stroke-linejoin="round"/>
    <path d="M 61.31829833984375 187.0399932861328 C 59.80160140991211 181.61700439453125 33.83380126953125 189.29400634765625 50.8036003112793 183.16700744628906" stroke-width="2.0" fill="none" stroke="rgb(255, 0, 0)" stroke-opacity="1" stroke-linecap="round" stroke-linejoin="round"/>
    <path d="M 53.40620040893555 180.11300659179688 C 37.77199935913086 191.6439971923828 38.56549835205078 185.32000732421875 54.93899917602539 182.22000122070312" stroke-width="2.0" fill="none" stroke="rgb(255, 0, 0)" stroke-opacity="1" stroke-linecap="round" stroke-linejoin="round"/>
    <path d="M 49.27090072631836 179.46299743652344 C 49.50019836425781 188.7969970703125 29.645999908447266 186.27200317382812 32.989498138427734 188.24200439453125" stroke-width="2.0" fill="none" stroke="rgb(255, 0, 0)" stroke-opacity="1" stroke-linecap="round" stroke-linejoin="round"/>
    <path d="M 64.8478012084961 210.72900390625 C 55.32609939575195 211.6790008544922 59.43790054321289 210.46400451660156 56.9385986328125 201.718994140625" stroke-width="2.0" fill="none" stroke="rgb(255, 0, 0)" stroke-opacity="1" stroke-linecap="round" stroke-linejoin="round"/>
    <path d="M 49.81129837036133 179.63600158691406 C 59.74420166015625 195.38699340820312 72.56340026855469 184.75900268554688 39.148101806640625 186.76499938964844" stroke-width="2.0" fill="none" stroke="rgb(255, 0, 0)" stroke-opacity="1" stroke-linecap="round" stroke-linejoin="round"/>
    <path d="M 82.59339904785156 161.59100341796875 C 84.06590270996094 150.38099670410156 81.3949966430664 154.1580047607422 81.15630340576172 162.76600646972656" stroke-width="2.0" fill="none" stroke="rgb(255, 0, 0)" stroke-opacity="1" stroke-linecap="round" stroke-linejoin="round"/>
    <path d="M 79.50640106201172 179.83999633789062 C 79.38410186767578 174.32400512695312 81.68309783935547 187.68499755859375 68.41020202636719 195.9969940185547" stroke-width="2.0" fill="none" stroke="rgb(255, 0, 0)" stroke-opacity="1" stroke-linecap="round" stroke-linejoin="round"/>
    <path d="M 69.86530303955078 127.88999938964844 C 75.70249938964844 127.71199798583984 61.22949981689453 131.4320068359375 80.40899658203125 132.68299865722656" stroke-width="2.0" fill="none" stroke="rgb(255, 0, 0)" stroke-opacity="1" stroke-linecap="round" stroke-linejoin="round"/>
    <path d="M 53.54050064086914 172.54800415039062 C 54.79890060424805 177.67799377441406 58.98939895629883 188.89599609375 64.18920135498047 188.52200317382812" stroke-width="2.0" fill="none" stroke="rgb(255, 0, 0)" stroke-opacity="1" stroke-linecap="round" stroke-linejoin="round"/>
    <path d="M 64.8718032836914 135.25100708007812 C 75.91280364990234 137.76499938964844 78.27310180664062 134.3090057373047 64.66809844970703 134.88900756835938" stroke-width="2.0" fill="none" stroke="rgb(255, 0, 0)" stroke-opacity="1" stroke-linecap="round" stroke-linejoin="round"/>
    <path d="M 67.42220306396484 203.9720001220703 C 67.720703125 196.25399780273438 68.2405014038086 196.77699279785156 73.94840240478516 191.08200073242188" stroke-width="2.0" fill="none" stroke="rgb(255, 0, 0)" stroke-opacity="1" stroke-linecap="round" stroke-linejoin="round"/>
    <path d="M 82.2500991821289 157.63600158691406 C 81.69770050048828 163.31300354003906 81.48650360107422 166.53799438476562 81.37760162353516 153.51600646972656" stroke-width="2.0" fill="none" stroke="rgb(255, 0, 0)" stroke-opacity="1" stroke-linecap="round" stroke-linejoin="round"/>
    <path d="M 82.3644027709961 158.5260009765625 C 82.4176025390625 161.36199951171875 88.49600219726562 157.81100463867188 76.75579833984375 166.2760009765625" stroke-width="2.0" fill="none" stroke="rgb(255, 0, 0)" stroke-opacity="1" stroke-linecap="round" stroke-linejoin="round"/>
    <path d="M 66.72160339355469 128.99000549316406 C 58.75910186767578 140.97900390625 72.17250061035156 137.16000366210938 63.65250015258789 153.8159942626953" stroke-width="2.0" fill="none" stroke="rgb(255, 0, 0)" stroke-opacity="1" stroke-linecap="round" stroke-linejoin="round"/>
    <path d="M 58.21099853515625 186.18699645996094 C 49.802101135253906 172.94200134277344 48.47489929199219 191.83399963378906 76.45870208740234 188.51300048828125" stroke-width="2.0" fill="none" stroke="rgb(255, 0, 0)" stroke-opacity="1" stroke-linecap="round" stroke-linejoin="round"/>
    <path d="M 80.09970092773438 162.9429931640625 C 73.05059814453125 168.48199462890625 77.59929656982422 173.22500610351562 76.23410034179688 162.51699829101562" stroke-width="2.0" fill="none" stroke="rgb(255, 0, 0)" stroke-opacity="1" stroke-linecap="round" stroke-linejoin="round"/>
    <path d="M 78.02760314941406 164.02099609375 C 92.97830200195312 150.82899475097656 77.21389770507812 149.70399475097656 75.6447982788086 173.39500427246094" stroke-width="2.0" fill="none" stroke="rgb(255, 0, 0)" stroke-opacity="1" stroke-linecap="round" stroke-linejoin="round"/>
    <path d="M 105.36900329589844 124.91000366210938 C 100.2229995727539 127.23400115966797 99.89230346679688 130.47900390625 101.02400207519531 127.49400329589844" stroke-width="2.0" fill="none" stroke="rgb(255, 0, 0)" stroke-opacity="1" stroke-linecap="round" stroke-linejoin="round"/>
    <path d="M 58.47710037231445 162.45399475097656 C 54.19649887084961 173.67599487304688 49.53139877319336 176.86199951171875 49.490501403808594 185.1269989013672" stroke-width="2.0" fill="none" stroke="rgb(255, 0, 0)" stroke-opacity="1" stroke-linecap="round" stroke-linejoin="round"/>
    <path d="M 93.777099609375 172.5850067138672 C 110.552001953125 168.08099365234375 81.6061019897461 161.68699645996094 83.0093994140625 161.9409942626953" stroke-width="2.0" fill="none" stroke="rgb(255, 0, 0)" stroke-opacity="1" stroke-linecap="round" stroke-linejoin="round"/>
    <path d="M 55.909000396728516 166.98699951171875 C 48.20840072631836 179.5780029296875 46.778099060058594 177.572998046875 60.18069839477539 159.3560028076172" stroke-width="2.0" fill="none" stroke="rgb(255, 0, 0)" stroke-opacity="1" stroke-linecap="round" stroke-linejoin="round"/>
    <path d="M 58.34600067138672 184.96200561523438 C 62.60319900512695 202.19500732421875 54.915000915527344 195.1269989013672 57.22529983520508 201.93699645996094" stroke-width="2.0" fill="none" stroke="rgb(255, 0, 0)" stroke-opacity="1" stroke-linecap="round" stroke-linejoin="round"/>
    <path d="M 55.703399658203125 186.80299377441406 C 54.60340118408203 176.51699829101562 40.36989974975586 192.39700317382812 50.58689880371094 184.35499572753906" stroke-width="2.0" fill="none" stroke="rgb(255, 0, 0)" stroke-opacity="1" stroke-linecap="round" stroke-linejoin="round"/>
    <path d="M 78.71489715576172 150.38699340820312 C 84.55590057373047 157.05599975585938 87.7479019165039 156.79400634765625 78.97160339355469 164.031005859375" stroke-width="2.0" fill="none" stroke="rgb(255, 0, 0)" stroke-opacity="1" stroke-linecap="round" stroke-linejoin="round"/>
    <path d="M 82.77989959716797 161.71099853515625 C 77.98600006103516 163.00999450683594 81.78179931640625 162.63900756835938 80.25360107421875 152.2220001220703" stroke-width="2.0" fill="none" stroke="rgb(255, 0, 0)" stroke-opacity="1" stroke-linecap="round" stroke-linejoin="round"/>
    <path d="M 39.163299560546875 186.9770050048828 C 13.476699829101562 188.99600219726562 17.90570068359375 176.76199340820312 12.517399787902832 176.4290008544922" stroke-width="2.0" fill="none" stroke="rgb(255, 0, 0)" stroke-opacity="1" stroke-linecap="round" stroke-linejoin="round"/>
    <path d="M 95.43990325927734 132.72000122070312 C 88.96610260009766 137.20700073242188 79.69989776611328 121.20700073242188 65.40409851074219 134.7270050048828" stroke-width="2.0" fill="none" stroke="rgb(255, 0, 0)" stroke-opacity="1" stroke-linecap="round" stroke-linejoin="round"/>
    <path d="M 54.224098205566406 183.67999267578125 C 40.986000061035156 179.0959930419922 53.38909912109375 184.11599731445312 60.128501892089844 188.18899536132812" stroke-width="2.0" fill="none" stroke="rgb(255, 0, 0)" stroke-opacity="1" stroke-linecap="round" stroke-linejoin="round"/>
    <path d="M 59.43659973144531 187.21800231933594 C 47.674400329589844 181.60699462890625 53.36389923095703 166.61700439453125 53.79199981689453 184.94900512695312" stroke-width="2.0" fill="none" stroke="rgb(255, 0, 0)" stroke-opacity="1" stroke-linecap="round" stroke-linejoin="round"/>
    <path d="M 86.4197006225586 144.1300048828125 C 84.21859741210938 136.10800170898438 91.18569946289062 141.281005859375 92.81680297851562 131.23199462890625" stroke-width="2.0" fill="none" stroke="rgb(255, 0, 0)" stroke-opacity="1" stroke-linecap="round" stroke-linejoin="round"/>
    <path d="M 72.77230072021484 137.7239990234375 C 82.92009735107422 131.33900451660156 87.37470245361328 132.02200317382812 68.36029815673828 132.60899353027344" stroke-width="2.0" fill="none" stroke="rgb(255, 0, 0)" stroke-opacity="1" stroke-linecap="round" stroke-linejoin="round"/>
    <path d="M 77.2822036743164 165.2830047607422 C 83.44409942626953 151.23699951171875 77.88099670410156 148.1909942626953 67.01709747314453 143.43899536132812" stroke-width="2.0" fill="none" stroke="rgb(255, 0, 0)" stroke-opacity="1" stroke-linecap="round" stroke-linejoin="round"/>
    <path d="M 86.0426025390625 146.04100036621094 C 89.18099975585938 150.12899780273438 88.22100067138672 154.30099487304688 90.03579711914062 148.78500366210938" stroke-width="2.0" fill="none" stroke="rgb(255, 0, 0)" stroke-opacity="1" stroke-linecap="round" stroke-linejoin="round"/>
    <path d="M 51.43899917602539 186.60299682617188 C 46.62269973754883 171.1020050048828 59.236900329589844 169.5290069580078 53.15549850463867 186.38099670410156" stroke-width="2.0" fill="none" stroke="rgb(255, 0, 0)" stroke-opacity="1" stroke-linecap="round" stroke-linejoin="round"/>
    <path d="M 83.77660369873047 156.98699951171875 C 80.35389709472656 159.61300659179688 93.28630065917969 158.4239959716797 76.69609832763672 148.5709991455078" stroke-width="2.0" fill="none" stroke="rgb(255, 0, 0)" stroke-opacity="1" stroke-linecap="round" stroke-linejoin="round"/>
    <path d="M 68.375 204.1929931640625 C 77.74099731445312 208.67100524902344 54.71989822387695 203.38800048828125 66.50350189208984 208.74400329589844" stroke-width="2.0" fill="none" stroke="rgb(255, 0, 0)" stroke-opacity="1" stroke-linecap="round" stroke-linejoin="round"/>
    <path d="M 73.13269805908203 128.93800354003906 C 66.06849670410156 134.35499572753906 66.51119995117188 134.34500122070312 79.34349822998047 129.4550018310547" stroke-width="2.0" fill="none" stroke="rgb(255, 0, 0)" stroke-opacity="1" stroke-linecap="round" stroke-linejoin="round"/>
    <path d="M 86.8635025024414 134.16299438476562 C 99.80490112304688 124.14099884033203 90.66100311279297 135.5050048828125 91.25579833984375 132.82200622558594" stroke-width="2.0" fill="none" stroke="rgb(255, 0, 0)" stroke-opacity="1" stroke-linecap="round" stroke-linejoin="round"/>
    <path d="M 66.56410217285156 135.4199981689453 C 77.4177017211914 142.08900451660156 78.05259704589844 127.52300262451172 77.181396484375 131.83999633789062" stroke-width="2.0" fill="none" stroke="rgb(255, 0, 0)" stroke-opacity="1" stroke-linecap="round" stroke-linejoin="round"/>
    <path d="M 57.389198303222656 185.54100036621094 C 53.52640151977539 173.86500549316406 52.48540115356445 181.572998046875 51.73320007324219 180.6219940185547" stroke-width="2.0" fill="none" stroke="rgb(255, 0, 0)" stroke-opacity="1" stroke-linecap="round" stroke-linejoin="round"/>
    <path d="M 66.52330017089844 145.69900512695312 C 66.90979766845703 143.46099853515625 67.98280334472656 147.31500244140625 64.1946029663086 136.08999633789062" stroke-width="2.0" fill="none" stroke="rgb(255, 0, 0)" stroke-opacity="1" stroke-linecap="round" stroke-linejoin="round"/>
    <path d="M 63.7661018371582 153.17300415039062 C 59.79779815673828 168.88400268554688 49.88199996948242 173.00999450683594 60.91230010986328 160.46299743652344" stroke-width="2.0" fill="none" stroke="rgb(255, 0, 0)" stroke-opacity="1" stroke-linecap="round" stroke-linejoin="round"/>
    <path d="M 89.41000366210938 152.6179962158203 C 84.75659942626953 143.4010009765625 84.35569763183594 141.62600708007812 87.31179809570312 148.0449981689453" stroke-width="2.0" fill="none" stroke="rgb(255, 0, 0)" stroke-opacity="1" stroke-linecap="round" stroke-linejoin="round"/>
    <path d="M 64.21119689941406 137.04100036621094 C 60.33549880981445 131.6510009765625 101.66100311279297 128.18699645996094 70.4374008178711 135.14500427246094" stroke-width="2.0" fill="none" stroke="rgb(255, 0, 0)" stroke-opacity="1" stroke-linecap="round" stroke-linejoin="round"/>
    <path d="M 80.6780014038086 132.3560028076172 C 70.81759643554688 144.70700073242188 76.4009017944336 120.77999877929688 71.9365005493164 128.7469940185547" stroke-width="2.0" fill="none" stroke="rgb(255, 0, 0)" stroke-opacity="1" stroke-linecap="round" stroke-linejoin="round"/>
    <path d="M 77.03399658203125 185.8719940185547 C 82.74949645996094 173.822998046875 76.40280151367188 180.67799377441406 85.64240264892578 169.35800170898438" stroke-width="2.0" fill="none" stroke="rgb(255, 0, 0)" stroke-opacity="1" stroke-linecap="round" stroke-linejoin="round"/>
    <path d="M 77.09860229492188 134.33900451660156 C 69.13860321044922 122.13600158691406 64.65979766845703 124.20899963378906 68.91339874267578 133.63600158691406" stroke-width="2.0" fill="none" stroke="rgb(255, 0, 0)" stroke-opacity="1" stroke-linecap="round" stroke-linejoin="round"/>
  </g>
</svg>
