<?xml version="1.0" ?>
<svg xmlns="http://www.w3.org/2000/svg" version="1.1" width="256" height="256">
  <defs/>
  <g>
    <path d="M 106.26399993896484 153.03500366210938 C 95.75469970703125 166.2480010986328 -14.264200210571289 157.80499267578125 106.91000366210938 160.09500122070312" stroke-width="3.0" fill="none" stroke="rgb(0, 255, 0)" stroke-opacity="1" stroke-linecap="round" stroke-linejoin="round"/>
    <path d="M 157.94000244140625 152.33999633789062 C 156.51400756835938 149.37899780273438 143.55799865722656 166.3179931640625 152.3509979248047 189.3470001220703" stroke-width="3.0" fill="none" stroke="rgb(0, 0, 255)" stroke-opacity="1" stroke-linecap="round" stroke-linejoin="round"/>
    <path d="M 118.01100158691406 161.02699279785156 C 90.78170013427734 141.58099365234375 96.43280029296875 169.24000549316406 128.24200439453125 138.8280029296875" stroke-width="3.0" fill="none" stroke="rgb(0, 0, 255)" stroke-opacity="1" stroke-linecap="round" stroke-linejoin="round"/>
    <path d="M 106.12899780273438 138.68600463867188 C 126.43299865722656 159.17100524902344 129.02000427246094 162.64500427246094 95.62439727783203 162.3509979248047" stroke-width="3.0" fill="none" stroke="rgb(0, 0, 255)" stroke-opacity="1" stroke-linecap="round" stroke-linejoin="round"/>
    <path d="M 50.57279968261719 123.39099884033203 C 67.26419830322266 142.76600646972656 33.75979995727539 90.76200103759766 69.1281967163086 138.20599365234375" stroke-width="3.0" fill="none" stroke="rgb(255, 0, 0)" stroke-opacity="1" stroke-linecap="round" stroke-linejoin="round"/>
    <path d="M 48.69179916381836 163.22900390625 C 131.8560028076172 162.17100524902344 104.03600311279297 150.4759979248047 103.4219970703125 161.2550048828125" stroke-width="3.0" fill="none" stroke="rgb(0, 255, 0)" stroke-opacity="1" stroke-linecap="round" stroke-linejoin="round"/>
    <path d="M 124.53299713134766 108.39800262451172 C 102.45800018310547 135.6320037841797 119.52400207519531 142.83200073242188 132.62399291992188 104.58399963378906" stroke-width="3.0" fill="none" stroke="rgb(0, 0, 255)" stroke-opacity="1" stroke-linecap="round" stroke-linejoin="round"/>
    <path d="M 219.93499755859375 190.70199584960938 C 218.0500030517578 190.69900512695312 216.53900146484375 224.70199584960938 201.64700317382812 196.3489990234375" stroke-width="3.0" fill="none" stroke="rgb(0, 0, 255)" stroke-opacity="1" stroke-linecap="round" stroke-linejoin="round"/>
    <path d="M 129.21099853515625 166.9770050048828 C 132.56399536132812 224.8719940185547 129.7790069580078 104.81199645996094 125.5510025024414 213.552001953125" stroke-width="3.0" fill="none" stroke="rgb(0, 255, 0)" stroke-opacity="1" stroke-linecap="round" stroke-linejoin="round"/>
    <path d="M 192.69700622558594 103.95099639892578 C 204.55299377441406 126.55799865722656 197.24099731445312 146.2010040283203 200.45899963378906 162.17999267578125" stroke-width="3.0" fill="none" stroke="rgb(0, 0, 255)" stroke-opacity="1" stroke-linecap="round" stroke-linejoin="round"/>
    <path d="M 79.01170349121094 180.5279998779297 C 41.20309829711914 182.49600219726562 49.10319900512695 184.75399780273438 119.65499877929688 183.45899963378906" stroke-width="3.0" fill="none" stroke="rgb(0, 255, 0)" stroke-opacity="1" stroke-linecap="round" stroke-linejoin="round"/>
    <path d="M 102.9520034790039 149.56399536132812 C 93.44219970703125 168.43099975585938 114.43099975585938 161.97300720214844 117.9020004272461 147.41700744628906" stroke-width="3.0" fill="none" stroke="rgb(0, 0, 255)" stroke-opacity="1" stroke-linecap="round" stroke-linejoin="round"/>
    <path d="M 95.36920166015625 161.7469940185547 C 88.80500030517578 141.4709930419922 100.84700012207031 167.45399475097656 100.35099792480469 154.33200073242188" stroke-width="3.0" fill="none" stroke="rgb(255, 0, 0)" stroke-opacity="1" stroke-linecap="round" stroke-linejoin="round"/>
    <path d="M 115.3489990234375 191.6300048828125 C 121.44999694824219 196.14100646972656 123.2030029296875 211.80499267578125 121.93399810791016 169.7779998779297" stroke-width="3.0" fill="none" stroke="rgb(0, 255, 0)" stroke-opacity="1" stroke-linecap="round" stroke-linejoin="round"/>
    <path d="M 142.05799865722656 79.52040100097656 C 141.53599548339844 65.4988021850586 152.89300537109375 73.48989868164062 142.32200622558594 71.34519958496094" stroke-width="3.0" fill="none" stroke="rgb(0, 0, 255)" stroke-opacity="1" stroke-linecap="round" stroke-linejoin="round"/>
    <path d="M 49.57830047607422 189.85899353027344 C 48.9369010925293 188.63600158691406 35.31679916381836 190.83099365234375 121.28800201416016 192.34300231933594" stroke-width="3.0" fill="none" stroke="rgb(0, 255, 0)" stroke-opacity="1" stroke-linecap="round" stroke-linejoin="round"/>
    <path d="M 53.307098388671875 168.49600219726562 C 53.73109817504883 228.77499389648438 58.729400634765625 198.32200622558594 30.216699600219727 207.9929962158203" stroke-width="3.0" fill="none" stroke="rgb(0, 255, 0)" stroke-opacity="1" stroke-linecap="round" stroke-linejoin="round"/>
    <path d="M 139.41900634765625 204.0 C 165.54200744628906 185.6739959716797 149.83099365234375 224.4340057373047 203.54100036621094 198.26300048828125" stroke-width="3.0" fill="none" stroke="rgb(0, 0, 255)" stroke-opacity="1" stroke-linecap="round" stroke-linejoin="round"/>
    <path d="M 161.74200439453125 216.0 C 153.36399841308594 210.51199340820312 150.91900634765625 217.406005859375 132.01100158691406 207.41700744628906" stroke-width="3.0" fill="none" stroke="rgb(0, 0, 255)" stroke-opacity="1" stroke-linecap="round" stroke-linejoin="round"/>
    <path d="M 56.31159973144531 181.98899841308594 C 59.11579895019531 163.42999267578125 32.40850067138672 168.83900451660156 133.468994140625 169.04100036621094" stroke-width="3.0" fill="none" stroke="rgb(0, 255, 0)" stroke-opacity="1" stroke-linecap="round" stroke-linejoin="round"/>
    <path d="M 77.6874008178711 119.51000213623047 C 99.12129974365234 146.74899291992188 66.94129943847656 136.50999450683594 57.37350082397461 131.36900329589844" stroke-width="3.0" fill="none" stroke="rgb(255, 0, 0)" stroke-opacity="1" stroke-linecap="round" stroke-linejoin="round"/>
    <path d="M 218.99000549316406 212.125 C 257.37298583984375 182.0260009765625 196.1179962158203 158.44400024414062 221.09300231933594 189.56100463867188" stroke-width="3.0" fill="none" stroke="rgb(0, 0, 255)" stroke-opacity="1" stroke-linecap="round" stroke-linejoin="round"/>
    <path d="M 81.081298828125 159.34800720214844 C 165.15199279785156 166.02200317382812 111.71199798583984 145.12399291992188 142.83900451660156 199.6820068359375" stroke-width="3.0" fill="none" stroke="rgb(0, 255, 0)" stroke-opacity="1" stroke-linecap="round" stroke-linejoin="round"/>
    <path d="M 176.05499267578125 86.06580352783203 C 177.9029998779297 67.98780059814453 174.2050018310547 70.83540344238281 174.99600219726562 58.9109001159668" stroke-width="3.0" fill="none" stroke="rgb(0, 0, 255)" stroke-opacity="1" stroke-linecap="round" stroke-linejoin="round"/>
    <path d="M 61.02159881591797 208.33299255371094 C 36.94430160522461 207.177001953125 86.70800018310547 204.96499633789062 121.65299987792969 203.2469940185547" stroke-width="3.0" fill="none" stroke="rgb(0, 255, 0)" stroke-opacity="1" stroke-linecap="round" stroke-linejoin="round"/>
    <path d="M 88.80359649658203 158.44700622558594 C 98.98490142822266 134.177001953125 105.6989974975586 137.04299926757812 54.212501525878906 139.8000030517578" stroke-width="3.0" fill="none" stroke="rgb(255, 0, 0)" stroke-opacity="1" stroke-linecap="round" stroke-linejoin="round"/>
    <path d="M 58.06039810180664 124.42500305175781 C 62.51259994506836 157.58299255371094 64.80590057373047 112.072998046875 57.705101013183594 117.89800262451172" stroke-width="3.0" fill="none" stroke="rgb(255, 0, 0)" stroke-opacity="1" stroke-linecap="round" stroke-linejoin="round"/>
    <path d="M 146.71499633789062 92.11519622802734 C 161.19900512695312 98.61799621582031 134.7449951171875 104.68800354003906 167.21800231933594 94.27220153808594" stroke-width="3.0" fill="none" stroke="rgb(0, 0, 255)" stroke-opacity="1" stroke-linecap="round" stroke-linejoin="round"/>
    <path d="M 121.25199890136719 180.9320068359375 C 40.852901458740234 180.3280029296875 61.47529983520508 176.40499877929688 54.76890182495117 185.4550018310547" stroke-width="3.0" fill="none" stroke="rgb(0, 255, 0)" stroke-opacity="1" stroke-linecap="round" stroke-linejoin="round"/>
    <path d="M 102.65699768066406 153.26499938964844 C 112.68699645996094 139.73599243164062 164.7899932861328 131.43499755859375 104.97000122070312 147.91400146484375" stroke-width="3.0" fill="none" stroke="rgb(0, 0, 255)" stroke-opacity="1" stroke-linecap="round" stroke-linejoin="round"/>
    <path d="M 95.16000366210938 155.69400024414062 C 103.75499725341797 145.43299865722656 44.0620002746582 173.50900268554688 54.53630065917969 136.7449951171875" stroke-width="3.0" fill="none" stroke="rgb(255, 0, 0)" stroke-opacity="1" stroke-linecap="round" stroke-linejoin="round"/>
    <path d="M 119.29499816894531 157.5189971923828 C 104.5780029296875 131.3090057373047 160.66600036621094 121.81400299072266 151.656005859375 184.01100158691406" stroke-width="3.0" fill="none" stroke="rgb(0, 0, 255)" stroke-opacity="1" stroke-linecap="round" stroke-linejoin="round"/>
    <path d="M 98.01339721679688 160.99400329589844 C 105.2699966430664 135.41400146484375 93.64440155029297 154.31399536132812 104.38899993896484 161.06300354003906" stroke-width="3.0" fill="none" stroke="rgb(0, 0, 255)" stroke-opacity="1" stroke-linecap="round" stroke-linejoin="round"/>
    <path d="M 107.0510025024414 154.2830047607422 C 97.6229019165039 140.4669952392578 119.68000030517578 165.39999389648438 105.302001953125 159.47900390625" stroke-width="3.0" fill="none" stroke="rgb(0, 0, 255)" stroke-opacity="1" stroke-linecap="round" stroke-linejoin="round"/>
    <path d="M 50.12189865112305 212.17999267578125 C 78.53109741210938 205.80499267578125 7.962480068206787 205.61300659179688 28.97100067138672 207.10299682617188" stroke-width="3.0" fill="none" stroke="rgb(0, 255, 0)" stroke-opacity="1" stroke-linecap="round" stroke-linejoin="round"/>
    <path d="M 56.376399993896484 168.80599975585938 C 55.03390121459961 174.88400268554688 60.58219909667969 159.22000122070312 58.10089874267578 181.0279998779297" stroke-width="3.0" fill="none" stroke="rgb(0, 255, 0)" stroke-opacity="1" stroke-linecap="round" stroke-linejoin="round"/>
    <path d="M 140.12600708007812 90.74459838867188 C 149.01600646972656 117.91100311279297 182.02699279785156 70.33110046386719 154.39199829101562 133.8260040283203" stroke-width="3.0" fill="none" stroke="rgb(0, 0, 255)" stroke-opacity="1" stroke-linecap="round" stroke-linejoin="round"/>
    <path d="M 132.60899353027344 134.88400268554688 C 86.29090118408203 145.69200134277344 105.06900024414062 121.69300079345703 128.35299682617188 129.81100463867188" stroke-width="3.0" fill="none" stroke="rgb(0, 0, 255)" stroke-opacity="1" stroke-linecap="round" stroke-linejoin="round"/>
    <path d="M 105.33100128173828 134.781005859375 C 113.51799774169922 163.96400451660156 113.43199920654297 148.39599609375 105.28600311279297 159.447998046875" stroke-width="3.0" fill="none" stroke="rgb(0, 0, 255)" stroke-opacity="1" stroke-linecap="round" stroke-linejoin="round"/>
    <path d="M 142.33299255371094 74.6626968383789 C 138.41200256347656 45.8120002746582 184.79800415039062 47.969398498535156 186.91799926757812 56.247398376464844" stroke-width="3.0" fill="none" stroke="rgb(0, 0, 255)" stroke-opacity="1" stroke-linecap="round" stroke-linejoin="round"/>
    <path d="M 198.37899780273438 199.46099853515625 C 210.9040069580078 181.8090057373047 198.36900329589844 160.72000122070312 199.22500610351562 151.843994140625" stroke-width="3.0" fill="none" stroke="rgb(0, 0, 255)" stroke-opacity="1" stroke-linecap="round" stroke-linejoin="round"/>
    <path d="M 109.58200073242188 156.4429931640625 C 80.08910369873047 162.7030029296875 161.1490020751953 154.406005859375 56.21950149536133 156.50399780273438" stroke-width="3.0" fill="none" stroke="rgb(0, 255, 0)" stroke-opacity="1" stroke-linecap="round" stroke-linejoin="round"/>
    <path d="M 176.33099365234375 81.0958023071289 C 172.39700317382812 112.322998046875 187.1020050048828 99.19860076904297 196.18099975585938 90.75550079345703" stroke-width="3.0" fill="none" stroke="rgb(0, 0, 255)" stroke-opacity="1" stroke-linecap="round" stroke-linejoin="round"/>
    <path d="M 171.9510040283203 52.957401275634766 C 180.25999450683594 48.775001525878906 180.34800720214844 55.11130142211914 180.91700744628906 52.59370040893555" stroke-width="3.0" fill="none" stroke="rgb(0, 0, 255)" stroke-opacity="1" stroke-linecap="round" stroke-linejoin="round"/>
    <path d="M 138.00799560546875 104.4990005493164 C 103.58300018310547 128.11900329589844 174.66900634765625 147.91600036621094 105.46099853515625 141.66000366210938" stroke-width="3.0" fill="none" stroke="rgb(0, 0, 255)" stroke-opacity="1" stroke-linecap="round" stroke-linejoin="round"/>
    <path d="M 78.10209655761719 119.80699920654297 C 63.028099060058594 123.82099914550781 97.80400085449219 130.91799926757812 52.34700012207031 143.1510009765625" stroke-width="3.0" fill="none" stroke="rgb(255, 0, 0)" stroke-opacity="1" stroke-linecap="round" stroke-linejoin="round"/>
    <path d="M 106.16300201416016 153.84500122070312 C 123.41400146484375 166.47300720214844 79.39399719238281 147.2830047607422 121.21299743652344 143.03199768066406" stroke-width="3.0" fill="none" stroke="rgb(0, 0, 255)" stroke-opacity="1" stroke-linecap="round" stroke-linejoin="round"/>
    <path d="M 114.78600311279297 157.8040008544922 C 133.34500122070312 122.85800170898438 135.11500549316406 86.30960083007812 124.81300354003906 115.90299987792969" stroke-width="3.0" fill="none" stroke="rgb(0, 0, 255)" stroke-opacity="1" stroke-linecap="round" stroke-linejoin="round"/>
    <path d="M 226.86900329589844 210.86900329589844 C 134.54100036621094 216.83200073242188 161.30099487304688 214.75100708007812 174.0590057373047 215.14199829101562" stroke-width="3.0" fill="none" stroke="rgb(0, 0, 255)" stroke-opacity="1" stroke-linecap="round" stroke-linejoin="round"/>
    <path d="M 145.02699279785156 83.17320251464844 C 126.77999877929688 107.5459976196289 149.71800231933594 94.89849853515625 162.16799926757812 96.67070007324219" stroke-width="3.0" fill="none" stroke="rgb(0, 0, 255)" stroke-opacity="1" stroke-linecap="round" stroke-linejoin="round"/>
    <path d="M 144.66799926757812 74.55670166015625 C 155.96200561523438 70.78569793701172 133.7310028076172 73.9281005859375 142.32000732421875 93.72889709472656" stroke-width="3.0" fill="none" stroke="rgb(0, 0, 255)" stroke-opacity="1" stroke-linecap="round" stroke-linejoin="round"/>
    <path d="M 137.01499938964844 141.4770050048828 C 118.08399963378906 135.70700073242188 94.66380310058594 82.0071029663086 156.7100067138672 137.61000061035156" stroke-width="3.0" fill="none" stroke="rgb(0, 0, 255)" stroke-opacity="1" stroke-linecap="round" stroke-linejoin="round"/>
    <path d="M 196.4199981689453 113.89099884033203 C 202.34800720214844 133.41000366210938 195.1009979248047 148.14599609375 201.88499450683594 164.26400756835938" stroke-width="3.0" fill="none" stroke="rgb(0, 0, 255)" stroke-opacity="1" stroke-linecap="round" stroke-linejoin="round"/>
    <path d="M 187.63600158691406 57.55379867553711 C 195.3209991455078 86.25430297851562 203.7519989013672 81.93679809570312 191.96499633789062 100.72699737548828" stroke-width="3.0" fill="none" stroke="rgb(0, 0, 255)" stroke-opacity="1" stroke-linecap="round" stroke-linejoin="round"/>
    <path d="M 150.7519989013672 54.84000015258789 C 166.61399841308594 56.89609909057617 162.0989990234375 46.92580032348633 176.89700317382812 50.979698181152344" stroke-width="3.0" fill="none" stroke="rgb(0, 0, 255)" stroke-opacity="1" stroke-linecap="round" stroke-linejoin="round"/>
    <path d="M 130.50799560546875 165.49099731445312 C 28.913299560546875 167.55599975585938 51.00490188598633 172.67300415039062 47.69070053100586 160.58599853515625" stroke-width="3.0" fill="none" stroke="rgb(0, 255, 0)" stroke-opacity="1" stroke-linecap="round" stroke-linejoin="round"/>
    <path d="M 164.6999969482422 69.87670135498047 C 159.52000427246094 75.51589965820312 159.2790069580078 66.22560119628906 162.7010040283203 69.5988998413086" stroke-width="3.0" fill="none" stroke="rgb(0, 0, 255)" stroke-opacity="1" stroke-linecap="round" stroke-linejoin="round"/>
  </g>
</svg>
