<?xml version="1.0" ?>
<svg xmlns="http://www.w3.org/2000/svg" version="1.1" width="256" height="256">
  <defs/>
  <g>
    <path d="M 123.25700378417969 172.64199829101562 C 141.9250030517578 158.38499450683594 139.39100646972656 172.9980010986328 150.1739959716797 171.2530059814453" stroke-width="2.0" fill="none" stroke="rgb(0, 0, 0)" stroke-opacity="1" stroke-linecap="round" stroke-linejoin="round"/>
    <path d="M 204.1269989013672 182.4080047607422 C 194.59300231933594 165.03599548339844 200.51600646972656 186.35800170898438 198.9459991455078 183.6479949951172" stroke-width="2.0" fill="none" stroke="rgb(0, 0, 0)" stroke-opacity="1" stroke-linecap="round" stroke-linejoin="round"/>
    <path d="M 191.48699951171875 172.71499633789062 C 184.21499633789062 180.6230010986328 179.13499450683594 177.1649932861328 203.60000610351562 185.3990020751953" stroke-width="2.0" fill="none" stroke="rgb(0, 0, 0)" stroke-opacity="1" stroke-linecap="round" stroke-linejoin="round"/>
    <path d="M 101.59300231933594 168.49899291992188 C 50.74509811401367 167.26600646972656 56.00379943847656 150.04299926757812 100.80400085449219 163.4929962158203" stroke-width="2.0" fill="none" stroke="rgb(0, 0, 0)" stroke-opacity="1" stroke-linecap="round" stroke-linejoin="round"/>
    <path d="M 148.3509979248047 169.40499877929688 C 158.4080047607422 141.02000427246094 144.6510009765625 178.5489959716797 124.78600311279297 143.3350067138672" stroke-width="2.0" fill="none" stroke="rgb(0, 0, 0)" stroke-opacity="1" stroke-linecap="round" stroke-linejoin="round"/>
    <path d="M 122.65299987792969 171.67599487304688 C 124.02999877929688 187.6649932861328 145.83700561523438 185.29100036621094 123.71299743652344 173.4459991455078" stroke-width="2.0" fill="none" stroke="rgb(0, 0, 0)" stroke-opacity="1" stroke-linecap="round" stroke-linejoin="round"/>
    <path d="M 138.05599975585938 158.18600463867188 C 136.72000122070312 142.75799560546875 132.98899841308594 165.0260009765625 149.3509979248047 153.2220001220703" stroke-width="2.0" fill="none" stroke="rgb(0, 0, 0)" stroke-opacity="1" stroke-linecap="round" stroke-linejoin="round"/>
    <path d="M 74.5457992553711 149.27000427246094 C 58.87919998168945 173.4459991455078 51.680301666259766 166.94000244140625 67.82659912109375 151.23699951171875" stroke-width="2.0" fill="none" stroke="rgb(0, 0, 0)" stroke-opacity="1" stroke-linecap="round" stroke-linejoin="round"/>
    <path d="M 66.20590209960938 157.3419952392578 C 48.662498474121094 182.84300231933594 74.46019744873047 179.46299743652344 60.10129928588867 173.85699462890625" stroke-width="2.0" fill="none" stroke="rgb(0, 0, 0)" stroke-opacity="1" stroke-linecap="round" stroke-linejoin="round"/>
    <path d="M 68.58439636230469 132.4709930419922 C 35.47460174560547 161.97300720214844 25.040700912475586 180.98399353027344 62.10179901123047 140.21499633789062" stroke-width="2.0" fill="none" stroke="rgb(0, 0, 0)" stroke-opacity="1" stroke-linecap="round" stroke-linejoin="round"/>
    <path d="M 202.42999267578125 180.05999755859375 C 198.39100646972656 192.00900268554688 221.46499633789062 182.78700256347656 213.19700622558594 178.70199584960938" stroke-width="2.0" fill="none" stroke="rgb(0, 0, 0)" stroke-opacity="1" stroke-linecap="round" stroke-linejoin="round"/>
    <path d="M 134.13499450683594 147.11599731445312 C 171.21299743652344 176.13699340820312 145.02999877929688 166.37899780273438 155.20199584960938 145.0279998779297" stroke-width="2.0" fill="none" stroke="rgb(0, 0, 0)" stroke-opacity="1" stroke-linecap="round" stroke-linejoin="round"/>
    <path d="M 88.88269805908203 165.14700317382812 C 124.56400299072266 161.86599731445312 105.97899627685547 187.3979949951172 125.8010025024414 180.75999450683594" stroke-width="2.0" fill="none" stroke="rgb(0, 0, 0)" stroke-opacity="1" stroke-linecap="round" stroke-linejoin="round"/>
    <path d="M 211.21600341796875 179.05799865722656 C 204.47799682617188 183.89599609375 210.2209930419922 176.8800048828125 208.19500732421875 180.18600463867188" stroke-width="2.0" fill="none" stroke="rgb(0, 0, 0)" stroke-opacity="1" stroke-linecap="round" stroke-linejoin="round"/>
    <path d="M 122.66899871826172 142.61000061035156 C 99.43509674072266 139.87600708007812 117.71900177001953 133.3459930419922 72.53910064697266 129.43600463867188" stroke-width="2.0" fill="none" stroke="rgb(0, 0, 0)" stroke-opacity="1" stroke-linecap="round" stroke-linejoin="round"/>
    <path d="M 73.10250091552734 133.39300537109375 C 41.83789825439453 145.36700439453125 69.06169891357422 140.5330047607422 67.84410095214844 162.99400329589844" stroke-width="2.0" fill="none" stroke="rgb(0, 0, 0)" stroke-opacity="1" stroke-linecap="round" stroke-linejoin="round"/>
    <path d="M 47.45920181274414 151.60000610351562 C 60.88560104370117 129.9759979248047 81.92430114746094 123.54299926757812 70.68689727783203 142.27200317382812" stroke-width="2.0" fill="none" stroke="rgb(0, 0, 0)" stroke-opacity="1" stroke-linecap="round" stroke-linejoin="round"/>
    <path d="M 201.5070037841797 181.14199829101562 C 189.94400024414062 171.8520050048828 190.71400451660156 176.8939971923828 202.15499877929688 184.39300537109375" stroke-width="2.0" fill="none" stroke="rgb(0, 0, 0)" stroke-opacity="1" stroke-linecap="round" stroke-linejoin="round"/>
    <path d="M 91.76360321044922 167.16600036621094 C 41.899898529052734 158.2239990234375 80.10569763183594 161.5019989013672 61.17409896850586 162.66400146484375" stroke-width="2.0" fill="none" stroke="rgb(0, 0, 0)" stroke-opacity="1" stroke-linecap="round" stroke-linejoin="round"/>
    <path d="M 195.1510009765625 179.9669952392578 C 200.95199584960938 174.8780059814453 188.11000061035156 191.86399841308594 204.031005859375 182.93699645996094" stroke-width="2.0" fill="none" stroke="rgb(0, 0, 0)" stroke-opacity="1" stroke-linecap="round" stroke-linejoin="round"/>
    <path d="M 66.04789733886719 165.16299438476562 C 92.64409637451172 185.60400390625 72.81809997558594 184.99600219726562 75.98210144042969 152.83599853515625" stroke-width="2.0" fill="none" stroke="rgb(0, 0, 0)" stroke-opacity="1" stroke-linecap="round" stroke-linejoin="round"/>
    <path d="M 89.14739990234375 177.43499755859375 C 65.75669860839844 178.36099243164062 94.82379913330078 140.56500244140625 70.2229995727539 164.91299438476562" stroke-width="2.0" fill="none" stroke="rgb(0, 0, 0)" stroke-opacity="1" stroke-linecap="round" stroke-linejoin="round"/>
    <path d="M 62.15879821777344 179.1999969482422 C 60.10260009765625 158.04600524902344 72.056396484375 143.72999572753906 58.55419921875 173.79600524902344" stroke-width="2.0" fill="none" stroke="rgb(0, 0, 0)" stroke-opacity="1" stroke-linecap="round" stroke-linejoin="round"/>
    <path d="M 68.65170288085938 154.87399291992188 C 85.97769927978516 170.9199981689453 92.70279693603516 153.97500610351562 115.38999938964844 172.46400451660156" stroke-width="2.0" fill="none" stroke="rgb(0, 0, 0)" stroke-opacity="1" stroke-linecap="round" stroke-linejoin="round"/>
    <path d="M 125.05400085449219 143.73500061035156 C 154.2100067138672 164.25799560546875 126.73999786376953 141.06399536132812 135.63600158691406 148.89700317382812" stroke-width="2.0" fill="none" stroke="rgb(0, 0, 0)" stroke-opacity="1" stroke-linecap="round" stroke-linejoin="round"/>
    <path d="M 59.52880096435547 140.02200317382812 C 71.14900207519531 170.50399780273438 77.29859924316406 179.73300170898438 74.78389739990234 143.93099975585938" stroke-width="2.0" fill="none" stroke="rgb(0, 0, 0)" stroke-opacity="1" stroke-linecap="round" stroke-linejoin="round"/>
    <path d="M 77.90589904785156 158.05099487304688 C 82.54119873046875 125.15299987792969 76.75579833984375 127.99299621582031 56.879798889160156 140.74600219726562" stroke-width="2.0" fill="none" stroke="rgb(0, 0, 0)" stroke-opacity="1" stroke-linecap="round" stroke-linejoin="round"/>
    <path d="M 65.4677963256836 154.8719940185547 C 107.09700012207031 168.5030059814453 56.50669860839844 169.7729949951172 85.54869842529297 180.58099365234375" stroke-width="2.0" fill="none" stroke="rgb(0, 0, 0)" stroke-opacity="1" stroke-linecap="round" stroke-linejoin="round"/>
    <path d="M 88.6427993774414 179.51199340820312 C 40.99549865722656 143.6490020751953 68.24130249023438 170.5019989013672 75.17549896240234 132.48800659179688" stroke-width="2.0" fill="none" stroke="rgb(0, 0, 0)" stroke-opacity="1" stroke-linecap="round" stroke-linejoin="round"/>
    <path d="M 62.68339920043945 147.70899963378906 C 63.92729949951172 132.02099609375 78.22270202636719 127.26100158691406 58.983001708984375 139.28700256347656" stroke-width="2.0" fill="none" stroke="rgb(0, 0, 0)" stroke-opacity="1" stroke-linecap="round" stroke-linejoin="round"/>
    <path d="M 60.246299743652344 138.56300354003906 C 78.002197265625 145.96499633789062 73.47139739990234 154.4669952392578 77.62590026855469 131.00599670410156" stroke-width="2.0" fill="none" stroke="rgb(0, 0, 0)" stroke-opacity="1" stroke-linecap="round" stroke-linejoin="round"/>
    <path d="M 59.052398681640625 147.7030029296875 C 34.450599670410156 176.86900329589844 17.413299560546875 167.0399932861328 16.358200073242188 163.96200561523438" stroke-width="2.0" fill="none" stroke="rgb(0, 0, 0)" stroke-opacity="1" stroke-linecap="round" stroke-linejoin="round"/>
    <path d="M 201.0330047607422 173.9239959716797 C 203.906005859375 191.218994140625 202.906005859375 178.43899536132812 208.83599853515625 180.90899658203125" stroke-width="2.0" fill="none" stroke="rgb(0, 0, 0)" stroke-opacity="1" stroke-linecap="round" stroke-linejoin="round"/>
    <path d="M 77.28250122070312 162.42999267578125 C 130.19200134277344 173.35000610351562 108.14600372314453 167.99899291992188 68.86309814453125 156.37600708007812" stroke-width="2.0" fill="none" stroke="rgb(0, 0, 0)" stroke-opacity="1" stroke-linecap="round" stroke-linejoin="round"/>
    <path d="M 63.119598388671875 148.3699951171875 C 64.24960327148438 117.12699890136719 85.57209777832031 130.16200256347656 98.53520202636719 133.81399536132812" stroke-width="2.0" fill="none" stroke="rgb(0, 0, 0)" stroke-opacity="1" stroke-linecap="round" stroke-linejoin="round"/>
    <path d="M 129.24200439453125 176.66400146484375 C 109.33399963378906 170.08299255371094 154.6179962158203 195.12399291992188 124.8550033569336 174.75999450683594" stroke-width="2.0" fill="none" stroke="rgb(0, 0, 0)" stroke-opacity="1" stroke-linecap="round" stroke-linejoin="round"/>
    <path d="M 75.89540100097656 174.0850067138672 C 59.356998443603516 148.34300231933594 53.05400085449219 151.01199340820312 85.1937026977539 179.30999755859375" stroke-width="2.0" fill="none" stroke="rgb(0, 0, 0)" stroke-opacity="1" stroke-linecap="round" stroke-linejoin="round"/>
    <path d="M 126.10800170898438 147.8459930419922 C 139.73599243164062 162.55799865722656 136.3159942626953 163.88400268554688 137.83399963378906 150.4149932861328" stroke-width="2.0" fill="none" stroke="rgb(0, 0, 0)" stroke-opacity="1" stroke-linecap="round" stroke-linejoin="round"/>
    <path d="M 66.38089752197266 148.80299377441406 C 43.60300064086914 189.28199768066406 72.43879699707031 180.33599853515625 64.44010162353516 176.40699768066406" stroke-width="2.0" fill="none" stroke="rgb(0, 0, 0)" stroke-opacity="1" stroke-linecap="round" stroke-linejoin="round"/>
    <path d="M 189.3990020751953 175.072998046875 C 201.28199768066406 201.8300018310547 179.89599609375 175.4199981689453 203.0590057373047 178.85499572753906" stroke-width="2.0" fill="none" stroke="rgb(0, 0, 0)" stroke-opacity="1" stroke-linecap="round" stroke-linejoin="round"/>
    <path d="M 73.65630340576172 168.01699829101562 C 72.30740356445312 122.947998046875 66.55580139160156 131.927001953125 64.21050262451172 158.30299377441406" stroke-width="2.0" fill="none" stroke="rgb(0, 0, 0)" stroke-opacity="1" stroke-linecap="round" stroke-linejoin="round"/>
    <path d="M 150.45799255371094 171.58900451660156 C 158.84300231933594 162.64999389648438 138.22300720214844 159.26800537109375 155.03399658203125 145.31199645996094" stroke-width="2.0" fill="none" stroke="rgb(0, 0, 0)" stroke-opacity="1" stroke-linecap="round" stroke-linejoin="round"/>
    <path d="M 16.0 162.2519989013672 C 24.71579933166504 170.33099365234375 47.04410171508789 161.14300537109375 68.83719635009766 137.9340057373047" stroke-width="2.0" fill="none" stroke="rgb(0, 0, 0)" stroke-opacity="1" stroke-linecap="round" stroke-linejoin="round"/>
    <path d="M 82.29149627685547 168.15499877929688 C 74.4656982421875 137.0469970703125 78.83100128173828 117.87999725341797 75.7218017578125 146.0290069580078" stroke-width="2.0" fill="none" stroke="rgb(0, 0, 0)" stroke-opacity="1" stroke-linecap="round" stroke-linejoin="round"/>
    <path d="M 64.90619659423828 137.73899841308594 C 82.79560089111328 160.40199279785156 79.40609741210938 177.70199584960938 67.55449676513672 145.0070037841797" stroke-width="2.0" fill="none" stroke="rgb(0, 0, 0)" stroke-opacity="1" stroke-linecap="round" stroke-linejoin="round"/>
    <path d="M 60.34230041503906 161.6199951171875 C 95.34120178222656 160.4709930419922 70.831298828125 160.27000427246094 59.418399810791016 140.7899932861328" stroke-width="2.0" fill="none" stroke="rgb(0, 0, 0)" stroke-opacity="1" stroke-linecap="round" stroke-linejoin="round"/>
    <path d="M 31.277099609375 165.6719970703125 C 74.53299713134766 140.23399353027344 75.09400177001953 123.8030014038086 41.64250183105469 161.05299377441406" stroke-width="2.0" fill="none" stroke="rgb(0, 0, 0)" stroke-opacity="1" stroke-linecap="round" stroke-linejoin="round"/>
    <path d="M 20.783100128173828 165.718994140625 C 40.28200149536133 173.01499938964844 80.90730285644531 127.85199737548828 27.78350067138672 165.70700073242188" stroke-width="2.0" fill="none" stroke="rgb(0, 0, 0)" stroke-opacity="1" stroke-linecap="round" stroke-linejoin="round"/>
    <path d="M 148.31100463867188 160.39599609375 C 129.54600524902344 162.56700134277344 141.6300048828125 142.22999572753906 113.74800109863281 140.32699584960938" stroke-width="2.0" fill="none" stroke="rgb(0, 0, 0)" stroke-opacity="1" stroke-linecap="round" stroke-linejoin="round"/>
    <path d="M 132.0489959716797 165.41600036621094 C 130.77200317382812 175.16000366210938 114.08000183105469 163.2760009765625 136.56700134277344 180.88299560546875" stroke-width="2.0" fill="none" stroke="rgb(0, 0, 0)" stroke-opacity="1" stroke-linecap="round" stroke-linejoin="round"/>
    <path d="M 192.42300415039062 177.71600341796875 C 188.70199584960938 184.88600158691406 188.27099609375 166.2790069580078 200.95899963378906 186.63600158691406" stroke-width="2.0" fill="none" stroke="rgb(0, 0, 0)" stroke-opacity="1" stroke-linecap="round" stroke-linejoin="round"/>
    <path d="M 72.85320281982422 166.07000732421875 C 70.00890350341797 162.66600036621094 78.61810302734375 189.1909942626953 90.08460235595703 178.1999969482422" stroke-width="2.0" fill="none" stroke="rgb(0, 0, 0)" stroke-opacity="1" stroke-linecap="round" stroke-linejoin="round"/>
    <path d="M 72.39340209960938 129.60000610351562 C 69.3042984008789 159.97900390625 42.64149856567383 152.16099548339844 79.69110107421875 129.1929931640625" stroke-width="2.0" fill="none" stroke="rgb(0, 0, 0)" stroke-opacity="1" stroke-linecap="round" stroke-linejoin="round"/>
    <path d="M 68.36759948730469 137.94000244140625 C 69.82469940185547 167.1479949951172 50.94919967651367 144.03599548339844 59.263999938964844 177.27999877929688" stroke-width="2.0" fill="none" stroke="rgb(0, 0, 0)" stroke-opacity="1" stroke-linecap="round" stroke-linejoin="round"/>
    <path d="M 60.71149826049805 168.22999572753906 C 75.69640350341797 162.73800659179688 73.98650360107422 148.77499389648438 62.62620162963867 134.8730010986328" stroke-width="2.0" fill="none" stroke="rgb(0, 0, 0)" stroke-opacity="1" stroke-linecap="round" stroke-linejoin="round"/>
    <path d="M 204.1219940185547 181.7570037841797 C 184.58799743652344 173.23300170898438 201.15899658203125 171.07699584960938 194.92100524902344 187.9980010986328" stroke-width="2.0" fill="none" stroke="rgb(0, 0, 0)" stroke-opacity="1" stroke-linecap="round" stroke-linejoin="round"/>
    <path d="M 128.2519989013672 151.5260009765625 C 131.36300659179688 145.30299377441406 169.072998046875 170.83700561523438 129.22999572753906 148.80099487304688" stroke-width="2.0" fill="none" stroke="rgb(0, 0, 0)" stroke-opacity="1" stroke-linecap="round" stroke-linejoin="round"/>
    <path d="M 156.39100646972656 158.3040008544922 C 125.50900268554688 151.29299926757812 140.83399963378906 135.1929931640625 133.48300170898438 152.75" stroke-width="2.0" fill="none" stroke="rgb(0, 0, 0)" stroke-opacity="1" stroke-linecap="round" stroke-linejoin="round"/>
    <path d="M 148.4709930419922 166.96499633789062 C 154.05999755859375 152.62399291992188 143.61700439453125 150.5850067138672 136.43499755859375 154.5030059814453" stroke-width="2.0" fill="none" stroke="rgb(0, 0, 0)" stroke-opacity="1" stroke-linecap="round" stroke-linejoin="round"/>
    <path d="M 150.40499877929688 165.25100708007812 C 112.65899658203125 141.80799865722656 171.96800231933594 148.98899841308594 150.97900390625 170.947998046875" stroke-width="2.0" fill="none" stroke="rgb(0, 0, 0)" stroke-opacity="1" stroke-linecap="round" stroke-linejoin="round"/>
    <path d="M 67.39350128173828 156.29299926757812 C 82.6438980102539 128.781005859375 78.589599609375 111.63200378417969 38.199501037597656 161.13800048828125" stroke-width="2.0" fill="none" stroke="rgb(0, 0, 0)" stroke-opacity="1" stroke-linecap="round" stroke-linejoin="round"/>
    <path d="M 210.89500427246094 178.8489990234375 C 199.43099975585938 176.11700439453125 210.36000061035156 200.0749969482422 202.56399536132812 175.0500030517578" stroke-width="2.0" fill="none" stroke="rgb(0, 0, 0)" stroke-opacity="1" stroke-linecap="round" stroke-linejoin="round"/>
    <path d="M 150.48500061035156 170.86900329589844 C 127.85600280761719 136.64700317382812 132.42100524902344 139.66700744628906 149.4219970703125 163.91600036621094" stroke-width="2.0" fill="none" stroke="rgb(0, 0, 0)" stroke-opacity="1" stroke-linecap="round" stroke-linejoin="round"/>
  </g>
</svg>
