<svg height="256" version="1.1" width="256" xmlns="http://www.w3.org/2000/svg">
  <defs/>
  <g>
    <path d="M180.297 145.141C154.25 119.609 181.71 125.814 169.883 147.925" fill="none" stroke="rgb(255, 0, 0)" stroke-linecap="round" stroke-linejoin="round" stroke-opacity="1.0" stroke-width="2"/>
    <path d="M173.896 174.859C150.4 141.196 154.991 138.911 141.438 143.213" fill="none" stroke="rgb(255, 0, 0)" stroke-linecap="round" stroke-linejoin="round" stroke-opacity="1.0" stroke-width="2"/>
    <path d="M141.381 156.181C130.464 147.13 144.682 140.376 142.093 166.421" fill="none" stroke="rgb(255, 0, 0)" stroke-linecap="round" stroke-linejoin="round" stroke-opacity="1.0" stroke-width="2"/>
    <path d="M107.451 171.34C77.5605 121.11 104.444 149.165 87.4295 119.008" fill="none" stroke="rgb(255, 0, 0)" stroke-linecap="round" stroke-linejoin="round" stroke-opacity="1.0" stroke-width="2"/>
    <path d="M170.558 118.655C179.306 130.005 174.25 126.264 185.279 144.993" fill="none" stroke="rgb(255, 0, 0)" stroke-linecap="round" stroke-linejoin="round" stroke-opacity="1.0" stroke-width="2"/>
    <path d="M173.965 150.66C187.85 175.811 190.903 181.565 156.22 160.057" fill="none" stroke="rgb(255, 0, 0)" stroke-linecap="round" stroke-linejoin="round" stroke-opacity="1.0" stroke-width="2"/>
    <path d="M166.741 176.331C151.001 139.159 160.35 152.558 179.689 170.687" fill="none" stroke="rgb(255, 0, 0)" stroke-linecap="round" stroke-linejoin="round" stroke-opacity="1.0" stroke-width="2"/>
    <path d="M101.32 131.017C63.1309 116.364 85.2748 106.382 87.5914 136.213" fill="none" stroke="rgb(255, 0, 0)" stroke-linecap="round" stroke-linejoin="round" stroke-opacity="1.0" stroke-width="2"/>
    <path d="M166.316 148.797C199.999 135.347 187.657 142.141 172.99 131.663" fill="none" stroke="rgb(255, 0, 0)" stroke-linecap="round" stroke-linejoin="round" stroke-opacity="1.0" stroke-width="2"/>
    <path d="M134.333 158.552C162.429 122.052 130.657 139.116 147.307 169.923" fill="none" stroke="rgb(255, 0, 0)" stroke-linecap="round" stroke-linejoin="round" stroke-opacity="1.0" stroke-width="2"/>
    <path d="M181.334 152.13C181.547 175.119 182.624 183.107 183.581 160.824" fill="none" stroke="rgb(255, 0, 0)" stroke-linecap="round" stroke-linejoin="round" stroke-opacity="1.0" stroke-width="2"/>
    <path d="M111.738 77.29C115.854 67.0072 125.583 69.08 121.273 68.989" fill="none" stroke="rgb(255, 0, 0)" stroke-linecap="round" stroke-linejoin="round" stroke-opacity="1.0" stroke-width="2"/>
    <path d="M70.6657 71.946C68.7213 69.132 64.0359 93.305 65.1577 72.84" fill="none" stroke="rgb(255, 0, 0)" stroke-linecap="round" stroke-linejoin="round" stroke-opacity="1.0" stroke-width="2"/>
    <path d="M84.2175 54.0877C113.788 52.8829 118.067 64.5105 122.233 63.0614" fill="none" stroke="rgb(255, 0, 0)" stroke-linecap="round" stroke-linejoin="round" stroke-opacity="1.0" stroke-width="2"/>
    <path d="M178.768 152.99C167.587 151.465 162.935 132.204 154.553 158.544" fill="none" stroke="rgb(255, 0, 0)" stroke-linecap="round" stroke-linejoin="round" stroke-opacity="1.0" stroke-width="2"/>
    <path d="M170.557 141.888C147.114 155.332 168.061 173.561 180.93 152.923" fill="none" stroke="rgb(255, 0, 0)" stroke-linecap="round" stroke-linejoin="round" stroke-opacity="1.0" stroke-width="2"/>
    <path d="M167.593 150.181C149.229 165.236 178.497 152.755 176.439 170.259" fill="none" stroke="rgb(255, 0, 0)" stroke-linecap="round" stroke-linejoin="round" stroke-opacity="1.0" stroke-width="2"/>
    <path d="M181.443 173.264C175.634 167.233 175.673 183.511 170.08 144.696" fill="none" stroke="rgb(255, 0, 0)" stroke-linecap="round" stroke-linejoin="round" stroke-opacity="1.0" stroke-width="2"/>
    <path d="M180.698 179C180.737 145.561 195.847 134.677 167.42 164.238" fill="none" stroke="rgb(255, 0, 0)" stroke-linecap="round" stroke-linejoin="round" stroke-opacity="1.0" stroke-width="2"/>
    <path d="M73.5637 117.54C66.248 143.089 62.6144 117.295 58.1535 156.469" fill="none" stroke="rgb(255, 0, 0)" stroke-linecap="round" stroke-linejoin="round" stroke-opacity="1.0" stroke-width="2"/>
    <path d="M84.155 96.363C93.4235 73.41 88.1735 76.372 97.8175 73.348" fill="none" stroke="rgb(255, 0, 0)" stroke-linecap="round" stroke-linejoin="round" stroke-opacity="1.0" stroke-width="2"/>
    <path d="M88.2404 147.614C108.369 181.909 97.5724 166.372 104.275 157.018" fill="none" stroke="rgb(255, 0, 0)" stroke-linecap="round" stroke-linejoin="round" stroke-opacity="1.0" stroke-width="2"/>
    <path d="M85.7603 70.484C76.9353 77.707 91.5345 71.239 77.6615 84.767" fill="none" stroke="rgb(255, 0, 0)" stroke-linecap="round" stroke-linejoin="round" stroke-opacity="1.0" stroke-width="2"/>
    <path d="M178.386 156.807C183.229 188.271 181.479 176.185 188.487 172.597" fill="none" stroke="rgb(255, 0, 0)" stroke-linecap="round" stroke-linejoin="round" stroke-opacity="1.0" stroke-width="2"/>
    <path d="M174.3 122.659C185.392 144.998 173.53 124.693 162.029 136.055" fill="none" stroke="rgb(255, 0, 0)" stroke-linecap="round" stroke-linejoin="round" stroke-opacity="1.0" stroke-width="2"/>
    <path d="M153.134 129.851C154.745 133.354 136.738 134.583 165.908 152.001" fill="none" stroke="rgb(255, 0, 0)" stroke-linecap="round" stroke-linejoin="round" stroke-opacity="1.0" stroke-width="2"/>
    <path d="M65.1106 74.651C57.474 145.119 55.8209 98.678 58.4168 135.388" fill="none" stroke="rgb(255, 0, 0)" stroke-linecap="round" stroke-linejoin="round" stroke-opacity="1.0" stroke-width="2"/>
    <path d="M141.199 170.929C127.593 149.553 137.204 186.914 129.959 146.105" fill="none" stroke="rgb(255, 0, 0)" stroke-linecap="round" stroke-linejoin="round" stroke-opacity="1.0" stroke-width="2"/>
    <path d="M106.368 128.558C94.3735 138.398 75.0806 127.552 113.036 132.166" fill="none" stroke="rgb(255, 0, 0)" stroke-linecap="round" stroke-linejoin="round" stroke-opacity="1.0" stroke-width="2"/>
    <path d="M148.421 134.733C153.664 137.982 126.336 170.488 126.027 129.211" fill="none" stroke="rgb(255, 0, 0)" stroke-linecap="round" stroke-linejoin="round" stroke-opacity="1.0" stroke-width="2"/>
    <path d="M67.2496 83.091C58.4092 60.27 81.8963 52.2246 84.545 55.3934" fill="none" stroke="rgb(255, 0, 0)" stroke-linecap="round" stroke-linejoin="round" stroke-opacity="1.0" stroke-width="2"/>
    <path d="M164.139 149.92C178.079 162.905 190.183 145.677 172.286 149.752" fill="none" stroke="rgb(255, 0, 0)" stroke-linecap="round" stroke-linejoin="round" stroke-opacity="1.0" stroke-width="2"/>
    <path d="M56.0078 155.732C67.5454 171.217 41.6114 158.704 59.5175 124.23" fill="none" stroke="rgb(255, 0, 0)" stroke-linecap="round" stroke-linejoin="round" stroke-opacity="1.0" stroke-width="2"/>
    <path d="M168.655 129.7C182.628 151.312 180.366 147.47 160.598 133.773" fill="none" stroke="rgb(255, 0, 0)" stroke-linecap="round" stroke-linejoin="round" stroke-opacity="1.0" stroke-width="2"/>
    <path d="M178.736 174.452C169.646 157.977 164.335 141.553 174.323 177.672" fill="none" stroke="rgb(255, 0, 0)" stroke-linecap="round" stroke-linejoin="round" stroke-opacity="1.0" stroke-width="2"/>
    <path d="M176.415 169.378C175.318 145.726 178.729 134.716 152.318 142.963" fill="none" stroke="rgb(255, 0, 0)" stroke-linecap="round" stroke-linejoin="round" stroke-opacity="1.0" stroke-width="2"/>
    <path d="M89.7735 115.429C93.6255 121.867 85.2364 113.25 89.2045 106.29" fill="none" stroke="rgb(255, 0, 0)" stroke-linecap="round" stroke-linejoin="round" stroke-opacity="1.0" stroke-width="2"/>
    <path d="M172.422 134.446C169.583 131.128 182.813 123.907 163.848 104.746" fill="none" stroke="rgb(255, 0, 0)" stroke-linecap="round" stroke-linejoin="round" stroke-opacity="1.0" stroke-width="2"/>
    <path d="M157.883 158.906C192.213 152.105 162.165 143.823 175.597 156.663" fill="none" stroke="rgb(255, 0, 0)" stroke-linecap="round" stroke-linejoin="round" stroke-opacity="1.0" stroke-width="2"/>
    <path d="M93.3585 78.227C93.8795 81.309 98.3845 67.6786 87.4555 72.836" fill="none" stroke="rgb(255, 0, 0)" stroke-linecap="round" stroke-linejoin="round" stroke-opacity="1.0" stroke-width="2"/>
    <path d="M175.032 167.997C153.455 166.089 165.689 151.924 159.858 138.37" fill="none" stroke="rgb(255, 0, 0)" stroke-linecap="round" stroke-linejoin="round" stroke-opacity="1.0" stroke-width="2"/>
    <path d="M74.3557 100.685C72.3833 86.89 78.1343 93.37 74.7597 83.708" fill="none" stroke="rgb(255, 0, 0)" stroke-linecap="round" stroke-linejoin="round" stroke-opacity="1.0" stroke-width="2"/>
    <path d="M65.9921 108.395C73.7105 91.884 59.4759 69.633 67.9446 81.137" fill="none" stroke="rgb(255, 0, 0)" stroke-linecap="round" stroke-linejoin="round" stroke-opacity="1.0" stroke-width="2"/>
    <path d="M79.5372 99.322C74.2195 119.716 83.6455 104.816 79.2136 120.508" fill="none" stroke="rgb(255, 0, 0)" stroke-linecap="round" stroke-linejoin="round" stroke-opacity="1.0" stroke-width="2"/>
    <path d="M157.55 84.504C175.194 127.194 164.673 114 167.291 121.386" fill="none" stroke="rgb(255, 0, 0)" stroke-linecap="round" stroke-linejoin="round" stroke-opacity="1.0" stroke-width="2"/>
    <path d="M155.471 139.075C167.825 160.121 157.218 136.125 171.301 136.893" fill="none" stroke="rgb(255, 0, 0)" stroke-linecap="round" stroke-linejoin="round" stroke-opacity="1.0" stroke-width="2"/>
    <path d="M77.4785 109.39C82.1463 120.113 62.114 130.701 73.959 120.574" fill="none" stroke="rgb(255, 0, 0)" stroke-linecap="round" stroke-linejoin="round" stroke-opacity="1.0" stroke-width="2"/>
    <path d="M102.297 71.574C97.3745 67.3443 80.1229 94.524 85.1698 78.319" fill="none" stroke="rgb(255, 0, 0)" stroke-linecap="round" stroke-linejoin="round" stroke-opacity="1.0" stroke-width="2"/>
    <path d="M155.815 92.8C151.691 91.291 147.724 96.279 141.108 111.007" fill="none" stroke="rgb(255, 0, 0)" stroke-linecap="round" stroke-linejoin="round" stroke-opacity="1.0" stroke-width="2"/>
    <path d="M108.736 99.708C116.63 90.509 106.33 92.374 115.909 84.353" fill="none" stroke="rgb(255, 0, 0)" stroke-linecap="round" stroke-linejoin="round" stroke-opacity="1.0" stroke-width="2"/>
    <path d="M181.091 145.94C186.934 141.003 186.803 155.121 171.405 158.711" fill="none" stroke="rgb(255, 0, 0)" stroke-linecap="round" stroke-linejoin="round" stroke-opacity="1.0" stroke-width="2"/>
    <path d="M129.967 139.669C115.248 124.148 117.046 93.766 120.017 94.186" fill="none" stroke="rgb(255, 0, 0)" stroke-linecap="round" stroke-linejoin="round" stroke-opacity="1.0" stroke-width="2"/>
    <path d="M135.721 160.694C102.351 114.379 136.321 145.358 100.412 127.868" fill="none" stroke="rgb(255, 0, 0)" stroke-linecap="round" stroke-linejoin="round" stroke-opacity="1.0" stroke-width="2"/>
    <path d="M141.313 94.825C133.167 105.692 142.315 99.72 133.873 116.483" fill="none" stroke="rgb(255, 0, 0)" stroke-linecap="round" stroke-linejoin="round" stroke-opacity="1.0" stroke-width="2"/>
    <path d="M84.9295 86.818C93.7795 94.808 85.0117 93.785 88.2685 104.909" fill="none" stroke="rgb(255, 0, 0)" stroke-linecap="round" stroke-linejoin="round" stroke-opacity="1.0" stroke-width="2"/>
    <path d="M157.264 82.301C149.446 77.241 158.321 71.925 121.954 62.8996" fill="none" stroke="rgb(255, 0, 0)" stroke-linecap="round" stroke-linejoin="round" stroke-opacity="1.0" stroke-width="2"/>
    <path d="M84.9448 136.69C96.2725 155.686 78.6031 148.17 86.6291 127.578" fill="none" stroke="rgb(255, 0, 0)" stroke-linecap="round" stroke-linejoin="round" stroke-opacity="1.0" stroke-width="2"/>
    <path d="M141.315 95.541C138.229 73.469 151.061 85.968 143.11 78.713" fill="none" stroke="rgb(255, 0, 0)" stroke-linecap="round" stroke-linejoin="round" stroke-opacity="1.0" stroke-width="2"/>
    <path d="M179.2 200.438C175.15 196.038 173.677 190.263 169.627 184.625" fill="none" stroke="rgb(0, 255, 0)" stroke-linecap="round" stroke-linejoin="round" stroke-opacity="1.0" stroke-width="1"/>
    <path d="M175.886 200.575C173.238 196.137 172.275 190.312 169.627 184.625" fill="none" stroke="rgb(0, 255, 0)" stroke-linecap="round" stroke-linejoin="round" stroke-opacity="1.0" stroke-width="1"/>
    <path d="M179.2 201.125C181.849 195.233 182.811 187.5 185.46 179.95" fill="none" stroke="rgb(0, 255, 0)" stroke-linecap="round" stroke-linejoin="round" stroke-opacity="1.0" stroke-width="1"/>
    <path d="M175.886 200.943C179.936 195.101 181.409 187.435 185.46 179.95" fill="none" stroke="rgb(0, 255, 0)" stroke-linecap="round" stroke-linejoin="round" stroke-opacity="1.0" stroke-width="1"/>
    <path d="M174.413 199.057C175.192 195.042 175.475 189.771 176.255 184.625" fill="none" stroke="rgb(0, 255, 0)" stroke-linecap="round" stroke-linejoin="round" stroke-opacity="1.0" stroke-width="1"/>
    <path d="M178.464 200.575C177.529 196.137 177.189 190.312 176.255 184.625" fill="none" stroke="rgb(0, 255, 0)" stroke-linecap="round" stroke-linejoin="round" stroke-opacity="1.0" stroke-width="1"/>
    <path d="M171.516 200.2C170.81 194.947 170.553 188.055 169.847 181.325" fill="none" stroke="rgb(0, 255, 0)" stroke-linecap="round" stroke-linejoin="round" stroke-opacity="1.0" stroke-width="1"/>
    <path d="M168.456 198.404C169.045 193.652 169.259 187.414 169.847 181.325" fill="none" stroke="rgb(0, 255, 0)" stroke-linecap="round" stroke-linejoin="round" stroke-opacity="1.0" stroke-width="1"/>
    <path d="M169.57 200.682C172.865 195.296 174.063 188.227 177.359 181.325" fill="none" stroke="rgb(0, 255, 0)" stroke-linecap="round" stroke-linejoin="round" stroke-opacity="1.0" stroke-width="1"/>
    <path d="M172.266 200.85C174.42 195.417 175.204 188.286 177.359 181.325" fill="none" stroke="rgb(0, 255, 0)" stroke-linecap="round" stroke-linejoin="round" stroke-opacity="1.0" stroke-width="1"/>
    <path d="M169.57 200.2C167.568 194.947 166.841 188.055 164.84 181.325" fill="none" stroke="rgb(0, 255, 0)" stroke-linecap="round" stroke-linejoin="round" stroke-opacity="1.0" stroke-width="1"/>
    <path d="M172.073 200.037C169.013 194.831 167.9 187.996 164.84 181.325" fill="none" stroke="rgb(0, 255, 0)" stroke-linecap="round" stroke-linejoin="round" stroke-opacity="1.0" stroke-width="1"/>
    <path d="M181.647 200.311C178.586 195.105 177.473 188.272 174.413 181.6" fill="none" stroke="rgb(0, 255, 0)" stroke-linecap="round" stroke-linejoin="round" stroke-opacity="1.0" stroke-width="1"/>
    <path d="M179.143 200.474C177.142 195.223 176.414 188.329 174.413 181.6" fill="none" stroke="rgb(0, 255, 0)" stroke-linecap="round" stroke-linejoin="round" stroke-opacity="1.0" stroke-width="1"/>
    <path d="M181.839 201.125C183.994 195.692 184.777 188.562 186.932 181.6" fill="none" stroke="rgb(0, 255, 0)" stroke-linecap="round" stroke-linejoin="round" stroke-opacity="1.0" stroke-width="1"/>
    <path d="M179.143 200.957C182.438 195.571 183.637 188.501 186.932 181.6" fill="none" stroke="rgb(0, 255, 0)" stroke-linecap="round" stroke-linejoin="round" stroke-opacity="1.0" stroke-width="1"/>
    <path d="M178.03 198.679C178.619 193.927 178.832 187.689 179.421 181.6" fill="none" stroke="rgb(0, 255, 0)" stroke-linecap="round" stroke-linejoin="round" stroke-opacity="1.0" stroke-width="1"/>
    <path d="M181.09 200.474C180.384 195.223 180.127 188.329 179.421 181.6" fill="none" stroke="rgb(0, 255, 0)" stroke-linecap="round" stroke-linejoin="round" stroke-opacity="1.0" stroke-width="1"/>
    <path d="M188.037 200.85C187.103 196.412 186.762 190.587 185.828 184.9" fill="none" stroke="rgb(0, 255, 0)" stroke-linecap="round" stroke-linejoin="round" stroke-opacity="1.0" stroke-width="1"/>
    <path d="M183.987 199.333C184.766 195.317 185.049 190.046 185.828 184.9" fill="none" stroke="rgb(0, 255, 0)" stroke-linecap="round" stroke-linejoin="round" stroke-opacity="1.0" stroke-width="1"/>
    <path d="M185.46 201.217C189.51 195.377 190.983 187.71 195.033 180.225" fill="none" stroke="rgb(0, 255, 0)" stroke-linecap="round" stroke-linejoin="round" stroke-opacity="1.0" stroke-width="1"/>
    <path d="M188.773 201.4C191.422 195.509 192.385 187.775 195.033 180.225" fill="none" stroke="rgb(0, 255, 0)" stroke-linecap="round" stroke-linejoin="round" stroke-opacity="1.0" stroke-width="1"/>
    <path d="M185.46 200.85C182.811 196.412 181.848 190.587 179.2 184.9" fill="none" stroke="rgb(0, 255, 0)" stroke-linecap="round" stroke-linejoin="round" stroke-opacity="1.0" stroke-width="1"/>
    <path d="M188.773 200.712C184.723 196.313 183.25 190.538 179.2 184.9" fill="none" stroke="rgb(0, 255, 0)" stroke-linecap="round" stroke-linejoin="round" stroke-opacity="1.0" stroke-width="1"/>
    <path d="M201.71 200.75C201.004 195.497 200.747 188.604 200.041 181.875" fill="none" stroke="rgb(0, 255, 0)" stroke-linecap="round" stroke-linejoin="round" stroke-opacity="1.0" stroke-width="1"/>
    <path d="M198.65 198.953C199.238 194.201 199.452 187.964 200.041 181.875" fill="none" stroke="rgb(0, 255, 0)" stroke-linecap="round" stroke-linejoin="round" stroke-opacity="1.0" stroke-width="1"/>
    <path d="M199.762 200.75C197.762 195.497 197.034 188.604 195.033 181.875" fill="none" stroke="rgb(0, 255, 0)" stroke-linecap="round" stroke-linejoin="round" stroke-opacity="1.0" stroke-width="1"/>
    <path d="M202.266 200.587C199.206 195.38 198.093 188.546 195.033 181.875" fill="none" stroke="rgb(0, 255, 0)" stroke-linecap="round" stroke-linejoin="round" stroke-opacity="1.0" stroke-width="1"/>
    <path d="M192.693 200.311C189.632 195.105 188.52 188.272 185.46 181.6" fill="none" stroke="rgb(0, 255, 0)" stroke-linecap="round" stroke-linejoin="round" stroke-opacity="1.0" stroke-width="1"/>
    <path d="M190.189 200.474C188.188 195.223 187.46 188.329 185.46 181.6" fill="none" stroke="rgb(0, 255, 0)" stroke-linecap="round" stroke-linejoin="round" stroke-opacity="1.0" stroke-width="1"/>
    <path d="M192.886 201.125C195.04 195.692 195.824 188.562 197.978 181.6" fill="none" stroke="rgb(0, 255, 0)" stroke-linecap="round" stroke-linejoin="round" stroke-opacity="1.0" stroke-width="1"/>
    <path d="M190.189 200.957C193.485 195.571 194.683 188.501 197.978 181.6" fill="none" stroke="rgb(0, 255, 0)" stroke-linecap="round" stroke-linejoin="round" stroke-opacity="1.0" stroke-width="1"/>
    <path d="M189.076 198.679C189.665 193.927 189.879 187.689 190.467 181.6" fill="none" stroke="rgb(0, 255, 0)" stroke-linecap="round" stroke-linejoin="round" stroke-opacity="1.0" stroke-width="1"/>
    <path d="M192.136 200.474C191.43 195.223 191.173 188.329 190.467 181.6" fill="none" stroke="rgb(0, 255, 0)" stroke-linecap="round" stroke-linejoin="round" stroke-opacity="1.0" stroke-width="1"/>
    <path d="M199.083 200.85C198.149 196.412 197.809 190.587 196.874 184.9" fill="none" stroke="rgb(0, 255, 0)" stroke-linecap="round" stroke-linejoin="round" stroke-opacity="1.0" stroke-width="1"/>
    <path d="M195.033 199.333C195.812 195.317 196.095 190.046 196.874 184.9" fill="none" stroke="rgb(0, 255, 0)" stroke-linecap="round" stroke-linejoin="round" stroke-opacity="1.0" stroke-width="1"/>
    <path d="M196.506 200.85C193.858 196.412 192.895 190.587 190.246 184.9" fill="none" stroke="rgb(0, 255, 0)" stroke-linecap="round" stroke-linejoin="round" stroke-opacity="1.0" stroke-width="1"/>
    <path d="M199.82 200.712C195.769 196.313 194.297 190.538 190.246 184.9" fill="none" stroke="rgb(0, 255, 0)" stroke-linecap="round" stroke-linejoin="round" stroke-opacity="1.0" stroke-width="1"/>
    <path d="M179.2 201.262C175.15 196.863 173.677 191.088 169.627 185.45" fill="none" stroke="rgb(0, 255, 0)" stroke-linecap="round" stroke-linejoin="round" stroke-opacity="1.0" stroke-width="1"/>
    <path d="M175.886 201.4C173.238 196.962 172.275 191.137 169.627 185.45" fill="none" stroke="rgb(0, 255, 0)" stroke-linecap="round" stroke-linejoin="round" stroke-opacity="1.0" stroke-width="1"/>
    <path d="M179.2 201.95C181.849 196.059 182.811 188.325 185.46 180.775" fill="none" stroke="rgb(0, 255, 0)" stroke-linecap="round" stroke-linejoin="round" stroke-opacity="1.0" stroke-width="1"/>
    <path d="M175.886 201.767C179.936 195.927 181.409 188.26 185.46 180.775" fill="none" stroke="rgb(0, 255, 0)" stroke-linecap="round" stroke-linejoin="round" stroke-opacity="1.0" stroke-width="1"/>
    <path d="M174.413 199.883C175.192 195.867 175.475 190.596 176.255 185.45" fill="none" stroke="rgb(0, 255, 0)" stroke-linecap="round" stroke-linejoin="round" stroke-opacity="1.0" stroke-width="1"/>
    <path d="M178.464 201.4C177.529 196.962 177.189 191.137 176.255 185.45" fill="none" stroke="rgb(0, 255, 0)" stroke-linecap="round" stroke-linejoin="round" stroke-opacity="1.0" stroke-width="1"/>
    <path d="M171.516 201.024C170.81 195.773 170.553 188.879 169.847 182.15" fill="none" stroke="rgb(0, 255, 0)" stroke-linecap="round" stroke-linejoin="round" stroke-opacity="1.0" stroke-width="1"/>
    <path d="M168.456 199.229C169.045 194.477 169.259 188.239 169.847 182.15" fill="none" stroke="rgb(0, 255, 0)" stroke-linecap="round" stroke-linejoin="round" stroke-opacity="1.0" stroke-width="1"/>
    <path d="M169.57 201.507C172.865 196.121 174.063 189.051 177.359 182.15" fill="none" stroke="rgb(0, 255, 0)" stroke-linecap="round" stroke-linejoin="round" stroke-opacity="1.0" stroke-width="1"/>
    <path d="M172.266 201.675C174.42 196.242 175.204 189.112 177.359 182.15" fill="none" stroke="rgb(0, 255, 0)" stroke-linecap="round" stroke-linejoin="round" stroke-opacity="1.0" stroke-width="1"/>
    <path d="M169.57 201.024C167.568 195.773 166.841 188.879 164.84 182.15" fill="none" stroke="rgb(0, 255, 0)" stroke-linecap="round" stroke-linejoin="round" stroke-opacity="1.0" stroke-width="1"/>
    <path d="M172.073 200.861C169.013 195.655 167.9 188.822 164.84 182.15" fill="none" stroke="rgb(0, 255, 0)" stroke-linecap="round" stroke-linejoin="round" stroke-opacity="1.0" stroke-width="1"/>
    <path d="M162.5 200.587C159.44 195.38 158.327 188.546 155.266 181.875" fill="none" stroke="rgb(0, 255, 0)" stroke-linecap="round" stroke-linejoin="round" stroke-opacity="1.0" stroke-width="1"/>
    <path d="M159.996 200.75C157.995 195.497 157.268 188.604 155.266 181.875" fill="none" stroke="rgb(0, 255, 0)" stroke-linecap="round" stroke-linejoin="round" stroke-opacity="1.0" stroke-width="1"/>
    <path d="M162.692 201.4C164.847 195.967 165.63 188.836 167.786 181.875" fill="none" stroke="rgb(0, 255, 0)" stroke-linecap="round" stroke-linejoin="round" stroke-opacity="1.0" stroke-width="1"/>
    <path d="M159.996 201.232C163.291 195.846 164.49 188.777 167.786 181.875" fill="none" stroke="rgb(0, 255, 0)" stroke-linecap="round" stroke-linejoin="round" stroke-opacity="1.0" stroke-width="1"/>
    <path d="M158.883 198.953C159.472 194.201 159.685 187.964 160.274 181.875" fill="none" stroke="rgb(0, 255, 0)" stroke-linecap="round" stroke-linejoin="round" stroke-opacity="1.0" stroke-width="1"/>
    <path d="M161.943 200.75C161.237 195.497 160.98 188.604 160.274 181.875" fill="none" stroke="rgb(0, 255, 0)" stroke-linecap="round" stroke-linejoin="round" stroke-opacity="1.0" stroke-width="1"/>
    <path d="M168.89 201.125C167.955 196.687 167.615 190.862 166.681 185.175" fill="none" stroke="rgb(0, 255, 0)" stroke-linecap="round" stroke-linejoin="round" stroke-opacity="1.0" stroke-width="1"/>
    <path d="M164.84 199.607C165.618 195.592 165.902 190.321 166.681 185.175" fill="none" stroke="rgb(0, 255, 0)" stroke-linecap="round" stroke-linejoin="round" stroke-opacity="1.0" stroke-width="1"/>
    <path d="M166.313 201.493C170.363 195.651 171.836 187.985 175.886 180.5" fill="none" stroke="rgb(0, 255, 0)" stroke-linecap="round" stroke-linejoin="round" stroke-opacity="1.0" stroke-width="1"/>
    <path d="M169.627 201.675C172.275 195.783 173.238 188.05 175.886 180.5" fill="none" stroke="rgb(0, 255, 0)" stroke-linecap="round" stroke-linejoin="round" stroke-opacity="1.0" stroke-width="1"/>
    <path d="M166.313 201.125C163.664 196.687 162.701 190.862 160.053 185.175" fill="none" stroke="rgb(0, 255, 0)" stroke-linecap="round" stroke-linejoin="round" stroke-opacity="1.0" stroke-width="1"/>
    <path d="M169.627 200.988C165.576 196.588 164.104 190.813 160.053 185.175" fill="none" stroke="rgb(0, 255, 0)" stroke-linecap="round" stroke-linejoin="round" stroke-opacity="1.0" stroke-width="1"/>
  </g>
</svg>
