<?xml version="1.0" ?>
<svg xmlns="http://www.w3.org/2000/svg" version="1.1" width="256" height="256">
  <defs/>
  <g>
    <path d="M 198.20899963378906 150.31700134277344 C 195.7570037841797 145.89599609375 197.78500366210938 149.5399932861328 197.08299255371094 149.5850067138672" stroke-width="2.0" fill="none" stroke="rgb(0, 255, 0)" stroke-opacity="1" stroke-linecap="round" stroke-linejoin="round"/>
    <path d="M 185.60400390625 136.98399353027344 C 164.31300354003906 149.52499389648438 176.02499389648438 142.80099487304688 179.968994140625 140.97999572753906" stroke-width="2.0" fill="none" stroke="rgb(0, 255, 0)" stroke-opacity="1" stroke-linecap="round" stroke-linejoin="round"/>
    <path d="M 175.4409942626953 153.42799377441406 C 201.17100524902344 147.10699462890625 195.94000244140625 141.46400451660156 194.3780059814453 153.96499633789062" stroke-width="2.0" fill="none" stroke="rgb(0, 255, 0)" stroke-opacity="1" stroke-linecap="round" stroke-linejoin="round"/>
    <path d="M 164.23500061035156 132.7030029296875 C 189.21600341796875 133.89700317382812 195.6060028076172 143.98399353027344 194.45599365234375 150.5399932861328" stroke-width="2.0" fill="none" stroke="rgb(0, 255, 0)" stroke-opacity="1" stroke-linecap="round" stroke-linejoin="round"/>
    <path d="M 196.22999572753906 145.78799438476562 C 197.29600524902344 155.8800048828125 200.49000549316406 152.3249969482422 193.156005859375 143.0229949951172" stroke-width="2.0" fill="none" stroke="rgb(0, 255, 0)" stroke-opacity="1" stroke-linecap="round" stroke-linejoin="round"/>
    <path d="M 173.23500061035156 131.84500122070312 C 194.0780029296875 139.8939971923828 202.68299865722656 151.66099548339844 191.83900451660156 154.96400451660156" stroke-width="2.0" fill="none" stroke="rgb(0, 255, 0)" stroke-opacity="1" stroke-linecap="round" stroke-linejoin="round"/>
    <path d="M 177.89599609375 186.18800354003906 C 186.66799926757812 197.71600341796875 183.63900756835938 204.3679962158203 179.82400512695312 182.58700561523438" stroke-width="2.0" fill="none" stroke="rgb(0, 255, 0)" stroke-opacity="1" stroke-linecap="round" stroke-linejoin="round"/>
    <path d="M 164.17999267578125 196.01800537109375 C 143.03599548339844 205.41900634765625 149.5659942626953 200.94900512695312 148.55099487304688 201.00599670410156" stroke-width="2.0" fill="none" stroke="rgb(255, 0, 0)" stroke-opacity="1" stroke-linecap="round" stroke-linejoin="round"/>
    <path d="M 192.72900390625 144.39199829101562 C 178.072998046875 148.13800048828125 173.74200439453125 144.70199584960938 151.26499938964844 152.9810028076172" stroke-width="2.0" fill="none" stroke="rgb(0, 255, 0)" stroke-opacity="1" stroke-linecap="round" stroke-linejoin="round"/>
    <path d="M 171.48500061035156 170.09800720214844 C 185.26400756835938 198.43899536132812 175.8939971923828 201.46200561523438 188.60800170898438 156.5030059814453" stroke-width="2.0" fill="none" stroke="rgb(0, 255, 0)" stroke-opacity="1" stroke-linecap="round" stroke-linejoin="round"/>
    <path d="M 149.9669952392578 152.656005859375 C 146.5240020751953 153.6320037841797 197.25399780273438 134.86399841308594 153.48899841308594 152.34500122070312" stroke-width="2.0" fill="none" stroke="rgb(0, 255, 0)" stroke-opacity="1" stroke-linecap="round" stroke-linejoin="round"/>
    <path d="M 172.95599365234375 154.77499389648438 C 198.76100158691406 147.9219970703125 199.96099853515625 150.7729949951172 195.20199584960938 145.92999267578125" stroke-width="2.0" fill="none" stroke="rgb(0, 255, 0)" stroke-opacity="1" stroke-linecap="round" stroke-linejoin="round"/>
    <path d="M 171.60000610351562 186.1269989013672 C 180.75399780273438 210.2050018310547 172.8820037841797 193.7790069580078 161.72000122070312 175.7519989013672" stroke-width="2.0" fill="none" stroke="rgb(0, 255, 0)" stroke-opacity="1" stroke-linecap="round" stroke-linejoin="round"/>
    <path d="M 170.42999267578125 119.19499969482422 C 148.51300048828125 115.16699981689453 187.8179931640625 122.03900146484375 177.9340057373047 123.87100219726562" stroke-width="2.0" fill="none" stroke="rgb(0, 255, 0)" stroke-opacity="1" stroke-linecap="round" stroke-linejoin="round"/>
    <path d="M 179.822998046875 127.39299774169922 C 191.21400451660156 118.17900085449219 189.47999572753906 123.947998046875 175.22300720214844 124.40299987792969" stroke-width="2.0" fill="none" stroke="rgb(0, 255, 0)" stroke-opacity="1" stroke-linecap="round" stroke-linejoin="round"/>
    <path d="M 86.0 73.84400177001953 C 98.30850219726562 92.59390258789062 104.98699951171875 109.1510009765625 114.63300323486328 125.83100128173828" stroke-width="2.0" fill="none" stroke="rgb(255, 0, 0)" stroke-opacity="1" stroke-linecap="round" stroke-linejoin="round"/>
    <path d="M 104.28199768066406 68.0 C 116.59100341796875 86.7499008178711 123.26899719238281 103.30699920654297 132.9149932861328 119.98699951171875" stroke-width="2.0" fill="none" stroke="rgb(255, 0, 0)" stroke-opacity="1" stroke-linecap="round" stroke-linejoin="round"/>
    <path d="M 177.1219940185547 197.0540008544922 C 171.69500732421875 168.2760009765625 178.7169952392578 182.65899658203125 165.5240020751953 181.49000549316406" stroke-width="2.0" fill="none" stroke="rgb(0, 255, 0)" stroke-opacity="1" stroke-linecap="round" stroke-linejoin="round"/>
    <path d="M 175.14199829101562 178.11399841308594 C 159.1179962158203 185.89999389648438 157.83399963378906 165.35899353027344 163.33700561523438 163.95700073242188" stroke-width="2.0" fill="none" stroke="rgb(0, 255, 0)" stroke-opacity="1" stroke-linecap="round" stroke-linejoin="round"/>
    <path d="M 169.44000244140625 184.7480010986328 C 189.38900756835938 188.70199584960938 195.11700439453125 129.83299255371094 172.0959930419922 171.09800720214844" stroke-width="2.0" fill="none" stroke="rgb(0, 255, 0)" stroke-opacity="1" stroke-linecap="round" stroke-linejoin="round"/>
    <path d="M 156.77200317382812 221.0 C 153.70399475097656 216.73599243164062 151.7480010986328 214.64500427246094 144.2030029296875 188.2220001220703" stroke-width="2.0" fill="none" stroke="rgb(255, 0, 0)" stroke-opacity="1" stroke-linecap="round" stroke-linejoin="round"/>
    <path d="M 166.97799682617188 161.16200256347656 C 158.98199462890625 167.34800720214844 165.46800231933594 168.50999450683594 161.875 177.1009979248047" stroke-width="2.0" fill="none" stroke="rgb(0, 255, 0)" stroke-opacity="1" stroke-linecap="round" stroke-linejoin="round"/>
    <path d="M 193.25799560546875 143.52200317382812 C 165.64300537109375 152.15499877929688 160.16900634765625 149.93499755859375 191.23699951171875 142.88800048828125" stroke-width="2.0" fill="none" stroke="rgb(0, 255, 0)" stroke-opacity="1" stroke-linecap="round" stroke-linejoin="round"/>
    <path d="M 197.8769989013672 153.1300048828125 C 160.8679962158203 168.3730010986328 164.4029998779297 175.39100646972656 189.01100158691406 157.57899475097656" stroke-width="2.0" fill="none" stroke="rgb(0, 255, 0)" stroke-opacity="1" stroke-linecap="round" stroke-linejoin="round"/>
    <path d="M 183.80299377441406 128.08900451660156 C 163.45599365234375 127.6989974975586 175.62100219726562 132.5749969482422 183.41600036621094 123.76799774169922" stroke-width="2.0" fill="none" stroke="rgb(0, 255, 0)" stroke-opacity="1" stroke-linecap="round" stroke-linejoin="round"/>
    <path d="M 197.9499969482422 146.00999450683594 C 184.9029998779297 144.13099670410156 154.0540008544922 146.74400329589844 189.1719970703125 138.82000732421875" stroke-width="2.0" fill="none" stroke="rgb(0, 255, 0)" stroke-opacity="1" stroke-linecap="round" stroke-linejoin="round"/>
    <path d="M 172.3679962158203 132.5749969482422 C 127.13700103759766 103.3550033569336 120.07599639892578 109.7509994506836 170.43299865722656 134.8699951171875" stroke-width="2.0" fill="none" stroke="rgb(0, 255, 0)" stroke-opacity="1" stroke-linecap="round" stroke-linejoin="round"/>
    <path d="M 159.75399780273438 192.13900756835938 C 139.39700317382812 188.4029998779297 144.47000122070312 184.9029998779297 152.4550018310547 206.16000366210938" stroke-width="2.0" fill="none" stroke="rgb(0, 255, 0)" stroke-opacity="1" stroke-linecap="round" stroke-linejoin="round"/>
    <path d="M 189.66200256347656 151.86099243164062 C 190.22500610351562 151.86399841308594 179.427001953125 152.52699279785156 189.29800415039062 152.8179931640625" stroke-width="2.0" fill="none" stroke="rgb(0, 255, 0)" stroke-opacity="1" stroke-linecap="round" stroke-linejoin="round"/>
    <path d="M 186.3249969482422 138.4759979248047 C 202.38400268554688 144.15899658203125 194.9810028076172 151.12899780273438 173.96499633789062 153.63099670410156" stroke-width="2.0" fill="none" stroke="rgb(0, 255, 0)" stroke-opacity="1" stroke-linecap="round" stroke-linejoin="round"/>
    <path d="M 167.3780059814453 140.19400024414062 C 165.43699645996094 127.1240005493164 150.3780059814453 128.13999938964844 167.80599975585938 137.71499633789062" stroke-width="2.0" fill="none" stroke="rgb(0, 255, 0)" stroke-opacity="1" stroke-linecap="round" stroke-linejoin="round"/>
    <path d="M 177.0330047607422 214.63699340820312 C 147.52499389648438 158.66900634765625 148.80999755859375 152.82699584960938 162.7310028076172 174.406005859375" stroke-width="2.0" fill="none" stroke="rgb(0, 255, 0)" stroke-opacity="1" stroke-linecap="round" stroke-linejoin="round"/>
    <path d="M 153.91799926757812 166.9600067138672 C 141.11199951171875 131.70199584960938 150.21099853515625 158.76300048828125 159.97900390625 149.5240020751953" stroke-width="2.0" fill="none" stroke="rgb(0, 255, 0)" stroke-opacity="1" stroke-linecap="round" stroke-linejoin="round"/>
    <path d="M 194.4949951171875 149.29100036621094 C 198.00399780273438 150.75999450683594 189.4929962158203 128.54100036621094 172.13600158691406 143.7449951171875" stroke-width="2.0" fill="none" stroke="rgb(0, 255, 0)" stroke-opacity="1" stroke-linecap="round" stroke-linejoin="round"/>
    <path d="M 148.43099975585938 118.54299926757812 C 133.46099853515625 98.4574966430664 137.86599731445312 125.7040023803711 133.13800048828125 99.5790023803711" stroke-width="2.0" fill="none" stroke="rgb(0, 255, 0)" stroke-opacity="1" stroke-linecap="round" stroke-linejoin="round"/>
    <path d="M 175.26100158691406 165.01800537109375 C 207.66000366210938 150.5570068359375 201.93800354003906 150.73500061035156 193.13400268554688 142.69700622558594" stroke-width="2.0" fill="none" stroke="rgb(0, 255, 0)" stroke-opacity="1" stroke-linecap="round" stroke-linejoin="round"/>
    <path d="M 174.10400390625 154.58099365234375 C 201.0279998779297 152.44000244140625 189.19700622558594 142.6840057373047 189.53900146484375 155.6739959716797" stroke-width="2.0" fill="none" stroke="rgb(0, 255, 0)" stroke-opacity="1" stroke-linecap="round" stroke-linejoin="round"/>
    <path d="M 185.73199462890625 137.55599975585938 C 178.71299743652344 135.46400451660156 155.0540008544922 154.77699279785156 193.3560028076172 143.7010040283203" stroke-width="2.0" fill="none" stroke="rgb(0, 255, 0)" stroke-opacity="1" stroke-linecap="round" stroke-linejoin="round"/>
    <path d="M 174.3769989013672 179.61399841308594 C 172.12399291992188 197.52000427246094 196.28399658203125 195.1959991455078 176.96400451660156 197.74200439453125" stroke-width="2.0" fill="none" stroke="rgb(0, 255, 0)" stroke-opacity="1" stroke-linecap="round" stroke-linejoin="round"/>
    <path d="M 148.375 197.77699279785156 C 131.7220001220703 164.42999267578125 125.20800018310547 147.1719970703125 116.5199966430664 126.05699920654297" stroke-width="2.0" fill="none" stroke="rgb(255, 0, 0)" stroke-opacity="1" stroke-linecap="round" stroke-linejoin="round"/>
    <path d="M 174.718994140625 130.5749969482422 C 202.81500244140625 147.95700073242188 199.4219970703125 145.9320068359375 191.55999755859375 143.9669952392578" stroke-width="2.0" fill="none" stroke="rgb(0, 255, 0)" stroke-opacity="1" stroke-linecap="round" stroke-linejoin="round"/>
    <path d="M 190.052001953125 140.44200134277344 C 163.9669952392578 144.7530059814453 184.4969940185547 139.76800537109375 190.47900390625 140.85400390625" stroke-width="2.0" fill="none" stroke="rgb(0, 255, 0)" stroke-opacity="1" stroke-linecap="round" stroke-linejoin="round"/>
    <path d="M 136.697998046875 150.0030059814453 C 148.1999969482422 151.9770050048828 162.73699951171875 153.4199981689453 124.67400360107422 147.8679962158203" stroke-width="2.0" fill="none" stroke="rgb(255, 0, 0)" stroke-opacity="1" stroke-linecap="round" stroke-linejoin="round"/>
    <path d="M 127.55699920654297 132.4709930419922 C 139.05799865722656 134.44500732421875 153.59500122070312 135.88800048828125 115.53199768066406 130.33599853515625" stroke-width="2.0" fill="none" stroke="rgb(255, 0, 0)" stroke-opacity="1" stroke-linecap="round" stroke-linejoin="round"/>
    <path d="M 120.5250015258789 114.93900299072266 C 132.02699279785156 116.91300201416016 146.56399536132812 118.35600280761719 108.5009994506836 112.80400085449219" stroke-width="2.0" fill="none" stroke="rgb(255, 0, 0)" stroke-opacity="1" stroke-linecap="round" stroke-linejoin="round"/>
    <path d="M 112.08699798583984 97.40650177001953 C 123.58899688720703 99.38140106201172 138.12600708007812 100.8239974975586 100.06300354003906 95.27200317382812" stroke-width="2.0" fill="none" stroke="rgb(255, 0, 0)" stroke-opacity="1" stroke-linecap="round" stroke-linejoin="round"/>
    <path d="M 100.13400268554688 79.87449645996094 C 111.63500213623047 81.84940338134766 126.1719970703125 83.29229736328125 88.1094970703125 77.73999786376953" stroke-width="2.0" fill="none" stroke="rgb(255, 0, 0)" stroke-opacity="1" stroke-linecap="round" stroke-linejoin="round"/>
    <path d="M 127.23200225830078 101.7040023803711 C 135.6060028076172 126.46700286865234 131.7169952392578 85.78579711914062 142.6510009765625 119.7969970703125" stroke-width="2.0" fill="none" stroke="rgb(0, 255, 0)" stroke-opacity="1" stroke-linecap="round" stroke-linejoin="round"/>
    <path d="M 177.4429931640625 162.09100341796875 C 223.31700134277344 132.6479949951172 178.3990020751953 144.30599975585938 161.3730010986328 170.45899963378906" stroke-width="2.0" fill="none" stroke="rgb(0, 255, 0)" stroke-opacity="1" stroke-linecap="round" stroke-linejoin="round"/>
    <path d="M 185.66700744628906 123.2699966430664 C 178.23399353027344 130.35800170898438 176.1909942626953 124.51399993896484 181.33200073242188 122.47599792480469" stroke-width="2.0" fill="none" stroke="rgb(0, 255, 0)" stroke-opacity="1" stroke-linecap="round" stroke-linejoin="round"/>
    <path d="M 181.61199951171875 128.43699645996094 C 195.6739959716797 120.8239974975586 172.5260009765625 102.2979965209961 164.14700317382812 125.41000366210938" stroke-width="2.0" fill="none" stroke="rgb(0, 255, 0)" stroke-opacity="1" stroke-linecap="round" stroke-linejoin="round"/>
    <path d="M 174.8939971923828 131.83999633789062 C 161.30799865722656 126.6780014038086 178.55099487304688 133.24400329589844 181.13699340820312 127.14600372314453" stroke-width="2.0" fill="none" stroke="rgb(0, 255, 0)" stroke-opacity="1" stroke-linecap="round" stroke-linejoin="round"/>
    <path d="M 169.54800415039062 137.56700134277344 C 161.3939971923828 134.0489959716797 154.2100067138672 124.22100067138672 167.36099243164062 140.9709930419922" stroke-width="2.0" fill="none" stroke="rgb(0, 255, 0)" stroke-opacity="1" stroke-linecap="round" stroke-linejoin="round"/>
    <path d="M 193.31399536132812 149.468994140625 C 178.70199584960938 170.58999633789062 180.6929931640625 159.7740020751953 194.24000549316406 147.54400634765625" stroke-width="2.0" fill="none" stroke="rgb(0, 255, 0)" stroke-opacity="1" stroke-linecap="round" stroke-linejoin="round"/>
    <path d="M 148.8560028076172 161.6719970703125 C 125.46499633789062 108.60800170898438 115.6719970703125 77.85669708251953 141.10000610351562 114.74600219726562" stroke-width="2.0" fill="none" stroke="rgb(255, 0, 0)" stroke-opacity="1" stroke-linecap="round" stroke-linejoin="round"/>
    <path d="M 137.33099365234375 171.24400329589844 C 151.70399475097656 173.5679931640625 168.39999389648438 174.91299438476562 156.79299926757812 176.33900451660156" stroke-width="2.0" fill="none" stroke="rgb(255, 0, 0)" stroke-opacity="1" stroke-linecap="round" stroke-linejoin="round"/>
    <path d="M 179.03700256347656 122.07599639892578 C 185.68299865722656 125.3740005493164 144.531005859375 111.9530029296875 189.0290069580078 123.35399627685547" stroke-width="2.0" fill="none" stroke="rgb(0, 255, 0)" stroke-opacity="1" stroke-linecap="round" stroke-linejoin="round"/>
    <path d="M 179.98699951171875 126.9800033569336 C 197.7830047607422 128.1719970703125 156.35499572753906 110.68800354003906 166.375 130.98199462890625" stroke-width="2.0" fill="none" stroke="rgb(0, 255, 0)" stroke-opacity="1" stroke-linecap="round" stroke-linejoin="round"/>
    <path d="M 178.91600036621094 122.40699768066406 C 138.58999633789062 111.05599975585938 176.9499969482422 129.38600158691406 170.32000732421875 121.88899993896484" stroke-width="2.0" fill="none" stroke="rgb(0, 255, 0)" stroke-opacity="1" stroke-linecap="round" stroke-linejoin="round"/>
    <path d="M 175.3679962158203 146.43499755859375 C 172.78700256347656 167.2949981689453 163.12899780273438 156.7429962158203 160.47300720214844 169.56100463867188" stroke-width="2.0" fill="none" stroke="rgb(0, 255, 0)" stroke-opacity="1" stroke-linecap="round" stroke-linejoin="round"/>
    <path d="M 169.0189971923828 136.07699584960938 C 126.78299713134766 110.1989974975586 123.20700073242188 109.63500213623047 169.0970001220703 138.11700439453125" stroke-width="2.0" fill="none" stroke="rgb(0, 255, 0)" stroke-opacity="1" stroke-linecap="round" stroke-linejoin="round"/>
    <path d="M 153.3800048828125 148.80799865722656 C 176.9290008544922 141.2570037841797 166.52699279785156 135.57699584960938 181.68499755859375 135.72000122070312" stroke-width="2.0" fill="none" stroke="rgb(0, 255, 0)" stroke-opacity="1" stroke-linecap="round" stroke-linejoin="round"/>
    <path d="M 182.3249969482422 125.11399841308594 C 150.4250030517578 148.4550018310547 182.08900451660156 123.01100158691406 185.33999633789062 139.72799682617188" stroke-width="2.0" fill="none" stroke="rgb(0, 255, 0)" stroke-opacity="1" stroke-linecap="round" stroke-linejoin="round"/>
    <path d="M 144.17999267578125 150.94900512695312 C 125.49199676513672 100.71900177001953 124.67400360107422 101.4520034790039 131.41700744628906 107.86199951171875" stroke-width="2.0" fill="none" stroke="rgb(255, 0, 0)" stroke-opacity="1" stroke-linecap="round" stroke-linejoin="round"/>
    <path d="M 182.28799438476562 127.27200317382812 C 187.7899932861328 124.12000274658203 159.2220001220703 117.08100128173828 176.37600708007812 122.18499755859375" stroke-width="2.0" fill="none" stroke="rgb(0, 255, 0)" stroke-opacity="1" stroke-linecap="round" stroke-linejoin="round"/>
    <path d="M 178.9040069580078 145.63499450683594 C 168.23599243164062 149.05599975585938 165.04400634765625 140.93499755859375 173.843994140625 155.28199768066406" stroke-width="2.0" fill="none" stroke="rgb(0, 255, 0)" stroke-opacity="1" stroke-linecap="round" stroke-linejoin="round"/>
    <path d="M 178.64500427246094 122.2969970703125 C 184.7310028076172 124.40799713134766 174.02099609375 116.00599670410156 182.6719970703125 129.24200439453125" stroke-width="2.0" fill="none" stroke="rgb(0, 255, 0)" stroke-opacity="1" stroke-linecap="round" stroke-linejoin="round"/>
  </g>
</svg>
