<svg height="256" version="1.1" width="256" xmlns="http://www.w3.org/2000/svg">
  <defs/>
  <g>
    <path d="M97.1711 166.585C91.2063 169.766 89.0215 163.879 78.1034 170.125" fill="none" stroke="rgb(255, 0, 0)" stroke-linecap="round" stroke-linejoin="round" stroke-opacity="1.0" stroke-width="3"/>
    <path d="M39.1323 166.406C62.4682 153.971 84.8139 151.976 78.3923 154.936" fill="none" stroke="rgb(0, 255, 0)" stroke-linecap="round" stroke-linejoin="round" stroke-opacity="1.0" stroke-width="3"/>
    <path d="M68.1323 160.284C149.386 135.464 146.784 134.559 120.833 141.365" fill="none" stroke="rgb(0, 255, 0)" stroke-linecap="round" stroke-linejoin="round" stroke-opacity="1.0" stroke-width="3"/>
    <path d="M82.042 177.914C94.7012 169.582 121.286 160.63 120.33 182.669" fill="none" stroke="rgb(255, 0, 0)" stroke-linecap="round" stroke-linejoin="round" stroke-opacity="1.0" stroke-width="2"/>
    <path d="M117.68 191.032C102.627 197.057 128.83 195.852 73.7558 206.823" fill="none" stroke="rgb(255, 0, 0)" stroke-linecap="round" stroke-linejoin="round" stroke-opacity="1.0" stroke-width="2"/>
    <path d="M79.9658 203.854C76.2154 212.156 68.052 197.589 75.5163 206.13" fill="none" stroke="rgb(255, 0, 0)" stroke-linecap="round" stroke-linejoin="round" stroke-opacity="1.0" stroke-width="2"/>
    <path d="M92.9348 170.81C99.8451 199.21 102.405 208.885 99.57 177.201" fill="none" stroke="rgb(255, 0, 0)" stroke-linecap="round" stroke-linejoin="round" stroke-opacity="1.0" stroke-width="2"/>
    <path d="M111.876 185.685C105.688 164.712 111.496 165.685 88.8381 183.224" fill="none" stroke="rgb(255, 0, 0)" stroke-linecap="round" stroke-linejoin="round" stroke-opacity="1.0" stroke-width="2"/>
    <path d="M80.7575 205.153C73.052 208.87 68.6478 194.059 73.1448 182.796" fill="none" stroke="rgb(255, 0, 0)" stroke-linecap="round" stroke-linejoin="round" stroke-opacity="1.0" stroke-width="2"/>
    <path d="M77.132 182.172C65.1849 193.991 80.7932 177.893 106.717 192.493" fill="none" stroke="rgb(255, 0, 0)" stroke-linecap="round" stroke-linejoin="round" stroke-opacity="1.0" stroke-width="2"/>
    <path d="M67.0615 201.082C79.6739 172.643 66.0036 161.119 69.9214 200.413" fill="none" stroke="rgb(255, 0, 0)" stroke-linecap="round" stroke-linejoin="round" stroke-opacity="1.0" stroke-width="2"/>
    <path d="M113.146 164.519C50.1119 163.198 74.5771 165.094 77.8738 185.703" fill="none" stroke="rgb(255, 0, 0)" stroke-linecap="round" stroke-linejoin="round" stroke-opacity="1.0" stroke-width="2"/>
    <path d="M132.788 213.597C143.034 178.543 124.459 180.858 138.777 210.741" fill="none" stroke="rgb(255, 0, 0)" stroke-linecap="round" stroke-linejoin="round" stroke-opacity="1.0" stroke-width="2"/>
    <path d="M110.4 210.542C109.672 195.518 135.532 199.413 107.672 209.527" fill="none" stroke="rgb(255, 0, 0)" stroke-linecap="round" stroke-linejoin="round" stroke-opacity="1.0" stroke-width="2"/>
    <path d="M136.14 212.84C147.802 177.355 129.808 166.679 123.762 198.178" fill="none" stroke="rgb(255, 0, 0)" stroke-linecap="round" stroke-linejoin="round" stroke-opacity="1.0" stroke-width="2"/>
    <path d="M107.522 208.197C135.409 199.938 60.4244 219.295 75.9217 199.779" fill="none" stroke="rgb(255, 0, 0)" stroke-linecap="round" stroke-linejoin="round" stroke-opacity="1.0" stroke-width="2"/>
    <path d="M140.341 188.067C127.431 212.647 109.484 203.503 138.062 190.141" fill="none" stroke="rgb(255, 0, 0)" stroke-linecap="round" stroke-linejoin="round" stroke-opacity="1.0" stroke-width="2"/>
    <path d="M95.5304 185.085C75.6317 187.372 119.897 192.256 133.658 183.64" fill="none" stroke="rgb(255, 0, 0)" stroke-linecap="round" stroke-linejoin="round" stroke-opacity="1.0" stroke-width="2"/>
    <path d="M125.085 186.158C113.74 156.708 105.21 169.291 121.913 173.152" fill="none" stroke="rgb(255, 0, 0)" stroke-linecap="round" stroke-linejoin="round" stroke-opacity="1.0" stroke-width="2"/>
    <path d="M99.8532 176.63C62.9386 176.843 100.826 180.039 73.3702 180.751" fill="none" stroke="rgb(255, 0, 0)" stroke-linecap="round" stroke-linejoin="round" stroke-opacity="1.0" stroke-width="2"/>
    <path d="M136.047 197.36C128.941 216.852 143.921 212.711 138.358 207.648" fill="none" stroke="rgb(255, 0, 0)" stroke-linecap="round" stroke-linejoin="round" stroke-opacity="1.0" stroke-width="2"/>
    <path d="M126.225 179.278C125.366 171.519 135.814 170.452 71.6751 170.343" fill="none" stroke="rgb(255, 0, 0)" stroke-linecap="round" stroke-linejoin="round" stroke-opacity="1.0" stroke-width="2"/>
    <path d="M76.4718 174.008C103.521 188.491 104.005 197.944 102.378 166.072" fill="none" stroke="rgb(255, 0, 0)" stroke-linecap="round" stroke-linejoin="round" stroke-opacity="1.0" stroke-width="2"/>
    <path d="M133.685 192.99C112.03 179.718 131.206 208 114.65 203.635" fill="none" stroke="rgb(255, 0, 0)" stroke-linecap="round" stroke-linejoin="round" stroke-opacity="1.0" stroke-width="2"/>
    <path d="M76.6695 209.314C117.13 189.601 66.5906 177.367 78.7351 206.646" fill="none" stroke="rgb(255, 0, 0)" stroke-linecap="round" stroke-linejoin="round" stroke-opacity="1.0" stroke-width="2"/>
    <path d="M130.633 201.752C128.278 197.877 131.383 213.994 131.046 206.779" fill="none" stroke="rgb(255, 0, 0)" stroke-linecap="round" stroke-linejoin="round" stroke-opacity="1.0" stroke-width="2"/>
    <path d="M103.226 192.171C97.1157 165.488 100.349 172.091 116.232 173.101" fill="none" stroke="rgb(255, 0, 0)" stroke-linecap="round" stroke-linejoin="round" stroke-opacity="1.0" stroke-width="2"/>
    <path d="M72.945 168.357C125.212 169.263 123.363 170.474 73.2043 171.192" fill="none" stroke="rgb(255, 0, 0)" stroke-linecap="round" stroke-linejoin="round" stroke-opacity="1.0" stroke-width="2"/>
    <path d="M123.294 194.531C114.194 203.248 142.72 192.402 142.603 199.108" fill="none" stroke="rgb(255, 0, 0)" stroke-linecap="round" stroke-linejoin="round" stroke-opacity="1.0" stroke-width="2"/>
    <path d="M133.304 205.413C126.856 173.963 123.803 175.551 119.108 171.778" fill="none" stroke="rgb(255, 0, 0)" stroke-linecap="round" stroke-linejoin="round" stroke-opacity="1.0" stroke-width="2"/>
    <path d="M109.72 205.551C122.395 171.05 119.588 237.432 93.6931 170.626" fill="none" stroke="rgb(255, 0, 0)" stroke-linecap="round" stroke-linejoin="round" stroke-opacity="1.0" stroke-width="2"/>
    <path d="M70.8684 186.303C116.464 181.319 108.001 196.882 76.8369 173.826" fill="none" stroke="rgb(255, 0, 0)" stroke-linecap="round" stroke-linejoin="round" stroke-opacity="1.0" stroke-width="2"/>
    <path d="M83.2743 179.342C118.035 170.818 105.063 181.489 72.5204 182.917" fill="none" stroke="rgb(255, 0, 0)" stroke-linecap="round" stroke-linejoin="round" stroke-opacity="1.0" stroke-width="2"/>
    <path d="M73.5714 174.532C110.122 168.713 113.111 182.346 75.6265 183.305" fill="none" stroke="rgb(255, 0, 0)" stroke-linecap="round" stroke-linejoin="round" stroke-opacity="1.0" stroke-width="2"/>
    <path d="M99.5928 188.617C117.319 181.103 110.419 237.423 103.242 208.105" fill="none" stroke="rgb(255, 0, 0)" stroke-linecap="round" stroke-linejoin="round" stroke-opacity="1.0" stroke-width="2"/>
    <path d="M65.6767 189.181C83.4028 181.667 76.5033 237.987 69.3259 208.67" fill="none" stroke="rgb(255, 0, 0)" stroke-linecap="round" stroke-linejoin="round" stroke-opacity="1.0" stroke-width="2"/>
    <path d="M127.189 183.015C120.223 172.82 144.927 173.749 100.068 169.513" fill="none" stroke="rgb(255, 0, 0)" stroke-linecap="round" stroke-linejoin="round" stroke-opacity="1.0" stroke-width="2"/>
    <path d="M99.9927 203.673C102.543 194.944 91.3052 196.637 101.907 204.445" fill="none" stroke="rgb(255, 0, 0)" stroke-linecap="round" stroke-linejoin="round" stroke-opacity="1.0" stroke-width="2"/>
    <path d="M75.1673 179.926C64.8951 191.349 65.3221 203.719 75.7316 169.936" fill="none" stroke="rgb(255, 0, 0)" stroke-linecap="round" stroke-linejoin="round" stroke-opacity="1.0" stroke-width="2"/>
    <path d="M98.4105 196.221C112.151 195.092 107.622 189.95 98.6578 192.219" fill="none" stroke="rgb(255, 0, 0)" stroke-linecap="round" stroke-linejoin="round" stroke-opacity="1.0" stroke-width="2"/>
    <path d="M71.2639 178.491C95.2804 186.702 99.3447 185.068 98.5382 185.878" fill="none" stroke="rgb(255, 0, 0)" stroke-linecap="round" stroke-linejoin="round" stroke-opacity="1.0" stroke-width="2"/>
    <path d="M124.263 179.176C157.245 187.416 144.454 209.584 97.6069 204.794" fill="none" stroke="rgb(255, 0, 0)" stroke-linecap="round" stroke-linejoin="round" stroke-opacity="1.0" stroke-width="2"/>
    <path d="M110.724 193.914C94.2451 215.141 143.789 202.733 101.641 188.599" fill="none" stroke="rgb(255, 0, 0)" stroke-linecap="round" stroke-linejoin="round" stroke-opacity="1.0" stroke-width="2"/>
    <path d="M94.9026 186.576C118.551 185.43 142.146 191.664 123.554 172.031" fill="none" stroke="rgb(255, 0, 0)" stroke-linecap="round" stroke-linejoin="round" stroke-opacity="1.0" stroke-width="2"/>
    <path d="M69.3011 138.654C109.902 130.249 89.7527 117.716 105.514 99.3566" fill="none" stroke="rgb(0, 255, 0)" stroke-linecap="round" stroke-linejoin="round" stroke-opacity="1.0" stroke-width="3"/>
    <path d="M114.54 109.965C99.3373 146.938 98.3499 116.734 110.563 118.613" fill="none" stroke="rgb(0, 255, 0)" stroke-linecap="round" stroke-linejoin="round" stroke-opacity="1.0" stroke-width="3"/>
    <path d="M128.385 127.409C150.641 126.438 129.249 122.831 155.236 122.805" fill="none" stroke="rgb(0, 255, 0)" stroke-linecap="round" stroke-linejoin="round" stroke-opacity="1.0" stroke-width="3"/>
    <path d="M112.345 91.4612C100.358 108.835 102.798 86.3397 99.3026 122.542" fill="none" stroke="rgb(0, 255, 0)" stroke-linecap="round" stroke-linejoin="round" stroke-opacity="1.0" stroke-width="3"/>
    <path d="M96.4883 137.594C52.0392 154.065 65.5816 146.798 66.7212 148.012" fill="none" stroke="rgb(0, 255, 0)" stroke-linecap="round" stroke-linejoin="round" stroke-opacity="1.0" stroke-width="3"/>
    <path d="M64.6718 147.052C59.8737 171.113 66.595 160.547 64.8824 163.161" fill="none" stroke="rgb(0, 255, 0)" stroke-linecap="round" stroke-linejoin="round" stroke-opacity="1.0" stroke-width="3"/>
    <path d="M58.1841 141.804C94.1553 129.417 76.6191 140.876 101.483 129.742" fill="none" stroke="rgb(0, 255, 0)" stroke-linecap="round" stroke-linejoin="round" stroke-opacity="1.0" stroke-width="3"/>
    <path d="M170.897 102.134C148.479 100.427 184.214 108.136 131.305 101.504" fill="none" stroke="rgb(0, 255, 0)" stroke-linecap="round" stroke-linejoin="round" stroke-opacity="1.0" stroke-width="3"/>
    <path d="M94.1793 83.8776C242.652 96.4007 103.483 92.2767 117.337 78.7955" fill="none" stroke="rgb(0, 255, 0)" stroke-linecap="round" stroke-linejoin="round" stroke-opacity="1.0" stroke-width="3"/>
    <path d="M123.411 100.872C95.4065 100.258 118.692 133.129 98.0275 130.468" fill="none" stroke="rgb(0, 255, 0)" stroke-linecap="round" stroke-linejoin="round" stroke-opacity="1.0" stroke-width="3"/>
    <path d="M43.881 131.767C41.1022 157.32 48.9192 146.399 32.6259 146.803" fill="none" stroke="rgb(0, 255, 0)" stroke-linecap="round" stroke-linejoin="round" stroke-opacity="1.0" stroke-width="3"/>
    <path d="M49.3062 143.483C40.9874 126.519 46.1925 128.763 43.5826 143.41" fill="none" stroke="rgb(0, 255, 0)" stroke-linecap="round" stroke-linejoin="round" stroke-opacity="1.0" stroke-width="3"/>
    <path d="M150.655 131.283C184.903 117.141 212.949 104.507 176.987 111.175" fill="none" stroke="rgb(0, 255, 0)" stroke-linecap="round" stroke-linejoin="round" stroke-opacity="1.0" stroke-width="3"/>
    <path d="M91.3683 139.772C5.98885 161.752 14.9495 163.605 56.3912 135.322" fill="none" stroke="rgb(0, 255, 0)" stroke-linecap="round" stroke-linejoin="round" stroke-opacity="1.0" stroke-width="3"/>
    <path d="M23.9927 150.875C25.4812 146.837 29.9959 150.38 60.14 137.461" fill="none" stroke="rgb(0, 255, 0)" stroke-linecap="round" stroke-linejoin="round" stroke-opacity="1.0" stroke-width="3"/>
    <path d="M94.25 130.232C188.771 118.217 174.195 123.177 121.219 143.789" fill="none" stroke="rgb(0, 255, 0)" stroke-linecap="round" stroke-linejoin="round" stroke-opacity="1.0" stroke-width="3"/>
    <path d="M128.226 131.344C155.962 126.226 178.982 116.388 159.988 127.834" fill="none" stroke="rgb(0, 255, 0)" stroke-linecap="round" stroke-linejoin="round" stroke-opacity="1.0" stroke-width="3"/>
    <path d="M190.775 104.106C156.163 82.466 137.775 95.118 156.45 90.4064" fill="none" stroke="rgb(0, 255, 0)" stroke-linecap="round" stroke-linejoin="round" stroke-opacity="1.0" stroke-width="3"/>
    <path d="M84.3557 135.603C51.7688 134.34 74.368 146.906 42.888 135.363" fill="none" stroke="rgb(0, 255, 0)" stroke-linecap="round" stroke-linejoin="round" stroke-opacity="1.0" stroke-width="3"/>
    <path d="M55.4682 134.706C14.1715 139.865 31.512 118.646 41.8761 146.902" fill="none" stroke="rgb(0, 255, 0)" stroke-linecap="round" stroke-linejoin="round" stroke-opacity="1.0" stroke-width="3"/>
    <path d="M128.874 128.376C140.244 132.19 143.822 124.765 138.036 126.533" fill="none" stroke="rgb(0, 255, 0)" stroke-linecap="round" stroke-linejoin="round" stroke-opacity="1.0" stroke-width="3"/>
    <path d="M69.7439 144.904C-2.5087 170.404 -1.6828 162.528 49.2084 139.259" fill="none" stroke="rgb(0, 255, 0)" stroke-linecap="round" stroke-linejoin="round" stroke-opacity="1.0" stroke-width="3"/>
    <path d="M128.839 126.477C86.8248 142.139 95.626 134.623 94.1577 149.105" fill="none" stroke="rgb(0, 255, 0)" stroke-linecap="round" stroke-linejoin="round" stroke-opacity="1.0" stroke-width="3"/>
    <path d="M56.1404 136.43C62.8883 133.806 52.1714 144.576 71.4808 136.577" fill="none" stroke="rgb(0, 255, 0)" stroke-linecap="round" stroke-linejoin="round" stroke-opacity="1.0" stroke-width="3"/>
    <path d="M79.5847 80.8232C110.928 81.9774 101.33 82.8937 110.286 79.613" fill="none" stroke="rgb(0, 255, 0)" stroke-linecap="round" stroke-linejoin="round" stroke-opacity="1.0" stroke-width="3"/>
    <path d="M126.639 111.892C125 147.777 123.928 164.099 126.263 94.1241" fill="none" stroke="rgb(0, 255, 0)" stroke-linecap="round" stroke-linejoin="round" stroke-opacity="1.0" stroke-width="3"/>
    <path d="M192.489 105.431C177.298 119.899 132.376 111.548 176.167 118.178" fill="none" stroke="rgb(0, 255, 0)" stroke-linecap="round" stroke-linejoin="round" stroke-opacity="1.0" stroke-width="3"/>
    <path d="M69.4083 138.964C23.874 152.88 46.5784 143.483 94.6501 132.854" fill="none" stroke="rgb(0, 255, 0)" stroke-linecap="round" stroke-linejoin="round" stroke-opacity="1.0" stroke-width="3"/>
    <path d="M34.0867 146.548C55.8157 139.841 11.1861 157.543 42.4278 128.218" fill="none" stroke="rgb(0, 255, 0)" stroke-linecap="round" stroke-linejoin="round" stroke-opacity="1.0" stroke-width="3"/>
    <path d="M39.0883 126.91C62.2111 149.299 53.7875 139.779 26.1359 151.883" fill="none" stroke="rgb(0, 255, 0)" stroke-linecap="round" stroke-linejoin="round" stroke-opacity="1.0" stroke-width="3"/>
    <path d="M114.366 144.016C113.915 112.044 106.61 129.95 155.859 115.036" fill="none" stroke="rgb(0, 255, 0)" stroke-linecap="round" stroke-linejoin="round" stroke-opacity="1.0" stroke-width="3"/>
    <path d="M134.281 128.771C151.021 135.949 168.113 94.4912 143.749 105.501" fill="none" stroke="rgb(0, 255, 0)" stroke-linecap="round" stroke-linejoin="round" stroke-opacity="1.0" stroke-width="3"/>
    <path d="M110.223 127.971C119.362 107.102 122.326 75.3784 100.214 116.379" fill="none" stroke="rgb(0, 255, 0)" stroke-linecap="round" stroke-linejoin="round" stroke-opacity="1.0" stroke-width="3"/>
    <path d="M32.1315 136.047C65.9952 125.509 59.232 153.379 51.5459 131.652" fill="none" stroke="rgb(0, 255, 0)" stroke-linecap="round" stroke-linejoin="round" stroke-opacity="1.0" stroke-width="3"/>
    <path d="M158.183 103.9C153.7 119.667 171.566 116.645 139.71 117.955" fill="none" stroke="rgb(0, 255, 0)" stroke-linecap="round" stroke-linejoin="round" stroke-opacity="1.0" stroke-width="3"/>
    <path d="M74.7994 137.12C79.931 127.599 104.204 133.819 84.7906 134.646" fill="none" stroke="rgb(0, 255, 0)" stroke-linecap="round" stroke-linejoin="round" stroke-opacity="1.0" stroke-width="3"/>
    <path d="M210.954 109.683C206.146 105.511 205.423 106.294 207.054 105.312" fill="none" stroke="rgb(0, 0, 255)" stroke-linecap="round" stroke-linejoin="round" stroke-opacity="1.0" stroke-width="1"/>
    <path d="M230.895 122.965C229.74 126.617 234.206 124.095 230.645 125.107" fill="none" stroke="rgb(0, 0, 255)" stroke-linecap="round" stroke-linejoin="round" stroke-opacity="1.0" stroke-width="1"/>
    <path d="M219.343 115.432C216.144 112.176 220.22 111.744 221.123 116.601" fill="none" stroke="rgb(0, 0, 255)" stroke-linecap="round" stroke-linejoin="round" stroke-opacity="1.0" stroke-width="1"/>
    <path d="M217.585 113.032C223.265 113.628 219.569 117.438 219.848 115.62" fill="none" stroke="rgb(0, 0, 255)" stroke-linecap="round" stroke-linejoin="round" stroke-opacity="1.0" stroke-width="1"/>
    <path d="M213.253 106.299C217.345 105.725 216.908 102.493 219.809 103.13" fill="none" stroke="rgb(0, 0, 255)" stroke-linecap="round" stroke-linejoin="round" stroke-opacity="1.0" stroke-width="1"/>
    <path d="M212.318 111.951C211.81 116.687 212.838 115.144 212.784 111.824" fill="none" stroke="rgb(0, 0, 255)" stroke-linecap="round" stroke-linejoin="round" stroke-opacity="1.0" stroke-width="1"/>
    <path d="M222.126 111.306C229.468 110.237 227.337 113.817 228.998 111.055" fill="none" stroke="rgb(0, 0, 255)" stroke-linecap="round" stroke-linejoin="round" stroke-opacity="1.0" stroke-width="1"/>
    <path d="M218.788 128.624C215.931 128.874 215.728 127.645 219.849 129.207" fill="none" stroke="rgb(0, 0, 255)" stroke-linecap="round" stroke-linejoin="round" stroke-opacity="1.0" stroke-width="1"/>
    <path d="M227.095 136.466C225.435 137.266 223.914 135.614 222.851 131.372" fill="none" stroke="rgb(0, 0, 255)" stroke-linecap="round" stroke-linejoin="round" stroke-opacity="1.0" stroke-width="1"/>
    <path d="M222.532 106.604C224.401 105.737 221.842 107.359 223.167 107.324" fill="none" stroke="rgb(0, 0, 255)" stroke-linecap="round" stroke-linejoin="round" stroke-opacity="1.0" stroke-width="1"/>
    <path d="M228.699 131.533C226.83 127.176 230.342 133.125 226.29 124.013" fill="none" stroke="rgb(0, 0, 255)" stroke-linecap="round" stroke-linejoin="round" stroke-opacity="1.0" stroke-width="1"/>
    <path d="M210.573 104.145C210.561 111.766 202.177 107.23 211.656 101.153" fill="none" stroke="rgb(0, 0, 255)" stroke-linecap="round" stroke-linejoin="round" stroke-opacity="1.0" stroke-width="1"/>
    <path d="M223.894 115.145C223.72 111.617 224.778 111.13 229.913 116.65" fill="none" stroke="rgb(0, 0, 255)" stroke-linecap="round" stroke-linejoin="round" stroke-opacity="1.0" stroke-width="1"/>
    <path d="M223.111 128.062C223.887 133.192 226.114 136.327 220.126 129.504" fill="none" stroke="rgb(0, 0, 255)" stroke-linecap="round" stroke-linejoin="round" stroke-opacity="1.0" stroke-width="1"/>
    <path d="M216.387 97.9404C217.777 99.1908 217.3 103.107 220.677 98.6868" fill="none" stroke="rgb(0, 0, 255)" stroke-linecap="round" stroke-linejoin="round" stroke-opacity="1.0" stroke-width="1"/>
    <path d="M215.096 98.1706C213.805 101.392 216.059 103.485 220.872 101.947" fill="none" stroke="rgb(0, 0, 255)" stroke-linecap="round" stroke-linejoin="round" stroke-opacity="1.0" stroke-width="1"/>
    <path d="M222.09 95.0632C217.986 95.4994 221.859 96.5331 222.353 96.7777" fill="none" stroke="rgb(0, 0, 255)" stroke-linecap="round" stroke-linejoin="round" stroke-opacity="1.0" stroke-width="1"/>
    <path d="M223.075 119.506C224.96 125.99 225.439 125.699 224.074 119.775" fill="none" stroke="rgb(0, 0, 255)" stroke-linecap="round" stroke-linejoin="round" stroke-opacity="1.0" stroke-width="1"/>
    <path d="M215.04 117.302C215.68 119.833 215.495 120.265 214.341 117.331" fill="none" stroke="rgb(0, 0, 255)" stroke-linecap="round" stroke-linejoin="round" stroke-opacity="1.0" stroke-width="1"/>
    <path d="M223.648 126.172C223.177 130.193 225.739 124.217 223.119 130.621" fill="none" stroke="rgb(0, 0, 255)" stroke-linecap="round" stroke-linejoin="round" stroke-opacity="1.0" stroke-width="1"/>
    <path d="M224.258 133.428C228.296 137.425 225.305 137.38 224.477 132.989" fill="none" stroke="rgb(0, 0, 255)" stroke-linecap="round" stroke-linejoin="round" stroke-opacity="1.0" stroke-width="1"/>
    <path d="M228.84 128.46C230.203 125.941 227.438 128.108 231.203 125.688" fill="none" stroke="rgb(0, 0, 255)" stroke-linecap="round" stroke-linejoin="round" stroke-opacity="1.0" stroke-width="1"/>
    <path d="M221.243 111.498C215.36 112.126 221.171 112.587 224.892 104.122" fill="none" stroke="rgb(0, 0, 255)" stroke-linecap="round" stroke-linejoin="round" stroke-opacity="1.0" stroke-width="1"/>
    <path d="M214.455 124.546C208.152 118.309 212.013 116.874 209.797 116.402" fill="none" stroke="rgb(0, 0, 255)" stroke-linecap="round" stroke-linejoin="round" stroke-opacity="1.0" stroke-width="1"/>
    <path d="M217.755 100.408C212.22 97.0295 215.013 95.8834 217.292 100.526" fill="none" stroke="rgb(0, 0, 255)" stroke-linecap="round" stroke-linejoin="round" stroke-opacity="1.0" stroke-width="1"/>
    <path d="M207.877 107.468C203.974 111.652 214.437 106.82 205 110.068" fill="none" stroke="rgb(0, 0, 255)" stroke-linecap="round" stroke-linejoin="round" stroke-opacity="1.0" stroke-width="1"/>
    <path d="M215.096 98.3968C217.594 97.4918 219.508 99.7693 215.121 97.8248" fill="none" stroke="rgb(0, 0, 255)" stroke-linecap="round" stroke-linejoin="round" stroke-opacity="1.0" stroke-width="1"/>
    <path d="M214.259 128.692C214.004 123.667 215.274 128.391 216.722 128.487" fill="none" stroke="rgb(0, 0, 255)" stroke-linecap="round" stroke-linejoin="round" stroke-opacity="1.0" stroke-width="1"/>
    <path d="M230.931 115.853C230.572 114.18 229.79 111.337 230.336 115.601" fill="none" stroke="rgb(0, 0, 255)" stroke-linecap="round" stroke-linejoin="round" stroke-opacity="1.0" stroke-width="1"/>
    <path d="M222.202 111.039C221.785 106.957 223.123 111.7 221.37 110.411" fill="none" stroke="rgb(0, 0, 255)" stroke-linecap="round" stroke-linejoin="round" stroke-opacity="1.0" stroke-width="1"/>
    <path d="M215.641 103.222C219.488 101.874 220.635 105.532 214.32 103.586" fill="none" stroke="rgb(0, 0, 255)" stroke-linecap="round" stroke-linejoin="round" stroke-opacity="1.0" stroke-width="1"/>
    <path d="M214.094 126.862C212.523 115.581 212.707 110.07 215.332 121.303" fill="none" stroke="rgb(0, 0, 255)" stroke-linecap="round" stroke-linejoin="round" stroke-opacity="1.0" stroke-width="1"/>
    <path d="M215.616 110.691C212.615 104.631 211.523 103.797 213.269 107.892" fill="none" stroke="rgb(0, 0, 255)" stroke-linecap="round" stroke-linejoin="round" stroke-opacity="1.0" stroke-width="1"/>
    <path d="M230.992 118.908C230.034 115.698 233.519 118.667 230.26 113.501" fill="none" stroke="rgb(0, 0, 255)" stroke-linecap="round" stroke-linejoin="round" stroke-opacity="1.0" stroke-width="1"/>
    <path d="M221.137 96.5267C221.703 93.5138 223.454 97.7121 221.163 96.2398" fill="none" stroke="rgb(0, 0, 255)" stroke-linecap="round" stroke-linejoin="round" stroke-opacity="1.0" stroke-width="1"/>
    <path d="M221.084 112.707C221.985 117.227 221.752 116.537 221.062 118.184" fill="none" stroke="rgb(0, 0, 255)" stroke-linecap="round" stroke-linejoin="round" stroke-opacity="1.0" stroke-width="1"/>
    <path d="M222.561 113.186C222.553 112.543 223.215 116.579 223.196 118.135" fill="none" stroke="rgb(0, 0, 255)" stroke-linecap="round" stroke-linejoin="round" stroke-opacity="1.0" stroke-width="1"/>
    <path d="M220.445 113.003C217.459 117.695 222.975 117.818 219.44 112.683" fill="none" stroke="rgb(0, 0, 255)" stroke-linecap="round" stroke-linejoin="round" stroke-opacity="1.0" stroke-width="1"/>
    <path d="M225.997 131.577C225.881 124.583 223.939 132.624 227.357 135.988" fill="none" stroke="rgb(0, 0, 255)" stroke-linecap="round" stroke-linejoin="round" stroke-opacity="1.0" stroke-width="1"/>
    <path d="M222.2 116.676C223.635 122.418 220.036 118.601 223.922 119.245" fill="none" stroke="rgb(0, 0, 255)" stroke-linecap="round" stroke-linejoin="round" stroke-opacity="1.0" stroke-width="1"/>
    <path d="M220.815 105.05C219.855 103.143 222.973 105.454 215.128 104.087" fill="none" stroke="rgb(0, 0, 255)" stroke-linecap="round" stroke-linejoin="round" stroke-opacity="1.0" stroke-width="1"/>
    <path d="M227.808 109.959C220.472 107.415 224.365 110.064 224.074 111.986" fill="none" stroke="rgb(0, 0, 255)" stroke-linecap="round" stroke-linejoin="round" stroke-opacity="1.0" stroke-width="1"/>
    <path d="M211.726 119.377C208.105 113.429 208.841 117.293 215.033 112.419" fill="none" stroke="rgb(0, 0, 255)" stroke-linecap="round" stroke-linejoin="round" stroke-opacity="1.0" stroke-width="1"/>
    <path d="M222.909 96.2958C223.454 96.1377 221.775 100.423 222.978 96.68" fill="none" stroke="rgb(0, 0, 255)" stroke-linecap="round" stroke-linejoin="round" stroke-opacity="1.0" stroke-width="1"/>
    <path d="M212.428 112.25C210.219 113.096 210.294 114.185 211.648 112.51" fill="none" stroke="rgb(0, 0, 255)" stroke-linecap="round" stroke-linejoin="round" stroke-opacity="1.0" stroke-width="1"/>
    <path d="M212.676 115.614C214.68 116.985 211.933 121.094 212.316 115.829" fill="none" stroke="rgb(0, 0, 255)" stroke-linecap="round" stroke-linejoin="round" stroke-opacity="1.0" stroke-width="1"/>
    <path d="M220.099 99.1945C215.569 100.578 214.77 101.659 215.325 98.3566" fill="none" stroke="rgb(0, 0, 255)" stroke-linecap="round" stroke-linejoin="round" stroke-opacity="1.0" stroke-width="1"/>
    <path d="M215.616 98.3983C223.787 100.055 227.253 97.516 215.42 96.4681" fill="none" stroke="rgb(0, 0, 255)" stroke-linecap="round" stroke-linejoin="round" stroke-opacity="1.0" stroke-width="1"/>
    <path d="M220.602 104.289C222.876 102.375 219.102 102.47 222.642 100.805" fill="none" stroke="rgb(0, 0, 255)" stroke-linecap="round" stroke-linejoin="round" stroke-opacity="1.0" stroke-width="1"/>
    <path d="M220.059 102.885C213.377 107.841 208.141 104.279 212.788 104.867" fill="none" stroke="rgb(0, 0, 255)" stroke-linecap="round" stroke-linejoin="round" stroke-opacity="1.0" stroke-width="1"/>
    <path d="M210.23 114.505C212.827 111.204 209.361 110.44 218.948 114.194" fill="none" stroke="rgb(0, 0, 255)" stroke-linecap="round" stroke-linejoin="round" stroke-opacity="1.0" stroke-width="1"/>
    <path d="M207.708 104.689C206.945 104.933 208.339 104.983 207.123 106.574" fill="none" stroke="rgb(0, 0, 255)" stroke-linecap="round" stroke-linejoin="round" stroke-opacity="1.0" stroke-width="1"/>
    <path d="M215.542 97.7752C214.329 101.326 215.194 104.257 217.664 98.448" fill="none" stroke="rgb(0, 0, 255)" stroke-linecap="round" stroke-linejoin="round" stroke-opacity="1.0" stroke-width="1"/>
    <path d="M218.113 98.5962C214.384 100.025 212.998 99.9359 212.182 104.052" fill="none" stroke="rgb(0, 0, 255)" stroke-linecap="round" stroke-linejoin="round" stroke-opacity="1.0" stroke-width="1"/>
    <path d="M230.195 122.326C231.76 115.395 232.701 114.935 229.395 117.263" fill="none" stroke="rgb(0, 0, 255)" stroke-linecap="round" stroke-linejoin="round" stroke-opacity="1.0" stroke-width="1"/>
    <path d="M222.47 108.663C222.279 110.919 224.174 111.972 222.168 106.441" fill="none" stroke="rgb(0, 0, 255)" stroke-linecap="round" stroke-linejoin="round" stroke-opacity="1.0" stroke-width="1"/>
    <path d="M221.513 105.823C227.116 104.51 227.867 102.095 225.911 103.537" fill="none" stroke="rgb(0, 0, 255)" stroke-linecap="round" stroke-linejoin="round" stroke-opacity="1.0" stroke-width="1"/>
    <path d="M232.97 103.966C224.766 98.041 225.793 99.2356 220.991 102.338" fill="none" stroke="rgb(0, 0, 255)" stroke-linecap="round" stroke-linejoin="round" stroke-opacity="1.0" stroke-width="1"/>
    <path d="M214.237 100.091C213.112 101.827 217.975 104.301 221.295 99.5156" fill="none" stroke="rgb(0, 0, 255)" stroke-linecap="round" stroke-linejoin="round" stroke-opacity="1.0" stroke-width="1"/>
    <path d="M212.947 103.412C216.28 106.192 217.145 105.323 214.195 100.576" fill="none" stroke="rgb(0, 0, 255)" stroke-linecap="round" stroke-linejoin="round" stroke-opacity="1.0" stroke-width="1"/>
    <path d="M228.629 133.657C230.487 130.792 228.628 131.319 228.72 129.505" fill="none" stroke="rgb(0, 0, 255)" stroke-linecap="round" stroke-linejoin="round" stroke-opacity="1.0" stroke-width="1"/>
    <path d="M223.017 101.276C223.89 97.6368 222.316 97.5456 220.719 100.276" fill="none" stroke="rgb(0, 0, 255)" stroke-linecap="round" stroke-linejoin="round" stroke-opacity="1.0" stroke-width="1"/>
    <path d="M224.642 122.119C225.642 128.823 225.482 129.433 225.28 125.119" fill="none" stroke="rgb(0, 0, 255)" stroke-linecap="round" stroke-linejoin="round" stroke-opacity="1.0" stroke-width="1"/>
    <path d="M218.763 99.9091C222.359 97.0127 226.1 96.2968 219.822 95.8041" fill="none" stroke="rgb(0, 0, 255)" stroke-linecap="round" stroke-linejoin="round" stroke-opacity="1.0" stroke-width="1"/>
    <path d="M230.818 113.638C228.904 115.423 230.947 111.343 227.524 109.696" fill="none" stroke="rgb(0, 0, 255)" stroke-linecap="round" stroke-linejoin="round" stroke-opacity="1.0" stroke-width="1"/>
    <path d="M224.641 118.766C223.829 115.819 223.693 116.833 222.151 111.232" fill="none" stroke="rgb(0, 0, 255)" stroke-linecap="round" stroke-linejoin="round" stroke-opacity="1.0" stroke-width="1"/>
    <path d="M213.506 114.78C216.159 119.041 215.55 122.979 214.939 115.632" fill="none" stroke="rgb(0, 0, 255)" stroke-linecap="round" stroke-linejoin="round" stroke-opacity="1.0" stroke-width="1"/>
    <path d="M222.305 95.4516C225.213 97.9479 220.012 101.893 222.604 101.514" fill="none" stroke="rgb(0, 0, 255)" stroke-linecap="round" stroke-linejoin="round" stroke-opacity="1.0" stroke-width="1"/>
    <path d="M221.628 102.671C219.929 104.469 220.275 104.855 215.727 101.99" fill="none" stroke="rgb(0, 0, 255)" stroke-linecap="round" stroke-linejoin="round" stroke-opacity="1.0" stroke-width="1"/>
    <path d="M221.401 95.6357C220.662 95.8085 219.468 97.59 221.698 95.7524" fill="none" stroke="rgb(0, 0, 255)" stroke-linecap="round" stroke-linejoin="round" stroke-opacity="1.0" stroke-width="1"/>
    <path d="M213.636 99.9291C207.126 103.668 216.426 106.296 215.994 102.597" fill="none" stroke="rgb(0, 0, 255)" stroke-linecap="round" stroke-linejoin="round" stroke-opacity="1.0" stroke-width="1"/>
    <path d="M214.345 101.024C214.908 98.0576 214.884 103.382 220.011 103.685" fill="none" stroke="rgb(0, 0, 255)" stroke-linecap="round" stroke-linejoin="round" stroke-opacity="1.0" stroke-width="1"/>
    <path d="M214.766 97.6181C213.593 105.792 217.557 108.139 211.858 102.365" fill="none" stroke="rgb(0, 0, 255)" stroke-linecap="round" stroke-linejoin="round" stroke-opacity="1.0" stroke-width="1"/>
    <path d="M213.647 107.198C215.337 106.467 210.209 102.163 213.735 106.332" fill="none" stroke="rgb(0, 0, 255)" stroke-linecap="round" stroke-linejoin="round" stroke-opacity="1.0" stroke-width="1"/>
    <path d="M223.179 98.4821C221.55 98.9446 221.731 98.2392 215.132 97.2713" fill="none" stroke="rgb(0, 0, 255)" stroke-linecap="round" stroke-linejoin="round" stroke-opacity="1.0" stroke-width="1"/>
    <path d="M230.092 123.212C233.429 126.15 230.125 123.272 231.405 124.888" fill="none" stroke="rgb(0, 0, 255)" stroke-linecap="round" stroke-linejoin="round" stroke-opacity="1.0" stroke-width="1"/>
    <path d="M218.193 105.111C222.842 101.207 225.023 100.767 219.92 104.296" fill="none" stroke="rgb(0, 0, 255)" stroke-linecap="round" stroke-linejoin="round" stroke-opacity="1.0" stroke-width="1"/>
    <path d="M214.161 113.345C211.674 105.377 214.663 106.56 212.563 109.063" fill="none" stroke="rgb(0, 0, 255)" stroke-linecap="round" stroke-linejoin="round" stroke-opacity="1.0" stroke-width="1"/>
    <path d="M226.523 136.237C229.819 136.167 228.177 134.387 227.57 127.686" fill="none" stroke="rgb(0, 0, 255)" stroke-linecap="round" stroke-linejoin="round" stroke-opacity="1.0" stroke-width="1"/>
    <path d="M213.689 103.18C217.322 106.771 219.427 103.902 214.298 106.743" fill="none" stroke="rgb(0, 0, 255)" stroke-linecap="round" stroke-linejoin="round" stroke-opacity="1.0" stroke-width="1"/>
    <path d="M223.013 101.367C224.483 97.4108 219.655 97.7487 215.125 97.789" fill="none" stroke="rgb(0, 0, 255)" stroke-linecap="round" stroke-linejoin="round" stroke-opacity="1.0" stroke-width="1"/>
    <path d="M216.077 113.305C212.896 112.835 212.742 113.379 218.103 113.223" fill="none" stroke="rgb(0, 0, 255)" stroke-linecap="round" stroke-linejoin="round" stroke-opacity="1.0" stroke-width="1"/>
    <path d="M226.425 103.95C229.406 103.142 236.421 102.839 228.994 101.706" fill="none" stroke="rgb(0, 0, 255)" stroke-linecap="round" stroke-linejoin="round" stroke-opacity="1.0" stroke-width="1"/>
    <path d="M223.033 101.513C227.069 99.2501 223.165 97.8383 218.122 101.749" fill="none" stroke="rgb(0, 0, 255)" stroke-linecap="round" stroke-linejoin="round" stroke-opacity="1.0" stroke-width="1"/>
    <path d="M213.297 110.483C218.077 110.678 216.537 110.379 222.61 111.694" fill="none" stroke="rgb(0, 0, 255)" stroke-linecap="round" stroke-linejoin="round" stroke-opacity="1.0" stroke-width="1"/>
    <path d="M218.473 95.8484C223.586 93.5199 216.474 93.0537 214.758 96.8642" fill="none" stroke="rgb(0, 0, 255)" stroke-linecap="round" stroke-linejoin="round" stroke-opacity="1.0" stroke-width="1"/>
    <path d="M215.686 118.956C215.319 120.886 214.25 122.157 215.835 121.044" fill="none" stroke="rgb(0, 0, 255)" stroke-linecap="round" stroke-linejoin="round" stroke-opacity="1.0" stroke-width="1"/>
    <path d="M217.007 95.6723C217.277 93.2425 222.782 94.4299 222.462 95.9318" fill="none" stroke="rgb(0, 0, 255)" stroke-linecap="round" stroke-linejoin="round" stroke-opacity="1.0" stroke-width="1"/>
    <path d="M211.897 109.366C210.662 113.05 210.112 111.895 210.824 114.751" fill="none" stroke="rgb(0, 0, 255)" stroke-linecap="round" stroke-linejoin="round" stroke-opacity="1.0" stroke-width="1"/>
  </g>
</svg>
