<?xml version="1.0" ?>
<svg xmlns="http://www.w3.org/2000/svg" version="1.1" width="256" height="256">
  <defs/>
  <g>
    <path d="M 59.0 96.00189971923828 C 36.84149932861328 106.44400024414062 21.546100616455078 126.98799896240234 20.21540069580078 180.60299682617188" stroke-width="2.0" fill="none" stroke="rgb(255, 0, 0)" stroke-opacity="1" stroke-linecap="round" stroke-linejoin="round"/>
    <path d="M 58.72959899902344 96.0 C 58.72959899902344 124.79499816894531 58.72959899902344 150.66600036621094 58.72959899902344 179.91099548339844" stroke-width="2.0" fill="none" stroke="rgb(255, 0, 0)" stroke-opacity="1" stroke-linecap="round" stroke-linejoin="round"/>
    <path d="M 33.292198181152344 120.72200012207031 C 41.792999267578125 141.36500549316406 49.06570053100586 159.0189971923828 57.66809844970703 179.9080047607422" stroke-width="2.0" fill="none" stroke="rgb(255, 0, 0)" stroke-opacity="1" stroke-linecap="round" stroke-linejoin="round"/>
    <path d="M 26.64430046081543 136.73599243164062 C 33.59960174560547 152.03599548339844 39.54990005493164 165.1219940185547 46.58810043334961 180.60400390625" stroke-width="2.0" fill="none" stroke="rgb(255, 0, 0)" stroke-opacity="1" stroke-linecap="round" stroke-linejoin="round"/>
    <path d="M 23.190500259399414 156.92999267578125 C 27.4862003326416 165.18699645996094 31.16119956970215 172.24899291992188 35.508201599121094 180.60400390625" stroke-width="2.0" fill="none" stroke="rgb(255, 0, 0)" stroke-opacity="1" stroke-linecap="round" stroke-linejoin="round"/>
    <path d="M 41.68230056762695 109.58200073242188 C 47.56629943847656 124.63800048828125 52.60020065307617 137.51600646972656 58.55459976196289 152.7530059814453" stroke-width="2.0" fill="none" stroke="rgb(255, 0, 0)" stroke-opacity="1" stroke-linecap="round" stroke-linejoin="round"/>
    <path d="M 50.15999984741211 101.2249984741211 C 53.087398529052734 107.78299713134766 55.59199905395508 113.39099884033203 58.55459976196289 120.0260009765625" stroke-width="2.0" fill="none" stroke="rgb(255, 0, 0)" stroke-opacity="1" stroke-linecap="round" stroke-linejoin="round"/>
    <path d="M 58.12770080566406 105.177001953125 C 45.93069839477539 120.91999816894531 35.49909973144531 134.38099670410156 23.1564998626709 150.31199645996094" stroke-width="2.0" fill="none" stroke="rgb(255, 0, 0)" stroke-opacity="1" stroke-linecap="round" stroke-linejoin="round"/>
    <path d="M 58.512901306152344 124.15799713134766 C 45.54330062866211 140.5500030517578 34.450599670410156 154.5659942626953 21.325899124145508 171.15499877929688" stroke-width="2.0" fill="none" stroke="rgb(255, 0, 0)" stroke-opacity="1" stroke-linecap="round" stroke-linejoin="round"/>
    <path d="M 57.9098014831543 141.7949981689453 C 46.979801177978516 155.6269989013672 37.63199996948242 167.45399475097656 26.571699142456055 181.4499969482422" stroke-width="2.0" fill="none" stroke="rgb(255, 0, 0)" stroke-opacity="1" stroke-linecap="round" stroke-linejoin="round"/>
    <path d="M 57.83829879760742 158.05999755859375 C 51.964599609375 166.01199340820312 46.941001892089844 172.8090057373047 40.99700164794922 180.85499572753906" stroke-width="2.0" fill="none" stroke="rgb(255, 0, 0)" stroke-opacity="1" stroke-linecap="round" stroke-linejoin="round"/>
    <path d="M 58.55670166015625 178.5189971923828 C 48.80649948120117 182.0 29.526599884033203 182.0 20.0 182.0" stroke-width="2.0" fill="none" stroke="rgb(255, 0, 0)" stroke-opacity="1" stroke-linecap="round" stroke-linejoin="round"/>
    <path d="M 198.33299255371094 171.91000366210938 C 194.74899291992188 165.89100646972656 187.08299255371094 170.8990020751953 191.16700744628906 176.3769989013672" stroke-width="1.0" fill="none" stroke="rgb(0, 0, 255)" stroke-opacity="1" stroke-linecap="round" stroke-linejoin="round"/>
    <path d="M 198.0019989013672 170.8350067138672 C 200.26800537109375 184.82899475097656 182.92599487304688 173.55999755859375 194.10499572753906 176.06500244140625" stroke-width="1.0" fill="none" stroke="rgb(0, 0, 255)" stroke-opacity="1" stroke-linecap="round" stroke-linejoin="round"/>
    <path d="M 192.26600646972656 176.93800354003906 C 196.5030059814453 162.4219970703125 187.156005859375 171.76600646972656 196.5030059814453 176.93800354003906" stroke-width="1.0" fill="none" stroke="rgb(0, 0, 255)" stroke-opacity="1" stroke-linecap="round" stroke-linejoin="round"/>
    <path d="M 195.0989990234375 177.56300354003906 C 199.33599853515625 163.0469970703125 188.8419952392578 170.26600646972656 198.18899536132812 175.43800354003906" stroke-width="1.0" fill="none" stroke="rgb(0, 0, 255)" stroke-opacity="1" stroke-linecap="round" stroke-linejoin="round"/>
    <path d="M 214.5659942626953 144.40699768066406 C 214.26100158691406 135.3699951171875 208.1230010986328 135.9759979248047 216.74000549316406 143.38400268554688" stroke-width="1.0" fill="none" stroke="rgb(0, 255, 0)" stroke-opacity="1" stroke-linecap="round" stroke-linejoin="round"/>
    <path d="M 223.20399475097656 157.23300170898438 C 226.8520050048828 137.93499755859375 227.57400512695312 149.38699340820312 218.31100463867188 130.96299743652344" stroke-width="1.0" fill="none" stroke="rgb(0, 255, 0)" stroke-opacity="1" stroke-linecap="round" stroke-linejoin="round"/>
    <path d="M 212.3990020751953 124.1709976196289 C 221.9199981689453 127.21600341796875 220.95199584960938 124.1709976196289 226.07000732421875 130.11700439453125" stroke-width="1.0" fill="none" stroke="rgb(0, 255, 0)" stroke-opacity="1" stroke-linecap="round" stroke-linejoin="round"/>
    <path d="M 225.24000549316406 128.1320037841797 C 228.1439971923828 133.4759979248047 230.91099548339844 139.2790069580078 228.1439971923828 139.2790069580078" stroke-width="1.0" fill="none" stroke="rgb(0, 255, 0)" stroke-opacity="1" stroke-linecap="round" stroke-linejoin="round"/>
    <path d="M 227.17599487304688 174.09300231933594 C 227.17599487304688 178.06300354003906 221.5050048828125 175.9250030517578 218.73899841308594 175.9250030517578" stroke-width="1.0" fill="none" stroke="rgb(0, 255, 0)" stroke-opacity="1" stroke-linecap="round" stroke-linejoin="round"/>
    <path d="M 226.3459930419922 174.24600219726562 C 219.98399353027344 168.5959930419922 224.68699645996094 165.69500732421875 222.19700622558594 162.9459991455078" stroke-width="1.0" fill="none" stroke="rgb(0, 255, 0)" stroke-opacity="1" stroke-linecap="round" stroke-linejoin="round"/>
    <path d="M 213.94200134277344 143.7550048828125 C 207.81399536132812 140.67100524902344 205.68899536132812 133.9199981689453 216.08399963378906 143.76199340820312" stroke-width="1.0" fill="none" stroke="rgb(0, 255, 0)" stroke-opacity="1" stroke-linecap="round" stroke-linejoin="round"/>
    <path d="M 204.927001953125 134.4250030517578 C 198.7949981689453 129.572998046875 199.33099365234375 132.81300354003906 204.28900146484375 134.61300659179688" stroke-width="1.0" fill="none" stroke="rgb(0, 255, 0)" stroke-opacity="1" stroke-linecap="round" stroke-linejoin="round"/>
    <path d="M 211.87899780273438 141.34500122070312 C 208.25100708007812 130.4340057373047 211.52999877929688 132.81199645996094 206.40199279785156 133.19900512695312" stroke-width="1.0" fill="none" stroke="rgb(0, 255, 0)" stroke-opacity="1" stroke-linecap="round" stroke-linejoin="round"/>
    <path d="M 227.5709991455078 162.94700622558594 C 219.9290008544922 147.32400512695312 226.70799255371094 153.3159942626953 225.1280059814453 161.0469970703125" stroke-width="1.0" fill="none" stroke="rgb(0, 255, 0)" stroke-opacity="1" stroke-linecap="round" stroke-linejoin="round"/>
    <path d="M 192.7779998779297 144.63400268554688 C 200.28599548339844 136.90499877929688 191.91600036621094 155.78500366210938 204.71400451660156 132.91900634765625" stroke-width="1.0" fill="none" stroke="rgb(0, 255, 0)" stroke-opacity="1" stroke-linecap="round" stroke-linejoin="round"/>
    <path d="M 215.38499450683594 149.24400329589844 C 217.2550048828125 139.7760009765625 208.21099853515625 140.7989959716797 201.4709930419922 134.2429962158203" stroke-width="1.0" fill="none" stroke="rgb(0, 255, 0)" stroke-opacity="1" stroke-linecap="round" stroke-linejoin="round"/>
    <path d="M 238.781005859375 170.2259979248047 C 241.7100067138672 173.46299743652344 238.93899536132812 179.6199951171875 234.93699645996094 168.8179931640625" stroke-width="1.0" fill="none" stroke="rgb(0, 255, 0)" stroke-opacity="1" stroke-linecap="round" stroke-linejoin="round"/>
    <path d="M 206.69700622558594 121.37100219726562 C 192.88699340820312 113.85299682617188 218.1199951171875 115.88099670410156 210.13699340820312 120.14900207519531" stroke-width="1.0" fill="none" stroke="rgb(0, 255, 0)" stroke-opacity="1" stroke-linecap="round" stroke-linejoin="round"/>
    <path d="M 209.36700439453125 118.79000091552734 C 202.0919952392578 118.09500122070312 201.15899658203125 124.72100067138672 205.44200134277344 123.63600158691406" stroke-width="1.0" fill="none" stroke="rgb(0, 255, 0)" stroke-opacity="1" stroke-linecap="round" stroke-linejoin="round"/>
    <path d="M 201.1909942626953 118.2979965209961 C 212.0800018310547 113.72599792480469 213.072998046875 120.875 203.19500732421875 118.072998046875" stroke-width="1.0" fill="none" stroke="rgb(0, 255, 0)" stroke-opacity="1" stroke-linecap="round" stroke-linejoin="round"/>
    <path d="M 225.64599609375 161.89700317382812 C 243.83299255371094 177.55499267578125 238.2729949951172 161.73399353027344 227.4550018310547 160.52699279785156" stroke-width="1.0" fill="none" stroke="rgb(0, 255, 0)" stroke-opacity="1" stroke-linecap="round" stroke-linejoin="round"/>
    <path d="M 239.48699951171875 174.62899780273438 C 236.96200561523438 159.64300537109375 241.0780029296875 168.6269989013672 232.7050018310547 163.03799438476562" stroke-width="1.0" fill="none" stroke="rgb(0, 255, 0)" stroke-opacity="1" stroke-linecap="round" stroke-linejoin="round"/>
    <path d="M 218.6009979248047 175.9499969482422 C 232.02000427246094 166.7899932861328 228.1750030517578 188.98899841308594 220.25999450683594 156.83799743652344" stroke-width="1.0" fill="none" stroke="rgb(0, 255, 0)" stroke-opacity="1" stroke-linecap="round" stroke-linejoin="round"/>
    <path d="M 225.0279998779297 164.05799865722656 C 232.35299682617188 163.7270050048828 227.3209991455078 168.5850067138672 219.94900512695312 156.24200439453125" stroke-width="1.0" fill="none" stroke="rgb(0, 255, 0)" stroke-opacity="1" stroke-linecap="round" stroke-linejoin="round"/>
    <path d="M 203.78700256347656 134.69900512695312 C 204.781005859375 131.13699340820312 206.5989990234375 138.80299377441406 211.71499633789062 145.5500030517578" stroke-width="1.0" fill="none" stroke="rgb(0, 255, 0)" stroke-opacity="1" stroke-linecap="round" stroke-linejoin="round"/>
    <path d="M 214.6179962158203 156.0279998779297 C 220.70199584960938 170.66700744628906 213.03900146484375 154.1580047607422 224.83599853515625 174.1490020751953" stroke-width="1.0" fill="none" stroke="rgb(0, 255, 0)" stroke-opacity="1" stroke-linecap="round" stroke-linejoin="round"/>
    <path d="M 210.39999389648438 118.177001953125 C 195.92999267578125 112.13200378417969 203.20899963378906 129.80299377441406 207.56500244140625 125.03900146484375" stroke-width="1.0" fill="none" stroke="rgb(0, 255, 0)" stroke-opacity="1" stroke-linecap="round" stroke-linejoin="round"/>
    <path d="M 217.21800231933594 127.82599639892578 C 220.53700256347656 131.33799743652344 224.41000366210938 127.82599639892578 227.72900390625 138.82000732421875" stroke-width="1.0" fill="none" stroke="rgb(0, 255, 0)" stroke-opacity="1" stroke-linecap="round" stroke-linejoin="round"/>
    <path d="M 211.2530059814453 118.98799896240234 C 208.61599731445312 117.86100006103516 193.697998046875 121.73200225830078 207.125 116.85900115966797" stroke-width="1.0" fill="none" stroke="rgb(0, 255, 0)" stroke-opacity="1" stroke-linecap="round" stroke-linejoin="round"/>
    <path d="M 194.09300231933594 145.12899780273438 C 199.64100646972656 131.3520050048828 197.88800048828125 142.68899536132812 201.302001953125 128.69500732421875" stroke-width="1.0" fill="none" stroke="rgb(0, 255, 0)" stroke-opacity="1" stroke-linecap="round" stroke-linejoin="round"/>
    <path d="M 203.26699829101562 126.5510025024414 C 198.01100158691406 128.44700622558594 211.06199645996094 140.22799682617188 201.63999938964844 136.33700561523438" stroke-width="1.0" fill="none" stroke="rgb(0, 255, 0)" stroke-opacity="1" stroke-linecap="round" stroke-linejoin="round"/>
    <path d="M 208.2729949951172 128.76800537109375 C 201.61099243164062 121.54299926757812 206.25999450683594 133.29200744628906 211.61500549316406 125.31700134277344" stroke-width="1.0" fill="none" stroke="rgb(0, 255, 0)" stroke-opacity="1" stroke-linecap="round" stroke-linejoin="round"/>
    <path d="M 220.51300048828125 155.5919952392578 C 216.9550018310547 146.0290069580078 209.87600708007812 157.6179962158203 216.02000427246094 159.39100646972656" stroke-width="1.0" fill="none" stroke="rgb(0, 255, 0)" stroke-opacity="1" stroke-linecap="round" stroke-linejoin="round"/>
    <path d="M 211.73199462890625 131.30499267578125 C 218.98699951171875 128.45399475097656 211.74099731445312 133.58799743652344 215.6929931640625 132.6820068359375" stroke-width="1.0" fill="none" stroke="rgb(0, 255, 0)" stroke-opacity="1" stroke-linecap="round" stroke-linejoin="round"/>
    <path d="M 216.75 146.33900451660156 C 211.7949981689453 131.49200439453125 205.0229949951172 139.06700134277344 210.01800537109375 136.072998046875" stroke-width="1.0" fill="none" stroke="rgb(0, 255, 0)" stroke-opacity="1" stroke-linecap="round" stroke-linejoin="round"/>
    <path d="M 207.5260009765625 117.48400115966797 C 208.84100341796875 120.6780014038086 218.99200439453125 121.08100128173828 204.11900329589844 115.0" stroke-width="1.0" fill="none" stroke="rgb(0, 255, 0)" stroke-opacity="1" stroke-linecap="round" stroke-linejoin="round"/>
    <path d="M 216.99600219726562 142.31900024414062 C 212.16799926757812 153.8350067138672 217.6269989013672 136.77499389648438 214.27099609375 150.6820068359375" stroke-width="1.0" fill="none" stroke="rgb(0, 255, 0)" stroke-opacity="1" stroke-linecap="round" stroke-linejoin="round"/>
    <path d="M 221.08799743652344 129.96600341796875 C 223.302001953125 124.01000213623047 228.83299255371094 134.8509979248047 228.83299255371094 138.6699981689453" stroke-width="1.0" fill="none" stroke="rgb(0, 255, 0)" stroke-opacity="1" stroke-linecap="round" stroke-linejoin="round"/>
    <path d="M 211.63400268554688 148.28599548339844 C 207.5229949951172 137.5709991455078 213.3719940185547 152.73500061035156 218.66600036621094 144.76800537109375" stroke-width="1.0" fill="none" stroke="rgb(0, 255, 0)" stroke-opacity="1" stroke-linecap="round" stroke-linejoin="round"/>
    <path d="M 216.9409942626953 124.77200317382812 C 217.7010040283203 134.12600708007812 217.57200622558594 133.54600524902344 218.8769989013672 126.5199966430664" stroke-width="1.0" fill="none" stroke="rgb(0, 255, 0)" stroke-opacity="1" stroke-linecap="round" stroke-linejoin="round"/>
    <path d="M 212.4429931640625 131.23899841308594 C 214.04400634765625 140.63299560546875 217.64199829101562 127.68599700927734 213.1820068359375 129.62899780273438" stroke-width="1.0" fill="none" stroke="rgb(0, 255, 0)" stroke-opacity="1" stroke-linecap="round" stroke-linejoin="round"/>
    <path d="M 205.66799926757812 136.8800048828125 C 199.78500366210938 129.43699645996094 201.92100524902344 124.22100067138672 205.38699340820312 135.53599548339844" stroke-width="1.0" fill="none" stroke="rgb(0, 255, 0)" stroke-opacity="1" stroke-linecap="round" stroke-linejoin="round"/>
    <path d="M 214.7169952392578 153.43499755859375 C 216.5850067138672 146.19200134277344 225.0 153.06399536132812 222.4459991455078 156.11000061035156" stroke-width="1.0" fill="none" stroke="rgb(0, 255, 0)" stroke-opacity="1" stroke-linecap="round" stroke-linejoin="round"/>
    <path d="M 206.9980010986328 118.08799743652344 C 201.4080047607422 112.9530029296875 215.61700439453125 117.37999725341797 207.13800048828125 116.7699966430664" stroke-width="1.0" fill="none" stroke="rgb(0, 255, 0)" stroke-opacity="1" stroke-linecap="round" stroke-linejoin="round"/>
    <path d="M 214.79600524902344 153.2989959716797 C 209.5540008544922 140.0330047607422 208.43899536132812 142.38499450683594 200.90899658203125 130.62100219726562" stroke-width="1.0" fill="none" stroke="rgb(0, 255, 0)" stroke-opacity="1" stroke-linecap="round" stroke-linejoin="round"/>
    <path d="M 214.61000061035156 138.02200317382812 C 220.593994140625 152.43499755859375 215.00999450683594 143.23899841308594 213.74400329589844 150.00999450683594" stroke-width="1.0" fill="none" stroke="rgb(0, 255, 0)" stroke-opacity="1" stroke-linecap="round" stroke-linejoin="round"/>
    <path d="M 204.47799682617188 117.88999938964844 C 216.468994140625 121.14199829101562 210.8730010986328 119.5780029296875 211.01499938964844 123.09200286865234" stroke-width="1.0" fill="none" stroke="rgb(0, 255, 0)" stroke-opacity="1" stroke-linecap="round" stroke-linejoin="round"/>
    <path d="M 107.37999725341797 140.47300720214844 C 117.34300231933594 118.00299835205078 103.43800354003906 141.718994140625 112.0 132.41400146484375" stroke-width="1.0" fill="none" stroke="rgb(255, 255, 0)" stroke-opacity="1" stroke-linecap="round" stroke-linejoin="round"/>
    <path d="M 75.9072036743164 149.82000732421875 C 77.93049621582031 141.927001953125 76.70649719238281 142.6300048828125 75.9020004272461 148.94900512695312" stroke-width="1.0" fill="none" stroke="rgb(255, 255, 0)" stroke-opacity="1" stroke-linecap="round" stroke-linejoin="round"/>
    <path d="M 79.57879638671875 138.39199829101562 C 75.70179748535156 148.93099975585938 76.93009948730469 148.24200439453125 77.53359985351562 143.0290069580078" stroke-width="1.0" fill="none" stroke="rgb(255, 255, 0)" stroke-opacity="1" stroke-linecap="round" stroke-linejoin="round"/>
    <path d="M 86.83070373535156 152.78700256347656 C 87.58670043945312 146.3249969482422 90.43479919433594 145.7429962158203 90.74420166015625 144.43099975585938" stroke-width="1.0" fill="none" stroke="rgb(255, 255, 0)" stroke-opacity="1" stroke-linecap="round" stroke-linejoin="round"/>
    <path d="M 87.79769897460938 132.25 C 87.4176025390625 120.81099700927734 90.18599700927734 137.5279998779297 84.44409942626953 130.55599975585938" stroke-width="1.0" fill="none" stroke="rgb(255, 255, 0)" stroke-opacity="1" stroke-linecap="round" stroke-linejoin="round"/>
    <path d="M 97.27739715576172 143.177001953125 C 105.07099914550781 146.64599609375 101.02999877929688 147.51400756835938 111.99800109863281 133.3470001220703" stroke-width="1.0" fill="none" stroke="rgb(255, 255, 0)" stroke-opacity="1" stroke-linecap="round" stroke-linejoin="round"/>
    <path d="M 80.65859985351562 133.9929962158203 C 80.18350219726562 129.5330047607422 98.18049621582031 129.17599487304688 88.03900146484375 125.03600311279297" stroke-width="1.0" fill="none" stroke="rgb(255, 255, 0)" stroke-opacity="1" stroke-linecap="round" stroke-linejoin="round"/>
    <path d="M 86.97530364990234 154.0260009765625 C 75.48970031738281 158.0030059814453 72.74569702148438 149.06900024414062 76.42729949951172 157.447998046875" stroke-width="1.0" fill="none" stroke="rgb(255, 255, 0)" stroke-opacity="1" stroke-linecap="round" stroke-linejoin="round"/>
    <path d="M 79.54509735107422 159.4949951171875 C 92.86409759521484 173.0279998779297 98.95089721679688 159.20700073242188 88.65229797363281 180.5500030517578" stroke-width="1.0" fill="none" stroke="rgb(255, 255, 0)" stroke-opacity="1" stroke-linecap="round" stroke-linejoin="round"/>
    <path d="M 80.42320251464844 132.2519989013672 C 89.74739837646484 127.54199981689453 80.84249877929688 131.1540069580078 86.34200286865234 132.2949981689453" stroke-width="1.0" fill="none" stroke="rgb(255, 255, 0)" stroke-opacity="1" stroke-linecap="round" stroke-linejoin="round"/>
    <path d="M 76.49490356445312 156.4759979248047 C 76.24150085449219 157.7209930419922 76.29620361328125 162.39999389648438 74.5811996459961 166.7480010986328" stroke-width="1.0" fill="none" stroke="rgb(255, 255, 0)" stroke-opacity="1" stroke-linecap="round" stroke-linejoin="round"/>
    <path d="M 93.62200164794922 143.68600463867188 C 89.42040252685547 141.9759979248047 94.20649719238281 144.62600708007812 97.29550170898438 143.14700317382812" stroke-width="1.0" fill="none" stroke="rgb(255, 255, 0)" stroke-opacity="1" stroke-linecap="round" stroke-linejoin="round"/>
    <path d="M 77.66220092773438 142.60899353027344 C 76.78980255126953 145.1719970703125 77.85759735107422 142.16600036621094 77.47810363769531 143.1999969482422" stroke-width="1.0" fill="none" stroke="rgb(255, 255, 0)" stroke-opacity="1" stroke-linecap="round" stroke-linejoin="round"/>
    <path d="M 95.07270050048828 167.79800415039062 C 86.631103515625 162.5030059814453 84.69640350341797 170.58299255371094 91.94200134277344 158.19000244140625" stroke-width="1.0" fill="none" stroke="rgb(255, 255, 0)" stroke-opacity="1" stroke-linecap="round" stroke-linejoin="round"/>
    <path d="M 90.63890075683594 119.32499694824219 C 88.32929992675781 119.32499694824219 85.73149871826172 121.49299621582031 84.0 123.37200164794922" stroke-width="1.0" fill="none" stroke="rgb(255, 255, 0)" stroke-opacity="1" stroke-linecap="round" stroke-linejoin="round"/>
    <path d="M 84.3302993774414 132.4149932861328 C 80.84089660644531 122.31600189208984 92.9845962524414 122.04299926757812 91.49120330810547 127.66999816894531" stroke-width="1.0" fill="none" stroke="rgb(255, 255, 0)" stroke-opacity="1" stroke-linecap="round" stroke-linejoin="round"/>
    <path d="M 89.00509643554688 119.24700164794922 C 87.90010070800781 116.63800048828125 94.11930084228516 114.61900329589844 84.35310363769531 120.20099639892578" stroke-width="1.0" fill="none" stroke="rgb(255, 255, 0)" stroke-opacity="1" stroke-linecap="round" stroke-linejoin="round"/>
    <path d="M 81.76840209960938 160.6320037841797 C 74.41799926757812 156.19900512695312 75.0905990600586 155.7570037841797 76.30619812011719 156.8209991455078" stroke-width="1.0" fill="none" stroke="rgb(255, 255, 0)" stroke-opacity="1" stroke-linecap="round" stroke-linejoin="round"/>
    <path d="M 85.1781997680664 154.66400146484375 C 77.23079681396484 157.95700073242188 72.37120056152344 151.9239959716797 75.67030334472656 150.21600341796875" stroke-width="1.0" fill="none" stroke="rgb(255, 255, 0)" stroke-opacity="1" stroke-linecap="round" stroke-linejoin="round"/>
    <path d="M 93.5802993774414 159.718994140625 C 91.3750991821289 157.11399841308594 97.66580200195312 161.77699279785156 87.38140106201172 153.82400512695312" stroke-width="1.0" fill="none" stroke="rgb(255, 255, 0)" stroke-opacity="1" stroke-linecap="round" stroke-linejoin="round"/>
    <path d="M 75.76750183105469 151.50999450683594 C 77.64420318603516 148.4510040283203 77.04029846191406 144.4029998779297 76.55549621582031 147.7779998779297" stroke-width="1.0" fill="none" stroke="rgb(255, 255, 0)" stroke-opacity="1" stroke-linecap="round" stroke-linejoin="round"/>
    <path d="M 82.0072021484375 132.07899475097656 C 85.98699951171875 135.03799438476562 82.2500991821289 133.0919952392578 79.41429901123047 139.08900451660156" stroke-width="1.0" fill="none" stroke="rgb(255, 255, 0)" stroke-opacity="1" stroke-linecap="round" stroke-linejoin="round"/>
    <path d="M 75.75330352783203 166.96200561523438 C 77.3208999633789 171.96400451660156 75.75330352783203 176.17599487304688 74.18569946289062 180.41600036621094" stroke-width="1.0" fill="none" stroke="rgb(255, 255, 0)" stroke-opacity="1" stroke-linecap="round" stroke-linejoin="round"/>
    <path d="M 79.4583969116211 167.75100708007812 C 79.4583969116211 171.6999969482422 77.74839782714844 176.43899536132812 76.18080139160156 180.6790008544922" stroke-width="1.0" fill="none" stroke="rgb(255, 255, 0)" stroke-opacity="1" stroke-linecap="round" stroke-linejoin="round"/>
    <path d="M 89.68589782714844 130.35299682617188 C 89.83769989013672 127.53800201416016 91.47810363769531 130.0850067138672 84.53880310058594 127.0479965209961" stroke-width="1.0" fill="none" stroke="rgb(255, 255, 0)" stroke-opacity="1" stroke-linecap="round" stroke-linejoin="round"/>
    <path d="M 77.07759857177734 144.22999572753906 C 76.57589721679688 149.947998046875 76.10749816894531 148.93600463867188 77.37480163574219 143.92799377441406" stroke-width="1.0" fill="none" stroke="rgb(255, 255, 0)" stroke-opacity="1" stroke-linecap="round" stroke-linejoin="round"/>
    <path d="M 85.07599639892578 128.29600524902344 C 87.8447036743164 120.87899780273438 90.37930297851562 124.72000122070312 84.18280029296875 128.0330047607422" stroke-width="1.0" fill="none" stroke="rgb(255, 255, 0)" stroke-opacity="1" stroke-linecap="round" stroke-linejoin="round"/>
    <path d="M 74.47440338134766 166.74000549316406 C 87.17479705810547 166.74000549316406 79.52570343017578 168.76400756835938 83.56670379638672 161.67999267578125" stroke-width="1.0" fill="none" stroke="rgb(255, 255, 0)" stroke-opacity="1" stroke-linecap="round" stroke-linejoin="round"/>
    <path d="M 98.29019927978516 139.7899932861328 C 91.87789916992188 135.625 95.32379913330078 138.97999572753906 90.93699645996094 134.60000610351562" stroke-width="1.0" fill="none" stroke="rgb(255, 255, 0)" stroke-opacity="1" stroke-linecap="round" stroke-linejoin="round"/>
    <path d="M 86.44159698486328 134.89599609375 C 78.30609893798828 131.64500427246094 83.65889739990234 133.29400634765625 87.32140350341797 125.99500274658203" stroke-width="1.0" fill="none" stroke="rgb(255, 255, 0)" stroke-opacity="1" stroke-linecap="round" stroke-linejoin="round"/>
    <path d="M 89.716796875 126.25900268554688 C 78.91410064697266 130.55499267578125 95.12660217285156 122.76000213623047 92.08159637451172 129.71600341796875" stroke-width="1.0" fill="none" stroke="rgb(255, 255, 0)" stroke-opacity="1" stroke-linecap="round" stroke-linejoin="round"/>
    <path d="M 86.02010345458984 151.33099365234375 C 86.93340301513672 147.36399841308594 87.41310119628906 147.11599731445312 91.00240325927734 142.30999755859375" stroke-width="1.0" fill="none" stroke="rgb(255, 255, 0)" stroke-opacity="1" stroke-linecap="round" stroke-linejoin="round"/>
    <path d="M 76.99109649658203 144.77200317382812 C 79.16629791259766 137.47799682617188 81.58049774169922 139.2550048828125 82.01319885253906 131.41400146484375" stroke-width="1.0" fill="none" stroke="rgb(255, 255, 0)" stroke-opacity="1" stroke-linecap="round" stroke-linejoin="round"/>
    <path d="M 78.04440307617188 143.04400634765625 C 75.81749725341797 155.1320037841797 75.33940124511719 143.75100708007812 79.8240966796875 137.70399475097656" stroke-width="1.0" fill="none" stroke="rgb(255, 255, 0)" stroke-opacity="1" stroke-linecap="round" stroke-linejoin="round"/>
    <path d="M 91.0425033569336 118.43099975585938 C 88.19419860839844 124.93399810791016 89.47260284423828 112.54299926757812 93.0739974975586 116.98600006103516" stroke-width="1.0" fill="none" stroke="rgb(255, 255, 0)" stroke-opacity="1" stroke-linecap="round" stroke-linejoin="round"/>
    <path d="M 111.03900146484375 132.07699584960938 C 101.6240005493164 145.7519989013672 104.46600341796875 144.44900512695312 97.64189910888672 141.94500732421875" stroke-width="1.0" fill="none" stroke="rgb(255, 255, 0)" stroke-opacity="1" stroke-linecap="round" stroke-linejoin="round"/>
    <path d="M 77.08699798583984 147.552001953125 C 77.8030014038086 141.05999755859375 77.44349670410156 142.08299255371094 76.49549865722656 148.48599243164062" stroke-width="1.0" fill="none" stroke="rgb(255, 255, 0)" stroke-opacity="1" stroke-linecap="round" stroke-linejoin="round"/>
    <path d="M 102.98500061035156 143.11500549316406 C 95.15579986572266 140.343994140625 99.81680297851562 138.02699279785156 96.81320190429688 142.802001953125" stroke-width="1.0" fill="none" stroke="rgb(255, 255, 0)" stroke-opacity="1" stroke-linecap="round" stroke-linejoin="round"/>
    <path d="M 91.36949920654297 159.4429931640625 C 99.21820068359375 166.3350067138672 95.76360321044922 169.25999450683594 91.36949920654297 181.79100036621094" stroke-width="1.0" fill="none" stroke="rgb(255, 255, 0)" stroke-opacity="1" stroke-linecap="round" stroke-linejoin="round"/>
    <path d="M 76.99210357666016 146.04100036621094 C 76.29840087890625 150.27000427246094 76.05509948730469 149.75900268554688 78.66169738769531 142.23599243164062" stroke-width="1.0" fill="none" stroke="rgb(255, 255, 0)" stroke-opacity="1" stroke-linecap="round" stroke-linejoin="round"/>
    <path d="M 92.52970123291016 130.4510040283203 C 92.77999877929688 136.48800659179688 91.11589813232422 130.9429931640625 90.1968994140625 135.14500427246094" stroke-width="1.0" fill="none" stroke="rgb(255, 255, 0)" stroke-opacity="1" stroke-linecap="round" stroke-linejoin="round"/>
    <path d="M 85.1404037475586 129.52099609375 C 89.4021987915039 133.77999877929688 86.39920043945312 129.9459991455078 79.89610290527344 131.468994140625" stroke-width="1.0" fill="none" stroke="rgb(255, 255, 0)" stroke-opacity="1" stroke-linecap="round" stroke-linejoin="round"/>
    <path d="M 79.41799926757812 139.8939971923828 C 76.00250244140625 147.9929962158203 75.1063003540039 147.78599548339844 78.07499694824219 142.53199768066406" stroke-width="1.0" fill="none" stroke="rgb(255, 255, 0)" stroke-opacity="1" stroke-linecap="round" stroke-linejoin="round"/>
    <path d="M 76.66439819335938 146.74200439453125 C 76.34519958496094 145.9029998779297 77.55580139160156 145.20199584960938 77.10579681396484 145.3459930419922" stroke-width="1.0" fill="none" stroke="rgb(255, 255, 0)" stroke-opacity="1" stroke-linecap="round" stroke-linejoin="round"/>
    <path d="M 77.94349670410156 142.125 C 76.78600311279297 147.08399963378906 77.75859832763672 148.82000732421875 74.0 150.7989959716797" stroke-width="1.0" fill="none" stroke="rgb(255, 255, 0)" stroke-opacity="1" stroke-linecap="round" stroke-linejoin="round"/>
    <path d="M 83.09839630126953 127.87899780273438 C 91.5177001953125 123.68299865722656 82.13890075683594 123.10199737548828 83.68090057373047 131.1699981689453" stroke-width="1.0" fill="none" stroke="rgb(255, 255, 0)" stroke-opacity="1" stroke-linecap="round" stroke-linejoin="round"/>
    <path d="M 80.2571029663086 131.9600067138672 C 88.25599670410156 129.69200134277344 84.51319885253906 130.0019989013672 80.49130249023438 132.22900390625" stroke-width="1.0" fill="none" stroke="rgb(255, 255, 0)" stroke-opacity="1" stroke-linecap="round" stroke-linejoin="round"/>
    <path d="M 78.8593978881836 126.40399932861328 C 80.62069702148438 136.7550048828125 81.99109649658203 138.156005859375 80.9301986694336 132.10499572753906" stroke-width="1.0" fill="none" stroke="rgb(255, 255, 0)" stroke-opacity="1" stroke-linecap="round" stroke-linejoin="round"/>
    <path d="M 89.45210266113281 146.30599975585938 C 91.13929748535156 144.19400024414062 91.15049743652344 143.96400451660156 89.28959655761719 146.4530029296875" stroke-width="1.0" fill="none" stroke="rgb(255, 255, 0)" stroke-opacity="1" stroke-linecap="round" stroke-linejoin="round"/>
    <path d="M 90.943603515625 133.60499572753906 C 88.82469940185547 135.00100708007812 96.78459930419922 137.07200622558594 85.84850311279297 134.39500427246094" stroke-width="1.0" fill="none" stroke="rgb(255, 255, 0)" stroke-opacity="1" stroke-linecap="round" stroke-linejoin="round"/>
    <path d="M 89.00800323486328 181.93299865722656 C 96.10199737548828 182.63600158691406 89.27010345458984 177.76699829101562 93.02159881591797 169.01600646972656" stroke-width="1.0" fill="none" stroke="rgb(255, 255, 0)" stroke-opacity="1" stroke-linecap="round" stroke-linejoin="round"/>
    <path d="M 91.0427017211914 181.93299865722656 C 97.72679901123047 181.93299865722656 92.7864990234375 178.6529998779297 91.0427017211914 173.73199462890625" stroke-width="1.0" fill="none" stroke="rgb(255, 255, 0)" stroke-opacity="1" stroke-linecap="round" stroke-linejoin="round"/>
    <path d="M 74.18569946289062 180.38900756835938 C 78.60350036621094 183.28500366210938 82.16609954833984 180.38900756835938 78.60350036621094 177.22999572753906" stroke-width="1.0" fill="none" stroke="rgb(255, 255, 0)" stroke-opacity="1" stroke-linecap="round" stroke-linejoin="round"/>
    <path d="M 80.50920104980469 131.74099731445312 C 95.34339904785156 128.8280029296875 88.00289916992188 123.36000061035156 85.95690155029297 133.00999450683594" stroke-width="1.0" fill="none" stroke="rgb(255, 255, 0)" stroke-opacity="1" stroke-linecap="round" stroke-linejoin="round"/>
    <path d="M 90.96910095214844 125.30899810791016 C 84.7968978881836 138.5780029296875 83.35910034179688 131.6840057373047 89.14109802246094 128.0" stroke-width="1.0" fill="none" stroke="rgb(255, 255, 0)" stroke-opacity="1" stroke-linecap="round" stroke-linejoin="round"/>
    <path d="M 87.57340240478516 133.08799743652344 C 82.489501953125 133.14100646972656 80.20220184326172 123.86399841308594 86.3240966796875 121.33200073242188" stroke-width="1.0" fill="none" stroke="rgb(255, 255, 0)" stroke-opacity="1" stroke-linecap="round" stroke-linejoin="round"/>
    <path d="M 77.0438003540039 144.64700317382812 C 78.15460205078125 141.45700073242188 77.1051025390625 142.2550048828125 76.7052993774414 147.2760009765625" stroke-width="1.0" fill="none" stroke="rgb(255, 255, 0)" stroke-opacity="1" stroke-linecap="round" stroke-linejoin="round"/>
    <path d="M 84.01699829101562 131.24200439453125 C 84.29450225830078 123.552001953125 85.6146011352539 125.41200256347656 91.09490203857422 125.41100311279297" stroke-width="1.0" fill="none" stroke="rgb(255, 255, 0)" stroke-opacity="1" stroke-linecap="round" stroke-linejoin="round"/>
    <path d="M 77.82769775390625 142.447998046875 C 80.04199981689453 136.04800415039062 84.70909881591797 135.28900146484375 82.24150085449219 130.96400451660156" stroke-width="1.0" fill="none" stroke="rgb(255, 255, 0)" stroke-opacity="1" stroke-linecap="round" stroke-linejoin="round"/>
    <path d="M 90.55079650878906 124.96700286865234 C 83.9822006225586 123.58699798583984 85.26830291748047 122.99299621582031 87.59480285644531 133.00999450683594" stroke-width="1.0" fill="none" stroke="rgb(255, 255, 0)" stroke-opacity="1" stroke-linecap="round" stroke-linejoin="round"/>
    <path d="M 83.06089782714844 124.322998046875 C 94.36299896240234 111.6719970703125 77.72769927978516 124.86100006103516 78.23829650878906 126.51599884033203" stroke-width="1.0" fill="none" stroke="rgb(255, 255, 0)" stroke-opacity="1" stroke-linecap="round" stroke-linejoin="round"/>
    <path d="M 80.21659851074219 124.51699829101562 C 81.45480346679688 122.75599670410156 81.16570281982422 123.74099731445312 83.58809661865234 121.15299987792969" stroke-width="1.0" fill="none" stroke="rgb(255, 255, 0)" stroke-opacity="1" stroke-linecap="round" stroke-linejoin="round"/>
    <path d="M 78.37879943847656 140.06700134277344 C 76.60679626464844 146.23800659179688 78.02159881591797 143.48599243164062 77.17009735107422 143.91299438476562" stroke-width="1.0" fill="none" stroke="rgb(255, 255, 0)" stroke-opacity="1" stroke-linecap="round" stroke-linejoin="round"/>
    <path d="M 90.9990005493164 125.96399688720703 C 76.89859771728516 132.64599609375 87.814697265625 131.968994140625 90.91239929199219 125.5270004272461" stroke-width="1.0" fill="none" stroke="rgb(255, 255, 0)" stroke-opacity="1" stroke-linecap="round" stroke-linejoin="round"/>
  </g>
</svg>
