<?xml version="1.0" ?>
<svg xmlns="http://www.w3.org/2000/svg" version="1.1" width="256" height="256">
  <defs/>
  <g>
    <path d="M 85.3384017944336 173.06100463867188 C 100.37999725341797 159.89300537109375 104.09600067138672 155.8419952392578 81.39720153808594 170.57200622558594" stroke-width="3.0" fill="none" stroke="rgb(0, 255, 0)" stroke-opacity="1" stroke-linecap="round" stroke-linejoin="round"/>
    <path d="M 105.44200134277344 159.88800048828125 C 48.72600173950195 191.1020050048828 55.444400787353516 180.63999938964844 92.05000305175781 164.9669952392578" stroke-width="3.0" fill="none" stroke="rgb(0, 255, 0)" stroke-opacity="1" stroke-linecap="round" stroke-linejoin="round"/>
    <path d="M 145.5570068359375 135.17599487304688 C 97.7136001586914 162.6060028076172 94.25420379638672 170.93800354003906 136.14100646972656 144.93800354003906" stroke-width="3.0" fill="none" stroke="rgb(0, 255, 0)" stroke-opacity="1" stroke-linecap="round" stroke-linejoin="round"/>
    <path d="M 168.52999877929688 116.0 C 120.68699645996094 143.42999267578125 117.22699737548828 151.76300048828125 159.11399841308594 125.76300048828125" stroke-width="3.0" fill="none" stroke="rgb(0, 255, 0)" stroke-opacity="1" stroke-linecap="round" stroke-linejoin="round"/>
    <path d="M 200.80999755859375 155.24000549316406 C 180.71400451660156 172.8800048828125 185.04200744628906 171.2989959716797 167.4810028076172 184.08599853515625" stroke-width="3.0" fill="none" stroke="rgb(0, 255, 0)" stroke-opacity="1" stroke-linecap="round" stroke-linejoin="round"/>
    <path d="M 162.39300537109375 121.61599731445312 C 194.64599609375 105.88800048828125 183.2030029296875 99.76689910888672 173.06399536132812 114.37899780273438" stroke-width="3.0" fill="none" stroke="rgb(0, 255, 0)" stroke-opacity="1" stroke-linecap="round" stroke-linejoin="round"/>
    <path d="M 104.96099853515625 157.93600463867188 C 73.56800079345703 173.218994140625 90.6521987915039 169.3249969482422 102.3550033569336 162.21600341796875" stroke-width="3.0" fill="none" stroke="rgb(0, 255, 0)" stroke-opacity="1" stroke-linecap="round" stroke-linejoin="round"/>
    <path d="M 163.25100708007812 121.51200103759766 C 170.02499389648438 116.9540023803711 190.1269989013672 106.39600372314453 175.81500244140625 113.94999694824219" stroke-width="3.0" fill="none" stroke="rgb(0, 255, 0)" stroke-opacity="1" stroke-linecap="round" stroke-linejoin="round"/>
    <path d="M 62.76750183105469 189.8419952392578 C 53.98809814453125 194.2729949951172 64.7750015258789 187.2169952392578 78.06539916992188 179.76300048828125" stroke-width="3.0" fill="none" stroke="rgb(0, 255, 0)" stroke-opacity="1" stroke-linecap="round" stroke-linejoin="round"/>
    <path d="M 178.43600463867188 177.0469970703125 C 154.8000030517578 195.19900512695312 162.29800415039062 192.3070068359375 134.14100646972656 219.16400146484375" stroke-width="3.0" fill="none" stroke="rgb(0, 255, 0)" stroke-opacity="1" stroke-linecap="round" stroke-linejoin="round"/>
    <path d="M 185.81300354003906 107.91500091552734 C 215.56300354003906 86.39630126953125 187.73699951171875 96.16510009765625 166.17599487304688 117.125" stroke-width="3.0" fill="none" stroke="rgb(0, 255, 0)" stroke-opacity="1" stroke-linecap="round" stroke-linejoin="round"/>
    <path d="M 187.91400146484375 182.7480010986328 C 165.36000061035156 199.0050048828125 179.8159942626953 191.4709930419922 147.96299743652344 220.2429962158203" stroke-width="3.0" fill="none" stroke="rgb(0, 255, 0)" stroke-opacity="1" stroke-linecap="round" stroke-linejoin="round"/>
    <path d="M 222.04600524902344 132.0050048828125 C 221.41900634765625 131.16000366210938 225.71499633789062 127.86000061035156 217.7469940185547 136.99200439453125" stroke-width="3.0" fill="none" stroke="rgb(0, 255, 0)" stroke-opacity="1" stroke-linecap="round" stroke-linejoin="round"/>
    <path d="M 190.36599731445312 166.76600646972656 C 213.3090057373047 141.5019989013672 208.71400451660156 151.77000427246094 196.91200256347656 159.24099731445312" stroke-width="3.0" fill="none" stroke="rgb(0, 255, 0)" stroke-opacity="1" stroke-linecap="round" stroke-linejoin="round"/>
    <path d="M 193.14700317382812 66.16719818115234 C 182.4340057373047 53.52519989013672 191.92599487304688 63.23870086669922 170.7949981689453 52.51169967651367" stroke-width="3.0" fill="none" stroke="rgb(0, 255, 0)" stroke-opacity="1" stroke-linecap="round" stroke-linejoin="round"/>
    <path d="M 198.4969940185547 56.98109817504883 C 180.56199645996094 50.253700256347656 211.2530059814453 60.23550033569336 226.79100036621094 70.16259765625" stroke-width="3.0" fill="none" stroke="rgb(0, 255, 0)" stroke-opacity="1" stroke-linecap="round" stroke-linejoin="round"/>
    <path d="M 203.64500427246094 150.46600341796875 C 174.92799377441406 178.2729949951172 171.98899841308594 184.58999633789062 188.75100708007812 168.4759979248047" stroke-width="3.0" fill="none" stroke="rgb(0, 255, 0)" stroke-opacity="1" stroke-linecap="round" stroke-linejoin="round"/>
    <path d="M 117.21199798583984 147.322998046875 C 91.8324966430664 164.56700134277344 92.20989990234375 166.7429962158203 102.0790023803711 159.39100646972656" stroke-width="3.0" fill="none" stroke="rgb(0, 255, 0)" stroke-opacity="1" stroke-linecap="round" stroke-linejoin="round"/>
    <path d="M 18.38719940185547 208.85899353027344 C 19.4330997467041 207.78399658203125 17.15239906311035 212.0590057373047 11.324399948120117 207.37100219726562" stroke-width="3.0" fill="none" stroke="rgb(0, 255, 0)" stroke-opacity="1" stroke-linecap="round" stroke-linejoin="round"/>
    <path d="M 64.22959899902344 188.06199645996094 C 103.51499938964844 162.75599670410156 98.79959869384766 166.38999938964844 60.74319839477539 188.66200256347656" stroke-width="3.0" fill="none" stroke="rgb(0, 255, 0)" stroke-opacity="1" stroke-linecap="round" stroke-linejoin="round"/>
    <path d="M 83.2157974243164 128.3719940185547 C 78.61399841308594 130.69700622558594 66.1624984741211 136.97999572753906 54.90549850463867 139.41799926757812" stroke-width="3.0" fill="none" stroke="rgb(0, 255, 0)" stroke-opacity="1" stroke-linecap="round" stroke-linejoin="round"/>
    <path d="M 174.28599548339844 54.47890090942383 C 189.0229949951172 64.106201171875 189.14500427246094 67.05780029296875 186.6280059814453 61.724300384521484" stroke-width="3.0" fill="none" stroke="rgb(0, 255, 0)" stroke-opacity="1" stroke-linecap="round" stroke-linejoin="round"/>
    <path d="M 100.38999938964844 163.6009979248047 C 90.73880004882812 175.06199645996094 80.15180206298828 168.01600646972656 95.6448974609375 164.93499755859375" stroke-width="3.0" fill="none" stroke="rgb(0, 255, 0)" stroke-opacity="1" stroke-linecap="round" stroke-linejoin="round"/>
    <path d="M 187.33799743652344 61.20000076293945 C 176.21499633789062 55.722900390625 182.68800354003906 59.51259994506836 184.04299926757812 61.05149841308594" stroke-width="3.0" fill="none" stroke="rgb(0, 255, 0)" stroke-opacity="1" stroke-linecap="round" stroke-linejoin="round"/>
    <path d="M 65.10070037841797 186.66900634765625 C 17.88330078125 214.27099609375 11.25409984588623 218.14500427246094 51.861000061035156 193.5540008544922" stroke-width="3.0" fill="none" stroke="rgb(0, 255, 0)" stroke-opacity="1" stroke-linecap="round" stroke-linejoin="round"/>
    <path d="M 173.02000427246094 116.08999633789062 C 161.13800048828125 117.21199798583984 179.89100646972656 110.99500274658203 166.36900329589844 114.74600219726562" stroke-width="3.0" fill="none" stroke="rgb(0, 255, 0)" stroke-opacity="1" stroke-linecap="round" stroke-linejoin="round"/>
    <path d="M 222.9759979248047 139.46299743652344 C 246.58599853515625 106.62100219726562 233.28599548339844 117.09100341796875 193.37899780273438 164.27699279785156" stroke-width="3.0" fill="none" stroke="rgb(0, 255, 0)" stroke-opacity="1" stroke-linecap="round" stroke-linejoin="round"/>
    <path d="M 237.95899963378906 112.24099731445312 C 238.2259979248047 110.2229995727539 245.531005859375 106.38400268554688 216.40899658203125 137.88600158691406" stroke-width="3.0" fill="none" stroke="rgb(0, 255, 0)" stroke-opacity="1" stroke-linecap="round" stroke-linejoin="round"/>
    <path d="M 79.31060028076172 130.49600219726562 C 75.19400024414062 131.78799438476562 77.71710205078125 130.38299560546875 122.61299896240234 111.2229995727539" stroke-width="3.0" fill="none" stroke="rgb(0, 255, 0)" stroke-opacity="1" stroke-linecap="round" stroke-linejoin="round"/>
    <path d="M 187.6439971923828 183.27499389648438 C 223.65499877929688 143.6529998779297 229.0989990234375 128.70399475097656 226.927001953125 133.54299926757812" stroke-width="3.0" fill="none" stroke="rgb(0, 255, 0)" stroke-opacity="1" stroke-linecap="round" stroke-linejoin="round"/>
    <path d="M 75.48719787597656 172.76699829101562 C 76.43789672851562 176.23599243164062 99.43329620361328 170.15199279785156 95.87359619140625 166.04800415039062" stroke-width="3.0" fill="none" stroke="rgb(0, 255, 0)" stroke-opacity="1" stroke-linecap="round" stroke-linejoin="round"/>
    <path d="M 74.48930358886719 175.05599975585938 C 87.30169677734375 162.38800048828125 87.11170196533203 176.3780059814453 86.13780212402344 174.43800354003906" stroke-width="3.0" fill="none" stroke="rgb(0, 255, 0)" stroke-opacity="1" stroke-linecap="round" stroke-linejoin="round"/>
    <path d="M 17.277700424194336 158.0850067138672 C 13.213399887084961 157.02200317382812 29.95490074157715 149.37600708007812 58.419498443603516 138.3040008544922" stroke-width="3.0" fill="none" stroke="rgb(0, 255, 0)" stroke-opacity="1" stroke-linecap="round" stroke-linejoin="round"/>
    <path d="M 65.8302993774414 187.20199584960938 C 32.96989822387695 206.35400390625 14.579700469970703 216.58700561523438 12.776900291442871 218.13900756835938" stroke-width="3.0" fill="none" stroke="rgb(0, 255, 0)" stroke-opacity="1" stroke-linecap="round" stroke-linejoin="round"/>
    <path d="M 103.46600341796875 159.81900024414062 C 111.54499816894531 156.97300720214844 100.83100128173828 157.93600463867188 104.54199981689453 158.8209991455078" stroke-width="3.0" fill="none" stroke="rgb(0, 255, 0)" stroke-opacity="1" stroke-linecap="round" stroke-linejoin="round"/>
    <path d="M 202.66200256347656 95.1146011352539 C 166.80499267578125 127.9209976196289 165.37399291992188 118.23999786376953 173.3730010986328 117.3550033569336" stroke-width="3.0" fill="none" stroke="rgb(0, 255, 0)" stroke-opacity="1" stroke-linecap="round" stroke-linejoin="round"/>
    <path d="M 172.9720001220703 112.81300354003906 C 155.14100646972656 122.7040023803711 150.33599853515625 125.12100219726562 183.0290069580078 109.23400115966797" stroke-width="3.0" fill="none" stroke="rgb(0, 255, 0)" stroke-opacity="1" stroke-linecap="round" stroke-linejoin="round"/>
    <path d="M 101.74800109863281 160.23199462890625 C 112.26300048828125 159.6959991455078 104.86000061035156 160.63900756835938 129.86700439453125 147.98399353027344" stroke-width="3.0" fill="none" stroke="rgb(0, 255, 0)" stroke-opacity="1" stroke-linecap="round" stroke-linejoin="round"/>
    <path d="M 87.63619995117188 170.4199981689453 C 83.9446029663086 175.66299438476562 81.76629638671875 175.0189971923828 88.5093002319336 169.3820037841797" stroke-width="3.0" fill="none" stroke="rgb(0, 255, 0)" stroke-opacity="1" stroke-linecap="round" stroke-linejoin="round"/>
    <path d="M 201.95899963378906 92.3563003540039 C 208.44900512695312 61.45869827270508 212.76699829101562 84.60990142822266 203.83399963378906 93.4572982788086" stroke-width="3.0" fill="none" stroke="rgb(0, 255, 0)" stroke-opacity="1" stroke-linecap="round" stroke-linejoin="round"/>
    <path d="M 186.37899780273438 61.84859848022461 C 195.04600524902344 70.33740234375 211.83599853515625 80.37100219726562 193.07000732421875 67.62190246582031" stroke-width="3.0" fill="none" stroke="rgb(0, 255, 0)" stroke-opacity="1" stroke-linecap="round" stroke-linejoin="round"/>
    <path d="M 194.98399353027344 101.45600128173828 C 217.95899963378906 83.93840026855469 204.947998046875 82.94840240478516 184.24400329589844 104.76799774169922" stroke-width="3.0" fill="none" stroke="rgb(0, 255, 0)" stroke-opacity="1" stroke-linecap="round" stroke-linejoin="round"/>
    <path d="M 165.32200622558594 119.68900299072266 C 198.4219970703125 101.3759994506836 174.08900451660156 115.47100067138672 184.48699951171875 107.17500305175781" stroke-width="3.0" fill="none" stroke="rgb(0, 255, 0)" stroke-opacity="1" stroke-linecap="round" stroke-linejoin="round"/>
    <path d="M 104.26200103759766 161.5780029296875 C 114.31700134277344 156.19200134277344 108.34500122070312 161.4969940185547 90.66400146484375 171.08599853515625" stroke-width="3.0" fill="none" stroke="rgb(0, 255, 0)" stroke-opacity="1" stroke-linecap="round" stroke-linejoin="round"/>
    <path d="M 161.1219940185547 118.78199768066406 C 183.1269989013672 105.43900299072266 173.61700439453125 117.53700256347656 170.7169952392578 116.54000091552734" stroke-width="3.0" fill="none" stroke="rgb(0, 255, 0)" stroke-opacity="1" stroke-linecap="round" stroke-linejoin="round"/>
    <path d="M 171.82699584960938 55.28269958496094 C 196.35699462890625 62.95130157470703 200.1510009765625 68.79789733886719 199.4320068359375 69.93560028076172" stroke-width="3.0" fill="none" stroke="rgb(0, 255, 0)" stroke-opacity="1" stroke-linecap="round" stroke-linejoin="round"/>
    <path d="M 233.13400268554688 75.16609954833984 C 239.9239959716797 80.54940032958984 234.53900146484375 75.1365966796875 221.4010009765625 66.81680297851562" stroke-width="3.0" fill="none" stroke="rgb(0, 255, 0)" stroke-opacity="1" stroke-linecap="round" stroke-linejoin="round"/>
    <path d="M 188.4709930419922 65.77100372314453 C 188.76699829101562 60.87810134887695 195.91400146484375 72.63099670410156 175.56399536132812 51.96500015258789" stroke-width="3.0" fill="none" stroke="rgb(0, 255, 0)" stroke-opacity="1" stroke-linecap="round" stroke-linejoin="round"/>
    <path d="M 170.67999267578125 183.09800720214844 C 197.16200256347656 153.9029998779297 197.4199981689453 160.41000366210938 180.4429931640625 175.5500030517578" stroke-width="3.0" fill="none" stroke="rgb(0, 255, 0)" stroke-opacity="1" stroke-linecap="round" stroke-linejoin="round"/>
    <path d="M 110.35199737548828 116.2979965209961 C 159.56399536132812 94.35970306396484 204.552001953125 73.34480285644531 171.677001953125 58.98429870605469" stroke-width="3.0" fill="none" stroke="rgb(255, 0, 0)" stroke-opacity="1" stroke-linecap="round" stroke-linejoin="round"/>
    <path d="M 46.487098693847656 144.3560028076172 C 62.59960174560547 136.375 75.54019927978516 136.93600463867188 59.623199462890625 139.16400146484375" stroke-width="3.0" fill="none" stroke="rgb(0, 255, 0)" stroke-opacity="1" stroke-linecap="round" stroke-linejoin="round"/>
    <path d="M 232.91099548339844 123.75399780273438 C 251.93099975585938 95.09149932861328 244.59100341796875 87.21949768066406 237.2760009765625 78.40280151367188" stroke-width="3.0" fill="none" stroke="rgb(0, 255, 0)" stroke-opacity="1" stroke-linecap="round" stroke-linejoin="round"/>
    <path d="M 199.7480010986328 84.54460144042969 C 210.24000549316406 66.50499725341797 174.91900634765625 69.22630310058594 194.7570037841797 66.0551986694336" stroke-width="3.0" fill="none" stroke="rgb(0, 255, 0)" stroke-opacity="1" stroke-linecap="round" stroke-linejoin="round"/>
    <path d="M 183.98699951171875 60.93989944458008 C 220.14199829101562 73.17120361328125 190.28399658203125 70.34750366210938 190.01699829101562 63.61790084838867" stroke-width="3.0" fill="none" stroke="rgb(0, 255, 0)" stroke-opacity="1" stroke-linecap="round" stroke-linejoin="round"/>
    <path d="M 96.19760131835938 164.36700439453125 C 97.12650299072266 165.92599487304688 112.35299682617188 155.0989990234375 84.41670227050781 168.7220001220703" stroke-width="3.0" fill="none" stroke="rgb(0, 255, 0)" stroke-opacity="1" stroke-linecap="round" stroke-linejoin="round"/>
    <path d="M 201.38999938964844 68.82240295410156 C 216.85800170898438 79.1238021850586 202.47500610351562 86.87920379638672 208.28900146484375 83.43240356445312" stroke-width="3.0" fill="none" stroke="rgb(0, 255, 0)" stroke-opacity="1" stroke-linecap="round" stroke-linejoin="round"/>
    <path d="M 199.53900146484375 71.56790161132812 C 212.60800170898438 74.50969696044922 219.0260009765625 84.30460357666016 191.61199951171875 99.82949829101562" stroke-width="3.0" fill="none" stroke="rgb(0, 255, 0)" stroke-opacity="1" stroke-linecap="round" stroke-linejoin="round"/>
    <path d="M 158.84800720214844 121.04399871826172 C 185.6320037841797 105.00499725341797 193.93800354003906 104.13300323486328 184.8780059814453 103.7750015258789" stroke-width="3.0" fill="none" stroke="rgb(0, 255, 0)" stroke-opacity="1" stroke-linecap="round" stroke-linejoin="round"/>
    <path d="M 16.855199813842773 214.53399658203125 C 5.074820041656494 213.322998046875 6.471469879150391 210.38800048828125 65.10350036621094 178.9600067138672" stroke-width="3.0" fill="none" stroke="rgb(0, 255, 0)" stroke-opacity="1" stroke-linecap="round" stroke-linejoin="round"/>
    <path d="M 191.74099731445312 179.5489959716797 C 159.99099731445312 221.38699340820312 156.70700073242188 223.4040069580078 177.95199584960938 197.20399475097656" stroke-width="3.0" fill="none" stroke="rgb(0, 255, 0)" stroke-opacity="1" stroke-linecap="round" stroke-linejoin="round"/>
    <path d="M 146.63999938964844 131.5500030517578 C 157.3780059814453 127.32599639892578 181.052001953125 112.23300170898438 163.1929931640625 123.18800354003906" stroke-width="3.0" fill="none" stroke="rgb(0, 255, 0)" stroke-opacity="1" stroke-linecap="round" stroke-linejoin="round"/>
    <path d="M 187.91099548339844 170.71099853515625 C 201.80999755859375 154.7689971923828 199.7519989013672 157.22300720214844 201.97900390625 154.96499633789062" stroke-width="3.0" fill="none" stroke="rgb(0, 255, 0)" stroke-opacity="1" stroke-linecap="round" stroke-linejoin="round"/>
    <path d="M 202.8459930419922 94.2155990600586 C 166.41200256347656 126.37300109863281 179.572998046875 111.0989990234375 208.04400634765625 77.61540222167969" stroke-width="3.0" fill="none" stroke="rgb(0, 255, 0)" stroke-opacity="1" stroke-linecap="round" stroke-linejoin="round"/>
    <path d="M 207.656005859375 60.70690155029297 C 206.9669952392578 58.0713996887207 219.50799560546875 65.49579620361328 226.2729949951172 69.83380126953125" stroke-width="3.0" fill="none" stroke="rgb(0, 255, 0)" stroke-opacity="1" stroke-linecap="round" stroke-linejoin="round"/>
    <path d="M 230.86000061035156 73.62920379638672 C 244.572998046875 87.01640319824219 233.26199340820312 73.91619873046875 221.35499572753906 68.50250244140625" stroke-width="3.0" fill="none" stroke="rgb(0, 255, 0)" stroke-opacity="1" stroke-linecap="round" stroke-linejoin="round"/>
    <path d="M 190.8040008544922 66.318603515625 C 206.15199279785156 76.34480285644531 193.15199279785156 64.8833999633789 206.5449981689453 76.40080261230469" stroke-width="3.0" fill="none" stroke="rgb(0, 255, 0)" stroke-opacity="1" stroke-linecap="round" stroke-linejoin="round"/>
    <path d="M 155.87399291992188 73.68250274658203 C 141.32400512695312 83.59770202636719 152.13499450683594 84.07669830322266 156.67100524902344 74.82520294189453" stroke-width="2.0" fill="none" stroke="rgb(255, 0, 0)" stroke-opacity="1" stroke-linecap="round" stroke-linejoin="round"/>
    <path d="M 150.3699951171875 80.93730163574219 C 142.5 83.26139831542969 165.99600219726562 73.92310333251953 157.3350067138672 87.57150268554688" stroke-width="2.0" fill="none" stroke="rgb(255, 0, 0)" stroke-opacity="1" stroke-linecap="round" stroke-linejoin="round"/>
    <path d="M 170.5290069580078 80.5625 C 170.81199645996094 86.80239868164062 172.33999633789062 81.081298828125 157.79400634765625 81.22750091552734" stroke-width="2.0" fill="none" stroke="rgb(255, 0, 0)" stroke-opacity="1" stroke-linecap="round" stroke-linejoin="round"/>
    <path d="M 149.08200073242188 81.0261001586914 C 123.43299865722656 83.13459777832031 152.25399780273438 76.17310333251953 138.63499450683594 82.11669921875" stroke-width="2.0" fill="none" stroke="rgb(255, 0, 0)" stroke-opacity="1" stroke-linecap="round" stroke-linejoin="round"/>
    <path d="M 159.43800354003906 67.90399932861328 C 151.33399963378906 76.43419647216797 150.28799438476562 62.46220016479492 153.01300048828125 71.04070281982422" stroke-width="2.0" fill="none" stroke="rgb(255, 0, 0)" stroke-opacity="1" stroke-linecap="round" stroke-linejoin="round"/>
    <path d="M 151.947998046875 83.91419982910156 C 157.177001953125 99.62580108642578 153.843994140625 91.95120239257812 154.77000427246094 87.90010070800781" stroke-width="2.0" fill="none" stroke="rgb(255, 0, 0)" stroke-opacity="1" stroke-linecap="round" stroke-linejoin="round"/>
    <path d="M 163.16299438476562 72.36979675292969 C 151.73399353027344 76.91419982910156 147.20799255371094 83.4354019165039 162.98599243164062 75.83360290527344" stroke-width="2.0" fill="none" stroke="rgb(255, 0, 0)" stroke-opacity="1" stroke-linecap="round" stroke-linejoin="round"/>
    <path d="M 152.3280029296875 95.79070281982422 C 153.76699829101562 77.68840026855469 158.52099609375 85.53600311279297 157.31100463867188 112.59700012207031" stroke-width="2.0" fill="none" stroke="rgb(255, 0, 0)" stroke-opacity="1" stroke-linecap="round" stroke-linejoin="round"/>
    <path d="M 141.63699340820312 76.09010314941406 C 144.0760040283203 81.493896484375 137.67300415039062 70.12760162353516 143.36199951171875 81.76709747314453" stroke-width="2.0" fill="none" stroke="rgb(255, 0, 0)" stroke-opacity="1" stroke-linecap="round" stroke-linejoin="round"/>
    <path d="M 156.59300231933594 84.1177978515625 C 149.08799743652344 89.00299835205078 154.04299926757812 88.71990203857422 160.15199279785156 105.01399993896484" stroke-width="2.0" fill="none" stroke="rgb(255, 0, 0)" stroke-opacity="1" stroke-linecap="round" stroke-linejoin="round"/>
    <path d="M 151.73500061035156 70.64640045166016 C 168.8489990234375 74.88870239257812 166.4969940185547 82.53919982910156 151.14100646972656 78.64330291748047" stroke-width="2.0" fill="none" stroke="rgb(255, 0, 0)" stroke-opacity="1" stroke-linecap="round" stroke-linejoin="round"/>
    <path d="M 166.1199951171875 81.35900115966797 C 169.2519989013672 86.47799682617188 175.97999572753906 77.71659851074219 163.052001953125 82.50530242919922" stroke-width="2.0" fill="none" stroke="rgb(255, 0, 0)" stroke-opacity="1" stroke-linecap="round" stroke-linejoin="round"/>
    <path d="M 156.6179962158203 96.68289947509766 C 160.65699768066406 104.94200134277344 158.77099609375 120.84100341796875 155.37399291992188 111.27899932861328" stroke-width="2.0" fill="none" stroke="rgb(255, 0, 0)" stroke-opacity="1" stroke-linecap="round" stroke-linejoin="round"/>
    <path d="M 154.3260040283203 79.31109619140625 C 150.0 60.503299713134766 153.5279998779297 72.1353988647461 152.1750030517578 67.69100189208984" stroke-width="2.0" fill="none" stroke="rgb(255, 0, 0)" stroke-opacity="1" stroke-linecap="round" stroke-linejoin="round"/>
    <path d="M 160.24600219726562 61.47159957885742 C 159.04100036621094 68.08540344238281 164.80099487304688 63.215301513671875 157.07400512695312 66.4115982055664" stroke-width="2.0" fill="none" stroke="rgb(255, 0, 0)" stroke-opacity="1" stroke-linecap="round" stroke-linejoin="round"/>
    <path d="M 159.2830047607422 59.2598991394043 C 148.97000122070312 56.77299880981445 150.32400512695312 73.29740142822266 158.11900329589844 59.63639831542969" stroke-width="2.0" fill="none" stroke="rgb(255, 0, 0)" stroke-opacity="1" stroke-linecap="round" stroke-linejoin="round"/>
    <path d="M 161.4980010986328 99.3655014038086 C 157.3280029296875 106.06900024414062 155.00399780273438 97.7686996459961 155.8730010986328 104.3010025024414" stroke-width="2.0" fill="none" stroke="rgb(255, 0, 0)" stroke-opacity="1" stroke-linecap="round" stroke-linejoin="round"/>
    <path d="M 159.66000366210938 97.96199798583984 C 154.18099975585938 115.88899993896484 161.125 98.47360229492188 151.8159942626953 87.36190032958984" stroke-width="2.0" fill="none" stroke="rgb(255, 0, 0)" stroke-opacity="1" stroke-linecap="round" stroke-linejoin="round"/>
    <path d="M 163.1649932861328 101.78800201416016 C 151.7270050048828 95.37470245361328 161.88699340820312 108.25800323486328 163.43800354003906 101.69599914550781" stroke-width="2.0" fill="none" stroke="rgb(255, 0, 0)" stroke-opacity="1" stroke-linecap="round" stroke-linejoin="round"/>
    <path d="M 151.81199645996094 115.50700378417969 C 148.07699584960938 116.19100189208984 148.593994140625 118.94100189208984 152.95899963378906 117.41799926757812" stroke-width="2.0" fill="none" stroke="rgb(255, 0, 0)" stroke-opacity="1" stroke-linecap="round" stroke-linejoin="round"/>
    <path d="M 149.1649932861328 116.58499908447266 C 152.80799865722656 69.01219940185547 145.2449951171875 84.70659637451172 150.04100036621094 97.75540161132812" stroke-width="2.0" fill="none" stroke="rgb(255, 0, 0)" stroke-opacity="1" stroke-linecap="round" stroke-linejoin="round"/>
    <path d="M 165.48899841308594 69.56169891357422 C 173.96499633789062 82.6948013305664 166.4669952392578 79.97260284423828 163.83399963378906 68.1897964477539" stroke-width="2.0" fill="none" stroke="rgb(255, 0, 0)" stroke-opacity="1" stroke-linecap="round" stroke-linejoin="round"/>
    <path d="M 149.29800415039062 102.81800079345703 C 150.79200744628906 95.2251968383789 154.7969970703125 95.17250061035156 150.17300415039062 84.36820220947266" stroke-width="2.0" fill="none" stroke="rgb(255, 0, 0)" stroke-opacity="1" stroke-linecap="round" stroke-linejoin="round"/>
    <path d="M 154.3730010986328 62.471900939941406 C 148.63299560546875 62.84379959106445 155.29299926757812 66.60310363769531 159.58700561523438 60.37009811401367" stroke-width="2.0" fill="none" stroke="rgb(255, 0, 0)" stroke-opacity="1" stroke-linecap="round" stroke-linejoin="round"/>
    <path d="M 157.7899932861328 89.75019836425781 C 139.55799865722656 81.26419830322266 147.9530029296875 89.09860229492188 158.0030059814453 91.68990325927734" stroke-width="2.0" fill="none" stroke="rgb(255, 0, 0)" stroke-opacity="1" stroke-linecap="round" stroke-linejoin="round"/>
    <path d="M 153.8280029296875 63.45859909057617 C 151.54600524902344 64.36840057373047 157.0189971923828 69.74639892578125 158.6219940185547 65.20040130615234" stroke-width="2.0" fill="none" stroke="rgb(255, 0, 0)" stroke-opacity="1" stroke-linecap="round" stroke-linejoin="round"/>
    <path d="M 156.33200073242188 113.11599731445312 C 161.6739959716797 114.07599639892578 152.86500549316406 93.18419647216797 155.5030059814453 112.47200012207031" stroke-width="2.0" fill="none" stroke="rgb(255, 0, 0)" stroke-opacity="1" stroke-linecap="round" stroke-linejoin="round"/>
    <path d="M 147.37899780273438 69.32009887695312 C 161.7030029296875 76.16459655761719 155.0919952392578 84.02400207519531 165.04800415039062 71.18090057373047" stroke-width="2.0" fill="none" stroke="rgb(255, 0, 0)" stroke-opacity="1" stroke-linecap="round" stroke-linejoin="round"/>
    <path d="M 151.68800354003906 77.631103515625 C 152.36500549316406 78.56629943847656 168.44200134277344 81.4531021118164 160.07000732421875 74.76840209960938" stroke-width="2.0" fill="none" stroke="rgb(255, 0, 0)" stroke-opacity="1" stroke-linecap="round" stroke-linejoin="round"/>
    <path d="M 164.10699462890625 67.4894027709961 C 166.447998046875 78.40699768066406 153.3280029296875 76.4480972290039 162.24600219726562 69.15029907226562" stroke-width="2.0" fill="none" stroke="rgb(255, 0, 0)" stroke-opacity="1" stroke-linecap="round" stroke-linejoin="round"/>
    <path d="M 161.7740020751953 90.17109680175781 C 157.6790008544922 98.22480010986328 163.7830047607422 104.78199768066406 161.13400268554688 84.99960327148438" stroke-width="2.0" fill="none" stroke="rgb(255, 0, 0)" stroke-opacity="1" stroke-linecap="round" stroke-linejoin="round"/>
    <path d="M 150.4429931640625 65.90499877929688 C 156.302001953125 85.23069763183594 165.20700073242188 85.99729919433594 163.28199768066406 67.78289794921875" stroke-width="2.0" fill="none" stroke="rgb(255, 0, 0)" stroke-opacity="1" stroke-linecap="round" stroke-linejoin="round"/>
    <path d="M 162.53900146484375 67.21739959716797 C 175.1540069580078 84.97129821777344 169.41200256347656 83.11699676513672 149.7779998779297 80.65979766845703" stroke-width="2.0" fill="none" stroke="rgb(255, 0, 0)" stroke-opacity="1" stroke-linecap="round" stroke-linejoin="round"/>
    <path d="M 155.2740020751953 60.19110107421875 C 153.61099243164062 66.6167984008789 152.63699340820312 66.88670349121094 158.82000732421875 65.43350219726562" stroke-width="2.0" fill="none" stroke="rgb(255, 0, 0)" stroke-opacity="1" stroke-linecap="round" stroke-linejoin="round"/>
    <path d="M 160.25599670410156 81.26699829101562 C 146.4980010986328 69.90350341796875 152.05599975585938 85.3822021484375 170.1529998779297 83.68830108642578" stroke-width="2.0" fill="none" stroke="rgb(255, 0, 0)" stroke-opacity="1" stroke-linecap="round" stroke-linejoin="round"/>
    <path d="M 150.04200744628906 79.42440032958984 C 163.72900390625 82.29109954833984 175.28399658203125 83.57080078125 151.2469940185547 85.74089813232422" stroke-width="2.0" fill="none" stroke="rgb(255, 0, 0)" stroke-opacity="1" stroke-linecap="round" stroke-linejoin="round"/>
    <path d="M 168.49600219726562 80.80470275878906 C 169.23500061035156 83.4301986694336 171.56500244140625 74.46279907226562 166.42300415039062 84.38079833984375" stroke-width="2.0" fill="none" stroke="rgb(255, 0, 0)" stroke-opacity="1" stroke-linecap="round" stroke-linejoin="round"/>
    <path d="M 149.76499938964844 87.61190032958984 C 150.677001953125 85.42259979248047 148.65699768066406 70.9218978881836 149.53500366210938 86.94349670410156" stroke-width="2.0" fill="none" stroke="rgb(255, 0, 0)" stroke-opacity="1" stroke-linecap="round" stroke-linejoin="round"/>
    <path d="M 151.46600341796875 85.34259796142578 C 147.26100158691406 93.30819702148438 154.23800659179688 95.5822982788086 148.6219940185547 84.75990295410156" stroke-width="2.0" fill="none" stroke="rgb(255, 0, 0)" stroke-opacity="1" stroke-linecap="round" stroke-linejoin="round"/>
    <path d="M 161.33999633789062 62.62229919433594 C 154.2480010986328 63.250099182128906 146.4600067138672 63.694000244140625 152.39300537109375 74.68949890136719" stroke-width="2.0" fill="none" stroke="rgb(255, 0, 0)" stroke-opacity="1" stroke-linecap="round" stroke-linejoin="round"/>
    <path d="M 152.25 88.31099700927734 C 162.2270050048828 85.2155990600586 165.08799743652344 72.24189758300781 160.4770050048828 84.5166015625" stroke-width="2.0" fill="none" stroke="rgb(255, 0, 0)" stroke-opacity="1" stroke-linecap="round" stroke-linejoin="round"/>
    <path d="M 144.07000732421875 74.42960357666016 C 154.77099609375 68.28569793701172 153.9969940185547 67.25679779052734 154.50399780273438 72.94329833984375" stroke-width="2.0" fill="none" stroke="rgb(255, 0, 0)" stroke-opacity="1" stroke-linecap="round" stroke-linejoin="round"/>
    <path d="M 154.28799438476562 64.6677017211914 C 154.13499450683594 61.91109848022461 155.44700622558594 62.485599517822266 154.81900024414062 63.56800079345703" stroke-width="2.0" fill="none" stroke="rgb(255, 0, 0)" stroke-opacity="1" stroke-linecap="round" stroke-linejoin="round"/>
    <path d="M 165.66700744628906 67.6406021118164 C 168.11000061035156 75.38040161132812 173.78399658203125 75.8469009399414 169.36599731445312 82.60919952392578" stroke-width="2.0" fill="none" stroke="rgb(255, 0, 0)" stroke-opacity="1" stroke-linecap="round" stroke-linejoin="round"/>
    <path d="M 150.87100219726562 82.09149932861328 C 163.89500427246094 79.90799713134766 166.97999572753906 88.90670013427734 138.8159942626953 79.68389892578125" stroke-width="2.0" fill="none" stroke="rgb(255, 0, 0)" stroke-opacity="1" stroke-linecap="round" stroke-linejoin="round"/>
    <path d="M 153.36000061035156 110.27100372314453 C 152.6739959716797 121.54100036621094 145.86700439453125 113.65399932861328 150.78599548339844 116.39600372314453" stroke-width="2.0" fill="none" stroke="rgb(255, 0, 0)" stroke-opacity="1" stroke-linecap="round" stroke-linejoin="round"/>
    <path d="M 146.27699279785156 70.04440307617188 C 153.31300354003906 64.489501953125 153.2899932861328 65.94819641113281 139.28599548339844 75.5238037109375" stroke-width="2.0" fill="none" stroke="rgb(255, 0, 0)" stroke-opacity="1" stroke-linecap="round" stroke-linejoin="round"/>
    <path d="M 149.61500549316406 69.45079803466797 C 134.0290069580078 79.40670013427734 140.83999633789062 74.09200286865234 138.35000610351562 78.68789672851562" stroke-width="2.0" fill="none" stroke="rgb(255, 0, 0)" stroke-opacity="1" stroke-linecap="round" stroke-linejoin="round"/>
    <path d="M 153.37899780273438 64.72460174560547 C 166.6540069580078 66.1677017211914 166.1840057373047 66.24189758300781 169.98300170898438 76.95230102539062" stroke-width="2.0" fill="none" stroke="rgb(255, 0, 0)" stroke-opacity="1" stroke-linecap="round" stroke-linejoin="round"/>
    <path d="M 159.7030029296875 67.95059967041016 C 158.8249969482422 65.46289825439453 169.3159942626953 64.18240356445312 160.5780029296875 74.32109832763672" stroke-width="2.0" fill="none" stroke="rgb(255, 0, 0)" stroke-opacity="1" stroke-linecap="round" stroke-linejoin="round"/>
    <path d="M 161.875 89.61830139160156 C 162.60000610351562 124.18699645996094 153.20700073242188 115.1760025024414 151.38299560546875 95.71620178222656" stroke-width="2.0" fill="none" stroke="rgb(255, 0, 0)" stroke-opacity="1" stroke-linecap="round" stroke-linejoin="round"/>
    <path d="M 153.9739990234375 63.63159942626953 C 156.05799865722656 70.28150177001953 153.07699584960938 66.0958023071289 160.50399780273438 62.032798767089844" stroke-width="2.0" fill="none" stroke="rgb(255, 0, 0)" stroke-opacity="1" stroke-linecap="round" stroke-linejoin="round"/>
    <path d="M 148.43499755859375 101.9010009765625 C 150.80099487304688 68.64640045166016 156.8509979248047 81.90609741210938 151.15499877929688 117.9530029296875" stroke-width="2.0" fill="none" stroke="rgb(255, 0, 0)" stroke-opacity="1" stroke-linecap="round" stroke-linejoin="round"/>
    <path d="M 152.5189971923828 64.13079833984375 C 152.8070068359375 68.8761978149414 157.82200622558594 61.61579895019531 147.06399536132812 70.60079956054688" stroke-width="2.0" fill="none" stroke="rgb(255, 0, 0)" stroke-opacity="1" stroke-linecap="round" stroke-linejoin="round"/>
    <path d="M 152.68600463867188 90.25959777832031 C 149.00799560546875 120.12000274658203 154.52200317382812 122.21299743652344 152.46800231933594 113.53500366210938" stroke-width="2.0" fill="none" stroke="rgb(255, 0, 0)" stroke-opacity="1" stroke-linecap="round" stroke-linejoin="round"/>
    <path d="M 150.15199279785156 85.69550323486328 C 173.61599731445312 80.64089965820312 161.57899475097656 83.94329833984375 168.97300720214844 78.84700012207031" stroke-width="2.0" fill="none" stroke="rgb(255, 0, 0)" stroke-opacity="1" stroke-linecap="round" stroke-linejoin="round"/>
    <path d="M 159.54400634765625 59.705501556396484 C 167.52200317382812 66.41719818115234 148.2530059814453 65.25920104980469 146.70700073242188 69.60420227050781" stroke-width="2.0" fill="none" stroke="rgb(255, 0, 0)" stroke-opacity="1" stroke-linecap="round" stroke-linejoin="round"/>
    <path d="M 162.23899841308594 66.92839813232422 C 153.468994140625 61.40909957885742 155.5260009765625 68.5542984008789 148.64199829101562 67.00489807128906" stroke-width="2.0" fill="none" stroke="rgb(255, 0, 0)" stroke-opacity="1" stroke-linecap="round" stroke-linejoin="round"/>
    <path d="M 156.6060028076172 74.31330108642578 C 143.97500610351562 67.47029876708984 149.31700134277344 69.24539947509766 139.5229949951172 82.30870056152344" stroke-width="2.0" fill="none" stroke="rgb(255, 0, 0)" stroke-opacity="1" stroke-linecap="round" stroke-linejoin="round"/>
    <path d="M 153.3159942626953 64.5647964477539 C 156.33200073242188 72.2959976196289 156.0749969482422 64.47989654541016 150.75900268554688 67.20999908447266" stroke-width="2.0" fill="none" stroke="rgb(255, 0, 0)" stroke-opacity="1" stroke-linecap="round" stroke-linejoin="round"/>
    <path d="M 174.48300170898438 38.722599029541016 C 167.66900634765625 36.32780075073242 167.54100036621094 37.665401458740234 168.32899475097656 35.59239959716797" stroke-width="2.0" fill="none" stroke="rgb(0, 0, 255)" stroke-opacity="1" stroke-linecap="round" stroke-linejoin="round"/>
    <path d="M 200.18299865722656 43.813201904296875 C 201.50399780273438 48.84049987792969 203.76699829101562 43.363399505615234 201.3280029296875 46.5276985168457" stroke-width="2.0" fill="none" stroke="rgb(0, 0, 255)" stroke-opacity="1" stroke-linecap="round" stroke-linejoin="round"/>
    <path d="M 185.39700317382812 41.05799865722656 C 180.5590057373047 38.888099670410156 183.81300354003906 36.13990020751953 187.68099975585938 41.493099212646484" stroke-width="2.0" fill="none" stroke="rgb(0, 0, 255)" stroke-opacity="1" stroke-linecap="round" stroke-linejoin="round"/>
    <path d="M 182.3509979248047 39.12990188598633 C 187.64599609375 36.74290084838867 186.8679962158203 43.34980010986328 185.95399475097656 41.00899887084961" stroke-width="2.0" fill="none" stroke="rgb(0, 0, 255)" stroke-opacity="1" stroke-linecap="round" stroke-linejoin="round"/>
    <path d="M 174.32200622558594 33.393001556396484 C 177.5 30.46500015258789 175.0659942626953 26.813199996948242 177.98300170898438 25.994600296020508" stroke-width="2.0" fill="none" stroke="rgb(0, 0, 255)" stroke-opacity="1" stroke-linecap="round" stroke-linejoin="round"/>
    <path d="M 177.10400390625 40.707801818847656 C 179.6739959716797 46.6859016418457 179.58399963378906 44.267799377441406 177.427001953125 40.299800872802734" stroke-width="2.0" fill="none" stroke="rgb(0, 0, 255)" stroke-opacity="1" stroke-linecap="round" stroke-linejoin="round"/>
    <path d="M 185.1840057373047 34.56999969482422 C 190.85899353027344 29.271299362182617 191.28900146484375 34.74489974975586 190.9720001220703 30.513200759887695" stroke-width="2.0" fill="none" stroke="rgb(0, 0, 255)" stroke-opacity="1" stroke-linecap="round" stroke-linejoin="round"/>
    <path d="M 193.3000030517578 57.24359893798828 C 190.98599243164062 59.10559844970703 190.0290069580078 57.737098693847656 194.58900451660156 57.364898681640625" stroke-width="2.0" fill="none" stroke="rgb(0, 0, 255)" stroke-opacity="1" stroke-linecap="round" stroke-linejoin="round"/>
    <path d="M 205.4739990234375 62.14310073852539 C 204.5449981689453 64.01380157470703 202.17799377441406 62.85580062866211 198.56300354003906 58.33100128173828" stroke-width="2.0" fill="none" stroke="rgb(0, 0, 255)" stroke-opacity="1" stroke-linecap="round" stroke-linejoin="round"/>
    <path d="M 182.5469970703125 28.68779945373535 C 183.61399841308594 26.622499465942383 182.42999267578125 29.974300384521484 183.55499267578125 29.20840072631836" stroke-width="2.0" fill="none" stroke="rgb(0, 0, 255)" stroke-opacity="1" stroke-linecap="round" stroke-linejoin="round"/>
    <path d="M 203.7270050048828 55.3286018371582 C 199.34100341796875 51.10390090942383 206.16099548339844 56.34709930419922 196.86300659179688 47.591400146484375" stroke-width="2.0" fill="none" stroke="rgb(0, 0, 255)" stroke-opacity="1" stroke-linecap="round" stroke-linejoin="round"/>
    <path d="M 170.63299560546875 32.26390075683594 C 175.46600341796875 41.445499420166016 165.32699584960938 40.56740188598633 169.6699981689453 28.070600509643555" stroke-width="2.0" fill="none" stroke="rgb(0, 0, 255)" stroke-opacity="1" stroke-linecap="round" stroke-linejoin="round"/>
    <path d="M 189.1540069580078 38.22529983520508 C 186.76100158691406 34.07310104370117 187.36700439453125 32.908599853515625 195.32000732421875 36.74760055541992" stroke-width="2.0" fill="none" stroke="rgb(0, 0, 255)" stroke-opacity="1" stroke-linecap="round" stroke-linejoin="round"/>
    <path d="M 196.68499755859375 54.2041015625 C 200.61700439453125 59.95479965209961 204.53599548339844 62.51259994506836 195.01699829101562 57.57120132446289" stroke-width="2.0" fill="none" stroke="rgb(0, 0, 255)" stroke-opacity="1" stroke-linecap="round" stroke-linejoin="round"/>
    <path d="M 171.72300720214844 21.617399215698242 C 173.7209930419922 22.362699508666992 175.79600524902344 27.337600708007812 175.91099548339844 20.170700073242188" stroke-width="2.0" fill="none" stroke="rgb(0, 0, 255)" stroke-opacity="1" stroke-linecap="round" stroke-linejoin="round"/>
    <path d="M 170.7519989013672 22.599700927734375 C 171.68099975585938 27.183799743652344 174.96200561523438 28.471099853515625 178.14999389648438 23.989200592041016" stroke-width="2.0" fill="none" stroke="rgb(0, 0, 255)" stroke-opacity="1" stroke-linecap="round" stroke-linejoin="round"/>
    <path d="M 174.83099365234375 15.036700248718262 C 171.55499267578125 17.804899215698242 175.56500244140625 16.932199478149414 176.1479949951172 16.956899642944336" stroke-width="2.0" fill="none" stroke="rgb(0, 0, 255)" stroke-opacity="1" stroke-linecap="round" stroke-linejoin="round"/>
    <path d="M 191.21600341796875 43.92259979248047 C 196.968994140625 50.69900131225586 197.19900512695312 50.086700439453125 192.2519989013672 43.70140075683594" stroke-width="2.0" fill="none" stroke="rgb(0, 0, 255)" stroke-opacity="1" stroke-linecap="round" stroke-linejoin="round"/>
    <path d="M 182.86099243164062 45.661399841308594 C 185.0240020751953 48.358699798583984 185.13800048828125 48.97999954223633 182.2740020751953 46.07849884033203" stroke-width="2.0" fill="none" stroke="rgb(0, 0, 255)" stroke-opacity="1" stroke-linecap="round" stroke-linejoin="round"/>
    <path d="M 195.94900512695312 51.63520050048828 C 198.0970001220703 56.7333984375 196.51600646972656 48.13840103149414 198.3179931640625 57.27949905395508" stroke-width="2.0" fill="none" stroke="rgb(0, 0, 255)" stroke-opacity="1" stroke-linecap="round" stroke-linejoin="round"/>
    <path d="M 201.08700561523438 60.03609848022461 C 207.1230010986328 62.64149856567383 204.5050048828125 64.22229766845703 200.9980010986328 59.38850021362305" stroke-width="2.0" fill="none" stroke="rgb(0, 255, 0)" stroke-opacity="1" stroke-linecap="round" stroke-linejoin="round"/>
    <path d="M 201.89599609375 51.55160140991211 C 201.47500610351562 47.77410125732422 200.45899963378906 51.894100189208984 202.17999267578125 46.92259979248047" stroke-width="2.0" fill="none" stroke="rgb(0, 0, 255)" stroke-opacity="1" stroke-linecap="round" stroke-linejoin="round"/>
    <path d="M 184.54200744628906 35.2848014831543 C 179.8489990234375 39.25559997558594 185.17100524902344 36.63529968261719 183.01300048828125 24.410600662231445" stroke-width="2.0" fill="none" stroke="rgb(0, 0, 255)" stroke-opacity="1" stroke-linecap="round" stroke-linejoin="round"/>
    <path d="M 186.95799255371094 54.70119857788086 C 177.53900146484375 50.638301849365234 179.968994140625 46.800201416015625 177.7519989013672 47.44390106201172" stroke-width="2.0" fill="none" stroke="rgb(0, 0, 255)" stroke-opacity="1" stroke-linecap="round" stroke-linejoin="round"/>
    <path d="M 174.47500610351562 23.840700149536133 C 167.53700256347656 22.79800033569336 169.2259979248047 19.892000198364258 174.14999389648438 24.235300064086914" stroke-width="2.0" fill="none" stroke="rgb(0, 0, 255)" stroke-opacity="1" stroke-linecap="round" stroke-linejoin="round"/>
    <path d="M 170.41200256347656 37.737998962402344 C 169.69200134277344 44.90810012817383 175.67799377441406 33.372501373291016 169.57400512695312 42.440101623535156" stroke-width="2.0" fill="none" stroke="rgb(0, 0, 255)" stroke-opacity="1" stroke-linecap="round" stroke-linejoin="round"/>
    <path d="M 170.89599609375 22.872100830078125 C 172.48300170898438 20.417200088500977 175.58700561523438 22.113100051879883 170.5540008544922 22.170000076293945" stroke-width="2.0" fill="none" stroke="rgb(0, 0, 255)" stroke-opacity="1" stroke-linecap="round" stroke-linejoin="round"/>
    <path d="M 189.42300415039062 59.80030059814453 C 186.00900268554688 53.88999938964844 190.11099243164062 58.88330078125 191.4250030517578 58.20790100097656" stroke-width="2.0" fill="none" stroke="rgb(0, 0, 255)" stroke-opacity="1" stroke-linecap="round" stroke-linejoin="round"/>
    <path d="M 195.69400024414062 35.23149871826172 C 194.3209991455078 33.414798736572266 191.83700561523438 30.419099807739258 195.02000427246094 35.253700256347656" stroke-width="2.0" fill="none" stroke="rgb(0, 0, 255)" stroke-opacity="1" stroke-linecap="round" stroke-linejoin="round"/>
    <path d="M 185.08099365234375 34.20790100097656 C 182.125 29.521400451660156 186.2969970703125 34.49980163574219 183.96099853515625 33.90679931640625" stroke-width="2.0" fill="none" stroke="rgb(0, 0, 255)" stroke-opacity="1" stroke-linecap="round" stroke-linejoin="round"/>
    <path d="M 174.4340057373047 28.38279914855957 C 176.90699768066406 24.658000946044922 180.2239990234375 28.43400001525879 173.52200317382812 29.542800903320312" stroke-width="2.0" fill="none" stroke="rgb(0, 0, 255)" stroke-opacity="1" stroke-linecap="round" stroke-linejoin="round"/>
    <path d="M 188.1179962158203 57.687801361083984 C 179.58900451660156 44.9656982421875 176.24600219726562 38.230899810791016 185.656005859375 50.317901611328125" stroke-width="2.0" fill="none" stroke="rgb(0, 0, 255)" stroke-opacity="1" stroke-linecap="round" stroke-linejoin="round"/>
    <path d="M 179.1580047607422 37.38819885253906 C 172.7100067138672 31.733200073242188 171.23500061035156 31.3262996673584 175.3489990234375 35.30099868774414" stroke-width="2.0" fill="none" stroke="rgb(0, 0, 255)" stroke-opacity="1" stroke-linecap="round" stroke-linejoin="round"/>
    <path d="M 197.68899536132812 38.87580108642578 C 194.82000732421875 35.535499572753906 199.72300720214844 37.20539855957031 193.6199951171875 32.7671012878418" stroke-width="2.0" fill="none" stroke="rgb(0, 0, 255)" stroke-opacity="1" stroke-linecap="round" stroke-linejoin="round"/>
    <path d="M 174.93600463867188 17.319400787353516 C 173.51100158691406 13.382800102233887 177.69500732421875 17.47960090637207 174.7760009765625 16.959699630737305" stroke-width="2.0" fill="none" stroke="rgb(0, 0, 255)" stroke-opacity="1" stroke-linecap="round" stroke-linejoin="round"/>
    <path d="M 185.1719970703125 36.827301025390625 C 188.82400512695312 41.77510070800781 188.18499755859375 41.0723991394043 188.63299560546875 43.43170166015625" stroke-width="2.0" fill="none" stroke="rgb(0, 0, 255)" stroke-opacity="1" stroke-linecap="round" stroke-linejoin="round"/>
    <path d="M 186.7550048828125 36.59550094604492 C 186.33999633789062 35.82550048828125 189.47799682617188 40.32320022583008 190.4499969482422 42.20600128173828" stroke-width="2.0" fill="none" stroke="rgb(0, 0, 255)" stroke-opacity="1" stroke-linecap="round" stroke-linejoin="round"/>
    <path d="M 184.8070068359375 37.532501220703125 C 185.2050018310547 44.81269836425781 190.0570068359375 41.94540023803711 183.73399353027344 37.696800231933594" stroke-width="2.0" fill="none" stroke="rgb(0, 0, 255)" stroke-opacity="1" stroke-linecap="round" stroke-linejoin="round"/>
    <path d="M 201.41600036621094 56.8578987121582 C 196.8719940185547 48.50090026855469 200.3000030517578 59.242401123046875 205.39700317382812 61.42499923706055" stroke-width="2.0" fill="none" stroke="rgb(0, 0, 255)" stroke-opacity="1" stroke-linecap="round" stroke-linejoin="round"/>
    <path d="M 188.66000366210938 40.99399948120117 C 193.552001953125 47.12229919433594 188.01100158691406 44.494998931884766 191.7830047607422 43.14609909057617" stroke-width="2.0" fill="none" stroke="rgb(0, 0, 255)" stroke-opacity="1" stroke-linecap="round" stroke-linejoin="round"/>
    <path d="M 180.072998046875 27.755599975585938 C 178.031005859375 25.983999252319336 182.19900512695312 27.062999725341797 174.53900146484375 29.704999923706055" stroke-width="2.0" fill="none" stroke="rgb(0, 0, 255)" stroke-opacity="1" stroke-linecap="round" stroke-linejoin="round"/>
    <path d="M 189.24600219726562 29.843700408935547 C 181.2790069580078 30.789899826049805 186.33200073242188 31.851200103759766 187.302001953125 34.32460021972656" stroke-width="2.0" fill="none" stroke="rgb(0, 0, 255)" stroke-opacity="1" stroke-linecap="round" stroke-linejoin="round"/>
    <path d="M 181.31199645996094 49.97079849243164 C 174.39700317382812 44.78950119018555 177.49000549316406 49.03810119628906 179.75100708007812 39.78689956665039" stroke-width="2.0" fill="none" stroke="rgb(0, 0, 255)" stroke-opacity="1" stroke-linecap="round" stroke-linejoin="round"/>
    <path d="M 176.322998046875 16.072900772094727 C 176.69400024414062 15.584400177001953 177.96400451660156 21.660600662231445 176.6269989013672 16.497499465942383" stroke-width="2.0" fill="none" stroke="rgb(0, 0, 255)" stroke-opacity="1" stroke-linecap="round" stroke-linejoin="round"/>
    <path d="M 177.38999938964844 41.006900787353516 C 176.01499938964844 43.23350143432617 176.7729949951172 44.503700256347656 176.87899780273438 41.746700286865234" stroke-width="2.0" fill="none" stroke="rgb(0, 0, 255)" stroke-opacity="1" stroke-linecap="round" stroke-linejoin="round"/>
    <path d="M 179.74200439453125 44.92100143432617 C 182.34800720214844 45.476898193359375 182.58099365234375 51.925201416015625 179.5679931640625 45.377201080322266" stroke-width="2.0" fill="none" stroke="rgb(0, 0, 255)" stroke-opacity="1" stroke-linecap="round" stroke-linejoin="round"/>
    <path d="M 175.73300170898438 21.098100662231445 C 172.69200134277344 25.23979949951172 172.68600463867188 26.977100372314453 171.0679931640625 22.698699951171875" stroke-width="2.0" fill="none" stroke="rgb(0, 0, 255)" stroke-opacity="1" stroke-linecap="round" stroke-linejoin="round"/>
    <path d="M 171.3459930419922 22.590099334716797 C 179.4720001220703 20.11910057067871 180.85899353027344 15.167200088500977 169.9499969482422 20.373300552368164" stroke-width="2.0" fill="none" stroke="rgb(0, 0, 255)" stroke-opacity="1" stroke-linecap="round" stroke-linejoin="round"/>
    <path d="M 179.40499877929688 26.95599937438965 C 180.15699768066406 23.409099578857422 176.95199584960938 25.585800170898438 178.95700073242188 21.647199630737305" stroke-width="2.0" fill="none" stroke="rgb(0, 0, 255)" stroke-opacity="1" stroke-linecap="round" stroke-linejoin="round"/>
    <path d="M 178.04400634765625 25.563100814819336 C 175.40899658203125 35.18119812011719 168.61399841308594 33.75519943237305 173.00999450683594 31.923099517822266" stroke-width="2.0" fill="none" stroke="rgb(0, 0, 255)" stroke-opacity="1" stroke-linecap="round" stroke-linejoin="round"/>
    <path d="M 176.9199981689453 44.92390060424805 C 177.07000732421875 39.52980041503906 173.5850067138672 40.504798889160156 184.2689971923828 39.784400939941406" stroke-width="2.0" fill="none" stroke="rgb(0, 0, 255)" stroke-opacity="1" stroke-linecap="round" stroke-linejoin="round"/>
    <path d="M 168.49899291992188 34.484500885009766 C 167.99400329589844 35.1953010559082 169.23300170898438 34.49440002441406 169.19000244140625 37.07360076904297" stroke-width="2.0" fill="none" stroke="rgb(0, 0, 255)" stroke-opacity="1" stroke-linecap="round" stroke-linejoin="round"/>
    <path d="M 170.88600158691406 21.880300521850586 C 172.09300231933594 26.81719970703125 174.70399475097656 29.87310028076172 173.1510009765625 21.530000686645508" stroke-width="2.0" fill="none" stroke="rgb(0, 0, 255)" stroke-opacity="1" stroke-linecap="round" stroke-linejoin="round"/>
    <path d="M 173.63400268554688 21.463300704956055 C 171.31399536132812 25.221599578857422 170.05799865722656 25.871700286865234 171.96800231933594 31.2731990814209" stroke-width="2.0" fill="none" stroke="rgb(0, 0, 255)" stroke-opacity="1" stroke-linecap="round" stroke-linejoin="round"/>
    <path d="M 199.17100524902344 43.426300048828125 C 196.12100219726562 34.227298736572266 196.64300537109375 33.159400939941406 195.26100158691406 37.76850128173828" stroke-width="2.0" fill="none" stroke="rgb(0, 0, 255)" stroke-opacity="1" stroke-linecap="round" stroke-linejoin="round"/>
    <path d="M 183.802001953125 31.200300216674805 C 185.0709991455078 34.02109909057617 187.3800048828125 34.25239944458008 182.12899780273438 28.69059944152832" stroke-width="2.0" fill="none" stroke="rgb(0, 0, 255)" stroke-opacity="1" stroke-linecap="round" stroke-linejoin="round"/>
    <path d="M 181.1699981689453 28.305099487304688 C 185.1840057373047 23.662599563598633 184.3000030517578 20.343900680541992 183.5229949951172 23.149700164794922" stroke-width="2.0" fill="none" stroke="rgb(0, 0, 255)" stroke-opacity="1" stroke-linecap="round" stroke-linejoin="round"/>
    <path d="M 189.906005859375 19.80699920654297 C 179.03900146484375 17.15880012512207 180.68800354003906 18.03529930114746 178.5019989013672 24.394500732421875" stroke-width="2.0" fill="none" stroke="rgb(0, 0, 255)" stroke-opacity="1" stroke-linecap="round" stroke-linejoin="round"/>
    <path d="M 171.22900390625 25.38159942626953 C 171.35899353027344 28.08639907836914 177.13999938964844 28.406200408935547 176.9720001220703 20.830799102783203" stroke-width="2.0" fill="none" stroke="rgb(0, 0, 255)" stroke-opacity="1" stroke-linecap="round" stroke-linejoin="round"/>
    <path d="M 172.22300720214844 30.08370018005371 C 176.87399291992188 31.609699249267578 177.0709991455078 30.090200424194336 171.5 25.988000869750977" stroke-width="2.0" fill="none" stroke="rgb(0, 0, 255)" stroke-opacity="1" stroke-linecap="round" stroke-linejoin="round"/>
    <path d="M 205.01600646972656 57.923301696777344 C 204.8040008544922 53.45859909057617 203.52999877929688 55.10900115966797 202.45599365234375 52.875099182128906" stroke-width="2.0" fill="none" stroke="rgb(0, 0, 255)" stroke-opacity="1" stroke-linecap="round" stroke-linejoin="round"/>
    <path d="M 179.58099365234375 22.0093994140625 C 178.0240020751953 17.150800704956055 176.60400390625 17.901599884033203 176.95599365234375 22.061500549316406" stroke-width="2.0" fill="none" stroke="rgb(0, 0, 255)" stroke-opacity="1" stroke-linecap="round" stroke-linejoin="round"/>
    <path d="M 194.23399353027344 46.212501525878906 C 199.35899353027344 53.737098693847656 199.60800170898438 54.55830001831055 196.69200134277344 49.47480010986328" stroke-width="2.0" fill="none" stroke="rgb(0, 0, 255)" stroke-opacity="1" stroke-linecap="round" stroke-linejoin="round"/>
    <path d="M 175.031005859375 22.688400268554688 C 176.30299377441406 17.2362003326416 179.08599853515625 14.32979965209961 173.33799743652344 17.16830062866211" stroke-width="2.0" fill="none" stroke="rgb(0, 0, 255)" stroke-opacity="1" stroke-linecap="round" stroke-linejoin="round"/>
    <path d="M 194.19000244140625 32.62730026245117 C 193.66700744628906 35.82229995727539 192.8419952392578 29.794200897216797 188.83299255371094 29.681299209594727" stroke-width="2.0" fill="none" stroke="rgb(0, 0, 255)" stroke-opacity="1" stroke-linecap="round" stroke-linejoin="round"/>
    <path d="M 192.1009979248047 42.17620086669922 C 189.5260009765625 39.072601318359375 190.05299377441406 40.367801666259766 185.15899658203125 34.46770095825195" stroke-width="2.0" fill="none" stroke="rgb(0, 0, 255)" stroke-opacity="1" stroke-linecap="round" stroke-linejoin="round"/>
    <path d="M 179.92999267578125 43.4635009765625 C 184.93499755859375 47.1431999206543 186.91000366210938 52.21689987182617 181.71200561523438 43.70650100708008" stroke-width="2.0" fill="none" stroke="rgb(0, 0, 255)" stroke-opacity="1" stroke-linecap="round" stroke-linejoin="round"/>
    <path d="M 175.26400756835938 15.386500358581543 C 179.36700439453125 16.802400588989258 177.3719940185547 24.39419937133789 179.375 22.521499633789062" stroke-width="2.0" fill="none" stroke="rgb(0, 0, 255)" stroke-opacity="1" stroke-linecap="round" stroke-linejoin="round"/>
    <path d="M 179.26600646972656 24.447099685668945 C 178.93699645996094 27.5403995513916 179.48199462890625 27.815900802612305 173.72500610351562 26.8533992767334" stroke-width="2.0" fill="none" stroke="rgb(0, 0, 255)" stroke-opacity="1" stroke-linecap="round" stroke-linejoin="round"/>
    <path d="M 174.59800720214844 16.1023006439209 C 174.06900024414062 16.713899612426758 174.16700744628906 19.511699676513672 174.9290008544922 16.08060073852539" stroke-width="2.0" fill="none" stroke="rgb(0, 0, 255)" stroke-opacity="1" stroke-linecap="round" stroke-linejoin="round"/>
    <path d="M 170.6060028076172 25.51490020751953 C 167.3470001220703 33.57419967651367 177.0659942626953 31.65399932861328 174.3419952392578 27.43709945678711" stroke-width="2.0" fill="none" stroke="rgb(0, 0, 255)" stroke-opacity="1" stroke-linecap="round" stroke-linejoin="round"/>
    <path d="M 171.9149932861328 26.444799423217773 C 170.51800537109375 22.5664005279541 173.8800048828125 28.989999771118164 178.50999450683594 26.551599502563477" stroke-width="2.0" fill="none" stroke="rgb(0, 0, 255)" stroke-opacity="1" stroke-linecap="round" stroke-linejoin="round"/>
    <path d="M 170.11500549316406 22.11520004272461 C 174.2949981689453 32.59629821777344 179.2169952392578 33.25529861450195 170.61500549316406 29.419599533081055" stroke-width="2.0" fill="none" stroke="rgb(0, 0, 255)" stroke-opacity="1" stroke-linecap="round" stroke-linejoin="round"/>
    <path d="M 175.23500061035156 34.2593994140625 C 176.23300170898438 32.45589828491211 169.0590057373047 30.076900482177734 174.75999450683594 33.168701171875" stroke-width="2.0" fill="none" stroke="rgb(0, 0, 255)" stroke-opacity="1" stroke-linecap="round" stroke-linejoin="round"/>
    <path d="M 177.9459991455078 18.55699920654297 C 176.8300018310547 20.004100799560547 176.53799438476562 19.056100845336914 170.21200561523438 21.497600555419922" stroke-width="2.0" fill="none" stroke="rgb(0, 0, 255)" stroke-opacity="1" stroke-linecap="round" stroke-linejoin="round"/>
    <path d="M 199.64500427246094 44.549198150634766 C 204.4010009765625 46.26259994506836 199.71099853515625 44.60309982299805 201.8470001220703 45.84939956665039" stroke-width="2.0" fill="none" stroke="rgb(0, 0, 255)" stroke-opacity="1" stroke-linecap="round" stroke-linejoin="round"/>
    <path d="M 177.84300231933594 29.262100219726562 C 179.38600158691406 22.021900177001953 180.99400329589844 20.300600051879883 178.81900024414062 27.33690071105957" stroke-width="2.0" fill="none" stroke="rgb(0, 0, 255)" stroke-opacity="1" stroke-linecap="round" stroke-linejoin="round"/>
    <path d="M 179.58599853515625 41.37770080566406 C 172.36900329589844 33.14590072631836 175.70899963378906 32.93539810180664 175.4810028076172 37.09700012207031" stroke-width="2.0" fill="none" stroke="rgb(0, 0, 255)" stroke-opacity="1" stroke-linecap="round" stroke-linejoin="round"/>
    <path d="M 204.83299255371094 62.179500579833984 C 207.64100646972656 60.2942008972168 205.08900451660156 59.04930114746094 200.30499267578125 51.31380081176758" stroke-width="2.0" fill="none" stroke="rgb(0, 0, 255)" stroke-opacity="1" stroke-linecap="round" stroke-linejoin="round"/>
    <path d="M 172.7169952392578 29.39929962158203 C 178.1439971923828 31.737600326538086 178.14199829101562 27.132600784301758 175.50900268554688 33.356201171875" stroke-width="2.0" fill="none" stroke="rgb(0, 0, 255)" stroke-opacity="1" stroke-linecap="round" stroke-linejoin="round"/>
    <path d="M 179.63499450683594 22.120800018310547 C 178.3939971923828 16.55470085144043 174.42999267578125 19.600000381469727 170.53500366210938 22.12459945678711" stroke-width="2.0" fill="none" stroke="rgb(0, 0, 255)" stroke-opacity="1" stroke-linecap="round" stroke-linejoin="round"/>
    <path d="M 181.218994140625 40.283199310302734 C 178.16700744628906 41.4556999206543 178.37899780273438 42.1953010559082 182.91900634765625 39.076900482177734" stroke-width="2.0" fill="none" stroke="rgb(0, 0, 255)" stroke-opacity="1" stroke-linecap="round" stroke-linejoin="round"/>
    <path d="M 184.22999572753906 23.364900588989258 C 186.29800415039062 20.763900756835938 192.17599487304688 16.56439971923828 185.0279998779297 19.259599685668945" stroke-width="2.0" fill="none" stroke="rgb(0, 0, 255)" stroke-opacity="1" stroke-linecap="round" stroke-linejoin="round"/>
    <path d="M 179.7449951171875 22.285200119018555 C 181.80099487304688 17.35580062866211 177.5240020751953 17.790000915527344 175.6439971923828 25.253400802612305" stroke-width="2.0" fill="none" stroke="rgb(0, 0, 255)" stroke-opacity="1" stroke-linecap="round" stroke-linejoin="round"/>
    <path d="M 177.0189971923828 38.404998779296875 C 181.27999877929688 36.0265998840332 179.7570037841797 36.5088005065918 185.85000610351562 34.77280044555664" stroke-width="2.0" fill="none" stroke="rgb(0, 0, 255)" stroke-opacity="1" stroke-linecap="round" stroke-linejoin="round"/>
    <path d="M 172.19900512695312 17.958599090576172 C 175.14500427246094 12.360699653625488 168.6929931640625 15.68690013885498 169.62899780273438 21.21179962158203" stroke-width="2.0" fill="none" stroke="rgb(0, 0, 255)" stroke-opacity="1" stroke-linecap="round" stroke-linejoin="round"/>
    <path d="M 184.4709930419922 47.299198150634766 C 185.3800048828125 49.82339859008789 185.26199340820312 51.938201904296875 185.927001953125 49.7317008972168" stroke-width="2.0" fill="none" stroke="rgb(0, 0, 255)" stroke-opacity="1" stroke-linecap="round" stroke-linejoin="round"/>
    <path d="M 170.8179931640625 18.548099517822266 C 169.5070037841797 15.4753999710083 175.02699279785156 13.895999908447266 175.7050018310547 15.878899574279785" stroke-width="2.0" fill="none" stroke="rgb(0, 0, 255)" stroke-opacity="1" stroke-linecap="round" stroke-linejoin="round"/>
    <path d="M 175.0970001220703 37.82569885253906 C 176.3699951171875 42.9364013671875 175.16000366210938 41.84560012817383 177.59100341796875 44.895198822021484" stroke-width="2.0" fill="none" stroke="rgb(0, 0, 255)" stroke-opacity="1" stroke-linecap="round" stroke-linejoin="round"/>
  </g>
</svg>
