<?xml version="1.0" ?>
<svg xmlns="http://www.w3.org/2000/svg" version="1.1" width="256" height="256">
  <defs/>
  <g>
    <path d="M 80.16960144042969 153.34800720214844 C 70.90589904785156 137.10499572753906 51.38090133666992 150.50100708007812 65.55819702148438 161.01699829101562" stroke-width="1.0" fill="none" stroke="rgb(0, 0, 255)" stroke-opacity="1" stroke-linecap="round" stroke-linejoin="round"/>
    <path d="M 106.24800109863281 163.77099609375 C 121.48400115966797 194.63400268554688 114.14800262451172 181.5399932861328 101.78500366210938 164.89599609375" stroke-width="1.0" fill="none" stroke="rgb(0, 0, 255)" stroke-opacity="1" stroke-linecap="round" stroke-linejoin="round"/>
    <path d="M 128.8979949951172 137.16799926757812 C 103.23400115966797 160.1199951171875 115.21700286865234 158.43099975585938 104.66999816894531 168.6230010986328" stroke-width="1.0" fill="none" stroke="rgb(0, 0, 255)" stroke-opacity="1" stroke-linecap="round" stroke-linejoin="round"/>
    <path d="M 156.64700317382812 135.83299255371094 C 143.23899841308594 133.125 150.3070068359375 153.47000122070312 149.7030029296875 183.99000549316406" stroke-width="1.0" fill="none" stroke="rgb(0, 255, 0)" stroke-opacity="1" stroke-linecap="round" stroke-linejoin="round"/>
    <path d="M 81.97209930419922 132.51300048828125 C 89.39649963378906 153.28199768066406 91.00420379638672 132.98199462890625 85.57820129394531 141.08799743652344" stroke-width="1.0" fill="none" stroke="rgb(0, 0, 255)" stroke-opacity="1" stroke-linecap="round" stroke-linejoin="round"/>
    <path d="M 101.3759994506836 167.26400756835938 C 97.90229797363281 175.18299865722656 99.8821029663086 178.59800720214844 97.27269744873047 165.3820037841797" stroke-width="1.0" fill="none" stroke="rgb(0, 0, 255)" stroke-opacity="1" stroke-linecap="round" stroke-linejoin="round"/>
    <path d="M 157.66600036621094 161.3209991455078 C 165.90699768066406 136.406005859375 157.3209991455078 131.1929931640625 139.1529998779297 155.2790069580078" stroke-width="1.0" fill="none" stroke="rgb(0, 255, 0)" stroke-opacity="1" stroke-linecap="round" stroke-linejoin="round"/>
    <path d="M 152.53500366210938 144.9600067138672 C 167.0019989013672 199.11199951171875 152.4810028076172 201.3040008544922 168.0 196.67799377441406" stroke-width="1.0" fill="none" stroke="rgb(0, 255, 0)" stroke-opacity="1" stroke-linecap="round" stroke-linejoin="round"/>
    <path d="M 82.268798828125 143.23300170898438 C 51.12799835205078 144.75900268554688 53.561500549316406 148.32200622558594 65.39790344238281 145.9949951171875" stroke-width="1.0" fill="none" stroke="rgb(0, 0, 255)" stroke-opacity="1" stroke-linecap="round" stroke-linejoin="round"/>
    <path d="M 65.92520141601562 145.17599487304688 C 54.74259948730469 177.28199768066406 57.17839813232422 164.4980010986328 41.48550033569336 204.76199340820312" stroke-width="1.0" fill="none" stroke="rgb(0, 0, 255)" stroke-opacity="1" stroke-linecap="round" stroke-linejoin="round"/>
    <path d="M 135.03700256347656 149.20899963378906 C 135.97000122070312 153.93099975585938 138.23399353027344 156.40199279785156 117.51899719238281 132.48199462890625" stroke-width="1.0" fill="none" stroke="rgb(0, 0, 255)" stroke-opacity="1" stroke-linecap="round" stroke-linejoin="round"/>
    <path d="M 66.54209899902344 142.3520050048828 C 53.67369842529297 159.92100524902344 69.9563980102539 175.28599548339844 84.25469970703125 151.25100708007812" stroke-width="1.0" fill="none" stroke="rgb(0, 0, 255)" stroke-opacity="1" stroke-linecap="round" stroke-linejoin="round"/>
    <path d="M 45.8827018737793 194.32000732421875 C 52.911800384521484 202.88800048828125 42.67490005493164 179.68299865722656 56.29309844970703 168.16299438476562" stroke-width="1.0" fill="none" stroke="rgb(0, 0, 255)" stroke-opacity="1" stroke-linecap="round" stroke-linejoin="round"/>
    <path d="M 87.16449737548828 139.8820037841797 C 94.92060089111328 107.66300201416016 88.49810028076172 109.9469985961914 85.52120208740234 143.6739959716797" stroke-width="1.0" fill="none" stroke="rgb(255, 0, 0)" stroke-opacity="1" stroke-linecap="round" stroke-linejoin="round"/>
    <path d="M 86.01339721679688 104.80799865722656 C 82.11799621582031 106.98300170898438 88.38289642333984 143.0019989013672 79.15160369873047 163.0780029296875" stroke-width="1.0" fill="none" stroke="rgb(255, 0, 0)" stroke-opacity="1" stroke-linecap="round" stroke-linejoin="round"/>
    <path d="M 89.69560241699219 122.51200103759766 C 79.14530181884766 95.33499908447266 79.06289672851562 118.6259994506836 83.40699768066406 111.89099884033203" stroke-width="1.0" fill="none" stroke="rgb(255, 0, 0)" stroke-opacity="1" stroke-linecap="round" stroke-linejoin="round"/>
    <path d="M 155.9530029296875 156.9080047607422 C 159.4530029296875 191.0330047607422 120.11799621582031 217.44700622558594 158.48199462890625 173.2790069580078" stroke-width="1.0" fill="none" stroke="rgb(0, 255, 0)" stroke-opacity="1" stroke-linecap="round" stroke-linejoin="round"/>
    <path d="M 158.27499389648438 144.43899536132812 C 154.27699279785156 163.51300048828125 160.9929962158203 167.17799377441406 162.1840057373047 198.36700439453125" stroke-width="1.0" fill="none" stroke="rgb(0, 255, 0)" stroke-opacity="1" stroke-linecap="round" stroke-linejoin="round"/>
    <path d="M 158.72799682617188 199.30999755859375 C 175.697998046875 198.3000030517578 163.00399780273438 197.26199340820312 160.63900756835938 194.5850067138672" stroke-width="1.0" fill="none" stroke="rgb(0, 255, 0)" stroke-opacity="1" stroke-linecap="round" stroke-linejoin="round"/>
    <path d="M 46.00600051879883 196.9340057373047 C 41.091400146484375 215.531005859375 51.01940155029297 198.781005859375 45.308998107910156 204.58900451660156" stroke-width="1.0" fill="none" stroke="rgb(0, 0, 255)" stroke-opacity="1" stroke-linecap="round" stroke-linejoin="round"/>
    <path d="M 159.0260009765625 198.53700256347656 C 166.52499389648438 163.42300415039062 151.58099365234375 158.88900756835938 158.22799682617188 192.1999969482422" stroke-width="1.0" fill="none" stroke="rgb(0, 255, 0)" stroke-opacity="1" stroke-linecap="round" stroke-linejoin="round"/>
    <path d="M 121.92500305175781 131.92999267578125 C 121.177001953125 154.58299255371094 110.89600372314453 147.79100036621094 108.59400177001953 161.31500244140625" stroke-width="1.0" fill="none" stroke="rgb(0, 0, 255)" stroke-opacity="1" stroke-linecap="round" stroke-linejoin="round"/>
    <path d="M 163.03700256347656 199.03599548339844 C 163.5449981689453 137.22799682617188 152.1739959716797 200.7830047607422 160.91799926757812 145.50399780273438" stroke-width="1.0" fill="none" stroke="rgb(0, 255, 0)" stroke-opacity="1" stroke-linecap="round" stroke-linejoin="round"/>
    <path d="M 77.5093994140625 152.7429962158203 C 83.38610076904297 114.85299682617188 81.72339630126953 120.68599700927734 94.25 140.3699951171875" stroke-width="1.0" fill="none" stroke="rgb(255, 0, 0)" stroke-opacity="1" stroke-linecap="round" stroke-linejoin="round"/>
    <path d="M 113.6709976196289 152.9340057373047 C 109.81199645996094 177.60400390625 104.47899627685547 164.64300537109375 89.17960357666016 166.74400329589844" stroke-width="1.0" fill="none" stroke="rgb(0, 0, 255)" stroke-opacity="1" stroke-linecap="round" stroke-linejoin="round"/>
    <path d="M 127.65799713134766 133.22000122070312 C 112.00900268554688 142.0030059814453 122.2490005493164 128.45399475097656 130.81500244140625 137.5449981689453" stroke-width="1.0" fill="none" stroke="rgb(0, 0, 255)" stroke-opacity="1" stroke-linecap="round" stroke-linejoin="round"/>
    <path d="M 162.822998046875 198.22000122070312 C 142.61399841308594 147.37899780273438 151.71499633789062 144.2530059814453 152.6479949951172 139.16299438476562" stroke-width="1.0" fill="none" stroke="rgb(0, 255, 0)" stroke-opacity="1" stroke-linecap="round" stroke-linejoin="round"/>
    <path d="M 72.78929901123047 143.1929931640625 C 102.01599884033203 129.781005859375 91.64299774169922 137.16200256347656 81.66670227050781 134.86500549316406" stroke-width="1.0" fill="none" stroke="rgb(255, 0, 0)" stroke-opacity="1" stroke-linecap="round" stroke-linejoin="round"/>
    <path d="M 76.9614028930664 127.21600341796875 C 76.78900146484375 147.03199768066406 103.31199645996094 142.58700561523438 82.10209655761719 133.0590057373047" stroke-width="1.0" fill="none" stroke="rgb(255, 0, 0)" stroke-opacity="1" stroke-linecap="round" stroke-linejoin="round"/>
    <path d="M 121.23500061035156 199.11900329589844 C 116.27100372314453 170.802001953125 90.42400360107422 149.7429962158203 112.93599700927734 178.23199462890625" stroke-width="1.0" fill="none" stroke="rgb(0, 0, 255)" stroke-opacity="1" stroke-linecap="round" stroke-linejoin="round"/>
    <path d="M 48.218299865722656 169.8000030517578 C 56.58610153198242 126.43900299072266 45.16640090942383 146.1739959716797 49.18040084838867 195.03399658203125" stroke-width="1.0" fill="none" stroke="rgb(0, 0, 255)" stroke-opacity="1" stroke-linecap="round" stroke-linejoin="round"/>
    <path d="M 58.57360076904297 159.56199645996094 C 68.5625 131.07899475097656 85.94629669189453 153.17599487304688 61.01089859008789 152.08999633789062" stroke-width="1.0" fill="none" stroke="rgb(0, 0, 255)" stroke-opacity="1" stroke-linecap="round" stroke-linejoin="round"/>
    <path d="M 91.88310241699219 137.28199768066406 C 86.33820343017578 111.5459976196289 75.09819793701172 95.07929992675781 86.2947006225586 110.88500213623047" stroke-width="1.0" fill="none" stroke="rgb(255, 0, 0)" stroke-opacity="1" stroke-linecap="round" stroke-linejoin="round"/>
    <path d="M 72.30549621582031 141.59100341796875 C 85.14640045166016 152.61099243164062 62.763999938964844 149.34800720214844 62.012901306152344 185.5659942626953" stroke-width="1.0" fill="none" stroke="rgb(0, 0, 255)" stroke-opacity="1" stroke-linecap="round" stroke-linejoin="round"/>
    <path d="M 59.52439880371094 162.89199829101562 C 70.80660247802734 148.8719940185547 62.710201263427734 125.79100036621094 82.40709686279297 164.4429931640625" stroke-width="1.0" fill="none" stroke="rgb(0, 0, 255)" stroke-opacity="1" stroke-linecap="round" stroke-linejoin="round"/>
    <path d="M 47.787498474121094 185.1699981689453 C 38.2047004699707 177.4550018310547 46.561500549316406 138.13099670410156 60.803001403808594 145.4199981689453" stroke-width="1.0" fill="none" stroke="rgb(0, 0, 255)" stroke-opacity="1" stroke-linecap="round" stroke-linejoin="round"/>
    <path d="M 99.70960235595703 167.04200744628906 C 99.16179656982422 185.3489990234375 88.86759948730469 200.98800659179688 98.16929626464844 202.3699951171875" stroke-width="1.0" fill="none" stroke="rgb(0, 0, 255)" stroke-opacity="1" stroke-linecap="round" stroke-linejoin="round"/>
    <path d="M 158.5260009765625 151.52999877929688 C 158.20399475097656 172.98300170898438 164.4080047607422 159.16799926757812 156.01100158691406 180.802001953125" stroke-width="1.0" fill="none" stroke="rgb(0, 255, 0)" stroke-opacity="1" stroke-linecap="round" stroke-linejoin="round"/>
    <path d="M 116.07099914550781 133.26699829101562 C 125.38700103759766 126.9260025024414 135.51300048828125 142.95799255371094 138.16700744628906 155.2469940185547" stroke-width="1.0" fill="none" stroke="rgb(0, 0, 255)" stroke-opacity="1" stroke-linecap="round" stroke-linejoin="round"/>
    <path d="M 127.16999816894531 150.66700744628906 C 141.24400329589844 162.19900512695312 154.7259979248047 134.82000732421875 141.30999755859375 153.23800659179688" stroke-width="1.0" fill="none" stroke="rgb(0, 255, 0)" stroke-opacity="1" stroke-linecap="round" stroke-linejoin="round"/>
    <path d="M 155.76300048828125 135.25599670410156 C 149.66000366210938 142.843994140625 146.76400756835938 161.61000061035156 162.76300048828125 130.96200561523438" stroke-width="1.0" fill="none" stroke="rgb(0, 255, 0)" stroke-opacity="1" stroke-linecap="round" stroke-linejoin="round"/>
    <path d="M 82.0718002319336 117.50399780273438 C 92.4937973022461 135.44000244140625 89.5031967163086 137.7899932861328 81.62020111083984 144.5679931640625" stroke-width="1.0" fill="none" stroke="rgb(255, 0, 0)" stroke-opacity="1" stroke-linecap="round" stroke-linejoin="round"/>
    <path d="M 82.29029846191406 148.3679962158203 C 57.89419937133789 157.8820037841797 73.26409912109375 154.7259979248047 46.693599700927734 181.3350067138672" stroke-width="1.0" fill="none" stroke="rgb(0, 0, 255)" stroke-opacity="1" stroke-linecap="round" stroke-linejoin="round"/>
    <path d="M 155.80799865722656 177.87100219726562 C 155.3560028076172 142.2740020751953 164.5780029296875 129.61900329589844 149.45399475097656 183.2010040283203" stroke-width="1.0" fill="none" stroke="rgb(0, 255, 0)" stroke-opacity="1" stroke-linecap="round" stroke-linejoin="round"/>
    <path d="M 159.46800231933594 125.41899871826172 C 156.61399841308594 146.9029998779297 154.5749969482422 128.70799255371094 163.62399291992188 134.88299560546875" stroke-width="1.0" fill="none" stroke="rgb(0, 255, 0)" stroke-opacity="1" stroke-linecap="round" stroke-linejoin="round"/>
    <path d="M 160.93499755859375 135.31300354003906 C 144.572998046875 126.11299896240234 174.56700134277344 118.8479995727539 156.72900390625 136.15899658203125" stroke-width="1.0" fill="none" stroke="rgb(0, 255, 0)" stroke-opacity="1" stroke-linecap="round" stroke-linejoin="round"/>
    <path d="M 68.10040283203125 152.45700073242188 C 67.10790252685547 140.0989990234375 66.65299987792969 137.552001953125 89.64099884033203 142.21099853515625" stroke-width="1.0" fill="none" stroke="rgb(0, 0, 255)" stroke-opacity="1" stroke-linecap="round" stroke-linejoin="round"/>
    <path d="M 76.48280334472656 158.86500549316406 C 99.39080047607422 136.49200439453125 64.56549835205078 134.875 49.177101135253906 150.4770050048828" stroke-width="1.0" fill="none" stroke="rgb(0, 0, 255)" stroke-opacity="1" stroke-linecap="round" stroke-linejoin="round"/>
    <path d="M 111.02999877929688 174.03500366210938 C 110.69499969482422 168.39599609375 105.36699676513672 154.98199462890625 98.31620025634766 177.3000030517578" stroke-width="1.0" fill="none" stroke="rgb(0, 0, 255)" stroke-opacity="1" stroke-linecap="round" stroke-linejoin="round"/>
    <path d="M 81.40959930419922 140.94900512695312 C 42.76240158081055 145.86000061035156 48.027099609375 136.25599670410156 47.01020050048828 182.58700561523438" stroke-width="1.0" fill="none" stroke="rgb(0, 0, 255)" stroke-opacity="1" stroke-linecap="round" stroke-linejoin="round"/>
    <path d="M 30.0 199.09500122070312 C 47.5880012512207 209.8090057373047 43.37409973144531 192.0489959716797 41.3202018737793 201.81399536132812" stroke-width="1.0" fill="none" stroke="rgb(0, 0, 255)" stroke-opacity="1" stroke-linecap="round" stroke-linejoin="round"/>
    <path d="M 130.92300415039062 124.33999633789062 C 117.0989990234375 155.01199340820312 137.2100067138672 144.19900512695312 119.34100341796875 131.03799438476562" stroke-width="1.0" fill="none" stroke="rgb(0, 0, 255)" stroke-opacity="1" stroke-linecap="round" stroke-linejoin="round"/>
    <path d="M 134.75100708007812 150.3260040283203 C 121.59500122070312 118.18699645996094 134.34100341796875 139.08999633789062 138.86199951171875 152.30499267578125" stroke-width="1.0" fill="none" stroke="rgb(0, 0, 255)" stroke-opacity="1" stroke-linecap="round" stroke-linejoin="round"/>
    <path d="M 159.21099853515625 130.41600036621094 C 160.68299865722656 124.28199768066406 153.89500427246094 113.625 151.4929962158203 177.45199584960938" stroke-width="1.0" fill="none" stroke="rgb(0, 255, 0)" stroke-opacity="1" stroke-linecap="round" stroke-linejoin="round"/>
    <path d="M 157.1790008544922 153.84500122070312 C 159.33900451660156 168.61500549316406 150.57899475097656 154.3990020751953 160.0449981689453 133.6219940185547" stroke-width="1.0" fill="none" stroke="rgb(0, 255, 0)" stroke-opacity="1" stroke-linecap="round" stroke-linejoin="round"/>
    <path d="M 154.89500427246094 177.4530029296875 C 150.76699829101562 118.55699920654297 167.18800354003906 126.08200073242188 153.00999450683594 163.14999389648438" stroke-width="1.0" fill="none" stroke="rgb(0, 255, 0)" stroke-opacity="1" stroke-linecap="round" stroke-linejoin="round"/>
    <path d="M 71.34400177001953 163.5760040283203 C 51.00870132446289 150.54100036621094 57.93550109863281 143.65199279785156 78.20999908447266 162.1719970703125" stroke-width="1.0" fill="none" stroke="rgb(0, 0, 255)" stroke-opacity="1" stroke-linecap="round" stroke-linejoin="round"/>
    <path d="M 132.23699951171875 153.33200073242188 C 109.81199645996094 145.25999450683594 120.51599884033203 137.47500610351562 139.7729949951172 150.03399658203125" stroke-width="1.0" fill="none" stroke="rgb(0, 0, 255)" stroke-opacity="1" stroke-linecap="round" stroke-linejoin="round"/>
    <path d="M 90.5813980102539 140.33599853515625 C 153.88600158691406 116.8239974975586 135.9720001220703 133.93499755859375 86.1063003540039 135.54200744628906" stroke-width="1.0" fill="none" stroke="rgb(0, 0, 255)" stroke-opacity="1" stroke-linecap="round" stroke-linejoin="round"/>
    <path d="M 87.40589904785156 133.65199279785156 C 71.01629638671875 154.16900634765625 91.19969940185547 134.5189971923828 81.00340270996094 108.4800033569336" stroke-width="1.0" fill="none" stroke="rgb(255, 0, 0)" stroke-opacity="1" stroke-linecap="round" stroke-linejoin="round"/>
    <path d="M 81.2040023803711 156.60499572753906 C 52.506500244140625 151.9340057373047 65.01920318603516 139.83900451660156 79.52539825439453 166.03500366210938" stroke-width="1.0" fill="none" stroke="rgb(0, 0, 255)" stroke-opacity="1" stroke-linecap="round" stroke-linejoin="round"/>
    <path d="M 139.35400390625 155.3699951171875 C 113.23600006103516 119.9209976196289 132.59300231933594 118.4229965209961 132.9739990234375 144.05499267578125" stroke-width="1.0" fill="none" stroke="rgb(0, 0, 255)" stroke-opacity="1" stroke-linecap="round" stroke-linejoin="round"/>
    <path d="M 147.4149932861328 145.9040069580078 C 168.6009979248047 131.96099853515625 163.85400390625 105.5270004272461 150.17100524902344 147.1540069580078" stroke-width="1.0" fill="none" stroke="rgb(0, 255, 0)" stroke-opacity="1" stroke-linecap="round" stroke-linejoin="round"/>
    <path d="M 135.2239990234375 151.7729949951172 C 120.0979995727539 143.89500427246094 120.25399780273438 134.68800354003906 125.80899810791016 133.13099670410156" stroke-width="1.0" fill="none" stroke="rgb(0, 0, 255)" stroke-opacity="1" stroke-linecap="round" stroke-linejoin="round"/>
    <path d="M 66.96489715576172 162.8000030517578 C 52.74959945678711 196.14700317382812 71.44339752197266 184.6840057373047 58.36940002441406 154.1020050048828" stroke-width="1.0" fill="none" stroke="rgb(0, 0, 255)" stroke-opacity="1" stroke-linecap="round" stroke-linejoin="round"/>
    <path d="M 156.95700073242188 135.83399963378906 C 155.42100524902344 124.88600158691406 147.72300720214844 144.48399353027344 148.4340057373047 146.5449981689453" stroke-width="1.0" fill="none" stroke="rgb(0, 255, 0)" stroke-opacity="1" stroke-linecap="round" stroke-linejoin="round"/>
    <path d="M 157.65499877929688 164.62100219726562 C 140.8780059814453 201.3419952392578 137.42999267578125 188.0030059814453 143.95199584960938 200.3419952392578" stroke-width="1.0" fill="none" stroke="rgb(0, 255, 0)" stroke-opacity="1" stroke-linecap="round" stroke-linejoin="round"/>
    <path d="M 85.93309783935547 136.41299438476562 C 86.03520202636719 96.48030090332031 73.73799896240234 123.96099853515625 82.43280029296875 138.9600067138672" stroke-width="1.0" fill="none" stroke="rgb(255, 0, 0)" stroke-opacity="1" stroke-linecap="round" stroke-linejoin="round"/>
    <path d="M 105.33300018310547 133.72999572753906 C 77.84290313720703 141.23199462890625 83.87110137939453 145.69500732421875 58.23569869995117 146.02200317382812" stroke-width="1.0" fill="none" stroke="rgb(0, 0, 255)" stroke-opacity="1" stroke-linecap="round" stroke-linejoin="round"/>
    <path d="M 67.0448989868164 140.81500244140625 C 77.5115966796875 169.80599975585938 56.96390151977539 183.01600646972656 57.496700286865234 145.93600463867188" stroke-width="1.0" fill="none" stroke="rgb(0, 0, 255)" stroke-opacity="1" stroke-linecap="round" stroke-linejoin="round"/>
    <path d="M 79.52790069580078 147.01100158691406 C 66.12560272216797 170.87600708007812 68.4906997680664 149.07699584960938 62.84199905395508 185.07200622558594" stroke-width="1.0" fill="none" stroke="rgb(0, 0, 255)" stroke-opacity="1" stroke-linecap="round" stroke-linejoin="round"/>
    <path d="M 79.88310241699219 113.7239990234375 C 89.93190002441406 93.78399658203125 77.58370208740234 116.03900146484375 86.06739807128906 145.55499267578125" stroke-width="1.0" fill="none" stroke="rgb(255, 0, 0)" stroke-opacity="1" stroke-linecap="round" stroke-linejoin="round"/>
    <path d="M 128.7050018310547 139.50399780273438 C 111.51000213623047 136.4669952392578 126.35700225830078 135.76499938964844 126.37200164794922 128.93099975585938" stroke-width="1.0" fill="none" stroke="rgb(0, 0, 255)" stroke-opacity="1" stroke-linecap="round" stroke-linejoin="round"/>
    <path d="M 77.83920288085938 145.2899932861328 C 79.23310089111328 106.197998046875 89.37020111083984 111.19300079345703 89.04129791259766 144.57699584960938" stroke-width="1.0" fill="none" stroke="rgb(255, 0, 0)" stroke-opacity="1" stroke-linecap="round" stroke-linejoin="round"/>
    <path d="M 60.911800384521484 169.23699951171875 C 80.25029754638672 127.6709976196289 87.86720275878906 163.98699951171875 61.236698150634766 162.2570037841797" stroke-width="1.0" fill="none" stroke="rgb(0, 0, 255)" stroke-opacity="1" stroke-linecap="round" stroke-linejoin="round"/>
    <path d="M 124.71900177001953 148.25799560546875 C 133.88299560546875 134.5290069580078 116.74800109863281 135.8470001220703 138.01499938964844 151.27999877929688" stroke-width="1.0" fill="none" stroke="rgb(0, 0, 255)" stroke-opacity="1" stroke-linecap="round" stroke-linejoin="round"/>
    <path d="M 60.466800689697266 152.08099365234375 C 96.8324966430664 132.94000244140625 109.45700073242188 134.64599609375 58.482200622558594 152.02099609375" stroke-width="1.0" fill="none" stroke="rgb(0, 0, 255)" stroke-opacity="1" stroke-linecap="round" stroke-linejoin="round"/>
    <path d="M 84.9989013671875 127.7030029296875 C 110.94400024414062 136.23800659179688 95.47219848632812 137.406005859375 75.96710205078125 149.35499572753906" stroke-width="1.0" fill="none" stroke="rgb(0, 0, 255)" stroke-opacity="1" stroke-linecap="round" stroke-linejoin="round"/>
    <path d="M 83.90730285644531 145.85499572753906 C 77.2427978515625 133.81100463867188 86.34880065917969 103.5250015258789 82.90540313720703 108.14199829101562" stroke-width="1.0" fill="none" stroke="rgb(255, 0, 0)" stroke-opacity="1" stroke-linecap="round" stroke-linejoin="round"/>
    <path d="M 153.75999450683594 137.0850067138672 C 143.31300354003906 172.15899658203125 146.9149932861328 168.16200256347656 158.3280029296875 182.89199829101562" stroke-width="1.0" fill="none" stroke="rgb(0, 255, 0)" stroke-opacity="1" stroke-linecap="round" stroke-linejoin="round"/>
    <path d="M 56.85060119628906 154.0919952392578 C 65.50869750976562 138.66700744628906 77.35810089111328 136.58700561523438 63.13199996948242 188.02200317382812" stroke-width="1.0" fill="none" stroke="rgb(0, 0, 255)" stroke-opacity="1" stroke-linecap="round" stroke-linejoin="round"/>
    <path d="M 125.11299896240234 129.3990020751953 C 112.40899658203125 134.10699462890625 117.71299743652344 132.4770050048828 120.00700378417969 132.68299865722656" stroke-width="1.0" fill="none" stroke="rgb(0, 0, 255)" stroke-opacity="1" stroke-linecap="round" stroke-linejoin="round"/>
    <path d="M 61.64580154418945 185.3000030517578 C 70.50090026855469 136.00399780273438 53.81489944458008 139.8780059814453 70.8187026977539 149.33799743652344" stroke-width="1.0" fill="none" stroke="rgb(0, 0, 255)" stroke-opacity="1" stroke-linecap="round" stroke-linejoin="round"/>
    <path d="M 81.6698989868164 165.12899780273438 C 88.63420104980469 112.05599975585938 77.61039733886719 123.99099731445312 96.26899719238281 134.68699645996094" stroke-width="1.0" fill="none" stroke="rgb(255, 0, 0)" stroke-opacity="1" stroke-linecap="round" stroke-linejoin="round"/>
    <path d="M 81.62930297851562 165.10299682617188 C 58.86320114135742 156.156005859375 49.696800231933594 136.97300720214844 75.0156021118164 141.76499938964844" stroke-width="1.0" fill="none" stroke="rgb(0, 0, 255)" stroke-opacity="1" stroke-linecap="round" stroke-linejoin="round"/>
    <path d="M 111.05699920654297 174.3820037841797 C 126.31800079345703 212.58799743652344 128.59500122070312 203.7100067138672 118.25199890136719 189.70700073242188" stroke-width="1.0" fill="none" stroke="rgb(0, 0, 255)" stroke-opacity="1" stroke-linecap="round" stroke-linejoin="round"/>
    <path d="M 61.95930099487305 147.9600067138672 C 90.83100128173828 140.07699584960938 80.44090270996094 130.8520050048828 79.96649932861328 162.4219970703125" stroke-width="1.0" fill="none" stroke="rgb(0, 0, 255)" stroke-opacity="1" stroke-linecap="round" stroke-linejoin="round"/>
    <path d="M 64.82689666748047 144.2740020751953 C 70.71530151367188 181.2949981689453 75.1353988647461 155.822998046875 60.43000030517578 151.8159942626953" stroke-width="1.0" fill="none" stroke="rgb(0, 0, 255)" stroke-opacity="1" stroke-linecap="round" stroke-linejoin="round"/>
    <path d="M 89.95429992675781 139.0970001220703 C 73.74210357666016 139.88699340820312 85.53780364990234 116.62699890136719 81.40450286865234 139.3820037841797" stroke-width="1.0" fill="none" stroke="rgb(255, 0, 0)" stroke-opacity="1" stroke-linecap="round" stroke-linejoin="round"/>
    <path d="M 156.9499969482422 165.0590057373047 C 168.3419952392578 180.9530029296875 153.50100708007812 168.51699829101562 159.8780059814453 142.66799926757812" stroke-width="1.0" fill="none" stroke="rgb(0, 255, 0)" stroke-opacity="1" stroke-linecap="round" stroke-linejoin="round"/>
    <path d="M 72.24079895019531 140.46299743652344 C 96.11730194091797 139.28700256347656 85.51909637451172 131.73199462890625 83.19779968261719 140.33299255371094" stroke-width="1.0" fill="none" stroke="rgb(255, 0, 0)" stroke-opacity="1" stroke-linecap="round" stroke-linejoin="round"/>
    <path d="M 126.0739974975586 128.9340057373047 C 128.75 126.54299926757812 137.2779998779297 154.0959930419922 126.06300354003906 129.8350067138672" stroke-width="1.0" fill="none" stroke="rgb(0, 0, 255)" stroke-opacity="1" stroke-linecap="round" stroke-linejoin="round"/>
    <path d="M 60.08760070800781 143.45199584960938 C 52.77439880371094 172.781005859375 72.48400115966797 153.322998046875 48.47639846801758 183.177001953125" stroke-width="1.0" fill="none" stroke="rgb(0, 0, 255)" stroke-opacity="1" stroke-linecap="round" stroke-linejoin="round"/>
    <path d="M 81.7291030883789 111.23600006103516 C 79.4728012084961 114.34400177001953 78.22830200195312 95.20719909667969 87.48179626464844 109.14700317382812" stroke-width="1.0" fill="none" stroke="rgb(255, 0, 0)" stroke-opacity="1" stroke-linecap="round" stroke-linejoin="round"/>
    <path d="M 68.42379760742188 202.86900329589844 C 59.75790023803711 180.55999755859375 58.24359893798828 174.22900390625 67.82579803466797 201.54800415039062" stroke-width="1.0" fill="none" stroke="rgb(0, 0, 255)" stroke-opacity="1" stroke-linecap="round" stroke-linejoin="round"/>
    <path d="M 82.77490234375 116.06600189208984 C 83.91590118408203 149.92100524902344 69.61689758300781 128.71800231933594 85.19080352783203 115.16799926757812" stroke-width="1.0" fill="none" stroke="rgb(255, 0, 0)" stroke-opacity="1" stroke-linecap="round" stroke-linejoin="round"/>
    <path d="M 47.45589828491211 184.19400024414062 C 69.2605972290039 158.71400451660156 45.75590133666992 145.85899353027344 61.98080062866211 142.24099731445312" stroke-width="1.0" fill="none" stroke="rgb(0, 0, 255)" stroke-opacity="1" stroke-linecap="round" stroke-linejoin="round"/>
    <path d="M 71.75679779052734 142.13999938964844 C 50.76530075073242 148.5590057373047 67.55870056152344 131.04299926757812 80.48760223388672 144.4250030517578" stroke-width="1.0" fill="none" stroke="rgb(0, 0, 255)" stroke-opacity="1" stroke-linecap="round" stroke-linejoin="round"/>
    <path d="M 53.46540069580078 144.49899291992188 C 46.448699951171875 187.61000061035156 40.839298248291016 175.48899841308594 50.68949890136719 146.6179962158203" stroke-width="1.0" fill="none" stroke="rgb(0, 0, 255)" stroke-opacity="1" stroke-linecap="round" stroke-linejoin="round"/>
    <path d="M 79.32270050048828 140.60299682617188 C 100.91600036621094 137.7239990234375 99.57520294189453 134.00399780273438 82.64230346679688 138.39599609375" stroke-width="1.0" fill="none" stroke="rgb(0, 0, 255)" stroke-opacity="1" stroke-linecap="round" stroke-linejoin="round"/>
    <path d="M 93.2166976928711 129.17799377441406 C 82.61219787597656 137.52699279785156 79.50849914550781 143.43800354003906 91.86840057373047 137.17599487304688" stroke-width="1.0" fill="none" stroke="rgb(255, 0, 0)" stroke-opacity="1" stroke-linecap="round" stroke-linejoin="round"/>
    <path d="M 47.94020080566406 183.43099975585938 C 63.336700439453125 151.43299865722656 72.7416000366211 148.6179962158203 58.07680130004883 152.27999877929688" stroke-width="1.0" fill="none" stroke="rgb(0, 0, 255)" stroke-opacity="1" stroke-linecap="round" stroke-linejoin="round"/>
    <path d="M 149.468994140625 182.406005859375 C 165.08399963378906 123.88500213623047 157.66000366210938 121.15699768066406 145.906005859375 188.7729949951172" stroke-width="1.0" fill="none" stroke="rgb(0, 255, 0)" stroke-opacity="1" stroke-linecap="round" stroke-linejoin="round"/>
    <path d="M 124.87799835205078 139.9969940185547 C 150.5970001220703 164.66299438476562 143.5229949951172 156.61099243164062 119.58499908447266 132.91400146484375" stroke-width="1.0" fill="none" stroke="rgb(0, 0, 255)" stroke-opacity="1" stroke-linecap="round" stroke-linejoin="round"/>
    <path d="M 160.64999389648438 183.0850067138672 C 142.73599243164062 174.28900146484375 146.947998046875 142.13299560546875 157.6540069580078 130.7689971923828" stroke-width="1.0" fill="none" stroke="rgb(0, 255, 0)" stroke-opacity="1" stroke-linecap="round" stroke-linejoin="round"/>
    <path d="M 62.78239822387695 156.01400756835938 C 58.47589874267578 215.99400329589844 85.15579986572266 203.20599365234375 68.49800109863281 201.73199462890625" stroke-width="1.0" fill="none" stroke="rgb(0, 0, 255)" stroke-opacity="1" stroke-linecap="round" stroke-linejoin="round"/>
    <path d="M 93.70870208740234 164.75 C 75.76210021972656 172.39599609375 77.76589965820312 156.64300537109375 59.39789962768555 161.4929962158203" stroke-width="1.0" fill="none" stroke="rgb(0, 0, 255)" stroke-opacity="1" stroke-linecap="round" stroke-linejoin="round"/>
    <path d="M 80.29440307617188 144.98300170898438 C 45.10609817504883 135.39599609375 77.85929870605469 152.79299926757812 64.79190063476562 144.25399780273438" stroke-width="1.0" fill="none" stroke="rgb(0, 0, 255)" stroke-opacity="1" stroke-linecap="round" stroke-linejoin="round"/>
    <path d="M 116.84100341796875 186.4669952392578 C 120.81400299072266 193.625 116.93199920654297 188.35499572753906 112.63500213623047 179.19400024414062" stroke-width="1.0" fill="none" stroke="rgb(0, 0, 255)" stroke-opacity="1" stroke-linecap="round" stroke-linejoin="round"/>
    <path d="M 57.16790008544922 144.65899658203125 C 87.22859954833984 142.23500061035156 86.8949966430664 139.0189971923828 79.77519989013672 130.7449951171875" stroke-width="1.0" fill="none" stroke="rgb(255, 0, 0)" stroke-opacity="1" stroke-linecap="round" stroke-linejoin="round"/>
    <path d="M 80.54930114746094 157.53700256347656 C 59.064701080322266 143.82000732421875 52.102901458740234 132.88900756835938 58.082801818847656 170.2830047607422" stroke-width="1.0" fill="none" stroke="rgb(0, 0, 255)" stroke-opacity="1" stroke-linecap="round" stroke-linejoin="round"/>
    <path d="M 32.76890182495117 199.90199279785156 C 49.416500091552734 202.46600341796875 48.842201232910156 220.16400146484375 44.817901611328125 167.26300048828125" stroke-width="1.0" fill="none" stroke="rgb(0, 0, 255)" stroke-opacity="1" stroke-linecap="round" stroke-linejoin="round"/>
    <path d="M 157.9320068359375 198.6840057373047 C 161.84800720214844 160.8679962158203 142.88999938964844 150.86099243164062 155.3939971923828 166.34800720214844" stroke-width="1.0" fill="none" stroke="rgb(0, 255, 0)" stroke-opacity="1" stroke-linecap="round" stroke-linejoin="round"/>
  </g>
</svg>
