<?xml version="1.0" ?>
<svg xmlns="http://www.w3.org/2000/svg" version="1.1" width="256" height="256">
  <defs/>
  <g>
    <path d="M 134.58299255371094 133.61900329589844 C 130.33299255371094 134.5850067138672 146.42999267578125 138.28500366210938 136.0749969482422 131.63099670410156" stroke-width="2.0" fill="none" stroke="rgb(255, 0, 0)" stroke-opacity="1" stroke-linecap="round" stroke-linejoin="round"/>
    <path d="M 114.5790023803711 159.09500122070312 C 87.48269653320312 156.093994140625 116.5510025024414 158.37399291992188 95.67880249023438 157.94200134277344" stroke-width="2.0" fill="none" stroke="rgb(0, 0, 255)" stroke-opacity="1" stroke-linecap="round" stroke-linejoin="round"/>
    <path d="M 173.48500061035156 147.01400756835938 C 138.67999267578125 144.2239990234375 145.0399932861328 139.50799560546875 174.4739990234375 152.74600219726562" stroke-width="2.0" fill="none" stroke="rgb(255, 0, 0)" stroke-opacity="1" stroke-linecap="round" stroke-linejoin="round"/>
    <path d="M 111.40499877929688 95.0248031616211 C 102.53199768066406 140.4709930419922 98.0542984008789 119.45600128173828 102.00800323486328 135.3159942626953" stroke-width="2.0" fill="none" stroke="rgb(0, 255, 0)" stroke-opacity="1" stroke-linecap="round" stroke-linejoin="round"/>
    <path d="M 109.08599853515625 107.64600372314453 C 135.93099975585938 102.6989974975586 138.5229949951172 98.82009887695312 111.46900177001953 106.1760025024414" stroke-width="2.0" fill="none" stroke="rgb(255, 255, 0)" stroke-opacity="1" stroke-linecap="round" stroke-linejoin="round"/>
    <path d="M 156.3939971923828 150.23300170898438 C 165.59500122070312 159.8249969482422 152.17100524902344 147.92999267578125 105.00499725341797 150.91099548339844" stroke-width="2.0" fill="none" stroke="rgb(0, 0, 255)" stroke-opacity="1" stroke-linecap="round" stroke-linejoin="round"/>
    <path d="M 151.53599548339844 114.69300079345703 C 159.69700622558594 98.27739715576172 180.39500427246094 118.99299621582031 156.25900268554688 107.33300018310547" stroke-width="2.0" fill="none" stroke="rgb(255, 0, 0)" stroke-opacity="1" stroke-linecap="round" stroke-linejoin="round"/>
    <path d="M 100.83000183105469 175.48500061035156 C 157.0449981689453 172.92599487304688 115.99199676513672 184.92100524902344 123.68000030517578 181.04200744628906" stroke-width="2.0" fill="none" stroke="rgb(0, 0, 255)" stroke-opacity="1" stroke-linecap="round" stroke-linejoin="round"/>
    <path d="M 113.26200103759766 200.38699340820312 C 109.51399993896484 207.38499450683594 116.97100067138672 205.86300659179688 121.072998046875 199.56100463867188" stroke-width="2.0" fill="none" stroke="rgb(0, 0, 255)" stroke-opacity="1" stroke-linecap="round" stroke-linejoin="round"/>
    <path d="M 144.10400390625 107.93800354003906 C 151.25599670410156 106.13400268554688 128.29200744628906 100.93800354003906 116.64800262451172 97.7166976928711" stroke-width="2.0" fill="none" stroke="rgb(255, 255, 0)" stroke-opacity="1" stroke-linecap="round" stroke-linejoin="round"/>
    <path d="M 60.548301696777344 171.3209991455078 C 78.42970275878906 169.4429931640625 71.73590087890625 169.843994140625 84.48739624023438 169.21099853515625" stroke-width="2.0" fill="none" stroke="rgb(0, 0, 255)" stroke-opacity="1" stroke-linecap="round" stroke-linejoin="round"/>
    <path d="M 148.46099853515625 127.58699798583984 C 144.42100524902344 101.8030014038086 184.30999755859375 92.20089721679688 168.2519989013672 109.36900329589844" stroke-width="2.0" fill="none" stroke="rgb(255, 0, 0)" stroke-opacity="1" stroke-linecap="round" stroke-linejoin="round"/>
    <path d="M 160.59800720214844 112.30999755859375 C 153.9980010986328 122.56500244140625 159.71499633789062 123.97100067138672 159.1929931640625 134.04800415039062" stroke-width="2.0" fill="none" stroke="rgb(255, 0, 0)" stroke-opacity="1" stroke-linecap="round" stroke-linejoin="round"/>
    <path d="M 180.3300018310547 195.89100646972656 C 183.01699829101562 193.656005859375 183.22799682617188 202.1490020751953 190.11300659179688 203.43499755859375" stroke-width="2.0" fill="none" stroke="rgb(0, 0, 255)" stroke-opacity="1" stroke-linecap="round" stroke-linejoin="round"/>
    <path d="M 123.24299621582031 74.63619995117188 C 130.67799377441406 69.66699981689453 128.6320037841797 63.204898834228516 128.69700622558594 69.3373031616211" stroke-width="2.0" fill="none" stroke="rgb(0, 255, 0)" stroke-opacity="1" stroke-linecap="round" stroke-linejoin="round"/>
    <path d="M 104.79000091552734 76.38770294189453 C 115.4540023803711 64.57460021972656 112.66699981689453 73.3550033569336 109.03800201416016 64.02729797363281" stroke-width="2.0" fill="none" stroke="rgb(0, 255, 0)" stroke-opacity="1" stroke-linecap="round" stroke-linejoin="round"/>
    <path d="M 105.91899871826172 56.52410125732422 C 120.08399963378906 64.73380279541016 122.4209976196289 60.088600158691406 128.31100463867188 67.67310333251953" stroke-width="2.0" fill="none" stroke="rgb(0, 255, 0)" stroke-opacity="1" stroke-linecap="round" stroke-linejoin="round"/>
    <path d="M 47.38669967651367 172.79100036621094 C 68.51020050048828 155.6959991455078 78.41729736328125 158.30099487304688 57.457698822021484 167.7830047607422" stroke-width="2.0" fill="none" stroke="rgb(0, 0, 255)" stroke-opacity="1" stroke-linecap="round" stroke-linejoin="round"/>
    <path d="M 187.5800018310547 162.65499877929688 C 184.49099731445312 157.91700744628906 193.47900390625 172.79600524902344 174.80999755859375 165.08999633789062" stroke-width="2.0" fill="none" stroke="rgb(0, 0, 255)" stroke-opacity="1" stroke-linecap="round" stroke-linejoin="round"/>
    <path d="M 77.36640167236328 168.11399841308594 C 113.84200286865234 166.33399963378906 99.14710235595703 164.97500610351562 93.55940246582031 177.17799377441406" stroke-width="2.0" fill="none" stroke="rgb(0, 0, 255)" stroke-opacity="1" stroke-linecap="round" stroke-linejoin="round"/>
    <path d="M 112.23300170898438 197.18299865722656 C 117.87300109863281 196.1820068359375 109.21600341796875 199.03700256347656 95.89350128173828 198.34500122070312" stroke-width="2.0" fill="none" stroke="rgb(0, 0, 255)" stroke-opacity="1" stroke-linecap="round" stroke-linejoin="round"/>
    <path d="M 117.9800033569336 174.16400146484375 C 132.30499267578125 182.62100219726562 154.30499267578125 177.33200073242188 133.58200073242188 170.91700744628906" stroke-width="2.0" fill="none" stroke="rgb(0, 0, 255)" stroke-opacity="1" stroke-linecap="round" stroke-linejoin="round"/>
    <path d="M 96.1417007446289 118.50599670410156 C 97.38890075683594 111.7969970703125 97.62960052490234 113.24099731445312 95.23300170898438 123.73999786376953" stroke-width="2.0" fill="none" stroke="rgb(0, 255, 0)" stroke-opacity="1" stroke-linecap="round" stroke-linejoin="round"/>
    <path d="M 90.6771011352539 155.6649932861328 C 57.5255012512207 164.55999755859375 67.72149658203125 161.29400634765625 62.35150146484375 165.49099731445312" stroke-width="2.0" fill="none" stroke="rgb(0, 0, 255)" stroke-opacity="1" stroke-linecap="round" stroke-linejoin="round"/>
    <path d="M 108.60399627685547 69.0615005493164 C 114.19400024414062 77.93190002441406 106.08000183105469 71.54280090332031 126.26599884033203 69.19000244140625" stroke-width="2.0" fill="none" stroke="rgb(0, 255, 0)" stroke-opacity="1" stroke-linecap="round" stroke-linejoin="round"/>
    <path d="M 174.00799560546875 151.31199645996094 C 155.8090057373047 149.9510040283203 158.34300231933594 152.19500732421875 162.04600524902344 153.8209991455078" stroke-width="2.0" fill="none" stroke="rgb(255, 0, 0)" stroke-opacity="1" stroke-linecap="round" stroke-linejoin="round"/>
    <path d="M 102.97799682617188 84.46910095214844 C 94.80130004882812 80.5968017578125 105.64800262451172 80.73680114746094 108.87999725341797 89.25789642333984" stroke-width="2.0" fill="none" stroke="rgb(0, 255, 0)" stroke-opacity="1" stroke-linecap="round" stroke-linejoin="round"/>
    <path d="M 149.0229949951172 179.5489959716797 C 133.11399841308594 163.1580047607422 192.4149932861328 176.91299438476562 154.2729949951172 170.14999389648438" stroke-width="2.0" fill="none" stroke="rgb(0, 0, 255)" stroke-opacity="1" stroke-linecap="round" stroke-linejoin="round"/>
    <path d="M 93.427001953125 114.4020004272461 C 94.197998046875 114.9520034790039 90.42539978027344 109.74199676513672 104.54299926757812 116.8239974975586" stroke-width="2.0" fill="none" stroke="rgb(0, 255, 0)" stroke-opacity="1" stroke-linecap="round" stroke-linejoin="round"/>
    <path d="M 170.5570068359375 80.71050262451172 C 160.7760009765625 113.88999938964844 171.4530029296875 110.44200134277344 167.07400512695312 107.06600189208984" stroke-width="2.0" fill="none" stroke="rgb(255, 0, 0)" stroke-opacity="1" stroke-linecap="round" stroke-linejoin="round"/>
    <path d="M 174.9409942626953 89.23560333251953 C 178.3470001220703 103.52300262451172 167.00599670410156 99.65129852294922 158.6959991455078 94.3541030883789" stroke-width="2.0" fill="none" stroke="rgb(255, 0, 0)" stroke-opacity="1" stroke-linecap="round" stroke-linejoin="round"/>
    <path d="M 89.5510025024414 157.31700134277344 C 48.091800689697266 163.86000061035156 49.735801696777344 163.2899932861328 97.32029724121094 167.65699768066406" stroke-width="2.0" fill="none" stroke="rgb(0, 0, 255)" stroke-opacity="1" stroke-linecap="round" stroke-linejoin="round"/>
    <path d="M 93.62629699707031 120.5260009765625 C 92.36100006103516 110.98100280761719 93.4176025390625 113.83599853515625 97.6260986328125 116.3280029296875" stroke-width="2.0" fill="none" stroke="rgb(0, 255, 0)" stroke-opacity="1" stroke-linecap="round" stroke-linejoin="round"/>
    <path d="M 167.33200073242188 107.80599975585938 C 180.33099365234375 141.96499633789062 173.98800659179688 120.21399688720703 177.03199768066406 129.66700744628906" stroke-width="2.0" fill="none" stroke="rgb(255, 0, 0)" stroke-opacity="1" stroke-linecap="round" stroke-linejoin="round"/>
    <path d="M 117.2229995727539 59.60419845581055 C 133.34300231933594 61.41619873046875 135.2429962158203 67.23970031738281 109.43299865722656 63.445701599121094" stroke-width="2.0" fill="none" stroke="rgb(0, 255, 0)" stroke-opacity="1" stroke-linecap="round" stroke-linejoin="round"/>
    <path d="M 123.197998046875 169.25999450683594 C 110.09400177001953 158.76499938964844 139.1490020751953 149.1009979248047 151.3489990234375 163.61399841308594" stroke-width="2.0" fill="none" stroke="rgb(0, 0, 255)" stroke-opacity="1" stroke-linecap="round" stroke-linejoin="round"/>
    <path d="M 169.86199951171875 152.1219940185547 C 143.36399841308594 145.33599853515625 163.96499633789062 146.05099487304688 170.5749969482422 152.02499389648438" stroke-width="2.0" fill="none" stroke="rgb(255, 0, 0)" stroke-opacity="1" stroke-linecap="round" stroke-linejoin="round"/>
    <path d="M 121.03199768066406 160.26199340820312 C 109.6449966430664 167.6219940185547 137.13299560546875 163.093994140625 111.94999694824219 171.9080047607422" stroke-width="2.0" fill="none" stroke="rgb(0, 0, 255)" stroke-opacity="1" stroke-linecap="round" stroke-linejoin="round"/>
    <path d="M 115.18099975585938 186.36399841308594 C 127.97699737548828 177.9949951171875 153.41600036621094 176.48599243164062 131.6719970703125 177.93099975585938" stroke-width="2.0" fill="none" stroke="rgb(0, 0, 255)" stroke-opacity="1" stroke-linecap="round" stroke-linejoin="round"/>
    <path d="M 66.39019775390625 164.7949981689453 C 91.13240051269531 158.35499572753906 105.53500366210938 173.54200744628906 79.8948974609375 165.82699584960938" stroke-width="2.0" fill="none" stroke="rgb(0, 0, 255)" stroke-opacity="1" stroke-linecap="round" stroke-linejoin="round"/>
    <path d="M 176.97000122070312 86.9896011352539 C 168.2519989013672 100.11799621582031 167.62899780273438 113.46600341796875 170.66900634765625 110.38899993896484" stroke-width="2.0" fill="none" stroke="rgb(255, 0, 0)" stroke-opacity="1" stroke-linecap="round" stroke-linejoin="round"/>
    <path d="M 147.8730010986328 166.16299438476562 C 119.42500305175781 175.00799560546875 100.74099731445312 154.552001953125 133.05599975585938 170.19700622558594" stroke-width="2.0" fill="none" stroke="rgb(0, 0, 255)" stroke-opacity="1" stroke-linecap="round" stroke-linejoin="round"/>
    <path d="M 105.6520004272461 66.80480194091797 C 112.16899871826172 59.2322998046875 128.78900146484375 76.34870147705078 103.85299682617188 68.29640197753906" stroke-width="2.0" fill="none" stroke="rgb(0, 255, 0)" stroke-opacity="1" stroke-linecap="round" stroke-linejoin="round"/>
    <path d="M 131.4429931640625 154.6009979248047 C 108.0009994506836 161.23800659179688 130.59300231933594 155.05999755859375 132.6199951171875 157.71800231933594" stroke-width="2.0" fill="none" stroke="rgb(0, 0, 255)" stroke-opacity="1" stroke-linecap="round" stroke-linejoin="round"/>
    <path d="M 173.0070037841797 154.16700744628906 C 138.9029998779297 152.6929931640625 148.5070037841797 154.6179962158203 151.46099853515625 143.82400512695312" stroke-width="2.0" fill="none" stroke="rgb(255, 0, 0)" stroke-opacity="1" stroke-linecap="round" stroke-linejoin="round"/>
    <path d="M 167.0919952392578 81.36109924316406 C 155.53700256347656 83.67279815673828 157.42599487304688 76.45600128173828 165.97900390625 84.19860076904297" stroke-width="2.0" fill="none" stroke="rgb(255, 0, 0)" stroke-opacity="1" stroke-linecap="round" stroke-linejoin="round"/>
    <path d="M 160.43699645996094 93.26950073242188 C 167.1020050048828 82.85910034179688 148.6649932861328 81.23989868164062 148.0919952392578 91.07330322265625" stroke-width="2.0" fill="none" stroke="rgb(255, 0, 0)" stroke-opacity="1" stroke-linecap="round" stroke-linejoin="round"/>
    <path d="M 111.2509994506836 94.37129974365234 C 111.79399871826172 78.00029754638672 105.01599884033203 93.35890197753906 105.71199798583984 86.4126968383789" stroke-width="2.0" fill="none" stroke="rgb(0, 255, 0)" stroke-opacity="1" stroke-linecap="round" stroke-linejoin="round"/>
    <path d="M 122.09400177001953 99.12220001220703 C 123.7490005493164 106.75900268554688 128.66400146484375 89.68509674072266 117.01200103759766 104.77899932861328" stroke-width="2.0" fill="none" stroke="rgb(255, 255, 0)" stroke-opacity="1" stroke-linecap="round" stroke-linejoin="round"/>
    <path d="M 142.54400634765625 130.66299438476562 C 161.66099548339844 133.2830047607422 156.66200256347656 136.53799438476562 169.79800415039062 140.97900390625" stroke-width="2.0" fill="none" stroke="rgb(255, 0, 0)" stroke-opacity="1" stroke-linecap="round" stroke-linejoin="round"/>
    <path d="M 175.60899353027344 113.76300048828125 C 186.97999572753906 95.40080261230469 174.23199462890625 92.19750213623047 175.41400146484375 110.06600189208984" stroke-width="2.0" fill="none" stroke="rgb(255, 0, 0)" stroke-opacity="1" stroke-linecap="round" stroke-linejoin="round"/>
    <path d="M 128.2100067138672 196.63800048828125 C 127.87799835205078 196.10699462890625 133.5260009765625 201.0919952392578 135.5709991455078 196.5260009765625" stroke-width="2.0" fill="none" stroke="rgb(0, 0, 255)" stroke-opacity="1" stroke-linecap="round" stroke-linejoin="round"/>
    <path d="M 108.47100067138672 58.82870101928711 C 115.95899963378906 61.97959899902344 129.8300018310547 77.69120025634766 117.58300018310547 65.36720275878906" stroke-width="2.0" fill="none" stroke="rgb(0, 255, 0)" stroke-opacity="1" stroke-linecap="round" stroke-linejoin="round"/>
    <path d="M 162.89999389648438 87.23139953613281 C 192.625 103.73500061035156 138.32899475097656 112.46199798583984 148.3090057373047 95.39720153808594" stroke-width="2.0" fill="none" stroke="rgb(255, 0, 0)" stroke-opacity="1" stroke-linecap="round" stroke-linejoin="round"/>
    <path d="M 79.82029724121094 102.32499694824219 C 81.16000366210938 93.7697982788086 89.47570037841797 85.2645034790039 99.34130096435547 79.06819915771484" stroke-width="2.0" fill="none" stroke="rgb(0, 255, 0)" stroke-opacity="1" stroke-linecap="round" stroke-linejoin="round"/>
    <path d="M 101.0790023803711 151.927001953125 C 96.38780212402344 151.1490020751953 126.35900115966797 150.96299743652344 118.48799896240234 164.13999938964844" stroke-width="2.0" fill="none" stroke="rgb(0, 0, 255)" stroke-opacity="1" stroke-linecap="round" stroke-linejoin="round"/>
    <path d="M 158.73699951171875 84.60330200195312 C 181.2969970703125 81.91400146484375 146.98199462890625 99.49500274658203 163.88900756835938 105.7750015258789" stroke-width="2.0" fill="none" stroke="rgb(255, 0, 0)" stroke-opacity="1" stroke-linecap="round" stroke-linejoin="round"/>
    <path d="M 90.25910186767578 103.48799896240234 C 89.7114028930664 109.00599670410156 101.25199890136719 123.2969970703125 95.33209991455078 116.24700164794922" stroke-width="2.0" fill="none" stroke="rgb(0, 255, 0)" stroke-opacity="1" stroke-linecap="round" stroke-linejoin="round"/>
    <path d="M 172.01600646972656 91.17320251464844 C 165.25399780273438 89.7479019165039 156.0570068359375 87.36969757080078 166.26699829101562 109.23799896240234" stroke-width="2.0" fill="none" stroke="rgb(255, 0, 0)" stroke-opacity="1" stroke-linecap="round" stroke-linejoin="round"/>
    <path d="M 166.3280029296875 91.84490203857422 C 187.8730010986328 83.14250183105469 162.91700744628906 81.66519927978516 154.68299865722656 83.70390319824219" stroke-width="2.0" fill="none" stroke="rgb(255, 0, 0)" stroke-opacity="1" stroke-linecap="round" stroke-linejoin="round"/>
    <path d="M 114.16100311279297 57.47909927368164 C 96.91459655761719 75.51180267333984 96.4468002319336 65.72650146484375 111.23799896240234 56.0" stroke-width="2.0" fill="none" stroke="rgb(0, 255, 0)" stroke-opacity="1" stroke-linecap="round" stroke-linejoin="round"/>
    <path d="M 175.8350067138672 131.3350067138672 C 170.24099731445312 163.5449981689453 184.8679962158203 157.09100341796875 156.73800659179688 152.5590057373047" stroke-width="2.0" fill="none" stroke="rgb(255, 0, 0)" stroke-opacity="1" stroke-linecap="round" stroke-linejoin="round"/>
    <path d="M 111.44599914550781 88.41729736328125 C 101.5979995727539 78.50830078125 90.64769744873047 81.53669738769531 112.25299835205078 88.46410369873047" stroke-width="2.0" fill="none" stroke="rgb(0, 255, 0)" stroke-opacity="1" stroke-linecap="round" stroke-linejoin="round"/>
    <path d="M 100.9739990234375 66.16280364990234 C 100.46199798583984 91.64179992675781 112.78700256347656 90.97550201416016 109.35399627685547 92.69599914550781" stroke-width="2.0" fill="none" stroke="rgb(0, 255, 0)" stroke-opacity="1" stroke-linecap="round" stroke-linejoin="round"/>
    <path d="M 175.09500122070312 93.39350128173828 C 174.2760009765625 101.1780014038086 170.93099975585938 108.65699768066406 174.7100067138672 84.8115005493164" stroke-width="2.0" fill="none" stroke="rgb(255, 0, 0)" stroke-opacity="1" stroke-linecap="round" stroke-linejoin="round"/>
    <path d="M 82.05470275878906 168.60000610351562 C 94.68160247802734 169.0030059814453 88.65619659423828 170.4010009765625 107.40899658203125 166.99099731445312" stroke-width="2.0" fill="none" stroke="rgb(0, 0, 255)" stroke-opacity="1" stroke-linecap="round" stroke-linejoin="round"/>
    <path d="M 127.76599884033203 70.0990982055664 C 120.73999786376953 65.26460266113281 122.73699951171875 55.84519958496094 102.45999908447266 71.1187973022461" stroke-width="2.0" fill="none" stroke="rgb(0, 255, 0)" stroke-opacity="1" stroke-linecap="round" stroke-linejoin="round"/>
    <path d="M 172.48699951171875 173.96299743652344 C 177.93800354003906 183.07000732421875 146.55299377441406 190.0659942626953 140.14199829101562 173.6649932861328" stroke-width="2.0" fill="none" stroke="rgb(0, 0, 255)" stroke-opacity="1" stroke-linecap="round" stroke-linejoin="round"/>
    <path d="M 104.36499786376953 73.50509643554688 C 112.9209976196289 63.39979934692383 118.76799774169922 67.26399993896484 127.51599884033203 68.17759704589844" stroke-width="2.0" fill="none" stroke="rgb(0, 255, 0)" stroke-opacity="1" stroke-linecap="round" stroke-linejoin="round"/>
    <path d="M 63.3927001953125 199.32899475097656 C 58.51969909667969 200.42599487304688 53.30440139770508 201.27200317382812 48.1692008972168 203.27099609375" stroke-width="2.0" fill="none" stroke="rgb(0, 0, 255)" stroke-opacity="1" stroke-linecap="round" stroke-linejoin="round"/>
    <path d="M 136.4499969482422 100.33399963378906 C 107.7509994506836 102.95700073242188 158.23599243164062 117.09400177001953 137.3520050048828 106.76100158691406" stroke-width="2.0" fill="none" stroke="rgb(0, 255, 0)" stroke-opacity="1" stroke-linecap="round" stroke-linejoin="round"/>
    <path d="M 40.64970016479492 199.25799560546875 C 36.47740173339844 192.1580047607422 35.597801208496094 180.3699951171875 50.43600082397461 170.76800537109375" stroke-width="2.0" fill="none" stroke="rgb(0, 0, 255)" stroke-opacity="1" stroke-linecap="round" stroke-linejoin="round"/>
    <path d="M 146.4969940185547 140.31300354003906 C 156.58700561523438 149.8800048828125 173.73199462890625 141.51199340820312 159.1060028076172 150.2570037841797" stroke-width="2.0" fill="none" stroke="rgb(255, 0, 0)" stroke-opacity="1" stroke-linecap="round" stroke-linejoin="round"/>
    <path d="M 72.02950286865234 160.21099853515625 C 146.05999755859375 167.18600463867188 129.28500366210938 173.5659942626953 70.58650207519531 171.20199584960938" stroke-width="2.0" fill="none" stroke="rgb(0, 0, 255)" stroke-opacity="1" stroke-linecap="round" stroke-linejoin="round"/>
    <path d="M 116.85600280761719 59.082298278808594 C 133.0449981689453 60.74829864501953 126.51699829101562 68.1947021484375 111.16899871826172 69.63249969482422" stroke-width="2.0" fill="none" stroke="rgb(0, 255, 0)" stroke-opacity="1" stroke-linecap="round" stroke-linejoin="round"/>
    <path d="M 148.25599670410156 96.7782974243164 C 141.80099487304688 88.4999008178711 165.3509979248047 77.73200225830078 164.8820037841797 107.41300201416016" stroke-width="2.0" fill="none" stroke="rgb(255, 0, 0)" stroke-opacity="1" stroke-linecap="round" stroke-linejoin="round"/>
    <path d="M 118.30599975585938 75.0333023071289 C 137.2259979248047 62.79880142211914 125.14099884033203 57.8291015625 115.14199829101562 69.78369903564453" stroke-width="2.0" fill="none" stroke="rgb(0, 255, 0)" stroke-opacity="1" stroke-linecap="round" stroke-linejoin="round"/>
    <path d="M 171.0070037841797 100.59300231933594 C 161.9010009765625 93.33170318603516 157.57400512695312 88.46810150146484 175.67300415039062 97.03479766845703" stroke-width="2.0" fill="none" stroke="rgb(255, 0, 0)" stroke-opacity="1" stroke-linecap="round" stroke-linejoin="round"/>
    <path d="M 100.5530014038086 75.41690063476562 C 107.6719970703125 53.82099914550781 101.68599700927734 79.76069641113281 99.9563980102539 82.95469665527344" stroke-width="2.0" fill="none" stroke="rgb(0, 255, 0)" stroke-opacity="1" stroke-linecap="round" stroke-linejoin="round"/>
    <path d="M 169.4010009765625 88.59190368652344 C 159.23500061035156 77.31539916992188 151.1490020751953 77.56629943847656 161.5800018310547 96.27439880371094" stroke-width="2.0" fill="none" stroke="rgb(255, 0, 0)" stroke-opacity="1" stroke-linecap="round" stroke-linejoin="round"/>
    <path d="M 174.96499633789062 105.08100128173828 C 167.36000061035156 115.54299926757812 169.41900634765625 113.19200134277344 170.69200134277344 90.19390106201172" stroke-width="2.0" fill="none" stroke="rgb(255, 0, 0)" stroke-opacity="1" stroke-linecap="round" stroke-linejoin="round"/>
    <path d="M 126.38099670410156 66.32330322265625 C 127.68699645996094 61.25199890136719 137.8509979248047 79.00789642333984 115.58200073242188 69.00550079345703" stroke-width="2.0" fill="none" stroke="rgb(0, 255, 0)" stroke-opacity="1" stroke-linecap="round" stroke-linejoin="round"/>
    <path d="M 184.15499877929688 163.12399291992188 C 148.61700439453125 145.39199829101562 150.53500366210938 160.3209991455078 175.54200744628906 162.05299377441406" stroke-width="2.0" fill="none" stroke="rgb(0, 0, 255)" stroke-opacity="1" stroke-linecap="round" stroke-linejoin="round"/>
    <path d="M 100.62000274658203 133.20799255371094 C 102.01899719238281 151.12399291992188 97.2114028930664 134.8419952392578 100.02899932861328 137.35800170898438" stroke-width="2.0" fill="none" stroke="rgb(0, 255, 0)" stroke-opacity="1" stroke-linecap="round" stroke-linejoin="round"/>
    <path d="M 165.01300048828125 107.25599670410156 C 185.9600067138672 85.36499786376953 178.02499389648438 85.61859893798828 160.64599609375 86.3219985961914" stroke-width="2.0" fill="none" stroke="rgb(255, 0, 0)" stroke-opacity="1" stroke-linecap="round" stroke-linejoin="round"/>
    <path d="M 133.98500061035156 107.82099914550781 C 102.0270004272461 114.96900177001953 95.31520080566406 117.7969970703125 131.54400634765625 105.89299774169922" stroke-width="2.0" fill="none" stroke="rgb(255, 255, 0)" stroke-opacity="1" stroke-linecap="round" stroke-linejoin="round"/>
    <path d="M 106.2490005493164 78.31800079345703 C 105.87699890136719 61.22610092163086 107.8219985961914 66.51519775390625 126.21700286865234 70.55280303955078" stroke-width="2.0" fill="none" stroke="rgb(0, 255, 0)" stroke-opacity="1" stroke-linecap="round" stroke-linejoin="round"/>
    <path d="M 137.22900390625 133.12899780273438 C 154.52200317382812 140.03799438476562 149.37100219726562 116.37899780273438 145.75 134.5330047607422" stroke-width="2.0" fill="none" stroke="rgb(255, 0, 0)" stroke-opacity="1" stroke-linecap="round" stroke-linejoin="round"/>
    <path d="M 59.8223991394043 199.23899841308594 C 77.27429962158203 197.25799560546875 70.5656967163086 191.71600341796875 70.6084976196289 197.27099609375" stroke-width="2.0" fill="none" stroke="rgb(0, 0, 255)" stroke-opacity="1" stroke-linecap="round" stroke-linejoin="round"/>
    <path d="M 155.8520050048828 99.71959686279297 C 160.27200317382812 63.0629997253418 143.4250030517578 104.41500091552734 152.3730010986328 86.81189727783203" stroke-width="2.0" fill="none" stroke="rgb(255, 0, 0)" stroke-opacity="1" stroke-linecap="round" stroke-linejoin="round"/>
    <path d="M 159.05499267578125 146.01699829101562 C 154.43800354003906 156.67999267578125 159.12399291992188 155.16799926757812 162.73899841308594 148.95899963378906" stroke-width="2.0" fill="none" stroke="rgb(255, 0, 0)" stroke-opacity="1" stroke-linecap="round" stroke-linejoin="round"/>
    <path d="M 120.51899719238281 85.62149810791016 C 115.48999786376953 84.7593994140625 124.24700164794922 84.44200134277344 123.00199890136719 74.07620239257812" stroke-width="2.0" fill="none" stroke="rgb(0, 255, 0)" stroke-opacity="1" stroke-linecap="round" stroke-linejoin="round"/>
    <path d="M 121.64399719238281 169.57000732421875 C 91.80470275878906 172.64300537109375 65.57230377197266 145.29400634765625 126.66500091552734 157.36599731445312" stroke-width="2.0" fill="none" stroke="rgb(0, 0, 255)" stroke-opacity="1" stroke-linecap="round" stroke-linejoin="round"/>
    <path d="M 166.4459991455078 85.75340270996094 C 178.4739990234375 93.12359619140625 175.49400329589844 84.1156005859375 166.27499389648438 104.24400329589844" stroke-width="2.0" fill="none" stroke="rgb(255, 0, 0)" stroke-opacity="1" stroke-linecap="round" stroke-linejoin="round"/>
    <path d="M 158.3769989013672 91.51629638671875 C 173.89700317382812 84.23809814453125 181.82400512695312 83.42569732666016 167.5709991455078 82.31109619140625" stroke-width="2.0" fill="none" stroke="rgb(255, 0, 0)" stroke-opacity="1" stroke-linecap="round" stroke-linejoin="round"/>
    <path d="M 74.11399841308594 156.5760040283203 C 70.4032974243164 127.33999633789062 75.83039855957031 144.93800354003906 74.72989654541016 125.05000305175781" stroke-width="2.0" fill="none" stroke="rgb(0, 255, 0)" stroke-opacity="1" stroke-linecap="round" stroke-linejoin="round"/>
    <path d="M 104.37200164794922 68.40589904785156 C 119.25900268554688 62.75 101.33200073242188 54.85390090942383 108.53600311279297 61.034000396728516" stroke-width="2.0" fill="none" stroke="rgb(0, 255, 0)" stroke-opacity="1" stroke-linecap="round" stroke-linejoin="round"/>
    <path d="M 123.31700134277344 171.57699584960938 C 139.01699829101562 177.55099487304688 121.05699920654297 167.92599487304688 131.8800048828125 179.572998046875" stroke-width="2.0" fill="none" stroke="rgb(0, 0, 255)" stroke-opacity="1" stroke-linecap="round" stroke-linejoin="round"/>
    <path d="M 109.95600128173828 67.05069732666016 C 122.18800354003906 64.01909637451172 99.88600158691406 55.84659957885742 111.37699890136719 71.14530181884766" stroke-width="2.0" fill="none" stroke="rgb(0, 255, 0)" stroke-opacity="1" stroke-linecap="round" stroke-linejoin="round"/>
    <path d="M 174.43600463867188 138.74899291992188 C 171.802001953125 160.44900512695312 177.49600219726562 144.31900024414062 153.38900756835938 144.2010040283203" stroke-width="2.0" fill="none" stroke="rgb(255, 0, 0)" stroke-opacity="1" stroke-linecap="round" stroke-linejoin="round"/>
    <path d="M 110.86900329589844 93.76830291748047 C 107.375 94.73739624023438 121.00700378417969 86.94090270996094 104.44100189208984 86.60530090332031" stroke-width="2.0" fill="none" stroke="rgb(0, 255, 0)" stroke-opacity="1" stroke-linecap="round" stroke-linejoin="round"/>
    <path d="M 122.1520004272461 168.76100158691406 C 148.30499267578125 175.14100646972656 165.40699768066406 156.64500427246094 139.43600463867188 158.86500549316406" stroke-width="2.0" fill="none" stroke="rgb(0, 0, 255)" stroke-opacity="1" stroke-linecap="round" stroke-linejoin="round"/>
    <path d="M 93.66719818115234 198.5469970703125 C 81.20950317382812 200.552001953125 79.04229736328125 196.8800048828125 78.61319732666016 202.02699279785156" stroke-width="2.0" fill="none" stroke="rgb(0, 0, 255)" stroke-opacity="1" stroke-linecap="round" stroke-linejoin="round"/>
    <path d="M 118.26799774169922 84.37339782714844 C 105.85700225830078 78.6521987915039 112.49299621582031 91.94490051269531 111.52300262451172 92.02529907226562" stroke-width="2.0" fill="none" stroke="rgb(0, 255, 0)" stroke-opacity="1" stroke-linecap="round" stroke-linejoin="round"/>
    <path d="M 174.21800231933594 130.031005859375 C 160.3070068359375 121.88400268554688 168.46800231933594 143.04299926757812 167.77200317382812 139.5260009765625" stroke-width="2.0" fill="none" stroke="rgb(255, 0, 0)" stroke-opacity="1" stroke-linecap="round" stroke-linejoin="round"/>
    <path d="M 102.28099822998047 153.60499572753906 C 92.6875 128.28199768066406 98.14759826660156 140.45199584960938 98.4188003540039 137.02099609375" stroke-width="2.0" fill="none" stroke="rgb(0, 255, 0)" stroke-opacity="1" stroke-linecap="round" stroke-linejoin="round"/>
    <path d="M 153.5399932861328 145.35800170898438 C 159.44700622558594 142.5500030517578 140.86199951171875 141.1529998779297 143.8509979248047 136.1479949951172" stroke-width="2.0" fill="none" stroke="rgb(255, 0, 0)" stroke-opacity="1" stroke-linecap="round" stroke-linejoin="round"/>
    <path d="M 176.13499450683594 103.7959976196289 C 184.98199462890625 86.4136962890625 167.39700317382812 71.28679656982422 152.83999633789062 83.05609893798828" stroke-width="2.0" fill="none" stroke="rgb(255, 0, 0)" stroke-opacity="1" stroke-linecap="round" stroke-linejoin="round"/>
    <path d="M 105.0989990234375 195.91900634765625 C 107.68000030517578 195.99899291992188 104.81999969482422 196.89199829101562 102.97100067138672 200.95799255371094" stroke-width="2.0" fill="none" stroke="rgb(0, 0, 255)" stroke-opacity="1" stroke-linecap="round" stroke-linejoin="round"/>
    <path d="M 123.46499633789062 98.65010070800781 C 134.35800170898438 104.87000274658203 150.26800537109375 102.72000122070312 131.3719940185547 100.80899810791016" stroke-width="2.0" fill="none" stroke="rgb(255, 255, 0)" stroke-opacity="1" stroke-linecap="round" stroke-linejoin="round"/>
    <path d="M 171.59500122070312 177.79800415039062 C 157.11199951171875 177.54100036621094 187.01199340820312 175.86300659179688 168.28799438476562 171.08900451660156" stroke-width="2.0" fill="none" stroke="rgb(0, 0, 255)" stroke-opacity="1" stroke-linecap="round" stroke-linejoin="round"/>
    <path d="M 163.552001953125 147.2729949951172 C 177.18800354003906 154.3719940185547 177.39199829101562 144.46200561523438 159.6649932861328 149.80299377441406" stroke-width="2.0" fill="none" stroke="rgb(255, 0, 0)" stroke-opacity="1" stroke-linecap="round" stroke-linejoin="round"/>
    <path d="M 162.88499450683594 110.26499938964844 C 154.3179931640625 104.4469985961914 171.29100036621094 105.7300033569336 170.86500549316406 82.50350189208984" stroke-width="2.0" fill="none" stroke="rgb(255, 0, 0)" stroke-opacity="1" stroke-linecap="round" stroke-linejoin="round"/>
    <path d="M 61.537200927734375 165.88400268554688 C 77.8030014038086 173.45599365234375 84.53919982910156 169.7790069580078 100.30400085449219 170.7220001220703" stroke-width="2.0" fill="none" stroke="rgb(0, 0, 255)" stroke-opacity="1" stroke-linecap="round" stroke-linejoin="round"/>
    <path d="M 75.32340240478516 127.01300048828125 C 71.88860321044922 113.66799926757812 84.59380340576172 88.93460083007812 87.96949768066406 89.43730163574219" stroke-width="2.0" fill="none" stroke="rgb(0, 255, 0)" stroke-opacity="1" stroke-linecap="round" stroke-linejoin="round"/>
    <path d="M 91.42980194091797 163.8699951171875 C 80.93699645996094 159.94500732421875 90.0697021484375 169.42799377441406 95.16600036621094 170.26600646972656" stroke-width="2.0" fill="none" stroke="rgb(0, 0, 255)" stroke-opacity="1" stroke-linecap="round" stroke-linejoin="round"/>
    <path d="M 95.13710021972656 138.26100158691406 C 102.45700073242188 138.7429962158203 102.08200073242188 141.54800415039062 98.23280334472656 138.76199340820312" stroke-width="2.0" fill="none" stroke="rgb(0, 255, 0)" stroke-opacity="1" stroke-linecap="round" stroke-linejoin="round"/>
    <path d="M 107.51499938964844 182.5019989013672 C 107.5790023803711 188.2779998779297 126.76000213623047 191.32400512695312 94.55680084228516 177.33799743652344" stroke-width="2.0" fill="none" stroke="rgb(0, 0, 255)" stroke-opacity="1" stroke-linecap="round" stroke-linejoin="round"/>
    <path d="M 81.4655990600586 159.35800170898438 C 55.80780029296875 164.9340057373047 69.989501953125 156.4669952392578 71.81629943847656 168.1699981689453" stroke-width="2.0" fill="none" stroke="rgb(0, 0, 255)" stroke-opacity="1" stroke-linecap="round" stroke-linejoin="round"/>
    <path d="M 62.43370056152344 165.302001953125 C 75.5833969116211 163.2989959716797 87.16590118408203 174.90699768066406 67.10559844970703 168.38099670410156" stroke-width="2.0" fill="none" stroke="rgb(0, 0, 255)" stroke-opacity="1" stroke-linecap="round" stroke-linejoin="round"/>
    <path d="M 79.44660186767578 128.2949981689453 C 105.96600341796875 122.48400115966797 92.98570251464844 115.18000030517578 99.61969757080078 116.10199737548828" stroke-width="2.0" fill="none" stroke="rgb(0, 255, 0)" stroke-opacity="1" stroke-linecap="round" stroke-linejoin="round"/>
    <path d="M 207.58900451660156 199.45899963378906 C 211.48699951171875 189.947998046875 215.0659942626953 173.24600219726562 180.63699340820312 159.86900329589844" stroke-width="2.0" fill="none" stroke="rgb(0, 0, 255)" stroke-opacity="1" stroke-linecap="round" stroke-linejoin="round"/>
    <path d="M 108.45700073242188 151.6999969482422 C 117.3239974975586 149.0019989013672 126.88600158691406 156.60400390625 122.09600067138672 156.08700561523438" stroke-width="2.0" fill="none" stroke="rgb(0, 0, 255)" stroke-opacity="1" stroke-linecap="round" stroke-linejoin="round"/>
    <path d="M 124.94100189208984 100.94300079345703 C 111.19499969482422 99.72989654541016 131.00799560546875 101.39399719238281 114.91200256347656 106.10600280761719" stroke-width="2.0" fill="none" stroke="rgb(255, 255, 0)" stroke-opacity="1" stroke-linecap="round" stroke-linejoin="round"/>
    <path d="M 98.10240173339844 140.11000061035156 C 109.95600128173828 132.7310028076172 92.52020263671875 142.3990020751953 74.29350280761719 135.5290069580078" stroke-width="2.0" fill="none" stroke="rgb(0, 255, 0)" stroke-opacity="1" stroke-linecap="round" stroke-linejoin="round"/>
    <path d="M 122.17400360107422 66.46640014648438 C 130.1510009765625 53.68360137939453 88.71170043945312 52.33150100708008 102.81099700927734 77.61910247802734" stroke-width="2.0" fill="none" stroke="rgb(0, 255, 0)" stroke-opacity="1" stroke-linecap="round" stroke-linejoin="round"/>
    <path d="M 176.86700439453125 103.947998046875 C 181.2449951171875 83.45870208740234 185.3699951171875 93.72339630126953 174.593994140625 107.7760009765625" stroke-width="2.0" fill="none" stroke="rgb(255, 0, 0)" stroke-opacity="1" stroke-linecap="round" stroke-linejoin="round"/>
    <path d="M 161.12600708007812 154.2100067138672 C 180.82400512695312 153.218994140625 171.69200134277344 159.3699951171875 174.3470001220703 140.31700134277344" stroke-width="2.0" fill="none" stroke="rgb(255, 0, 0)" stroke-opacity="1" stroke-linecap="round" stroke-linejoin="round"/>
    <path d="M 166.99099731445312 110.58100128173828 C 176.0500030517578 102.44000244140625 168.4409942626953 120.94599914550781 173.72999572753906 103.64600372314453" stroke-width="2.0" fill="none" stroke="rgb(255, 0, 0)" stroke-opacity="1" stroke-linecap="round" stroke-linejoin="round"/>
  </g>
</svg>
