<?xml version="1.0" ?>
<svg xmlns="http://www.w3.org/2000/svg" version="1.1" width="256" height="256">
  <defs/>
  <g>
    <path d="M 155.27499389648438 199.7899932861328 C 154.1199951171875 195.33299255371094 155.6719970703125 197.9600067138672 158.25 199.093994140625" stroke-width="2.0" fill="none" stroke="rgb(0, 0, 255)" stroke-opacity="1" stroke-linecap="round" stroke-linejoin="round"/>
    <path d="M 222.77999877929688 170.3260040283203 C 220.61900329589844 182.86700439453125 223.54200744628906 158.3800048828125 219.88800048828125 187.55299377441406" stroke-width="2.0" fill="none" stroke="rgb(0, 255, 0)" stroke-opacity="1" stroke-linecap="round" stroke-linejoin="round"/>
    <path d="M 90.26439666748047 198.50100708007812 C 81.38480377197266 210.7740020751953 81.52680206298828 183.9770050048828 90.44869995117188 196.4290008544922" stroke-width="2.0" fill="none" stroke="rgb(0, 0, 255)" stroke-opacity="1" stroke-linecap="round" stroke-linejoin="round"/>
    <path d="M 34.72330093383789 201.26400756835938 C 38.700599670410156 206.68099975585938 18.178199768066406 206.97999572753906 93.16590118408203 205.3209991455078" stroke-width="2.0" fill="none" stroke="rgb(0, 0, 255)" stroke-opacity="1" stroke-linecap="round" stroke-linejoin="round"/>
    <path d="M 183.66400146484375 165.0500030517578 C 246.3520050048828 173.6649932861328 226.79200744628906 167.94700622558594 199.7740020751953 170.07400512695312" stroke-width="2.0" fill="none" stroke="rgb(0, 255, 0)" stroke-opacity="1" stroke-linecap="round" stroke-linejoin="round"/>
    <path d="M 183.47500610351562 159.6269989013672 C 183.47500610351562 147.18299865722656 187.73300170898438 150.9199981689453 172.0 150.9199981689453" stroke-width="2.0" fill="none" stroke="rgb(0, 255, 0)" stroke-opacity="1" stroke-linecap="round" stroke-linejoin="round"/>
    <path d="M 172.52499389648438 150.3939971923828 C 172.52499389648438 162.83799743652344 168.26699829101562 159.1009979248047 184.0 159.1009979248047" stroke-width="2.0" fill="none" stroke="rgb(0, 255, 0)" stroke-opacity="1" stroke-linecap="round" stroke-linejoin="round"/>
    <path d="M 201.47500610351562 159.6269989013672 C 201.47500610351562 147.18299865722656 205.73300170898438 150.9199981689453 190.0 150.9199981689453" stroke-width="2.0" fill="none" stroke="rgb(0, 255, 0)" stroke-opacity="1" stroke-linecap="round" stroke-linejoin="round"/>
    <path d="M 190.52499389648438 150.3939971923828 C 190.52499389648438 162.83799743652344 186.26699829101562 159.1009979248047 202.0 159.1009979248047" stroke-width="2.0" fill="none" stroke="rgb(0, 255, 0)" stroke-opacity="1" stroke-linecap="round" stroke-linejoin="round"/>
    <path d="M 219.47500610351562 159.6269989013672 C 219.47500610351562 147.18299865722656 223.73300170898438 150.9199981689453 208.0 150.9199981689453" stroke-width="2.0" fill="none" stroke="rgb(0, 255, 0)" stroke-opacity="1" stroke-linecap="round" stroke-linejoin="round"/>
    <path d="M 208.52499389648438 150.3939971923828 C 208.52499389648438 162.83799743652344 204.26699829101562 159.1009979248047 220.0 159.1009979248047" stroke-width="2.0" fill="none" stroke="rgb(0, 255, 0)" stroke-opacity="1" stroke-linecap="round" stroke-linejoin="round"/>
    <path d="M 231.0 208.0 C 255.79600524902344 173.45799255371094 249.0800018310547 190.39700317382812 238.36500549316406 197.07200622558594" stroke-width="2.0" fill="none" stroke="rgb(0, 0, 255)" stroke-opacity="1" stroke-linecap="round" stroke-linejoin="round"/>
    <path d="M 222.6179962158203 174.0 C 237.50799560546875 166.7760009765625 126.08300018310547 165.13699340820312 174.0970001220703 169.11300659179688" stroke-width="2.0" fill="none" stroke="rgb(0, 255, 0)" stroke-opacity="1" stroke-linecap="round" stroke-linejoin="round"/>
    <path d="M 114.2300033569336 202.7310028076172 C 116.82599639892578 186.14500427246094 94.42109680175781 202.20199584960938 114.22899627685547 202.95899963378906" stroke-width="2.0" fill="none" stroke="rgb(0, 0, 255)" stroke-opacity="1" stroke-linecap="round" stroke-linejoin="round"/>
    <path d="M 90.77140045166016 186.4459991455078 C 77.65789794921875 185.74200439453125 52.59939956665039 188.0330047607422 104.8270034790039 183.36900329589844" stroke-width="2.0" fill="none" stroke="rgb(0, 0, 255)" stroke-opacity="1" stroke-linecap="round" stroke-linejoin="round"/>
    <path d="M 161.53500366210938 201.27000427246094 C 151.375 203.66900634765625 155.82000732421875 190.94400024414062 157.39500427246094 200.40899658203125" stroke-width="2.0" fill="none" stroke="rgb(0, 0, 255)" stroke-opacity="1" stroke-linecap="round" stroke-linejoin="round"/>
    <path d="M 224.00100708007812 170.4980010986328 C 240.0 170.4980010986328 233.92100524902344 161.5 233.92100524902344 187.9980010986328" stroke-width="2.0" fill="none" stroke="rgb(0, 255, 0)" stroke-opacity="1" stroke-linecap="round" stroke-linejoin="round"/>
    <path d="M 91.38099670410156 207.5 C 174.41799926757812 206.64199829101562 173.6320037841797 206.22900390625 125.9800033569336 208.35499572753906" stroke-width="2.0" fill="none" stroke="rgb(0, 0, 255)" stroke-opacity="1" stroke-linecap="round" stroke-linejoin="round"/>
    <path d="M 231.4980010986328 207.26100158691406 C 205.36199951171875 209.10699462890625 172.94900512695312 207.26100158691406 146.9980010986328 207.26100158691406" stroke-width="2.0" fill="none" stroke="rgb(0, 0, 255)" stroke-opacity="1" stroke-linecap="round" stroke-linejoin="round"/>
    <path d="M 159.2550048828125 200.89700317382812 C 171.40199279785156 193.94900512695312 151.10299682617188 188.7570037841797 155.8560028076172 200.82200622558594" stroke-width="2.0" fill="none" stroke="rgb(0, 0, 255)" stroke-opacity="1" stroke-linecap="round" stroke-linejoin="round"/>
    <path d="M 97.10990142822266 184.0 C 228.51199340820312 185.43800354003906 149.43899536132812 188.51300048828125 27.0 186.11300659179688" stroke-width="2.0" fill="none" stroke="rgb(0, 0, 255)" stroke-opacity="1" stroke-linecap="round" stroke-linejoin="round"/>
    <path d="M 172.7169952392578 201.343994140625 C 159.39599609375 194.6649932861328 184.91000366210938 189.42300415039062 175.28500366210938 200.28799438476562" stroke-width="2.0" fill="none" stroke="rgb(0, 0, 255)" stroke-opacity="1" stroke-linecap="round" stroke-linejoin="round"/>
    <path d="M 157.03599548339844 186.468994140625 C 166.6479949951172 171.94700622558594 165.13400268554688 203.1439971923828 163.4550018310547 166.81300354003906" stroke-width="2.0" fill="none" stroke="rgb(0, 255, 0)" stroke-opacity="1" stroke-linecap="round" stroke-linejoin="round"/>
    <path d="M 21.980600357055664 180.33799743652344 C 41.882198333740234 206.88600158691406 49.56119918823242 212.68499755859375 32.12710189819336 199.46099853515625" stroke-width="2.0" fill="none" stroke="rgb(0, 0, 255)" stroke-opacity="1" stroke-linecap="round" stroke-linejoin="round"/>
    <path d="M 166.66299438476562 142.0 C 166.91799926757812 166.79299926757812 162.4969940185547 180.9709930419922 167.11599731445312 186.0" stroke-width="2.0" fill="none" stroke="rgb(0, 255, 0)" stroke-opacity="1" stroke-linecap="round" stroke-linejoin="round"/>
    <path d="M 221.4320068359375 170.53900146484375 C 221.4320068359375 136.05299377441406 245.83399963378906 142.47300720214844 167.0 142.47300720214844" stroke-width="2.0" fill="none" stroke="rgb(0, 255, 0)" stroke-opacity="1" stroke-linecap="round" stroke-linejoin="round"/>
    <path d="M 148.87399291992188 187.7030029296875 C 238.8679962158203 191.0679931640625 235.95399475097656 186.52999877929688 248.16799926757812 186.76199340820312" stroke-width="2.0" fill="none" stroke="rgb(0, 0, 255)" stroke-opacity="1" stroke-linecap="round" stroke-linejoin="round"/>
    <path d="M 166.83799743652344 165.36199951171875 C 177.70799255371094 166.48399353027344 215.7729949951172 163.14700317382812 209.9739990234375 163.56500244140625" stroke-width="2.0" fill="none" stroke="rgb(0, 255, 0)" stroke-opacity="1" stroke-linecap="round" stroke-linejoin="round"/>
    <path d="M 71.45610046386719 176.61599731445312 C 71.34030151367188 178.86300659179688 71.14769744873047 182.9340057373047 70.96089935302734 186.09300231933594" stroke-width="2.0" fill="none" stroke="rgb(0, 0, 255)" stroke-opacity="1" stroke-linecap="round" stroke-linejoin="round"/>
    <path d="M 77.52449798583984 176.61599731445312 C 77.40869903564453 178.86300659179688 77.21610260009766 182.9340057373047 77.029296875 186.09300231933594" stroke-width="2.0" fill="none" stroke="rgb(0, 0, 255)" stroke-opacity="1" stroke-linecap="round" stroke-linejoin="round"/>
    <path d="M 82.87889862060547 176.8470001220703 C 82.76309967041016 179.093994140625 82.57050323486328 183.16600036621094 82.38369750976562 186.32400512695312" stroke-width="2.0" fill="none" stroke="rgb(0, 0, 255)" stroke-opacity="1" stroke-linecap="round" stroke-linejoin="round"/>
    <path d="M 87.69819641113281 176.8470001220703 C 87.5823974609375 179.093994140625 87.38970184326172 183.16600036621094 87.2029037475586 186.32400512695312" stroke-width="2.0" fill="none" stroke="rgb(0, 0, 255)" stroke-opacity="1" stroke-linecap="round" stroke-linejoin="round"/>
    <path d="M 66.10379791259766 186.0850067138672 C 66.10379791259766 173.18899536132812 59.6682014465332 176.8719940185547 93.09300231933594 176.8719940185547" stroke-width="2.0" fill="none" stroke="rgb(0, 0, 255)" stroke-opacity="1" stroke-linecap="round" stroke-linejoin="round"/>
    <path d="M 92.59539794921875 176.8470001220703 C 92.59539794921875 189.74400329589844 99.03109741210938 186.06100463867188 65.606201171875 186.06100463867188" stroke-width="2.0" fill="none" stroke="rgb(0, 0, 255)" stroke-opacity="1" stroke-linecap="round" stroke-linejoin="round"/>
    <path d="M 94.07460021972656 176.46099853515625 C 95.50170135498047 190.2469940185547 99.6073989868164 186.5489959716797 64.8031005859375 186.5489959716797" stroke-width="2.0" fill="none" stroke="rgb(0, 0, 255)" stroke-opacity="1" stroke-linecap="round" stroke-linejoin="round"/>
    <path d="M 64.92539978027344 186.53900146484375 C 63.49829864501953 172.7530059814453 59.392601013183594 176.4510040283203 94.1968994140625 176.4510040283203" stroke-width="2.0" fill="none" stroke="rgb(0, 0, 255)" stroke-opacity="1" stroke-linecap="round" stroke-linejoin="round"/>
    <path d="M 102.45600128173828 176.61599731445312 C 102.33999633789062 178.86300659179688 102.14800262451172 182.9340057373047 101.96099853515625 186.09300231933594" stroke-width="2.0" fill="none" stroke="rgb(0, 0, 255)" stroke-opacity="1" stroke-linecap="round" stroke-linejoin="round"/>
    <path d="M 108.5250015258789 176.61599731445312 C 108.40899658203125 178.86300659179688 108.21600341796875 182.9340057373047 108.02899932861328 186.09300231933594" stroke-width="2.0" fill="none" stroke="rgb(0, 0, 255)" stroke-opacity="1" stroke-linecap="round" stroke-linejoin="round"/>
    <path d="M 113.87899780273438 176.8470001220703 C 113.76300048828125 179.093994140625 113.57099914550781 183.16600036621094 113.38400268554688 186.32400512695312" stroke-width="2.0" fill="none" stroke="rgb(0, 0, 255)" stroke-opacity="1" stroke-linecap="round" stroke-linejoin="round"/>
    <path d="M 118.697998046875 176.8470001220703 C 118.58200073242188 179.093994140625 118.38999938964844 183.16600036621094 118.2030029296875 186.32400512695312" stroke-width="2.0" fill="none" stroke="rgb(0, 0, 255)" stroke-opacity="1" stroke-linecap="round" stroke-linejoin="round"/>
    <path d="M 97.10379791259766 186.0850067138672 C 97.10379791259766 173.18899536132812 90.66819763183594 176.8719940185547 124.09300231933594 176.8719940185547" stroke-width="2.0" fill="none" stroke="rgb(0, 0, 255)" stroke-opacity="1" stroke-linecap="round" stroke-linejoin="round"/>
    <path d="M 123.59500122070312 176.8470001220703 C 123.59500122070312 189.74400329589844 130.031005859375 186.06100463867188 96.606201171875 186.06100463867188" stroke-width="2.0" fill="none" stroke="rgb(0, 0, 255)" stroke-opacity="1" stroke-linecap="round" stroke-linejoin="round"/>
    <path d="M 125.07499694824219 176.46099853515625 C 126.50199890136719 190.2469940185547 130.60699462890625 186.5489959716797 95.8031005859375 186.5489959716797" stroke-width="2.0" fill="none" stroke="rgb(0, 0, 255)" stroke-opacity="1" stroke-linecap="round" stroke-linejoin="round"/>
    <path d="M 95.92539978027344 186.53900146484375 C 94.49829864501953 172.7530059814453 90.3926010131836 176.4510040283203 125.1969985961914 176.4510040283203" stroke-width="2.0" fill="none" stroke="rgb(0, 0, 255)" stroke-opacity="1" stroke-linecap="round" stroke-linejoin="round"/>
    <path d="M 133.45599365234375 176.61599731445312 C 133.33999633789062 178.86300659179688 133.1479949951172 182.9340057373047 132.96099853515625 186.09300231933594" stroke-width="2.0" fill="none" stroke="rgb(0, 0, 255)" stroke-opacity="1" stroke-linecap="round" stroke-linejoin="round"/>
    <path d="M 139.52499389648438 176.61599731445312 C 139.40899658203125 178.86300659179688 139.21600341796875 182.9340057373047 139.0290069580078 186.09300231933594" stroke-width="2.0" fill="none" stroke="rgb(0, 0, 255)" stroke-opacity="1" stroke-linecap="round" stroke-linejoin="round"/>
    <path d="M 144.87899780273438 176.8470001220703 C 144.76300048828125 179.093994140625 144.5709991455078 183.16600036621094 144.38400268554688 186.32400512695312" stroke-width="2.0" fill="none" stroke="rgb(0, 0, 255)" stroke-opacity="1" stroke-linecap="round" stroke-linejoin="round"/>
    <path d="M 149.697998046875 176.8470001220703 C 149.58200073242188 179.093994140625 149.38999938964844 183.16600036621094 149.2030029296875 186.32400512695312" stroke-width="2.0" fill="none" stroke="rgb(0, 0, 255)" stroke-opacity="1" stroke-linecap="round" stroke-linejoin="round"/>
    <path d="M 128.10400390625 186.0850067138672 C 128.10400390625 173.18899536132812 121.66799926757812 176.8719940185547 155.09300231933594 176.8719940185547" stroke-width="2.0" fill="none" stroke="rgb(0, 0, 255)" stroke-opacity="1" stroke-linecap="round" stroke-linejoin="round"/>
    <path d="M 154.59500122070312 176.8470001220703 C 154.59500122070312 189.74400329589844 161.031005859375 186.06100463867188 127.60600280761719 186.06100463867188" stroke-width="2.0" fill="none" stroke="rgb(0, 0, 255)" stroke-opacity="1" stroke-linecap="round" stroke-linejoin="round"/>
    <path d="M 156.0749969482422 176.46099853515625 C 157.5019989013672 190.2469940185547 161.60699462890625 186.5489959716797 126.8030014038086 186.5489959716797" stroke-width="2.0" fill="none" stroke="rgb(0, 0, 255)" stroke-opacity="1" stroke-linecap="round" stroke-linejoin="round"/>
    <path d="M 126.92500305175781 186.53900146484375 C 125.49800109863281 172.7530059814453 121.39299774169922 176.4510040283203 156.19700622558594 176.4510040283203" stroke-width="2.0" fill="none" stroke="rgb(0, 0, 255)" stroke-opacity="1" stroke-linecap="round" stroke-linejoin="round"/>
    <path d="M 68.0 98.25540161132812 C 130.25 99.33499908447266 64.18450164794922 98.83869934082031 74.1969985961914 99.30590057373047" stroke-width="2.0" fill="none" stroke="rgb(0, 255, 0)" stroke-opacity="1" stroke-linecap="round" stroke-linejoin="round"/>
    <path d="M 158.46400451660156 61.0 C 154.53900146484375 86.81490325927734 131.49000549316406 72.71299743652344 137.43899536132812 96.0" stroke-width="2.0" fill="none" stroke="rgb(0, 255, 0)" stroke-opacity="1" stroke-linecap="round" stroke-linejoin="round"/>
    <path d="M 158.46400451660156 61.0 C 132.93099975585938 69.28569793701172 101.10399627685547 78.4000015258789 74.4636001586914 90.0" stroke-width="2.0" fill="none" stroke="rgb(0, 255, 0)" stroke-opacity="1" stroke-linecap="round" stroke-linejoin="round"/>
    <path d="M 160.46400451660156 61.0 C 173.22999572753906 68.71430206298828 189.1439971923828 77.19999694824219 202.46400451660156 88.0" stroke-width="2.0" fill="none" stroke="rgb(0, 255, 0)" stroke-opacity="1" stroke-linecap="round" stroke-linejoin="round"/>
    <path d="M 157.8979949951172 99.40769958496094 C 61.32339859008789 98.38189697265625 89.09519958496094 105.70800018310547 86.30829620361328 95.30400085449219" stroke-width="2.0" fill="none" stroke="rgb(0, 255, 0)" stroke-opacity="1" stroke-linecap="round" stroke-linejoin="round"/>
    <path d="M 158.46400451660156 95.49099731445312 C 169.31100463867188 94.94039916992188 167.2790069580078 109.31300354003906 159.75100708007812 61.0" stroke-width="2.0" fill="none" stroke="rgb(0, 255, 0)" stroke-opacity="1" stroke-linecap="round" stroke-linejoin="round"/>
    <path d="M 161.00100708007812 94.49099731445312 C 150.1529998779297 93.94039916992188 152.18499755859375 108.31300354003906 159.71299743652344 60.0" stroke-width="2.0" fill="none" stroke="rgb(0, 255, 0)" stroke-opacity="1" stroke-linecap="round" stroke-linejoin="round"/>
    <path d="M 137.1199951171875 90.2157974243164 C 48.018699645996094 91.3324966430664 78.2605972290039 85.65640258789062 71.15299987792969 97.33989715576172" stroke-width="2.0" fill="none" stroke="rgb(0, 255, 0)" stroke-opacity="1" stroke-linecap="round" stroke-linejoin="round"/>
    <path d="M 204.42999267578125 90.42019653320312 C 115.3290023803711 91.53690338134766 145.5709991455078 85.86080169677734 138.46400451660156 97.54429626464844" stroke-width="2.0" fill="none" stroke="rgb(0, 255, 0)" stroke-opacity="1" stroke-linecap="round" stroke-linejoin="round"/>
    <path d="M 158.18600463867188 126.9469985961914 C 163.0800018310547 58.63869857788086 162.5 97.3667984008789 159.2209930419922 88.57350158691406" stroke-width="2.0" fill="none" stroke="rgb(0, 255, 0)" stroke-opacity="1" stroke-linecap="round" stroke-linejoin="round"/>
    <path d="M 156.80299377441406 87.4979019165039 C 130.22900390625 92.24700164794922 129.02000427246094 83.35810089111328 130.0330047607422 97.36910247802734" stroke-width="2.0" fill="none" stroke="rgb(0, 255, 0)" stroke-opacity="1" stroke-linecap="round" stroke-linejoin="round"/>
    <path d="M 163.08700561523438 96.51129913330078 C 134.9550018310547 93.86810302734375 73.39810180664062 99.33489990234375 132.3719940185547 99.43000030517578" stroke-width="2.0" fill="none" stroke="rgb(0, 255, 0)" stroke-opacity="1" stroke-linecap="round" stroke-linejoin="round"/>
    <path d="M 204.46400451660156 97.6095962524414 C 174.37399291992188 95.9572982788086 193.21600341796875 99.67109680175781 158.46400451660156 97.0" stroke-width="2.0" fill="none" stroke="rgb(0, 255, 0)" stroke-opacity="1" stroke-linecap="round" stroke-linejoin="round"/>
    <path d="M 88.70899963378906 103.68299865722656 C 80.83599853515625 98.30819702148438 92.83709716796875 87.0447006225586 87.82360076904297 117.43499755859375" stroke-width="2.0" fill="none" stroke="rgb(0, 255, 0)" stroke-opacity="1" stroke-linecap="round" stroke-linejoin="round"/>
    <path d="M 204.218994140625 90.87259674072266 C 199.20899963378906 87.6958999633789 206.8470001220703 81.03919982910156 203.656005859375 99.0" stroke-width="2.0" fill="none" stroke="rgb(0, 255, 0)" stroke-opacity="1" stroke-linecap="round" stroke-linejoin="round"/>
    <path d="M 116.4010009765625 96.5000991821289 C 94.18270111083984 100.58000183105469 105.48400115966797 92.33820343017578 104.99800109863281 97.6365966796875" stroke-width="2.0" fill="none" stroke="rgb(0, 255, 0)" stroke-opacity="1" stroke-linecap="round" stroke-linejoin="round"/>
    <path d="M 166.0 182.14500427246094 C 162.5800018310547 59.91019821166992 155.42599487304688 52.05739974975586 158.95199584960938 186.0" stroke-width="2.0" fill="none" stroke="rgb(0, 255, 0)" stroke-opacity="1" stroke-linecap="round" stroke-linejoin="round"/>
    <path d="M 144.0500030517578 96.99099731445312 C 140.9040069580078 77.15149688720703 155.74099731445312 87.4623031616211 151.28199768066406 77.627197265625" stroke-width="2.0" fill="none" stroke="rgb(0, 255, 0)" stroke-opacity="1" stroke-linecap="round" stroke-linejoin="round"/>
    <path d="M 121.08100128173828 96.67259979248047 C 163.8459930419922 98.31089782714844 151.32400512695312 102.95600128173828 153.07899475097656 76.28410339355469" stroke-width="2.0" fill="none" stroke="rgb(0, 255, 0)" stroke-opacity="1" stroke-linecap="round" stroke-linejoin="round"/>
    <path d="M 78.45610046386719 117.61599731445312 C 78.34030151367188 119.86299896240234 78.14769744873047 123.93399810791016 77.96089935302734 127.09300231933594" stroke-width="2.0" fill="none" stroke="rgb(255, 0, 0)" stroke-opacity="1" stroke-linecap="round" stroke-linejoin="round"/>
    <path d="M 84.52449798583984 117.61599731445312 C 84.40869903564453 119.86299896240234 84.21610260009766 123.93399810791016 84.029296875 127.09300231933594" stroke-width="2.0" fill="none" stroke="rgb(255, 0, 0)" stroke-opacity="1" stroke-linecap="round" stroke-linejoin="round"/>
    <path d="M 89.87889862060547 117.84700012207031 C 89.76309967041016 120.09400177001953 89.57050323486328 124.16600036621094 89.38369750976562 127.3239974975586" stroke-width="2.0" fill="none" stroke="rgb(255, 0, 0)" stroke-opacity="1" stroke-linecap="round" stroke-linejoin="round"/>
    <path d="M 94.69819641113281 117.84700012207031 C 94.5823974609375 120.09400177001953 94.38970184326172 124.16600036621094 94.2029037475586 127.3239974975586" stroke-width="2.0" fill="none" stroke="rgb(255, 0, 0)" stroke-opacity="1" stroke-linecap="round" stroke-linejoin="round"/>
    <path d="M 73.10379791259766 127.08499908447266 C 73.10379791259766 114.18900299072266 66.66819763183594 117.87200164794922 100.09300231933594 117.87200164794922" stroke-width="2.0" fill="none" stroke="rgb(255, 0, 0)" stroke-opacity="1" stroke-linecap="round" stroke-linejoin="round"/>
    <path d="M 99.59539794921875 117.84700012207031 C 99.59539794921875 130.74400329589844 106.03099822998047 127.06099700927734 72.606201171875 127.06099700927734" stroke-width="2.0" fill="none" stroke="rgb(255, 0, 0)" stroke-opacity="1" stroke-linecap="round" stroke-linejoin="round"/>
    <path d="M 101.07499694824219 117.46099853515625 C 102.50199890136719 131.2469940185547 106.60700225830078 127.54900360107422 71.8031005859375 127.54900360107422" stroke-width="2.0" fill="none" stroke="rgb(255, 0, 0)" stroke-opacity="1" stroke-linecap="round" stroke-linejoin="round"/>
    <path d="M 71.92539978027344 127.53900146484375 C 70.49829864501953 113.75299835205078 66.3926010131836 117.45099639892578 101.1969985961914 117.45099639892578" stroke-width="2.0" fill="none" stroke="rgb(255, 0, 0)" stroke-opacity="1" stroke-linecap="round" stroke-linejoin="round"/>
  </g>
</svg>
