<?xml version="1.0" ?>
<svg xmlns="http://www.w3.org/2000/svg" version="1.1" width="256" height="256">
  <defs/>
  <g>
    <path d="M 216.0709991455078 53.56050109863281 C 199.04800415039062 52.13859939575195 180.88900756835938 53.56050109863281 165.0 55.463600158691406" stroke-width="3.0" fill="none" stroke="rgb(0, 255, 0)" stroke-opacity="1" stroke-linecap="round" stroke-linejoin="round"/>
    <path d="M 220.0 246.0 C 220.0 182.44200134277344 218.03599548339844 89.53500366210938 216.0709991455078 27.0" stroke-width="3.0" fill="none" stroke="rgb(0, 255, 0)" stroke-opacity="1" stroke-linecap="round" stroke-linejoin="round"/>
    <path d="M 191.71400451660156 59.58300018310547 C 189.66000366210938 64.34359741210938 181.7729949951172 73.00330352783203 177.3679962158203 75.85359954833984" stroke-width="3.0" fill="none" stroke="rgb(0, 255, 0)" stroke-opacity="1" stroke-linecap="round" stroke-linejoin="round"/>
    <path d="M 182.43099975585938 59.58300018310547 C 184.7270050048828 64.61209869384766 193.54200744628906 73.7593002319336 198.46600341796875 76.77230072021484" stroke-width="3.0" fill="none" stroke="rgb(0, 255, 0)" stroke-opacity="1" stroke-linecap="round" stroke-linejoin="round"/>
    <path d="M 175.7469940185547 59.58300018310547 C 178.2760009765625 66.72350311279297 187.9810028076172 79.71209716796875 193.40199279785156 83.9894027709961" stroke-width="3.0" fill="none" stroke="rgb(0, 255, 0)" stroke-opacity="1" stroke-linecap="round" stroke-linejoin="round"/>
    <path d="M 169.49600219726562 57.980499267578125 C 169.49600219726562 87.3584976196289 194.5 101.24600219726562 201.49600219726562 57.980499267578125" stroke-width="3.0" fill="none" stroke="rgb(0, 255, 0)" stroke-opacity="1" stroke-linecap="round" stroke-linejoin="round"/>
    <path d="M 200.1540069580078 59.58300018310547 C 197.61500549316406 66.38379669189453 187.8730010986328 78.75399780273438 182.43099975585938 82.82689666748047" stroke-width="3.0" fill="none" stroke="rgb(0, 255, 0)" stroke-opacity="1" stroke-linecap="round" stroke-linejoin="round"/>
    <path d="M 99.55619812011719 95.06690216064453 C 114.94300079345703 170.91099548339844 87.76809692382812 163.24099731445312 104.90399932861328 85.4813003540039" stroke-width="3.0" fill="none" stroke="rgb(255, 0, 0)" stroke-opacity="1" stroke-linecap="round" stroke-linejoin="round"/>
    <path d="M 88.02059936523438 123.53099822998047 C 131.98199462890625 153.34800720214844 105.62100219726562 133.85899353027344 96.86720275878906 173.13400268554688" stroke-width="3.0" fill="none" stroke="rgb(255, 0, 0)" stroke-opacity="1" stroke-linecap="round" stroke-linejoin="round"/>
    <path d="M 92.8634033203125 94.51619720458984 C 60.60089874267578 124.27799987792969 70.13240051269531 138.16200256347656 52.91640090942383 153.33099365234375" stroke-width="3.0" fill="none" stroke="rgb(255, 0, 0)" stroke-opacity="1" stroke-linecap="round" stroke-linejoin="round"/>
    <path d="M 107.09300231933594 150.88499450683594 C 94.15579986572266 107.30500030517578 119.58300018310547 138.10699462890625 104.55999755859375 167.98500061035156" stroke-width="3.0" fill="none" stroke="rgb(255, 0, 0)" stroke-opacity="1" stroke-linecap="round" stroke-linejoin="round"/>
    <path d="M 89.53820037841797 130.3280029296875 C 92.00379943847656 80.96219635009766 78.21260070800781 105.72799682617188 74.80970001220703 123.3219985961914" stroke-width="3.0" fill="none" stroke="rgb(255, 0, 0)" stroke-opacity="1" stroke-linecap="round" stroke-linejoin="round"/>
    <path d="M 79.37460327148438 105.51599884033203 C 58.137001037597656 154.6280059814453 58.42639923095703 148.60699462890625 56.9026985168457 148.65499877929688" stroke-width="3.0" fill="none" stroke="rgb(255, 0, 0)" stroke-opacity="1" stroke-linecap="round" stroke-linejoin="round"/>
    <path d="M 99.45719909667969 114.03399658203125 C 86.22109985351562 138.78700256347656 85.37789916992188 146.0290069580078 85.2927017211914 82.87059783935547" stroke-width="3.0" fill="none" stroke="rgb(255, 0, 0)" stroke-opacity="1" stroke-linecap="round" stroke-linejoin="round"/>
    <path d="M 102.76200103759766 141.04299926757812 C 47.98749923706055 168.781005859375 40.22079849243164 154.41600036621094 110.54000091552734 145.36599731445312" stroke-width="3.0" fill="none" stroke="rgb(255, 0, 0)" stroke-opacity="1" stroke-linecap="round" stroke-linejoin="round"/>
    <path d="M 110.1449966430664 169.94400024414062 C 58.66379928588867 201.55099487304688 98.49359893798828 208.4550018310547 77.26020050048828 185.83099365234375" stroke-width="3.0" fill="none" stroke="rgb(255, 0, 0)" stroke-opacity="1" stroke-linecap="round" stroke-linejoin="round"/>
    <path d="M 85.466796875 117.30699920654297 C 76.36710357666016 74.83489990234375 113.17400360107422 112.29299926757812 106.62899780273438 144.78399658203125" stroke-width="3.0" fill="none" stroke="rgb(255, 0, 0)" stroke-opacity="1" stroke-linecap="round" stroke-linejoin="round"/>
    <path d="M 111.33300018310547 159.2100067138672 C 27.395700454711914 176.75100708007812 58.95899963378906 139.6540069580078 37.238399505615234 172.3090057373047" stroke-width="3.0" fill="none" stroke="rgb(255, 0, 0)" stroke-opacity="1" stroke-linecap="round" stroke-linejoin="round"/>
    <path d="M 52.12369918823242 152.83399963378906 C 88.75440216064453 119.74800109863281 84.96640014648438 72.82140350341797 72.18569946289062 124.802001953125" stroke-width="3.0" fill="none" stroke="rgb(255, 0, 0)" stroke-opacity="1" stroke-linecap="round" stroke-linejoin="round"/>
    <path d="M 100.68299865722656 176.38999938964844 C 94.5907974243164 81.00869750976562 98.98680114746094 65.07990264892578 104.38200378417969 174.46200561523438" stroke-width="3.0" fill="none" stroke="rgb(255, 0, 0)" stroke-opacity="1" stroke-linecap="round" stroke-linejoin="round"/>
    <path d="M 51.08620071411133 160.88699340820312 C 31.043800354003906 192.64300537109375 28.355100631713867 159.3769989013672 59.145198822021484 161.63900756835938" stroke-width="3.0" fill="none" stroke="rgb(255, 0, 0)" stroke-opacity="1" stroke-linecap="round" stroke-linejoin="round"/>
    <path d="M 107.0999984741211 84.1144027709961 C 82.10549926757812 54.95800018310547 101.61399841308594 39.581298828125 99.99590301513672 66.78939819335938" stroke-width="3.0" fill="none" stroke="rgb(255, 0, 0)" stroke-opacity="1" stroke-linecap="round" stroke-linejoin="round"/>
    <path d="M 108.15499877929688 95.52950286865234 C 86.23059844970703 36.5713005065918 104.91000366210938 44.20289993286133 97.04979705810547 62.256500244140625" stroke-width="3.0" fill="none" stroke="rgb(255, 0, 0)" stroke-opacity="1" stroke-linecap="round" stroke-linejoin="round"/>
    <path d="M 103.5770034790039 54.2672004699707 C 135.15499877929688 19.595199584960938 74.01110076904297 30.545299530029297 111.10199737548828 54.2672004699707" stroke-width="3.0" fill="none" stroke="rgb(0, 0, 255)" stroke-opacity="1" stroke-linecap="round" stroke-linejoin="round"/>
    <path d="M 104.93099975585938 139.61000061035156 C 91.35040283203125 74.53299713134766 81.15740203857422 73.44660186767578 105.06800079345703 172.0290069580078" stroke-width="3.0" fill="none" stroke="rgb(255, 0, 0)" stroke-opacity="1" stroke-linecap="round" stroke-linejoin="round"/>
    <path d="M 111.88500213623047 155.09300231933594 C 5.6545000076293945 175.77099609375 28.77739906311035 157.33299255371094 110.98600006103516 149.83999633789062" stroke-width="3.0" fill="none" stroke="rgb(255, 0, 0)" stroke-opacity="1" stroke-linecap="round" stroke-linejoin="round"/>
    <path d="M 110.86699676513672 149.3459930419922 C 76.40470123291016 209.05499267578125 63.100399017333984 193.81399536132812 108.6259994506836 164.32899475097656" stroke-width="3.0" fill="none" stroke="rgb(255, 0, 0)" stroke-opacity="1" stroke-linecap="round" stroke-linejoin="round"/>
    <path d="M 108.86299896240234 173.406005859375 C 54.32709884643555 198.4219970703125 93.220703125 208.39300537109375 97.13359832763672 161.70899963378906" stroke-width="3.0" fill="none" stroke="rgb(255, 0, 0)" stroke-opacity="1" stroke-linecap="round" stroke-linejoin="round"/>
    <path d="M 113.0770034790039 158.96400451660156 C 21.918699264526367 138.44900512695312 77.70320129394531 171.3800048828125 104.427001953125 138.66099548339844" stroke-width="3.0" fill="none" stroke="rgb(255, 0, 0)" stroke-opacity="1" stroke-linecap="round" stroke-linejoin="round"/>
    <path d="M 79.15290069580078 104.77400207519531 C 82.96659851074219 128.42799377441406 91.79720306396484 106.4520034790039 105.04499816894531 74.87079620361328" stroke-width="3.0" fill="none" stroke="rgb(255, 0, 0)" stroke-opacity="1" stroke-linecap="round" stroke-linejoin="round"/>
    <path d="M 38.830101013183594 175.3159942626953 C 41.30619812011719 154.718994140625 103.83699798583984 152.39500427246094 66.39199829101562 168.52699279785156" stroke-width="3.0" fill="none" stroke="rgb(255, 0, 0)" stroke-opacity="1" stroke-linecap="round" stroke-linejoin="round"/>
    <path d="M 97.98670196533203 48.49769973754883 C 112.56600189208984 39.549400329589844 107.33999633789062 42.526100158691406 106.23100280761719 32.0" stroke-width="3.0" fill="none" stroke="rgb(0, 0, 255)" stroke-opacity="1" stroke-linecap="round" stroke-linejoin="round"/>
    <path d="M 111.05599975585938 172.63800048828125 C 112.7969970703125 125.30799865722656 126.56999969482422 155.2729949951172 59.94459915161133 161.97900390625" stroke-width="3.0" fill="none" stroke="rgb(255, 0, 0)" stroke-opacity="1" stroke-linecap="round" stroke-linejoin="round"/>
    <path d="M 107.1449966430664 81.54440307617188 C 101.73799896240234 68.05819702148438 85.20909881591797 42.84880065917969 106.04100036621094 84.5613021850586" stroke-width="3.0" fill="none" stroke="rgb(255, 0, 0)" stroke-opacity="1" stroke-linecap="round" stroke-linejoin="round"/>
    <path d="M 110.05599975585938 160.7270050048828 C 77.28720092773438 196.56100463867188 79.6781005859375 196.65899658203125 113.11699676513672 157.1790008544922" stroke-width="3.0" fill="none" stroke="rgb(255, 0, 0)" stroke-opacity="1" stroke-linecap="round" stroke-linejoin="round"/>
    <path d="M 97.87960052490234 146.5070037841797 C 69.85060119628906 126.36699676513672 95.08999633789062 124.447998046875 102.88300323486328 73.88330078125" stroke-width="3.0" fill="none" stroke="rgb(255, 0, 0)" stroke-opacity="1" stroke-linecap="round" stroke-linejoin="round"/>
    <path d="M 72.65139770507812 128.1230010986328 C 108.11000061035156 69.66909790039062 99.33979797363281 72.94029998779297 111.80500030517578 152.98399353027344" stroke-width="3.0" fill="none" stroke="rgb(255, 0, 0)" stroke-opacity="1" stroke-linecap="round" stroke-linejoin="round"/>
    <path d="M 91.39779663085938 140.5030059814453 C 94.96160125732422 101.86399841308594 87.43730163574219 118.72699737548828 86.77189636230469 81.472900390625" stroke-width="3.0" fill="none" stroke="rgb(255, 0, 0)" stroke-opacity="1" stroke-linecap="round" stroke-linejoin="round"/>
    <path d="M 97.03620147705078 42.25910186767578 C 126.01300048828125 15.817999839782715 115.41999816894531 68.86019897460938 106.64600372314453 37.63249969482422" stroke-width="3.0" fill="none" stroke="rgb(0, 0, 255)" stroke-opacity="1" stroke-linecap="round" stroke-linejoin="round"/>
    <path d="M 98.4646987915039 172.21400451660156 C 70.73529815673828 99.93250274658203 103.1510009765625 41.57870101928711 93.9395980834961 162.1269989013672" stroke-width="3.0" fill="none" stroke="rgb(255, 0, 0)" stroke-opacity="1" stroke-linecap="round" stroke-linejoin="round"/>
    <path d="M 75.78009796142578 120.78099822998047 C 70.43150329589844 88.4032974243164 98.91259765625 111.20500183105469 105.50599670410156 82.50240325927734" stroke-width="3.0" fill="none" stroke="rgb(255, 0, 0)" stroke-opacity="1" stroke-linecap="round" stroke-linejoin="round"/>
    <path d="M 109.06199645996094 162.60699462890625 C 42.02410125732422 174.302001953125 86.59480285644531 149.66900634765625 56.654701232910156 162.23800659179688" stroke-width="3.0" fill="none" stroke="rgb(255, 0, 0)" stroke-opacity="1" stroke-linecap="round" stroke-linejoin="round"/>
    <path d="M 108.34200286865234 36.26139831542969 C 85.3678970336914 27.963199615478516 104.64299774169922 61.29560089111328 104.38899993896484 37.55569839477539" stroke-width="3.0" fill="none" stroke="rgb(0, 0, 255)" stroke-opacity="1" stroke-linecap="round" stroke-linejoin="round"/>
    <path d="M 109.29199981689453 49.3297004699707 C 86.31829833984375 57.627899169921875 105.59300231933594 24.295499801635742 105.33999633789062 48.035400390625" stroke-width="3.0" fill="none" stroke="rgb(0, 0, 255)" stroke-opacity="1" stroke-linecap="round" stroke-linejoin="round"/>
    <path d="M 98.064697265625 46.824501037597656 C 122.18299865722656 73.2656021118164 113.36599731445312 20.223400115966797 106.06300354003906 51.45109939575195" stroke-width="3.0" fill="none" stroke="rgb(0, 0, 255)" stroke-opacity="1" stroke-linecap="round" stroke-linejoin="round"/>
    <path d="M 100.7300033569336 143.302001953125 C 87.96769714355469 59.67060089111328 116.54900360107422 85.3416976928711 100.77899932861328 65.5780029296875" stroke-width="3.0" fill="none" stroke="rgb(255, 0, 0)" stroke-opacity="1" stroke-linecap="round" stroke-linejoin="round"/>
    <path d="M 85.41780090332031 79.8384017944336 C 64.00990295410156 80.78479766845703 96.38030242919922 104.9800033569336 98.493896484375 103.65499877929688" stroke-width="3.0" fill="none" stroke="rgb(255, 0, 0)" stroke-opacity="1" stroke-linecap="round" stroke-linejoin="round"/>
    <path d="M 66.82659912109375 139.218994140625 C 83.34629821777344 99.5374984741211 101.35399627685547 84.71920013427734 74.2510986328125 115.83300018310547" stroke-width="3.0" fill="none" stroke="rgb(255, 0, 0)" stroke-opacity="1" stroke-linecap="round" stroke-linejoin="round"/>
    <path d="M 76.41079711914062 187.42300415039062 C 94.08419799804688 228.41299438476562 76.79810333251953 174.91099548339844 90.94270324707031 180.427001953125" stroke-width="3.0" fill="none" stroke="rgb(255, 0, 0)" stroke-opacity="1" stroke-linecap="round" stroke-linejoin="round"/>
    <path d="M 87.4094009399414 96.50430297851562 C 98.45649719238281 66.14559936523438 58.99140167236328 79.30220031738281 100.46700286865234 99.56220245361328" stroke-width="3.0" fill="none" stroke="rgb(255, 0, 0)" stroke-opacity="1" stroke-linecap="round" stroke-linejoin="round"/>
    <path d="M 60.29399871826172 144.0240020751953 C 36.9541015625 154.87600708007812 72.82450103759766 146.5260009765625 74.18080139160156 123.87100219726562" stroke-width="3.0" fill="none" stroke="rgb(255, 0, 0)" stroke-opacity="1" stroke-linecap="round" stroke-linejoin="round"/>
    <path d="M 86.660400390625 95.8019027709961 C 89.52159881591797 82.32060241699219 80.93710327148438 87.6072006225586 79.55760192871094 81.92870330810547" stroke-width="3.0" fill="none" stroke="rgb(255, 0, 0)" stroke-opacity="1" stroke-linecap="round" stroke-linejoin="round"/>
    <path d="M 99.90480041503906 108.80799865722656 C 122.83100128173828 73.90850067138672 90.35140228271484 80.37310028076172 100.60900115966797 56.539100646972656" stroke-width="3.0" fill="none" stroke="rgb(255, 0, 0)" stroke-opacity="1" stroke-linecap="round" stroke-linejoin="round"/>
  </g>
</svg>
