<?xml version="1.0" ?>
<svg xmlns="http://www.w3.org/2000/svg" version="1.1" width="256" height="256">
  <defs/>
  <g>
    <path d="M 158.19200134277344 120.4990005493164 C 124.56500244140625 101.28800201416016 112.0999984741211 143.39700317382812 129.51699829101562 91.2677001953125" stroke-width="3.0" fill="none" stroke="rgb(0, 255, 0)" stroke-opacity="1" stroke-linecap="round" stroke-linejoin="round"/>
    <path d="M 113.9800033569336 139.10000610351562 C 97.28510284423828 169.88099670410156 103.78199768066406 146.04299926757812 120.93099975585938 133.1320037841797" stroke-width="3.0" fill="none" stroke="rgb(0, 255, 0)" stroke-opacity="1" stroke-linecap="round" stroke-linejoin="round"/>
    <path d="M 148.9219970703125 141.3459930419922 C 153.63800048828125 143.19200134277344 151.93699645996094 99.06710052490234 151.24899291992188 148.09800720214844" stroke-width="3.0" fill="none" stroke="rgb(0, 255, 0)" stroke-opacity="1" stroke-linecap="round" stroke-linejoin="round"/>
    <path d="M 132.65499877929688 93.21299743652344 C 138.35699462890625 114.84300231933594 147.24099731445312 137.29100036621094 150.98800659179688 154.0050048828125" stroke-width="3.0" fill="none" stroke="rgb(0, 255, 0)" stroke-opacity="1" stroke-linecap="round" stroke-linejoin="round"/>
    <path d="M 121.40499877929688 105.63500213623047 C 139.01199340820312 55.257301330566406 119.4489974975586 75.8041000366211 133.01199340820312 122.99199676513672" stroke-width="3.0" fill="none" stroke="rgb(0, 255, 0)" stroke-opacity="1" stroke-linecap="round" stroke-linejoin="round"/>
    <path d="M 140.875 116.99600219726562 C 108.24500274658203 143.8300018310547 108.56500244140625 148.0709991455078 121.47699737548828 132.25399780273438" stroke-width="3.0" fill="none" stroke="rgb(0, 255, 0)" stroke-opacity="1" stroke-linecap="round" stroke-linejoin="round"/>
    <path d="M 135.54800415039062 66.46659851074219 C 124.79499816894531 111.87999725341797 109.81099700927734 122.06700134277344 126.3239974975586 85.33170318603516" stroke-width="3.0" fill="none" stroke="rgb(0, 255, 0)" stroke-opacity="1" stroke-linecap="round" stroke-linejoin="round"/>
    <path d="M 149.8699951171875 216.22000122070312 C 162.95199584960938 211.13299560546875 164.32200622558594 213.49899291992188 124.91500091552734 213.6219940185547" stroke-width="3.0" fill="none" stroke="rgb(0, 255, 0)" stroke-opacity="1" stroke-linecap="round" stroke-linejoin="round"/>
    <path d="M 103.55000305175781 152.7429962158203 C 70.0145034790039 229.43499755859375 -18.8799991607666 204.69900512695312 84.53890228271484 214.21200561523438" stroke-width="3.0" fill="none" stroke="rgb(0, 255, 0)" stroke-opacity="1" stroke-linecap="round" stroke-linejoin="round"/>
    <path d="M 183.9810028076172 80.16709899902344 C 160.49099731445312 99.41840362548828 185.46400451660156 112.48100280761719 154.5469970703125 114.12899780273438" stroke-width="3.0" fill="none" stroke="rgb(255, 0, 0)" stroke-opacity="1" stroke-linecap="round" stroke-linejoin="round"/>
    <path d="M 191.68800354003906 212.85000610351562 C 191.6269989013672 134.593994140625 192.30299377441406 142.08799743652344 190.24899291992188 210.3159942626953" stroke-width="3.0" fill="none" stroke="rgb(255, 0, 0)" stroke-opacity="1" stroke-linecap="round" stroke-linejoin="round"/>
    <path d="M 171.02499389648438 100.86799621582031 C 178.6719970703125 129.5780029296875 171.55499267578125 122.70899963378906 174.4739990234375 152.42599487304688" stroke-width="3.0" fill="none" stroke="rgb(255, 0, 0)" stroke-opacity="1" stroke-linecap="round" stroke-linejoin="round"/>
    <path d="M 148.7209930419922 139.031005859375 C 140.875 103.48799896240234 151.98899841308594 116.6709976196289 153.86199951171875 201.5" stroke-width="3.0" fill="none" stroke="rgb(0, 255, 0)" stroke-opacity="1" stroke-linecap="round" stroke-linejoin="round"/>
    <path d="M 142.75399780273438 217.0 C 140.76199340820312 213.92799377441406 136.3470001220703 214.88499450683594 156.25599670410156 214.16700744628906" stroke-width="3.0" fill="none" stroke="rgb(0, 255, 0)" stroke-opacity="1" stroke-linecap="round" stroke-linejoin="round"/>
    <path d="M 181.2949981689453 63.68870162963867 C 175.27000427246094 96.95649719238281 194.44200134277344 65.78240203857422 176.34100341796875 85.39769744873047" stroke-width="3.0" fill="none" stroke="rgb(255, 0, 0)" stroke-opacity="1" stroke-linecap="round" stroke-linejoin="round"/>
    <path d="M 165.7779998779297 67.75800323486328 C 172.58200073242188 41.11790084838867 174.63800048828125 71.36609649658203 178.3070068359375 82.80799865722656" stroke-width="3.0" fill="none" stroke="rgb(255, 0, 0)" stroke-opacity="1" stroke-linecap="round" stroke-linejoin="round"/>
    <path d="M 171.64199829101562 74.4989013671875 C 148.10000610351562 43.20880126953125 203.60400390625 61.062801361083984 166.0970001220703 73.01599884033203" stroke-width="3.0" fill="none" stroke="rgb(255, 0, 0)" stroke-opacity="1" stroke-linecap="round" stroke-linejoin="round"/>
    <path d="M 88.32379913330078 188.46400451660156 C 95.0886001586914 192.47000122070312 105.51699829101562 206.7989959716797 111.39800262451172 209.63400268554688" stroke-width="3.0" fill="none" stroke="rgb(0, 255, 0)" stroke-opacity="1" stroke-linecap="round" stroke-linejoin="round"/>
    <path d="M 93.618896484375 192.5489959716797 C 90.17350006103516 187.48199462890625 104.64399719238281 205.77200317382812 122.0999984741211 211.2550048828125" stroke-width="3.0" fill="none" stroke="rgb(0, 255, 0)" stroke-opacity="1" stroke-linecap="round" stroke-linejoin="round"/>
    <path d="M 189.2550048828125 213.19900512695312 C 188.7899932861328 201.76300048828125 192.7729949951172 182.1230010986328 191.65899658203125 133.39100646972656" stroke-width="3.0" fill="none" stroke="rgb(255, 0, 0)" stroke-opacity="1" stroke-linecap="round" stroke-linejoin="round"/>
    <path d="M 172.08900451660156 214.802001953125 C 194.08200073242188 219.68600463867188 188.51100158691406 207.69900512695312 188.52499389648438 206.6230010986328" stroke-width="3.0" fill="none" stroke="rgb(255, 0, 0)" stroke-opacity="1" stroke-linecap="round" stroke-linejoin="round"/>
    <path d="M 196.0 169.2270050048828 C 184.60000610351562 128.36599731445312 196.7969970703125 177.5399932861328 194.1009979248047 166.96299743652344" stroke-width="3.0" fill="none" stroke="rgb(255, 0, 0)" stroke-opacity="1" stroke-linecap="round" stroke-linejoin="round"/>
    <path d="M 172.7050018310547 111.17500305175781 C 172.7169952392578 121.81300354003906 122.43399810791016 123.09400177001953 137.95899963378906 97.92230224609375" stroke-width="3.0" fill="none" stroke="rgb(0, 255, 0)" stroke-opacity="1" stroke-linecap="round" stroke-linejoin="round"/>
    <path d="M 170.26499938964844 115.83599853515625 C 167.10400390625 157.26600646972656 189.00399780273438 203.91799926757812 168.90699768066406 206.25" stroke-width="3.0" fill="none" stroke="rgb(255, 0, 0)" stroke-opacity="1" stroke-linecap="round" stroke-linejoin="round"/>
    <path d="M 131.85699462890625 71.39990234375 C 134.99400329589844 108.9219970703125 141.593994140625 67.96410369873047 145.0780029296875 75.46510314941406" stroke-width="3.0" fill="none" stroke="rgb(0, 255, 0)" stroke-opacity="1" stroke-linecap="round" stroke-linejoin="round"/>
    <path d="M 111.38400268554688 144.0050048828125 C 104.90299987792969 148.09500122070312 91.2136001586914 142.48500061035156 86.89230346679688 144.0050048828125" stroke-width="3.0" fill="none" stroke="rgb(0, 255, 0)" stroke-opacity="1" stroke-linecap="round" stroke-linejoin="round"/>
    <path d="M 143.4669952392578 76.7571029663086 C 148.1479949951172 66.42150115966797 156.7760009765625 82.22049713134766 115.21800231933594 93.41190338134766" stroke-width="3.0" fill="none" stroke="rgb(0, 255, 0)" stroke-opacity="1" stroke-linecap="round" stroke-linejoin="round"/>
    <path d="M 175.05999755859375 214.1060028076172 C 187.968994140625 205.6929931640625 166.54299926757812 231.04800415039062 178.4530029296875 172.98800659179688" stroke-width="3.0" fill="none" stroke="rgb(255, 0, 0)" stroke-opacity="1" stroke-linecap="round" stroke-linejoin="round"/>
    <path d="M 190.93699645996094 94.35880279541016 C 185.05499267578125 126.56500244140625 194.05599975585938 117.88800048828125 192.11300659179688 139.60899353027344" stroke-width="3.0" fill="none" stroke="rgb(255, 0, 0)" stroke-opacity="1" stroke-linecap="round" stroke-linejoin="round"/>
    <path d="M 170.77999877929688 111.34300231933594 C 168.20399475097656 121.28600311279297 127.85700225830078 117.33699798583984 173.51699829101562 114.18199920654297" stroke-width="3.0" fill="none" stroke="rgb(255, 0, 0)" stroke-opacity="1" stroke-linecap="round" stroke-linejoin="round"/>
    <path d="M 144.08099365234375 75.2520980834961 C 134.30999755859375 58.55339813232422 122.83999633789062 61.20479965209961 135.46600341796875 108.27400207519531" stroke-width="3.0" fill="none" stroke="rgb(0, 255, 0)" stroke-opacity="1" stroke-linecap="round" stroke-linejoin="round"/>
    <path d="M 119.59200286865234 212.8300018310547 C 95.74610137939453 198.052001953125 105.32099914550781 205.99099731445312 134.77200317382812 214.63699340820312" stroke-width="3.0" fill="none" stroke="rgb(0, 255, 0)" stroke-opacity="1" stroke-linecap="round" stroke-linejoin="round"/>
    <path d="M 168.58799743652344 118.70600128173828 C 167.62399291992188 87.6613998413086 174.2519989013672 71.55650329589844 169.88400268554688 119.89700317382812" stroke-width="3.0" fill="none" stroke="rgb(255, 0, 0)" stroke-opacity="1" stroke-linecap="round" stroke-linejoin="round"/>
    <path d="M 171.02099609375 96.67539978027344 C 178.95399475097656 130.8040008544922 167.54299926757812 142.44200134277344 165.46200561523438 114.58399963378906" stroke-width="3.0" fill="none" stroke="rgb(255, 0, 0)" stroke-opacity="1" stroke-linecap="round" stroke-linejoin="round"/>
    <path d="M 179.78399658203125 63.36050033569336 C 166.677001953125 48.21030044555664 174.052001953125 65.64320373535156 176.63099670410156 86.80970001220703" stroke-width="3.0" fill="none" stroke="rgb(255, 0, 0)" stroke-opacity="1" stroke-linecap="round" stroke-linejoin="round"/>
    <path d="M 115.43000030517578 97.78079986572266 C 128.52499389648438 125.13700103759766 144.42999267578125 115.12000274658203 116.38700103759766 136.4510040283203" stroke-width="3.0" fill="none" stroke="rgb(0, 255, 0)" stroke-opacity="1" stroke-linecap="round" stroke-linejoin="round"/>
    <path d="M 139.86399841308594 165.42799377441406 C 147.26300048828125 102.15699768066406 134.73500061035156 83.74299621582031 141.927001953125 135.77200317382812" stroke-width="3.0" fill="none" stroke="rgb(0, 255, 0)" stroke-opacity="1" stroke-linecap="round" stroke-linejoin="round"/>
    <path d="M 147.95799255371094 103.09500122070312 C 133.56199645996094 140.60800170898438 154.33200073242188 126.53800201416016 137.09300231933594 85.5989990234375" stroke-width="3.0" fill="none" stroke="rgb(0, 255, 0)" stroke-opacity="1" stroke-linecap="round" stroke-linejoin="round"/>
    <path d="M 161.15699768066406 215.78900146484375 C 153.27999877929688 207.1840057373047 152.5540008544922 189.47500610351562 155.843994140625 211.07400512695312" stroke-width="3.0" fill="none" stroke="rgb(0, 255, 0)" stroke-opacity="1" stroke-linecap="round" stroke-linejoin="round"/>
    <path d="M 120.53299713134766 132.2830047607422 C 105.33399963378906 148.9010009765625 112.06600189208984 137.552001953125 140.6959991455078 117.01100158691406" stroke-width="3.0" fill="none" stroke="rgb(0, 255, 0)" stroke-opacity="1" stroke-linecap="round" stroke-linejoin="round"/>
    <path d="M 190.53500366210938 113.91799926757812 C 190.50900268554688 106.71800231933594 199.55799865722656 85.63899993896484 176.6840057373047 70.13690185546875" stroke-width="3.0" fill="none" stroke="rgb(255, 0, 0)" stroke-opacity="1" stroke-linecap="round" stroke-linejoin="round"/>
    <path d="M 124.84300231933594 77.6812973022461 C 153.45899963378906 111.48500061035156 105.54000091552734 90.73049926757812 130.06399536132812 67.63819885253906" stroke-width="3.0" fill="none" stroke="rgb(0, 255, 0)" stroke-opacity="1" stroke-linecap="round" stroke-linejoin="round"/>
    <path d="M 192.1179962158203 132.2790069580078 C 193.33799743652344 130.0959930419922 191.6739959716797 142.20599365234375 192.4040069580078 131.63900756835938" stroke-width="3.0" fill="none" stroke="rgb(255, 0, 0)" stroke-opacity="1" stroke-linecap="round" stroke-linejoin="round"/>
    <path d="M 129.1820068359375 77.77420043945312 C 141.63600158691406 79.6957015991211 153.58700561523438 52.869300842285156 135.5050048828125 84.02140045166016" stroke-width="3.0" fill="none" stroke="rgb(0, 255, 0)" stroke-opacity="1" stroke-linecap="round" stroke-linejoin="round"/>
    <path d="M 171.0469970703125 112.4540023803711 C 173.843994140625 155.08399963378906 171.41799926757812 130.4969940185547 168.75 104.83499908447266" stroke-width="3.0" fill="none" stroke="rgb(255, 0, 0)" stroke-opacity="1" stroke-linecap="round" stroke-linejoin="round"/>
    <path d="M 140.08200073242188 117.25700378417969 C 152.2030029296875 142.36000061035156 153.16900634765625 155.60499572753906 148.03799438476562 139.1510009765625" stroke-width="3.0" fill="none" stroke="rgb(0, 255, 0)" stroke-opacity="1" stroke-linecap="round" stroke-linejoin="round"/>
    <path d="M 174.0 121.83599853515625 C 173.0749969482422 70.54460144042969 177.31900024414062 79.26180267333984 165.4759979248047 63.23419952392578" stroke-width="3.0" fill="none" stroke="rgb(255, 0, 0)" stroke-opacity="1" stroke-linecap="round" stroke-linejoin="round"/>
    <path d="M 179.427001953125 73.10079956054688 C 172.51400756835938 95.15969848632812 168.43499755859375 49.97529983520508 178.8040008544922 70.26830291748047" stroke-width="3.0" fill="none" stroke="rgb(255, 0, 0)" stroke-opacity="1" stroke-linecap="round" stroke-linejoin="round"/>
    <path d="M 132.26499938964844 71.54979705810547 C 111.01699829101562 97.84559631347656 155.3209991455078 99.59719848632812 127.37799835205078 117.81900024414062" stroke-width="3.0" fill="none" stroke="rgb(0, 255, 0)" stroke-opacity="1" stroke-linecap="round" stroke-linejoin="round"/>
    <path d="M 123.41100311279297 113.63500213623047 C 129.60000610351562 89.9280014038086 134.6269989013672 83.37449645996094 141.44400024414062 123.19300079345703" stroke-width="3.0" fill="none" stroke="rgb(0, 255, 0)" stroke-opacity="1" stroke-linecap="round" stroke-linejoin="round"/>
    <path d="M 90.52749633789062 143.5659942626953 C 102.21900177001953 139.74899291992188 115.03700256347656 103.19200134277344 117.1729965209961 92.15370178222656" stroke-width="3.0" fill="none" stroke="rgb(0, 255, 0)" stroke-opacity="1" stroke-linecap="round" stroke-linejoin="round"/>
    <path d="M 143.20399475097656 127.125 C 139.3560028076172 81.7947006225586 157.79400634765625 117.8239974975586 125.05799865722656 76.40239715576172" stroke-width="3.0" fill="none" stroke="rgb(0, 255, 0)" stroke-opacity="1" stroke-linecap="round" stroke-linejoin="round"/>
    <path d="M 159.7519989013672 215.24099731445312 C 149.8719940185547 203.6179962158203 159.9949951171875 221.99099731445312 145.94000244140625 213.66000366210938" stroke-width="3.0" fill="none" stroke="rgb(0, 255, 0)" stroke-opacity="1" stroke-linecap="round" stroke-linejoin="round"/>
    <path d="M 182.38499450683594 77.78089904785156 C 157.3159942626953 55.31850051879883 178.28700256347656 49.0265998840332 181.32899475097656 81.8406982421875" stroke-width="3.0" fill="none" stroke="rgb(255, 0, 0)" stroke-opacity="1" stroke-linecap="round" stroke-linejoin="round"/>
    <path d="M 142.36900329589844 67.58390045166016 C 117.74600219726562 86.62310028076172 130.1179962158203 104.04399871826172 137.88699340820312 120.12100219726562" stroke-width="3.0" fill="none" stroke="rgb(0, 255, 0)" stroke-opacity="1" stroke-linecap="round" stroke-linejoin="round"/>
    <path d="M 126.5510025024414 75.12000274658203 C 149.55099487304688 57.619300842285156 122.11100006103516 68.6405029296875 145.8159942626953 106.95999908447266" stroke-width="3.0" fill="none" stroke="rgb(0, 255, 0)" stroke-opacity="1" stroke-linecap="round" stroke-linejoin="round"/>
    <path d="M 175.98699951171875 180.21299743652344 C 171.25100708007812 165.56300354003906 179.0709991455078 105.61799621582031 176.2220001220703 167.70899963378906" stroke-width="3.0" fill="none" stroke="rgb(255, 0, 0)" stroke-opacity="1" stroke-linecap="round" stroke-linejoin="round"/>
    <path d="M 127.08200073242188 116.25900268554688 C 152.6929931640625 61.82640075683594 155.56900024414062 55.01490020751953 114.87899780273438 103.43900299072266" stroke-width="3.0" fill="none" stroke="rgb(0, 255, 0)" stroke-opacity="1" stroke-linecap="round" stroke-linejoin="round"/>
    <path d="M 140.61700439453125 114.31999969482422 C 179.70799255371094 127.82499694824219 174.8730010986328 110.95899963378906 155.6699981689453 112.84600067138672" stroke-width="3.0" fill="none" stroke="rgb(255, 0, 0)" stroke-opacity="1" stroke-linecap="round" stroke-linejoin="round"/>
    <path d="M 128.64599609375 124.1520004272461 C 108.49600219726562 71.48090362548828 128.1719970703125 49.609901428222656 146.3000030517578 120.49700164794922" stroke-width="3.0" fill="none" stroke="rgb(0, 255, 0)" stroke-opacity="1" stroke-linecap="round" stroke-linejoin="round"/>
    <path d="M 141.13800048828125 74.63800048828125 C 120.55899810791016 52.325599670410156 111.81800079345703 106.85199737548828 119.40799713134766 87.8646011352539" stroke-width="3.0" fill="none" stroke="rgb(0, 255, 0)" stroke-opacity="1" stroke-linecap="round" stroke-linejoin="round"/>
    <path d="M 147.7050018310547 81.50800323486328 C 114.30799865722656 79.88089752197266 148.9720001220703 52.39099884033203 137.63099670410156 77.42880249023438" stroke-width="3.0" fill="none" stroke="rgb(0, 255, 0)" stroke-opacity="1" stroke-linecap="round" stroke-linejoin="round"/>
    <path d="M 143.4429931640625 126.072998046875 C 142.3459930419922 99.49939727783203 133.9969940185547 144.81900024414062 124.40699768066406 79.89849853515625" stroke-width="3.0" fill="none" stroke="rgb(0, 255, 0)" stroke-opacity="1" stroke-linecap="round" stroke-linejoin="round"/>
    <path d="M 178.4040069580078 82.1771011352539 C 182.73300170898438 38.220001220703125 157.00900268554688 73.49659729003906 177.5279998779297 64.8196029663086" stroke-width="3.0" fill="none" stroke="rgb(255, 0, 0)" stroke-opacity="1" stroke-linecap="round" stroke-linejoin="round"/>
  </g>
</svg>
