<?xml version="1.0" ?>
<svg xmlns="http://www.w3.org/2000/svg" version="1.1" width="256" height="256">
  <defs/>
  <g>
    <path d="M 69.8219985961914 163.3489990234375 C 72.4905014038086 133.38699340820312 37.48509979248047 122.6729965209961 64.51119995117188 145.16000366210938" stroke-width="3.0" fill="none" stroke="rgb(0, 255, 0)" stroke-opacity="1" stroke-linecap="round" stroke-linejoin="round"/>
    <path d="M 84.1697006225586 165.4029998779297 C 126.02999877929688 232.51199340820312 60.8656005859375 198.72900390625 65.85089874267578 146.23300170898438" stroke-width="3.0" fill="none" stroke="rgb(0, 255, 0)" stroke-opacity="1" stroke-linecap="round" stroke-linejoin="round"/>
    <path d="M 67.80809783935547 123.41200256347656 C 80.49359893798828 133.0 48.673099517822266 149.4250030517578 78.62079620361328 200.3350067138672" stroke-width="3.0" fill="none" stroke="rgb(0, 255, 0)" stroke-opacity="1" stroke-linecap="round" stroke-linejoin="round"/>
    <path d="M 66.29340362548828 119.37799835205078 C 58.200199127197266 135.26199340820312 53.89889907836914 129.35400390625 70.943603515625 151.64199829101562" stroke-width="3.0" fill="none" stroke="rgb(0, 255, 0)" stroke-opacity="1" stroke-linecap="round" stroke-linejoin="round"/>
    <path d="M 138.8699951171875 198.95899963378906 C 162.98500061035156 145.718994140625 141.48199462890625 128.48699951171875 153.03700256347656 169.37399291992188" stroke-width="3.0" fill="none" stroke="rgb(0, 255, 0)" stroke-opacity="1" stroke-linecap="round" stroke-linejoin="round"/>
    <path d="M 49.952301025390625 123.02799987792969 C 25.975500106811523 118.052001953125 58.90520095825195 111.25700378417969 48.69779968261719 113.43199920654297" stroke-width="3.0" fill="none" stroke="rgb(0, 255, 0)" stroke-opacity="1" stroke-linecap="round" stroke-linejoin="round"/>
    <path d="M 197.96499633789062 156.71800231933594 C 178.97999572753906 33.534400939941406 162.7740020751953 59.078800201416016 191.37399291992188 144.38099670410156" stroke-width="3.0" fill="none" stroke="rgb(0, 255, 0)" stroke-opacity="1" stroke-linecap="round" stroke-linejoin="round"/>
    <path d="M 142.55799865722656 142.89999389648438 C 222.03399658203125 136.64100646972656 184.56900024414062 136.72999572753906 153.55599975585938 158.64300537109375" stroke-width="3.0" fill="none" stroke="rgb(0, 255, 0)" stroke-opacity="1" stroke-linecap="round" stroke-linejoin="round"/>
    <path d="M 156.96800231933594 133.16099548339844 C 142.8939971923828 180.875 165.78900146484375 160.70799255371094 182.60899353027344 115.47100067138672" stroke-width="3.0" fill="none" stroke="rgb(0, 255, 0)" stroke-opacity="1" stroke-linecap="round" stroke-linejoin="round"/>
    <path d="M 163.03399658203125 114.12899780273438 C 175.75100708007812 94.92169952392578 148.01100158691406 46.80400085449219 179.20399475097656 67.90879821777344" stroke-width="3.0" fill="none" stroke="rgb(0, 255, 0)" stroke-opacity="1" stroke-linecap="round" stroke-linejoin="round"/>
    <path d="M 148.56700134277344 62.58380126953125 C 168.78199768066406 52.709999084472656 166.39500427246094 80.93000030517578 163.552001953125 90.9468994140625" stroke-width="3.0" fill="none" stroke="rgb(0, 255, 0)" stroke-opacity="1" stroke-linecap="round" stroke-linejoin="round"/>
    <path d="M 172.98800659179688 104.61799621582031 C 159.08200073242188 50.56449890136719 143.86900329589844 48.93170166015625 138.156005859375 82.00309753417969" stroke-width="3.0" fill="none" stroke="rgb(0, 255, 0)" stroke-opacity="1" stroke-linecap="round" stroke-linejoin="round"/>
    <path d="M 70.25289916992188 181.75100708007812 C 115.79199981689453 242.1719970703125 106.50299835205078 189.281005859375 62.398399353027344 162.0469970703125" stroke-width="3.0" fill="none" stroke="rgb(0, 255, 0)" stroke-opacity="1" stroke-linecap="round" stroke-linejoin="round"/>
    <path d="M 116.9489974975586 171.35400390625 C 91.80059814453125 227.41600036621094 113.76300048828125 214.8070068359375 84.73870086669922 185.7899932861328" stroke-width="3.0" fill="none" stroke="rgb(0, 255, 0)" stroke-opacity="1" stroke-linecap="round" stroke-linejoin="round"/>
    <path d="M 99.25830078125 222.0 C 89.1395034790039 203.13699340820312 61.285701751708984 206.74000549316406 65.90630340576172 138.9739990234375" stroke-width="3.0" fill="none" stroke="rgb(0, 255, 0)" stroke-opacity="1" stroke-linecap="round" stroke-linejoin="round"/>
    <path d="M 185.5330047607422 145.0919952392578 C 217.927001953125 186.25100708007812 185.22799682617188 188.218994140625 204.55299377441406 208.16299438476562" stroke-width="3.0" fill="none" stroke="rgb(0, 255, 0)" stroke-opacity="1" stroke-linecap="round" stroke-linejoin="round"/>
    <path d="M 64.75350189208984 129.05299377441406 C 63.986000061035156 153.46400451660156 36.35049819946289 107.28399658203125 45.65639877319336 113.3740005493164" stroke-width="3.0" fill="none" stroke="rgb(0, 255, 0)" stroke-opacity="1" stroke-linecap="round" stroke-linejoin="round"/>
    <path d="M 147.9029998779297 122.50499725341797 C 153.1300048828125 154.76499938964844 183.0399932861328 139.28900146484375 149.44200134277344 147.95199584960938" stroke-width="3.0" fill="none" stroke="rgb(0, 255, 0)" stroke-opacity="1" stroke-linecap="round" stroke-linejoin="round"/>
    <path d="M 198.42599487304688 106.93499755859375 C 196.9219970703125 58.53919982910156 163.20199584960938 67.9010009765625 178.48500061035156 81.13520050048828" stroke-width="3.0" fill="none" stroke="rgb(0, 255, 0)" stroke-opacity="1" stroke-linecap="round" stroke-linejoin="round"/>
    <path d="M 103.7750015258789 198.156005859375 C 53.62310028076172 133.98699951171875 53.21839904785156 151.81100463867188 99.01300048828125 203.3350067138672" stroke-width="3.0" fill="none" stroke="rgb(0, 255, 0)" stroke-opacity="1" stroke-linecap="round" stroke-linejoin="round"/>
    <path d="M 143.343994140625 96.56089782714844 C 126.98799896240234 56.399200439453125 173.43699645996094 36.17150115966797 155.72000122070312 122.48400115966797" stroke-width="3.0" fill="none" stroke="rgb(0, 255, 0)" stroke-opacity="1" stroke-linecap="round" stroke-linejoin="round"/>
    <path d="M 201.38099670410156 147.37600708007812 C 169.32899475097656 115.27200317382812 191.08900451660156 121.1719970703125 199.5590057373047 147.92799377441406" stroke-width="3.0" fill="none" stroke="rgb(0, 255, 0)" stroke-opacity="1" stroke-linecap="round" stroke-linejoin="round"/>
    <path d="M 63.4833984375 128.7989959716797 C 54.62919998168945 122.24099731445312 69.05169677734375 121.59300231933594 64.4385986328125 138.07200622558594" stroke-width="3.0" fill="none" stroke="rgb(0, 255, 0)" stroke-opacity="1" stroke-linecap="round" stroke-linejoin="round"/>
    <path d="M 145.36199951171875 102.25 C 139.5449981689453 116.32599639892578 148.52200317382812 106.23699951171875 144.92799377441406 64.84500122070312" stroke-width="3.0" fill="none" stroke="rgb(0, 255, 0)" stroke-opacity="1" stroke-linecap="round" stroke-linejoin="round"/>
    <path d="M 152.22900390625 170.99600219726562 C 180.21400451660156 139.427001953125 166.17599487304688 145.08999633789062 171.3939971923828 122.83399963378906" stroke-width="3.0" fill="none" stroke="rgb(0, 255, 0)" stroke-opacity="1" stroke-linecap="round" stroke-linejoin="round"/>
    <path d="M 153.58999633789062 67.77690124511719 C 209.88999938964844 58.509498596191406 194.53700256347656 71.6488037109375 208.7740020751953 127.88500213623047" stroke-width="3.0" fill="none" stroke="rgb(0, 255, 0)" stroke-opacity="1" stroke-linecap="round" stroke-linejoin="round"/>
    <path d="M 157.01800537109375 182.82000732421875 C 189.41700744628906 110.33699798583984 120.44300079345703 97.26799774169922 146.90499877929688 168.2050018310547" stroke-width="3.0" fill="none" stroke="rgb(0, 255, 0)" stroke-opacity="1" stroke-linecap="round" stroke-linejoin="round"/>
    <path d="M 98.02529907226562 200.01199340820312 C 45.217899322509766 133.5570068359375 87.28089904785156 164.75900268554688 52.000301361083984 122.12200164794922" stroke-width="3.0" fill="none" stroke="rgb(0, 255, 0)" stroke-opacity="1" stroke-linecap="round" stroke-linejoin="round"/>
    <path d="M 149.6719970703125 138.4980010986328 C 131.28500366210938 167.2550048828125 137.0399932861328 167.24400329589844 150.29100036621094 117.63099670410156" stroke-width="3.0" fill="none" stroke="rgb(0, 255, 0)" stroke-opacity="1" stroke-linecap="round" stroke-linejoin="round"/>
    <path d="M 175.1510009765625 93.78140258789062 C 182.4219970703125 160.3260040283203 213.06700134277344 156.15699768066406 204.87100219726562 127.38400268554688" stroke-width="3.0" fill="none" stroke="rgb(0, 255, 0)" stroke-opacity="1" stroke-linecap="round" stroke-linejoin="round"/>
    <path d="M 180.093994140625 145.76400756835938 C 236.35899353027344 182.39500427246094 168.86700439453125 147.3730010986328 176.9969940185547 94.53359985351562" stroke-width="3.0" fill="none" stroke="rgb(0, 255, 0)" stroke-opacity="1" stroke-linecap="round" stroke-linejoin="round"/>
    <path d="M 161.87399291992188 118.90399932861328 C 125.57599639892578 158.90199279785156 157.49899291992188 180.54200744628906 177.61199951171875 118.81800079345703" stroke-width="3.0" fill="none" stroke="rgb(0, 255, 0)" stroke-opacity="1" stroke-linecap="round" stroke-linejoin="round"/>
    <path d="M 145.70899963378906 111.35099792480469 C 164.72300720214844 29.700300216674805 124.95999908447266 70.8458023071289 140.80599975585938 92.58329772949219" stroke-width="3.0" fill="none" stroke="rgb(0, 255, 0)" stroke-opacity="1" stroke-linecap="round" stroke-linejoin="round"/>
    <path d="M 145.2169952392578 160.66099548339844 C 118.76399993896484 182.43899536132812 145.94000244140625 176.19900512695312 124.98200225830078 218.55499267578125" stroke-width="3.0" fill="none" stroke="rgb(0, 255, 0)" stroke-opacity="1" stroke-linecap="round" stroke-linejoin="round"/>
    <path d="M 80.27279663085938 167.1479949951172 C 89.17970275878906 213.56399536132812 46.75279998779297 155.4759979248047 64.08779907226562 148.06100463867188" stroke-width="3.0" fill="none" stroke="rgb(0, 255, 0)" stroke-opacity="1" stroke-linecap="round" stroke-linejoin="round"/>
    <path d="M 149.46299743652344 162.71099853515625 C 183.23500061035156 65.96269989013672 144.48300170898438 53.733299255371094 153.4810028076172 114.5199966430664" stroke-width="3.0" fill="none" stroke="rgb(0, 255, 0)" stroke-opacity="1" stroke-linecap="round" stroke-linejoin="round"/>
    <path d="M 154.02099609375 165.2740020751953 C 162.34500122070312 150.4600067138672 128.68499755859375 151.37100219726562 151.86900329589844 168.59500122070312" stroke-width="3.0" fill="none" stroke="rgb(0, 255, 0)" stroke-opacity="1" stroke-linecap="round" stroke-linejoin="round"/>
    <path d="M 136.73899841308594 66.17720031738281 C 121.5469970703125 89.67060089111328 148.26800537109375 85.21790313720703 145.6540069580078 134.34800720214844" stroke-width="3.0" fill="none" stroke="rgb(0, 255, 0)" stroke-opacity="1" stroke-linecap="round" stroke-linejoin="round"/>
    <path d="M 175.21800231933594 111.88899993896484 C 161.25599670410156 146.01300048828125 151.98899841308594 105.23300170898438 158.61700439453125 143.51699829101562" stroke-width="3.0" fill="none" stroke="rgb(0, 255, 0)" stroke-opacity="1" stroke-linecap="round" stroke-linejoin="round"/>
    <path d="M 140.697998046875 129.83900451660156 C 165.55799865722656 126.98100280761719 158.6529998779297 79.1520004272461 151.5399932861328 73.88569641113281" stroke-width="3.0" fill="none" stroke="rgb(0, 255, 0)" stroke-opacity="1" stroke-linecap="round" stroke-linejoin="round"/>
    <path d="M 89.30059814453125 184.24600219726562 C 58.491600036621094 142.7519989013672 54.7322998046875 141.4080047607422 84.5885009765625 191.41299438476562" stroke-width="3.0" fill="none" stroke="rgb(0, 255, 0)" stroke-opacity="1" stroke-linecap="round" stroke-linejoin="round"/>
    <path d="M 120.73500061035156 118.97899627685547 C 105.75299835205078 108.05000305175781 127.27200317382812 121.62000274658203 121.44400024414062 82.12870025634766" stroke-width="3.0" fill="none" stroke="rgb(0, 255, 0)" stroke-opacity="1" stroke-linecap="round" stroke-linejoin="round"/>
    <path d="M 181.86599731445312 100.45800018310547 C 212.70399475097656 145.97500610351562 173.20899963378906 162.0489959716797 178.55099487304688 96.6063003540039" stroke-width="3.0" fill="none" stroke="rgb(0, 255, 0)" stroke-opacity="1" stroke-linecap="round" stroke-linejoin="round"/>
    <path d="M 204.76100158691406 164.24400329589844 C 202.1959991455078 117.60900115966797 196.35899353027344 114.70800018310547 193.0850067138672 80.36329650878906" stroke-width="3.0" fill="none" stroke="rgb(0, 255, 0)" stroke-opacity="1" stroke-linecap="round" stroke-linejoin="round"/>
    <path d="M 135.7100067138672 98.18569946289062 C 116.73999786376953 81.4832992553711 113.43399810791016 65.61180114746094 168.08799743652344 62.314300537109375" stroke-width="3.0" fill="none" stroke="rgb(0, 255, 0)" stroke-opacity="1" stroke-linecap="round" stroke-linejoin="round"/>
    <path d="M 210.2830047607422 171.37899780273438 C 194.88099670410156 165.03500366210938 232.41200256347656 162.3730010986328 206.7449951171875 121.51599884033203" stroke-width="3.0" fill="none" stroke="rgb(0, 255, 0)" stroke-opacity="1" stroke-linecap="round" stroke-linejoin="round"/>
    <path d="M 199.677001953125 105.50199890136719 C 197.61000061035156 58.11830139160156 166.14100646972656 53.6327018737793 191.26800537109375 80.28469848632812" stroke-width="3.0" fill="none" stroke="rgb(0, 255, 0)" stroke-opacity="1" stroke-linecap="round" stroke-linejoin="round"/>
    <path d="M 149.67100524902344 127.28299713134766 C 165.4250030517578 119.61399841308594 165.98899841308594 112.64900207519531 146.2740020751953 156.3249969482422" stroke-width="3.0" fill="none" stroke="rgb(0, 255, 0)" stroke-opacity="1" stroke-linecap="round" stroke-linejoin="round"/>
    <path d="M 201.40499877929688 108.14700317382812 C 172.6179962158203 65.42520141601562 174.8300018310547 49.661399841308594 188.97300720214844 77.4281005859375" stroke-width="3.0" fill="none" stroke="rgb(0, 255, 0)" stroke-opacity="1" stroke-linecap="round" stroke-linejoin="round"/>
    <path d="M 181.9709930419922 103.15599822998047 C 174.46099853515625 56.305999755859375 169.02699279785156 53.484798431396484 177.00799560546875 94.39559936523438" stroke-width="3.0" fill="none" stroke="rgb(0, 255, 0)" stroke-opacity="1" stroke-linecap="round" stroke-linejoin="round"/>
    <path d="M 46.63869857788086 117.77899932861328 C 64.76249694824219 106.24800109863281 55.565799713134766 121.5989990234375 68.65440368652344 140.11199951171875" stroke-width="3.0" fill="none" stroke="rgb(0, 255, 0)" stroke-opacity="1" stroke-linecap="round" stroke-linejoin="round"/>
    <path d="M 208.78399658203125 160.64599609375 C 195.41200256347656 169.10400390625 227.89999389648438 152.76600646972656 207.24099731445312 127.98100280761719" stroke-width="3.0" fill="none" stroke="rgb(0, 255, 0)" stroke-opacity="1" stroke-linecap="round" stroke-linejoin="round"/>
    <path d="M 146.7570037841797 63.73429870605469 C 164.4929962158203 58.112098693847656 171.9199981689453 82.82450103759766 161.83799743652344 61.2411994934082" stroke-width="3.0" fill="none" stroke="rgb(0, 255, 0)" stroke-opacity="1" stroke-linecap="round" stroke-linejoin="round"/>
    <path d="M 120.9800033569336 116.69999694824219 C 108.98799896240234 134.9720001220703 139.60499572753906 116.69999694824219 120.9800033569336 134.63600158691406" stroke-width="3.0" fill="none" stroke="rgb(0, 255, 0)" stroke-opacity="1" stroke-linecap="round" stroke-linejoin="round"/>
    <path d="M 205.3769989013672 150.86300659179688 C 165.4340057373047 125.19000244140625 177.71800231933594 164.15699768066406 182.00100708007812 114.45899963378906" stroke-width="3.0" fill="none" stroke="rgb(0, 255, 0)" stroke-opacity="1" stroke-linecap="round" stroke-linejoin="round"/>
    <path d="M 182.0399932861328 65.35350036621094 C 199.96499633789062 96.62120056152344 214.96600341796875 162.78199768066406 191.89999389648438 71.60420227050781" stroke-width="3.0" fill="none" stroke="rgb(0, 255, 0)" stroke-opacity="1" stroke-linecap="round" stroke-linejoin="round"/>
    <path d="M 168.33900451660156 123.5979995727539 C 138.82400512695312 169.8769989013672 150.21200561523438 137.1959991455078 143.9219970703125 89.42289733886719" stroke-width="3.0" fill="none" stroke="rgb(0, 255, 0)" stroke-opacity="1" stroke-linecap="round" stroke-linejoin="round"/>
    <path d="M 139.73500061035156 63.1151008605957 C 182.61700439453125 57.59669876098633 113.06400299072266 62.845001220703125 173.16099548339844 61.584800720214844" stroke-width="3.0" fill="none" stroke="rgb(0, 255, 0)" stroke-opacity="1" stroke-linecap="round" stroke-linejoin="round"/>
    <path d="M 152.06700134277344 127.06400299072266 C 134.802001953125 175.96800231933594 166.8459930419922 180.62899780273438 142.21099853515625 146.22500610351562" stroke-width="3.0" fill="none" stroke="rgb(0, 255, 0)" stroke-opacity="1" stroke-linecap="round" stroke-linejoin="round"/>
    <path d="M 188.5760040283203 111.73699951171875 C 190.98699951171875 157.5749969482422 217.54100036621094 127.3010025024414 204.54100036621094 169.3470001220703" stroke-width="3.0" fill="none" stroke="rgb(0, 255, 0)" stroke-opacity="1" stroke-linecap="round" stroke-linejoin="round"/>
    <path d="M 163.93899536132812 64.00309753417969 C 175.49899291992188 152.16299438476562 132.4720001220703 153.11700439453125 159.35800170898438 130.26100158691406" stroke-width="3.0" fill="none" stroke="rgb(0, 255, 0)" stroke-opacity="1" stroke-linecap="round" stroke-linejoin="round"/>
    <path d="M 74.04229736328125 125.47599792480469 C 45.77750015258789 89.95809936523438 47.464599609375 120.28600311279297 62.44860076904297 130.3470001220703" stroke-width="3.0" fill="none" stroke="rgb(0, 255, 0)" stroke-opacity="1" stroke-linecap="round" stroke-linejoin="round"/>
    <path d="M 142.18800354003906 101.16000366210938 C 132.24600219726562 81.0634994506836 146.44900512695312 58.39939880371094 147.4530029296875 63.279598236083984" stroke-width="3.0" fill="none" stroke="rgb(0, 255, 0)" stroke-opacity="1" stroke-linecap="round" stroke-linejoin="round"/>
    <path d="M 171.04299926757812 145.62899780273438 C 155.71400451660156 190.427001953125 190.17999267578125 154.53599548339844 171.62399291992188 173.29400634765625" stroke-width="3.0" fill="none" stroke="rgb(0, 255, 0)" stroke-opacity="1" stroke-linecap="round" stroke-linejoin="round"/>
    <path d="M 123.28399658203125 206.0709991455078 C 122.31199645996094 159.88299560546875 113.94400024414062 171.37899780273438 144.60800170898438 155.48899841308594" stroke-width="3.0" fill="none" stroke="rgb(0, 255, 0)" stroke-opacity="1" stroke-linecap="round" stroke-linejoin="round"/>
    <path d="M 181.9320068359375 76.17169952392578 C 201.17100524902344 151.7949981689453 190.7209930419922 165.88099670410156 188.7689971923828 115.4209976196289" stroke-width="3.0" fill="none" stroke="rgb(0, 255, 0)" stroke-opacity="1" stroke-linecap="round" stroke-linejoin="round"/>
    <path d="M 139.23899841308594 96.05789947509766 C 107.77100372314453 79.22699737548828 155.87399291992188 46.38349914550781 155.13900756835938 71.43990325927734" stroke-width="3.0" fill="none" stroke="rgb(0, 255, 0)" stroke-opacity="1" stroke-linecap="round" stroke-linejoin="round"/>
    <path d="M 164.10899353027344 151.54200744628906 C 125.5270004272461 150.2570037841797 144.0330047607422 174.6060028076172 136.25900268554688 154.58599853515625" stroke-width="3.0" fill="none" stroke="rgb(0, 255, 0)" stroke-opacity="1" stroke-linecap="round" stroke-linejoin="round"/>
    <path d="M 129.52499389648438 88.27839660644531 C 167.20599365234375 95.6791000366211 131.7209930419922 91.48090362548828 144.56399536132812 107.00499725341797" stroke-width="3.0" fill="none" stroke="rgb(0, 255, 0)" stroke-opacity="1" stroke-linecap="round" stroke-linejoin="round"/>
    <path d="M 146.86500549316406 99.97530364990234 C 140.35400390625 90.61170196533203 142.1840057373047 86.58799743652344 146.5290069580078 106.60199737548828" stroke-width="3.0" fill="none" stroke="rgb(0, 255, 0)" stroke-opacity="1" stroke-linecap="round" stroke-linejoin="round"/>
    <path d="M 176.8350067138672 62.16709899902344 C 125.65499877929688 51.31639862060547 157.5189971923828 87.97979736328125 183.75999450683594 74.75479888916016" stroke-width="3.0" fill="none" stroke="rgb(0, 255, 0)" stroke-opacity="1" stroke-linecap="round" stroke-linejoin="round"/>
    <path d="M 125.38200378417969 84.49259948730469 C 123.197998046875 54.94129943847656 171.64599609375 51.94350051879883 177.34800720214844 79.44239807128906" stroke-width="3.0" fill="none" stroke="rgb(0, 255, 0)" stroke-opacity="1" stroke-linecap="round" stroke-linejoin="round"/>
    <path d="M 182.45199584960938 155.43600463867188 C 181.0919952392578 172.01400756835938 171.95799255371094 167.66299438476562 146.4149932861328 205.02200317382812" stroke-width="3.0" fill="none" stroke="rgb(0, 255, 0)" stroke-opacity="1" stroke-linecap="round" stroke-linejoin="round"/>
    <path d="M 167.2550048828125 63.69129943847656 C 168.79800415039062 120.2959976196289 146.69200134277344 159.1790008544922 172.1510009765625 106.78199768066406" stroke-width="3.0" fill="none" stroke="rgb(0, 255, 0)" stroke-opacity="1" stroke-linecap="round" stroke-linejoin="round"/>
    <path d="M 73.9365005493164 185.57000732421875 C 49.49620056152344 96.93160247802734 70.26029968261719 89.8468017578125 92.01419830322266 206.95700073242188" stroke-width="3.0" fill="none" stroke="rgb(0, 255, 0)" stroke-opacity="1" stroke-linecap="round" stroke-linejoin="round"/>
    <path d="M 134.72999572753906 211.62399291992188 C 142.32699584960938 161.906005859375 132.947998046875 184.45199584960938 162.72799682617188 143.43099975585938" stroke-width="3.0" fill="none" stroke="rgb(0, 255, 0)" stroke-opacity="1" stroke-linecap="round" stroke-linejoin="round"/>
    <path d="M 178.41700744628906 64.79499816894531 C 195.24400329589844 108.37899780273438 199.343994140625 116.51899719238281 182.3489990234375 72.67330169677734" stroke-width="3.0" fill="none" stroke="rgb(0, 255, 0)" stroke-opacity="1" stroke-linecap="round" stroke-linejoin="round"/>
    <path d="M 145.62899780273438 174.5570068359375 C 145.62899780273438 127.69300079345703 124.81199645996094 152.5709991455078 119.88200378417969 135.79299926757812" stroke-width="3.0" fill="none" stroke="rgb(0, 255, 0)" stroke-opacity="1" stroke-linecap="round" stroke-linejoin="round"/>
    <path d="M 135.17300415039062 95.34919738769531 C 168.1510009765625 112.54000091552734 118.09100341796875 95.0625991821289 132.94000244140625 105.26599884033203" stroke-width="3.0" fill="none" stroke="rgb(0, 255, 0)" stroke-opacity="1" stroke-linecap="round" stroke-linejoin="round"/>
    <path d="M 214.45199584960938 209.5260009765625 C 207.031005859375 209.8300018310547 210.73500061035156 191.38800048828125 207.84800720214844 181.3179931640625" stroke-width="3.0" fill="none" stroke="rgb(0, 255, 0)" stroke-opacity="1" stroke-linecap="round" stroke-linejoin="round"/>
    <path d="M 197.7310028076172 180.32699584960938 C 194.5780029296875 211.30299377441406 232.16600036621094 213.92300415039062 183.42599487304688 102.81400299072266" stroke-width="3.0" fill="none" stroke="rgb(0, 255, 0)" stroke-opacity="1" stroke-linecap="round" stroke-linejoin="round"/>
    <path d="M 48.33150100708008 116.8280029296875 C 58.11869812011719 134.3990020751953 79.23359680175781 131.5760040283203 58.63399887084961 132.73599243164062" stroke-width="3.0" fill="none" stroke="rgb(0, 255, 0)" stroke-opacity="1" stroke-linecap="round" stroke-linejoin="round"/>
    <path d="M 164.76600646972656 138.36199951171875 C 150.26699829101562 169.88400268554688 136.91799926757812 121.86499786376953 121.1449966430664 187.79600524902344" stroke-width="3.0" fill="none" stroke="rgb(0, 255, 0)" stroke-opacity="1" stroke-linecap="round" stroke-linejoin="round"/>
    <path d="M 85.1541976928711 134.92100524902344 C 74.94950103759766 128.3800048828125 97.75800323486328 137.99899291992188 80.03279876708984 131.6300048828125" stroke-width="3.0" fill="none" stroke="rgb(255, 0, 0)" stroke-opacity="1" stroke-linecap="round" stroke-linejoin="round"/>
    <path d="M 65.28970336914062 125.10600280761719 C 106.4739990234375 146.2010040283203 93.6312026977539 135.0749969482422 51.740501403808594 118.46299743652344" stroke-width="3.0" fill="none" stroke="rgb(255, 0, 0)" stroke-opacity="1" stroke-linecap="round" stroke-linejoin="round"/>
    <path d="M 88.00299835205078 129.81900024414062 C 94.69580078125 125.3280029296875 54.50429916381836 121.19599914550781 80.45010375976562 136.7949981689453" stroke-width="3.0" fill="none" stroke="rgb(255, 0, 0)" stroke-opacity="1" stroke-linecap="round" stroke-linejoin="round"/>
    <path d="M 71.41780090332031 125.27400207519531 C 110.01899719238281 131.21400451660156 84.90950012207031 141.9290008544922 81.49819946289062 129.23699951171875" stroke-width="3.0" fill="none" stroke="rgb(255, 0, 0)" stroke-opacity="1" stroke-linecap="round" stroke-linejoin="round"/>
    <path d="M 75.7947998046875 129.56399536132812 C 91.68890380859375 133.60699462890625 90.31639862060547 120.81400299072266 97.908203125 130.6649932861328" stroke-width="3.0" fill="none" stroke="rgb(255, 0, 0)" stroke-opacity="1" stroke-linecap="round" stroke-linejoin="round"/>
    <path d="M 88.46929931640625 125.28900146484375 C 101.14199829101562 143.80799865722656 114.20800018310547 119.76100158691406 80.36409759521484 129.68899536132812" stroke-width="3.0" fill="none" stroke="rgb(255, 0, 0)" stroke-opacity="1" stroke-linecap="round" stroke-linejoin="round"/>
    <path d="M 90.6187973022461 133.20799255371094 C 36.784698486328125 116.39299774169922 71.94029998779297 128.0240020751953 93.34860229492188 135.10299682617188" stroke-width="3.0" fill="none" stroke="rgb(255, 0, 0)" stroke-opacity="1" stroke-linecap="round" stroke-linejoin="round"/>
    <path d="M 95.71510314941406 133.51100158691406 C 95.27909851074219 118.92400360107422 68.07340240478516 126.99800109863281 99.7354965209961 131.94200134277344" stroke-width="3.0" fill="none" stroke="rgb(255, 0, 0)" stroke-opacity="1" stroke-linecap="round" stroke-linejoin="round"/>
    <path d="M 95.65059661865234 135.02699279785156 C 73.73870086669922 115.947998046875 36.67770004272461 119.60299682617188 94.64029693603516 133.83399963378906" stroke-width="3.0" fill="none" stroke="rgb(255, 0, 0)" stroke-opacity="1" stroke-linecap="round" stroke-linejoin="round"/>
    <path d="M 84.55180358886719 133.7050018310547 C 112.22000122070312 128.2790069580078 116.6050033569336 131.53799438476562 90.22489929199219 135.68499755859375" stroke-width="3.0" fill="none" stroke="rgb(255, 0, 0)" stroke-opacity="1" stroke-linecap="round" stroke-linejoin="round"/>
    <path d="M 95.00019836425781 125.15699768066406 C 119.4209976196289 142.29100036621094 92.1436996459961 140.75599670410156 81.908203125 133.64999389648438" stroke-width="3.0" fill="none" stroke="rgb(255, 0, 0)" stroke-opacity="1" stroke-linecap="round" stroke-linejoin="round"/>
    <path d="M 69.841796875 127.8030014038086 C 102.4260025024414 132.5 104.55000305175781 141.62600708007812 80.31639862060547 137.39199829101562" stroke-width="3.0" fill="none" stroke="rgb(255, 0, 0)" stroke-opacity="1" stroke-linecap="round" stroke-linejoin="round"/>
    <path d="M 48.67729949951172 116.69999694824219 C 47.82740020751953 122.47699737548828 113.3030014038086 137.86000061035156 83.42320251464844 131.427001953125" stroke-width="3.0" fill="none" stroke="rgb(255, 0, 0)" stroke-opacity="1" stroke-linecap="round" stroke-linejoin="round"/>
    <path d="M 82.25810241699219 133.0399932861328 C 90.31520080566406 129.4149932861328 109.3550033569336 122.54100036621094 83.9811019897461 136.572998046875" stroke-width="3.0" fill="none" stroke="rgb(255, 0, 0)" stroke-opacity="1" stroke-linecap="round" stroke-linejoin="round"/>
    <path d="M 56.9822998046875 124.36699676513672 C 80.95649719238281 126.21800231933594 68.86540222167969 136.16200256347656 98.3114013671875 130.43299865722656" stroke-width="3.0" fill="none" stroke="rgb(255, 0, 0)" stroke-opacity="1" stroke-linecap="round" stroke-linejoin="round"/>
    <path d="M 83.23480224609375 133.81399536132812 C 117.6719970703125 136.85499572753906 106.40399932861328 137.68299865722656 95.46700286865234 136.4219970703125" stroke-width="3.0" fill="none" stroke="rgb(255, 0, 0)" stroke-opacity="1" stroke-linecap="round" stroke-linejoin="round"/>
  </g>
</svg>
