<?xml version="1.0" ?>
<svg xmlns="http://www.w3.org/2000/svg" version="1.1" width="256" height="256">
  <defs/>
  <g>
    <path d="M 62.893798828125 247.8280029296875 C 55.424598693847656 247.8280029296875 58.72760009765625 296.635009765625 58.72760009765625 11.0" stroke-width="2.0" fill="none" stroke="rgb(0, 0, 255)" stroke-opacity="1" stroke-linecap="round" stroke-linejoin="round"/>
    <path d="M 58.0 9.166110038757324 C 65.46920013427734 9.166110038757324 62.16619873046875 -39.63999938964844 62.16619873046875 245.9949951171875" stroke-width="2.0" fill="none" stroke="rgb(0, 0, 255)" stroke-opacity="1" stroke-linecap="round" stroke-linejoin="round"/>
    <path d="M 198.55799865722656 247.8280029296875 C 191.08900451660156 247.8280029296875 194.39199829101562 296.635009765625 194.39199829101562 11.0" stroke-width="2.0" fill="none" stroke="rgb(0, 0, 255)" stroke-opacity="1" stroke-linecap="round" stroke-linejoin="round"/>
    <path d="M 194.1060028076172 14.17140007019043 C 201.5749969482422 14.17140007019043 198.27200317382812 -34.634700775146484 198.27200317382812 251.0" stroke-width="2.0" fill="none" stroke="rgb(0, 0, 255)" stroke-opacity="1" stroke-linecap="round" stroke-linejoin="round"/>
    <path d="M 128.73899841308594 49.48460006713867 C 124.3030014038086 49.48460006713867 126.26499938964844 57.41559982299805 126.26499938964844 11.0" stroke-width="2.0" fill="none" stroke="rgb(0, 0, 255)" stroke-opacity="1" stroke-linecap="round" stroke-linejoin="round"/>
    <path d="M 126.09500122070312 11.515399932861328 C 130.531005859375 11.515399932861328 128.56900024414062 3.5843799114227295 128.56900024414062 50.0" stroke-width="2.0" fill="none" stroke="rgb(0, 0, 255)" stroke-opacity="1" stroke-linecap="round" stroke-linejoin="round"/>
    <path d="M 128.37600708007812 115.48500061035156 C 124.49400329589844 115.48500061035156 126.21099853515625 123.41600036621094 126.21099853515625 77.0" stroke-width="2.0" fill="none" stroke="rgb(0, 0, 255)" stroke-opacity="1" stroke-linecap="round" stroke-linejoin="round"/>
    <path d="M 126.22899627685547 77.5145034790039 C 130.11000061035156 77.5145034790039 128.39300537109375 69.58350372314453 128.39300537109375 115.9990005493164" stroke-width="2.0" fill="none" stroke="rgb(0, 0, 255)" stroke-opacity="1" stroke-linecap="round" stroke-linejoin="round"/>
    <path d="M 128.77200317382812 241.48500061035156 C 124.88999938964844 241.48500061035156 126.60700225830078 249.41600036621094 126.60700225830078 203.0" stroke-width="2.0" fill="none" stroke="rgb(0, 0, 255)" stroke-opacity="1" stroke-linecap="round" stroke-linejoin="round"/>
    <path d="M 126.45800018310547 203.51499938964844 C 130.33900451660156 203.51499938964844 128.6230010986328 195.58399963378906 128.6230010986328 242.0" stroke-width="2.0" fill="none" stroke="rgb(0, 0, 255)" stroke-opacity="1" stroke-linecap="round" stroke-linejoin="round"/>
    <path d="M 128.77200317382812 183.48500061035156 C 124.88999938964844 183.48500061035156 126.60700225830078 191.41600036621094 126.60700225830078 145.0" stroke-width="2.0" fill="none" stroke="rgb(0, 0, 255)" stroke-opacity="1" stroke-linecap="round" stroke-linejoin="round"/>
    <path d="M 126.45800018310547 145.51499938964844 C 130.33900451660156 145.51499938964844 128.6230010986328 137.58399963378906 128.6230010986328 184.0" stroke-width="2.0" fill="none" stroke="rgb(0, 0, 255)" stroke-opacity="1" stroke-linecap="round" stroke-linejoin="round"/>
    <path d="M 175.6719970703125 121.8030014038086 C 179.61199951171875 141.6009979248047 173.2689971923828 146.5489959716797 174.2310028076172 165.8470001220703" stroke-width="1.5" fill="none" stroke="rgb(0, 255, 0)" stroke-opacity="1" stroke-linecap="round" stroke-linejoin="round"/>
    <path d="M 152.91299438476562 171.05499267578125 C 155.82400512695312 162.62399291992188 152.38600158691406 170.531005859375 170.5469970703125 168.2259979248047" stroke-width="1.5" fill="none" stroke="rgb(0, 255, 0)" stroke-opacity="1" stroke-linecap="round" stroke-linejoin="round"/>
    <path d="M 174.34100341796875 165.03599548339844 C 178.19400024414062 127.03099822998047 176.10800170898438 136.0240020751953 173.53199768066406 164.38999938964844" stroke-width="1.5" fill="none" stroke="rgb(0, 255, 0)" stroke-opacity="1" stroke-linecap="round" stroke-linejoin="round"/>
    <path d="M 175.58999633789062 136.89599609375 C 174.34300231933594 182.47300720214844 171.3000030517578 165.11700439453125 174.06399536132812 145.5919952392578" stroke-width="1.5" fill="none" stroke="rgb(0, 255, 0)" stroke-opacity="1" stroke-linecap="round" stroke-linejoin="round"/>
    <path d="M 162.4720001220703 140.18099975585938 C 171.88800048828125 141.74899291992188 174.3179931640625 138.9149932861328 154.98399353027344 137.1179962158203" stroke-width="1.5" fill="none" stroke="rgb(0, 255, 0)" stroke-opacity="1" stroke-linecap="round" stroke-linejoin="round"/>
    <path d="M 150.4320068359375 143.89100646972656 C 151.58200073242188 174.34100341796875 155.27999877929688 167.99099731445312 151.0850067138672 164.08999633789062" stroke-width="1.5" fill="none" stroke="rgb(0, 255, 0)" stroke-opacity="1" stroke-linecap="round" stroke-linejoin="round"/>
    <path d="M 167.7550048828125 141.19700622558594 C 150.677001953125 139.6719970703125 153.7310028076172 136.9530029296875 155.12100219726562 143.42100524902344" stroke-width="1.5" fill="none" stroke="rgb(0, 255, 0)" stroke-opacity="1" stroke-linecap="round" stroke-linejoin="round"/>
    <path d="M 152.2519989013672 169.68699645996094 C 157.88999938964844 158.177001953125 146.69000244140625 173.375 155.8820037841797 175.0" stroke-width="1.5" fill="none" stroke="rgb(0, 255, 0)" stroke-opacity="1" stroke-linecap="round" stroke-linejoin="round"/>
    <path d="M 173.64199829101562 169.98800659179688 C 172.69500732421875 169.02000427246094 172.94500732421875 164.19400024414062 173.89700317382812 172.52699279785156" stroke-width="1.5" fill="none" stroke="rgb(0, 255, 0)" stroke-opacity="1" stroke-linecap="round" stroke-linejoin="round"/>
    <path d="M 171.06199645996094 140.8249969482422 C 159.23699951171875 143.9429931640625 153.95199584960938 139.35899353027344 172.04100036621094 144.5189971923828" stroke-width="1.5" fill="none" stroke="rgb(0, 255, 0)" stroke-opacity="1" stroke-linecap="round" stroke-linejoin="round"/>
    <path d="M 171.33999633789062 173.302001953125 C 171.00799560546875 167.71099853515625 168.72500610351562 166.4320068359375 172.06199645996094 173.29400634765625" stroke-width="1.5" fill="none" stroke="rgb(0, 255, 0)" stroke-opacity="1" stroke-linecap="round" stroke-linejoin="round"/>
    <path d="M 150.0 137.9459991455078 C 151.8159942626953 158.0189971923828 151.2169952392578 152.42999267578125 150.79100036621094 149.5749969482422" stroke-width="1.5" fill="none" stroke="rgb(0, 255, 0)" stroke-opacity="1" stroke-linecap="round" stroke-linejoin="round"/>
    <path d="M 150.322998046875 140.43899536132812 C 149.40699768066406 112.04199981689453 154.68699645996094 122.36699676513672 152.96600341796875 123.58999633789062" stroke-width="1.5" fill="none" stroke="rgb(0, 255, 0)" stroke-opacity="1" stroke-linecap="round" stroke-linejoin="round"/>
    <path d="M 171.72300720214844 136.9340057373047 C 154.33799743652344 136.8000030517578 161.73199462890625 125.68099975585938 172.70799255371094 135.6479949951172" stroke-width="1.5" fill="none" stroke="rgb(0, 255, 0)" stroke-opacity="1" stroke-linecap="round" stroke-linejoin="round"/>
    <path d="M 166.8260040283203 116.40499877929688 C 171.68299865722656 117.31700134277344 171.3260040283203 118.3479995727539 173.7449951171875 125.24199676513672" stroke-width="1.5" fill="none" stroke="rgb(0, 255, 0)" stroke-opacity="1" stroke-linecap="round" stroke-linejoin="round"/>
    <path d="M 170.35000610351562 169.71499633789062 C 174.14500427246094 168.13699340820312 168.0959930419922 167.875 172.25799560546875 172.2469940185547" stroke-width="1.5" fill="none" stroke="rgb(0, 255, 0)" stroke-opacity="1" stroke-linecap="round" stroke-linejoin="round"/>
    <path d="M 171.1739959716797 169.7259979248047 C 176.02999877929688 170.6060028076172 174.85899353027344 170.1510009765625 171.156005859375 163.54800415039062" stroke-width="1.5" fill="none" stroke="rgb(0, 255, 0)" stroke-opacity="1" stroke-linecap="round" stroke-linejoin="round"/>
    <path d="M 174.13600158691406 165.3979949951172 C 175.10899353027344 162.2989959716797 173.48800659179688 169.87100219726562 172.21299743652344 171.63299560546875" stroke-width="1.5" fill="none" stroke="rgb(0, 255, 0)" stroke-opacity="1" stroke-linecap="round" stroke-linejoin="round"/>
    <path d="M 169.947998046875 174.46400451660156 C 171.91700744628906 174.343994140625 175.69900512695312 171.8699951171875 171.66400146484375 166.0229949951172" stroke-width="1.5" fill="none" stroke="rgb(0, 255, 0)" stroke-opacity="1" stroke-linecap="round" stroke-linejoin="round"/>
    <path d="M 160.43299865722656 166.79600524902344 C 153.38900756835938 167.30799865722656 149.14100646972656 161.19200134277344 163.0489959716797 165.12600708007812" stroke-width="1.5" fill="none" stroke="rgb(0, 255, 0)" stroke-opacity="1" stroke-linecap="round" stroke-linejoin="round"/>
    <path d="M 153.94700622558594 151.18800354003906 C 153.83900451660156 139.968994140625 149.11199951171875 132.8979949951172 153.68600463867188 121.91999816894531" stroke-width="1.5" fill="none" stroke="rgb(0, 255, 0)" stroke-opacity="1" stroke-linecap="round" stroke-linejoin="round"/>
    <path d="M 159.1929931640625 174.0399932861328 C 151.37399291992188 174.1479949951172 151.21400451660156 170.2259979248047 151.18699645996094 160.26499938964844" stroke-width="1.5" fill="none" stroke="rgb(0, 255, 0)" stroke-opacity="1" stroke-linecap="round" stroke-linejoin="round"/>
    <path d="M 173.468994140625 133.54299926757812 C 159.36500549316406 126.21600341796875 150.91000366210938 133.1750030517578 171.1649932861328 134.08799743652344" stroke-width="1.5" fill="none" stroke="rgb(0, 255, 0)" stroke-opacity="1" stroke-linecap="round" stroke-linejoin="round"/>
    <path d="M 171.11500549316406 165.23899841308594 C 171.0570068359375 176.91200256347656 170.6300048828125 165.7779998779297 171.08700561523438 151.75100708007812" stroke-width="1.5" fill="none" stroke="rgb(0, 255, 0)" stroke-opacity="1" stroke-linecap="round" stroke-linejoin="round"/>
    <path d="M 172.9010009765625 134.3520050048828 C 158.92999267578125 133.4980010986328 162.1230010986328 126.54900360107422 169.5970001220703 141.5590057373047" stroke-width="1.5" fill="none" stroke="rgb(0, 255, 0)" stroke-opacity="1" stroke-linecap="round" stroke-linejoin="round"/>
    <path d="M 171.40899658203125 169.8419952392578 C 173.36599731445312 167.11099243164062 177.72900390625 171.1909942626953 171.6020050048828 173.76400756835938" stroke-width="1.5" fill="none" stroke="rgb(0, 255, 0)" stroke-opacity="1" stroke-linecap="round" stroke-linejoin="round"/>
    <path d="M 172.90899658203125 164.822998046875 C 172.4040069580078 136.63299560546875 179.2519989013672 138.13999938964844 174.33700561523438 121.0459976196289" stroke-width="1.5" fill="none" stroke="rgb(0, 255, 0)" stroke-opacity="1" stroke-linecap="round" stroke-linejoin="round"/>
    <path d="M 163.0850067138672 137.79800415039062 C 176.0279998779297 141.70399475097656 170.91700744628906 142.56100463867188 167.86000061035156 141.44700622558594" stroke-width="1.5" fill="none" stroke="rgb(0, 255, 0)" stroke-opacity="1" stroke-linecap="round" stroke-linejoin="round"/>
    <path d="M 163.60299682617188 138.33200073242188 C 166.72500610351562 141.13800048828125 177.7429962158203 122.00700378417969 171.06700134277344 141.88499450683594" stroke-width="1.5" fill="none" stroke="rgb(0, 255, 0)" stroke-opacity="1" stroke-linecap="round" stroke-linejoin="round"/>
    <path d="M 173.35699462890625 170.76300048828125 C 168.3209991455078 170.26600646972656 171.37899780273438 168.74899291992188 170.27699279785156 167.00900268554688" stroke-width="1.5" fill="none" stroke="rgb(0, 255, 0)" stroke-opacity="1" stroke-linecap="round" stroke-linejoin="round"/>
    <path d="M 166.218994140625 140.3520050048828 C 147.02499389648438 135.53799438476562 151.00999450683594 132.9029998779297 172.75 133.86199951171875" stroke-width="1.5" fill="none" stroke="rgb(0, 255, 0)" stroke-opacity="1" stroke-linecap="round" stroke-linejoin="round"/>
    <path d="M 153.89999389648438 152.32400512695312 C 153.36599731445312 152.05099487304688 155.5709991455078 153.78500366210938 151.32200622558594 151.80799865722656" stroke-width="1.5" fill="none" stroke="rgb(0, 255, 0)" stroke-opacity="1" stroke-linecap="round" stroke-linejoin="round"/>
    <path d="M 172.23899841308594 118.33000183105469 C 169.39999389648438 116.76699829101562 179.62100219726562 123.70600128173828 173.8070068359375 122.52999877929688" stroke-width="1.5" fill="none" stroke="rgb(0, 255, 0)" stroke-opacity="1" stroke-linecap="round" stroke-linejoin="round"/>
    <path d="M 177.0 136.7550048828125 C 176.89300537109375 136.0070037841797 175.4010009765625 170.73699951171875 174.70599365234375 170.03500366210938" stroke-width="1.5" fill="none" stroke="rgb(0, 255, 0)" stroke-opacity="1" stroke-linecap="round" stroke-linejoin="round"/>
    <path d="M 154.27999877929688 145.822998046875 C 156.05799865722656 155.7949981689453 153.44500732421875 169.35800170898438 154.51300048828125 163.36199951171875" stroke-width="1.5" fill="none" stroke="rgb(0, 255, 0)" stroke-opacity="1" stroke-linecap="round" stroke-linejoin="round"/>
    <path d="M 170.92100524902344 171.3179931640625 C 170.95599365234375 151.67100524902344 171.06399536132812 151.40499877929688 172.30299377441406 145.468994140625" stroke-width="1.5" fill="none" stroke="rgb(0, 255, 0)" stroke-opacity="1" stroke-linecap="round" stroke-linejoin="round"/>
    <path d="M 170.906005859375 168.53900146484375 C 174.79100036621094 162.49400329589844 168.88499450683594 165.406005859375 163.57200622558594 165.34300231933594" stroke-width="1.5" fill="none" stroke="rgb(0, 255, 0)" stroke-opacity="1" stroke-linecap="round" stroke-linejoin="round"/>
    <path d="M 172.70599365234375 166.3179931640625 C 171.84500122070312 175.71499633789062 172.7480010986328 173.60699462890625 171.60000610351562 168.81100463867188" stroke-width="1.5" fill="none" stroke="rgb(0, 255, 0)" stroke-opacity="1" stroke-linecap="round" stroke-linejoin="round"/>
    <path d="M 168.49899291992188 139.18600463867188 C 175.24200439453125 141.24600219726562 169.19400024414062 135.50100708007812 166.25 136.85899353027344" stroke-width="1.5" fill="none" stroke="rgb(0, 255, 0)" stroke-opacity="1" stroke-linecap="round" stroke-linejoin="round"/>
    <path d="M 154.50900268554688 138.99099731445312 C 153.81900024414062 141.68099975585938 155.7010040283203 149.49000549316406 152.62399291992188 133.50900268554688" stroke-width="1.5" fill="none" stroke="rgb(0, 255, 0)" stroke-opacity="1" stroke-linecap="round" stroke-linejoin="round"/>
    <path d="M 155.8509979248047 166.1320037841797 C 173.5469970703125 170.66099548339844 169.41900634765625 160.72500610351562 173.54299926757812 169.125" stroke-width="1.5" fill="none" stroke="rgb(0, 255, 0)" stroke-opacity="1" stroke-linecap="round" stroke-linejoin="round"/>
    <path d="M 154.48500061035156 118.52100372314453 C 149.13999938964844 123.95600128173828 155.66700744628906 120.86699676513672 151.32699584960938 123.01399993896484" stroke-width="1.5" fill="none" stroke="rgb(0, 255, 0)" stroke-opacity="1" stroke-linecap="round" stroke-linejoin="round"/>
    <path d="M 167.4040069580078 165.34500122070312 C 167.45799255371094 165.63999938964844 158.11199951171875 164.45399475097656 163.31100463867188 162.72799682617188" stroke-width="1.5" fill="none" stroke="rgb(0, 255, 0)" stroke-opacity="1" stroke-linecap="round" stroke-linejoin="round"/>
    <path d="M 152.43699645996094 169.82899475097656 C 149.9530029296875 169.00900268554688 156.80999755859375 161.16200256347656 151.55999755859375 166.468994140625" stroke-width="1.5" fill="none" stroke="rgb(0, 255, 0)" stroke-opacity="1" stroke-linecap="round" stroke-linejoin="round"/>
    <path d="M 171.1179962158203 137.98899841308594 C 158.78599548339844 133.74400329589844 164.44500732421875 133.03500366210938 172.1820068359375 136.24600219726562" stroke-width="1.5" fill="none" stroke="rgb(0, 255, 0)" stroke-opacity="1" stroke-linecap="round" stroke-linejoin="round"/>
    <path d="M 169.1009979248047 133.6649932861328 C 162.1060028076172 130.0489959716797 171.28900146484375 132.0850067138672 166.43899536132812 130.9080047607422" stroke-width="1.5" fill="none" stroke="rgb(0, 255, 0)" stroke-opacity="1" stroke-linecap="round" stroke-linejoin="round"/>
    <path d="M 162.7209930419922 131.64500427246094 C 168.82000732421875 134.89599609375 163.9739990234375 138.07400512695312 160.16000366210938 134.19900512695312" stroke-width="1.5" fill="none" stroke="rgb(0, 255, 0)" stroke-opacity="1" stroke-linecap="round" stroke-linejoin="round"/>
    <path d="M 171.7899932861328 147.88600158691406 C 171.70399475097656 147.75599670410156 173.08299255371094 136.53500366210938 171.23699951171875 152.3560028076172" stroke-width="1.5" fill="none" stroke="rgb(0, 255, 0)" stroke-opacity="1" stroke-linecap="round" stroke-linejoin="round"/>
    <path d="M 175.19000244140625 148.41700744628906 C 174.6009979248047 148.5679931640625 175.76400756835938 148.0260009765625 176.01300048828125 137.28599548339844" stroke-width="1.5" fill="none" stroke="rgb(0, 255, 0)" stroke-opacity="1" stroke-linecap="round" stroke-linejoin="round"/>
    <path d="M 171.05099487304688 144.08700561523438 C 150.6009979248047 141.33200073242188 154.68600463867188 147.572998046875 155.08900451660156 141.76600646972656" stroke-width="1.5" fill="none" stroke="rgb(0, 255, 0)" stroke-opacity="1" stroke-linecap="round" stroke-linejoin="round"/>
    <path d="M 170.8730010986328 166.08200073242188 C 173.04200744628906 169.7169952392578 177.8719940185547 176.1750030517578 155.3209991455078 173.7270050048828" stroke-width="1.5" fill="none" stroke="rgb(0, 255, 0)" stroke-opacity="1" stroke-linecap="round" stroke-linejoin="round"/>
    <path d="M 163.0749969482422 132.2220001220703 C 155.3560028076172 133.8000030517578 156.3939971923828 128.8939971923828 163.53599548339844 133.052001953125" stroke-width="1.5" fill="none" stroke="rgb(0, 255, 0)" stroke-opacity="1" stroke-linecap="round" stroke-linejoin="round"/>
    <path d="M 154.3179931640625 139.2519989013672 C 154.99400329589844 124.55000305175781 152.94000244140625 138.7270050048828 155.77099609375 141.22300720214844" stroke-width="1.5" fill="none" stroke="rgb(0, 255, 0)" stroke-opacity="1" stroke-linecap="round" stroke-linejoin="round"/>
    <path d="M 160.6060028076172 131.7969970703125 C 163.5189971923828 136.218994140625 161.44400024414062 138.3419952392578 166.05299377441406 135.54200744628906" stroke-width="1.5" fill="none" stroke="rgb(0, 255, 0)" stroke-opacity="1" stroke-linecap="round" stroke-linejoin="round"/>
    <path d="M 163.12399291992188 164.7310028076172 C 159.58299255371094 161.79800415039062 164.23399353027344 164.31399536132812 162.17599487304688 163.7469940185547" stroke-width="1.5" fill="none" stroke="rgb(0, 255, 0)" stroke-opacity="1" stroke-linecap="round" stroke-linejoin="round"/>
    <path d="M 171.5399932861328 140.52499389648438 C 159.47000122070312 127.93499755859375 162.718994140625 136.6959991455078 166.94900512695312 133.19000244140625" stroke-width="1.5" fill="none" stroke="rgb(0, 255, 0)" stroke-opacity="1" stroke-linecap="round" stroke-linejoin="round"/>
    <path d="M 159.66700744628906 131.406005859375 C 166.14999389648438 139.88499450683594 171.68099975585938 136.31199645996094 165.8520050048828 132.5260009765625" stroke-width="1.5" fill="none" stroke="rgb(0, 255, 0)" stroke-opacity="1" stroke-linecap="round" stroke-linejoin="round"/>
    <path d="M 156.17100524902344 136.03700256347656 C 168.802001953125 139.0 175.2519989013672 141.18899536132812 162.7570037841797 133.59500122070312" stroke-width="1.5" fill="none" stroke="rgb(0, 255, 0)" stroke-opacity="1" stroke-linecap="round" stroke-linejoin="round"/>
    <path d="M 154.10000610351562 133.1540069580078 C 152.1269989013672 133.15499877929688 153.1510009765625 130.84300231933594 160.74099731445312 129.74099731445312" stroke-width="1.5" fill="none" stroke="rgb(0, 255, 0)" stroke-opacity="1" stroke-linecap="round" stroke-linejoin="round"/>
    <path d="M 158.7259979248047 132.1219940185547 C 170.9669952392578 127.927001953125 169.48800659179688 134.01400756835938 153.94900512695312 132.6529998779297" stroke-width="1.5" fill="none" stroke="rgb(0, 255, 0)" stroke-opacity="1" stroke-linecap="round" stroke-linejoin="round"/>
    <path d="M 163.25799560546875 166.4810028076172 C 163.1320037841797 161.1510009765625 164.44000244140625 162.64599609375 163.83700561523438 164.11000061035156" stroke-width="1.5" fill="none" stroke="rgb(0, 255, 0)" stroke-opacity="1" stroke-linecap="round" stroke-linejoin="round"/>
    <path d="M 165.38400268554688 129.86099243164062 C 159.6840057373047 127.80699920654297 175.6750030517578 130.8679962158203 175.05499267578125 132.4080047607422" stroke-width="1.5" fill="none" stroke="rgb(0, 255, 0)" stroke-opacity="1" stroke-linecap="round" stroke-linejoin="round"/>
    <path d="M 153.26100158691406 132.77699279785156 C 154.552001953125 137.88999938964844 153.8159942626953 136.7530059814453 173.02999877929688 135.65499877929688" stroke-width="1.5" fill="none" stroke="rgb(0, 255, 0)" stroke-opacity="1" stroke-linecap="round" stroke-linejoin="round"/>
    <path d="M 153.92599487304688 131.64999389648438 C 154.11099243164062 136.2779998779297 152.04200744628906 144.69200134277344 164.281005859375 140.48300170898438" stroke-width="1.5" fill="none" stroke="rgb(0, 255, 0)" stroke-opacity="1" stroke-linecap="round" stroke-linejoin="round"/>
    <path d="M 174.83999633789062 170.41299438476562 C 175.1009979248047 169.08299255371094 175.08599853515625 174.2969970703125 171.0489959716797 165.0679931640625" stroke-width="1.5" fill="none" stroke="rgb(0, 255, 0)" stroke-opacity="1" stroke-linecap="round" stroke-linejoin="round"/>
    <path d="M 166.0959930419922 136.17300415039062 C 175.3000030517578 139.9199981689453 174.35299682617188 134.12100219726562 158.9250030517578 130.6719970703125" stroke-width="1.5" fill="none" stroke="rgb(0, 255, 0)" stroke-opacity="1" stroke-linecap="round" stroke-linejoin="round"/>
    <path d="M 170.06399536132812 168.62899780273438 C 171.9340057373047 176.06500244140625 170.2949981689453 175.12399291992188 172.31500244140625 166.54299926757812" stroke-width="1.5" fill="none" stroke="rgb(0, 255, 0)" stroke-opacity="1" stroke-linecap="round" stroke-linejoin="round"/>
    <path d="M 172.4219970703125 132.3520050048828 C 161.90699768066406 123.97100067138672 146.24000549316406 136.08200073242188 158.63400268554688 130.44000244140625" stroke-width="1.5" fill="none" stroke="rgb(0, 255, 0)" stroke-opacity="1" stroke-linecap="round" stroke-linejoin="round"/>
    <path d="M 172.58999633789062 142.50900268554688 C 171.38999938964844 148.2480010986328 173.43899536132812 141.59800720214844 175.03599548339844 132.62899780273438" stroke-width="1.5" fill="none" stroke="rgb(0, 255, 0)" stroke-opacity="1" stroke-linecap="round" stroke-linejoin="round"/>
    <path d="M 170.65199279785156 168.98800659179688 C 173.49899291992188 169.22799682617188 174.1790008544922 172.8179931640625 171.3249969482422 171.0449981689453" stroke-width="1.5" fill="none" stroke="rgb(0, 255, 0)" stroke-opacity="1" stroke-linecap="round" stroke-linejoin="round"/>
    <path d="M 152.00799560546875 168.3159942626953 C 155.3419952392578 162.54100036621094 149.78799438476562 168.64700317382812 152.0240020751953 169.80299377441406" stroke-width="1.5" fill="none" stroke="rgb(0, 255, 0)" stroke-opacity="1" stroke-linecap="round" stroke-linejoin="round"/>
    <path d="M 166.92599487304688 116.47000122070312 C 149.875 113.76100158691406 156.14199829101562 123.72000122070312 152.08099365234375 122.19599914550781" stroke-width="1.5" fill="none" stroke="rgb(0, 255, 0)" stroke-opacity="1" stroke-linecap="round" stroke-linejoin="round"/>
    <path d="M 154.4720001220703 135.9600067138672 C 162.5760040283203 134.38999938964844 158.13900756835938 136.48199462890625 171.79800415039062 138.66700744628906" stroke-width="1.5" fill="none" stroke="rgb(0, 255, 0)" stroke-opacity="1" stroke-linecap="round" stroke-linejoin="round"/>
    <path d="M 162.45199584960938 133.0240020751953 C 177.91900634765625 135.5449981689453 171.99899291992188 139.29299926757812 166.552001953125 138.0800018310547" stroke-width="1.5" fill="none" stroke="rgb(0, 255, 0)" stroke-opacity="1" stroke-linecap="round" stroke-linejoin="round"/>
    <path d="M 160.8730010986328 139.906005859375 C 169.48899841308594 142.51100158691406 166.2010040283203 131.69900512695312 161.98300170898438 134.4040069580078" stroke-width="1.5" fill="none" stroke="rgb(0, 255, 0)" stroke-opacity="1" stroke-linecap="round" stroke-linejoin="round"/>
    <path d="M 158.5780029296875 131.60400390625 C 164.93699645996094 134.51800537109375 162.26300048828125 137.27000427246094 172.23899841308594 133.11599731445312" stroke-width="1.5" fill="none" stroke="rgb(0, 255, 0)" stroke-opacity="1" stroke-linecap="round" stroke-linejoin="round"/>
    <path d="M 160.45599365234375 198.15699768066406 C 168.33299255371094 199.05499267578125 171.9149932861328 197.80499267578125 157.3780059814453 196.9709930419922" stroke-width="1.5" fill="none" stroke="rgb(255, 0, 0)" stroke-opacity="1" stroke-linecap="round" stroke-linejoin="round"/>
    <path d="M 173.35899353027344 196.99600219726562 C 170.875 194.22900390625 162.36500549316406 193.4029998779297 166.9010009765625 194.20399475097656" stroke-width="1.5" fill="none" stroke="rgb(255, 0, 0)" stroke-opacity="1" stroke-linecap="round" stroke-linejoin="round"/>
    <path d="M 156.28900146484375 229.80099487304688 C 179.6840057373047 230.60000610351562 160.6230010986328 233.64100646972656 156.64700317382812 231.34800720214844" stroke-width="1.5" fill="none" stroke="rgb(255, 0, 0)" stroke-opacity="1" stroke-linecap="round" stroke-linejoin="round"/>
    <path d="M 170.57400512695312 185.98899841308594 C 162.8489990234375 181.98899841308594 162.3040008544922 184.55999755859375 164.33599853515625 183.41799926757812" stroke-width="1.5" fill="none" stroke="rgb(255, 0, 0)" stroke-opacity="1" stroke-linecap="round" stroke-linejoin="round"/>
    <path d="M 155.01300048828125 220.2550048828125 C 158.4320068359375 240.99099731445312 152.8699951171875 230.93299865722656 151.94200134277344 219.5050048828125" stroke-width="1.5" fill="none" stroke="rgb(255, 0, 0)" stroke-opacity="1" stroke-linecap="round" stroke-linejoin="round"/>
    <path d="M 161.16700744628906 206.34800720214844 C 175.24099731445312 207.63800048828125 174.0989990234375 197.7729949951172 170.781005859375 227.71200561523438" stroke-width="1.5" fill="none" stroke="rgb(255, 0, 0)" stroke-opacity="1" stroke-linecap="round" stroke-linejoin="round"/>
    <path d="M 162.94000244140625 207.22000122070312 C 154.24000549316406 206.656005859375 157.64500427246094 207.36099243164062 167.5500030517578 207.35499572753906" stroke-width="1.5" fill="none" stroke="rgb(255, 0, 0)" stroke-opacity="1" stroke-linecap="round" stroke-linejoin="round"/>
    <path d="M 172.322998046875 206.41299438476562 C 171.93499755859375 208.2169952392578 175.52200317382812 189.5919952392578 172.05999755859375 206.3470001220703" stroke-width="1.5" fill="none" stroke="rgb(255, 0, 0)" stroke-opacity="1" stroke-linecap="round" stroke-linejoin="round"/>
    <path d="M 167.2209930419922 229.77200317382812 C 169.91799926757812 233.29400634765625 173.85499572753906 224.44700622558594 167.3070068359375 232.48399353027344" stroke-width="1.5" fill="none" stroke="rgb(255, 0, 0)" stroke-opacity="1" stroke-linecap="round" stroke-linejoin="round"/>
    <path d="M 153.50900268554688 206.781005859375 C 169.22000122070312 206.10899353027344 160.40899658203125 207.84500122070312 159.66099548339844 206.88699340820312" stroke-width="1.5" fill="none" stroke="rgb(255, 0, 0)" stroke-opacity="1" stroke-linecap="round" stroke-linejoin="round"/>
    <path d="M 166.63099670410156 230.3209991455078 C 171.9720001220703 232.92100524902344 170.72500610351562 221.65899658203125 171.8699951171875 205.6300048828125" stroke-width="1.5" fill="none" stroke="rgb(255, 0, 0)" stroke-opacity="1" stroke-linecap="round" stroke-linejoin="round"/>
    <path d="M 167.52699279785156 218.6580047607422 C 155.6820068359375 218.89100646972656 160.15499877929688 218.71200561523438 168.97500610351562 218.8179931640625" stroke-width="1.5" fill="none" stroke="rgb(255, 0, 0)" stroke-opacity="1" stroke-linecap="round" stroke-linejoin="round"/>
    <path d="M 170.2689971923828 186.00399780273438 C 170.93899536132812 183.6649932861328 155.54400634765625 182.9219970703125 163.27699279785156 184.30999755859375" stroke-width="1.5" fill="none" stroke="rgb(255, 0, 0)" stroke-opacity="1" stroke-linecap="round" stroke-linejoin="round"/>
    <path d="M 173.36900329589844 204.0279998779297 C 170.2530059814453 196.73500061035156 181.92599487304688 207.45199584960938 174.45799255371094 202.8939971923828" stroke-width="1.5" fill="none" stroke="rgb(255, 0, 0)" stroke-opacity="1" stroke-linecap="round" stroke-linejoin="round"/>
    <path d="M 150.5540008544922 218.09300231933594 C 148.1510009765625 199.21499633789062 152.56399536132812 198.67300415039062 148.02499389648438 203.45899963378906" stroke-width="1.5" fill="none" stroke="rgb(255, 0, 0)" stroke-opacity="1" stroke-linecap="round" stroke-linejoin="round"/>
    <path d="M 152.2239990234375 221.552001953125 C 152.23199462890625 199.9709930419922 152.03599548339844 201.1540069580078 152.1739959716797 206.98699951171875" stroke-width="1.5" fill="none" stroke="rgb(255, 0, 0)" stroke-opacity="1" stroke-linecap="round" stroke-linejoin="round"/>
    <path d="M 153.46499633789062 231.30499267578125 C 150.1999969482422 226.48399353027344 148.15499877929688 227.79400634765625 151.25799560546875 211.94900512695312" stroke-width="1.5" fill="none" stroke="rgb(255, 0, 0)" stroke-opacity="1" stroke-linecap="round" stroke-linejoin="round"/>
    <path d="M 171.53500366210938 194.4739990234375 C 170.0500030517578 189.58799743652344 171.48500061035156 193.12100219726562 169.03799438476562 185.08900451660156" stroke-width="1.5" fill="none" stroke="rgb(255, 0, 0)" stroke-opacity="1" stroke-linecap="round" stroke-linejoin="round"/>
    <path d="M 171.59300231933594 201.2220001220703 C 155.9530029296875 202.17999267578125 152.2480010986328 196.77499389648438 171.97999572753906 198.8070068359375" stroke-width="1.5" fill="none" stroke="rgb(255, 0, 0)" stroke-opacity="1" stroke-linecap="round" stroke-linejoin="round"/>
    <path d="M 174.6510009765625 199.91400146484375 C 175.96200561523438 208.8159942626953 175.17799377441406 197.92799377441406 171.85699462890625 195.9250030517578" stroke-width="1.5" fill="none" stroke="rgb(255, 0, 0)" stroke-opacity="1" stroke-linecap="round" stroke-linejoin="round"/>
    <path d="M 172.68099975585938 206.7779998779297 C 174.0330047607422 196.7469940185547 174.58599853515625 206.7030029296875 171.45199584960938 225.2790069580078" stroke-width="1.5" fill="none" stroke="rgb(255, 0, 0)" stroke-opacity="1" stroke-linecap="round" stroke-linejoin="round"/>
    <path d="M 173.4530029296875 187.93899536132812 C 169.74400329589844 188.60899353027344 169.4739990234375 182.5449981689453 173.0570068359375 187.7949981689453" stroke-width="1.5" fill="none" stroke="rgb(255, 0, 0)" stroke-opacity="1" stroke-linecap="round" stroke-linejoin="round"/>
    <path d="M 162.41000366210938 195.65699768066406 C 164.64100646972656 203.2220001220703 149.71600341796875 199.42799377441406 151.4929962158203 202.843994140625" stroke-width="1.5" fill="none" stroke="rgb(255, 0, 0)" stroke-opacity="1" stroke-linecap="round" stroke-linejoin="round"/>
    <path d="M 170.2969970703125 228.75599670410156 C 165.74400329589844 235.08999633789062 168.6999969482422 233.9499969482422 170.72999572753906 227.625" stroke-width="1.5" fill="none" stroke="rgb(255, 0, 0)" stroke-opacity="1" stroke-linecap="round" stroke-linejoin="round"/>
    <path d="M 151.4040069580078 214.53799438476562 C 152.6439971923828 190.65699768066406 152.843994140625 199.58599853515625 150.5780029296875 208.47000122070312" stroke-width="1.5" fill="none" stroke="rgb(255, 0, 0)" stroke-opacity="1" stroke-linecap="round" stroke-linejoin="round"/>
    <path d="M 168.04299926757812 229.49600219726562 C 154.3769989013672 229.95599365234375 148.11700439453125 229.79400634765625 168.3260040283203 228.53199768066406" stroke-width="1.5" fill="none" stroke="rgb(255, 0, 0)" stroke-opacity="1" stroke-linecap="round" stroke-linejoin="round"/>
    <path d="M 154.14300537109375 185.01300048828125 C 158.16700744628906 183.16299438476562 155.3070068359375 183.156005859375 152.7830047607422 195.13499450683594" stroke-width="1.5" fill="none" stroke="rgb(255, 0, 0)" stroke-opacity="1" stroke-linecap="round" stroke-linejoin="round"/>
    <path d="M 172.70199584960938 189.53599548339844 C 174.656005859375 204.26600646972656 170.41000366210938 215.6020050048828 174.0659942626953 199.7760009765625" stroke-width="1.5" fill="none" stroke="rgb(255, 0, 0)" stroke-opacity="1" stroke-linecap="round" stroke-linejoin="round"/>
    <path d="M 165.97300720214844 230.93600463867188 C 180.61000061035156 223.4199981689453 156.34800720214844 230.45399475097656 155.69200134277344 225.40699768066406" stroke-width="1.5" fill="none" stroke="rgb(255, 0, 0)" stroke-opacity="1" stroke-linecap="round" stroke-linejoin="round"/>
    <path d="M 151.69500732421875 206.0850067138672 C 160.93899536132812 208.08399963378906 167.3090057373047 206.45799255371094 152.11199951171875 206.3179931640625" stroke-width="1.5" fill="none" stroke="rgb(255, 0, 0)" stroke-opacity="1" stroke-linecap="round" stroke-linejoin="round"/>
    <path d="M 148.18299865722656 205.4149932861328 C 152.61599731445312 201.54299926757812 153.61500549316406 205.3780059814453 149.875 210.4029998779297" stroke-width="1.5" fill="none" stroke="rgb(255, 0, 0)" stroke-opacity="1" stroke-linecap="round" stroke-linejoin="round"/>
    <path d="M 163.51499938964844 183.31399536132812 C 167.66799926757812 183.5760040283203 169.83599853515625 184.08299255371094 161.85299682617188 183.73699951171875" stroke-width="1.5" fill="none" stroke="rgb(255, 0, 0)" stroke-opacity="1" stroke-linecap="round" stroke-linejoin="round"/>
    <path d="M 152.31300354003906 205.94200134277344 C 146.00399780273438 201.50900268554688 159.35899353027344 204.05299377441406 171.0659942626953 204.27000427246094" stroke-width="1.5" fill="none" stroke="rgb(255, 0, 0)" stroke-opacity="1" stroke-linecap="round" stroke-linejoin="round"/>
    <path d="M 162.0030059814453 183.322998046875 C 157.2220001220703 183.85699462890625 163.86000061035156 182.281005859375 164.8939971923828 183.4320068359375" stroke-width="1.5" fill="none" stroke="rgb(255, 0, 0)" stroke-opacity="1" stroke-linecap="round" stroke-linejoin="round"/>
    <path d="M 154.56399536132812 186.13800048828125 C 146.7570037841797 185.35699462890625 150.1929931640625 201.3769989013672 151.1820068359375 207.7969970703125" stroke-width="1.5" fill="none" stroke="rgb(255, 0, 0)" stroke-opacity="1" stroke-linecap="round" stroke-linejoin="round"/>
    <path d="M 165.2760009765625 197.80099487304688 C 164.30799865722656 202.91000366210938 169.4459991455078 195.4239959716797 155.39700317382812 198.11300659179688" stroke-width="1.5" fill="none" stroke="rgb(255, 0, 0)" stroke-opacity="1" stroke-linecap="round" stroke-linejoin="round"/>
    <path d="M 167.32699584960938 197.58999633789062 C 138.63099670410156 204.60299682617188 158.83900451660156 188.86000061035156 172.56100463867188 199.51499938964844" stroke-width="1.5" fill="none" stroke="rgb(255, 0, 0)" stroke-opacity="1" stroke-linecap="round" stroke-linejoin="round"/>
    <path d="M 159.74000549316406 206.70799255371094 C 169.90899658203125 204.91600036621094 160.6439971923828 208.53799438476562 156.50399780273438 206.52200317382812" stroke-width="1.5" fill="none" stroke="rgb(255, 0, 0)" stroke-opacity="1" stroke-linecap="round" stroke-linejoin="round"/>
    <path d="M 174.3209991455078 219.21800231933594 C 174.3209991455078 215.48800659179688 174.3209991455078 214.7169952392578 174.3209991455078 202.10899353027344" stroke-width="1.5" fill="none" stroke="rgb(255, 0, 0)" stroke-opacity="1" stroke-linecap="round" stroke-linejoin="round"/>
    <path d="M 168.36599731445312 232.58799743652344 C 153.12100219726562 231.7760009765625 150.38699340820312 227.4290008544922 163.51800537109375 229.3679962158203" stroke-width="1.5" fill="none" stroke="rgb(255, 0, 0)" stroke-opacity="1" stroke-linecap="round" stroke-linejoin="round"/>
    <path d="M 154.8509979248047 218.822998046875 C 156.08200073242188 225.531005859375 153.23300170898438 234.29200744628906 168.531005859375 229.3300018310547" stroke-width="1.5" fill="none" stroke="rgb(255, 0, 0)" stroke-opacity="1" stroke-linecap="round" stroke-linejoin="round"/>
    <path d="M 163.781005859375 206.18899536132812 C 156.17999267578125 205.91200256347656 149.98199462890625 206.76400756835938 162.38699340820312 206.80999755859375" stroke-width="1.5" fill="none" stroke="rgb(255, 0, 0)" stroke-opacity="1" stroke-linecap="round" stroke-linejoin="round"/>
    <path d="M 168.9010009765625 200.12100219726562 C 171.48699951171875 199.71600341796875 172.65499877929688 200.74600219726562 171.52099609375 204.63699340820312" stroke-width="1.5" fill="none" stroke="rgb(255, 0, 0)" stroke-opacity="1" stroke-linecap="round" stroke-linejoin="round"/>
    <path d="M 153.23199462890625 229.6750030517578 C 156.58200073242188 229.99000549316406 150.41099548339844 234.8249969482422 152.11000061035156 215.70199584960938" stroke-width="1.5" fill="none" stroke="rgb(255, 0, 0)" stroke-opacity="1" stroke-linecap="round" stroke-linejoin="round"/>
    <path d="M 171.96200561523438 203.38699340820312 C 170.3209991455078 203.76300048828125 175.75999450683594 198.03900146484375 166.85800170898438 197.9669952392578" stroke-width="1.5" fill="none" stroke="rgb(255, 0, 0)" stroke-opacity="1" stroke-linecap="round" stroke-linejoin="round"/>
    <path d="M 170.8179931640625 222.6510009765625 C 170.81300354003906 230.08900451660156 170.80799865722656 235.08799743652344 170.8159942626953 221.1649932861328" stroke-width="1.5" fill="none" stroke="rgb(255, 0, 0)" stroke-opacity="1" stroke-linecap="round" stroke-linejoin="round"/>
    <path d="M 171.71499633789062 232.0229949951172 C 160.50999450683594 239.43699645996094 152.093994140625 229.0260009765625 154.51199340820312 230.83099365234375" stroke-width="1.5" fill="none" stroke="rgb(255, 0, 0)" stroke-opacity="1" stroke-linecap="round" stroke-linejoin="round"/>
    <path d="M 154.37399291992188 186.093994140625 C 151.875 184.40699768066406 150.18099975585938 199.78900146484375 150.0449981689453 194.22300720214844" stroke-width="1.5" fill="none" stroke="rgb(255, 0, 0)" stroke-opacity="1" stroke-linecap="round" stroke-linejoin="round"/>
    <path d="M 152.468994140625 199.822998046875 C 152.26300048828125 197.79100036621094 163.50900268554688 195.5330047607422 168.52999877929688 198.19700622558594" stroke-width="1.5" fill="none" stroke="rgb(255, 0, 0)" stroke-opacity="1" stroke-linecap="round" stroke-linejoin="round"/>
    <path d="M 152.32000732421875 187.5989990234375 C 147.96299743652344 187.00100708007812 158.57200622558594 181.38600158691406 166.1439971923828 184.07899475097656" stroke-width="1.5" fill="none" stroke="rgb(255, 0, 0)" stroke-opacity="1" stroke-linecap="round" stroke-linejoin="round"/>
    <path d="M 154.93600463867188 218.4290008544922 C 175.6300048828125 219.93299865722656 171.90499877929688 217.52099609375 162.8459930419922 219.0500030517578" stroke-width="1.5" fill="none" stroke="rgb(255, 0, 0)" stroke-opacity="1" stroke-linecap="round" stroke-linejoin="round"/>
    <path d="M 161.43099975585938 197.86099243164062 C 143.80299377441406 199.4600067138672 159.5290069580078 201.4709930419922 164.01100158691406 198.1580047607422" stroke-width="1.5" fill="none" stroke="rgb(255, 0, 0)" stroke-opacity="1" stroke-linecap="round" stroke-linejoin="round"/>
    <path d="M 174.5030059814453 218.0959930419922 C 176.6750030517578 223.20799255371094 172.28900146484375 229.26800537109375 171.48500061035156 231.9429931640625" stroke-width="1.5" fill="none" stroke="rgb(255, 0, 0)" stroke-opacity="1" stroke-linecap="round" stroke-linejoin="round"/>
    <path d="M 150.9600067138672 211.2830047607422 C 148.7550048828125 200.08900451660156 149.1750030517578 210.74200439453125 151.9239959716797 204.27200317382812" stroke-width="1.5" fill="none" stroke="rgb(255, 0, 0)" stroke-opacity="1" stroke-linecap="round" stroke-linejoin="round"/>
    <path d="M 150.90199279785156 206.7989959716797 C 148.83700561523438 194.718994140625 155.98399353027344 191.3820037841797 166.58299255371094 194.14100646972656" stroke-width="1.5" fill="none" stroke="rgb(255, 0, 0)" stroke-opacity="1" stroke-linecap="round" stroke-linejoin="round"/>
    <path d="M 148.0500030517578 203.91400146484375 C 147.52699279785156 208.3820037841797 151.2830047607422 199.19400024414062 151.08599853515625 211.40899658203125" stroke-width="1.5" fill="none" stroke="rgb(255, 0, 0)" stroke-opacity="1" stroke-linecap="round" stroke-linejoin="round"/>
    <path d="M 169.24000549316406 231.9290008544922 C 172.20399475097656 204.802001953125 166.8730010986328 232.6490020751953 168.19200134277344 206.47900390625" stroke-width="1.5" fill="none" stroke="rgb(255, 0, 0)" stroke-opacity="1" stroke-linecap="round" stroke-linejoin="round"/>
    <path d="M 164.50399780273438 183.67999267578125 C 154.88299560546875 183.36000061035156 160.57000732421875 183.77499389648438 163.76800537109375 183.66299438476562" stroke-width="1.5" fill="none" stroke="rgb(255, 0, 0)" stroke-opacity="1" stroke-linecap="round" stroke-linejoin="round"/>
    <path d="M 171.26499938964844 203.3679962158203 C 166.92799377441406 203.2480010986328 156.70599365234375 202.5780029296875 152.74899291992188 202.18600463867188" stroke-width="1.5" fill="none" stroke="rgb(255, 0, 0)" stroke-opacity="1" stroke-linecap="round" stroke-linejoin="round"/>
    <path d="M 157.54299926757812 198.25100708007812 C 152.07000732421875 196.7010040283203 151.74000549316406 202.18699645996094 153.72999572753906 200.86300659179688" stroke-width="1.5" fill="none" stroke="rgb(255, 0, 0)" stroke-opacity="1" stroke-linecap="round" stroke-linejoin="round"/>
    <path d="M 162.51600646972656 234.76499938964844 C 148.93499755859375 237.55599975585938 154.78500366210938 214.65499877929688 149.73699951171875 211.8159942626953" stroke-width="1.5" fill="none" stroke="rgb(255, 0, 0)" stroke-opacity="1" stroke-linecap="round" stroke-linejoin="round"/>
    <path d="M 160.13099670410156 183.38900756835938 C 153.02099609375 185.843994140625 151.12600708007812 188.0019989013672 153.08099365234375 187.9929962158203" stroke-width="1.5" fill="none" stroke="rgb(255, 0, 0)" stroke-opacity="1" stroke-linecap="round" stroke-linejoin="round"/>
    <path d="M 166.0540008544922 183.6230010986328 C 147.5070037841797 184.8820037841797 164.1719970703125 182.61599731445312 171.70799255371094 185.91200256347656" stroke-width="1.5" fill="none" stroke="rgb(255, 0, 0)" stroke-opacity="1" stroke-linecap="round" stroke-linejoin="round"/>
    <path d="M 151.90899658203125 213.1439971923828 C 151.91400146484375 233.90199279785156 151.91000366210938 228.56900024414062 151.91000366210938 221.68899536132812" stroke-width="1.5" fill="none" stroke="rgb(255, 0, 0)" stroke-opacity="1" stroke-linecap="round" stroke-linejoin="round"/>
    <path d="M 152.51800537109375 188.68499755859375 C 155.28799438476562 188.1909942626953 152.82200622558594 182.3719940185547 165.51300048828125 184.1699981689453" stroke-width="1.5" fill="none" stroke="rgb(255, 0, 0)" stroke-opacity="1" stroke-linecap="round" stroke-linejoin="round"/>
    <path d="M 161.1580047607422 200.39100646972656 C 161.7899932861328 195.5919952392578 159.9550018310547 197.60800170898438 164.92999267578125 199.65199279785156" stroke-width="1.5" fill="none" stroke="rgb(255, 0, 0)" stroke-opacity="1" stroke-linecap="round" stroke-linejoin="round"/>
    <path d="M 169.8260040283203 230.2270050048828 C 173.12399291992188 220.5760040283203 171.79800415039062 224.7899932861328 170.52999877929688 231.75100708007812" stroke-width="1.5" fill="none" stroke="rgb(255, 0, 0)" stroke-opacity="1" stroke-linecap="round" stroke-linejoin="round"/>
    <path d="M 150.9980010986328 220.69500732421875 C 150.9080047607422 230.83299255371094 153.63699340820312 234.3990020751953 159.4720001220703 234.63600158691406" stroke-width="1.5" fill="none" stroke="rgb(255, 0, 0)" stroke-opacity="1" stroke-linecap="round" stroke-linejoin="round"/>
    <path d="M 172.77000427246094 190.85699462890625 C 171.77499389648438 184.5489959716797 167.93800354003906 186.3509979248047 172.1540069580078 187.71299743652344" stroke-width="1.5" fill="none" stroke="rgb(255, 0, 0)" stroke-opacity="1" stroke-linecap="round" stroke-linejoin="round"/>
    <path d="M 151.22300720214844 187.09800720214844 C 151.5229949951172 182.77699279785156 151.0229949951172 190.74400329589844 151.34500122070312 186.6750030517578" stroke-width="1.5" fill="none" stroke="rgb(255, 0, 0)" stroke-opacity="1" stroke-linecap="round" stroke-linejoin="round"/>
    <path d="M 174.8040008544922 212.74400329589844 C 173.6230010986328 193.39199829101562 178.67100524902344 185.9669952392578 166.74099731445312 183.7760009765625" stroke-width="1.5" fill="none" stroke="rgb(255, 0, 0)" stroke-opacity="1" stroke-linecap="round" stroke-linejoin="round"/>
    <path d="M 152.6230010986328 199.77999877929688 C 164.4530029296875 196.5019989013672 161.5590057373047 200.27200317382812 160.82400512695312 197.33799743652344" stroke-width="1.5" fill="none" stroke="rgb(255, 0, 0)" stroke-opacity="1" stroke-linecap="round" stroke-linejoin="round"/>
    <path d="M 158.55499267578125 229.7050018310547 C 170.86599731445312 234.3070068359375 173.71499633789062 234.83399963378906 175.1479949951172 221.86099243164062" stroke-width="1.5" fill="none" stroke="rgb(255, 0, 0)" stroke-opacity="1" stroke-linecap="round" stroke-linejoin="round"/>
    <path d="M 153.156005859375 200.10800170898438 C 185.08700561523438 202.6959991455078 172.76800537109375 196.52099609375 152.82200622558594 200.80299377441406" stroke-width="1.5" fill="none" stroke="rgb(255, 0, 0)" stroke-opacity="1" stroke-linecap="round" stroke-linejoin="round"/>
    <path d="M 161.8730010986328 196.91000366210938 C 146.2449951171875 199.21099853515625 157.57699584960938 200.20799255371094 172.43600463867188 199.98399353027344" stroke-width="1.5" fill="none" stroke="rgb(255, 0, 0)" stroke-opacity="1" stroke-linecap="round" stroke-linejoin="round"/>
    <path d="M 149.99099731445312 203.56700134277344 C 150.1719970703125 200.8419952392578 149.9530029296875 206.69700622558594 150.01400756835938 195.7779998779297" stroke-width="1.5" fill="none" stroke="rgb(255, 0, 0)" stroke-opacity="1" stroke-linecap="round" stroke-linejoin="round"/>
    <path d="M 169.73300170898438 229.43899536132812 C 154.94000244140625 227.5850067138672 155.7899932861328 232.0850067138672 155.1529998779297 219.05999755859375" stroke-width="1.5" fill="none" stroke="rgb(255, 0, 0)" stroke-opacity="1" stroke-linecap="round" stroke-linejoin="round"/>
    <path d="M 153.2779998779297 206.60299682617188 C 151.7519989013672 198.3679962158203 150.0659942626953 198.11700439453125 151.70599365234375 218.75399780273438" stroke-width="1.5" fill="none" stroke="rgb(255, 0, 0)" stroke-opacity="1" stroke-linecap="round" stroke-linejoin="round"/>
    <path d="M 151.22500610351562 204.20199584960938 C 152.83399963378906 209.71299743652344 151.85000610351562 228.71099853515625 153.38600158691406 228.7239990234375" stroke-width="1.5" fill="none" stroke="rgb(255, 0, 0)" stroke-opacity="1" stroke-linecap="round" stroke-linejoin="round"/>
    <path d="M 151.26100158691406 213.79800415039062 C 151.26400756835938 188.55499267578125 151.28799438476562 212.322998046875 151.33999633789062 214.51600646972656" stroke-width="1.5" fill="none" stroke="rgb(255, 0, 0)" stroke-opacity="1" stroke-linecap="round" stroke-linejoin="round"/>
  </g>
</svg>
