<?xml version="1.0" ?>
<svg xmlns="http://www.w3.org/2000/svg" version="1.1" width="256" height="256">
  <defs/>
  <g>
    <path d="M 143.60899353027344 140.81500244140625 C 148.3730010986328 140.1230010986328 151.35800170898438 142.75999450683594 145.28799438476562 144.03900146484375" stroke-width="2.0" fill="none" stroke="rgb(0, 255, 0)" stroke-opacity="1" stroke-linecap="round" stroke-linejoin="round"/>
    <path d="M 144.4250030517578 140.92599487304688 C 143.44200134277344 140.50900268554688 143.20700073242188 144.25799560546875 145.8470001220703 144.00100708007812" stroke-width="2.0" fill="none" stroke="rgb(0, 255, 0)" stroke-opacity="1" stroke-linecap="round" stroke-linejoin="round"/>
    <path d="M 134.89300537109375 141.83900451660156 C 133.90899658203125 141.42300415039062 133.6750030517578 145.1719970703125 136.31399536132812 144.91400146484375" stroke-width="2.0" fill="none" stroke="rgb(0, 255, 0)" stroke-opacity="1" stroke-linecap="round" stroke-linejoin="round"/>
    <path d="M 135.53700256347656 141.9739990234375 C 134.55299377441406 141.55799865722656 134.3179931640625 145.3070068359375 136.95799255371094 145.0489959716797" stroke-width="2.0" fill="none" stroke="rgb(0, 255, 0)" stroke-opacity="1" stroke-linecap="round" stroke-linejoin="round"/>
    <path d="M 144.20899963378906 140.76699829101562 C 140.64100646972656 141.24899291992188 137.63900756835938 141.49000549316406 134.58599853515625 141.9149932861328" stroke-width="2.0" fill="none" stroke="rgb(0, 255, 0)" stroke-opacity="1" stroke-linecap="round" stroke-linejoin="round"/>
    <path d="M 145.50900268554688 143.9949951171875 C 141.9409942626953 144.47799682617188 138.93899536132812 144.718994140625 135.88600158691406 145.1439971923828" stroke-width="2.0" fill="none" stroke="rgb(0, 255, 0)" stroke-opacity="1" stroke-linecap="round" stroke-linejoin="round"/>
    <path d="M 138.9739990234375 129.94900512695312 C 135.5780029296875 144.69900512695312 125.48600006103516 114.49299621582031 138.7010040283203 145.6739959716797" stroke-width="2.0" fill="none" stroke="rgb(255, 0, 0)" stroke-opacity="1" stroke-linecap="round" stroke-linejoin="round"/>
    <path d="M 130.3820037841797 140.04200744628906 C 137.7030029296875 117.41400146484375 128.63099670410156 137.7530059814453 126.51799774169922 130.7429962158203" stroke-width="2.0" fill="none" stroke="rgb(255, 0, 0)" stroke-opacity="1" stroke-linecap="round" stroke-linejoin="round"/>
    <path d="M 137.57000732421875 151.99899291992188 C 126.9010009765625 140.1269989013672 143.6179962158203 142.48399353027344 131.7259979248047 131.822998046875" stroke-width="2.0" fill="none" stroke="rgb(0, 255, 0)" stroke-opacity="1" stroke-linecap="round" stroke-linejoin="round"/>
    <path d="M 128.98500061035156 139.85299682617188 C 144.4739990234375 137.1179962158203 141.22500610351562 124.68599700927734 138.16000366210938 150.8209991455078" stroke-width="2.0" fill="none" stroke="rgb(255, 0, 0)" stroke-opacity="1" stroke-linecap="round" stroke-linejoin="round"/>
    <path d="M 131.13900756835938 145.06399536132812 C 133.7989959716797 129.93600463867188 126.22200012207031 126.27200317382812 135.30599975585938 131.64999389648438" stroke-width="2.0" fill="none" stroke="rgb(255, 0, 0)" stroke-opacity="1" stroke-linecap="round" stroke-linejoin="round"/>
    <path d="M 140.6750030517578 143.0709991455078 C 131.70199584960938 126.76899719238281 141.94500732421875 125.302001953125 133.43299865722656 147.5919952392578" stroke-width="2.0" fill="none" stroke="rgb(255, 0, 0)" stroke-opacity="1" stroke-linecap="round" stroke-linejoin="round"/>
    <path d="M 135.46499633789062 153.77699279785156 C 132.1750030517578 132.44500732421875 115.90599822998047 136.01800537109375 124.87300109863281 136.94000244140625" stroke-width="2.0" fill="none" stroke="rgb(255, 0, 0)" stroke-opacity="1" stroke-linecap="round" stroke-linejoin="round"/>
    <path d="M 139.91000366210938 145.72799682617188 C 127.01200103759766 116.13200378417969 136.05299377441406 136.11099243164062 139.41000366210938 131.06300354003906" stroke-width="2.0" fill="none" stroke="rgb(255, 0, 0)" stroke-opacity="1" stroke-linecap="round" stroke-linejoin="round"/>
    <path d="M 138.68099975585938 132.4239959716797 C 140.10000610351562 157.87600708007812 129.677001953125 137.4669952392578 134.4600067138672 153.19000244140625" stroke-width="2.0" fill="none" stroke="rgb(0, 255, 0)" stroke-opacity="1" stroke-linecap="round" stroke-linejoin="round"/>
    <path d="M 136.23599243164062 129.81399536132812 C 139.13900756835938 152.1060028076172 129.9290008544922 138.10699462890625 138.8509979248047 150.0260009765625" stroke-width="2.0" fill="none" stroke="rgb(0, 255, 0)" stroke-opacity="1" stroke-linecap="round" stroke-linejoin="round"/>
    <path d="M 140.04800415039062 144.05299377441406 C 133.6790008544922 137.781005859375 117.8759994506836 139.24000549316406 129.86599731445312 139.7969970703125" stroke-width="2.0" fill="none" stroke="rgb(0, 255, 0)" stroke-opacity="1" stroke-linecap="round" stroke-linejoin="round"/>
    <path d="M 132.99200439453125 152.14199829101562 C 129.06399536132812 136.94200134277344 123.68099975585938 139.23899841308594 129.7949981689453 129.74200439453125" stroke-width="2.0" fill="none" stroke="rgb(0, 255, 0)" stroke-opacity="1" stroke-linecap="round" stroke-linejoin="round"/>
    <path d="M 126.98999786376953 129.32400512695312 C 124.47899627685547 136.51699829101562 132.66000366210938 129.1280059814453 129.0030059814453 148.13600158691406" stroke-width="2.0" fill="none" stroke="rgb(255, 0, 0)" stroke-opacity="1" stroke-linecap="round" stroke-linejoin="round"/>
    <path d="M 33.717498779296875 168.60899353027344 C 32.64799880981445 168.61900329589844 28.900400161743164 149.2689971923828 26.583799362182617 173.41400146484375" stroke-width="2.0" fill="none" stroke="rgb(0, 255, 0)" stroke-opacity="1" stroke-linecap="round" stroke-linejoin="round"/>
    <path d="M 32.96929931640625 178.2729949951172 C 37.94390106201172 151.71099853515625 33.0703010559082 186.47999572753906 38.08530044555664 170.4320068359375" stroke-width="2.0" fill="none" stroke="rgb(0, 255, 0)" stroke-opacity="1" stroke-linecap="round" stroke-linejoin="round"/>
    <path d="M 49.738800048828125 156.65499877929688 C 26.239299774169922 163.2239990234375 31.30660057067871 160.0279998779297 27.96980094909668 172.13499450683594" stroke-width="2.0" fill="none" stroke="rgb(0, 255, 0)" stroke-opacity="1" stroke-linecap="round" stroke-linejoin="round"/>
    <path d="M 82.76570129394531 154.02200317382812 C 90.44830322265625 164.70599365234375 79.38809967041016 162.30599975585938 82.12000274658203 161.46600341796875" stroke-width="2.0" fill="none" stroke="rgb(0, 255, 0)" stroke-opacity="1" stroke-linecap="round" stroke-linejoin="round"/>
    <path d="M 94.41349792480469 173.0469970703125 C 69.74739837646484 149.4219970703125 97.21759796142578 145.2449951171875 100.0780029296875 147.70899963378906" stroke-width="2.0" fill="none" stroke="rgb(0, 255, 0)" stroke-opacity="1" stroke-linecap="round" stroke-linejoin="round"/>
    <path d="M 82.99120330810547 147.4409942626953 C 110.64399719238281 147.5659942626953 81.56919860839844 180.86099243164062 80.4457015991211 170.39500427246094" stroke-width="2.0" fill="none" stroke="rgb(0, 255, 0)" stroke-opacity="1" stroke-linecap="round" stroke-linejoin="round"/>
    <path d="M 102.62999725341797 165.8470001220703 C 98.6155014038086 160.2429962158203 90.2770004272461 155.63299560546875 80.30079650878906 170.1009979248047" stroke-width="2.0" fill="none" stroke="rgb(0, 255, 0)" stroke-opacity="1" stroke-linecap="round" stroke-linejoin="round"/>
    <path d="M 95.18009948730469 178.62399291992188 C 80.47550201416016 183.14100646972656 86.33360290527344 175.8260040283203 94.42150115966797 178.94200134277344" stroke-width="2.0" fill="none" stroke="rgb(0, 255, 0)" stroke-opacity="1" stroke-linecap="round" stroke-linejoin="round"/>
    <path d="M 96.69580078125 173.1649932861328 C 101.11000061035156 185.1999969482422 67.53520202636719 173.052001953125 90.58869934082031 156.14300537109375" stroke-width="2.0" fill="none" stroke="rgb(0, 255, 0)" stroke-opacity="1" stroke-linecap="round" stroke-linejoin="round"/>
    <path d="M 54.17449951171875 158.8350067138672 C 54.2338981628418 142.89999389648438 48.00510025024414 153.64700317382812 58.46630096435547 149.53500366210938" stroke-width="2.0" fill="none" stroke="rgb(0, 255, 0)" stroke-opacity="1" stroke-linecap="round" stroke-linejoin="round"/>
    <path d="M 91.14600372314453 180.1929931640625 C 16.697999954223633 181.33099365234375 18.115100860595703 178.2779998779297 80.53009796142578 180.03500366210938" stroke-width="2.0" fill="none" stroke="rgb(0, 255, 0)" stroke-opacity="1" stroke-linecap="round" stroke-linejoin="round"/>
    <path d="M 88.84239959716797 161.1300048828125 C 108.51599884033203 168.21299743652344 101.38300323486328 172.7740020751953 100.9000015258789 162.76499938964844" stroke-width="2.0" fill="none" stroke="rgb(0, 255, 0)" stroke-opacity="1" stroke-linecap="round" stroke-linejoin="round"/>
    <path d="M 67.58560180664062 158.1179962158203 C 29.388200759887695 161.71800231933594 20.81839942932129 172.30999755859375 38.80390167236328 170.2969970703125" stroke-width="2.0" fill="none" stroke="rgb(0, 255, 0)" stroke-opacity="1" stroke-linecap="round" stroke-linejoin="round"/>
    <path d="M 86.58260345458984 172.968994140625 C 84.34400177001953 167.71800231933594 97.50499725341797 181.93299865722656 78.38629913330078 171.72500610351562" stroke-width="2.0" fill="none" stroke="rgb(0, 255, 0)" stroke-opacity="1" stroke-linecap="round" stroke-linejoin="round"/>
    <path d="M 59.604400634765625 142.8979949951172 C 51.113800048828125 135.91000366210938 72.38809967041016 145.78900146484375 69.73829650878906 134.5760040283203" stroke-width="2.0" fill="none" stroke="rgb(0, 255, 0)" stroke-opacity="1" stroke-linecap="round" stroke-linejoin="round"/>
    <path d="M 94.18489837646484 179.77099609375 C 94.76920318603516 171.92799377441406 97.92389678955078 166.36300659179688 88.3759994506836 180.36700439453125" stroke-width="2.0" fill="none" stroke="rgb(0, 255, 0)" stroke-opacity="1" stroke-linecap="round" stroke-linejoin="round"/>
    <path d="M 43.722801208496094 178.3769989013672 C 31.163700103759766 187.10699462890625 40.26729965209961 176.75399780273438 27.928499221801758 169.8249969482422" stroke-width="2.0" fill="none" stroke="rgb(0, 255, 0)" stroke-opacity="1" stroke-linecap="round" stroke-linejoin="round"/>
    <path d="M 84.5510025024414 166.9499969482422 C 76.6624984741211 194.24600219726562 74.99459838867188 168.91900634765625 82.96219635009766 179.67599487304688" stroke-width="2.0" fill="none" stroke="rgb(0, 255, 0)" stroke-opacity="1" stroke-linecap="round" stroke-linejoin="round"/>
    <path d="M 96.85070037841797 154.89199829101562 C 97.67169952392578 178.21800231933594 108.98300170898438 182.9199981689453 68.71050262451172 180.24099731445312" stroke-width="2.0" fill="none" stroke="rgb(0, 255, 0)" stroke-opacity="1" stroke-linecap="round" stroke-linejoin="round"/>
    <path d="M 86.28839874267578 175.16400146484375 C 105.70800018310547 166.35699462890625 109.86799621582031 156.66000366210938 98.89620208740234 167.48199462890625" stroke-width="2.0" fill="none" stroke="rgb(0, 255, 0)" stroke-opacity="1" stroke-linecap="round" stroke-linejoin="round"/>
    <path d="M 61.3588981628418 181.05999755859375 C 91.9093017578125 179.23899841308594 121.18800354003906 182.0449981689453 38.9182014465332 181.52699279785156" stroke-width="2.0" fill="none" stroke="rgb(0, 255, 0)" stroke-opacity="1" stroke-linecap="round" stroke-linejoin="round"/>
    <path d="M 66.47640228271484 135.77499389648438 C 54.899600982666016 151.97300720214844 62.6708984375 158.05799865722656 94.6593017578125 155.88400268554688" stroke-width="2.0" fill="none" stroke="rgb(0, 255, 0)" stroke-opacity="1" stroke-linecap="round" stroke-linejoin="round"/>
    <path d="M 29.047800064086914 165.38999938964844 C 45.13740158081055 149.35800170898438 28.488800048828125 169.8070068359375 36.535499572753906 174.64300537109375" stroke-width="2.0" fill="none" stroke="rgb(0, 255, 0)" stroke-opacity="1" stroke-linecap="round" stroke-linejoin="round"/>
    <path d="M 55.67530059814453 134.27200317382812 C 73.45690155029297 153.6060028076172 71.91590118408203 147.45700073242188 72.37789916992188 155.77999877929688" stroke-width="2.0" fill="none" stroke="rgb(0, 255, 0)" stroke-opacity="1" stroke-linecap="round" stroke-linejoin="round"/>
    <path d="M 84.79190063476562 179.7310028076172 C 88.09739685058594 159.302001953125 100.00399780273438 147.4040069580078 85.6729965209961 168.74600219726562" stroke-width="2.0" fill="none" stroke="rgb(0, 255, 0)" stroke-opacity="1" stroke-linecap="round" stroke-linejoin="round"/>
    <path d="M 65.44380187988281 156.0749969482422 C 114.88300323486328 159.5 110.03700256347656 158.51300048828125 76.1166000366211 167.61399841308594" stroke-width="2.0" fill="none" stroke="rgb(0, 255, 0)" stroke-opacity="1" stroke-linecap="round" stroke-linejoin="round"/>
    <path d="M 46.820098876953125 158.44000244140625 C 74.95939636230469 151.08900451660156 67.77420043945312 158.92599487304688 47.070098876953125 156.75799560546875" stroke-width="2.0" fill="none" stroke="rgb(0, 255, 0)" stroke-opacity="1" stroke-linecap="round" stroke-linejoin="round"/>
    <path d="M 77.05139923095703 153.35800170898438 C 30.153499603271484 147.68299865722656 54.27360153198242 154.38900756835938 52.76029968261719 145.45399475097656" stroke-width="2.0" fill="none" stroke="rgb(0, 255, 0)" stroke-opacity="1" stroke-linecap="round" stroke-linejoin="round"/>
    <path d="M 79.4301986694336 143.90199279785156 C 25.650800704956055 151.1580047607422 50.25709915161133 153.26800537109375 77.20179748535156 147.54400634765625" stroke-width="2.0" fill="none" stroke="rgb(0, 255, 0)" stroke-opacity="1" stroke-linecap="round" stroke-linejoin="round"/>
    <path d="M 30.962299346923828 168.0019989013672 C 79.1227035522461 146.87399291992188 90.14189910888672 139.45599365234375 55.17789840698242 144.4320068359375" stroke-width="2.0" fill="none" stroke="rgb(0, 255, 0)" stroke-opacity="1" stroke-linecap="round" stroke-linejoin="round"/>
    <path d="M 34.59239959716797 179.99099731445312 C 19.01219940185547 153.4739990234375 42.710201263427734 160.53900146484375 34.25579833984375 175.94900512695312" stroke-width="2.0" fill="none" stroke="rgb(0, 255, 0)" stroke-opacity="1" stroke-linecap="round" stroke-linejoin="round"/>
    <path d="M 66.89820098876953 178.4149932861328 C 94.49929809570312 181.1959991455078 108.66999816894531 176.0260009765625 100.66699981689453 158.42999267578125" stroke-width="2.0" fill="none" stroke="rgb(0, 255, 0)" stroke-opacity="1" stroke-linecap="round" stroke-linejoin="round"/>
    <path d="M 128.9759979248047 145.1929931640625 C 92.0906982421875 148.3280029296875 55.90829849243164 153.16700744628906 99.80269622802734 148.36199951171875" stroke-width="2.0" fill="none" stroke="rgb(0, 255, 0)" stroke-opacity="1" stroke-linecap="round" stroke-linejoin="round"/>
    <path d="M 100.9520034790039 158.73399353027344 C 78.10379791259766 163.01699829101562 109.25700378417969 155.0570068359375 96.55989837646484 167.6269989013672" stroke-width="2.0" fill="none" stroke="rgb(0, 255, 0)" stroke-opacity="1" stroke-linecap="round" stroke-linejoin="round"/>
    <path d="M 83.5604019165039 174.80099487304688 C 98.25910186767578 170.24000549316406 98.0094985961914 160.88800048828125 89.51820373535156 166.68499755859375" stroke-width="2.0" fill="none" stroke="rgb(0, 255, 0)" stroke-opacity="1" stroke-linecap="round" stroke-linejoin="round"/>
    <path d="M 73.58329772949219 146.875 C 45.88859939575195 163.04299926757812 58.64360046386719 151.02699279785156 54.30099868774414 138.27000427246094" stroke-width="2.0" fill="none" stroke="rgb(0, 255, 0)" stroke-opacity="1" stroke-linecap="round" stroke-linejoin="round"/>
    <path d="M 90.0188980102539 148.27000427246094 C 41.94919967651367 152.91799926757812 58.82789993286133 163.74099731445312 58.84640121459961 142.23800659179688" stroke-width="2.0" fill="none" stroke="rgb(0, 255, 0)" stroke-opacity="1" stroke-linecap="round" stroke-linejoin="round"/>
    <path d="M 53.847900390625 161.74400329589844 C 70.64859771728516 130.7519989013672 75.05419921875 136.3090057373047 48.54880142211914 148.4320068359375" stroke-width="2.0" fill="none" stroke="rgb(0, 255, 0)" stroke-opacity="1" stroke-linecap="round" stroke-linejoin="round"/>
    <path d="M 65.23870086669922 149.59500122070312 C 58.551300048828125 127.97100067138672 64.08080291748047 138.5679931640625 49.65409851074219 150.81900024414062" stroke-width="2.0" fill="none" stroke="rgb(0, 255, 0)" stroke-opacity="1" stroke-linecap="round" stroke-linejoin="round"/>
    <path d="M 127.10600280761719 143.19000244140625 C 83.89530181884766 149.65499877929688 74.78410339355469 152.27200317382812 127.88300323486328 143.51300048828125" stroke-width="2.0" fill="none" stroke="rgb(0, 255, 0)" stroke-opacity="1" stroke-linecap="round" stroke-linejoin="round"/>
    <path d="M 101.32099914550781 148.06300354003906 C 26.213699340820312 155.03599548339844 51.15850067138672 159.56199645996094 121.52100372314453 145.53199768066406" stroke-width="2.0" fill="none" stroke="rgb(0, 255, 0)" stroke-opacity="1" stroke-linecap="round" stroke-linejoin="round"/>
    <path d="M 103.62100219726562 161.70799255371094 C 83.64330291748047 167.66799926757812 77.93250274658203 149.59500122070312 83.77179718017578 162.41700744628906" stroke-width="2.0" fill="none" stroke="rgb(0, 255, 0)" stroke-opacity="1" stroke-linecap="round" stroke-linejoin="round"/>
    <path d="M 94.1583023071289 158.6510009765625 C 32.04050064086914 155.46600341796875 40.761600494384766 160.7469940185547 89.28399658203125 148.26100158691406" stroke-width="2.0" fill="none" stroke="rgb(0, 255, 0)" stroke-opacity="1" stroke-linecap="round" stroke-linejoin="round"/>
    <path d="M 84.02799987792969 146.15499877929688 C 20.158300399780273 160.06399536132812 50.622398376464844 143.70199584960938 88.24210357666016 149.05799865722656" stroke-width="2.0" fill="none" stroke="rgb(0, 255, 0)" stroke-opacity="1" stroke-linecap="round" stroke-linejoin="round"/>
    <path d="M 80.693603515625 154.01800537109375 C 39.44340133666992 155.22500610351562 49.58440017700195 137.61099243164062 45.362701416015625 156.86599731445312" stroke-width="2.0" fill="none" stroke="rgb(0, 255, 0)" stroke-opacity="1" stroke-linecap="round" stroke-linejoin="round"/>
    <path d="M 61.2218017578125 147.50100708007812 C 89.1541976928711 141.468994140625 56.81449890136719 156.01499938964844 98.81300354003906 149.62399291992188" stroke-width="2.0" fill="none" stroke="rgb(0, 255, 0)" stroke-opacity="1" stroke-linecap="round" stroke-linejoin="round"/>
    <path d="M 61.705501556396484 152.08900451660156 C 23.712600708007812 165.26199340820312 18.911100387573242 155.65899658203125 72.68800354003906 154.98399353027344" stroke-width="2.0" fill="none" stroke="rgb(0, 255, 0)" stroke-opacity="1" stroke-linecap="round" stroke-linejoin="round"/>
    <path d="M 58.39609909057617 158.01199340820312 C 119.29100036621094 145.35499572753906 145.8990020751953 140.26699829101562 118.83599853515625 146.7740020751953" stroke-width="2.0" fill="none" stroke="rgb(0, 255, 0)" stroke-opacity="1" stroke-linecap="round" stroke-linejoin="round"/>
    <path d="M 108.17900085449219 147.1199951171875 C 39.89899826049805 151.77499389648438 82.5469970703125 148.50399780273438 117.79199981689453 144.60699462890625" stroke-width="2.0" fill="none" stroke="rgb(0, 255, 0)" stroke-opacity="1" stroke-linecap="round" stroke-linejoin="round"/>
    <path d="M 77.95590209960938 141.32899475097656 C 81.15059661865234 158.218994140625 103.93499755859375 153.83599853515625 56.84489822387695 139.2779998779297" stroke-width="2.0" fill="none" stroke="rgb(0, 255, 0)" stroke-opacity="1" stroke-linecap="round" stroke-linejoin="round"/>
    <path d="M 236.3719940185547 106.51599884033203 C 236.3719940185547 196.656005859375 243.0399932861328 183.302001953125 223.46800231933594 183.302001953125" stroke-width="2.0" fill="none" stroke="rgb(0, 0, 255)" stroke-opacity="1" stroke-linecap="round" stroke-linejoin="round"/>
    <path d="M 224.13800048828125 183.29600524902344 C 224.13800048828125 94.82540130615234 216.01600646972656 106.51000213623047 235.58700561523438 106.51000213623047" stroke-width="2.0" fill="none" stroke="rgb(0, 0, 255)" stroke-opacity="1" stroke-linecap="round" stroke-linejoin="round"/>
  </g>
</svg>
