<?xml version="1.0" ?>
<svg xmlns="http://www.w3.org/2000/svg" version="1.1" width="256" height="256">
  <defs/>
  <g>
    <path d="M 40.18470001220703 85.55169677734375 C 66.60350036621094 82.81159973144531 99.03780364990234 77.14179992675781 37.06570053100586 84.08570098876953" stroke-width="2.0" fill="none" stroke="rgb(0, 0, 0)" stroke-opacity="1" stroke-linecap="round" stroke-linejoin="round"/>
    <path d="M 77.6321029663086 118.01699829101562 C 82.17720031738281 105.39099884033203 95.87640380859375 100.802001953125 107.9219970703125 122.24099731445312" stroke-width="2.0" fill="none" stroke="rgb(0, 0, 0)" stroke-opacity="1" stroke-linecap="round" stroke-linejoin="round"/>
    <path d="M 99.02339935302734 129.05499267578125 C 116.13200378417969 78.63259887695312 131.91900634765625 98.12039947509766 119.83999633789062 89.04100036621094" stroke-width="2.0" fill="none" stroke="rgb(0, 0, 0)" stroke-opacity="1" stroke-linecap="round" stroke-linejoin="round"/>
    <path d="M 126.052001953125 97.9093017578125 C 117.2229995727539 95.75679779052734 122.04000091552734 91.59829711914062 119.69599914550781 95.59190368652344" stroke-width="2.0" fill="none" stroke="rgb(0, 0, 0)" stroke-opacity="1" stroke-linecap="round" stroke-linejoin="round"/>
    <path d="M 77.0457992553711 107.77200317382812 C 128.968994140625 83.75350189208984 65.69259643554688 81.48159790039062 78.3998031616211 71.28569793701172" stroke-width="2.0" fill="none" stroke="rgb(0, 0, 0)" stroke-opacity="1" stroke-linecap="round" stroke-linejoin="round"/>
    <path d="M 81.63710021972656 72.17559814453125 C 59.90909957885742 106.22200012207031 65.27739715576172 76.62580108642578 106.67500305175781 95.56880187988281" stroke-width="2.0" fill="none" stroke="rgb(0, 0, 0)" stroke-opacity="1" stroke-linecap="round" stroke-linejoin="round"/>
    <path d="M 56.19269943237305 62.44169998168945 C 87.83390045166016 76.72119903564453 101.72799682617188 119.78600311279297 68.21299743652344 103.5009994506836" stroke-width="2.0" fill="none" stroke="rgb(0, 0, 0)" stroke-opacity="1" stroke-linecap="round" stroke-linejoin="round"/>
    <path d="M 135.0 135.0800018310547 C 96.4894027709961 141.36599731445312 152.29800415039062 145.78799438476562 104.65599822998047 121.15699768066406" stroke-width="2.0" fill="none" stroke="rgb(0, 0, 0)" stroke-opacity="1" stroke-linecap="round" stroke-linejoin="round"/>
    <path d="M 72.9843978881836 69.13739776611328 C 116.01000213623047 110.17900085449219 112.12200164794922 98.95169830322266 79.73750305175781 85.53910064697266" stroke-width="2.0" fill="none" stroke="rgb(0, 0, 0)" stroke-opacity="1" stroke-linecap="round" stroke-linejoin="round"/>
    <path d="M 76.51529693603516 120.1500015258789 C 112.8489990234375 107.77799987792969 113.93900299072266 99.52320098876953 78.49870300292969 115.8239974975586" stroke-width="2.0" fill="none" stroke="rgb(0, 0, 0)" stroke-opacity="1" stroke-linecap="round" stroke-linejoin="round"/>
    <path d="M 110.86199951171875 88.70390319824219 C 103.94300079345703 94.80789947509766 85.4478988647461 67.6593017578125 50.37730026245117 59.346099853515625" stroke-width="2.0" fill="none" stroke="rgb(0, 0, 0)" stroke-opacity="1" stroke-linecap="round" stroke-linejoin="round"/>
    <path d="M 122.05899810791016 93.35330200195312 C 125.1520004272461 97.02529907226562 125.56700134277344 93.61650085449219 122.35600280761719 92.75060272216797" stroke-width="2.0" fill="none" stroke="rgb(0, 0, 0)" stroke-opacity="1" stroke-linecap="round" stroke-linejoin="round"/>
    <path d="M 10.648799896240234 38.029701232910156 C 14.972900390625 40.58869934082031 29.427200317382812 46.2953987121582 55.08060073852539 52.630401611328125" stroke-width="2.0" fill="none" stroke="rgb(0, 0, 0)" stroke-opacity="1" stroke-linecap="round" stroke-linejoin="round"/>
    <path d="M 48.46649932861328 18.37310028076172 C 78.16780090332031 59.7776985168457 81.40260314941406 31.51409912109375 93.20369720458984 68.3407974243164" stroke-width="2.0" fill="none" stroke="rgb(0, 0, 0)" stroke-opacity="1" stroke-linecap="round" stroke-linejoin="round"/>
    <path d="M 65.9093017578125 18.8981990814209 C 81.67489624023438 45.02399826049805 82.79219818115234 35.624000549316406 78.87960052490234 53.28879928588867" stroke-width="2.0" fill="none" stroke="rgb(0, 0, 0)" stroke-opacity="1" stroke-linecap="round" stroke-linejoin="round"/>
    <path d="M 99.010498046875 115.13899993896484 C 69.12120056152344 121.7490005493164 61.86980056762695 124.42400360107422 92.45110321044922 107.26200103759766" stroke-width="2.0" fill="none" stroke="rgb(0, 0, 0)" stroke-opacity="1" stroke-linecap="round" stroke-linejoin="round"/>
    <path d="M 92.75299835205078 101.81400299072266 C 124.53199768066406 145.281005859375 91.82420349121094 108.13200378417969 51.437198638916016 127.46199798583984" stroke-width="2.0" fill="none" stroke="rgb(0, 0, 0)" stroke-opacity="1" stroke-linecap="round" stroke-linejoin="round"/>
    <path d="M 53.05329895019531 124.8479995727539 C 108.26799774169922 124.26499938964844 94.68499755859375 73.69529724121094 70.93219757080078 107.04499816894531" stroke-width="2.0" fill="none" stroke="rgb(0, 0, 0)" stroke-opacity="1" stroke-linecap="round" stroke-linejoin="round"/>
    <path d="M 77.23690032958984 116.74700164794922 C 88.60900115966797 127.50199890136719 92.9520034790039 102.86699676513672 100.41600036621094 130.3990020751953" stroke-width="2.0" fill="none" stroke="rgb(0, 0, 0)" stroke-opacity="1" stroke-linecap="round" stroke-linejoin="round"/>
    <path d="M 82.7926025390625 84.49980163574219 C 120.625 124.22200012207031 80.60030364990234 70.90699768066406 66.03489685058594 104.3550033569336" stroke-width="2.0" fill="none" stroke="rgb(0, 0, 0)" stroke-opacity="1" stroke-linecap="round" stroke-linejoin="round"/>
    <path d="M 81.80850219726562 119.83100128173828 C 89.47830200195312 101.27899932861328 88.0376968383789 99.59770202636719 113.1729965209961 128.98300170898438" stroke-width="2.0" fill="none" stroke="rgb(0, 0, 0)" stroke-opacity="1" stroke-linecap="round" stroke-linejoin="round"/>
    <path d="M 26.83139991760254 37.50130081176758 C 84.25749969482422 63.41080093383789 94.31939697265625 69.66470336914062 34.1682014465332 35.810001373291016" stroke-width="2.0" fill="none" stroke="rgb(0, 0, 0)" stroke-opacity="1" stroke-linecap="round" stroke-linejoin="round"/>
    <path d="M 91.94170379638672 119.16799926757812 C 118.17400360107422 93.79389953613281 74.00350189208984 107.57099914550781 98.04129791259766 89.20950317382812" stroke-width="2.0" fill="none" stroke="rgb(0, 0, 0)" stroke-opacity="1" stroke-linecap="round" stroke-linejoin="round"/>
    <path d="M 35.878700256347656 36.469398498535156 C 64.50779724121094 65.71279907226562 41.49909973144531 74.48490142822266 10.0 41.26250076293945" stroke-width="2.0" fill="none" stroke="rgb(0, 0, 0)" stroke-opacity="1" stroke-linecap="round" stroke-linejoin="round"/>
    <path d="M 89.92379760742188 113.08300018310547 C 114.23100280761719 137.83099365234375 88.5593032836914 131.0 130.4759979248047 138.74600219726562" stroke-width="2.0" fill="none" stroke="rgb(0, 0, 0)" stroke-opacity="1" stroke-linecap="round" stroke-linejoin="round"/>
    <path d="M 113.06900024414062 88.7238998413086 C 133.31199645996094 103.45600128173828 127.81300354003906 94.97139739990234 118.48400115966797 95.08899688720703" stroke-width="2.0" fill="none" stroke="rgb(0, 0, 0)" stroke-opacity="1" stroke-linecap="round" stroke-linejoin="round"/>
    <path d="M 82.206298828125 72.17659759521484 C 31.30739974975586 81.85469818115234 3.981790065765381 53.43790054321289 87.25340270996094 81.12329864501953" stroke-width="2.0" fill="none" stroke="rgb(0, 0, 0)" stroke-opacity="1" stroke-linecap="round" stroke-linejoin="round"/>
    <path d="M 61.22719955444336 44.94060134887695 C 91.17880249023438 64.69940185546875 108.69300079345703 87.6946029663086 68.53790283203125 57.68109893798828" stroke-width="2.0" fill="none" stroke="rgb(0, 0, 0)" stroke-opacity="1" stroke-linecap="round" stroke-linejoin="round"/>
    <path d="M 118.49299621582031 125.46199798583984 C 67.45480346679688 104.88800048828125 100.69999694824219 139.81700134277344 93.43150329589844 88.21640014648438" stroke-width="2.0" fill="none" stroke="rgb(0, 0, 0)" stroke-opacity="1" stroke-linecap="round" stroke-linejoin="round"/>
    <path d="M 34.31880187988281 77.25250244140625 C 45.53269958496094 80.47810363769531 80.30500030517578 73.53209686279297 95.45700073242188 80.5062026977539" stroke-width="2.0" fill="none" stroke="rgb(0, 0, 0)" stroke-opacity="1" stroke-linecap="round" stroke-linejoin="round"/>
    <path d="M 124.39099884033203 100.322998046875 C 119.51799774169922 88.59590148925781 103.83799743652344 84.15380096435547 120.29499816894531 95.043701171875" stroke-width="2.0" fill="none" stroke="rgb(0, 0, 0)" stroke-opacity="1" stroke-linecap="round" stroke-linejoin="round"/>
    <path d="M 56.79520034790039 16.0 C 74.13089752197266 54.18550109863281 93.01899719238281 68.06439971923828 63.04909896850586 27.82670021057129" stroke-width="2.0" fill="none" stroke="rgb(0, 0, 0)" stroke-opacity="1" stroke-linecap="round" stroke-linejoin="round"/>
    <path d="M 101.57099914550781 93.8467025756836 C 65.78389739990234 80.3833999633789 73.53520202636719 79.94819641113281 63.907501220703125 81.85990142822266" stroke-width="2.0" fill="none" stroke="rgb(0, 0, 0)" stroke-opacity="1" stroke-linecap="round" stroke-linejoin="round"/>
    <path d="M 93.79630279541016 121.59700012207031 C 112.68399810791016 91.01679992675781 106.38899993896484 76.70480346679688 71.11019897460938 107.66200256347656" stroke-width="2.0" fill="none" stroke="rgb(0, 0, 0)" stroke-opacity="1" stroke-linecap="round" stroke-linejoin="round"/>
    <path d="M 58.126399993896484 95.15239715576172 C 73.92960357666016 95.94059753417969 58.4547004699707 82.03810119628906 90.6760025024414 108.63700103759766" stroke-width="2.0" fill="none" stroke="rgb(0, 0, 0)" stroke-opacity="1" stroke-linecap="round" stroke-linejoin="round"/>
    <path d="M 93.9977035522461 93.18800354003906 C 115.00599670410156 130.218994140625 86.20950317382812 85.76190185546875 99.92009735107422 105.05599975585938" stroke-width="2.0" fill="none" stroke="rgb(0, 0, 0)" stroke-opacity="1" stroke-linecap="round" stroke-linejoin="round"/>
    <path d="M 79.4395980834961 67.58370208740234 C 105.91799926757812 109.43800354003906 88.46720123291016 86.92780303955078 88.95040130615234 72.14569854736328" stroke-width="2.0" fill="none" stroke="rgb(0, 0, 0)" stroke-opacity="1" stroke-linecap="round" stroke-linejoin="round"/>
    <path d="M 102.8759994506836 111.75700378417969 C 61.52799987792969 97.28510284423828 61.01639938354492 70.08480072021484 90.18440246582031 115.96600341796875" stroke-width="2.0" fill="none" stroke="rgb(0, 0, 0)" stroke-opacity="1" stroke-linecap="round" stroke-linejoin="round"/>
    <path d="M 97.30740356445312 119.08699798583984 C 108.56999969482422 106.67500305175781 123.31099700927734 77.53109741210938 91.43099975585938 123.9729995727539" stroke-width="2.0" fill="none" stroke="rgb(0, 0, 0)" stroke-opacity="1" stroke-linecap="round" stroke-linejoin="round"/>
    <path d="M 68.1489028930664 22.08489990234375 C 81.0542984008789 52.11029815673828 87.55719757080078 64.21019744873047 55.72420120239258 39.080501556396484" stroke-width="2.0" fill="none" stroke="rgb(0, 0, 0)" stroke-opacity="1" stroke-linecap="round" stroke-linejoin="round"/>
    <path d="M 36.951499938964844 81.09729766845703 C 119.18800354003906 70.95359802246094 76.47840118408203 85.84980010986328 42.86750030517578 88.78089904785156" stroke-width="2.0" fill="none" stroke="rgb(0, 0, 0)" stroke-opacity="1" stroke-linecap="round" stroke-linejoin="round"/>
    <path d="M 95.40969848632812 121.302001953125 C 98.43800354003906 70.10910034179688 119.43399810791016 102.93900299072266 73.61540222167969 109.57099914550781" stroke-width="2.0" fill="none" stroke="rgb(0, 0, 0)" stroke-opacity="1" stroke-linecap="round" stroke-linejoin="round"/>
    <path d="M 80.80380249023438 63.3203010559082 C 88.3998031616211 59.56610107421875 100.02999877929688 88.48210144042969 81.04810333251953 38.708900451660156" stroke-width="2.0" fill="none" stroke="rgb(0, 0, 0)" stroke-opacity="1" stroke-linecap="round" stroke-linejoin="round"/>
    <path d="M 57.03630065917969 18.582700729370117 C 105.03600311279297 60.76620101928711 63.748600006103516 51.98310089111328 45.27349853515625 28.41360092163086" stroke-width="2.0" fill="none" stroke="rgb(0, 0, 0)" stroke-opacity="1" stroke-linecap="round" stroke-linejoin="round"/>
    <path d="M 81.0656967163086 78.27179718017578 C 67.85649871826172 69.7072982788086 69.61219787597656 71.79290008544922 90.57050323486328 86.09380340576172" stroke-width="2.0" fill="none" stroke="rgb(0, 0, 0)" stroke-opacity="1" stroke-linecap="round" stroke-linejoin="round"/>
    <path d="M 32.192501068115234 70.4094009399414 C 51.293800354003906 71.75180053710938 10.543999671936035 55.516700744628906 46.56010055541992 53.65340042114258" stroke-width="2.0" fill="none" stroke="rgb(0, 0, 0)" stroke-opacity="1" stroke-linecap="round" stroke-linejoin="round"/>
    <path d="M 97.96659851074219 90.86280059814453 C 27.663400650024414 82.89430236816406 47.37699890136719 110.3280029296875 94.7686996459961 85.78510284423828" stroke-width="2.0" fill="none" stroke="rgb(0, 0, 0)" stroke-opacity="1" stroke-linecap="round" stroke-linejoin="round"/>
    <path d="M 31.80780029296875 51.77899932861328 C 96.65260314941406 74.33219909667969 106.43499755859375 74.69270324707031 48.9818000793457 90.1449966430664" stroke-width="2.0" fill="none" stroke="rgb(0, 0, 0)" stroke-opacity="1" stroke-linecap="round" stroke-linejoin="round"/>
    <path d="M 90.11740112304688 59.27470016479492 C 61.709598541259766 28.358299255371094 58.80379867553711 22.34830093383789 80.94129943847656 49.625301361083984" stroke-width="2.0" fill="none" stroke="rgb(0, 0, 0)" stroke-opacity="1" stroke-linecap="round" stroke-linejoin="round"/>
    <path d="M 75.93350219726562 73.30809783935547 C 35.359500885009766 72.63580322265625 93.35230255126953 61.94540023803711 74.55770111083984 98.78170013427734" stroke-width="2.0" fill="none" stroke="rgb(0, 0, 0)" stroke-opacity="1" stroke-linecap="round" stroke-linejoin="round"/>
    <path d="M 80.6865005493164 71.10350036621094 C 54.61750030517578 51.53850173950195 30.241600036621094 52.075801849365234 14.025699615478516 31.84510040283203" stroke-width="2.0" fill="none" stroke="rgb(0, 0, 0)" stroke-opacity="1" stroke-linecap="round" stroke-linejoin="round"/>
    <path d="M 54.54140090942383 98.99089813232422 C 121.4469985961914 122.33899688720703 100.72100067138672 72.15260314941406 48.535499572753906 93.55249786376953" stroke-width="2.0" fill="none" stroke="rgb(0, 0, 0)" stroke-opacity="1" stroke-linecap="round" stroke-linejoin="round"/>
    <path d="M 22.537500381469727 59.18579864501953 C 41.14149856567383 57.70399856567383 41.722801208496094 67.88580322265625 83.76300048828125 68.42639923095703" stroke-width="2.0" fill="none" stroke="rgb(0, 0, 0)" stroke-opacity="1" stroke-linecap="round" stroke-linejoin="round"/>
    <path d="M 97.9363021850586 102.54299926757812 C 40.18009948730469 90.91190338134766 65.94750213623047 112.12899780273438 82.85820007324219 80.6615982055664" stroke-width="2.0" fill="none" stroke="rgb(0, 0, 0)" stroke-opacity="1" stroke-linecap="round" stroke-linejoin="round"/>
    <path d="M 76.185302734375 62.81719970703125 C 89.06279754638672 86.13580322265625 100.24600219726562 65.45570373535156 83.23090362548828 51.709999084472656" stroke-width="2.0" fill="none" stroke="rgb(0, 0, 0)" stroke-opacity="1" stroke-linecap="round" stroke-linejoin="round"/>
    <path d="M 12.340299606323242 51.198299407958984 C 48.3025016784668 55.5010986328125 27.87809944152832 63.216400146484375 13.41510009765625 52.534000396728516" stroke-width="2.0" fill="none" stroke="rgb(0, 0, 0)" stroke-opacity="1" stroke-linecap="round" stroke-linejoin="round"/>
    <path d="M 26.678699493408203 48.23550033569336 C 54.762699127197266 58.72719955444336 18.833900451660156 47.80730056762695 10.653900146484375 38.9546012878418" stroke-width="2.0" fill="none" stroke="rgb(0, 0, 0)" stroke-opacity="1" stroke-linecap="round" stroke-linejoin="round"/>
    <path d="M 116.7229995727539 89.71389770507812 C 97.12930297851562 87.7499008178711 136.3280029296875 90.06439971923828 93.67739868164062 125.34400177001953" stroke-width="2.0" fill="none" stroke="rgb(0, 0, 0)" stroke-opacity="1" stroke-linecap="round" stroke-linejoin="round"/>
    <path d="M 30.35260009765625 59.25749969482422 C 3.9430899620056152 45.144500732421875 11.317500114440918 60.498199462890625 62.42179870605469 70.3551025390625" stroke-width="2.0" fill="none" stroke="rgb(0, 0, 0)" stroke-opacity="1" stroke-linecap="round" stroke-linejoin="round"/>
    <path d="M 19.164600372314453 55.05070114135742 C 36.160400390625 55.790401458740234 39.8765983581543 55.041099548339844 83.06189727783203 75.9802017211914" stroke-width="2.0" fill="none" stroke="rgb(0, 0, 0)" stroke-opacity="1" stroke-linecap="round" stroke-linejoin="round"/>
    <path d="M 82.32839965820312 101.1240005493164 C 75.38079833984375 66.95590209960938 98.6511001586914 52.0890007019043 93.15470123291016 74.68920135498047" stroke-width="2.0" fill="none" stroke="rgb(0, 0, 0)" stroke-opacity="1" stroke-linecap="round" stroke-linejoin="round"/>
    <path d="M 54.28839874267578 124.60299682617188 C 81.46369934082031 114.69999694824219 73.28579711914062 124.40599822998047 102.42400360107422 100.50499725341797" stroke-width="2.0" fill="none" stroke="rgb(0, 0, 0)" stroke-opacity="1" stroke-linecap="round" stroke-linejoin="round"/>
    <path d="M 85.92369842529297 56.58330154418945 C 61.72140121459961 37.491600036621094 89.61389923095703 59.1442985534668 63.438899993896484 38.2495002746582" stroke-width="2.0" fill="none" stroke="rgb(0, 0, 0)" stroke-opacity="1" stroke-linecap="round" stroke-linejoin="round"/>
    <path d="M 110.61499786376953 124.68299865722656 C 122.75299835205078 123.40799713134766 90.82929992675781 122.73600006103516 105.98400115966797 130.11599731445312" stroke-width="2.0" fill="none" stroke="rgb(0, 0, 0)" stroke-opacity="1" stroke-linecap="round" stroke-linejoin="round"/>
    <path d="M 80.13310241699219 67.85479736328125 C 22.21380043029785 35.034000396728516 39.012298583984375 48.99850082397461 21.268199920654297 29.63279914855957" stroke-width="2.0" fill="none" stroke="rgb(0, 0, 0)" stroke-opacity="1" stroke-linecap="round" stroke-linejoin="round"/>
    <path d="M 85.96119689941406 105.48999786376953 C 46.75310134887695 42.89390182495117 79.17489624023438 49.46480178833008 107.03600311279297 93.8134994506836" stroke-width="2.0" fill="none" stroke="rgb(0, 0, 0)" stroke-opacity="1" stroke-linecap="round" stroke-linejoin="round"/>
    <path d="M 88.76499938964844 78.9613037109375 C 36.65129852294922 87.55490112304688 39.60260009765625 112.5260009765625 84.16490173339844 76.49440002441406" stroke-width="2.0" fill="none" stroke="rgb(0, 0, 0)" stroke-opacity="1" stroke-linecap="round" stroke-linejoin="round"/>
    <path d="M 80.31829833984375 119.9520034790039 C 102.48799896240234 134.45599365234375 83.00810241699219 84.15380096435547 68.00910186767578 105.82599639892578" stroke-width="2.0" fill="none" stroke="rgb(0, 0, 0)" stroke-opacity="1" stroke-linecap="round" stroke-linejoin="round"/>
    <path d="M 79.02660369873047 51.82500076293945 C 64.9480972290039 18.85700035095215 86.6895980834961 30.62459945678711 91.49169921875 69.64080047607422" stroke-width="2.0" fill="none" stroke="rgb(0, 0, 0)" stroke-opacity="1" stroke-linecap="round" stroke-linejoin="round"/>
    <path d="M 59.31480026245117 80.26899719238281 C 100.15799713134766 81.32389831542969 77.88970184326172 54.04330062866211 66.07129669189453 87.8551025390625" stroke-width="2.0" fill="none" stroke="rgb(0, 0, 0)" stroke-opacity="1" stroke-linecap="round" stroke-linejoin="round"/>
    <path d="M 72.34490203857422 43.328399658203125 C 102.60600280761719 71.41190338134766 103.447998046875 75.904296875 61.16350173950195 47.19340133666992" stroke-width="2.0" fill="none" stroke="rgb(0, 0, 0)" stroke-opacity="1" stroke-linecap="round" stroke-linejoin="round"/>
    <path d="M 107.1989974975586 110.71299743652344 C 70.65409851074219 54.27750015258789 75.0167007446289 93.05979919433594 91.6718978881836 88.77110290527344" stroke-width="2.0" fill="none" stroke="rgb(0, 0, 0)" stroke-opacity="1" stroke-linecap="round" stroke-linejoin="round"/>
    <path d="M 78.27040100097656 49.934200286865234 C 46.05659866333008 38.59989929199219 60.44070053100586 40.71139907836914 89.52259826660156 62.724700927734375" stroke-width="2.0" fill="none" stroke="rgb(0, 0, 0)" stroke-opacity="1" stroke-linecap="round" stroke-linejoin="round"/>
    <path d="M 184.66099548339844 156.77999877929688 C 193.91700744628906 186.4739990234375 183.82400512695312 170.7830047607422 197.3520050048828 159.74400329589844" stroke-width="3.0" fill="none" stroke="rgb(0, 0, 0)" stroke-opacity="1" stroke-linecap="round" stroke-linejoin="round"/>
    <path d="M 191.0709991455078 148.02699279785156 C 179.29299926757812 158.91299438476562 195.72300720214844 164.5030059814453 182.85499572753906 173.1020050048828" stroke-width="3.0" fill="none" stroke="rgb(0, 0, 0)" stroke-opacity="1" stroke-linecap="round" stroke-linejoin="round"/>
    <path d="M 164.68800354003906 171.4429931640625 C 173.7270050048828 171.39100646972656 150.98199462890625 157.64500427246094 171.8679962158203 161.28199768066406" stroke-width="3.0" fill="none" stroke="rgb(0, 0, 0)" stroke-opacity="1" stroke-linecap="round" stroke-linejoin="round"/>
    <path d="M 166.37100219726562 165.10000610351562 C 158.08700561523438 139.01499938964844 152.86900329589844 157.3489990234375 166.9040069580078 167.85699462890625" stroke-width="3.0" fill="none" stroke="rgb(0, 0, 0)" stroke-opacity="1" stroke-linecap="round" stroke-linejoin="round"/>
    <path d="M 167.11500549316406 147.58099365234375 C 159.44400024414062 156.3699951171875 137.3090057373047 152.76800537109375 169.8820037841797 157.27999877929688" stroke-width="3.0" fill="none" stroke="rgb(0, 0, 0)" stroke-opacity="1" stroke-linecap="round" stroke-linejoin="round"/>
    <path d="M 180.26600646972656 164.5399932861328 C 195.697998046875 177.16600036621094 187.49000549316406 171.6490020751953 188.36099243164062 166.34800720214844" stroke-width="3.0" fill="none" stroke="rgb(0, 0, 0)" stroke-opacity="1" stroke-linecap="round" stroke-linejoin="round"/>
    <path d="M 161.83700561523438 151.35400390625 C 180.53900146484375 152.2779998779297 171.76400756835938 170.48500061035156 188.35699462890625 152.09500122070312" stroke-width="3.0" fill="none" stroke="rgb(0, 0, 0)" stroke-opacity="1" stroke-linecap="round" stroke-linejoin="round"/>
    <path d="M 156.5070037841797 183.97300720214844 C 170.08399963378906 184.7220001220703 174.11900329589844 186.7779998779297 182.19700622558594 184.58099365234375" stroke-width="3.0" fill="none" stroke="rgb(0, 0, 0)" stroke-opacity="1" stroke-linecap="round" stroke-linejoin="round"/>
    <path d="M 160.2830047607422 187.1529998779297 C 183.51800537109375 181.54200744628906 156.7740020751953 187.01600646972656 162.31500244140625 182.3179931640625" stroke-width="3.0" fill="none" stroke="rgb(0, 0, 0)" stroke-opacity="1" stroke-linecap="round" stroke-linejoin="round"/>
    <path d="M 165.45700073242188 151.11099243164062 C 150.0019989013672 148.04200744628906 150.697998046875 144.63699340820312 167.2469940185547 156.66900634765625" stroke-width="3.0" fill="none" stroke="rgb(0, 0, 0)" stroke-opacity="1" stroke-linecap="round" stroke-linejoin="round"/>
    <path d="M 155.7259979248047 186.42300415039062 C 195.14599609375 187.38600158691406 189.14700317382812 176.125 201.3000030517578 181.57699584960938" stroke-width="3.0" fill="none" stroke="rgb(0, 0, 0)" stroke-opacity="1" stroke-linecap="round" stroke-linejoin="round"/>
    <path d="M 179.51100158691406 162.45899963378906 C 186.052001953125 175.0500030517578 179.3489990234375 161.3470001220703 179.0469970703125 161.50100708007812" stroke-width="3.0" fill="none" stroke="rgb(0, 0, 0)" stroke-opacity="1" stroke-linecap="round" stroke-linejoin="round"/>
    <path d="M 153.52699279785156 155.375 C 165.13800048828125 149.94900512695312 163.97500610351562 165.02999877929688 167.85299682617188 165.2989959716797" stroke-width="3.0" fill="none" stroke="rgb(0, 0, 0)" stroke-opacity="1" stroke-linecap="round" stroke-linejoin="round"/>
    <path d="M 150.35299682617188 187.0489959716797 C 172.21200561523438 179.11199951171875 165.83999633789062 172.35800170898438 178.42300415039062 172.38099670410156" stroke-width="3.0" fill="none" stroke="rgb(0, 0, 0)" stroke-opacity="1" stroke-linecap="round" stroke-linejoin="round"/>
    <path d="M 165.5780029296875 151.04400634765625 C 155.8470001220703 146.99400329589844 164.45700073242188 142.63900756835938 167.6719970703125 163.33299255371094" stroke-width="3.0" fill="none" stroke="rgb(0, 0, 0)" stroke-opacity="1" stroke-linecap="round" stroke-linejoin="round"/>
    <path d="M 142.0030059814453 130.22300720214844 C 160.12100219726562 143.66600036621094 165.95399475097656 140.51100158691406 172.84800720214844 156.79400634765625" stroke-width="3.0" fill="none" stroke="rgb(0, 0, 0)" stroke-opacity="1" stroke-linecap="round" stroke-linejoin="round"/>
    <path d="M 143.28700256347656 128.0 C 150.94700622558594 135.6490020751953 154.6280059814453 133.85499572753906 168.17100524902344 149.77999877929688" stroke-width="3.0" fill="none" stroke="rgb(0, 0, 0)" stroke-opacity="1" stroke-linecap="round" stroke-linejoin="round"/>
    <path d="M 189.2760009765625 177.29400634765625 C 187.2830047607422 187.7100067138672 203.86099243164062 175.60800170898438 198.48399353027344 178.66400146484375" stroke-width="3.0" fill="none" stroke="rgb(0, 0, 0)" stroke-opacity="1" stroke-linecap="round" stroke-linejoin="round"/>
    <path d="M 194.2239990234375 174.31900024414062 C 194.61199951171875 175.86700439453125 196.22999572753906 173.55299377441406 194.447998046875 174.41600036621094" stroke-width="3.0" fill="none" stroke="rgb(0, 0, 0)" stroke-opacity="1" stroke-linecap="round" stroke-linejoin="round"/>
    <path d="M 150.8769989013672 185.58799743652344 C 180.46400451660156 186.18099975585938 149.60699462890625 192.9499969482422 171.14999389648438 168.2550048828125" stroke-width="3.0" fill="none" stroke="rgb(0, 0, 0)" stroke-opacity="1" stroke-linecap="round" stroke-linejoin="round"/>
    <path d="M 156.0469970703125 185.72300720214844 C 164.7550048828125 178.47500610351562 173.68499755859375 180.07899475097656 151.1020050048828 186.77200317382812" stroke-width="3.0" fill="none" stroke="rgb(0, 0, 0)" stroke-opacity="1" stroke-linecap="round" stroke-linejoin="round"/>
    <path d="M 189.39500427246094 181.71099853515625 C 201.89999389648438 183.40699768066406 196.92300415039062 173.06500244140625 198.2429962158203 179.5260009765625" stroke-width="3.0" fill="none" stroke="rgb(0, 0, 0)" stroke-opacity="1" stroke-linecap="round" stroke-linejoin="round"/>
    <path d="M 152.50999450683594 152.45899963378906 C 164.9980010986328 150.3509979248047 153.0540008544922 151.47999572753906 165.822998046875 175.83200073242188" stroke-width="3.0" fill="none" stroke="rgb(0, 0, 0)" stroke-opacity="1" stroke-linecap="round" stroke-linejoin="round"/>
    <path d="M 192.98500061035156 177.11300659179688 C 208.81300354003906 180.05599975585938 205.2429962158203 189.24000549316406 196.8459930419922 176.54200744628906" stroke-width="3.0" fill="none" stroke="rgb(0, 0, 0)" stroke-opacity="1" stroke-linecap="round" stroke-linejoin="round"/>
    <path d="M 165.42100524902344 155.5760040283203 C 153.0919952392578 150.6580047607422 175.46499633789062 153.6929931640625 145.4080047607422 137.3719940185547" stroke-width="3.0" fill="none" stroke="rgb(0, 0, 0)" stroke-opacity="1" stroke-linecap="round" stroke-linejoin="round"/>
    <path d="M 188.59300231933594 158.84100341796875 C 190.16099548339844 170.0019989013672 168.3040008544922 167.10800170898438 197.00599670410156 174.70700073242188" stroke-width="3.0" fill="none" stroke="rgb(0, 0, 0)" stroke-opacity="1" stroke-linecap="round" stroke-linejoin="round"/>
    <path d="M 144.53900146484375 139.8489990234375 C 179.8509979248047 159.9290008544922 145.48500061035156 144.6649932861328 145.16200256347656 141.9459991455078" stroke-width="3.0" fill="none" stroke="rgb(0, 0, 0)" stroke-opacity="1" stroke-linecap="round" stroke-linejoin="round"/>
    <path d="M 149.40899658203125 188.1280059814453 C 165.0749969482422 184.20199584960938 161.74600219726562 181.71200561523438 163.98199462890625 181.2830047607422" stroke-width="3.0" fill="none" stroke="rgb(0, 0, 0)" stroke-opacity="1" stroke-linecap="round" stroke-linejoin="round"/>
    <path d="M 195.74000549316406 160.72000122070312 C 184.2530059814453 140.30799865722656 202.4600067138672 156.52499389648438 187.56700134277344 166.55099487304688" stroke-width="3.0" fill="none" stroke="rgb(0, 0, 0)" stroke-opacity="1" stroke-linecap="round" stroke-linejoin="round"/>
    <path d="M 188.14999389648438 155.1280059814453 C 175.927001953125 177.8719940185547 181.6959991455078 162.3040008544922 167.2429962158203 147.3979949951172" stroke-width="3.0" fill="none" stroke="rgb(0, 0, 0)" stroke-opacity="1" stroke-linecap="round" stroke-linejoin="round"/>
    <path d="M 154.70599365234375 159.35299682617188 C 171.91299438476562 150.1790008544922 175.79200744628906 149.44400024414062 159.36599731445312 161.3800048828125" stroke-width="3.0" fill="none" stroke="rgb(0, 0, 0)" stroke-opacity="1" stroke-linecap="round" stroke-linejoin="round"/>
    <path d="M 203.822998046875 182.28399658203125 C 197.83399963378906 176.01300048828125 187.31500244140625 180.9770050048828 198.94400024414062 176.74099731445312" stroke-width="3.0" fill="none" stroke="rgb(0, 0, 0)" stroke-opacity="1" stroke-linecap="round" stroke-linejoin="round"/>
    <path d="M 154.16000366210938 157.5019989013672 C 173.53900146484375 149.9040069580078 180.7729949951172 158.8509979248047 161.2239990234375 141.25999450683594" stroke-width="3.0" fill="none" stroke="rgb(0, 0, 0)" stroke-opacity="1" stroke-linecap="round" stroke-linejoin="round"/>
    <path d="M 183.83599853515625 168.5959930419922 C 191.1699981689453 170.70700073242188 174.08099365234375 174.58700561523438 190.48399353027344 167.75900268554688" stroke-width="3.0" fill="none" stroke="rgb(0, 0, 0)" stroke-opacity="1" stroke-linecap="round" stroke-linejoin="round"/>
    <path d="M 142.9969940185547 129.4759979248047 C 155.20700073242188 138.08299255371094 152.17599487304688 138.00399780273438 146.34800720214844 130.81399536132812" stroke-width="3.0" fill="none" stroke="rgb(0, 0, 0)" stroke-opacity="1" stroke-linecap="round" stroke-linejoin="round"/>
    <path d="M 183.18899536132812 156.91799926757812 C 186.88699340820312 176.0330047607422 195.0279998779297 161.93800354003906 188.23699951171875 171.89100646972656" stroke-width="3.0" fill="none" stroke="rgb(0, 0, 0)" stroke-opacity="1" stroke-linecap="round" stroke-linejoin="round"/>
    <path d="M 168.54200744628906 172.06399536132812 C 169.06199645996094 168.61900329589844 143.46099853515625 149.03599548339844 168.40499877929688 166.91200256347656" stroke-width="3.0" fill="none" stroke="rgb(0, 0, 0)" stroke-opacity="1" stroke-linecap="round" stroke-linejoin="round"/>
    <path d="M 189.19000244140625 152.60499572753906 C 201.2530059814453 163.5189971923828 173.86599731445312 169.32000732421875 185.2830047607422 171.9499969482422" stroke-width="3.0" fill="none" stroke="rgb(0, 0, 0)" stroke-opacity="1" stroke-linecap="round" stroke-linejoin="round"/>
    <path d="M 162.46600341796875 180.71499633789062 C 144.76699829101562 186.02099609375 146.9969940185547 181.69900512695312 148.81700134277344 186.7969970703125" stroke-width="3.0" fill="none" stroke="rgb(0, 0, 0)" stroke-opacity="1" stroke-linecap="round" stroke-linejoin="round"/>
    <path d="M 190.156005859375 150.33399963378906 C 199.42599487304688 161.50900268554688 184.656005859375 172.36700439453125 191.875 159.43899536132812" stroke-width="3.0" fill="none" stroke="rgb(0, 0, 0)" stroke-opacity="1" stroke-linecap="round" stroke-linejoin="round"/>
    <path d="M 191.11000061035156 146.64199829101562 C 196.55499267578125 151.1820068359375 196.2760009765625 148.6219940185547 197.77999877929688 158.90899658203125" stroke-width="3.0" fill="none" stroke="rgb(0, 0, 0)" stroke-opacity="1" stroke-linecap="round" stroke-linejoin="round"/>
    <path d="M 189.02699279785156 169.73699951171875 C 167.6999969482422 160.3780059814453 180.60299682617188 154.9929962158203 166.86700439453125 151.0749969482422" stroke-width="3.0" fill="none" stroke="rgb(0, 0, 0)" stroke-opacity="1" stroke-linecap="round" stroke-linejoin="round"/>
    <path d="M 199.89599609375 179.08700561523438 C 188.3769989013672 178.22900390625 196.2050018310547 167.75 200.8350067138672 181.13999938964844" stroke-width="3.0" fill="none" stroke="rgb(0, 0, 0)" stroke-opacity="1" stroke-linecap="round" stroke-linejoin="round"/>
    <path d="M 141.0 128.07699584960938 C 146.43499755859375 140.83200073242188 167.2209930419922 145.0780029296875 166.87899780273438 153.0189971923828" stroke-width="3.0" fill="none" stroke="rgb(0, 0, 0)" stroke-opacity="1" stroke-linecap="round" stroke-linejoin="round"/>
    <path d="M 193.16200256347656 158.5540008544922 C 192.38999938964844 172.8280029296875 176.79400634765625 182.1529998779297 183.46400451660156 156.15499877929688" stroke-width="3.0" fill="none" stroke="rgb(0, 0, 0)" stroke-opacity="1" stroke-linecap="round" stroke-linejoin="round"/>
    <path d="M 189.0500030517578 167.73300170898438 C 186.20700073242188 134.94900512695312 197.7469940185547 147.5780029296875 192.35899353027344 162.79400634765625" stroke-width="3.0" fill="none" stroke="rgb(0, 0, 0)" stroke-opacity="1" stroke-linecap="round" stroke-linejoin="round"/>
    <path d="M 166.76499938964844 164.16900634765625 C 161.6739959716797 151.34800720214844 168.22900390625 166.281005859375 147.51800537109375 144.3209991455078" stroke-width="3.0" fill="none" stroke="rgb(0, 0, 0)" stroke-opacity="1" stroke-linecap="round" stroke-linejoin="round"/>
    <path d="M 165.3820037841797 163.9709930419922 C 168.23599243164062 146.83700561523438 167.47900390625 145.39700317382812 150.0290069580078 137.11700439453125" stroke-width="3.0" fill="none" stroke="rgb(0, 0, 0)" stroke-opacity="1" stroke-linecap="round" stroke-linejoin="round"/>
    <path d="M 180.6529998779297 165.0399932861328 C 192.68499755859375 158.3769989013672 205.23399353027344 152.94700622558594 180.97500610351562 167.19400024414062" stroke-width="3.0" fill="none" stroke="rgb(0, 0, 0)" stroke-opacity="1" stroke-linecap="round" stroke-linejoin="round"/>
    <path d="M 151.49600219726562 149.281005859375 C 175.08799743652344 156.96400451660156 171.96200561523438 156.88699340820312 165.7830047607422 146.88900756835938" stroke-width="3.0" fill="none" stroke="rgb(0, 0, 0)" stroke-opacity="1" stroke-linecap="round" stroke-linejoin="round"/>
    <path d="M 194.61700439453125 154.2449951171875 C 192.30799865722656 172.3090057373047 187.2830047607422 170.9340057373047 179.6020050048828 160.77699279785156" stroke-width="3.0" fill="none" stroke="rgb(0, 0, 0)" stroke-opacity="1" stroke-linecap="round" stroke-linejoin="round"/>
    <path d="M 173.46600341796875 152.59500122070312 C 173.46600341796875 184.66200256347656 173.46600341796875 169.16400146484375 173.46600341796875 157.12100219726562" stroke-width="3.0" fill="none" stroke="rgb(0, 0, 0)" stroke-opacity="1" stroke-linecap="round" stroke-linejoin="round"/>
    <path d="M 156.76800537109375 190.0 C 178.29100036621094 184.2259979248047 149.69900512695312 186.15699768066406 169.74600219726562 176.68699645996094" stroke-width="3.0" fill="none" stroke="rgb(0, 0, 0)" stroke-opacity="1" stroke-linecap="round" stroke-linejoin="round"/>
    <path d="M 170.8979949951172 154.85000610351562 C 164.0070037841797 148.4250030517578 155.34100341796875 150.48800659179688 168.72500610351562 161.95599365234375" stroke-width="3.0" fill="none" stroke="rgb(0, 0, 0)" stroke-opacity="1" stroke-linecap="round" stroke-linejoin="round"/>
    <path d="M 159.3489990234375 140.9739990234375 C 176.8459930419922 149.1649932861328 166.91600036621094 167.5030059814453 159.1020050048828 156.1649932861328" stroke-width="3.0" fill="none" stroke="rgb(0, 0, 0)" stroke-opacity="1" stroke-linecap="round" stroke-linejoin="round"/>
    <path d="M 168.14500427246094 151.29600524902344 C 145.9949951171875 138.27499389648438 148.06500244140625 145.75900268554688 144.39599609375 133.27699279785156" stroke-width="3.0" fill="none" stroke="rgb(0, 0, 0)" stroke-opacity="1" stroke-linecap="round" stroke-linejoin="round"/>
    <path d="M 169.02099609375 167.12100219726562 C 143.99000549316406 143.98300170898438 166.28900146484375 179.3040008544922 167.76800537109375 166.0" stroke-width="3.0" fill="none" stroke="rgb(0, 0, 0)" stroke-opacity="1" stroke-linecap="round" stroke-linejoin="round"/>
    <path d="M 180.64500427246094 167.62600708007812 C 181.35400390625 148.53900146484375 185.2989959716797 161.38999938964844 192.03199768066406 148.78799438476562" stroke-width="3.0" fill="none" stroke="rgb(0, 0, 0)" stroke-opacity="1" stroke-linecap="round" stroke-linejoin="round"/>
    <path d="M 185.17599487304688 154.37600708007812 C 183.3699951171875 171.91099548339844 168.24200439453125 166.1790008544922 192.01699829101562 148.70899963378906" stroke-width="3.0" fill="none" stroke="rgb(0, 0, 0)" stroke-opacity="1" stroke-linecap="round" stroke-linejoin="round"/>
    <path d="M 159.76300048828125 163.07899475097656 C 172.15499877929688 143.69500732421875 153.77699279785156 144.91700744628906 165.9600067138672 147.4810028076172" stroke-width="3.0" fill="none" stroke="rgb(0, 0, 0)" stroke-opacity="1" stroke-linecap="round" stroke-linejoin="round"/>
    <path d="M 166.29200744628906 157.16099548339844 C 155.03900146484375 151.07000732421875 160.73599243164062 149.96200561523438 168.7570037841797 157.7729949951172" stroke-width="3.0" fill="none" stroke="rgb(0, 0, 0)" stroke-opacity="1" stroke-linecap="round" stroke-linejoin="round"/>
    <path d="M 166.05999755859375 149.16200256347656 C 151.71499633789062 135.31399536132812 147.8419952392578 134.43499755859375 169.0500030517578 150.06100463867188" stroke-width="3.0" fill="none" stroke="rgb(0, 0, 0)" stroke-opacity="1" stroke-linecap="round" stroke-linejoin="round"/>
    <path d="M 181.00799560546875 172.89599609375 C 198.5030059814453 161.2239990234375 176.46099853515625 166.5449981689453 192.5260009765625 163.21200561523438" stroke-width="3.0" fill="none" stroke="rgb(0, 0, 0)" stroke-opacity="1" stroke-linecap="round" stroke-linejoin="round"/>
    <path d="M 165.83999633789062 161.96600341796875 C 154.24200439453125 155.53799438476562 152.98800659179688 150.09500122070312 168.69200134277344 154.51400756835938" stroke-width="3.0" fill="none" stroke="rgb(0, 0, 0)" stroke-opacity="1" stroke-linecap="round" stroke-linejoin="round"/>
  </g>
</svg>
