<?xml version="1.0" ?>
<svg xmlns="http://www.w3.org/2000/svg" version="1.1" width="256" height="256">
  <defs/>
  <g>
    <path d="M 42.88869857788086 163.99400329589844 C 46.361900329589844 172.74099731445312 47.204498291015625 171.468994140625 44.48099899291992 163.78500366210938" stroke-width="2.0" fill="none" stroke="rgb(0, 0, 0)" stroke-opacity="1" stroke-linecap="round" stroke-linejoin="round"/>
    <path d="M 112.4469985961914 147.1510009765625 C 99.47760009765625 152.5540008544922 106.38800048828125 162.54400634765625 107.00299835205078 145.23699951171875" stroke-width="2.0" fill="none" stroke="rgb(0, 0, 0)" stroke-opacity="1" stroke-linecap="round" stroke-linejoin="round"/>
    <path d="M 103.7760009765625 163.99400329589844 C 99.845703125 142.39300537109375 103.15399932861328 185.85000610351562 120.0780029296875 164.83299255371094" stroke-width="2.0" fill="none" stroke="rgb(0, 0, 0)" stroke-opacity="1" stroke-linecap="round" stroke-linejoin="round"/>
    <path d="M 109.72599792480469 167.73899841308594 C 101.49400329589844 152.85499572753906 116.2040023803711 142.0229949951172 121.40399932861328 164.16200256347656" stroke-width="2.0" fill="none" stroke="rgb(0, 0, 0)" stroke-opacity="1" stroke-linecap="round" stroke-linejoin="round"/>
    <path d="M 105.08399963378906 165.03599548339844 C 100.61100006103516 152.08700561523438 117.27799987792969 138.82400512695312 122.322998046875 159.13099670410156" stroke-width="2.0" fill="none" stroke="rgb(0, 0, 0)" stroke-opacity="1" stroke-linecap="round" stroke-linejoin="round"/>
    <path d="M 93.80770111083984 165.9149932861328 C 41.910400390625 164.75 66.2926025390625 167.9499969482422 54.74850082397461 155.26199340820312" stroke-width="2.0" fill="none" stroke="rgb(0, 0, 0)" stroke-opacity="1" stroke-linecap="round" stroke-linejoin="round"/>
    <path d="M 111.53399658203125 144.9949951171875 C 86.00150299072266 151.4810028076172 137.35400390625 149.1510009765625 114.93099975585938 143.7550048828125" stroke-width="2.0" fill="none" stroke="rgb(0, 0, 0)" stroke-opacity="1" stroke-linecap="round" stroke-linejoin="round"/>
    <path d="M 104.62000274658203 145.40899658203125 C 100.55500030517578 144.2760009765625 96.8666000366211 140.9499969482422 122.76899719238281 148.9709930419922" stroke-width="2.0" fill="none" stroke="rgb(0, 0, 0)" stroke-opacity="1" stroke-linecap="round" stroke-linejoin="round"/>
    <path d="M 104.59300231933594 156.2830047607422 C 102.65499877929688 138.91000366210938 131.33599853515625 147.80599975585938 105.4020004272461 144.9510040283203" stroke-width="2.0" fill="none" stroke="rgb(0, 0, 0)" stroke-opacity="1" stroke-linecap="round" stroke-linejoin="round"/>
    <path d="M 54.9989013671875 154.1719970703125 C 46.53710174560547 150.2729949951172 59.97990036010742 150.1750030517578 58.23749923706055 166.5989990234375" stroke-width="2.0" fill="none" stroke="rgb(0, 0, 0)" stroke-opacity="1" stroke-linecap="round" stroke-linejoin="round"/>
    <path d="M 81.37190246582031 129.41700744628906 C 67.75589752197266 129.875 82.31770324707031 126.93699645996094 92.59130096435547 132.81300354003906" stroke-width="2.0" fill="none" stroke="rgb(0, 0, 0)" stroke-opacity="1" stroke-linecap="round" stroke-linejoin="round"/>
    <path d="M 64.99500274658203 129.35299682617188 C 80.39399719238281 128.77699279785156 74.27749633789062 125.53399658203125 79.78009796142578 140.48699951171875" stroke-width="2.0" fill="none" stroke="rgb(0, 0, 0)" stroke-opacity="1" stroke-linecap="round" stroke-linejoin="round"/>
    <path d="M 94.04889678955078 167.156005859375 C 74.46109771728516 166.2760009765625 80.877197265625 167.55999755859375 84.6416015625 166.67799377441406" stroke-width="2.0" fill="none" stroke="rgb(0, 0, 0)" stroke-opacity="1" stroke-linecap="round" stroke-linejoin="round"/>
    <path d="M 46.52880096435547 158.09800720214844 C 58.27949905395508 167.1269989013672 54.836299896240234 152.38400268554688 44.677101135253906 165.81399536132812" stroke-width="2.0" fill="none" stroke="rgb(0, 0, 0)" stroke-opacity="1" stroke-linecap="round" stroke-linejoin="round"/>
    <path d="M 47.35110092163086 151.23300170898438 C 55.01919937133789 148.5959930419922 55.323001861572266 154.35299682617188 48.11149978637695 151.5030059814453" stroke-width="2.0" fill="none" stroke="rgb(0, 0, 0)" stroke-opacity="1" stroke-linecap="round" stroke-linejoin="round"/>
    <path d="M 125.01799774169922 164.58799743652344 C 130.3280029296875 146.24099731445312 129.14199829101562 155.6490020751953 116.59100341796875 168.6179962158203" stroke-width="2.0" fill="none" stroke="rgb(0, 0, 0)" stroke-opacity="1" stroke-linecap="round" stroke-linejoin="round"/>
    <path d="M 77.4281997680664 128.6929931640625 C 79.38240051269531 128.51699829101562 81.86589813232422 128.16400146484375 69.78630065917969 129.1750030517578" stroke-width="2.0" fill="none" stroke="rgb(0, 0, 0)" stroke-opacity="1" stroke-linecap="round" stroke-linejoin="round"/>
    <path d="M 102.79900360107422 156.81300354003906 C 105.93399810791016 135.15199279785156 107.99199676513672 142.73300170898438 114.46199798583984 142.9600067138672" stroke-width="2.0" fill="none" stroke="rgb(0, 0, 0)" stroke-opacity="1" stroke-linecap="round" stroke-linejoin="round"/>
    <path d="M 62.91320037841797 130.4320068359375 C 50.31869888305664 132.13499450683594 46.69380187988281 145.18699645996094 49.3671989440918 136.25799560546875" stroke-width="2.0" fill="none" stroke="rgb(0, 0, 0)" stroke-opacity="1" stroke-linecap="round" stroke-linejoin="round"/>
    <path d="M 53.51570129394531 159.1300048828125 C 54.51530075073242 173.6790008544922 45.5797004699707 174.2740020751953 43.36669921875 157.71400451660156" stroke-width="2.0" fill="none" stroke="rgb(0, 0, 0)" stroke-opacity="1" stroke-linecap="round" stroke-linejoin="round"/>
    <path d="M 80.43329620361328 140.53799438476562 C 58.38330078125 138.2570037841797 67.57369995117188 142.3979949951172 60.59000015258789 131.59300231933594" stroke-width="2.0" fill="none" stroke="rgb(0, 0, 0)" stroke-opacity="1" stroke-linecap="round" stroke-linejoin="round"/>
    <path d="M 49.559898376464844 149.47900390625 C 41.22010040283203 150.07899475097656 41.31909942626953 168.1179962158203 45.6525993347168 168.27999877929688" stroke-width="2.0" fill="none" stroke="rgb(0, 0, 0)" stroke-opacity="1" stroke-linecap="round" stroke-linejoin="round"/>
    <path d="M 97.23529815673828 139.3719940185547 C 102.322998046875 143.60299682617188 93.96700286865234 140.46800231933594 83.05110168457031 140.66400146484375" stroke-width="2.0" fill="none" stroke="rgb(0, 0, 0)" stroke-opacity="1" stroke-linecap="round" stroke-linejoin="round"/>
    <path d="M 48.75360107421875 161.2519989013672 C 51.71229934692383 186.4429931640625 64.72969818115234 148.6959991455078 49.737098693847656 149.69500732421875" stroke-width="2.0" fill="none" stroke="rgb(0, 0, 0)" stroke-opacity="1" stroke-linecap="round" stroke-linejoin="round"/>
    <path d="M 35.264198303222656 147.51699829101562 C 34.81719970703125 140.3520050048828 40.70289993286133 146.84300231933594 34.91529846191406 147.1009979248047" stroke-width="2.0" fill="none" stroke="rgb(0, 0, 0)" stroke-opacity="1" stroke-linecap="round" stroke-linejoin="round"/>
    <path d="M 51.537899017333984 150.1959991455078 C 45.51070022583008 157.13800048828125 48.144901275634766 145.2729949951172 43.32350158691406 159.2469940185547" stroke-width="2.0" fill="none" stroke="rgb(0, 0, 0)" stroke-opacity="1" stroke-linecap="round" stroke-linejoin="round"/>
    <path d="M 34.64540100097656 161.19700622558594 C 34.096900939941406 153.23699951171875 33.199798583984375 156.38999938964844 35.46609878540039 141.781005859375" stroke-width="2.0" fill="none" stroke="rgb(0, 0, 0)" stroke-opacity="1" stroke-linecap="round" stroke-linejoin="round"/>
    <path d="M 123.41500091552734 164.2570037841797 C 123.11599731445312 145.0679931640625 129.43699645996094 159.17999267578125 118.40299987792969 149.91700744628906" stroke-width="2.0" fill="none" stroke="rgb(0, 0, 0)" stroke-opacity="1" stroke-linecap="round" stroke-linejoin="round"/>
    <path d="M 122.06900024414062 165.33900451660156 C 130.51800537109375 164.7429962158203 122.24299621582031 166.5760040283203 125.63500213623047 153.3769989013672" stroke-width="2.0" fill="none" stroke="rgb(0, 0, 0)" stroke-opacity="1" stroke-linecap="round" stroke-linejoin="round"/>
    <path d="M 84.01640319824219 166.8470001220703 C 105.73899841308594 166.9550018310547 114.32499694824219 163.39599609375 85.02880096435547 163.80299377441406" stroke-width="2.0" fill="none" stroke="rgb(0, 0, 0)" stroke-opacity="1" stroke-linecap="round" stroke-linejoin="round"/>
    <path d="M 111.71199798583984 146.2550048828125 C 107.1969985961914 139.2949981689453 108.66100311279297 148.21400451660156 108.17400360107422 141.82000732421875" stroke-width="2.0" fill="none" stroke="rgb(0, 0, 0)" stroke-opacity="1" stroke-linecap="round" stroke-linejoin="round"/>
    <path d="M 125.18000030517578 164.91099548339844 C 131.37600708007812 140.9010009765625 101.06400299072266 141.802001953125 108.75399780273438 148.5959930419922" stroke-width="2.0" fill="none" stroke="rgb(0, 0, 0)" stroke-opacity="1" stroke-linecap="round" stroke-linejoin="round"/>
    <path d="M 49.938201904296875 155.01800537109375 C 48.07099914550781 166.37399291992188 57.182701110839844 160.63900756835938 52.07099914550781 155.7949981689453" stroke-width="2.0" fill="none" stroke="rgb(0, 0, 0)" stroke-opacity="1" stroke-linecap="round" stroke-linejoin="round"/>
    <path d="M 76.77269744873047 129.0919952392578 C 63.07279968261719 128.69200134277344 86.88069915771484 125.67900085449219 94.2676010131836 132.85699462890625" stroke-width="2.0" fill="none" stroke="rgb(0, 0, 0)" stroke-opacity="1" stroke-linecap="round" stroke-linejoin="round"/>
    <path d="M 51.04650115966797 151.10000610351562 C 45.13520050048828 149.822998046875 61.057701110839844 146.4720001220703 59.13750076293945 165.8000030517578" stroke-width="2.0" fill="none" stroke="rgb(0, 0, 0)" stroke-opacity="1" stroke-linecap="round" stroke-linejoin="round"/>
    <path d="M 80.0801010131836 166.37600708007812 C 104.38600158691406 165.39599609375 101.18099975585938 165.88999938964844 89.38279724121094 166.44900512695312" stroke-width="2.0" fill="none" stroke="rgb(0, 0, 0)" stroke-opacity="1" stroke-linecap="round" stroke-linejoin="round"/>
    <path d="M 37.39289855957031 144.91000366210938 C 29.686500549316406 138.67100524902344 41.508399963378906 142.2429962158203 52.785099029541016 134.29299926757812" stroke-width="2.0" fill="none" stroke="rgb(0, 0, 0)" stroke-opacity="1" stroke-linecap="round" stroke-linejoin="round"/>
    <path d="M 95.67160034179688 137.6820068359375 C 91.81600189208984 133.1280059814453 90.02369689941406 130.62100219726562 95.27749633789062 136.593994140625" stroke-width="2.0" fill="none" stroke="rgb(0, 0, 0)" stroke-opacity="1" stroke-linecap="round" stroke-linejoin="round"/>
    <path d="M 122.26799774169922 144.75900268554688 C 102.1259994506836 138.8979949951172 95.48860168457031 141.0919952392578 123.59500122070312 146.5" stroke-width="2.0" fill="none" stroke="rgb(0, 0, 0)" stroke-opacity="1" stroke-linecap="round" stroke-linejoin="round"/>
    <path d="M 103.69200134277344 147.69200134277344 C 117.90699768066406 147.48699951171875 122.06999969482422 146.3979949951172 123.9739990234375 165.0229949951172" stroke-width="2.0" fill="none" stroke="rgb(0, 0, 0)" stroke-opacity="1" stroke-linecap="round" stroke-linejoin="round"/>
    <path d="M 88.31649780273438 129.55099487304688 C 103.91999816894531 142.3459930419922 98.42939758300781 146.3300018310547 96.0469970703125 138.87600708007812" stroke-width="2.0" fill="none" stroke="rgb(0, 0, 0)" stroke-opacity="1" stroke-linecap="round" stroke-linejoin="round"/>
    <path d="M 107.11299896240234 143.51800537109375 C 104.36900329589844 143.23800659179688 98.56559753417969 148.91900634765625 105.88600158691406 143.38600158691406" stroke-width="2.0" fill="none" stroke="rgb(0, 0, 0)" stroke-opacity="1" stroke-linecap="round" stroke-linejoin="round"/>
    <path d="M 94.06819915771484 141.57400512695312 C 92.81320190429688 130.30999755859375 91.418701171875 127.04299926757812 105.08499908447266 147.0590057373047" stroke-width="2.0" fill="none" stroke="rgb(0, 0, 0)" stroke-opacity="1" stroke-linecap="round" stroke-linejoin="round"/>
    <path d="M 43.7760009765625 165.14999389648438 C 32.73970031738281 161.82400512695312 34.86249923706055 163.5850067138672 34.10200119018555 153.58099365234375" stroke-width="2.0" fill="none" stroke="rgb(0, 0, 0)" stroke-opacity="1" stroke-linecap="round" stroke-linejoin="round"/>
    <path d="M 80.48829650878906 141.07899475097656 C 108.91500091552734 144.3159942626953 100.25499725341797 140.33999633789062 87.05509948730469 140.84500122070312" stroke-width="2.0" fill="none" stroke="rgb(0, 0, 0)" stroke-opacity="1" stroke-linecap="round" stroke-linejoin="round"/>
    <path d="M 60.14509963989258 131.30099487304688 C 46.180999755859375 135.5330047607422 49.64979934692383 140.08700561523438 46.14540100097656 138.2449951171875" stroke-width="2.0" fill="none" stroke="rgb(0, 0, 0)" stroke-opacity="1" stroke-linecap="round" stroke-linejoin="round"/>
    <path d="M 58.86709976196289 131.5679931640625 C 58.69070053100586 132.7989959716797 63.16889953613281 128.83799743652344 74.47940063476562 128.0" stroke-width="2.0" fill="none" stroke="rgb(0, 0, 0)" stroke-opacity="1" stroke-linecap="round" stroke-linejoin="round"/>
    <path d="M 77.91950225830078 135.3780059814453 C 80.74030303955078 141.27099609375 72.9740982055664 138.82200622558594 97.0864028930664 143.093994140625" stroke-width="2.0" fill="none" stroke="rgb(0, 0, 0)" stroke-opacity="1" stroke-linecap="round" stroke-linejoin="round"/>
    <path d="M 92.65260314941406 141.27699279785156 C 79.82039642333984 139.92999267578125 74.97339630126953 140.50799560546875 84.86170196533203 140.4550018310547" stroke-width="2.0" fill="none" stroke="rgb(0, 0, 0)" stroke-opacity="1" stroke-linecap="round" stroke-linejoin="round"/>
    <path d="M 110.96700286865234 144.02499389648438 C 66.23560333251953 141.22900390625 59.39400100708008 141.88900756835938 76.93419647216797 142.88499450683594" stroke-width="2.0" fill="none" stroke="rgb(0, 0, 0)" stroke-opacity="1" stroke-linecap="round" stroke-linejoin="round"/>
    <path d="M 76.59149932861328 128.5030059814453 C 77.8832015991211 132.98899841308594 77.88580322265625 126.2239990234375 63.16230010986328 129.50599670410156" stroke-width="2.0" fill="none" stroke="rgb(0, 0, 0)" stroke-opacity="1" stroke-linecap="round" stroke-linejoin="round"/>
    <path d="M 53.52410125732422 170.31300354003906 C 41.89569854736328 173.4429931640625 49.89680099487305 164.93600463867188 37.472900390625 163.593994140625" stroke-width="2.0" fill="none" stroke="rgb(0, 0, 0)" stroke-opacity="1" stroke-linecap="round" stroke-linejoin="round"/>
    <path d="M 71.80169677734375 128.92599487304688 C 56.02360153198242 131.25999450683594 66.22540283203125 128.85699462890625 83.5781021118164 129.6269989013672" stroke-width="2.0" fill="none" stroke="rgb(0, 0, 0)" stroke-opacity="1" stroke-linecap="round" stroke-linejoin="round"/>
    <path d="M 126.18900299072266 165.1750030517578 C 129.1719970703125 143.7550048828125 127.66799926757812 157.33200073242188 124.7770004272461 146.89999389648438" stroke-width="2.0" fill="none" stroke="rgb(0, 0, 0)" stroke-opacity="1" stroke-linecap="round" stroke-linejoin="round"/>
    <path d="M 115.48500061035156 152.66799926757812 C 124.64600372314453 159.10000610351562 115.38700103759766 173.5540008544922 120.41300201416016 162.58200073242188" stroke-width="2.0" fill="none" stroke="rgb(0, 0, 0)" stroke-opacity="1" stroke-linecap="round" stroke-linejoin="round"/>
    <path d="M 43.70370101928711 164.93800354003906 C 43.50709915161133 146.89599609375 59.63589859008789 145.9929962158203 44.88869857788086 155.1199951171875" stroke-width="2.0" fill="none" stroke="rgb(0, 0, 0)" stroke-opacity="1" stroke-linecap="round" stroke-linejoin="round"/>
    <path d="M 49.105098724365234 137.26800537109375 C 56.542999267578125 132.1649932861328 57.16830062866211 131.30499267578125 68.43060302734375 129.3459930419922" stroke-width="2.0" fill="none" stroke="rgb(0, 0, 0)" stroke-opacity="1" stroke-linecap="round" stroke-linejoin="round"/>
    <path d="M 35.78609848022461 141.5019989013672 C 35.2848014831543 142.43899536132812 34.31050109863281 141.62399291992188 36.33580017089844 140.69200134277344" stroke-width="2.0" fill="none" stroke="rgb(0, 0, 0)" stroke-opacity="1" stroke-linecap="round" stroke-linejoin="round"/>
    <path d="M 77.0020980834961 139.96299743652344 C 74.62329864501953 118.50900268554688 75.89440155029297 130.7469940185547 77.86289978027344 140.8939971923828" stroke-width="2.0" fill="none" stroke="rgb(0, 0, 0)" stroke-opacity="1" stroke-linecap="round" stroke-linejoin="round"/>
    <path d="M 218.03599548339844 158.39700317382812 C 183.7469940185547 161.0850067138672 206.46099853515625 158.56500244140625 212.86399841308594 153.74099731445312" stroke-width="2.0" fill="none" stroke="rgb(0, 0, 0)" stroke-opacity="1" stroke-linecap="round" stroke-linejoin="round"/>
    <path d="M 181.5240020751953 148.6649932861328 C 187.656005859375 154.8000030517578 172.68800354003906 166.00399780273438 179.36599731445312 162.67599487304688" stroke-width="2.0" fill="none" stroke="rgb(0, 0, 0)" stroke-opacity="1" stroke-linecap="round" stroke-linejoin="round"/>
    <path d="M 204.322998046875 155.1280059814453 C 210.49099731445312 155.19400024414062 206.33999633789062 153.2259979248047 201.4199981689453 164.81100463867188" stroke-width="2.0" fill="none" stroke="rgb(0, 0, 0)" stroke-opacity="1" stroke-linecap="round" stroke-linejoin="round"/>
    <path d="M 210.43600463867188 148.02000427246094 C 197.52699279785156 152.11599731445312 203.3459930419922 150.0850067138672 207.99200439453125 163.4239959716797" stroke-width="2.0" fill="none" stroke="rgb(0, 0, 0)" stroke-opacity="1" stroke-linecap="round" stroke-linejoin="round"/>
    <path d="M 182.1479949951172 149.53399658203125 C 199.4949951171875 143.43499755859375 197.6179962158203 144.8249969482422 181.77000427246094 148.97799682617188" stroke-width="2.0" fill="none" stroke="rgb(0, 0, 0)" stroke-opacity="1" stroke-linecap="round" stroke-linejoin="round"/>
    <path d="M 219.41200256347656 155.98599243164062 C 241.13900756835938 157.32400512695312 213.08900451660156 157.56100463867188 228.1510009765625 159.63600158691406" stroke-width="2.0" fill="none" stroke="rgb(0, 0, 0)" stroke-opacity="1" stroke-linecap="round" stroke-linejoin="round"/>
    <path d="M 189.3820037841797 144.87399291992188 C 192.2209930419922 140.5330047607422 170.38999938964844 153.31300354003906 187.9199981689453 146.69700622558594" stroke-width="2.0" fill="none" stroke="rgb(0, 0, 0)" stroke-opacity="1" stroke-linecap="round" stroke-linejoin="round"/>
    <path d="M 197.25 166.83900451660156 C 237.48899841308594 164.41799926757812 237.15899658203125 167.1529998779297 190.8679962158203 169.44900512695312" stroke-width="2.0" fill="none" stroke="rgb(0, 0, 0)" stroke-opacity="1" stroke-linecap="round" stroke-linejoin="round"/>
    <path d="M 205.5189971923828 165.54200744628906 C 183.94500732421875 156.27200317382812 192.21299743652344 172.66400146484375 197.61000061035156 169.73800659179688" stroke-width="2.0" fill="none" stroke="rgb(0, 0, 0)" stroke-opacity="1" stroke-linecap="round" stroke-linejoin="round"/>
    <path d="M 194.42999267578125 155.08099365234375 C 186.1750030517578 145.9739990234375 181.125 153.52999877929688 199.4530029296875 150.97999572753906" stroke-width="2.0" fill="none" stroke="rgb(0, 0, 0)" stroke-opacity="1" stroke-linecap="round" stroke-linejoin="round"/>
    <path d="M 217.38999938964844 158.23599243164062 C 201.55999755859375 159.39100646972656 196.29200744628906 157.6649932861328 209.8489990234375 159.50599670410156" stroke-width="2.0" fill="none" stroke="rgb(0, 0, 0)" stroke-opacity="1" stroke-linecap="round" stroke-linejoin="round"/>
    <path d="M 180.0679931640625 162.16900634765625 C 184.9980010986328 168.2729949951172 172.51300048828125 177.21400451660156 168.8800048828125 167.52000427246094" stroke-width="2.0" fill="none" stroke="rgb(0, 0, 0)" stroke-opacity="1" stroke-linecap="round" stroke-linejoin="round"/>
    <path d="M 199.33599853515625 133.39199829101562 C 204.9720001220703 130.3730010986328 200.1699981689453 132.9739990234375 207.81199645996094 134.55299377441406" stroke-width="2.0" fill="none" stroke="rgb(0, 0, 0)" stroke-opacity="1" stroke-linecap="round" stroke-linejoin="round"/>
    <path d="M 204.7550048828125 134.59100341796875 C 206.63600158691406 135.43099975585938 206.60499572753906 137.16900634765625 201.1300048828125 134.9550018310547" stroke-width="2.0" fill="none" stroke="rgb(0, 0, 0)" stroke-opacity="1" stroke-linecap="round" stroke-linejoin="round"/>
    <path d="M 197.1719970703125 141.04299926757812 C 203.9550018310547 140.4550018310547 195.73599243164062 133.10400390625 203.88699340820312 134.5240020751953" stroke-width="2.0" fill="none" stroke="rgb(0, 0, 0)" stroke-opacity="1" stroke-linecap="round" stroke-linejoin="round"/>
    <path d="M 221.375 159.7729949951172 C 230.93499755859375 165.58299255371094 220.74200439453125 175.0399932861328 215.46499633789062 167.78500366210938" stroke-width="2.0" fill="none" stroke="rgb(0, 0, 0)" stroke-opacity="1" stroke-linecap="round" stroke-linejoin="round"/>
    <path d="M 169.18899536132812 173.61399841308594 C 162.03799438476562 168.8800048828125 167.5189971923828 155.08299255371094 179.61300659179688 158.0260009765625" stroke-width="2.0" fill="none" stroke="rgb(0, 0, 0)" stroke-opacity="1" stroke-linecap="round" stroke-linejoin="round"/>
    <path d="M 175.05599975585938 171.54400634765625 C 167.68800354003906 172.2310028076172 166.4149932861328 162.5330047607422 172.51400756835938 160.32400512695312" stroke-width="2.0" fill="none" stroke="rgb(0, 0, 0)" stroke-opacity="1" stroke-linecap="round" stroke-linejoin="round"/>
    <path d="M 202.5290069580078 167.281005859375 C 189.4530029296875 168.64700317382812 195.5449981689453 158.58299255371094 203.78399658203125 162.78500366210938" stroke-width="2.0" fill="none" stroke="rgb(0, 0, 0)" stroke-opacity="1" stroke-linecap="round" stroke-linejoin="round"/>
    <path d="M 187.4810028076172 152.7830047607422 C 207.6020050048828 151.6269989013672 211.4010009765625 147.29200744628906 199.97999572753906 151.56399536132812" stroke-width="2.0" fill="none" stroke="rgb(0, 0, 0)" stroke-opacity="1" stroke-linecap="round" stroke-linejoin="round"/>
    <path d="M 190.79100036621094 169.26600646972656 C 189.39700317382812 170.1280059814453 186.86099243164062 154.8509979248047 181.781005859375 154.22300720214844" stroke-width="2.0" fill="none" stroke="rgb(0, 0, 0)" stroke-opacity="1" stroke-linecap="round" stroke-linejoin="round"/>
    <path d="M 206.03199768066406 136.01800537109375 C 204.6540069580078 141.44700622558594 195.21200561523438 140.33799743652344 203.4219970703125 131.46200561523438" stroke-width="2.0" fill="none" stroke="rgb(0, 0, 0)" stroke-opacity="1" stroke-linecap="round" stroke-linejoin="round"/>
    <path d="M 194.09500122070312 163.93600463867188 C 191.7969970703125 159.14500427246094 182.2729949951172 157.62600708007812 199.76600646972656 151.53799438476562" stroke-width="2.0" fill="none" stroke="rgb(0, 0, 0)" stroke-opacity="1" stroke-linecap="round" stroke-linejoin="round"/>
    <path d="M 204.68099975585938 134.81199645996094 C 211.00399780273438 137.2030029296875 195.08799743652344 136.2729949951172 207.6929931640625 136.05499267578125" stroke-width="2.0" fill="none" stroke="rgb(0, 0, 0)" stroke-opacity="1" stroke-linecap="round" stroke-linejoin="round"/>
    <path d="M 203.18299865722656 160.822998046875 C 200.75599670410156 148.6820068359375 183.5189971923828 154.73500061035156 196.50900268554688 152.35699462890625" stroke-width="2.0" fill="none" stroke="rgb(0, 0, 0)" stroke-opacity="1" stroke-linecap="round" stroke-linejoin="round"/>
    <path d="M 188.2259979248047 148.7519989013672 C 194.75399780273438 143.50900268554688 189.57000732421875 145.07400512695312 181.7010040283203 154.781005859375" stroke-width="2.0" fill="none" stroke="rgb(0, 0, 0)" stroke-opacity="1" stroke-linecap="round" stroke-linejoin="round"/>
    <path d="M 203.98699951171875 139.4530029296875 C 207.0500030517578 138.5570068359375 198.33599853515625 143.64700317382812 206.62100219726562 141.3070068359375" stroke-width="2.0" fill="none" stroke="rgb(0, 0, 0)" stroke-opacity="1" stroke-linecap="round" stroke-linejoin="round"/>
    <path d="M 179.19200134277344 163.88099670410156 C 174.3730010986328 178.8070068359375 164.55799865722656 157.7270050048828 179.67100524902344 164.781005859375" stroke-width="2.0" fill="none" stroke="rgb(0, 0, 0)" stroke-opacity="1" stroke-linecap="round" stroke-linejoin="round"/>
    <path d="M 205.58900451660156 155.39199829101562 C 218.05599975585938 153.625 211.5030059814453 149.36000061035156 210.8000030517578 144.3090057373047" stroke-width="2.0" fill="none" stroke="rgb(0, 0, 0)" stroke-opacity="1" stroke-linecap="round" stroke-linejoin="round"/>
    <path d="M 206.88800048828125 166.15499877929688 C 198.27699279785156 154.39999389648438 191.6580047607422 150.71099853515625 211.73399353027344 149.62399291992188" stroke-width="2.0" fill="none" stroke="rgb(0, 0, 0)" stroke-opacity="1" stroke-linecap="round" stroke-linejoin="round"/>
    <path d="M 206.7220001220703 137.4029998779297 C 208.2220001220703 132.4010009765625 199.01199340820312 132.2100067138672 204.2100067138672 129.18099975585938" stroke-width="2.0" fill="none" stroke="rgb(0, 0, 0)" stroke-opacity="1" stroke-linecap="round" stroke-linejoin="round"/>
    <path d="M 204.8260040283203 156.9040069580078 C 235.45700073242188 156.95399475097656 217.447998046875 154.43600463867188 211.03900146484375 163.447998046875" stroke-width="2.0" fill="none" stroke="rgb(0, 0, 0)" stroke-opacity="1" stroke-linecap="round" stroke-linejoin="round"/>
    <path d="M 203.62600708007812 159.75900268554688 C 210.35899353027344 159.48699951171875 220.38099670410156 158.75599670410156 221.91299438476562 160.25399780273438" stroke-width="2.0" fill="none" stroke="rgb(0, 0, 0)" stroke-opacity="1" stroke-linecap="round" stroke-linejoin="round"/>
    <path d="M 204.33700561523438 155.61300659179688 C 213.42799377441406 157.0659942626953 215.1479949951172 154.36399841308594 221.1320037841797 154.15199279785156" stroke-width="2.0" fill="none" stroke="rgb(0, 0, 0)" stroke-opacity="1" stroke-linecap="round" stroke-linejoin="round"/>
    <path d="M 180.98399353027344 160.1300048828125 C 188.6999969482422 173.28399658203125 172.052001953125 179.5989990234375 166.42100524902344 168.88400268554688" stroke-width="2.0" fill="none" stroke="rgb(0, 0, 0)" stroke-opacity="1" stroke-linecap="round" stroke-linejoin="round"/>
    <path d="M 178.0469970703125 160.33299255371094 C 178.25100708007812 158.0260009765625 176.53500366210938 157.77499389648438 177.86000061035156 160.1490020751953" stroke-width="2.0" fill="none" stroke="rgb(0, 0, 0)" stroke-opacity="1" stroke-linecap="round" stroke-linejoin="round"/>
    <path d="M 209.9219970703125 146.62100219726562 C 203.69000244140625 150.0030059814453 209.10800170898438 147.1179962158203 207.94700622558594 149.09800720214844" stroke-width="2.0" fill="none" stroke="rgb(0, 0, 0)" stroke-opacity="1" stroke-linecap="round" stroke-linejoin="round"/>
    <path d="M 229.0 161.58099365234375 C 226.9010009765625 157.02000427246094 207.7899932861328 152.54200744628906 221.25999450683594 164.1280059814453" stroke-width="2.0" fill="none" stroke="rgb(0, 0, 0)" stroke-opacity="1" stroke-linecap="round" stroke-linejoin="round"/>
    <path d="M 199.9429931640625 134.3769989013672 C 201.2790069580078 135.52699279785156 193.04400634765625 134.1750030517578 206.1529998779297 134.44000244140625" stroke-width="2.0" fill="none" stroke="rgb(0, 0, 0)" stroke-opacity="1" stroke-linecap="round" stroke-linejoin="round"/>
    <path d="M 184.35699462890625 153.59100341796875 C 190.02699279785156 153.4669952392578 183.47999572753906 151.93899536132812 192.76699829101562 165.39700317382812" stroke-width="2.0" fill="none" stroke="rgb(0, 0, 0)" stroke-opacity="1" stroke-linecap="round" stroke-linejoin="round"/>
    <path d="M 201.65499877929688 162.06900024414062 C 178.2530059814453 166.95399475097656 198.34800720214844 141.89300537109375 203.88800048828125 160.4429931640625" stroke-width="2.0" fill="none" stroke="rgb(0, 0, 0)" stroke-opacity="1" stroke-linecap="round" stroke-linejoin="round"/>
    <path d="M 201.39999389648438 133.1959991455078 C 206.48699951171875 134.61199951171875 200.5540008544922 133.98899841308594 200.0279998779297 134.76300048828125" stroke-width="2.0" fill="none" stroke="rgb(0, 0, 0)" stroke-opacity="1" stroke-linecap="round" stroke-linejoin="round"/>
    <path d="M 205.45599365234375 135.1739959716797 C 208.17599487304688 141.92100524902344 211.48599243164062 129.23699951171875 201.5279998779297 130.51199340820312" stroke-width="2.0" fill="none" stroke="rgb(0, 0, 0)" stroke-opacity="1" stroke-linecap="round" stroke-linejoin="round"/>
    <path d="M 204.03399658203125 145.9499969482422 C 218.572998046875 137.63499450683594 203.91099548339844 134.59800720214844 204.74400329589844 145.83299255371094" stroke-width="2.0" fill="none" stroke="rgb(0, 0, 0)" stroke-opacity="1" stroke-linecap="round" stroke-linejoin="round"/>
    <path d="M 198.61199951171875 155.10299682617188 C 192.6009979248047 156.63600158691406 189.3520050048828 157.67599487304688 189.34500122070312 158.40499877929688" stroke-width="2.0" fill="none" stroke="rgb(0, 0, 0)" stroke-opacity="1" stroke-linecap="round" stroke-linejoin="round"/>
    <path d="M 205.41799926757812 135.35000610351562 C 215.58599853515625 141.29800415039062 207.74200439453125 139.1719970703125 210.04100036621094 141.51499938964844" stroke-width="2.0" fill="none" stroke="rgb(0, 0, 0)" stroke-opacity="1" stroke-linecap="round" stroke-linejoin="round"/>
    <path d="M 204.11599731445312 135.26600646972656 C 209.33399963378906 134.16200256347656 204.7449951171875 134.5330047607422 201.74400329589844 129.43899536132812" stroke-width="2.0" fill="none" stroke="rgb(0, 0, 0)" stroke-opacity="1" stroke-linecap="round" stroke-linejoin="round"/>
    <path d="M 175.3419952392578 167.16299438476562 C 186.8249969482422 152.80599975585938 179.24200439453125 154.54600524902344 175.92300415039062 165.4980010986328" stroke-width="2.0" fill="none" stroke="rgb(0, 0, 0)" stroke-opacity="1" stroke-linecap="round" stroke-linejoin="round"/>
    <path d="M 201.32200622558594 135.31900024414062 C 212.51199340820312 138.843994140625 211.24000549316406 137.2570037841797 205.18099975585938 140.23300170898438" stroke-width="2.0" fill="none" stroke="rgb(0, 0, 0)" stroke-opacity="1" stroke-linecap="round" stroke-linejoin="round"/>
    <path d="M 183.61099243164062 155.42799377441406 C 189.0030059814453 146.63499450683594 199.0189971923828 153.37600708007812 187.2550048828125 149.89300537109375" stroke-width="2.0" fill="none" stroke="rgb(0, 0, 0)" stroke-opacity="1" stroke-linecap="round" stroke-linejoin="round"/>
    <path d="M 206.3489990234375 134.62399291992188 C 208.5290069580078 140.63900756835938 191.75900268554688 141.96800231933594 208.03599548339844 137.5959930419922" stroke-width="2.0" fill="none" stroke="rgb(0, 0, 0)" stroke-opacity="1" stroke-linecap="round" stroke-linejoin="round"/>
    <path d="M 200.8260040283203 132.2989959716797 C 194.1999969482422 147.57200622558594 211.42300415039062 153.9810028076172 191.7760009765625 143.64199829101562" stroke-width="2.0" fill="none" stroke="rgb(0, 0, 0)" stroke-opacity="1" stroke-linecap="round" stroke-linejoin="round"/>
    <path d="M 206.87399291992188 129.16400146484375 C 199.5540008544922 132.5489959716797 195.14999389648438 136.13299560546875 203.68499755859375 132.61599731445312" stroke-width="2.0" fill="none" stroke="rgb(0, 0, 0)" stroke-opacity="1" stroke-linecap="round" stroke-linejoin="round"/>
    <path d="M 200.20399475097656 163.7239990234375 C 196.656005859375 148.80799865722656 200.6439971923828 163.58799743652344 198.91600036621094 157.29100036621094" stroke-width="2.0" fill="none" stroke="rgb(0, 0, 0)" stroke-opacity="1" stroke-linecap="round" stroke-linejoin="round"/>
    <path d="M 205.85400390625 138.62600708007812 C 206.16299438476562 131.64500427246094 204.3090057373047 139.06100463867188 202.96600341796875 140.7740020751953" stroke-width="2.0" fill="none" stroke="rgb(0, 0, 0)" stroke-opacity="1" stroke-linecap="round" stroke-linejoin="round"/>
    <path d="M 192.36599731445312 144.0070037841797 C 207.75599670410156 143.08599853515625 207.15499877929688 142.89300537109375 191.7760009765625 143.9029998779297" stroke-width="2.0" fill="none" stroke="rgb(0, 0, 0)" stroke-opacity="1" stroke-linecap="round" stroke-linejoin="round"/>
    <path d="M 208.5919952392578 143.45700073242188 C 202.68600463867188 144.96499633789062 208.13900756835938 151.17100524902344 197.4029998779297 140.50399780273438" stroke-width="2.0" fill="none" stroke="rgb(0, 0, 0)" stroke-opacity="1" stroke-linecap="round" stroke-linejoin="round"/>
    <path d="M 227.17999267578125 163.5800018310547 C 229.44900512695312 172.28500366210938 216.60400390625 175.7169952392578 213.8719940185547 168.0659942626953" stroke-width="2.0" fill="none" stroke="rgb(0, 0, 0)" stroke-opacity="1" stroke-linecap="round" stroke-linejoin="round"/>
    <path d="M 206.375 129.0 C 196.42300415039062 130.74099731445312 208.58999633789062 135.10000610351562 201.9720001220703 134.66299438476562" stroke-width="2.0" fill="none" stroke="rgb(0, 0, 0)" stroke-opacity="1" stroke-linecap="round" stroke-linejoin="round"/>
    <path d="M 211.73300170898438 168.322998046875 C 216.28199768066406 172.97000122070312 213.94700622558594 169.5019989013672 213.0540008544922 168.3939971923828" stroke-width="2.0" fill="none" stroke="rgb(0, 0, 0)" stroke-opacity="1" stroke-linecap="round" stroke-linejoin="round"/>
    <path d="M 202.2259979248047 132.3350067138672 C 209.89100646972656 132.0449981689453 201.38600158691406 134.2550048828125 207.13499450683594 133.1009979248047" stroke-width="2.0" fill="none" stroke="rgb(0, 0, 0)" stroke-opacity="1" stroke-linecap="round" stroke-linejoin="round"/>
    <path d="M 190.72999572753906 153.78900146484375 C 211.6280059814453 146.46099853515625 208.18699645996094 149.1540069580078 190.4499969482422 154.01499938964844" stroke-width="2.0" fill="none" stroke="rgb(0, 0, 0)" stroke-opacity="1" stroke-linecap="round" stroke-linejoin="round"/>
    <path d="M 197.71499633789062 154.28599548339844 C 184.6840057373047 160.31300354003906 195.06100463867188 141.8090057373047 182.98599243164062 150.70799255371094" stroke-width="2.0" fill="none" stroke="rgb(0, 0, 0)" stroke-opacity="1" stroke-linecap="round" stroke-linejoin="round"/>
    <path d="M 210.2209930419922 165.86199951171875 C 180.26600646972656 158.66900634765625 208.31700134277344 176.26699829101562 205.89999389648438 159.79200744628906" stroke-width="2.0" fill="none" stroke="rgb(0, 0, 0)" stroke-opacity="1" stroke-linecap="round" stroke-linejoin="round"/>
    <path d="M 200.41400146484375 134.91299438476562 C 203.43899536132812 133.39700317382812 205.47500610351562 136.9510040283203 200.70599365234375 133.02499389648438" stroke-width="2.0" fill="none" stroke="rgb(0, 0, 0)" stroke-opacity="1" stroke-linecap="round" stroke-linejoin="round"/>
    <path d="M 205.5330047607422 133.28399658203125 C 205.2030029296875 141.08999633789062 210.1300048828125 133.91400146484375 199.1909942626953 135.25999450683594" stroke-width="2.0" fill="none" stroke="rgb(0, 0, 0)" stroke-opacity="1" stroke-linecap="round" stroke-linejoin="round"/>
    <path d="M 203.11599731445312 139.01499938964844 C 214.4550018310547 136.8509979248047 199.82899475097656 135.62899780273438 199.5050048828125 137.62899780273438" stroke-width="2.0" fill="none" stroke="rgb(0, 0, 0)" stroke-opacity="1" stroke-linecap="round" stroke-linejoin="round"/>
    <path d="M 210.281005859375 143.5780029296875 C 207.39500427246094 147.50900268554688 199.0050048828125 147.55299377441406 209.67300415039062 147.1580047607422" stroke-width="2.0" fill="none" stroke="rgb(0, 0, 0)" stroke-opacity="1" stroke-linecap="round" stroke-linejoin="round"/>
    <path d="M 195.46200561523438 145.18099975585938 C 190.85899353027344 144.11199951171875 193.2209930419922 144.5749969482422 204.7969970703125 145.95799255371094" stroke-width="2.0" fill="none" stroke="rgb(0, 0, 0)" stroke-opacity="1" stroke-linecap="round" stroke-linejoin="round"/>
    <path d="M 192.3769989013672 151.3979949951172 C 203.07200622558594 159.58599853515625 178.20700073242188 151.3939971923828 186.9530029296875 146.66000366210938" stroke-width="2.0" fill="none" stroke="rgb(0, 0, 0)" stroke-opacity="1" stroke-linecap="round" stroke-linejoin="round"/>
    <path d="M 206.72900390625 133.06900024414062 C 208.83900451660156 133.91400146484375 204.3260040283203 137.12399291992188 200.03700256347656 138.83599853515625" stroke-width="2.0" fill="none" stroke="rgb(0, 0, 0)" stroke-opacity="1" stroke-linecap="round" stroke-linejoin="round"/>
    <path d="M 221.7519989013672 153.02499389648438 C 232.05999755859375 156.8159942626953 226.3520050048828 154.3300018310547 228.82899475097656 158.10699462890625" stroke-width="2.0" fill="none" stroke="rgb(0, 0, 0)" stroke-opacity="1" stroke-linecap="round" stroke-linejoin="round"/>
    <path d="M 167.71499633789062 171.53900146484375 C 166.10699462890625 170.6060028076172 170.29600524902344 177.19200134277344 177.98399353027344 174.2270050048828" stroke-width="2.0" fill="none" stroke="rgb(0, 0, 0)" stroke-opacity="1" stroke-linecap="round" stroke-linejoin="round"/>
    <path d="M 202.47999572753906 139.96800231933594 C 206.2429962158203 151.5989990234375 197.5989990234375 137.86199951171875 208.4149932861328 137.39700317382812" stroke-width="2.0" fill="none" stroke="rgb(0, 0, 0)" stroke-opacity="1" stroke-linecap="round" stroke-linejoin="round"/>
    <path d="M 171.51100158691406 160.83599853515625 C 178.58900451660156 157.1649932861328 176.63299560546875 162.81100463867188 179.33999633789062 158.31300354003906" stroke-width="2.0" fill="none" stroke="rgb(0, 0, 0)" stroke-opacity="1" stroke-linecap="round" stroke-linejoin="round"/>
    <path d="M 207.5019989013672 135.468994140625 C 202.97799682617188 127.35299682617188 200.07699584960938 135.3179931640625 206.8769989013672 135.65499877929688" stroke-width="2.0" fill="none" stroke="rgb(0, 0, 0)" stroke-opacity="1" stroke-linecap="round" stroke-linejoin="round"/>
    <path d="M 220.2689971923828 165.30999755859375 C 228.56900024414062 164.1959991455078 229.0330047607422 167.03799438476562 224.08799743652344 157.60800170898438" stroke-width="2.0" fill="none" stroke="rgb(0, 0, 0)" stroke-opacity="1" stroke-linecap="round" stroke-linejoin="round"/>
    <path d="M 203.05999755859375 131.74899291992188 C 194.95599365234375 131.74400329589844 202.74899291992188 141.8939971923828 206.15899658203125 143.16200256347656" stroke-width="2.0" fill="none" stroke="rgb(0, 0, 0)" stroke-opacity="1" stroke-linecap="round" stroke-linejoin="round"/>
    <path d="M 200.28799438476562 157.50100708007812 C 215.76300048828125 155.11700439453125 206.89300537109375 151.1009979248047 221.49600219726562 153.09300231933594" stroke-width="2.0" fill="none" stroke="rgb(0, 0, 0)" stroke-opacity="1" stroke-linecap="round" stroke-linejoin="round"/>
    <path d="M 202.24600219726562 168.1790008544922 C 229.0679931640625 166.16299438476562 235.93800354003906 164.41900634765625 216.75 165.8419952392578" stroke-width="2.0" fill="none" stroke="rgb(0, 0, 0)" stroke-opacity="1" stroke-linecap="round" stroke-linejoin="round"/>
    <path d="M 201.0290069580078 130.11000061035156 C 203.39700317382812 129.9040069580078 204.09800720214844 130.2530059814453 201.93800354003906 130.2570037841797" stroke-width="2.0" fill="none" stroke="rgb(0, 0, 0)" stroke-opacity="1" stroke-linecap="round" stroke-linejoin="round"/>
    <path d="M 198.30299377441406 165.16900634765625 C 220.23300170898438 165.33399963378906 235.80499267578125 161.58999633789062 196.5449981689453 163.56700134277344" stroke-width="2.0" fill="none" stroke="rgb(0, 0, 0)" stroke-opacity="1" stroke-linecap="round" stroke-linejoin="round"/>
  </g>
</svg>
