<svg height="256" version="1.1" width="256" xmlns="http://www.w3.org/2000/svg">
  <defs/>
  <g>
    <path d="M48.951 108.012C49.5838 129.623 62.7053 105.505 54.843 113.982" fill="none" stroke="rgb(0, 0, 0)" stroke-linecap="round" stroke-linejoin="round" stroke-opacity="1.0" stroke-width="1"/>
    <path d="M44.7807 150.326C46.7046 143.554 50.2652 132.181 45.3526 151.583" fill="none" stroke="rgb(0, 0, 0)" stroke-linecap="round" stroke-linejoin="round" stroke-opacity="1.0" stroke-width="1"/>
    <path d="M53.749 86.92C50.3973 150.28 57.294 138.812 58.3309 105.757" fill="none" stroke="rgb(0, 0, 0)" stroke-linecap="round" stroke-linejoin="round" stroke-opacity="1.0" stroke-width="1"/>
    <path d="M50.6292 75.2759C63.6966 114.951 62.2803 138.214 48.6653 134.146" fill="none" stroke="rgb(0, 0, 0)" stroke-linecap="round" stroke-linejoin="round" stroke-opacity="1.0" stroke-width="1"/>
    <path d="M38.7109 88.153C53.541 104.217 57.9129 116.465 58.1143 129.338" fill="none" stroke="rgb(0, 0, 0)" stroke-linecap="round" stroke-linejoin="round" stroke-opacity="1.0" stroke-width="1"/>
    <path d="M67.2119 127.912C71.1511 129.951 44.1681 145.898 49.6888 140.921" fill="none" stroke="rgb(0, 0, 0)" stroke-linecap="round" stroke-linejoin="round" stroke-opacity="1.0" stroke-width="1"/>
    <path d="M56.6269 80.5299C50.4351 123.833 46.8609 108.5 65.5948 129.563" fill="none" stroke="rgb(0, 0, 0)" stroke-linecap="round" stroke-linejoin="round" stroke-opacity="1.0" stroke-width="1"/>
    <path d="M49.0467 166C103.091 156.981 85.6658 157.587 57.9672 159.396" fill="none" stroke="rgb(0, 0, 0)" stroke-linecap="round" stroke-linejoin="round" stroke-opacity="1.0" stroke-width="1"/>
    <path d="M51.6594 75.785C55.7261 119.195 66.0748 116.342 39.9508 85.1899" fill="none" stroke="rgb(0, 0, 0)" stroke-linecap="round" stroke-linejoin="round" stroke-opacity="1.0" stroke-width="1"/>
    <path d="M37.2571 145.961C49.8871 130.658 32.4069 161.303 37.7141 143.533" fill="none" stroke="rgb(0, 0, 0)" stroke-linecap="round" stroke-linejoin="round" stroke-opacity="1.0" stroke-width="1"/>
    <path d="M65.6855 133.247C66.0752 124.321 64.4153 103.505 56.3687 131.281" fill="none" stroke="rgb(0, 0, 0)" stroke-linecap="round" stroke-linejoin="round" stroke-opacity="1.0" stroke-width="1"/>
    <path d="M64.8338 134.215C47.3903 98.214 47.0337 80.2289 67.2262 125.249" fill="none" stroke="rgb(0, 0, 0)" stroke-linecap="round" stroke-linejoin="round" stroke-opacity="1.0" stroke-width="1"/>
    <path d="M77.5567 65.346C83.5245 64.507 72.4353 64.917 78.7843 62.7375" fill="none" stroke="rgb(0, 0, 0)" stroke-linecap="round" stroke-linejoin="round" stroke-opacity="1.0" stroke-width="1"/>
    <path d="M41.8014 89.54C50.6284 62.464 39.1223 60.7073 44.7022 81.478" fill="none" stroke="rgb(0, 0, 0)" stroke-linecap="round" stroke-linejoin="round" stroke-opacity="1.0" stroke-width="1"/>
    <path d="M76.2821 87.5109C77.8132 40.7123 73.8539 63.6869 78.1142 59.3" fill="none" stroke="rgb(0, 0, 0)" stroke-linecap="round" stroke-linejoin="round" stroke-opacity="1.0" stroke-width="1"/>
    <path d="M48.5877 159.273C111.873 155.767 107.024 161.936 49.051 162.941" fill="none" stroke="rgb(0, 0, 0)" stroke-linecap="round" stroke-linejoin="round" stroke-opacity="1.0" stroke-width="1"/>
    <path d="M48.1118 164.701C92.9023 160.087 112.214 158.1 48.479 162.115" fill="none" stroke="rgb(0, 0, 0)" stroke-linecap="round" stroke-linejoin="round" stroke-opacity="1.0" stroke-width="1"/>
    <path d="M40.851 143.087C32.6031 157.422 28.9039 141.366 47.719 143.831" fill="none" stroke="rgb(0, 0, 0)" stroke-linecap="round" stroke-linejoin="round" stroke-opacity="1.0" stroke-width="1"/>
    <path d="M53.107 105.534C54.2934 107.633 46.717 107.232 65.2355 129.279" fill="none" stroke="rgb(0, 0, 0)" stroke-linecap="round" stroke-linejoin="round" stroke-opacity="1.0" stroke-width="1"/>
    <path d="M34.452 152.09C28.5075 126.512 38.3585 158.357 56.5129 132.795" fill="none" stroke="rgb(0, 0, 0)" stroke-linecap="round" stroke-linejoin="round" stroke-opacity="1.0" stroke-width="1"/>
    <path d="M64.3662 65.2299C43.3509 81.2099 47.33 74.8149 59.3447 84.4399" fill="none" stroke="rgb(0, 0, 0)" stroke-linecap="round" stroke-linejoin="round" stroke-opacity="1.0" stroke-width="1"/>
    <path d="M79.7544 59.1443C79.7544 126.272 79.7544 144.108 79.7544 125.703" fill="none" stroke="rgb(0, 0, 0)" stroke-linecap="round" stroke-linejoin="round" stroke-opacity="1.0" stroke-width="1"/>
    <path d="M76.4258 159.965C76.5244 63.9113 75.1749 44.7541 74.6901 61.3404" fill="none" stroke="rgb(0, 0, 0)" stroke-linecap="round" stroke-linejoin="round" stroke-opacity="1.0" stroke-width="1"/>
    <path d="M48.0397 162.098C125.134 156.685 97.469 158.225 47.5899 158.602" fill="none" stroke="rgb(0, 0, 0)" stroke-linecap="round" stroke-linejoin="round" stroke-opacity="1.0" stroke-width="1"/>
    <path d="M58.1611 131.13C67.5608 90.974 42.7902 98.077 55.4705 92.364" fill="none" stroke="rgb(0, 0, 0)" stroke-linecap="round" stroke-linejoin="round" stroke-opacity="1.0" stroke-width="1"/>
    <path d="M59.3102 125.412C43.4864 102.051 62.26 98.2779 53.9735 132.955" fill="none" stroke="rgb(0, 0, 0)" stroke-linecap="round" stroke-linejoin="round" stroke-opacity="1.0" stroke-width="1"/>
    <path d="M56.4688 104.813C29.1378 71.999 37.2666 86.1269 58.5566 112.382" fill="none" stroke="rgb(0, 0, 0)" stroke-linecap="round" stroke-linejoin="round" stroke-opacity="1.0" stroke-width="1"/>
    <path d="M80.0766 121.54C80.3681 173.718 80.5157 159.766 82.6169 157.858" fill="none" stroke="rgb(0, 0, 0)" stroke-linecap="round" stroke-linejoin="round" stroke-opacity="1.0" stroke-width="1"/>
    <path d="M65.6728 127.756C68.145 96.9149 54.6457 135.118 62.3063 120.902" fill="none" stroke="rgb(0, 0, 0)" stroke-linecap="round" stroke-linejoin="round" stroke-opacity="1.0" stroke-width="1"/>
    <path d="M65.4925 132.855C57.2103 136.381 50.9173 138.053 54.9198 98.4519" fill="none" stroke="rgb(0, 0, 0)" stroke-linecap="round" stroke-linejoin="round" stroke-opacity="1.0" stroke-width="1"/>
    <path d="M78.5624 61.4564C79.4334 52.9193 79.8357 69.7429 78.5041 59.5381" fill="none" stroke="rgb(0, 0, 0)" stroke-linecap="round" stroke-linejoin="round" stroke-opacity="1.0" stroke-width="1"/>
    <path d="M54.1131 110.557C74.9643 143.26 71.0099 128.137 42.4407 143.984" fill="none" stroke="rgb(0, 0, 0)" stroke-linecap="round" stroke-linejoin="round" stroke-opacity="1.0" stroke-width="1"/>
    <path d="M54.4085 131.855C45.0212 88.239 55.437 97.946 54.6832 130.894" fill="none" stroke="rgb(0, 0, 0)" stroke-linecap="round" stroke-linejoin="round" stroke-opacity="1.0" stroke-width="1"/>
    <path d="M56.2165 117.694C78.7516 136.727 46.8742 81.9069 51.6627 126.994" fill="none" stroke="rgb(0, 0, 0)" stroke-linecap="round" stroke-linejoin="round" stroke-opacity="1.0" stroke-width="1"/>
    <path d="M62.8221 113.568C66.2702 149.973 71.5787 132.515 55.6245 102.074" fill="none" stroke="rgb(0, 0, 0)" stroke-linecap="round" stroke-linejoin="round" stroke-opacity="1.0" stroke-width="1"/>
    <path d="M52.9849 78.6259C38.2631 141.639 79.7957 130.577 39.9066 78.8769" fill="none" stroke="rgb(0, 0, 0)" stroke-linecap="round" stroke-linejoin="round" stroke-opacity="1.0" stroke-width="1"/>
    <path d="M54.4903 91.6119C80.1688 149.271 56.4039 137.097 45.3229 82.8229" fill="none" stroke="rgb(0, 0, 0)" stroke-linecap="round" stroke-linejoin="round" stroke-opacity="1.0" stroke-width="1"/>
    <path d="M49.6101 146.029C24.4603 146.205 27.097 152.263 52.1117 135.12" fill="none" stroke="rgb(0, 0, 0)" stroke-linecap="round" stroke-linejoin="round" stroke-opacity="1.0" stroke-width="1"/>
    <path d="M46.7015 70.404C42.8794 64.366 29.1878 75.142 55.9384 86.9279" fill="none" stroke="rgb(0, 0, 0)" stroke-linecap="round" stroke-linejoin="round" stroke-opacity="1.0" stroke-width="1"/>
    <path d="M67.2163 130.102C50.6829 140.665 39.4008 140.345 47.2831 152.394" fill="none" stroke="rgb(0, 0, 0)" stroke-linecap="round" stroke-linejoin="round" stroke-opacity="1.0" stroke-width="1"/>
    <path d="M41.5764 143.546C61.0241 122.666 34.7487 141.568 46.7856 154.197" fill="none" stroke="rgb(0, 0, 0)" stroke-linecap="round" stroke-linejoin="round" stroke-opacity="1.0" stroke-width="1"/>
    <path d="M60.0928 115.158C48.7049 91.7019 55.479 94.0589 39.0835 79.2029" fill="none" stroke="rgb(0, 0, 0)" stroke-linecap="round" stroke-linejoin="round" stroke-opacity="1.0" stroke-width="1"/>
    <path d="M42.9155 68.2499C37.0802 95.0449 52.7496 96.0999 39.7377 69.3859" fill="none" stroke="rgb(0, 0, 0)" stroke-linecap="round" stroke-linejoin="round" stroke-opacity="1.0" stroke-width="1"/>
    <path d="M46.1683 79.428C52.2249 119.448 73.6683 132.715 51.46 73.016" fill="none" stroke="rgb(0, 0, 0)" stroke-linecap="round" stroke-linejoin="round" stroke-opacity="1.0" stroke-width="1"/>
    <path d="M54.7518 80.532C58.5672 132.614 51.3837 64.8589 58.9085 118.772" fill="none" stroke="rgb(0, 0, 0)" stroke-linecap="round" stroke-linejoin="round" stroke-opacity="1.0" stroke-width="1"/>
    <path d="M53.6039 127.647C58.2191 104.144 56.4502 99.214 65.3238 133.015" fill="none" stroke="rgb(0, 0, 0)" stroke-linecap="round" stroke-linejoin="round" stroke-opacity="1.0" stroke-width="1"/>
    <path d="M55.3848 126.525C78.6223 112.62 59.9793 118.865 41.0933 68.7839" fill="none" stroke="rgb(0, 0, 0)" stroke-linecap="round" stroke-linejoin="round" stroke-opacity="1.0" stroke-width="1"/>
    <path d="M45.899 73.3259C36.6747 63.7466 27.9067 75.4769 56.6065 90.074" fill="none" stroke="rgb(0, 0, 0)" stroke-linecap="round" stroke-linejoin="round" stroke-opacity="1.0" stroke-width="1"/>
    <path d="M67.4888 83.509C46.6377 93.579 50.6133 59.305 59.1959 103.454" fill="none" stroke="rgb(0, 0, 0)" stroke-linecap="round" stroke-linejoin="round" stroke-opacity="1.0" stroke-width="1"/>
    <path d="M42.3208 90.6989C43.0321 69.3719 79.3163 98.8089 63.5818 69.1939" fill="none" stroke="rgb(0, 0, 0)" stroke-linecap="round" stroke-linejoin="round" stroke-opacity="1.0" stroke-width="1"/>
    <path d="M50.5488 134.983C23.2697 156.612 37.7986 130.637 34.9491 151.872" fill="none" stroke="rgb(0, 0, 0)" stroke-linecap="round" stroke-linejoin="round" stroke-opacity="1.0" stroke-width="1"/>
    <path d="M38.7044 139.572C37.9832 50.8954 33.5742 89.668 53.361 91.52" fill="none" stroke="rgb(0, 0, 0)" stroke-linecap="round" stroke-linejoin="round" stroke-opacity="1.0" stroke-width="1"/>
    <path d="M39.7389 86.528C67.8412 120.196 69.036 133.862 53.9879 117.378" fill="none" stroke="rgb(0, 0, 0)" stroke-linecap="round" stroke-linejoin="round" stroke-opacity="1.0" stroke-width="1"/>
    <path d="M43.3403 90.907C73.3273 90.752 51.3514 63.6352 46.0967 94.582" fill="none" stroke="rgb(0, 0, 0)" stroke-linecap="round" stroke-linejoin="round" stroke-opacity="1.0" stroke-width="1"/>
    <path d="M54.3062 91.8319C23.1307 60.4301 48.7546 74.6209 38.4853 74.8899" fill="none" stroke="rgb(0, 0, 0)" stroke-linecap="round" stroke-linejoin="round" stroke-opacity="1.0" stroke-width="1"/>
    <path d="M62.2038 65.8239C73.2895 68.7999 43.4577 74.7999 82.948 58.3915" fill="none" stroke="rgb(0, 0, 0)" stroke-linecap="round" stroke-linejoin="round" stroke-opacity="1.0" stroke-width="1"/>
    <path d="M64.7317 133.454C57.2233 107.369 67.1738 104.84 66.6509 132.564" fill="none" stroke="rgb(0, 0, 0)" stroke-linecap="round" stroke-linejoin="round" stroke-opacity="1.0" stroke-width="1"/>
    <path d="M54.1895 87.431C40.9612 77.366 61.4429 112.974 38.8587 71.283" fill="none" stroke="rgb(0, 0, 0)" stroke-linecap="round" stroke-linejoin="round" stroke-opacity="1.0" stroke-width="1"/>
    <path d="M188.283 190.111C146.228 192.666 193.175 208.808 174.213 217.084" fill="none" stroke="rgb(0, 0, 0)" stroke-linecap="round" stroke-linejoin="round" stroke-opacity="1.0" stroke-width="1"/>
    <path d="M200.912 186.929C206.653 205.545 204.122 189.557 202.743 217.531" fill="none" stroke="rgb(0, 0, 0)" stroke-linecap="round" stroke-linejoin="round" stroke-opacity="1.0" stroke-width="1"/>
    <path d="M195.976 189.929C171.641 135.767 174.155 180.064 202.716 198.483" fill="none" stroke="rgb(0, 0, 0)" stroke-linecap="round" stroke-linejoin="round" stroke-opacity="1.0" stroke-width="1"/>
    <path d="M172.696 195.349C199.833 178.171 216.76 190.444 176.483 193.189" fill="none" stroke="rgb(0, 0, 0)" stroke-linecap="round" stroke-linejoin="round" stroke-opacity="1.0" stroke-width="1"/>
    <path d="M183.932 154.712C180.297 198.652 216.958 178.892 168.94 161.531" fill="none" stroke="rgb(0, 0, 0)" stroke-linecap="round" stroke-linejoin="round" stroke-opacity="1.0" stroke-width="1"/>
    <path d="M182.239 214.126C168.376 184.367 178.359 202.542 199.987 190.6" fill="none" stroke="rgb(0, 0, 0)" stroke-linecap="round" stroke-linejoin="round" stroke-opacity="1.0" stroke-width="1"/>
    <path d="M150.697 155.705C141.138 112.013 160.697 140.752 150.661 157.26" fill="none" stroke="rgb(0, 0, 0)" stroke-linecap="round" stroke-linejoin="round" stroke-opacity="1.0" stroke-width="1"/>
    <path d="M150.099 133.697C153.795 159.066 150.982 160.828 148.996 133.397" fill="none" stroke="rgb(0, 0, 0)" stroke-linecap="round" stroke-linejoin="round" stroke-opacity="1.0" stroke-width="1"/>
    <path d="M217.622 135.255C248.933 130.9 246.231 127.309 206.995 137.73" fill="none" stroke="rgb(0, 0, 0)" stroke-linecap="round" stroke-linejoin="round" stroke-opacity="1.0" stroke-width="1"/>
    <path d="M196.863 194.63C210.193 175.469 154.368 199.495 201.342 193.217" fill="none" stroke="rgb(0, 0, 0)" stroke-linecap="round" stroke-linejoin="round" stroke-opacity="1.0" stroke-width="1"/>
    <path d="M220.026 120.265C227.841 127.344 220.902 160.311 220.859 126.989" fill="none" stroke="rgb(0, 0, 0)" stroke-linecap="round" stroke-linejoin="round" stroke-opacity="1.0" stroke-width="1"/>
    <path d="M201.011 218.46C210.838 223.855 194.379 186.261 206.672 218.836" fill="none" stroke="rgb(0, 0, 0)" stroke-linecap="round" stroke-linejoin="round" stroke-opacity="1.0" stroke-width="1"/>
    <path d="M169.72 161.518C155.154 139.096 160.864 143.189 135.741 147.412" fill="none" stroke="rgb(0, 0, 0)" stroke-linecap="round" stroke-linejoin="round" stroke-opacity="1.0" stroke-width="1"/>
    <path d="M205.221 218.719C198.445 193.824 207.02 192.831 170.674 194.747" fill="none" stroke="rgb(0, 0, 0)" stroke-linecap="round" stroke-linejoin="round" stroke-opacity="1.0" stroke-width="1"/>
    <path d="M181.969 155.804C170.974 191.441 238.139 195.685 171.343 197.112" fill="none" stroke="rgb(0, 0, 0)" stroke-linecap="round" stroke-linejoin="round" stroke-opacity="1.0" stroke-width="1"/>
    <path d="M191.393 163.946C182.542 204.966 205.387 179.331 181.481 157.143" fill="none" stroke="rgb(0, 0, 0)" stroke-linecap="round" stroke-linejoin="round" stroke-opacity="1.0" stroke-width="1"/>
    <path d="M178.635 210.289C169.138 190.212 162.408 196.162 198.004 191.074" fill="none" stroke="rgb(0, 0, 0)" stroke-linecap="round" stroke-linejoin="round" stroke-opacity="1.0" stroke-width="1"/>
    <path d="M221.505 132.269C227.107 129.85 220.499 170.603 219.531 121.683" fill="none" stroke="rgb(0, 0, 0)" stroke-linecap="round" stroke-linejoin="round" stroke-opacity="1.0" stroke-width="1"/>
    <path d="M191.102 191.745C174.424 172.53 189.471 161.372 197.981 193.577" fill="none" stroke="rgb(0, 0, 0)" stroke-linecap="round" stroke-linejoin="round" stroke-opacity="1.0" stroke-width="1"/>
    <path d="M187.263 154.532C201.654 202.225 185.465 176.318 203.265 197.137" fill="none" stroke="rgb(0, 0, 0)" stroke-linecap="round" stroke-linejoin="round" stroke-opacity="1.0" stroke-width="1"/>
    <path d="M220.814 124.402C227.238 143.941 217.487 158.369 218.736 121.837" fill="none" stroke="rgb(0, 0, 0)" stroke-linecap="round" stroke-linejoin="round" stroke-opacity="1.0" stroke-width="1"/>
    <path d="M174.973 167.333C197.083 147.467 190.445 154.018 182.508 172.105" fill="none" stroke="rgb(0, 0, 0)" stroke-linecap="round" stroke-linejoin="round" stroke-opacity="1.0" stroke-width="1"/>
    <path d="M153.424 150.061C155.262 122.012 140.149 129.395 150.112 154.563" fill="none" stroke="rgb(0, 0, 0)" stroke-linecap="round" stroke-linejoin="round" stroke-opacity="1.0" stroke-width="1"/>
    <path d="M204.93 134.884C216.903 133.111 193.994 176.95 182.752 161.495" fill="none" stroke="rgb(0, 0, 0)" stroke-linecap="round" stroke-linejoin="round" stroke-opacity="1.0" stroke-width="1"/>
    <path d="M200.233 189.755C167.854 167.939 188.929 183.84 176.903 166.084" fill="none" stroke="rgb(0, 0, 0)" stroke-linecap="round" stroke-linejoin="round" stroke-opacity="1.0" stroke-width="1"/>
    <path d="M191.795 177.333C175.25 187.448 204.389 201.515 180.621 178.521" fill="none" stroke="rgb(0, 0, 0)" stroke-linecap="round" stroke-linejoin="round" stroke-opacity="1.0" stroke-width="1"/>
    <path d="M148.613 146.05C125.73 150.345 123.665 149.765 151.205 145.537" fill="none" stroke="rgb(0, 0, 0)" stroke-linecap="round" stroke-linejoin="round" stroke-opacity="1.0" stroke-width="1"/>
    <path d="M189.799 157.257C181.147 144.917 190.472 173.562 171.553 163.959" fill="none" stroke="rgb(0, 0, 0)" stroke-linecap="round" stroke-linejoin="round" stroke-opacity="1.0" stroke-width="1"/>
    <path d="M186.033 175.1C143.843 147.902 166.575 135.343 159.169 146.416" fill="none" stroke="rgb(0, 0, 0)" stroke-linecap="round" stroke-linejoin="round" stroke-opacity="1.0" stroke-width="1"/>
    <path d="M180.028 214.134C165.855 208.96 199.483 214.69 173.145 217.155" fill="none" stroke="rgb(0, 0, 0)" stroke-linecap="round" stroke-linejoin="round" stroke-opacity="1.0" stroke-width="1"/>
    <path d="M184.448 181.407C216.558 119.623 209.724 160.207 182.083 172.914" fill="none" stroke="rgb(0, 0, 0)" stroke-linecap="round" stroke-linejoin="round" stroke-opacity="1.0" stroke-width="1"/>
    <path d="M201.762 187.983C169.902 210.908 166.322 176.997 181.545 214.921" fill="none" stroke="rgb(0, 0, 0)" stroke-linecap="round" stroke-linejoin="round" stroke-opacity="1.0" stroke-width="1"/>
    <path d="M174.621 165.366C202.147 191.263 197.93 174.754 167.127 158.572" fill="none" stroke="rgb(0, 0, 0)" stroke-linecap="round" stroke-linejoin="round" stroke-opacity="1.0" stroke-width="1"/>
    <path d="M221.203 147.602C212.558 138.591 219.894 95.1086 222.31 139.952" fill="none" stroke="rgb(0, 0, 0)" stroke-linecap="round" stroke-linejoin="round" stroke-opacity="1.0" stroke-width="1"/>
    <path d="M150.197 146.633C140.059 146.321 157.652 141.578 238.313 132.165" fill="none" stroke="rgb(0, 0, 0)" stroke-linecap="round" stroke-linejoin="round" stroke-opacity="1.0" stroke-width="1"/>
    <path d="M152.532 144.677C105.355 150.601 150.492 145.169 151.026 145.699" fill="none" stroke="rgb(0, 0, 0)" stroke-linecap="round" stroke-linejoin="round" stroke-opacity="1.0" stroke-width="1"/>
  </g>
</svg>
