<svg height="256" version="1.1" width="256" xmlns="http://www.w3.org/2000/svg">
  <defs/>
  <g>
    <path d="M147.5 189.274C166.258 162.769 165.88 172.763 60.5105 174.825" fill="none" stroke="rgb(0, 255, 0)" stroke-linecap="round" stroke-linejoin="round" stroke-opacity="1.0" stroke-width="2"/>
    <path d="M119.19 177.55C133.581 191.122 128.908 196.283 136.057 185.036" fill="none" stroke="rgb(0, 255, 0)" stroke-linecap="round" stroke-linejoin="round" stroke-opacity="1.0" stroke-width="2"/>
    <path d="M214.447 173.933C191.786 180.608 222.141 188.913 197.26 187.841" fill="none" stroke="rgb(0, 255, 0)" stroke-linecap="round" stroke-linejoin="round" stroke-opacity="1.0" stroke-width="2"/>
    <path d="M55.1004 175.684C123.775 170.658 143.766 164.799 155.3 183.981" fill="none" stroke="rgb(0, 255, 0)" stroke-linecap="round" stroke-linejoin="round" stroke-opacity="1.0" stroke-width="2"/>
    <path d="M226.62 169.717C193.718 173.975 203.435 205.586 190.697 174.56" fill="none" stroke="rgb(0, 255, 0)" stroke-linecap="round" stroke-linejoin="round" stroke-opacity="1.0" stroke-width="2"/>
    <path d="M166.113 184.279C216.684 185.462 197.983 180.666 97.2384 175.056" fill="none" stroke="rgb(0, 255, 0)" stroke-linecap="round" stroke-linejoin="round" stroke-opacity="1.0" stroke-width="2"/>
    <path d="M140.791 184.243C27.5682 189.768 5.56286 188.349 95.8364 179.876" fill="none" stroke="rgb(0, 255, 0)" stroke-linecap="round" stroke-linejoin="round" stroke-opacity="1.0" stroke-width="2"/>
    <path d="M44.9761 180.092C77.3478 185.162 63.9795 187.679 40.6495 186.812" fill="none" stroke="rgb(0, 255, 0)" stroke-linecap="round" stroke-linejoin="round" stroke-opacity="1.0" stroke-width="2"/>
    <path d="M221.125 173.004C94.2764 184.416 74.3741 193.1 156.08 191.18" fill="none" stroke="rgb(0, 255, 0)" stroke-linecap="round" stroke-linejoin="round" stroke-opacity="1.0" stroke-width="2"/>
    <path d="M211.767 191.023C-15.4586 189.519 85.2277 192.234 210.06 179.447" fill="none" stroke="rgb(0, 255, 0)" stroke-linecap="round" stroke-linejoin="round" stroke-opacity="1.0" stroke-width="2"/>
    <path d="M150.312 181.282C33.0697 176.449 -37.8324 179.825 94.2048 172.131" fill="none" stroke="rgb(0, 255, 0)" stroke-linecap="round" stroke-linejoin="round" stroke-opacity="1.0" stroke-width="2"/>
    <path d="M211.206 174.066C206.978 198.168 220.178 189.176 197.143 178.555" fill="none" stroke="rgb(0, 255, 0)" stroke-linecap="round" stroke-linejoin="round" stroke-opacity="1.0" stroke-width="2"/>
    <path d="M59.968 149.624C54.2048 153.323 72.7263 154.797 61.1244 151.973" fill="none" stroke="rgb(0, 255, 0)" stroke-linecap="round" stroke-linejoin="round" stroke-opacity="1.0" stroke-width="2"/>
    <path d="M57.7437 145.63C56.7383 143.843 56.7499 143.132 56.2531 142.319" fill="none" stroke="rgb(0, 255, 0)" stroke-linecap="round" stroke-linejoin="round" stroke-opacity="1.0" stroke-width="2"/>
    <path d="M52.1044 173.463C61.736 132.901 51.2395 134.5 63.5379 136.633" fill="none" stroke="rgb(0, 255, 0)" stroke-linecap="round" stroke-linejoin="round" stroke-opacity="1.0" stroke-width="2"/>
    <path d="M197.68 187.845C191.462 181.504 174.834 184.347 129.56 177.049" fill="none" stroke="rgb(0, 255, 0)" stroke-linecap="round" stroke-linejoin="round" stroke-opacity="1.0" stroke-width="2"/>
    <path d="M146.695 169.435C242.013 172.391 236.791 172.141 156.471 176.045" fill="none" stroke="rgb(0, 255, 0)" stroke-linecap="round" stroke-linejoin="round" stroke-opacity="1.0" stroke-width="2"/>
    <path d="M210.05 179.19C108.429 182.605 109.076 171.294 206.697 188.106" fill="none" stroke="rgb(0, 255, 0)" stroke-linecap="round" stroke-linejoin="round" stroke-opacity="1.0" stroke-width="2"/>
    <path d="M138.884 191.838C226.32 189.063 204.508 188.66 158.152 179.585" fill="none" stroke="rgb(0, 255, 0)" stroke-linecap="round" stroke-linejoin="round" stroke-opacity="1.0" stroke-width="2"/>
    <path d="M35.5269 191.582C18.6487 165.608 34.6821 158.998 42.9033 188.385" fill="none" stroke="rgb(0, 255, 0)" stroke-linecap="round" stroke-linejoin="round" stroke-opacity="1.0" stroke-width="2"/>
    <path d="M232.002 169.717C144.898 169.285 151.488 170.151 185.681 175.972" fill="none" stroke="rgb(0, 255, 0)" stroke-linecap="round" stroke-linejoin="round" stroke-opacity="1.0" stroke-width="2"/>
    <path d="M23.0848 170.656C32.6063 210.615 39.0893 186.164 33.5452 170.388" fill="none" stroke="rgb(0, 255, 0)" stroke-linecap="round" stroke-linejoin="round" stroke-opacity="1.0" stroke-width="2"/>
    <path d="M63.5789 148.251C52.2468 188.909 76.0398 166.298 59.3782 162.466" fill="none" stroke="rgb(0, 255, 0)" stroke-linecap="round" stroke-linejoin="round" stroke-opacity="1.0" stroke-width="2"/>
    <path d="M193.928 176.858C221.152 190.298 175.595 191.963 192.147 178.497" fill="none" stroke="rgb(0, 255, 0)" stroke-linecap="round" stroke-linejoin="round" stroke-opacity="1.0" stroke-width="2"/>
    <path d="M33.0667 192.114C26.1431 176.019 31.0566 169.531 54.2789 175.607" fill="none" stroke="rgb(0, 255, 0)" stroke-linecap="round" stroke-linejoin="round" stroke-opacity="1.0" stroke-width="2"/>
    <path d="M137.823 186.483C222.159 188.667 214.982 194.993 68.645 188.25" fill="none" stroke="rgb(0, 255, 0)" stroke-linecap="round" stroke-linejoin="round" stroke-opacity="1.0" stroke-width="2"/>
    <path d="M76.8632 175.617C83.7971 181.574 115.916 169.511 66.9602 185.517" fill="none" stroke="rgb(0, 255, 0)" stroke-linecap="round" stroke-linejoin="round" stroke-opacity="1.0" stroke-width="2"/>
    <path d="M231.047 168.528C187.904 195.044 180.556 193.956 170.763 172.043" fill="none" stroke="rgb(0, 255, 0)" stroke-linecap="round" stroke-linejoin="round" stroke-opacity="1.0" stroke-width="2"/>
    <path d="M34.8591 190.342C73.7642 169.348 69.3371 160.347 61.5815 161.176" fill="none" stroke="rgb(0, 255, 0)" stroke-linecap="round" stroke-linejoin="round" stroke-opacity="1.0" stroke-width="2"/>
    <path d="M158.108 191.804C151.083 169.153 148.233 176.189 173.343 190.894" fill="none" stroke="rgb(0, 255, 0)" stroke-linecap="round" stroke-linejoin="round" stroke-opacity="1.0" stroke-width="2"/>
    <path d="M86.6229 177.458C184.719 178.643 148.796 175.087 95.6179 183.652" fill="none" stroke="rgb(0, 255, 0)" stroke-linecap="round" stroke-linejoin="round" stroke-opacity="1.0" stroke-width="2"/>
    <path d="M82.0941 180.809C34.1029 194.268 114.927 192.273 95.3595 176.324" fill="none" stroke="rgb(0, 255, 0)" stroke-linecap="round" stroke-linejoin="round" stroke-opacity="1.0" stroke-width="2"/>
    <path d="M50.1207 136.587C62.642 136.253 55.4047 133.103 56.5044 140.456" fill="none" stroke="rgb(0, 255, 0)" stroke-linecap="round" stroke-linejoin="round" stroke-opacity="1.0" stroke-width="2"/>
    <path d="M219.939 175.588C131.194 179.395 156.537 171.771 143.834 189.905" fill="none" stroke="rgb(0, 255, 0)" stroke-linecap="round" stroke-linejoin="round" stroke-opacity="1.0" stroke-width="2"/>
    <path d="M155.117 190.516C163.605 175.209 137.576 176.131 58.0628 173.783" fill="none" stroke="rgb(0, 255, 0)" stroke-linecap="round" stroke-linejoin="round" stroke-opacity="1.0" stroke-width="2"/>
    <path d="M217.193 172.933C102.868 168.293 99.4155 179.033 159.939 180.631" fill="none" stroke="rgb(0, 255, 0)" stroke-linecap="round" stroke-linejoin="round" stroke-opacity="1.0" stroke-width="2"/>
    <path d="M102.018 189.782C159.19 189.874 154.378 177.848 47.0624 183.584" fill="none" stroke="rgb(0, 255, 0)" stroke-linecap="round" stroke-linejoin="round" stroke-opacity="1.0" stroke-width="2"/>
    <path d="M211.216 187.982C217.834 161.703 267.732 172.023 107.736 174.096" fill="none" stroke="rgb(0, 255, 0)" stroke-linecap="round" stroke-linejoin="round" stroke-opacity="1.0" stroke-width="2"/>
    <path d="M57.7042 149.979C54.0525 142.644 59.3188 140.695 58.578 140.616" fill="none" stroke="rgb(0, 255, 0)" stroke-linecap="round" stroke-linejoin="round" stroke-opacity="1.0" stroke-width="2"/>
    <path d="M68.2415 187.304C115.059 171.149 41.1814 174.54 29.8375 172.435" fill="none" stroke="rgb(0, 255, 0)" stroke-linecap="round" stroke-linejoin="round" stroke-opacity="1.0" stroke-width="2"/>
    <path d="M56.2867 175.886C146.201 171.654 91.9062 164.097 25.3835 170.306" fill="none" stroke="rgb(0, 255, 0)" stroke-linecap="round" stroke-linejoin="round" stroke-opacity="1.0" stroke-width="2"/>
    <path d="M53.1986 146.436C53.8273 183.176 42.7707 194.537 45.5885 161.587" fill="none" stroke="rgb(0, 255, 0)" stroke-linecap="round" stroke-linejoin="round" stroke-opacity="1.0" stroke-width="2"/>
    <path d="M62.8384 170.879C77.1445 179.578 84.0843 192.073 42.7515 192.034" fill="none" stroke="rgb(0, 255, 0)" stroke-linecap="round" stroke-linejoin="round" stroke-opacity="1.0" stroke-width="2"/>
    <path d="M202.861 170.512C120.143 176.512 139.922 172.243 128.031 172.251" fill="none" stroke="rgb(0, 255, 0)" stroke-linecap="round" stroke-linejoin="round" stroke-opacity="1.0" stroke-width="2"/>
    <path d="M77.0961 176.256C120.379 173.113 88.6915 154.56 85.6593 187.868" fill="none" stroke="rgb(0, 255, 0)" stroke-linecap="round" stroke-linejoin="round" stroke-opacity="1.0" stroke-width="2"/>
    <path d="M189.147 184.518C165.502 189.275 209.377 161.96 201.811 171.765" fill="none" stroke="rgb(0, 255, 0)" stroke-linecap="round" stroke-linejoin="round" stroke-opacity="1.0" stroke-width="2"/>
    <path d="M60.6545 156.536C55.3206 151.43 70.3993 185.231 46.3175 175.934" fill="none" stroke="rgb(0, 255, 0)" stroke-linecap="round" stroke-linejoin="round" stroke-opacity="1.0" stroke-width="2"/>
    <path d="M89.0737 172.851C110.163 164.196 85.4524 174.68 67.2832 191.939" fill="none" stroke="rgb(0, 255, 0)" stroke-linecap="round" stroke-linejoin="round" stroke-opacity="1.0" stroke-width="2"/>
    <path d="M94.7957 174.119C83.1165 181.321 80.131 163.502 89.2595 168.96" fill="none" stroke="rgb(0, 255, 0)" stroke-linecap="round" stroke-linejoin="round" stroke-opacity="1.0" stroke-width="2"/>
    <path d="M149.556 178.458C146.011 163.716 123.624 179.037 65.3923 177.929" fill="none" stroke="rgb(0, 255, 0)" stroke-linecap="round" stroke-linejoin="round" stroke-opacity="1.0" stroke-width="2"/>
    <path d="M56.7692 162.559C59.8179 177.716 93.8979 152.907 43.7209 162.061" fill="none" stroke="rgb(0, 255, 0)" stroke-linecap="round" stroke-linejoin="round" stroke-opacity="1.0" stroke-width="2"/>
    <path d="M205.763 185.758C132.902 180.648 122.61 176.235 220.441 174.229" fill="none" stroke="rgb(0, 255, 0)" stroke-linecap="round" stroke-linejoin="round" stroke-opacity="1.0" stroke-width="2"/>
    <path d="M73.097 189.437C82.1196 169.419 110.546 175.258 78.8409 182.42" fill="none" stroke="rgb(0, 255, 0)" stroke-linecap="round" stroke-linejoin="round" stroke-opacity="1.0" stroke-width="2"/>
    <path d="M62.8647 169.197C62.1883 169.635 44.6228 169.38 59.4374 175.364" fill="none" stroke="rgb(0, 255, 0)" stroke-linecap="round" stroke-linejoin="round" stroke-opacity="1.0" stroke-width="2"/>
    <path d="M62.9209 148.227C65.5415 158.942 52.9011 144.185 59.7788 140.948" fill="none" stroke="rgb(0, 255, 0)" stroke-linecap="round" stroke-linejoin="round" stroke-opacity="1.0" stroke-width="2"/>
    <path d="M65.663 165.346C4.91878 166.398 90.9078 157.494 56.573 165.715" fill="none" stroke="rgb(0, 255, 0)" stroke-linecap="round" stroke-linejoin="round" stroke-opacity="1.0" stroke-width="2"/>
    <path d="M37.4429 191.481C166.131 191.655 173.803 192.014 68.2508 190.235" fill="none" stroke="rgb(0, 255, 0)" stroke-linecap="round" stroke-linejoin="round" stroke-opacity="1.0" stroke-width="2"/>
    <path d="M62.176 141.045C72.523 141.723 41.7992 142.276 62.4844 140.947" fill="none" stroke="rgb(0, 255, 0)" stroke-linecap="round" stroke-linejoin="round" stroke-opacity="1.0" stroke-width="2"/>
    <path d="M107.842 187.399C63.0959 171.824 104.894 184.24 70.4264 176.263" fill="none" stroke="rgb(0, 255, 0)" stroke-linecap="round" stroke-linejoin="round" stroke-opacity="1.0" stroke-width="2"/>
    <path d="M56.8052 137.259C56.3033 135.329 57.2081 147.453 55.7405 149.029" fill="none" stroke="rgb(0, 255, 0)" stroke-linecap="round" stroke-linejoin="round" stroke-opacity="1.0" stroke-width="2"/>
    <path d="M28.4719 177.896C18.973 173.637 68.8996 209.149 64.4894 164.184" fill="none" stroke="rgb(0, 255, 0)" stroke-linecap="round" stroke-linejoin="round" stroke-opacity="1.0" stroke-width="2"/>
    <path d="M82.6324 172.589C35.1097 163.678 120.687 174.047 171.331 184.647" fill="none" stroke="rgb(0, 255, 0)" stroke-linecap="round" stroke-linejoin="round" stroke-opacity="1.0" stroke-width="2"/>
    <path d="M157.787 175.517C163.579 190.046 158.782 189.713 203.541 175.4" fill="none" stroke="rgb(0, 255, 0)" stroke-linecap="round" stroke-linejoin="round" stroke-opacity="1.0" stroke-width="2"/>
    <path d="M170.675 183.563C199.383 173.717 160.998 183.258 146.905 183.954" fill="none" stroke="rgb(0, 255, 0)" stroke-linecap="round" stroke-linejoin="round" stroke-opacity="1.0" stroke-width="2"/>
    <path d="M55.8598 142.257C57.3367 142.423 59.6058 142.183 56.5853 145.495" fill="none" stroke="rgb(0, 255, 0)" stroke-linecap="round" stroke-linejoin="round" stroke-opacity="1.0" stroke-width="2"/>
    <path d="M60.9434 146.204C59.9297 190.098 66.1944 171.252 45.9341 169.819" fill="none" stroke="rgb(0, 255, 0)" stroke-linecap="round" stroke-linejoin="round" stroke-opacity="1.0" stroke-width="2"/>
    <path d="M58.4504 147.281C50.6575 151.285 70.4807 175.989 43.3115 181.642" fill="none" stroke="rgb(0, 255, 0)" stroke-linecap="round" stroke-linejoin="round" stroke-opacity="1.0" stroke-width="2"/>
    <path d="M39.801 172.076C7.73457 168.387 30.8748 171.282 118.802 174.454" fill="none" stroke="rgb(0, 255, 0)" stroke-linecap="round" stroke-linejoin="round" stroke-opacity="1.0" stroke-width="2"/>
    <path d="M59.025 141.975C84.5737 141.925 69.4216 142.602 55.3779 141.61" fill="none" stroke="rgb(0, 255, 0)" stroke-linecap="round" stroke-linejoin="round" stroke-opacity="1.0" stroke-width="2"/>
    <path d="M119.885 169.261C129.307 170.388 65.3122 183.816 62.3458 162.857" fill="none" stroke="rgb(0, 255, 0)" stroke-linecap="round" stroke-linejoin="round" stroke-opacity="1.0" stroke-width="2"/>
    <path d="M43.5001 173.213C90.1234 179.806 66.0464 167.75 29.3514 180.185" fill="none" stroke="rgb(0, 255, 0)" stroke-linecap="round" stroke-linejoin="round" stroke-opacity="1.0" stroke-width="2"/>
    <path d="M55.7728 169.679C39.7479 176.938 81.0481 209.142 72.0983 173.33" fill="none" stroke="rgb(0, 255, 0)" stroke-linecap="round" stroke-linejoin="round" stroke-opacity="1.0" stroke-width="2"/>
    <path d="M46.6164 141.941C72.9358 142.258 74.3979 140.961 52.4288 141.479" fill="none" stroke="rgb(0, 255, 0)" stroke-linecap="round" stroke-linejoin="round" stroke-opacity="1.0" stroke-width="2"/>
    <path d="M104.994 174.024C195.939 167.817 133.421 177.765 151.001 176.63" fill="none" stroke="rgb(0, 255, 0)" stroke-linecap="round" stroke-linejoin="round" stroke-opacity="1.0" stroke-width="2"/>
    <path d="M38.5215 186.522C34.4474 172.171 7.54736 177.527 56.4229 190.835" fill="none" stroke="rgb(0, 255, 0)" stroke-linecap="round" stroke-linejoin="round" stroke-opacity="1.0" stroke-width="2"/>
    <path d="M56.4345 143.208C57.0615 143.819 57.7499 142.75 55.5897 146.893" fill="none" stroke="rgb(0, 255, 0)" stroke-linecap="round" stroke-linejoin="round" stroke-opacity="1.0" stroke-width="2"/>
    <path d="M112.837 192.47C129.441 178.676 76.9637 161.309 96.5038 177.093" fill="none" stroke="rgb(0, 255, 0)" stroke-linecap="round" stroke-linejoin="round" stroke-opacity="1.0" stroke-width="2"/>
    <path d="M61.5221 160.315C51.4332 186.132 48.9098 178.618 55.5721 171.122" fill="none" stroke="rgb(0, 255, 0)" stroke-linecap="round" stroke-linejoin="round" stroke-opacity="1.0" stroke-width="2"/>
    <path d="M26.3866 175.322C127.573 170.615 63.7549 167.463 55.7976 175.901" fill="none" stroke="rgb(0, 255, 0)" stroke-linecap="round" stroke-linejoin="round" stroke-opacity="1.0" stroke-width="2"/>
    <path d="M57.2327 130.47C56.3853 146.056 57.6228 151.241 56.6571 144.226" fill="none" stroke="rgb(0, 255, 0)" stroke-linecap="round" stroke-linejoin="round" stroke-opacity="1.0" stroke-width="2"/>
    <path d="M71.8628 189.117C42.4951 174.517 36.227 162.308 68.6268 178.334" fill="none" stroke="rgb(0, 255, 0)" stroke-linecap="round" stroke-linejoin="round" stroke-opacity="1.0" stroke-width="2"/>
    <path d="M168.569 183.104C176.582 178.159 186.033 199.359 165.173 185.05" fill="none" stroke="rgb(0, 255, 0)" stroke-linecap="round" stroke-linejoin="round" stroke-opacity="1.0" stroke-width="2"/>
    <path d="M84.674 167.821C214.316 168.162 260.808 171.163 181.154 168.356" fill="none" stroke="rgb(0, 255, 0)" stroke-linecap="round" stroke-linejoin="round" stroke-opacity="1.0" stroke-width="2"/>
    <path d="M116.077 160.791C116.841 162.991 117.77 162.172 118.354 162.191" fill="none" stroke="rgb(0, 0, 255)" stroke-linecap="round" stroke-linejoin="round" stroke-opacity="1.0" stroke-width="2"/>
    <path d="M111.399 160.634C112.164 162.834 113.093 162.014 113.677 162.034" fill="none" stroke="rgb(0, 0, 255)" stroke-linecap="round" stroke-linejoin="round" stroke-opacity="1.0" stroke-width="2"/>
    <path d="M107.86 161.152C108.624 163.352 109.553 162.532 110.138 162.552" fill="none" stroke="rgb(0, 0, 255)" stroke-linecap="round" stroke-linejoin="round" stroke-opacity="1.0" stroke-width="2"/>
    <path d="M99.8314 163.538C105.975 161.302 114.809 162.555 120.155 162.735" fill="none" stroke="rgb(0, 0, 255)" stroke-linecap="round" stroke-linejoin="round" stroke-opacity="1.0" stroke-width="2"/>
    <path d="M98.0169 156.783C101.469 156.899 102.729 160.766 106.293 160.886" fill="none" stroke="rgb(0, 0, 255)" stroke-linecap="round" stroke-linejoin="round" stroke-opacity="1.0" stroke-width="2"/>
    <path d="M99.5339 164.484C100.978 160.071 102.109 162.021 107.955 160.73" fill="none" stroke="rgb(0, 0, 255)" stroke-linecap="round" stroke-linejoin="round" stroke-opacity="1.0" stroke-width="2"/>
    <path d="M103.112 162.054C107.036 159.956 110.982 161.363 119.612 160.167" fill="none" stroke="rgb(0, 0, 255)" stroke-linecap="round" stroke-linejoin="round" stroke-opacity="1.0" stroke-width="2"/>
    <path d="M98.325 156.582C93.0241 157.572 94.4977 155.391 99.9999 162.587" fill="none" stroke="rgb(0, 0, 255)" stroke-linecap="round" stroke-linejoin="round" stroke-opacity="1.0" stroke-width="2"/>
    <path d="M120.078 160.714C121.459 161.929 125.034 162.368 126.982 160.946" fill="none" stroke="rgb(0, 0, 255)" stroke-linecap="round" stroke-linejoin="round" stroke-opacity="1.0" stroke-width="2"/>
    <path d="M100.943 166.443C104.203 166.553 102.432 166.493 110.128 162.291" fill="none" stroke="rgb(0, 0, 255)" stroke-linecap="round" stroke-linejoin="round" stroke-opacity="1.0" stroke-width="2"/>
    <path d="M127.088 163.712C127.057 162.906 127.032 162.261 128.128 161.835" fill="none" stroke="rgb(0, 0, 255)" stroke-linecap="round" stroke-linejoin="round" stroke-opacity="1.0" stroke-width="2"/>
    <path d="M101.834 166.473C106.957 166.646 104.173 166.552 116.364 162.501" fill="none" stroke="rgb(0, 0, 255)" stroke-linecap="round" stroke-linejoin="round" stroke-opacity="1.0" stroke-width="2"/>
    <path d="M99.9833 164.605C103.907 162.506 109.502 166.306 112.969 163.874" fill="none" stroke="rgb(0, 0, 255)" stroke-linecap="round" stroke-linejoin="round" stroke-opacity="1.0" stroke-width="2"/>
    <path d="M105.205 164.462C118.569 164.912 114.485 165.73 117.952 163.298" fill="none" stroke="rgb(0, 0, 255)" stroke-linecap="round" stroke-linejoin="round" stroke-opacity="1.0" stroke-width="2"/>
    <path d="M117.188 163.697C121.112 161.598 126.707 165.398 130.173 162.966" fill="none" stroke="rgb(0, 0, 255)" stroke-linecap="round" stroke-linejoin="round" stroke-opacity="1.0" stroke-width="2"/>
    <path d="M119.176 160.407C123.836 158.126 125.639 160.731 130.282 162.906" fill="none" stroke="rgb(0, 0, 255)" stroke-linecap="round" stroke-linejoin="round" stroke-opacity="1.0" stroke-width="2"/>
    <path d="M122.792 161.906C125.798 159.056 120.697 158.459 124.574 161.966" fill="none" stroke="rgb(0, 0, 255)" stroke-linecap="round" stroke-linejoin="round" stroke-opacity="1.0" stroke-width="2"/>
    <path d="M86.0502 82.7915C86.8147 84.9911 87.7438 84.1717 88.328 84.1914" fill="none" stroke="rgb(255, 0, 0)" stroke-linecap="round" stroke-linejoin="round" stroke-opacity="1.0" stroke-width="2"/>
    <path d="M81.3728 82.6339C82.1374 84.8336 83.0664 84.0142 83.6506 84.0339" fill="none" stroke="rgb(255, 0, 0)" stroke-linecap="round" stroke-linejoin="round" stroke-opacity="1.0" stroke-width="2"/>
    <path d="M77.8334 83.1521C78.598 85.3518 79.527 84.5324 80.1113 84.5521" fill="none" stroke="rgb(255, 0, 0)" stroke-linecap="round" stroke-linejoin="round" stroke-opacity="1.0" stroke-width="2"/>
    <path d="M69.8051 85.538C75.9483 83.3016 84.7826 84.5552 90.1281 84.7352" fill="none" stroke="rgb(255, 0, 0)" stroke-linecap="round" stroke-linejoin="round" stroke-opacity="1.0" stroke-width="2"/>
    <path d="M67.9906 78.7829C71.4429 78.8992 72.7026 82.7658 76.2662 82.8858" fill="none" stroke="rgb(255, 0, 0)" stroke-linecap="round" stroke-linejoin="round" stroke-opacity="1.0" stroke-width="2"/>
    <path d="M69.5076 86.4835C70.9517 82.0706 72.083 84.0208 77.9286 82.7304" fill="none" stroke="rgb(255, 0, 0)" stroke-linecap="round" stroke-linejoin="round" stroke-opacity="1.0" stroke-width="2"/>
    <path d="M73.0853 84.0545C77.0092 81.9558 80.9557 83.3635 89.5854 82.1669" fill="none" stroke="rgb(255, 0, 0)" stroke-linecap="round" stroke-linejoin="round" stroke-opacity="1.0" stroke-width="2"/>
    <path d="M68.2987 78.5819C62.9978 79.5721 64.4714 77.391 69.9736 84.5871" fill="none" stroke="rgb(255, 0, 0)" stroke-linecap="round" stroke-linejoin="round" stroke-opacity="1.0" stroke-width="2"/>
    <path d="M90.0512 82.7137C91.4322 83.9288 95.008 84.3679 96.9558 82.9463" fill="none" stroke="rgb(255, 0, 0)" stroke-linecap="round" stroke-linejoin="round" stroke-opacity="1.0" stroke-width="2"/>
    <path d="M70.9169 88.4431C74.1769 88.5528 72.4052 88.4932 80.1013 84.2908" fill="none" stroke="rgb(255, 0, 0)" stroke-linecap="round" stroke-linejoin="round" stroke-opacity="1.0" stroke-width="2"/>
    <path d="M97.0612 85.7117C97.0305 84.9056 97.0059 84.2607 98.1019 83.8347" fill="none" stroke="rgb(255, 0, 0)" stroke-linecap="round" stroke-linejoin="round" stroke-opacity="1.0" stroke-width="2"/>
    <path d="M71.8079 88.4731C76.9307 88.6456 74.1465 88.5518 86.3377 84.5008" fill="none" stroke="rgb(255, 0, 0)" stroke-linecap="round" stroke-linejoin="round" stroke-opacity="1.0" stroke-width="2"/>
    <path d="M69.957 86.6049C73.881 84.5062 79.4758 88.3059 82.9421 85.8737" fill="none" stroke="rgb(255, 0, 0)" stroke-linecap="round" stroke-linejoin="round" stroke-opacity="1.0" stroke-width="2"/>
    <path d="M75.1791 86.4621C88.5429 86.9121 84.4589 87.7301 87.9252 85.2979" fill="none" stroke="rgb(255, 0, 0)" stroke-linecap="round" stroke-linejoin="round" stroke-opacity="1.0" stroke-width="2"/>
    <path d="M87.1619 85.6968C91.0859 83.5982 96.6806 87.3978 100.147 84.9656" fill="none" stroke="rgb(255, 0, 0)" stroke-linecap="round" stroke-linejoin="round" stroke-opacity="1.0" stroke-width="2"/>
    <path d="M89.1497 82.4074C93.8095 80.1256 95.6129 82.7312 100.256 84.9059" fill="none" stroke="rgb(255, 0, 0)" stroke-linecap="round" stroke-linejoin="round" stroke-opacity="1.0" stroke-width="2"/>
    <path d="M92.7659 83.9062C95.7715 81.056 90.6703 80.4588 94.5478 83.9662" fill="none" stroke="rgb(255, 0, 0)" stroke-linecap="round" stroke-linejoin="round" stroke-opacity="1.0" stroke-width="2"/>
    <path d="M250.5 194.976C158.502 188.976 44.0019 194.976 5 194.976" fill="none" stroke="rgb(0, 255, 0)" stroke-linecap="round" stroke-linejoin="round" stroke-opacity="1.0" stroke-width="3"/>
  </g>
</svg>
