<svg height="256" version="1.1" width="256" xmlns="http://www.w3.org/2000/svg">
  <defs/>
  <g>
    <path d="M114.148 72.67C141.479 83.5812 115.332 79.9013 82.5775 63.332" fill="none" stroke="rgb(0, 255, 0, 1)" stroke-linecap="round" stroke-linejoin="round" stroke-opacity="1.0" stroke-width="3"/>
    <path d="M153.229 147.079C150.861 143.84 165.521 156.041 118.44 125.283" fill="none" stroke="rgb(0, 255, 0, 1)" stroke-linecap="round" stroke-linejoin="round" stroke-opacity="1.0" stroke-width="3"/>
    <path d="M47.6125 75.8493C55.2834 78.852 74.9458 91.0313 99.1356 107.168" fill="none" stroke="rgb(0, 255, 0, 1)" stroke-linecap="round" stroke-linejoin="round" stroke-opacity="1.0" stroke-width="3"/>
    <path d="M88.0775 62.996C83.3144 72.5885 99.077 81.2353 131.814 115.728" fill="none" stroke="rgb(0, 255, 0, 1)" stroke-linecap="round" stroke-linejoin="round" stroke-opacity="1.0" stroke-width="3"/>
    <path d="M32.3514 44.5408C26.855 156.283 27.4516 198.493 26.9503 59.5597" fill="none" stroke="rgb(0, 255, 0, 1)" stroke-linecap="round" stroke-linejoin="round" stroke-opacity="1.0" stroke-width="3"/>
    <path d="M116.547 84.0725C113.513 67.8828 121.21 62.4379 118.195 77.0161" fill="none" stroke="rgb(0, 255, 0, 1)" stroke-linecap="round" stroke-linejoin="round" stroke-opacity="1.0" stroke-width="3"/>
    <path d="M191.367 175.437C222.087 227.572 242.881 246.55 208.018 220.209" fill="none" stroke="rgb(0, 255, 0, 1)" stroke-linecap="round" stroke-linejoin="round" stroke-opacity="1.0" stroke-width="3"/>
    <path d="M29.7621 62.0292C34.2878 62.9773 16.4744 58.4857 78.2704 94.4347" fill="none" stroke="rgb(0, 255, 0, 1)" stroke-linecap="round" stroke-linejoin="round" stroke-opacity="1.0" stroke-width="3"/>
    <path d="M98.4467 152.446C112.375 164.016 140.76 178.678 137.733 176.876" fill="none" stroke="rgb(0, 255, 0, 1)" stroke-linecap="round" stroke-linejoin="round" stroke-opacity="1.0" stroke-width="3"/>
    <path d="M102.813 78.5548C132.407 57.642 119.635 72.1463 100.4 73.9431" fill="none" stroke="rgb(0, 255, 0, 1)" stroke-linecap="round" stroke-linejoin="round" stroke-opacity="1.0" stroke-width="3"/>
    <path d="M151.677 184.304C192.037 200.669 148.673 231.404 149.338 226.405" fill="none" stroke="rgb(0, 255, 0, 1)" stroke-linecap="round" stroke-linejoin="round" stroke-opacity="1.0" stroke-width="3"/>
    <path d="M23.8743 50.8449C71.0579 60.5235 74.9711 67.1039 51.6054 55.2533" fill="none" stroke="rgb(0, 255, 0, 1)" stroke-linecap="round" stroke-linejoin="round" stroke-opacity="1.0" stroke-width="3"/>
    <path d="M57.9441 31C54.1683 40.9762 89.7321 43.5559 69.2205 38.9924" fill="none" stroke="rgb(0, 255, 0, 1)" stroke-linecap="round" stroke-linejoin="round" stroke-opacity="1.0" stroke-width="3"/>
    <path d="M147.362 182.353C124.894 169.926 118.556 166.802 132.007 174.004" fill="none" stroke="rgb(0, 255, 0, 1)" stroke-linecap="round" stroke-linejoin="round" stroke-opacity="1.0" stroke-width="3"/>
    <path d="M79.039 134.482C107.359 153.513 93.2444 135.725 98.0052 178.59" fill="none" stroke="rgb(0, 255, 0, 1)" stroke-linecap="round" stroke-linejoin="round" stroke-opacity="1.0" stroke-width="3"/>
    <path d="M98.8023 173.166C93.1479 160.115 96.7528 169.738 91.5076 235.129" fill="none" stroke="rgb(0, 255, 0, 1)" stroke-linecap="round" stroke-linejoin="round" stroke-opacity="1.0" stroke-width="3"/>
    <path d="M228.832 223.787C217.496 238.475 218.604 224.721 183.181 178.651" fill="none" stroke="rgb(0, 255, 0, 1)" stroke-linecap="round" stroke-linejoin="round" stroke-opacity="1.0" stroke-width="3"/>
    <path d="M170.01 223.303C175.556 118.89 141.288 108.807 202.361 196.191" fill="none" stroke="rgb(0, 255, 0, 1)" stroke-linecap="round" stroke-linejoin="round" stroke-opacity="1.0" stroke-width="3"/>
    <path d="M29.1898 158.614C30.183 157.93 25.5397 134.261 29.6671 133.723" fill="none" stroke="rgb(0, 255, 0, 1)" stroke-linecap="round" stroke-linejoin="round" stroke-opacity="1.0" stroke-width="3"/>
    <path d="M108.552 78.9806C145.222 113.858 134.339 98.3404 133.615 99.215" fill="none" stroke="rgb(0, 255, 0, 1)" stroke-linecap="round" stroke-linejoin="round" stroke-opacity="1.0" stroke-width="3"/>
    <path d="M175.451 226.481C195.919 213.533 190.37 234.137 191.998 222.435" fill="none" stroke="rgb(0, 255, 0, 1)" stroke-linecap="round" stroke-linejoin="round" stroke-opacity="1.0" stroke-width="3"/>
    <path d="M79.9536 68.6736C103.554 71.2561 91.3629 46.7526 83.6667 74.933" fill="none" stroke="rgb(0, 255, 0, 1)" stroke-linecap="round" stroke-linejoin="round" stroke-opacity="1.0" stroke-width="3"/>
    <path d="M25.3375 156.082C30.6005 203.354 30.6005 172.253 30.6005 228.593" fill="none" stroke="rgb(0, 255, 0, 1)" stroke-linecap="round" stroke-linejoin="round" stroke-opacity="1.0" stroke-width="3"/>
    <path d="M102.048 86.3903C150.117 125.413 140.658 96.0019 84.5744 71.0482" fill="none" stroke="rgb(0, 255, 0, 1)" stroke-linecap="round" stroke-linejoin="round" stroke-opacity="1.0" stroke-width="3"/>
    <path d="M97.8584 86.9531C88.52 90.5832 93.6766 85.0111 45.7373 114.126" fill="none" stroke="rgb(0, 255, 0, 1)" stroke-linecap="round" stroke-linejoin="round" stroke-opacity="1.0" stroke-width="3"/>
    <path d="M96.9081 112.947C92.8606 61.2207 108.663 96.8329 125.016 104.432" fill="none" stroke="rgb(0, 255, 0, 1)" stroke-linecap="round" stroke-linejoin="round" stroke-opacity="1.0" stroke-width="3"/>
    <path d="M137.098 114.457C154.568 137.039 152.392 134.756 129.024 108.081" fill="none" stroke="rgb(0, 255, 0, 1)" stroke-linecap="round" stroke-linejoin="round" stroke-opacity="1.0" stroke-width="3"/>
    <path d="M108.471 76.7303C89.9637 65.9293 141.11 86.3357 119.033 82.9998" fill="none" stroke="rgb(0, 255, 0, 1)" stroke-linecap="round" stroke-linejoin="round" stroke-opacity="1.0" stroke-width="3"/>
    <path d="M80.6198 135.693C31.162 107.674 52.4859 111.581 28.3901 122.333" fill="none" stroke="rgb(0, 255, 0, 1)" stroke-linecap="round" stroke-linejoin="round" stroke-opacity="1.0" stroke-width="3"/>
    <path d="M30.0958 170.856C31.7286 96.6964 28.9995 89.1022 26.8233 121.55" fill="none" stroke="rgb(0, 255, 0, 1)" stroke-linecap="round" stroke-linejoin="round" stroke-opacity="1.0" stroke-width="3"/>
    <path d="M30.1574 64.0544C31.9634 42.9021 33.2851 100.277 28.4437 137.949" fill="none" stroke="rgb(0, 255, 0, 1)" stroke-linecap="round" stroke-linejoin="round" stroke-opacity="1.0" stroke-width="3"/>
    <path d="M244 233.228C221.639 250.791 200.839 202.537 184.382 183.464" fill="none" stroke="rgb(0, 255, 0, 1)" stroke-linecap="round" stroke-linejoin="round" stroke-opacity="1.0" stroke-width="3"/>
    <path d="M37.3093 55.3782C28.0963 45.5069 13.1878 115.29 58.9505 65.2389" fill="none" stroke="rgb(0, 255, 0, 1)" stroke-linecap="round" stroke-linejoin="round" stroke-opacity="1.0" stroke-width="3"/>
    <path d="M97.489 89.3966C96.3059 135.242 103.105 122.457 82.2623 137.655" fill="none" stroke="rgb(0, 255, 0, 1)" stroke-linecap="round" stroke-linejoin="round" stroke-opacity="1.0" stroke-width="3"/>
    <path d="M58.3728 55.7118C65.9411 48.1427 60.1217 43.2372 62.7392 43.5854" fill="none" stroke="rgb(0, 255, 0, 1)" stroke-linecap="round" stroke-linejoin="round" stroke-opacity="1.0" stroke-width="3"/>
    <path d="M48.1816 115.658C49.7939 116.994 47.9577 115.231 30.5573 105.207" fill="none" stroke="rgb(0, 255, 0, 1)" stroke-linecap="round" stroke-linejoin="round" stroke-opacity="1.0" stroke-width="3"/>
    <path d="M78.2652 62.1108C57.6635 53.8439 93.5002 73.7788 86.9595 68.1634" fill="none" stroke="rgb(0, 255, 0, 1)" stroke-linecap="round" stroke-linejoin="round" stroke-opacity="1.0" stroke-width="3"/>
    <path d="M30.6003 73.8532C44.5817 60.3887 66.1862 51.7009 95.8619 84.4769" fill="none" stroke="rgb(0, 255, 0, 1)" stroke-linecap="round" stroke-linejoin="round" stroke-opacity="1.0" stroke-width="3"/>
    <path d="M149.979 183.118C124.082 170.819 119.704 167.066 135.209 175.199" fill="none" stroke="rgb(0, 255, 0, 1)" stroke-linecap="round" stroke-linejoin="round" stroke-opacity="1.0" stroke-width="3"/>
    <path d="M28.4953 142.486C54.8841 165.057 61.0485 167.505 93.7567 190.524" fill="none" stroke="rgb(0, 255, 0, 1)" stroke-linecap="round" stroke-linejoin="round" stroke-opacity="1.0" stroke-width="3"/>
    <path d="M165.373 166.052C165.703 258.094 167.501 246.78 165.334 229.424" fill="none" stroke="rgb(0, 255, 0, 1)" stroke-linecap="round" stroke-linejoin="round" stroke-opacity="1.0" stroke-width="3"/>
    <path d="M203.744 225.665C200.866 227.279 179.395 210.319 165.295 203.518" fill="none" stroke="rgb(0, 255, 0, 1)" stroke-linecap="round" stroke-linejoin="round" stroke-opacity="1.0" stroke-width="3"/>
    <path d="M211.44 209.301C192.815 216.604 191.32 168.01 150.988 145.794" fill="none" stroke="rgb(0, 255, 0, 1)" stroke-linecap="round" stroke-linejoin="round" stroke-opacity="1.0" stroke-width="3"/>
    <path d="M93.2429 68.652C95.4366 58.0804 114.996 69.834 91.1791 74.0274" fill="none" stroke="rgb(0, 255, 0, 1)" stroke-linecap="round" stroke-linejoin="round" stroke-opacity="1.0" stroke-width="3"/>
    <path d="M49.8898 57.037C68.402 54.1442 48.5682 62.1329 57.8845 55.1799" fill="none" stroke="rgb(0, 255, 0, 1)" stroke-linecap="round" stroke-linejoin="round" stroke-opacity="1.0" stroke-width="3"/>
    <path d="M166.172 138.113C135.778 108.794 159.702 98.4795 101.91 132.662" fill="none" stroke="rgb(0, 255, 0, 1)" stroke-linecap="round" stroke-linejoin="round" stroke-opacity="1.0" stroke-width="3"/>
    <path d="M87.0421 91.6828C136.815 66.2841 113.245 66.8489 110.805 85.5611" fill="none" stroke="rgb(0, 255, 0, 1)" stroke-linecap="round" stroke-linejoin="round" stroke-opacity="1.0" stroke-width="3"/>
    <path d="M86.7261 63.4606C105.188 74.362 125.069 88.9313 96.3914 68.9091" fill="none" stroke="rgb(0, 255, 0, 1)" stroke-linecap="round" stroke-linejoin="round" stroke-opacity="1.0" stroke-width="3"/>
    <path d="M156.708 228.382C142.427 219.626 136.424 217.057 100.458 191.961" fill="none" stroke="rgb(0, 255, 0, 1)" stroke-linecap="round" stroke-linejoin="round" stroke-opacity="1.0" stroke-width="3"/>
    <path d="M95.2759 172.804C97.4828 96.0262 89.6788 100.605 118.138 123.7" fill="none" stroke="rgb(0, 255, 0, 1)" stroke-linecap="round" stroke-linejoin="round" stroke-opacity="1.0" stroke-width="3"/>
    <path d="M134.999 113.661C131.359 110.383 148.732 121.647 179.139 162.036" fill="none" stroke="rgb(0, 255, 0, 1)" stroke-linecap="round" stroke-linejoin="round" stroke-opacity="1.0" stroke-width="3"/>
    <path d="M109.732 81.2692C99.0408 66.8079 99.6524 66.0029 87.4938 67.4162" fill="none" stroke="rgb(0, 255, 0, 1)" stroke-linecap="round" stroke-linejoin="round" stroke-opacity="1.0" stroke-width="3"/>
    <path d="M115.469 78.9494C141.387 88.7534 99.5059 75.3641 116.847 86.8546" fill="none" stroke="rgb(0, 255, 0, 1)" stroke-linecap="round" stroke-linejoin="round" stroke-opacity="1.0" stroke-width="3"/>
    <path d="M60.9254 56.3123C56.4386 57.276 73.076 50.8026 53.581 57.6137" fill="none" stroke="rgb(0, 255, 0, 1)" stroke-linecap="round" stroke-linejoin="round" stroke-opacity="1.0" stroke-width="3"/>
    <path d="M95.3163 136.401C98.8885 175.025 98.4981 177.558 94.7979 171.049" fill="none" stroke="rgb(0, 255, 0, 1)" stroke-linecap="round" stroke-linejoin="round" stroke-opacity="1.0" stroke-width="3"/>
    <path d="M29.7955 124.33C29.6302 114.907 29.5058 138.204 29.5825 135.384" fill="none" stroke="rgb(0, 255, 0, 1)" stroke-linecap="round" stroke-linejoin="round" stroke-opacity="1.0" stroke-width="3"/>
    <path d="M193.894 220.753C192.673 225.462 189.718 222.311 177.156 223.147" fill="none" stroke="rgb(0, 255, 0, 1)" stroke-linecap="round" stroke-linejoin="round" stroke-opacity="1.0" stroke-width="3"/>
    <path d="M115.963 87.2926C78.1902 66.5486 96.6116 70.4078 112.84 80.8986" fill="none" stroke="rgb(0, 255, 0, 1)" stroke-linecap="round" stroke-linejoin="round" stroke-opacity="1.0" stroke-width="3"/>
    <path d="M117.376 61.0467C126.714 62.4434 95.7554 69.613 103.87 75.6346" fill="none" stroke="rgb(0, 255, 0, 1)" stroke-linecap="round" stroke-linejoin="round" stroke-opacity="1.0" stroke-width="3"/>
    <path d="M172.412 158.107C210.931 221.841 211.067 190.649 165.931 228.067" fill="none" stroke="rgb(0, 255, 0, 1)" stroke-linecap="round" stroke-linejoin="round" stroke-opacity="1.0" stroke-width="3"/>
    <path d="M29.4754 194.153C27.505 184.993 30.2346 203.039 29.9664 198.03" fill="none" stroke="rgb(0, 255, 0, 1)" stroke-linecap="round" stroke-linejoin="round" stroke-opacity="1.0" stroke-width="3"/>
    <path d="M152.269 120.691C140.771 128.822 137.399 112.309 174.903 164.144" fill="none" stroke="rgb(0, 255, 0, 1)" stroke-linecap="round" stroke-linejoin="round" stroke-opacity="1.0" stroke-width="3"/>
    <path d="M66.7915 55.1067C44.2266 56.91 37.0367 59.6953 66.4975 49.9931" fill="none" stroke="rgb(0, 255, 0, 1)" stroke-linecap="round" stroke-linejoin="round" stroke-opacity="1.0" stroke-width="3"/>
    <path d="M132.285 174.113C136.208 176.6 144.433 181.771 130.763 174.067" fill="none" stroke="rgb(0, 255, 0, 1)" stroke-linecap="round" stroke-linejoin="round" stroke-opacity="1.0" stroke-width="3"/>
    <path d="M98.3438 175.032C102.248 280.192 97.3993 248.254 94.2621 164.813" fill="none" stroke="rgb(0, 255, 0, 1)" stroke-linecap="round" stroke-linejoin="round" stroke-opacity="1.0" stroke-width="3"/>
    <path d="M110.642 78.6978C133.419 100.68 105.627 67.6119 87.7964 65.2549" fill="none" stroke="rgb(0, 255, 0, 1)" stroke-linecap="round" stroke-linejoin="round" stroke-opacity="1.0" stroke-width="3"/>
    <path d="M140.641 189.323C161.083 175.426 155.885 178.205 119.957 202.68" fill="none" stroke="rgb(0, 255, 0, 1)" stroke-linecap="round" stroke-linejoin="round" stroke-opacity="1.0" stroke-width="3"/>
    <path d="M150.58 141.942C152.858 137.973 158.742 141.524 149.746 133.039" fill="none" stroke="rgb(0, 255, 0, 1)" stroke-linecap="round" stroke-linejoin="round" stroke-opacity="1.0" stroke-width="3"/>
    <path d="M174.886 151.636C158.495 158.614 171.373 138.224 119.359 96.6654" fill="none" stroke="rgb(0, 255, 0, 1)" stroke-linecap="round" stroke-linejoin="round" stroke-opacity="1.0" stroke-width="3"/>
    <path d="M164.925 195.92C166.283 96.9672 157.98 169.635 169.606 244" fill="none" stroke="rgb(0, 255, 0, 1)" stroke-linecap="round" stroke-linejoin="round" stroke-opacity="1.0" stroke-width="3"/>
    <path d="M109.591 78.6823C126.419 52.5279 96.9638 88.5831 127.555 62.6065" fill="none" stroke="rgb(0, 255, 0, 1)" stroke-linecap="round" stroke-linejoin="round" stroke-opacity="1.0" stroke-width="3"/>
    <path d="M125.976 95.187C96.9761 71.6717 96.1133 68.3605 96.7114 66.3772" fill="none" stroke="rgb(0, 255, 0, 1)" stroke-linecap="round" stroke-linejoin="round" stroke-opacity="1.0" stroke-width="3"/>
    <path d="M39.1062 116.126C39.0099 115.309 38.4425 117.239 37.6167 116.449" fill="none" stroke="rgb(0, 255, 0, 1)" stroke-linecap="round" stroke-linejoin="round" stroke-opacity="1.0" stroke-width="3"/>
    <path d="M101.667 75.8651C128.37 65.8293 150.342 54.8598 108.779 75.9085" fill="none" stroke="rgb(0, 255, 0, 1)" stroke-linecap="round" stroke-linejoin="round" stroke-opacity="1.0" stroke-width="3"/>
    <path d="M65.3968 86.0241C64.6787 83.011 79.5354 94.4846 75.0724 91.8699" fill="none" stroke="rgb(0, 255, 0, 1)" stroke-linecap="round" stroke-linejoin="round" stroke-opacity="1.0" stroke-width="3"/>
    <path d="M119.075 97.2575C139.562 119.278 118.409 98.6758 100.459 83.8483" fill="none" stroke="rgb(0, 255, 0, 1)" stroke-linecap="round" stroke-linejoin="round" stroke-opacity="1.0" stroke-width="3"/>
    <path d="M98.3411 175.736C99.7819 88.74 92.3691 140.042 97.2499 87.8492" fill="none" stroke="rgb(0, 255, 0, 1)" stroke-linecap="round" stroke-linejoin="round" stroke-opacity="1.0" stroke-width="3"/>
    <path d="M110.954 80.9943C153.523 117.052 179.778 152.888 157.783 136.814" fill="none" stroke="rgb(0, 255, 0, 1)" stroke-linecap="round" stroke-linejoin="round" stroke-opacity="1.0" stroke-width="3"/>
    <path d="M102.958 72.0457C99.9443 84.6847 148.712 99.074 113.716 57.4227" fill="none" stroke="rgb(255, 0, 0, 1)" stroke-linecap="round" stroke-linejoin="round" stroke-opacity="1.0" stroke-width="3"/>
    <path d="M103.685 80.8211C101.549 49.4409 74.7139 52.7547 103.694 78.2066" fill="none" stroke="rgb(255, 0, 0, 1)" stroke-linecap="round" stroke-linejoin="round" stroke-opacity="1.0" stroke-width="3"/>
    <path d="M103.763 78.2663C65.4648 50.1331 31.8176 55.3141 88.5079 67.507" fill="none" stroke="rgb(255, 0, 0, 1)" stroke-linecap="round" stroke-linejoin="round" stroke-opacity="1.0" stroke-width="3"/>
    <path d="M76.4985 61.6911C44.6093 61.7136 64.2613 26.523 53.9252 49.145" fill="none" stroke="rgb(255, 0, 0, 1)" stroke-linecap="round" stroke-linejoin="round" stroke-opacity="1.0" stroke-width="3"/>
    <path d="M94.4721 63.9732C87.6322 27.6525 81.3021 74.9496 96.7674 67.0985" fill="none" stroke="rgb(255, 0, 0, 1)" stroke-linecap="round" stroke-linejoin="round" stroke-opacity="1.0" stroke-width="3"/>
    <path d="M29.6628 53.0759C95.0238 71.7764 115.219 83.346 112.622 78.8453" fill="none" stroke="rgb(255, 0, 0, 1)" stroke-linecap="round" stroke-linejoin="round" stroke-opacity="1.0" stroke-width="3"/>
    <path d="M116.966 73.7678C90.3841 81.033 81.2073 41.1524 84.608 67.8109" fill="none" stroke="rgb(255, 0, 0, 1)" stroke-linecap="round" stroke-linejoin="round" stroke-opacity="1.0" stroke-width="3"/>
    <path d="M86.4606 66.3491C92.6648 51.5774 87.738 75.6573 27.4426 49.1277" fill="none" stroke="rgb(255, 0, 0, 1)" stroke-linecap="round" stroke-linejoin="round" stroke-opacity="1.0" stroke-width="3"/>
    <path d="M65.1873 45.341C72.8873 54.7164 98.0742 83.4379 84.3427 63.7683" fill="none" stroke="rgb(255, 0, 0, 1)" stroke-linecap="round" stroke-linejoin="round" stroke-opacity="1.0" stroke-width="3"/>
    <path d="M65.0573 52.9527C111.409 82.0216 98.8511 28.4504 93.1293 52.5673" fill="none" stroke="rgb(255, 0, 0, 1)" stroke-linecap="round" stroke-linejoin="round" stroke-opacity="1.0" stroke-width="3"/>
    <path d="M49.242 53.5631C49.2026 43.4613 53.6686 56.1334 79.3933 68.7169" fill="none" stroke="rgb(255, 0, 0, 1)" stroke-linecap="round" stroke-linejoin="round" stroke-opacity="1.0" stroke-width="3"/>
    <path d="M60.2604 58.886C59.9116 55.884 78.8192 61.0874 97.251 70.6832" fill="none" stroke="rgb(255, 0, 0, 1)" stroke-linecap="round" stroke-linejoin="round" stroke-opacity="1.0" stroke-width="3"/>
    <path d="M94.1756 68.4994C99.6116 62.5759 99.9998 95.1364 64.2193 51.0608" fill="none" stroke="rgb(255, 0, 0, 1)" stroke-linecap="round" stroke-linejoin="round" stroke-opacity="1.0" stroke-width="3"/>
    <path d="M64.8373 51.3473C56.6961 30.2959 64.4426 55.266 81.0311 65.6839" fill="none" stroke="rgb(255, 0, 0, 1)" stroke-linecap="round" stroke-linejoin="round" stroke-opacity="1.0" stroke-width="3"/>
    <path d="M68.3494 43.731C65.8287 74.9764 69.2326 53.0767 59.334 48.6492" fill="none" stroke="rgb(255, 0, 0, 1)" stroke-linecap="round" stroke-linejoin="round" stroke-opacity="1.0" stroke-width="3"/>
    <path d="M22.92 50.3977C118.478 59.0427 133.311 102.25 79.4566 63.483" fill="none" stroke="rgb(255, 0, 0, 1)" stroke-linecap="round" stroke-linejoin="round" stroke-opacity="1.0" stroke-width="3"/>
    <path d="M95.6297 52.9276C120.547 50.7574 97.8114 39.9471 85.5851 67.0309" fill="none" stroke="rgb(255, 0, 0, 1)" stroke-linecap="round" stroke-linejoin="round" stroke-opacity="1.0" stroke-width="3"/>
    <path d="M58.4141 55.6787C57.2946 56.77 95.4524 71.8347 95.5219 72.3246" fill="none" stroke="rgb(255, 0, 0, 1)" stroke-linecap="round" stroke-linejoin="round" stroke-opacity="1.0" stroke-width="3"/>
    <path d="M62.2981 54.3345C50.3964 67.0734 90.0368 44.4277 72.4585 60.1625" fill="none" stroke="rgb(255, 0, 0, 1)" stroke-linecap="round" stroke-linejoin="round" stroke-opacity="1.0" stroke-width="3"/>
    <path d="M93.2451 70.2901C97.202 27.1918 102.549 54.9488 86.4187 65.9503" fill="none" stroke="rgb(255, 0, 0, 1)" stroke-linecap="round" stroke-linejoin="round" stroke-opacity="1.0" stroke-width="3"/>
    <path d="M62.0413 39.2132C71.0964 57.3739 82.3153 70.063 50.5195 53.9498" fill="none" stroke="rgb(255, 0, 0, 1)" stroke-linecap="round" stroke-linejoin="round" stroke-opacity="1.0" stroke-width="3"/>
    <path d="M73.3223 63.1651C78.6514 65.713 65.537 55.5209 49.8857 59.0946" fill="none" stroke="rgb(255, 0, 0, 1)" stroke-linecap="round" stroke-linejoin="round" stroke-opacity="1.0" stroke-width="3"/>
    <path d="M67.3933 50.4273C25.4864 50.6874 77.239 50.2006 59.6679 39.8439" fill="none" stroke="rgb(255, 0, 0, 1)" stroke-linecap="round" stroke-linejoin="round" stroke-opacity="1.0" stroke-width="3"/>
    <path d="M95.6918 52.2392C89.5378 75.0108 60.6262 54.4647 53.4238 57.0873" fill="none" stroke="rgb(255, 0, 0, 1)" stroke-linecap="round" stroke-linejoin="round" stroke-opacity="1.0" stroke-width="3"/>
    <path d="M51.6062 55.4296C61.2168 34.0371 77.9913 78.5228 64.8882 56.1562" fill="none" stroke="rgb(255, 0, 0, 1)" stroke-linecap="round" stroke-linejoin="round" stroke-opacity="1.0" stroke-width="3"/>
    <path d="M57.6577 56.6404C60.3608 53.5152 78.1618 40.2944 65.7077 41.0711" fill="none" stroke="rgb(255, 0, 0, 1)" stroke-linecap="round" stroke-linejoin="round" stroke-opacity="1.0" stroke-width="3"/>
    <path d="M67.9889 59.1693C67.8584 41.3875 55.6456 60.3701 84.7511 68.0686" fill="none" stroke="rgb(255, 0, 0, 1)" stroke-linecap="round" stroke-linejoin="round" stroke-opacity="1.0" stroke-width="3"/>
    <path d="M51.8866 54.3154C55.1979 58.201 104.286 71.5696 116.738 76.6614" fill="none" stroke="rgb(255, 0, 0, 1)" stroke-linecap="round" stroke-linejoin="round" stroke-opacity="1.0" stroke-width="3"/>
    <path d="M42.7411 55.2267C47.5874 44.5922 89.3682 59.6346 73.6078 47.812" fill="none" stroke="rgb(255, 0, 0, 1)" stroke-linecap="round" stroke-linejoin="round" stroke-opacity="1.0" stroke-width="3"/>
    <path d="M94.8466 56.5756C94.2751 78.632 117.729 58.3295 71.2076 61.8735" fill="none" stroke="rgb(255, 0, 0, 1)" stroke-linecap="round" stroke-linejoin="round" stroke-opacity="1.0" stroke-width="3"/>
    <path d="M88.3354 59.5344C99.5303 66.1351 92.6664 62.5489 26.3901 48.2213" fill="none" stroke="rgb(255, 0, 0, 1)" stroke-linecap="round" stroke-linejoin="round" stroke-opacity="1.0" stroke-width="3"/>
    <path d="M94.0888 55.6857C80.9133 68.5814 118.645 74.4633 111.87 78.914" fill="none" stroke="rgb(255, 0, 0, 1)" stroke-linecap="round" stroke-linejoin="round" stroke-opacity="1.0" stroke-width="3"/>
    <path d="M67.2514 52.6048C13.0226 60.3775 3.5643 74.3541 43.6523 50.9568" fill="none" stroke="rgb(255, 0, 0, 1)" stroke-linecap="round" stroke-linejoin="round" stroke-opacity="1.0" stroke-width="3"/>
    <path d="M84.2393 68.7743C62.2887 51.8136 36.765 60.4508 67.918 41.9359" fill="none" stroke="rgb(255, 0, 0, 1)" stroke-linecap="round" stroke-linejoin="round" stroke-opacity="1.0" stroke-width="3"/>
    <path d="M103.559 77.2318C88.5163 47.4692 93.3747 44.406 94.2508 60.8302" fill="none" stroke="rgb(255, 0, 0, 1)" stroke-linecap="round" stroke-linejoin="round" stroke-opacity="1.0" stroke-width="3"/>
    <path d="M74.2132 33.9399C42.2975 54.9498 56.9441 70.5047 92.0564 55.0234" fill="none" stroke="rgb(255, 0, 0, 1)" stroke-linecap="round" stroke-linejoin="round" stroke-opacity="1.0" stroke-width="3"/>
    <path d="M62.6391 46.0042C68.1805 71.7135 75.6358 64.659 61.8476 52.8727" fill="none" stroke="rgb(255, 0, 0, 1)" stroke-linecap="round" stroke-linejoin="round" stroke-opacity="1.0" stroke-width="3"/>
    <path d="M90.3072 63.841C108.274 36.6214 108.863 48.7633 85.816 60.3414" fill="none" stroke="rgb(255, 0, 0, 1)" stroke-linecap="round" stroke-linejoin="round" stroke-opacity="1.0" stroke-width="3"/>
  </g>
</svg>
